<?xml version="1.0" encoding="utf-8"?>
<!-- Generator: Adobe Illustrator 25.2.3, SVG Export Plug-In . SVG Version: 6.00 Build 0)  -->
<svg version="1.1" id="Layer_1" xmlns="http://www.w3.org/2000/svg" xmlns:xlink="http://www.w3.org/1999/xlink" x="0px" y="0px"
	 viewBox="0 0 25 25" style="enable-background:new 0 0 25 25;" xml:space="preserve">
<style type="text/css">
	.st0{fill:none;stroke:#FFFFFF;stroke-width:1.5;stroke-linecap:round;stroke-linejoin:round;stroke-miterlimit:10;}
	.st1{fill:#FFFFFF;}
</style>
<path class="st0" d="M21.4,24.1H3.6c-1.5,0-2.7-1.2-2.7-2.7V3.7C1,2.2,2.1,1,3.6,1h17.8C22.9,1,24,2.2,24,3.7v17.7
	C24,22.9,22.9,24.1,21.4,24.1z"/>
<path class="st1" d="M6.3,11.8H4.4c-0.4,0-0.7-0.3-0.7-0.7V9.3c0-0.4,0.3-0.7,0.7-0.7h1.9c0.4,0,0.7,0.3,0.7,0.7v1.9
	C6.9,11.5,6.6,11.8,6.3,11.8z"/>
<path class="st1" d="M11.1,11.8H9.2c-0.4,0-0.7-0.3-0.7-0.7V9.3c0-0.4,0.3-0.7,0.7-0.7h1.9c0.4,0,0.7,0.3,0.7,0.7v1.9
	C11.7,11.5,11.4,11.8,11.1,11.8z"/>
<path class="st1" d="M15.9,11.8H14c-0.4,0-0.7-0.3-0.7-0.7V9.3c0-0.4,0.3-0.7,0.7-0.7h1.9c0.4,0,0.7,0.3,0.7,0.7v1.9
	C16.5,11.5,16.2,11.8,15.9,11.8z"/>
<path class="st1" d="M20.7,11.8h-1.9c-0.4,0-0.7-0.3-0.7-0.7V9.3c0-0.4,0.3-0.7,0.7-0.7h1.9c0.4,0,0.7,0.3,0.7,0.7v1.9
	C21.3,11.5,21,11.8,20.7,11.8z"/>
<path class="st1" d="M6.3,16.5H4.4c-0.4,0-0.7-0.3-0.7-0.7V14c0-0.4,0.3-0.7,0.7-0.7h1.9c0.4,0,0.7,0.3,0.7,0.7v1.9
	C6.9,16.2,6.6,16.5,6.3,16.5z"/>
<path class="st1" d="M11.1,16.5H9.2c-0.4,0-0.7-0.3-0.7-0.7V14c0-0.4,0.3-0.7,0.7-0.7h1.9c0.4,0,0.7,0.3,0.7,0.7v1.9
	C11.7,16.2,11.4,16.5,11.1,16.5z"/>
<path class="st1" d="M15.9,16.5H14c-0.4,0-0.7-0.3-0.7-0.7V14c0-0.4,0.3-0.7,0.7-0.7h1.9c0.4,0,0.7,0.3,0.7,0.7v1.9
	C16.5,16.2,16.2,16.5,15.9,16.5z"/>
<path class="st1" d="M20.7,16.5h-1.9c-0.4,0-0.7-0.3-0.7-0.7V14c0-0.4,0.3-0.7,0.7-0.7h1.9c0.4,0,0.7,0.3,0.7,0.7v1.9
	C21.3,16.2,21,16.5,20.7,16.5z"/>
<path class="st1" d="M6.3,21.2H4.4c-0.4,0-0.7-0.3-0.7-0.7v-1.9C3.8,18.3,4,18,4.4,18h1.9c0.4,0,0.7,0.3,0.7,0.7v1.9
	C6.9,20.9,6.6,21.2,6.3,21.2z"/>
<path class="st1" d="M11.1,21.2H9.2c-0.4,0-0.7-0.3-0.7-0.7v-1.9c0-0.4,0.3-0.7,0.7-0.7h1.9c0.4,0,0.7,0.3,0.7,0.7v1.9
	C11.7,20.9,11.4,21.2,11.1,21.2z"/>
<path class="st1" d="M15.9,21.2H14c-0.4,0-0.7-0.3-0.7-0.7v-1.9c0-0.4,0.3-0.7,0.7-0.7h1.9c0.4,0,0.7,0.3,0.7,0.7v1.9
	C16.5,20.9,16.2,21.2,15.9,21.2z"/>
<path class="st1" d="M20.7,21.2h-1.9c-0.4,0-0.7-0.3-0.7-0.7v-1.9c0-0.4,0.3-0.7,0.7-0.7h1.9c0.4,0,0.7,0.3,0.7,0.7v1.9
	C21.3,20.9,21,21.2,20.7,21.2z"/>
<line class="st0" x1="1.7" y1="6.2" x2="23.4" y2="6.2"/>
</svg>
