<?xml version="1.0" encoding="utf-8"?>
<!-- Generator: Adobe Illustrator 25.4.1, SVG Export Plug-In . SVG Version: 6.00 Build 0)  -->
<svg version="1.1" xmlns="http://www.w3.org/2000/svg" xmlns:xlink="http://www.w3.org/1999/xlink" x="0px" y="0px"
	 viewBox="0 0 820 554.7" style="enable-background:new 0 0 820 554.7;" xml:space="preserve">
<style type="text/css">
	.st0{display:none;}
	.st1{display:inline;fill:none;}
	.st2{display:inline;fill:#BDD630;}
	.st3{display:inline;fill:none;stroke:#FFFFFF;stroke-width:1.5;stroke-linecap:round;stroke-linejoin:round;stroke-miterlimit:10;}
	.st4{display:inline;fill:#BDD631;}
	.st5{fill:none;stroke:#000000;stroke-width:1.5;stroke-miterlimit:10;}
	.st6{fill:none;stroke:#000000;stroke-width:1.5;stroke-linecap:round;stroke-linejoin:round;stroke-miterlimit:10;}
	.st7{fill:none;stroke:#000000;stroke-linecap:round;stroke-linejoin:round;stroke-miterlimit:10;}
	.st8{fill:none;stroke:#000000;stroke-width:0.5;stroke-linecap:round;stroke-linejoin:round;stroke-miterlimit:10;}
	.st9{fill:none;stroke:#000000;stroke-miterlimit:10;}
	.st10{fill:none;stroke:#000000;stroke-width:0.5;stroke-linecap:round;stroke-miterlimit:10;}
	.st11{fill:none;stroke:#000000;stroke-width:0.5;stroke-miterlimit:10;}
	.st12{fill:none;stroke:#000000;stroke-width:0.75;stroke-miterlimit:10;}
</style>
<g id="Layer_1" class="st0">
	
		<image style="display:inline;overflow:visible;" width="999" height="563" xlink:href="../../../../../Downloads/0371b2c1331f4ea18d286183e6063ff2_1072x604.jpeg"  transform="matrix(1 0 0 1 -84.3068 -12.403)">
	</image>
	<path class="st1" d="M773.1,341.2c2.5,42.8-9.3,82.8-9.3,82.8"/>
</g>
<g id="Layer_5">
</g>
<g id="Windscreen" class="st0">
	<path class="st2" d="M593.8,63.5c-3.7,73.5-11.6,95.1-11.6,95.1c-5.1,9.4-17.9,9.4-17.9,9.4c-47.8,2.1-95.1-0.5-95.1-0.5
		c-71.1-4-108.5-2.9-108.5-2.9c-103.9,2.1-142.4,4.8-142.4,4.8c-9.1-1.1-3.5-8-3.5-8c55.6-68.9,91.4-93.5,91.4-93.5l5.7,0l2.4-1.3
		c89.4-8,153.7-6.4,153.7-6.4C564.6,61.9,593.8,63.5,593.8,63.5z"/>
	<path class="st3" d="M467.7,161.7c-120.7-6.5-233.8,1.6-233.8,1.6c-11.8,0-4.3-10.7-4.3-10.7c36.6-51.3,67.6-72.4,67.6-72.4
		c11-9.4,25.4-9.4,25.4-9.4c43.5-3.5,64.9-3.7,64.9-3.7c2,10.5,4.7,11.6,4.7,11.6l6.5,2.2l39.2-0.5c33.8-5.4,40.3-12.5,40.3-12.5
		c3.8-3.3,15.3-3.3,15.3-3.3l71.4,2.7c17.4,1.1,16.3,9.3,16.3,9.3c-0.5,36-7.1,63.8-7.1,63.8c-3.3,17.4-14.2,17.4-14.2,17.4"/>
	<path class="st2" d="M717.8,152.9c-11.7-41.9-22.2-58-25.6-62.4c-0.7-0.9-1.5-1.5-2.5-1.9c-17.8-7-36.7-10.9-36.7-10.9
		c11.2,22.9,20.7,50.9,20.7,50.9c11.3,4.2,12.9,12.1,12.9,12.1c-0.1,8-4.6,19.8-4.6,19.8L717.8,152.9z"/>
	<path class="st2" d="M660.3,124.9c-10.4-29.6-15.6-41.6-17.6-46c-0.7-1.4-2-2.4-3.6-2.6c-24.7-3.1-26.7,6.9-26.7,6.9
		c-4.1,23.4-4.6,55-4.6,55l2.9,19.2l10.2,0c0-18.5,2.2-26.7,7.6-30c9.1-3.7,14.7-3.1,14.7-3.1L660.3,124.9z"/>
	<path class="st2" d="M715,100.1c-3.8-7.6-18.5-12.5-18.5-12.5c15.3,19.9,25.9,53.4,25.9,53.4c0.8,4.4,2.7,0.8,2.7,0.8
		c0.5-1.4,3-1.4,3-1.4l7.9-1.2C732.2,128.5,715,100.1,715,100.1z"/>
</g>
<g id="Light" class="st0">
	<path class="st4" d="M83.4,262.5c-11.9-5.7-7.5-23-7.5-23c5.4-16.2,11-24.9,11-24.9c3.1,3,5.7,2.8,5.7,2.8l29.7,3
		c-0.8,21.2,5.7,45.6,5.7,45.6l1.3,5.7l-20.5-6.3l-7.2-2.8l-3.6-0.6l-6.1,0.8L83.4,262.5z"/>
	<path class="st4" d="M367.7,278.3c31.6-9.3,51.8-7.4,51.8-7.4l25.1,2.5l56.9-11.7c20.3-6.4,29.3-23.1,27.5-28.3
		c7.6-22.1-15.3-13.9-15.3-13.9c-64.8,7.1-85.8,3.3-85.8,3.3c-27.8,0.8-30.8,10.4-30.8,10.4l-21.8,31.3L367.7,278.3z"/>
	<polygon class="st4" points="621.3,147.8 623,156.7 650.7,156.7 670.4,154.3 681,149.4 	"/>
	<path class="st4" d="M211.1,147.9l-7.5-2.6l-25.3-1.6c1.9,8.3,12.3,9,12.3,9l13.4,0.7l4.1,2.3l5.3-5L211.1,147.9z"/>
</g>
<g id="Layer_2">
	<path class="st5" d="M399.8,48.3c-31.8-1-53-0.4-59.4,0c-1.9,0.1-3.8,0.5-5.6,1.1C315.6,56,303.9,67,303.9,67l8.3,0.8
		c1.5-1.3,3.3-2.5,4.9-3.7c15.4-11,39.2-10.2,39.2-10.2"/>
	<path class="st6" d="M321.8,61.9c53.2-15.2,141.3-18.4,141.3-18.4c69.7-1.3,127.1,3.3,126.1,2.7"/>
	<path class="st6" d="M602.6,48.8c40.1-9.9,104.2,35.5,104.2,35.5C713.4,89,717,97.6,717,97.6l6.1,15.1"/>
	<path class="st6" d="M315.9,66.4C427.6,53.3,593.5,64,593.5,64l1.1-4.5c12.8-25.9,91.6,11.8,91.6,11.8"/>
	<path class="st7" d="M320.4,64.8c100.7-12.3,263.2-3.7,263.2-3.7c4.5-20.6,13.1-19.2,13.1-19.2c40.9-2.4,89.5,29.4,89.5,29.4"/>
	<line class="st6" x1="584.4" y1="58.9" x2="594.6" y2="59.5"/>
	<path class="st6" d="M593.2,67c-3.7,73.5-11,91.6-11,91.6c-5.1,9.4-17.9,9.4-17.9,9.4c-47.8,2.1-95.1-0.5-95.1-0.5
		c-71.1-4-108.5-2.9-108.5-2.9c-103.9,2.1-142.4,4.8-142.4,4.8c-9.1-1.1-3.5-8-3.5-8c55.6-68.9,91.4-93.5,91.4-93.5"/>
	<path class="st6" d="M199,166.9c65.7-74,100.4-98.1,100.4-98.1"/>
	<path class="st6" d="M223.2,139.6c0.8-15.1-4.5-15.5-4.5-15.5c-27.5-2.9-37.4,9.4-37.4,9.4c-10.2,12-1.1,27.8-1.1,27.8
		c6.9,6.4,19,6.7,19,6.7l9.6-7.7c66-79.6,102.3-99.1,102.3-99.1"/>
	<polyline class="st7" points="178.8,144.2 205.3,146 212,148.2 213.6,151.1 	"/>
	<path class="st6" d="M195.4,168c-28.1,6.4-50.5,20.8-50.5,20.8c-6.1,5.1-15.5,6.9-15.5,6.9c-29.9,4.3-35.3,10.4-35.3,10.4
		c-3.5,1.3-6.4,7.7-6.4,7.7c-1.3,2.9,2.4,2.9,2.4,2.9c21.4,4.5,48.4,3.7,48.4,3.7c131.2,2.7,180.9,2.7,180.9,2.7
		c97.6,1.2,153.3-0.9,165.5-1.5c1.6-0.1,3-1,3.6-2.4l2.4-5.2c12.6-12.8,74.8-22.2,74.8-22.2c16-1.9,10.4-12.8,10.4-12.8l-2.7-8.8
		l-5.9-1.6"/>
	<path class="st7" d="M119.5,203.3c17.2-1.6,27.6-12.4,27.6-12.4c8.5-8,40.6-20.7,40.6-20.7"/>
	<path class="st7" d="M566.2,172.2c-62,9.4-139.5,30.5-139.5,30.5"/>
	<path class="st7" d="M512.5,176.5c-52.1-3.1-70.7-2.6-74.4-2.4c-0.5,0-0.9,0.1-1.3,0.1c-54.2,7.8-95.8,24-95.8,24"/>
	<path class="st7" d="M201.8,172.2c2.6,0.4,4.5,0.8,5.7,1.2c1.5,0.5,2.4,2.1,2.2,3.7c-1.5,8.7-0.6,18.7-0.6,18.7"/>
	<path class="st6" d="M467.7,161.7c-120.7-6.5-233.8,1.6-233.8,1.6c-11.8,0-4.3-10.7-4.3-10.7c36.6-51.3,67.6-72.4,67.6-72.4
		c11-9.4,25.4-9.4,25.4-9.4c43.5-3.5,64.9-3.7,64.9-3.7c2,10.5,4.7,11.6,4.7,11.6l6.5,2.2l39.2-0.5c33.8-5.4,40.3-12.5,40.3-12.5
		c3.8-3.3,15.3-3.3,15.3-3.3l71.4,2.7c17.4,1.1,16.3,9.3,16.3,9.3c-0.5,36-7.1,63.8-7.1,63.8c-3.3,17.4-14.2,17.4-14.2,17.4"/>
	<path class="st6" d="M367.5,278.4c0,0,0,0-91.5,9.4l-9.4,4.7c0,0-3.3,1.5-9.4,2.2l-19.3,1.5c0,0-5.8,1.5-9.1-0.4l-21.1-3.3
		c0,0-2.2-0.7-6.9-4.7c0,0-2.2-2.2-5.1-3.6l-6.2-0.7c-30.8-4.8-79.6-17.1-79.6-17.1C103,265,88,266.1,88,266.1"/>
	<path class="st6" d="M87.6,213.8c0,0-1.7,0.7-2.7,2.9c-8.7,19.1-10,28.8-10,28.8c-0.5,5,1.6,10.6,1.6,10.6c2.1,3.5,6.9,6.8,6.9,6.8
		c5,0.5,10.1-0.2,13.2-0.8"/>
	<path class="st6" d="M123,241.7c0,0-1.8-13.8-7.3-15.3c0,0-7.6-1.8-23.2-5.4"/>
	<path class="st8" d="M78.7,230.5c-5.4,11.6-5.8,20.7-5.8,20.7c0.4,6.3,14.6,15.2,14.6,15.2"/>
	<path class="st6" d="M78.3,232.1c0,0-2.9,6.4-7.6,14.7c-2.9,4-7.8,10.4-8,11.6c-0.7,5.8-6.5,28.3-6.5,28.3
		C49.7,299.9,46,308.9,46,308.9c-6.5,11.3,0.7,58.1,0.7,58.1c2.2,21.1,1.6,30.7,1.6,30.7l0.6,6.4c2,19.2,12,20.7,12,20.7l15.3,3.8
		c37.1,7.3,65.5,6.9,65.5,6.9"/>
	<path class="st6" d="M44.2,314.8c1.8-8.4,12-4,12-4c34.1,9.8,49.8,22.2,49.8,22.2"/>
	<path class="st6" d="M109.6,339.5c3.6,12.4,2.9,20.7,2.9,20.7c-19.3,26.5-32.3,39.6-32.3,39.6c-5.3,5.3-11.7,3.6-12.7,2.9
		c-19-3.9-18.2-8.7-18.2-9.8"/>
	<path class="st7" d="M53.3,316.2c27.2,8.7,46.1,20,46.1,20c6.2,3.6,7.3,8.4,7.3,8.4l0.4,7.6c-8,14.5-31.6,42.1-31.6,42.1
		c-6.5,5.1-9.1,1.1-9.1,1.1c-8.2-2.7-13.1-3.3-13.1-3.3"/>
	<path class="st6" d="M367.5,278.4c19.6-35.2,34.1-51.9,34.1-51.9c0.7-3.3-3.3-2.9-3.3-2.9"/>
	<path class="st6" d="M386.4,229.4l-27.2,36.7c-11.3,6.9-14.5,7.6-14.5,7.6l-53.4,5.1c-35.2,1.5-35.2,1.5-35.2,1.5l-13.1,4.7
		l-10.9-0.4l-9.4-5.1l-28-2.9l-3.6,0.7c-27.6-4-43.2-8.4-43.2-8.4c-10.9-3.3-13.4-26.5-13.4-26.5c0.4-12,0.4-12,0.4-12l-7.6-5.1
		c109.3,4,265.9,4,265.9,4"/>
	<path class="st7" d="M133.1,229.1c70.5,2,77.9,3.2,77.9,3.2l6.2,5.8l9.1,0.7"/>
	<polyline class="st7" points="383.8,232.1 279.1,233 267.2,239 256.8,239.3 	"/>
	<polyline class="st7" points="256.3,255.4 270.4,248 375.3,244.7 	"/>
	<polyline class="st7" points="364.1,259.5 260.3,263.8 253,268.4 243.6,269 	"/>
	<path class="st6" d="M137.7,240.4c38.5,4.9,62.4,5.6,70.8,5.7c2.2,0,4.3,0.8,6,2.2l7.4,6"/>
	<path class="st6" d="M141.3,253.7C177,261.6,217,263,217,263l6.5,4.9l7.9,0.5"/>
	<path class="st6" d="M203.1,290c0,0-42.9-6.3-94.2-20.6c-7.1-2-21.2-3.4-21.2-3.4"/>
	<path class="st6" d="M266.5,292.6c78.6-2.9,150.2-17.9,150.2-17.9c9-2.5,27.8-1.4,27.8-1.4"/>
	<path class="st6" d="M450.9,272.9c0,0-8.9-6.9-47.8-0.5l-30.1,4.9"/>
	<path class="st6" d="M621.6,398.1c1.6,0,98.6-37.1,98.6-37.1c9.8-6,10.9-13.6,10.9-13.6c12.5-70.8,27.2-99.7,27.2-99.7
		c10.8-14.1,16.5,9.8,16.5,9.8"/>
	<path class="st6" d="M631.4,212.3l131.3-38.1c2.2-6,0-9.3,0-9.3l-13.6-9.8c-6-9.8-8.7-12.5-8.7-12.5l-5.7,0.9
		c-0.8,0.1-1.4,0.6-1.7,1.3l-4.4,9.4c-0.4,0.9-1.2,1.6-2.2,1.8l-49.1,11.4"/>
	<path class="st7" d="M659.2,171.5l-56.1,14.2c10.4-8.7,17.4-10.9,17.4-10.9l14.2-4.1"/>
	<path class="st6" d="M682.6,160.5c2-0.5,35.7-7.3,40.6-8.4c0.6-0.1,1.1-0.4,1.5-0.9c2-2.4,3.9-9,3.9-9c0.8-2.5,2.4-2.5,2.4-2.5
		l7.5-0.9c1.8,1.3,1.8,3.7,1.8,3.7"/>
	<path class="st6" d="M736,139c-12.3-28.6-25.3-45.8-25.3-45.8c-35.7-23.2-79.6-25.9-79.6-25.9c-21.3-1.9-22.3,12.5-22.3,12.5
		l-7.1,77.4h15.5c17.2-0.3,25.3-0.5,25.3-0.5c0.8,8.7,2.2,13.6,2.2,13.6c-28.6,0-46,9.3-46,9.3"/>
	<path class="st6" d="M717.8,152.9c-11.7-41.9-22.2-58-25.6-62.4c-0.7-0.9-1.5-1.5-2.5-1.9c-17.8-7-36.7-10.9-36.7-10.9
		c11.2,22.9,20.7,50.9,20.7,50.9"/>
	<path class="st6" d="M660.3,124.9c-10.4-29.6-15.6-41.6-17.6-46c-0.7-1.4-2-2.4-3.6-2.6c-24.7-3.1-26.7,6.9-26.7,6.9
		c-4.1,23.4-4.6,55-4.6,55"/>
	<path class="st6" d="M604.7,126.8c4.4,16.3,5.7,30.2,5.7,30.2"/>
	<path class="st6" d="M621.3,156.7c-1.1-12.5,0.8-19.9,2.7-24c1.4-3.1,4-5.5,7.1-6.7c5.2-2,10.1-1.7,10.1-1.7
		c28.3-0.3,38.4,7.4,38.4,7.4c6.8,3.5,7.1,9.5,7.1,9.5c-1.6,21.3-12.3,28.6-12.3,28.6c-5.2,2.2-9.5,1.6-9.5,1.6l-20.2-1.1"/>
	<path class="st6" d="M646.9,156.5c16.9-0.8,25.3-2.2,25.3-2.2c4.6-0.8,8.7-5.7,8.7-5.7l-58.3-0.3"/>
	<path class="st6" d="M715.1,99.7c-3.8-7.6-18.6-12.2-18.6-12.2c15.3,19.9,25.9,53.4,25.9,53.4c0.8,4.4,2.7,0.8,2.7,0.8
		c0.5-1.4,3-1.4,3-1.4"/>
	<path class="st6" d="M703.9,196l52.3-14.2l5.7,1.6l4.1,5.2l3.5,0.3c0,0,1.9-12-5.2-22.3"/>
	<line class="st6" x1="684.8" y1="167.6" x2="698.2" y2="184.3"/>
	<path class="st6" d="M731.7,342.3l-13.6,5.2c-0.3,0.9-1,3.8-7.1,6l-82,30.8l-4.6,2.7l-1.1,3.5l1.9,1.6l100.5-37.1
		c4.6-3,5.4-7.6,5.4-7.6"/>
	<path class="st6" d="M632.2,331.9c0,0,3.3,3.3,9.3,1.6l79.6-28.7c3.1-1.1,5.3-3.9,5.8-7.2c6.7-50.6,15.1-59.8,15.1-59.8"/>
	<path class="st6" d="M751.5,276.9c21.8,5.2,21.8,57.8,21.8,57.8c9.3-36.5-2.7-72.2-2.7-72.2c-8.2-18-16.9,7.6-16.9,7.6
		c-7.1,24.5-15.3,63.5-15.3,63.5c-8.2,40.3-26.4,44.1-26.4,44.1L616.1,415"/>
	<path class="st6" d="M773.6,334.7c2.4,48.5-5.3,76.5-5.3,76.5c-5.6,25.4-18.2,25.6-18.2,25.6l-39.8-0.5c-7.6-1.6-9.8-7.6-9.8-7.6
		c-12.3-15.3-10.6-42.2-10.6-42.2"/>
	<path class="st6" d="M571.5,296.2c20.2,2.7,24,9.8,24,9.8c16.6,20.2,19.6,70.8,19.6,70.8c3,55-5.4,89.9-5.4,89.9
		c-7.9,33.8-22.1,43-22.1,43c-6.8,4.1-16.1,4.6-16.1,4.6l-50.1-2.5c-11.4-1.6-16.9-14.2-16.9-14.2c-15.8-26.7-14.7-50.7-14.7-50.7"
		/>
	<path class="st6" d="M77.7,410.9c12.8-6.4,36.1-4.1,36.1-4.1l260.7,11.4c29.4,2.5,36,10.6,36,10.6"/>
	<path class="st7" d="M373.5,408.8h21.3c5.6,0.4,6,0.5,6,0.5L372,380.3c0,0-3.8-4.5-9.6-4.9l-243.7-10.3c-3.3-0.2-6,1.6-8,3.9
		l-24.4,33.2c13.8-5,21.7-3.9,25.5-2.6c2.6,0.9,7,1.9,9.7,1.8l14.9,0.7l83.2,3.3"/>
	<path class="st6" d="M121.6,401.6c0,0-6.2-4.7-3.7-11.1l5.7-16.3c2.4-4.9,6.4-4.5,6.4-4.5l219.8,8.9c1.4,0,6,1.9,7.6,6.3l10.6,18.8
		l3.9,8.9l26.5,0.4c11.8,0.9,19.6,4.5,19.6,4.5"/>
	<path class="st6" d="M70.5,427.3c5.7,38.4,23.7,51.5,23.7,51.5c10.4,8.2,25.1,10.4,25.1,10.4l34.3,1.1c19.1-0.8,24.8-9.8,24.8-9.8
		c13.9-10.6,18-27.8,18-27.8"/>
	<path class="st6" d="M126.8,434.6c18,14.7,77.6,18,77.6,18c1.6,0.8,130.8,9,130.8,9c45.8,0,76.8-4.9,76.8-4.9l7.2-0.9
		c3.6-0.4,6.5-3,7.5-6.5l0,0"/>
	<path class="st6" d="M434.2,451.8"/>
	<path class="st8" d="M63.1,286.7c9-0.8,10.6,6.5,10.6,6.5L86,312.9c4.1,6.5,10.6,7.4,10.6,7.4"/>
	<path class="st6" d="M372,340.6c53.9-14.7,114.4-15.5,114.4-15.5c22.1-0.8,23.7,6.5,23.7,6.5c8.2,32.7,5.7,69.5,5.7,69.5
		c-1,17.6-17.2,17.2-17.2,17.2l-62.1,4.1c-17.7,0.5-34.6-17.7-34.6-17.7l-29.2-28.9c-10.6-9-9.4-14.7-9.4-14.7l0.3-12
		C364.3,343.3,372,340.6,372,340.6z"/>
	<path class="st7" d="M375,349.1v11.5c0,1.5,0.7,2.9,1.9,3.8c41.3,31.9,77.4,48.7,77.4,48.7c9.5,3,45.6-0.3,45.6-0.3
		c6.5-1.3,8.4-10.8,8.4-10.8c4-27.4-5.3-65.4-5.3-65.4c-2.2-9.8-16-8.6-16-8.6C427,330.1,381,341.2,381,341.2
		c-9.5,1.6-13.3,5.3-13.3,5.3c-0.9,0.7-1.3,3.7-1.3,3.7l-0.2,8.5"/>
	<polyline class="st7" points="396.9,355.9 408.9,361.6 496.8,355.8 499.9,354.2 501.5,348.3 	"/>
	<path class="st6" d="M447.9,363c18.6,13.6,25.8,18.7,25.8,18.7c3.1,2.6,7.2,3.1,7.2,3.1h25.2"/>
	<path class="st7" d="M385.3,345.3c62.7-12.7,99.6-14.2,99.6-14.2"/>
	<path class="st6" d="M442.4,352.4v-6.6c0.6-4.4,9.8-6.7,9.8-6.7l26.4-5.4"/>
	<path class="st6" d="M468.1,362.5c7.5,0.5,8.7,3,8.7,3l9.8,8.1c2.8,1.8,5.7,1.8,5.7,1.8"/>
	<path class="st6" d="M543.8,390.6l-4.4,0.1l-9.3,5l-9.8-0.1c-1.1,17.3-7.9,21-7.9,21"/>
	<path class="st7" d="M509.2,419.8c-5.7,3.8-10.9,3.5-10.9,3.5l-93,5"/>
	<path class="st8" d="M520.7,390.5c1.5-30.2-6-60.2-6-60.2"/>
	<path class="st8" d="M530.1,390.9c7.8-43.7,20.3-79.6,20.3-79.6"/>
	<path class="st7" d="M556.6,316.7c19.3-63.2,42-61.6,42-61.6c17.6-0.4,25.9,39.5,25.9,39.5"/>
	<path class="st6" d="M439.1,166c38.1-4.4,46.9-7.6,46.9-7.6l24.5,0.5l-0.5,7.1l-10.9,2.7"/>
	<path class="st6" d="M606.9,189.4c13.6,15.3,13.6,38.7,13.6,38.7"/>
	<path class="st5" d="M603.1,185.6"/>
	<path class="st6" d="M460.3,271.2l42-9.8c20.7-5.4,24.5-29.4,24.5-29.4c1.4-9.7-4.9-8-4.9-8s-17.5,1.7-31.3,2.6l-54.8,2.7
		c0,0-26.2-0.5-36.5,12.8l-17.2,27.2"/>
	<path class="st6" d="M487.1,221.7c14-0.5,32.5-2.8,32.5-2.8c13.8-1.8,11.1,8.5,11.1,8.5c-2.5,21.9-18.9,29.9-18.9,29.9"/>
	<path class="st7" d="M496.8,271.2c0,0-16.3,5.4-43.6,10.9c0,0-80.6,18.2-211.4,23.2c-32.4,1.3-131.5-16.7-131.5-16.7
		c-34.1-10.2-44.7-26.5-44.7-26.5"/>
	<path class="st6" d="M258.5,248.3c-2.2,14.9-14.5,18.9-22.2,18.2c-9.2-0.9-13.8-7.4-13.8-17.4s9.3-19.7,18.5-20
		C252,228.7,260,238.4,258.5,248.3z"/>
	<path class="st6" d="M253.9,247.4c-1.7,11.7-10.6,14.7-17.4,14.3c-7.2-0.4-10.8-5.8-10.8-13.7c0-7.9,7.3-15.5,14.6-15.7
		C248.8,232,255.1,239.6,253.9,247.4z"/>
	<polyline class="st6" points="229.8,265 233.5,273.7 240.4,274.1 245.1,265.7 	"/>
	<polyline class="st7" points="151.4,270.4 195.3,280.3 200.4,281 214.6,286.1 236.7,289 262.9,286.8 270.9,283.5 278.9,282.1 
		334.1,277 340.6,275.9 344.6,273.7 	"/>
	<path class="st7" d="M119.8,258.5l-5.7-2c-6.4-2.2-13.4-2.1-19.8,0.4l-2.2,0.9"/>
	<path class="st7" d="M51.1,400.4c9.3,12.7,66.1,14.7,66.1,14.7l89.4,4.8c87,4.9,162.5,5.7,162.5,5.7c13.3,0,18,7.6,18,7.6
		c6.3,7.1,11.4,8.7,11.4,8.7"/>
	<path class="st6" d="M77.7,410.9c10.2,17.4,41.8,20.3,41.8,20.3"/>
	<path class="st7" d="M382.4,428.6c10.9,0.3,23.4-0.3,23.4-0.3"/>
	<path class="st8" d="M374.5,306.3l-10,15.5c-3,4.6-3.5,10.4-1.5,15.6v0"/>
	<path class="st8" d="M109.7,296.5c0.9,3.6,1.5,6.8,2.1,9.5c1.5,7.2-0.2,14.7-4.5,20.7h0"/>
	<path class="st8" d="M499.5,289.2c-37.6,22.1-109.5,40-109.5,40"/>
	<path class="st8" d="M697.3,353.7v-11.4l3.3-30.2l-3.3-18.8c12.3-67.8,6.5-83.4,6.5-83.4"/>
	<path class="st6" d="M615.6,391.6c0,0,18.5-58.8-2.7-108.4c0,0-8.7-22.9-25.6-10.9c-9.3,5.4-28.7,33.2-47.4,142.8
		c0,0-1.1,4.3-1.1,13.1c0,0-1.7,12.4-7.9,16.4c-0.6,0.4-1.4,0.6-2.1,0.7c-7.4,0.8-53.8,0.8-108.5,3.3c-20.5,0.9-20.4,1.6-20.4,1.6
		l-36,1.6l-209.2-11.4l-27.5-5.7c1.6,0,218.8,12,218.8,12c32.4,1.4,55.3-1.1,55.3-1.1c6.5-1.4,9.3-16.6,9.3-16.6"/>
	<path class="st8" d="M514.6,443.5c-48.1-1.2-96.3-7.9-96.3-7.9"/>
	<polyline class="st6" points="510.4,158.9 560.6,157.3 560.8,161.7 511,163.8 	"/>
	<path class="st6" d="M147.3,321.1v39.4c0,1.7,1.4,3.2,3.1,3.2l152.2,5.7c1.9,0.1,3.5-1.5,3.5-3.4l-0.2-39.6c0-1.5-1.2-2.6-2.6-2.7
		l-154.5-4C147.9,319.7,147.3,320.3,147.3,321.1z"/>
	<path class="st9" d="M150.6,324.4v31.4c0,0.8,0.6,1.4,1.4,1.5l148.3,6.4c1.1,0,2-0.8,2-1.9v-32.4c0-1.2-0.9-2.1-2.1-2.1l-148.4-4
		C151.1,323.2,150.6,323.8,150.6,324.4z"/>
	<path class="st10" d="M209.1,156.7c-4-3.6-9.4-3.3-9.4-3.3l-14.4-1.8c-3.9-1.3-5.3-3.8-5.3-3.8"/>
	<path class="st7" d="M445.6,273.6c11.4-1.6,15.5-2.5,15.5-2.5"/>
	<path class="st7" d="M605,200.9c-13.9-11.4-53.1,3.3-53.1,3.3c-24.5,8.2-77.6,9.8-77.6,9.8c-183.1,2.5-349.8-2.5-349.8-2.5
		c-23.7-1.6-22.1-7.4-22.1-7.4"/>
	<path class="st8" d="M137.8,235.1c30.7,3.7,85.5,7,85.5,7"/>
	<path class="st8" d="M259.7,243.5c64.6-1,114.7-3,114.7-3"/>
	<path class="st8" d="M139.6,248.8c33.2,6,83.7,9.5,83.7,9.5"/>
	<path class="st8" d="M254.2,259.7c48.1-1.5,110.2-5.5,110.2-5.5"/>
	<path class="st8" d="M347.7,269.5c-121.1,17.2-201.1-5.2-201.1-5.2"/>
	<path class="st8" d="M571.5,318c13.1-28.3,26.2-8.2,26.2-8.2"/>
	<path class="st7" d="M96.9,345.3l-1.8,2.2c-2.5,3-6.6,4.1-10.3,2.9L59.3,342c-3.3-4.4-4.9-7.1-4.9-7.1"/>
	<path class="st8" d="M52.7,375.8c12,5.4,26.2,6,26.2,6"/>
	<path class="st8" d="M431.4,395.9c6.5,1.6,12.4,0.9,12.4,0.9l52.7-0.7c4.9-1.1,6.9-1.3,6.9-1.3"/>
	<path class="st7" d="M255.6,407.8l98.4,4.4c12.4-0.7,14.2-4.7,14.2-4.7"/>
	<path class="st8" d="M115,400.1c-5.1-6.5-12.7-5.4-12.7-5.4c8.4-16.3,10.9-21.4,10.9-21.4c4-6.5,13.1-5.4,13.1-5.4"/>
	<path class="st8" d="M122.3,391c8,2.9,12.7,2.9,12.7,2.9l83.5,3.3"/>
	<path class="st8" d="M254.2,399c1.5,0,83.9,4.4,83.9,4.4c22.9,0,28-2.2,28-2.2"/>
	<path class="st8" d="M126.3,378.7c5.4,2.2,10.9,1.8,10.9,1.8l18.9,0.7v9.8"/>
	<path class="st8" d="M355.2,390.3c-24-1.1-40-2.2-40-2.2"/>
	<path class="st6" d="M219.7,383.4l0.4,18.5c0.4,3.3,4.7,4,4.7,4l18.5,0.7c5.4,0.7,6.5-6.2,6.5-6.2v-17.1"/>
	<g>
		<ellipse class="st11" cx="755.1" cy="358.5" rx="1.2" ry="5.7"/>
		<path class="st11" d="M752.2,411l2.2-25.4l0.5-15.4c0.1-3.6,0.7-3.7,0.7-3.7c0.6-0.4,0.9,3.7,0.9,3.7l1,14.1l3,24.7"/>
		<path class="st11" d="M753.4,412.8l1.7-27.1l0.2-15.7c0-1.5,0.2-1.5,0.2-1.5c0.3-0.2,0.3,1.2,0.3,1.2l0.9,14.9l2.6,26.1"/>
		<g>
			<path class="st11" d="M743.6,360.8l5.6,1.5l3.3-2.5c0.8-0.4,1,2,1,2c0.3,2.7-0.5,5.3-0.5,5.3l-2.6,8.6l-4,19.7"/>
			<path class="st11" d="M743.6,366.8l5.9-1.4l3.3-3.7c0.3-0.4,0.4,0.5,0.4,0.5c0.1,1.2-0.1,1.9-0.1,1.9l-2.8,8.6l-4.3,17.7"/>
		</g>
		<g>
			<path class="st11" d="M750.6,306.4l1.9,26.8l1.7,13.3c0.4,3.2,0,4.9,0,4.9c-0.4,2.2-1.2-0.1-1.2-0.1l-2.7-8l-5.6-10.5"/>
			<path class="st11" d="M749.7,308.8l2.3,26.5l2,12.8c0.2,1.2,0,1.8,0,1.8c-0.2,1-0.4,0.1-0.4,0.1l-2.7-8.8l-5.4-12.8"/>
		</g>
		<g>
			<path class="st11" d="M765,323.9l-5.6,16.1l-2.4,10.8c-0.6,2.4-1,1-1,1c-0.6-1.5-0.2-5.6-0.2-5.6l1.1-13.9l1-28.9"/>
			<path class="st11" d="M764.1,320l-5.2,17.9l-2.2,11.7c-0.2,1.1-0.4,0.5-0.4,0.5c-0.3-0.6-0.1-2-0.1-2l1.2-14.4l1.5-30.2"/>
		</g>
		<g>
			<path class="st11" d="M765.4,389.8l-4.9-18l-3-6.8c-0.7-1.8-0.6-4.2-0.6-4.2c0.1-3,1-3,1-3l3.2-0.1l6.3-6.3"/>
			<path class="st11" d="M766.1,385.3l-5.4-16.7l-3.1-5.8c-0.3-0.5-0.2-1.4-0.2-1.4c0-1.3,0.4-1.2,0.4-1.2l3.3,0.4l6.6-4.1"/>
		</g>
		<path class="st11" d="M754.8,301.9c0.4,20.2,0.1,34.7,0.1,34.7s-0.7-13.7-1-34.3"/>
		<ellipse class="st9" cx="755.6" cy="358" rx="12.1" ry="56.3"/>
		<path class="st11" d="M749,403.5c2.2-17.5,4.2-28.4,4.2-28.4s-1.2,13-3.4,30.7"/>
		<path class="st11" d="M762.8,402.9c-2.9-15.3-4.5-27.7-4.5-27.7s2.3,9.2,5.2,24.7"/>
		<path class="st11" d="M743.9,344.7c4.3,3.9,7.2,9.2,7.2,9.2s-3-0.8-7.4-4.8"/>
		<path class="st11" d="M767,340c-4.1,6.7-7.5,9.4-7.5,9.4s3.1-7,7.2-13.8"/>
	</g>
	<ellipse class="st9" cx="756.2" cy="358.1" rx="13.3" ry="59.1"/>
	<path class="st6" d="M777.7,311.8c2.3-40.4-6.3-76-6.3-76c-0.5-2-0.8-4.4-0.8-4.4s1.1-20.2-0.8-40.3"/>
	<g>
		
			<ellipse transform="matrix(1.984289e-02 -0.9998 0.9998 1.984289e-02 164.4846 984.8865)" class="st9" cx="584.6" cy="408.6" rx="7.7" ry="2"/>
		<path class="st11" d="M578,480.8l4.6-35.5l1.2-20.9c0.3-4.9,1.2-5.1,1.2-5.1c1.1-0.6,1.5,5.1,1.5,5.1l1.3,19.1l4.3,33.4"/>
		<path class="st11" d="M580.1,482.5l3.6-36.6l0.8-20.9c0.1-2,0.4-2,0.4-2c0.5-0.3,0.5,1.6,0.5,1.6l1.2,19.8l3.7,35.1"/>
		<g>
			<path class="st11" d="M564.8,412l8.9,2.1l5.2-3.3c1.2-0.6,1.5,2.6,1.5,2.6c0.4,3.6-0.8,7.1-0.8,7.1l-4.2,11.4l-6.4,26.3"/>
			<path class="st11" d="M564.3,419.9l8.8-1.5l4.8-4.7c0.5-0.5,0.6,0.7,0.6,0.7c0.2,1.6-0.2,2.6-0.2,2.6l-4,11.4l-6.1,23.5"/>
		</g>
		<g>
			<path class="st11" d="M578.3,337.9l2.5,36.3l2.6,18c0.6,4.4-0.2,6.7-0.2,6.7c-0.8,3-2.1-0.2-2.1-0.2l-4.3-10.8l-9-14.2"/>
			<path class="st11" d="M576.7,341.2l3.2,35.9l2.9,17.3c0.3,1.6,0,2.4,0,2.4c-0.3,1.4-0.7,0.1-0.7,0.1l-4.4-11.9l-8.6-17.4"/>
		</g>
		<g>
			<path class="st11" d="M601.9,361.6l-9.7,21.7l-4.3,14.7c-1.1,3.3-1.8,1.3-1.8,1.3c-0.9-2-0.3-7.6-0.3-7.6l2.1-18.9l2.3-39.8"/>
			<path class="st11" d="M601.1,355.9l-9.7,24.8l-4,15.9c-0.4,1.5-0.6,0.7-0.6,0.7c-0.4-0.9-0.1-2.7-0.1-2.7L589,375l3.2-40.9"/>
		</g>
		<g>
			<path class="st11" d="M600.9,450.8l-7-24.2l-4.5-9.1c-1-2.3-0.7-5.6-0.7-5.6c0.3-4,1.8-4.1,1.8-4.1l5.1-0.2l10.3-8.6"/>
			<path class="st11" d="M602.5,443.8l-7.1-21.5l-4.3-7.4c-0.4-0.7-0.3-1.8-0.3-1.8c-0.5-3,1.2-2.8,1.2-2.8l4.3,0.2l9.4-5.3"/>
		</g>
		<path class="st8" d="M585.4,331.9c0.1,27.4-0.1,44-0.1,44s-1.5-15.6-1.6-43.5"/>
		
			<ellipse transform="matrix(1.984289e-02 -0.9998 0.9998 1.984289e-02 165.8625 984.9037)" class="st12" cx="585.3" cy="407.9" rx="76.2" ry="20.1"/>
		<path class="st11" d="M573.2,469.5c4.1-23.7,6.7-35.1,6.7-35.1s-1.2,14.2-5.4,38.2"/>
		<path class="st10" d="M596.2,468.7c-4.4-20.7-5.4-38.4-5.4-38.4s2.2,13.4,6.7,34.4"/>
		<path class="st8" d="M566.2,389.8c7,5.3,11.7,12.5,11.7,12.5s-5-1.1-12.1-6.6"/>
		<path class="st8" d="M604.7,383.5c-7,9.1-11.7,13.3-11.7,13.3s4.3-10.1,11.5-19.3"/>
	</g>
	
		<ellipse transform="matrix(2.113204e-02 -0.9998 0.9998 2.113204e-02 166.1257 985.5432)" class="st5" cx="586.4" cy="407.9" rx="80.1" ry="22.3"/>
	<path class="st8" d="M140.7,471.4c-18-16.3-20.4-37.6-20.4-37.6"/>
	<path class="st8" d="M544.5,429.7c4.9,56.4,17.2,66.2,17.2,66.2"/>
	<path class="st8" d="M728.1,371.9c3.8,44,10.9,52.9,10.9,52.9"/>
	<path class="st7" d="M745.6,231.1c9.8-18.8,17.2-4.1,17.2-4.1"/>
	<line class="st7" x1="635.2" y1="214.8" x2="695.7" y2="199.2"/>
	<path class="st8" d="M619.7,235.2c-2.5,17.2-1.6,26.2-1.6,26.2"/>
	<line class="st11" x1="523.7" y1="420.3" x2="539.9" y2="415"/>
	<path class="st6" d="M96.7,262c7.4-1.5,13.3,0,13.3,0l18.2,4.4c0,0-7.6-26.2-5.4-46.1"/>
	<path class="st7" d="M464.9,237.3l-7.7,2.4c-3.9,0.6-7.2,4.6-7.1,5.1l-4.4,8.8c-1.7,3.9-4.4,4-4.4,4l-48,7.1"/>
	<path class="st8" d="M444.7,259.2l4,3.4c6.2,3.9,16.5,2,16.5,2l22.6-5.1c13.8-2.4,19.2-8.4,19.2-8.4"/>
</g>
</svg>
