<?xml version="1.0" encoding="utf-8"?>
<!-- Generator: Adobe Illustrator 25.3.1, SVG Export Plug-In . SVG Version: 6.00 Build 0)  -->
<svg version="1.1" id="Layer_1" xmlns="http://www.w3.org/2000/svg" xmlns:xlink="http://www.w3.org/1999/xlink" x="0px" y="0px"
	 viewBox="0 0 423.4 424.5" style="enable-background:new 0 0 423.4 424.5;" xml:space="preserve">
<style type="text/css">
	.st0{fill:#EFEFEF;}
</style>
<path class="st0" d="M376.3,1.4H46c-24.9,0-45,20.2-45,45v330.3c0,24.9,20.2,45,45,45h128.8V278.9h-59.1v-67.3h59.1v-51.2
	c0-58.4,34.7-90.6,87.9-90.6c25.4,0,52.1,4.5,52.1,4.5v57.2h-29.4c-28.9,0-37.9,17.9-37.9,36.3v43.7H312l-10.3,67.3h-54.2v142.9
	h128.8c24.9,0,45-20.2,45-45V46.5C421.3,21.6,401.2,1.4,376.3,1.4z"/>
</svg>
