<?xml version="1.0" encoding="utf-8"?>
<!-- Generator: Adobe Illustrator 25.3.1, SVG Export Plug-In . SVG Version: 6.00 Build 0)  -->
<svg version="1.1" id="Layer_1" xmlns="http://www.w3.org/2000/svg" xmlns:xlink="http://www.w3.org/1999/xlink" x="0px" y="0px"
	 viewBox="0 0 102.3 92.9" style="enable-background:new 0 0 102.3 92.9;" xml:space="preserve">
<style type="text/css">
	.st0{fill:#5C5A51;}
	.st1{fill:#FFFFFF;stroke:#5C5A51;stroke-width:0.8504;stroke-linecap:round;stroke-miterlimit:10;}
	.st2{fill:url(#SVGID_1_);}
	.st3{fill:url(#SVGID_2_);}
	.st4{fill:url(#SVGID_3_);}
	.st5{opacity:0.52;fill:#151A0E;}
	.st6{fill:#F9A129;stroke:#3B3735;stroke-miterlimit:10;}
	.st7{fill:#F6DAB7;}
	.st8{fill:#D15E27;}
	.st9{fill:#FFFFFF;}
	.st10{opacity:0.14;fill:#5C5A51;}
</style>
<path class="st0" d="M92.4,91.4l4.8-1.1c2.3-0.5,3-1.9,2.5-1.9l-56.4,2.2L92.4,91.4z"/>
<path class="st1" d="M39,55.7c-1.3,1.1-3.8,2.1-5.6,1.8c-3-0.5-4-5.3-7.8-3.8c-2.3,0.9-2.5,5.6-3.3,7.7c-1.9,5.5-3.4,11-5.4,16.5
	c-1,2.5-1.8,5-3.1,7.4c-0.8,1.5-4.1,4.5-2.5,4.7C31.8,92.3,95.4,90,95.4,90V0.5c-3.6,0-10.2,1.1-13.7,2.1c-3.9,1.1-6.3,5.7-8.2,9
	c-2.1,3.6-3.8,7.9-5.2,11.8c-1.3,3.7-3,7.7-6.1,10.3c-2.5,2.1-3.9,2-6.7,1.1c-1.5-0.4-1.6,0.5-2.4,1.9c-1.2,2.1-2.7,4-4,6
	c-1.8,2.8-3.9,5.3-5.9,8c-1.2,1.7-2.4,3.4-4.1,4.7c-1.3,1.1-3.8,2.6-5.6,2.3c-3-0.5-4-5.3-7.8-3.8c-2.3,0.9-2.5,5.6-3.3,7.7
	C20.5,67,19.1,72.6,17,78c-1,2.5-1.8,5-3.1,7.4c-0.8,1.5-2,3.1-2.5,4.7"/>
<linearGradient id="SVGID_1_" gradientUnits="userSpaceOnUse" x1="22.5245" y1="84.1535" x2="23.537" y2="61.6024">
	<stop  offset="0" style="stop-color:#FFFFFF"/>
	<stop  offset="1" style="stop-color:#D9D9D9"/>
</linearGradient>
<path class="st2" d="M24.1,60.5c1.8-4.5,3.7-2.6,3.7-2.6l2.4,1.8c0.9,0.7,1.4,1.7,1.4,2.8v26.9L13,89.6C18.5,82,24.1,60.5,24.1,60.5
	z"/>
<linearGradient id="SVGID_2_" gradientUnits="userSpaceOnUse" x1="74.5744" y1="87.5375" x2="75.5279" y2="22.9697">
	<stop  offset="0" style="stop-color:#FFFFFF"/>
	<stop  offset="1" style="stop-color:#D9D9D9"/>
</linearGradient>
<path class="st3" d="M69.8,28c2.8-8.4,5.1-13.3,6.9-16c1.1-1.6,3.6-0.9,3.6,1.1v76.2l-10.4-0.2C69.9,89.2,69.7,28.3,69.8,28z"/>
<linearGradient id="SVGID_3_" gradientUnits="userSpaceOnUse" x1="47.1804" y1="81.1653" x2="48.6499" y2="48.4338">
	<stop  offset="0" style="stop-color:#FFFFFF"/>
	<stop  offset="1" style="stop-color:#D9D9D9"/>
</linearGradient>
<path class="st4" d="M40.2,59.2c4.2-5.6,10.7-13.7,12.2-16.2c0.7-1.1,2.3-0.6,2.3,0.7v45.8L39,89.3L40.2,59.2z"/>
<path class="st5" d="M74.8,55.3c1.8-6.7,3-5,3-5l3.5,0.8c1.8-0.2,2-0.9,2-1.1l-2.9-13.5l-33.9,43l2.3,3.8l6-2.6l9.5-17.6L74.8,55.3z
	"/>
<polygon class="st0" points="10.5,91.2 7.2,91.9 44.8,92.1 92.5,91.5 93.6,90.6 "/>
<path class="st6" d="M41.4,74.5l28.3-34.8l-2.8-2.3c-1.2-1-0.6-3,1-3.1l11.4-0.9c1.6-0.1,3,1.1,3.2,2.7l1.1,11.1
	c0.2,1.6-1.6,2.5-2.9,1.5L78.7,47L49.9,82.3l-12.3,7.3c-1.3,0.8-2.9,1.2-4.4,1.2L8.2,91l3.4-5.9c1-1.8,2.7-3,4.7-3.5l21.4-4.9
	c0.2,0,0.4-0.1,0.6-0.2l2-1.1C40.8,75.1,41.1,74.8,41.4,74.5z"/>
<path class="st7" d="M43.7,80.2l-1.9-1.6c-1-0.7-1.3-2.3-0.5-3.2l29-35.8l-2.9-2.4c-1-0.8-0.4-2.4,0.8-2.5l10.4-0.9
	c1.3-0.1,2,0.5,1.4,2.4l-0.2-0.1L43.7,80.2z"/>
<path class="st8" d="M58.5,71.1l3.5-8.7c0.4-0.9,1-1.7,1.8-2.2h0l7.5-4.8L58.5,71.1z"/>
<path class="st1" d="M59.4,74.5l4-10.8c0.3-0.9,1-1.7,1.8-2.2l11.1-7.2"/>
<path class="st7" d="M10.1,88.9c3.5-3.5,7.9-4.6,7.9-4.6l25.7-4.1l-2.4-4.8l-3.1,1.7l-21.9,5C12.1,82.9,10.1,88.9,10.1,88.9z"/>
<path class="st8" d="M15.2,90.5c4.4-3.5,17.3-3.9,17.3-3.9c5.5-2.7,14.4-3.2,14.4-3.2l-13,5.2l-14.3,2.2L15.2,90.5z"/>
<path class="st1" d="M17,91.4c4.3-2.4,9.5-3.5,14.3-3.5c6.4,0,10.5-3.3,16.3-3.5"/>
<path class="st9" d="M17.2,91.6c4.3-2.4,9.8-3.5,14.7-3.5c5.8,0,9.7-3,16.3-3.5l-5.1,6.1L17.2,91.6z"/>
<path class="st10" d="M87.3,90l-3.2-9.4c-0.6-1.2-1.7-2.1-3-2.4l-4.7-1c-1.4-1.2-3.7-0.8-4.5,1l-2.9,6.2c-0.6,1.3-1.9,2.1-3.3,2.2
	l-5.4,0.2l-7.1-0.8c-2.7,0-5-0.5-7.7-0.5c-3.1,0-5.3,1.2-8.3,1.6c-5.9,0.8-13.9-0.5-18.7,4.1c2.4-2.8,14.3-0.9,18-1.1
	c4.6-0.2,9.3,0,13.9,0"/>
<polygon class="st0" points="8.2,91 14.9,92.5 79.4,92.5 83.8,91.1 "/>
</svg>
