<?xml version="1.0" encoding="utf-8"?>
<!-- Generator: Adobe Illustrator 25.3.1, SVG Export Plug-In . SVG Version: 6.00 Build 0)  -->
<svg version="1.1" xmlns="http://www.w3.org/2000/svg" xmlns:xlink="http://www.w3.org/1999/xlink" x="0px" y="0px"
	 viewBox="0 0 102.3 92.9" style="enable-background:new 0 0 102.3 92.9;" xml:space="preserve">
<style type="text/css">
	.st0{fill:#FFFFFF;stroke:#5C5A51;stroke-width:0.8504;stroke-linecap:round;stroke-miterlimit:10;}
	.st1{fill:#5D5B52;}
	.st2{fill:url(#SVGID_1_);}
	.st3{fill:url(#SVGID_2_);}
	.st4{fill:url(#SVGID_3_);}
	.st5{fill:url(#SVGID_4_);}
	.st6{fill:none;stroke:#5C5A51;stroke-width:0.5669;stroke-linecap:round;stroke-miterlimit:10;}
	.st7{fill:none;stroke:#5C5A51;stroke-width:0.5669;stroke-linecap:round;stroke-linejoin:round;stroke-miterlimit:10;}
	.st8{fill:url(#SVGID_5_);}
	.st9{fill:url(#SVGID_6_);}
	.st10{fill:url(#SVGID_7_);}
	.st11{fill:url(#SVGID_8_);}
	.st12{fill:url(#SVGID_9_);}
	.st13{fill:url(#SVGID_10_);}
	.st14{fill:url(#SVGID_11_);}
	.st15{opacity:0.52;fill:#151A0E;}
	.st16{fill:#F9A129;stroke:#3B3735;stroke-linejoin:round;stroke-miterlimit:10;}
	.st17{fill:#F6DAB7;}
	.st18{fill:#F9A129;stroke:#3B3735;stroke-miterlimit:10;}
</style>
<g id="Layer_1">
	<path class="st0" d="M19,4.2c-2.9,4.1,1.2,6.8,2,9.2c0.9,2.7,1,5.5,1.1,7.4c0.1,1.5-0.5,4.1-0.2,5.6c0.4,2.1,0.5,4.3,1.8,5.9
		c1.4,1.7,2.4,1.1,2.4,3.3c0,1.9-0.5,4.3-0.7,6.1c-0.2,3.3,0.5,2.1,2.9,4.9c1.1,1.2-1.8,2.6,1.4,5.2c1.4,1.1,3.4,2.3,4.1,4
		c0.7,1.6,1.2,3.2,1.6,4.9c0.2,0.9,0.9,1.8,1.1,2.8c0.3,1.2-0.3,2.3,0.5,3.4c1.1,1.5,2.9,2.2,4.3,3c1.9,1.1,2.6,2,4,3.4
		c1.9,2,4.6,2.4,7,3.3c2.6,1,3,2.3,5.2,4c1.5,1.2,3.6,2.9,5.2,3.8c0.9,0.5,2.1,0.2,3.1,0.9c1.3,0.9,1.4,2.3,2.3,3.4
		c4.7,5.8,8.3,1.2,11.5,0.4c5-0.1,6.4,6.4,7.6,0.7c0.6-3.1-2.8-7.9-4.9-10c-1-1,0.2-2.7-0.6-3.9c-0.8-1.2-1.6-2.8-2.3-4.1
		c-1.5-3.1-5.8-2.3-6.4-6.1c-0.6-3.3,1.6-7,0.4-10.2c-0.6-1.4-1.4-1.1-1.4-2.7c0-1.7,0.3-3.5,0.5-5c0.3-2.1,0.9-4.2,1.2-6.2
		c0.4-2.4-0.9-6.7-1.7-8.9c-1.2-3.4-3.3-5.8-5.5-8.6c-1.9-2.4-6.1-2.9-7.9-5.1c-2.2-2.8-3.6-8-8.2-7.2c-2.4,0.4-2.8,6.7-4.3,7.7
		c-1.2,0.8-3.4-2.9-5.6-3.6c-0.7,1-1.4,2.4-2.6,2.3c-2.3-0.2,0,1.9-4.9,1.4c-0.8-3.1,0.7-1.4,1.5-3.9c0.8-2.6-1.1-6.4-4.1-5
		c0.1-0.9-0.2-1.8,0-2.7C22.5,7.9,18.8,1.7,19,4.2z"/>
	<path class="st0" d="M19.1,23.8c-0.3,0.1-0.5,0.2-0.8,0.3c-1.5,3.1,3.8,3.2,1.8-0.6c-0.5,0-0.8,0.3-1,0.5"/>
	<ellipse class="st1" cx="50" cy="91.7" rx="37.5" ry="0.7"/>
	<path class="st1" d="M86.4,92.3H55.1v-1.5h31.3c0.4,0,0.7,0.3,0.7,0.7l0,0C87.1,92,86.8,92.3,86.4,92.3z"/>
</g>
<g id="Layer_5">
	<linearGradient id="SVGID_1_" gradientUnits="userSpaceOnUse" x1="62.0451" y1="76.5365" x2="67.4526" y2="83.5479">
		<stop  offset="0" style="stop-color:#FFFFFF"/>
		<stop  offset="1" style="stop-color:#D9D9D9"/>
	</linearGradient>
	<path class="st2" d="M58.2,79.6c0-0.5,0-1-0.1-1.5c-0.2-0.5-0.3-0.7-0.2-1.2c0.1-0.5,0.2-0.9,0.4-1.4c0.2-0.4,0.5-0.9,0.5-1.3
		c0,0.6,0,1.4-0.2,2c-0.2,0.6,0,1,0.1,1.6c0.2,0.9,0.8,1,1.5,1.5c0.7,0.5,1.2,1.2,1.9,1.7c1,0.6,2.1,0.4,3,1c0.7,0.4,1.4,0.8,2,1.2
		c1.6,1.3,2.8,3,4,4.6c0.6,0.8,1.3,1.5,2.4,1.6c0.5,0,1-0.2,1.5-0.4c0.8-0.3,1.7-0.3,2.5-0.8c-0.6,0.6-1.6,1-2.3,1.4
		c-0.9,0.5-1.8,0.7-2.8,0.6c-0.9,0-1.3-0.6-1.9-1.2c-0.4-0.5-0.9-0.9-1.4-1.4c-1-1.2-1.2-3-2.7-3.7c-0.7-0.3-1.4-0.3-2.1-0.5
		c-0.9-0.4-1.9-0.7-2.7-1.3c-0.8-0.6-1.7-1.2-2.5-1.8C58.7,80.1,58.3,79.8,58.2,79.6z"/>
	<linearGradient id="SVGID_2_" gradientUnits="userSpaceOnUse" x1="60.7743" y1="69.1078" x2="75.0795" y2="69.1078">
		<stop  offset="0" style="stop-color:#FFFFFF"/>
		<stop  offset="1" style="stop-color:#D9D9D9"/>
	</linearGradient>
	<path class="st3" d="M75.1,72c-0.9-0.5-1.6-1.4-2.6-1.6c-1-0.2-2,0-2.9,0.4c-0.9,0.4-2.1,0.5-2.9-0.1c-0.9-0.7-1.5-1.4-2.2-2.3
		c-0.9-1.1-2.2-2.1-3.6-2.1c1.2,0,2.4-0.2,3.4,0.6c0.4,0.3,0.7,0.4,1.1,0.6c0.5,0.3,1,0.8,1.4,1.2c0.8,0.8,1.5,0.9,2.6,0.7
		c1.1-0.2,2.5-0.4,3.5,0.1C73.8,69.9,74.7,70.8,75.1,72z"/>
	<linearGradient id="SVGID_3_" gradientUnits="userSpaceOnUse" x1="51.4528" y1="67.8349" x2="51.4528" y2="72.7841">
		<stop  offset="0" style="stop-color:#FFFFFF"/>
		<stop  offset="1" style="stop-color:#D9D9D9"/>
	</linearGradient>
	<path class="st4" d="M46.8,73.4c1,0.2,1,0.9,2.1,0.4c0.6-0.3,1.3-0.5,1.9-0.7c0.3-0.2,0.6-0.5,0.9-0.6c0.3-0.1,0.7-0.1,1.1-0.1
		c0.4,0.1,0.8,0.1,1.2,0.1c0.4,0,0.6-0.1,1-0.1c0.5,0,1.3,0.1,1.7,0.2c0.5,0.1,0.8,0.4,1.3,0.4c-0.5-0.4-1.5-1-2.1-1.2
		c-0.8-0.3-1.7-0.2-2.5-0.5c-0.7-0.3-1.5-0.7-2.2-0.4c-0.5,0.2-0.7,0.5-1,0.8c-0.7,0.6-1.4,0.8-2.3,0.6c-0.7-0.1-1.4-0.3-2.1-0.5
		c-0.3-0.1-0.6-0.3-0.9-0.3c0.3,0.5,0.9,0.8,1.3,1.2C46.5,72.9,46.7,73.2,46.8,73.4z"/>
	<linearGradient id="SVGID_4_" gradientUnits="userSpaceOnUse" x1="36.872" y1="66.1645" x2="44.8808" y2="66.1645">
		<stop  offset="0" style="stop-color:#FFFFFF"/>
		<stop  offset="1" style="stop-color:#D9D9D9"/>
	</linearGradient>
	<path class="st5" d="M36.9,61.9c0.1,0.2,0.3,0.4,0.4,0.7c0.1,0.2,0.1,0.4,0.1,0.7c0.1,0.5,0.1,1,0.1,1.5c0,0.6,0,1,0.4,1.5
		c0.3,0.4,0.8,1,1.3,1.3c0.7,0.5,1.8,0.8,2.5,1.2c0.6,0.3,0.9,0.5,1.3,0.9c0.2,0.2,0.8,0.9,1.1,0.7c0.2-0.2,0.5-0.9,0.6-1.2
		c0.3-1,0.2-2.2,0.2-3.3c-0.1,0.5-0.3,0.9-0.4,1.4c-0.1,0.4-0.2,0.9-0.5,1.3c-0.6-0.3-1.1-0.7-1.7-1c-0.7-0.4-1.4-0.7-2.1-1
		c-0.5-0.3-1-0.5-1.5-1c-0.6-0.6-0.6-1.5-0.9-2.2C37.5,62.8,37.4,62.4,36.9,61.9z"/>
</g>
<g id="Layer_4">
	<path class="st6" d="M57.8,17.3c-1.3,1.5-2.6,1.9-2.4,4.1c0.1,0.9,0,1.5,0,2.4c0,1,0.3,1.3,1,1.9c-0.3,0.5-0.9,1.3-0.7,1.9
		c0.2,0.8,0.7,0.6,1.2,1.1c1,1.3,0.3,3,0.8,4.3c1.2,0.3,1.6,0.9,2.1,2c0.7,1.6,1.3,1.5,3,1.8c1.8,0.3,0.7,0.8,0.8,2.2
		c0.1,1.6,2.1,0.2,2.3,2c0.2,2.1-2.5,2.6-2.3,4.7c1.5,0.6,2.7,0.1,4.1,1.1c0.6,0.4,1.2,0.8,1.7,1.3c0.5,0.5,0.8,1.2,1.4,1.6
		c0.4-0.8,0.6-3-0.6-3c0.4-0.5,0.3-1.1,0.4-1.7c0.7-0.1,1.2-0.3,1.9-0.2"/>
	<path class="st6" d="M57.3,79.6c0.2-0.5,0.2-1,0.2-1.5c0-0.2-0.4-0.3-0.4-0.4c0-0.3,0.2-0.4,0.2-0.6c0-1,0.3-1.8,1-2.7
		c0.8-0.9,0.7-1.5,0.9-2.6c0.2-1,0.6-1.8,1-2.7c0.3-0.8,0.4-2.2,1.8-2c0.9,0.1,2.2,1.4,2.7,2.1c1.5,2.1,2.8,2.8,5.2,2.1
		c1.3-0.4,2.3-0.6,3.5,0.1c0.8,0.5,1.7,1.4,2.7,1.6c0.1-0.2,0.1-0.4,0.1-0.6c-1-0.1-0.2-2.6-0.2-3.4"/>
	<path class="st6" d="M47.9,74.9c1-0.5,2.7-1.3,3.6-1.7c0.5-0.2,0.3-0.5,0.8-0.6c0.2,0,0.8,0.3,1.1,0.3c0.9,0,1.4-0.4,2.3-0.2
		c1,0.2,1.8,0.5,2.7,0.9"/>
	<path class="st7" d="M44.1,71.3c0.3-0.8,1-1.5,1.1-2.4c0.1-0.8-0.1-1.7,0-2.6c0.6-0.1,1.1,0.2,1.6,0.5c0.6-0.9,1.8-2.8,1.7-3.8
		c-0.7-0.1-0.5-0.7-0.1-1.1c-0.3-0.4-0.5-2.1,0.2-2.2c0.1,0,1.4,1.5,1.5,1.7c0.9-0.7,1.5-0.3,2.4,0c0.8,0.2,1.8,0.2,2.5,0.5
		c1.7,0.7,2.7,2.5,4.3,3.3c0.5,0.3,0.9,0.2,1.2,0.7c0.3,0.5,0.1,1.2,0.4,1.4"/>
	<path class="st7" d="M29.4,50.7c1.2-0.6,1.7-0.6,2.2,0.5c1.1-0.1,2,0.5,3,0.7c0.4,0.1,1.2,0.3,1.6,0.5c0.3,0.1,0.7,0.9,1.1,0.8
		c1.5-0.1-0.2-2.7,1.8-2c0.5,0.2,0.7,0.8,1.1,1.1c0.4,0.3,0.8,0.4,1.2,0.6c0.7-0.4,0.1-1.4,1-1.6c0,1.2,1.7,0.8,2.3,1.3
		c0.5,0.5,0.8,1.6,0.8,2.2c-0.1,1.6-1.2,3.6,0.8,4.6c0.8,0.4,2.1-0.5,2.4,0.2"/>
	<path class="st7" d="M42.3,51.5c0.4-0.8-0.2-1.8-0.3-2.7c-0.1-0.8,0.3-1.6-0.2-2.3c-0.2-0.3-0.8-0.4-0.9-0.7
		c-0.3-0.5,0-0.8-0.2-1.3c-0.1-0.2-0.5,0-0.6-0.1c-0.1-0.3,0-0.5-0.1-0.7c-0.1-0.5,0.1-0.8,0-1.3c-0.2-1.1-1-1.3-2-1.7
		c0-0.1,0-0.2-0.1-0.3c0.7-0.9-0.1-1.8,0.2-2.9c0.7,1.4,2,0.5,3,0.1c0.3,0.7,1.1,1.3,1.9,1.1c0.4-0.1,1.8-1.3,1.9-1.6
		c0.2-0.7-0.8-1.9,0.5-1.6c0.2,0,1.1,1.1,1.2,1.3c0.5,0,0.8,0.3,0.9,0.7c1.1-0.7,0.2-1.8,1.6-2c2.5-0.5,1.5,0.9,2.9,1.8
		c0.6,0.3,2.3,0.1,2.9-0.2c0.3-0.2,0.3-0.7,0.7-0.9c1-0.4,0.6,0.4,1.2,0.6c1.5,0.6,2-0.8,2.6-1.8"/>
	<path class="st6" d="M22.6,28.9c0.6,0,1.2,0.1,1.7-0.2c0.1,0.6-0.4,1.3,0.7,1.3c0.2-0.6,0.8-1.3,1.3-1.7c0.3-0.2,0.9-0.4,1.1-0.6
		c0.2-0.3,0.1-0.8,0.3-1.2c0.6-0.9,1,0,1.7-0.8c0.4-0.5,0.5-1.7,0.5-2.4c1.1,0.1,1.3-1.9,1.5-2.7c0.4-1.1,0.6-1.7,1.3-2.7"/>
	<path class="st6" d="M19.1,10.6c0.2-0.4,0.2-1,0.5-1.3C19.9,9,20.5,9,20.8,8.7c0.8-0.6,1-2.2,1.1-3.1"/>
	<path class="st6" d="M21.7,21.7c0.6,0,2.3,0,2.7,0.5c0.3,0.5-0.1,2.1-0.1,2.7c0,1.8,0.8,3.3,0.7,5.1c0,0,0,0,0,0
		c0.1-0.1,0.2-0.1,0.3-0.1"/>
	<path class="st6" d="M43.8,18.4c-0.2,0.5,0,1-0.1,1.5c-0.1,0.5-0.6,0.6-0.5,1.1c0,0.3,0.5,0.5,0.6,0.9c0,0.4-0.5,0.7-0.5,1.1
		c1.6-0.1,2.3,1.3,1.3,2.5c-0.8,1-2.2,0.2-2.9,1.5c-0.7,1.2-0.8,2.7-1.2,3.9c-0.2,0.5-0.5,1-0.6,1.4c-0.1,0.8,0,1.2-0.3,1.9
		c-0.3,0.7-2.1,3-1.1,3.4"/>
	<linearGradient id="SVGID_5_" gradientUnits="userSpaceOnUse" x1="35.5815" y1="49.2237" x2="35.6006" y2="51.5483">
		<stop  offset="0" style="stop-color:#FFFFFF"/>
		<stop  offset="1" style="stop-color:#D9D9D9"/>
	</linearGradient>
	<path class="st8" d="M29,49.6c0.1,0.3,0.4,0.7,0.4,0.7c0.4-0.1,1-0.3,1.4-0.2c0.5,0.1,0.7,0.5,1,0.8c0.2,0.1,0.4,0.1,0.6,0.1
		c0.4,0,1,0.3,1.4,0.4c0.8,0.3,1.1,0.2,1.9,0.5c0.4,0.1,0.7,0.2,1,0.4c0.2,0.1,0.5,0.7,0.7,0.4c0.2-0.3,0.2-0.8,0.3-1.2
		c0.1-0.4,0.4-0.7,0.8-0.7c0.8-0.1,1.2,0.6,1.8,1.1c0.2,0.2,0.7,0.7,0.9,0.6c0.2,0,0.2-0.2,0.2-0.4c0.1-0.3,0-0.4,0.2-0.6
		c0.1-0.1,0.9-0.8,0.4-1c-0.1,0-0.4,0.3-0.5,0.3c-0.3,0.2-0.6,0.3-0.9,0.1c-0.6-0.2-1.1-0.6-1.7-0.6c-0.6-0.1-0.9,0-1.4,0.3
		c-0.3,0.2-0.4,0.5-0.8,0.5c-0.6,0-1.2-0.1-1.8-0.3c-0.3-0.1-0.6-0.3-1-0.4c-0.3-0.1-0.6-0.1-0.9-0.2c-0.6-0.1-1-0.4-1.4-0.7
		c-0.4-0.3-0.7-0.2-1.1-0.2c-0.4,0-0.7,0-1.1,0C29.2,49.6,29,49.5,29,49.6z"/>
	<linearGradient id="SVGID_6_" gradientUnits="userSpaceOnUse" x1="49.4092" y1="76.8444" x2="57.3822" y2="76.8444">
		<stop  offset="0" style="stop-color:#FFFFFF"/>
		<stop  offset="1" style="stop-color:#D9D9D9"/>
	</linearGradient>
	<path class="st9" d="M49.4,74.8c0.5,0.2,1,0.4,1.5,0.5c0.6,0.1,1.2,0.4,1.8,0.5c0.5,0.1,1,0.4,1.4,0.7c0.6,0.3,1.1,0.7,1.5,1.1
		c0.3,0.2,0.5,0.5,0.8,0.8c0.1,0.2,0.3,0.4,0.5,0.5c0-0.2,0.1-0.4,0.1-0.6c0-0.1-0.1-0.2-0.2-0.4c-0.1-0.1-0.1-0.2-0.1-0.4
		c0-0.1,0-0.2,0-0.3c0-0.1,0.1-0.2,0.2-0.3c0.1-0.3,0-0.7,0.1-1c0-0.1,0-0.3,0-0.4c0-0.1,0.1-0.2,0.2-0.4c0-0.1,0.1-0.2,0.2-0.3
		c0,0,0.1-0.1,0.1-0.1c-0.1,0.1-0.3,0.2-0.4,0.3c-0.2,0.3-0.4,0.7-0.5,1c-0.1,0.1-0.1,0.3-0.3,0.4c-0.1,0.1-0.4,0-0.6,0
		c-0.4,0-0.7-0.2-1.1-0.4c-0.1-0.1-0.3-0.2-0.4-0.3c-0.2-0.1-0.4-0.2-0.6-0.2c-1-0.3-2.1-0.6-3.2-0.6c-0.3,0-0.5-0.1-0.7-0.1
		C49.5,74.8,49.4,74.8,49.4,74.8z"/>
	<linearGradient id="SVGID_7_" gradientUnits="userSpaceOnUse" x1="48.5986" y1="30.5501" x2="48.6673" y2="35.1557">
		<stop  offset="0" style="stop-color:#FFFFFF"/>
		<stop  offset="1" style="stop-color:#D9D9D9"/>
	</linearGradient>
	<path class="st10" d="M38.4,37c-0.2,0.5,0.4,0.7,0.7,0.8c0.5,0.1,0.8-0.2,1.3-0.4c0.3-0.1,0.8-0.3,1.1-0.1c0.3,0.2,0.3,0.7,0.7,0.9
		c0.4,0.1,0.9,0,1.2-0.2c0.3-0.2,1-0.6,1.1-1c0.1-0.6-0.4-2.2,0.9-1.7c0.4,0.1,0.8,0.5,1.1,0.8c0.3,0.3,0.6,0.4,1,0.6
		c0.2-0.1,0.2-0.4,0.3-0.6c0.1-0.3,0.3-0.5,0.5-0.7c0.5-0.4,1.1-0.3,1.7-0.3c0.3,0,0.4,0,0.7,0.1c0.2,0.1,0.4,0.2,0.5,0.3
		c0.3,0.3,0.5,0.6,0.8,0.9c0.6,0.6,2,0.7,2.7,0.1c0.2-0.2,0.4-0.6,0.6-0.7c0.2-0.1,0.5-0.1,0.7-0.1c0.5,0,0.7,0.1,1.1,0.3
		c0.8,0.4,1.6-0.2,1.9-0.9c0.1-0.2,0.2-0.3,0.1-0.6c-0.2-0.4-0.5-0.4-0.8-0.7c-0.3,0.4-1.1,0.8-1.6,0.9c-0.3,0-0.7,0-1,0
		c-0.3,0-0.7-0.2-1-0.1c-0.3,0.1-0.5,0.5-0.8,0.7c-0.5,0.2-1-0.1-1.5-0.3c-0.5-0.3-1.1-0.5-1.7-0.6c-0.5-0.1-1.1-0.3-1.6-0.1
		c-0.4,0.1-0.6,0.4-0.9,0.5c-0.2,0.1-0.5,0-0.8,0c-0.9-0.1-1.7-0.5-2.6-0.6c-0.4-0.1-0.6,0-0.9,0.3c-0.4,0.5-0.4,1.5-1.1,1.8
		c-0.3,0.1-0.6,0.1-0.9,0c-0.4-0.2-0.8-0.1-1.3-0.1c-0.4,0-0.7,0.1-1,0.3c-0.2,0.1-0.4,0.2-0.7,0.3C38.7,36.9,38.5,36.9,38.4,37z"/>
	<linearGradient id="SVGID_8_" gradientUnits="userSpaceOnUse" x1="42.8606" y1="57.4976" x2="61.0938" y2="57.4976">
		<stop  offset="0" style="stop-color:#FFFFFF"/>
		<stop  offset="1" style="stop-color:#D9D9D9"/>
	</linearGradient>
	<path class="st11" d="M42.9,49.6c0,0.4,0,1.2,0.1,1.5c0.2,0.7,0.4,0.4,1,0.6c0.9,0.3,1.5,0.7,1.7,1.6c0.2,0.9,0.4,1.6,0.4,2.6
		c0,0.7-0.4,1.9,0,2.5c0.6,0.9,1.6,0.3,2.3,0.4c1.1,0.1,1.1,1.2,2,1.6c0.5,0.2,1.1,0,1.7,0c0.5,0,0.9,0.1,1.4,0.3
		c0.9,0.3,1.7,0.5,2.6,1.1c0.9,0.6,1.8,1.1,2.6,1.8c0.8,0.6,1.6,1.5,2.6,1.8c0-0.7-0.6-1.3-1.1-1.7c-0.7-0.7-1.3-1.6-2.1-2.1
		c-0.8-0.6-1.8-1-2.7-1.2c-1-0.2-2-0.6-3-0.8c-1-0.1-1.5-0.1-2.1-0.9c-0.3-0.4-0.4-0.7-0.8-0.9c-0.5-0.2-1,0-1.4-0.2
		c-0.8-0.3-0.6-1.4-0.6-2.2c-0.1-1-0.3-1.8-0.8-2.6c-0.6-0.9-1.2-1.2-2.1-1.6C43.6,50.9,43,50.4,42.9,49.6z"/>
	<linearGradient id="SVGID_9_" gradientUnits="userSpaceOnUse" x1="25.0717" y1="23.1444" x2="32.4982" y2="23.1444">
		<stop  offset="0" style="stop-color:#FFFFFF"/>
		<stop  offset="1" style="stop-color:#D9D9D9"/>
	</linearGradient>
	<path class="st12" d="M25.4,28.6c0.5-0.6,1.2-0.9,1.7-1.6c0.3-0.4,0.3-0.9,0.8-1.2c0.3-0.2,0.8-0.2,1-0.4c0.6-0.6,0.3-1.8,0.8-2.4
		c0.2-0.3,0.5-0.5,0.7-0.9c0.2-0.4,0.3-0.8,0.5-1.3c0.2-0.5,0.5-1.1,0.8-1.6c0.3-0.5,0.8-1,0.9-1.5c-0.8,0.3-1.3,1.4-1.7,2.1
		c-0.6,1-1.6,1.7-2.1,2.7c-0.5,0.8-0.6,1.6-1.4,2.3c-0.3,0.3-0.6,0.6-0.9,0.9c-0.3,0.3-0.5,0.3-0.8,0.5
		C25.1,26.6,24.8,28.5,25.4,28.6z"/>
	<linearGradient id="SVGID_10_" gradientUnits="userSpaceOnUse" x1="19.7839" y1="9.065" x2="19.9902" y2="7.4152">
		<stop  offset="0" style="stop-color:#FFFFFF"/>
		<stop  offset="1" style="stop-color:#D9D9D9"/>
	</linearGradient>
	<path class="st13" d="M18.8,7.1c-0.1,0.6,0.2,1.4,0.5,2c0.1-0.5,1.1-0.5,1.4-1c0.4-0.4,0.6-1.2,0.6-1.7c-0.5,1.3-1.4,1.3-2.6,1"/>
	<linearGradient id="SVGID_11_" gradientUnits="userSpaceOnUse" x1="64.1271" y1="45.9131" x2="72.7827" y2="45.9131">
		<stop  offset="0" style="stop-color:#FFFFFF"/>
		<stop  offset="1" style="stop-color:#D9D9D9"/>
	</linearGradient>
	<path class="st14" d="M64.1,45.3c0.4,0.3,1.3,0.1,1.8,0.2c0.7,0.1,1.2,0.2,1.8,0.6c1.2,0.7,2.1,1.5,2.9,2.5
		c-0.4-1.3-1.4-2.1-0.6-3.5c0.5-0.8,1.4-0.3,2.1-0.6c0.5-0.3,0.6-0.8,0.7-1.3c-1.7,0-2.7,1.9-4.5,1.9c-1.3,0-3,0.3-3-1.3
		C64.7,44.3,64.6,45,64.1,45.3z"/>
</g>
<g id="Layer_7">
	<polygon class="st15" points="26.1,39 30.8,39 35.5,41.3 34.2,35.4 26.7,35.4 	"/>
	<line class="st15" x1="39" y1="62.8" x2="35.1" y2="57.8"/>
	<polyline class="st15" points="39,62.8 35.9,61.3 35.1,57.8 	"/>
</g>
<g id="Layer_6">
	<path class="st16" d="M71.1,60.3V49.4c0-1.4,1.1-2.5,2.5-2.5h9c1.4,0,2.5,1.1,2.5,2.5v3.7c0,1.2-1,2.3-2.3,2.3H75
		C75,55.4,70.9,60.1,71.1,60.3z"/>
	<path class="st16" d="M19.2,25.2V13.5c0-1-0.8-1.7-1.7-1.7H6.9c-1,0-1.7,0.8-1.7,1.7v5c0,1,0.8,1.8,1.8,1.8h8.4
		C15.3,20.3,19.4,25,19.2,25.2z"/>
	<path class="st17" d="M17.6,14.3H6.8c-0.4,0-0.8-0.4-0.8-0.8v-0.2c0-0.4,0.4-0.8,0.8-0.8h10.8c0.4,0,0.8,0.4,0.8,0.8v0.2
		C18.4,13.9,18,14.3,17.6,14.3z"/>
	<g>
		<path class="st16" d="M35.4,41.1V29.3c0-1-0.8-1.7-1.7-1.7H23.1c-1,0-1.7,0.8-1.7,1.7v5c0,1,0.8,1.8,1.8,1.8h8.4
			C31.5,36.1,35.6,40.9,35.4,41.1z"/>
		<path class="st17" d="M33.8,30.1H23c-0.4,0-0.8-0.4-0.8-0.8v-0.2c0-0.4,0.4-0.8,0.8-0.8h10.8c0.4,0,0.8,0.4,0.8,0.8v0.2
			C34.6,29.7,34.2,30.1,33.8,30.1z"/>
	</g>
	<path class="st16" d="M39,62.8V51.1c0-1-0.8-1.7-1.7-1.7H26.7c-1,0-1.7,0.8-1.7,1.7v5c0,1,0.8,1.8,1.8,1.8h8.4
		C35.1,57.8,39.2,62.6,39,62.8z"/>
	<path class="st17" d="M37.4,51.8H26.6c-0.4,0-0.8-0.4-0.8-0.8v-0.2c0-0.4,0.4-0.8,0.8-0.8h10.8c0.4,0,0.8,0.4,0.8,0.8V51
		C38.2,51.5,37.8,51.8,37.4,51.8z"/>
	<path class="st16" d="M53.8,74.4v11.7c0,1-0.8,1.7-1.7,1.7H41.5c-1,0-1.7-0.8-1.7-1.7v-5c0-1,0.8-1.8,1.8-1.8H50
		C50,79.3,54,74.6,53.8,74.4z"/>
	<path class="st17" d="M51.5,80.9c-0.2,0.5-0.7,0.9-1.3,0.9h-8.8c-0.4,0-0.8-0.4-0.8-0.8v-0.2c0-0.4,0.4-0.8,0.8-0.8h9l3-3.8
		L51.5,80.9z"/>
	<path class="st17" d="M83.5,49.2H72.8c-0.4,0-0.8-0.4-0.8-0.8v-0.2c0-0.4,0.4-0.8,0.8-0.8h10.8c0.4,0,0.8,0.4,0.8,0.8v0.2
		C84.3,48.9,84,49.2,83.5,49.2z"/>
	<path class="st18" d="M84.9,89.6V78.7c0-1.4,1.1-2.5,2.5-2.5h9c1.4,0,2.5,1.1,2.5,2.5v3.7c0,1.2-1,2.3-2.3,2.3h-7.9
		C88.7,84.7,84.7,89.4,84.9,89.6z"/>
	<path class="st17" d="M97.3,78.6H86.5c-0.4,0-0.8-0.4-0.8-0.8v-0.2c0-0.4,0.4-0.8,0.8-0.8h10.8c0.4,0,0.8,0.4,0.8,0.8v0.2
		C98.1,78.2,97.7,78.6,97.3,78.6z"/>
	<g>
		<path class="st18" d="M69.8,33.3V22.3c0-1.4,1.1-2.5,2.5-2.5h9c1.4,0,2.5,1.1,2.5,2.5v3.7c0,1.2-1,2.3-2.3,2.3h-7.9
			C73.6,28.3,69.6,33.1,69.8,33.3z"/>
		<path class="st17" d="M82.2,22.2H71.4c-0.4,0-0.8-0.4-0.8-0.8v-0.2c0-0.4,0.4-0.8,0.8-0.8h10.8c0.4,0,0.8,0.4,0.8,0.8v0.2
			C83,21.8,82.6,22.2,82.2,22.2z"/>
	</g>
	<path class="st18" d="M52.7,14V3.1c0-1.4,1.1-2.5,2.5-2.5h9c1.4,0,2.5,1.1,2.5,2.5v3.7c0,1.2-1,2.3-2.3,2.3h-7.9
		C56.6,9.1,52.5,13.8,52.7,14z"/>
	<path class="st17" d="M65.1,3H54.3c-0.4,0-0.8-0.4-0.8-0.8V2c0-0.4,0.4-0.8,0.8-0.8h10.8c0.4,0,0.8,0.4,0.8,0.8v0.2
		C65.9,2.6,65.6,3,65.1,3z"/>
	<polygon class="st15" points="71.3,60.5 73.3,60 73.6,57.2 	"/>
</g>
</svg>
