<?xml version="1.0" encoding="utf-8"?>
<!-- Generator: Adobe Illustrator 25.3.1, SVG Export Plug-In . SVG Version: 6.00 Build 0)  -->
<svg version="1.1" xmlns="http://www.w3.org/2000/svg" xmlns:xlink="http://www.w3.org/1999/xlink" x="0px" y="0px"
	 viewBox="0 0 102.3 92.9" style="enable-background:new 0 0 102.3 92.9;" xml:space="preserve">
<style type="text/css">
	.st0{fill:#5D5B52;}
	.st1{fill:#FFFFFF;stroke:#5C5A51;stroke-width:0.8504;stroke-linecap:round;stroke-miterlimit:10;}
	.st2{opacity:0.52;fill:#151A0E;}
	.st3{fill:#FFFFFF;stroke:#5C5A51;stroke-width:0.8504;stroke-linecap:round;stroke-linejoin:round;stroke-miterlimit:10;}
	.st4{fill:url(#SVGID_1_);}
	.st5{fill:url(#SVGID_2_);}
	.st6{fill:url(#SVGID_3_);}
	.st7{fill:url(#SVGID_4_);}
	.st8{fill:url(#SVGID_5_);}
	.st9{fill:url(#SVGID_6_);}
	.st10{fill:#F9A129;stroke:#3B3735;stroke-miterlimit:10;}
	.st11{fill:#F6DAB7;}
	.st12{fill:url(#SVGID_7_);}
	.st13{fill:url(#SVGID_8_);}
	.st14{fill:url(#SVGID_9_);}
	.st15{fill:url(#SVGID_10_);}
	.st16{fill:url(#SVGID_11_);}
</style>
<g id="Layer_1">
	<ellipse class="st0" cx="53" cy="91.5" rx="46.2" ry="0.7"/>
</g>
<g id="Layer_8">
</g>
<g id="Layer_5">
	<path class="st1" d="M85.3,91.3l-68.4-0.2c-1.9,0-3.4-1.5-3.4-3.4V8.2c0-1.9,1.5-3.4,3.4-3.4h68.4c1.9,0,3.4,1.5,3.4,3.4v79.7
		C88.7,89.8,87.2,91.3,85.3,91.3z"/>
	<polygon class="st1" points="18.2,9.7 18.2,85.8 84.3,85.8 84.3,9.5 	"/>
	<path class="st2" d="M18.6,78.2c0.8,6.5,5.4,6.7,5.4,6.7h60.4L83.8,79L18.6,78.2"/>
	<path class="st3" d="M84.6,74.8c0,0,0.2,6.9,5,7.1h-66c0,0-4.8,0.6-5.1-7.1L18.2,9.5h66.7L84.6,74.8z"/>
</g>
<g id="Layer_4">
	<linearGradient id="SVGID_1_" gradientUnits="userSpaceOnUse" x1="50.8918" y1="57.2435" x2="51.501" y2="17.0354">
		<stop  offset="0" style="stop-color:#FFFFFF"/>
		<stop  offset="1" style="stop-color:#D9D9D9"/>
	</linearGradient>
	<rect x="18.6" y="9.7" class="st4" width="65.3" height="50"/>
	<linearGradient id="SVGID_2_" gradientUnits="userSpaceOnUse" x1="60.8172" y1="38.0745" x2="60.9534" y2="40.9351">
		<stop  offset="0" style="stop-color:#FFFFFF"/>
		<stop  offset="1" style="stop-color:#D9D9D9"/>
	</linearGradient>
	<path class="st5" d="M73.7,40.3H47.9c-1.5,0-2.7-1.2-2.7-2.7v0c0-1.5,1.2-2.7,2.7-2.7h25.9c1.5,0,2.7,1.2,2.7,2.7v0
		C76.4,39.2,75.2,40.3,73.7,40.3z"/>
	<linearGradient id="SVGID_3_" gradientUnits="userSpaceOnUse" x1="60.8172" y1="48.0745" x2="60.9534" y2="50.9351">
		<stop  offset="0" style="stop-color:#FFFFFF"/>
		<stop  offset="1" style="stop-color:#D9D9D9"/>
	</linearGradient>
	<path class="st6" d="M73.7,50.3H47.9c-1.5,0-2.7-1.2-2.7-2.7v0c0-1.5,1.2-2.7,2.7-2.7h25.9c1.5,0,2.7,1.2,2.7,2.7v0
		C76.4,49.2,75.2,50.3,73.7,50.3z"/>
	<linearGradient id="SVGID_4_" gradientUnits="userSpaceOnUse" x1="60.8172" y1="58.0745" x2="60.9534" y2="60.9351">
		<stop  offset="0" style="stop-color:#FFFFFF"/>
		<stop  offset="1" style="stop-color:#D9D9D9"/>
	</linearGradient>
	<path class="st7" d="M73.7,60.3H47.9c-1.5,0-2.7-1.2-2.7-2.7v0c0-1.5,1.2-2.7,2.7-2.7h25.9c1.5,0,2.7,1.2,2.7,2.7v0
		C76.4,59.2,75.2,60.3,73.7,60.3z"/>
	<linearGradient id="SVGID_5_" gradientUnits="userSpaceOnUse" x1="60.8172" y1="67.8745" x2="60.9534" y2="70.7351">
		<stop  offset="0" style="stop-color:#FFFFFF"/>
		<stop  offset="1" style="stop-color:#D9D9D9"/>
	</linearGradient>
	<path class="st8" d="M73.7,70.1H47.9c-1.5,0-2.7-1.2-2.7-2.7l0,0c0-1.5,1.2-2.7,2.7-2.7h25.9c1.5,0,2.7,1.2,2.7,2.7l0,0
		C76.4,69,75.2,70.1,73.7,70.1z"/>
	<linearGradient id="SVGID_6_" gradientUnits="userSpaceOnUse" x1="60.8172" y1="28.0745" x2="60.9534" y2="30.9351">
		<stop  offset="0" style="stop-color:#FFFFFF"/>
		<stop  offset="1" style="stop-color:#D9D9D9"/>
	</linearGradient>
	<path class="st9" d="M73.7,30.3H47.9c-1.5,0-2.7-1.2-2.7-2.7v0c0-1.5,1.2-2.7,2.7-2.7h25.9c1.5,0,2.7,1.2,2.7,2.7v0
		C76.4,29.2,75.2,30.3,73.7,30.3z"/>
	<path class="st10" d="M73.9,28.5H47.6c-1.2,0-2.2-1-2.2-2.2v0c0-1.2,1-2.2,2.2-2.2h26.3c1.2,0,2.2,1,2.2,2.2v0
		C76.1,27.5,75.1,28.5,73.9,28.5z"/>
	<path class="st10" d="M73.9,38.5H47.6c-1.2,0-2.2-1-2.2-2.2v0c0-1.2,1-2.2,2.2-2.2h26.3c1.2,0,2.2,1,2.2,2.2v0
		C76.1,37.5,75.1,38.5,73.9,38.5z"/>
	<path class="st10" d="M73.9,48.5H47.6c-1.2,0-2.2-1-2.2-2.2v0c0-1.2,1-2.2,2.2-2.2h26.3c1.2,0,2.2,1,2.2,2.2v0
		C76.1,47.5,75.1,48.5,73.9,48.5z"/>
	<path class="st10" d="M73.8,58.4H47.5c-1.2,0-2.2-1-2.2-2.2v0c0-1.2,1-2.2,2.2-2.2h26.3c1.2,0,2.2,1,2.2,2.2v0
		C76,57.5,75,58.4,73.8,58.4z"/>
	<path class="st10" d="M73.8,68.4H47.5c-1.2,0-2.2-1-2.2-2.2l0,0c0-1.2,1-2.2,2.2-2.2h26.3c1.2,0,2.2,1,2.2,2.2l0,0
		C76,67.4,75,68.4,73.8,68.4z"/>
	<path class="st11" d="M74.1,26.2H47.2c-0.4,0-0.8-0.3-0.8-0.8v0c0-0.4,0.3-0.8,0.8-0.8h26.9c0.4,0,0.8,0.3,0.8,0.8v0
		C74.9,25.9,74.6,26.2,74.1,26.2z"/>
	<path class="st11" d="M74.1,36.2H47.2c-0.4,0-0.8-0.3-0.8-0.8v0c0-0.4,0.3-0.8,0.8-0.8h26.9c0.4,0,0.8,0.3,0.8,0.8v0
		C74.9,35.9,74.6,36.2,74.1,36.2z"/>
	<path class="st11" d="M74.1,46.2H47.2c-0.4,0-0.8-0.3-0.8-0.8v0c0-0.4,0.3-0.8,0.8-0.8h26.9c0.4,0,0.8,0.3,0.8,0.8v0
		C74.9,45.9,74.6,46.2,74.1,46.2z"/>
	<path class="st11" d="M74.1,56.2H47.2c-0.4,0-0.8-0.3-0.8-0.8v0c0-0.4,0.3-0.8,0.8-0.8h26.9c0.4,0,0.8,0.3,0.8,0.8v0
		C74.9,55.9,74.6,56.2,74.1,56.2z"/>
	<path class="st11" d="M74.1,66.2H47.2c-0.4,0-0.8-0.3-0.8-0.8v0c0-0.4,0.3-0.8,0.8-0.8h26.9c0.4,0,0.8,0.3,0.8,0.8v0
		C74.9,65.9,74.6,66.2,74.1,66.2z"/>
	<linearGradient id="SVGID_7_" gradientUnits="userSpaceOnUse" x1="32.8145" y1="38.019" x2="32.931" y2="40.4637">
		<stop  offset="0" style="stop-color:#FFFFFF"/>
		<stop  offset="1" style="stop-color:#D9D9D9"/>
	</linearGradient>
	<path class="st12" d="M35.7,40.3h-5.9c-1.5,0-2.7-1.2-2.7-2.7v0c0-1.5,1.2-2.7,2.7-2.7h5.9c1.5,0,2.7,1.2,2.7,2.7v0
		C38.4,39.2,37.2,40.3,35.7,40.3z"/>
	<linearGradient id="SVGID_8_" gradientUnits="userSpaceOnUse" x1="32.8145" y1="48.019" x2="32.931" y2="50.4637">
		<stop  offset="0" style="stop-color:#FFFFFF"/>
		<stop  offset="1" style="stop-color:#D9D9D9"/>
	</linearGradient>
	<path class="st13" d="M35.7,50.3h-5.9c-1.5,0-2.7-1.2-2.7-2.7v0c0-1.5,1.2-2.7,2.7-2.7h5.9c1.5,0,2.7,1.2,2.7,2.7v0
		C38.4,49.2,37.2,50.3,35.7,50.3z"/>
	<linearGradient id="SVGID_9_" gradientUnits="userSpaceOnUse" x1="32.8145" y1="58.019" x2="32.931" y2="60.4637">
		<stop  offset="0" style="stop-color:#FFFFFF"/>
		<stop  offset="1" style="stop-color:#D9D9D9"/>
	</linearGradient>
	<path class="st14" d="M35.7,60.3h-5.9c-1.5,0-2.7-1.2-2.7-2.7v0c0-1.5,1.2-2.7,2.7-2.7h5.9c1.5,0,2.7,1.2,2.7,2.7v0
		C38.4,59.2,37.2,60.3,35.7,60.3z"/>
	<linearGradient id="SVGID_10_" gradientUnits="userSpaceOnUse" x1="32.8145" y1="67.819" x2="32.931" y2="70.2637">
		<stop  offset="0" style="stop-color:#FFFFFF"/>
		<stop  offset="1" style="stop-color:#D9D9D9"/>
	</linearGradient>
	<path class="st15" d="M35.7,70.1h-5.9c-1.5,0-2.7-1.2-2.7-2.7l0,0c0-1.5,1.2-2.7,2.7-2.7h5.9c1.5,0,2.7,1.2,2.7,2.7l0,0
		C38.4,69,37.2,70.1,35.7,70.1z"/>
	<linearGradient id="SVGID_11_" gradientUnits="userSpaceOnUse" x1="32.8145" y1="28.019" x2="32.931" y2="30.4637">
		<stop  offset="0" style="stop-color:#FFFFFF"/>
		<stop  offset="1" style="stop-color:#D9D9D9"/>
	</linearGradient>
	<path class="st16" d="M35.7,30.3h-5.9c-1.5,0-2.7-1.2-2.7-2.7v0c0-1.5,1.2-2.7,2.7-2.7h5.9c1.5,0,2.7,1.2,2.7,2.7v0
		C38.4,29.2,37.2,30.3,35.7,30.3z"/>
	<path class="st10" d="M35.9,28.5h-6.3c-1.2,0-2.2-1-2.2-2.2v0c0-1.2,1-2.2,2.2-2.2h6.3c1.2,0,2.2,1,2.2,2.2v0
		C38.1,27.5,37.1,28.5,35.9,28.5z"/>
	<path class="st10" d="M35.9,38.5h-6.3c-1.2,0-2.2-1-2.2-2.2v0c0-1.2,1-2.2,2.2-2.2h6.3c1.2,0,2.2,1,2.2,2.2v0
		C38.1,37.5,37.1,38.5,35.9,38.5z"/>
	<path class="st10" d="M35.9,48.5h-6.3c-1.2,0-2.2-1-2.2-2.2v0c0-1.2,1-2.2,2.2-2.2h6.3c1.2,0,2.2,1,2.2,2.2v0
		C38.1,47.5,37.1,48.5,35.9,48.5z"/>
	<path class="st10" d="M35.8,58.4h-6.3c-1.2,0-2.2-1-2.2-2.2v0c0-1.2,1-2.2,2.2-2.2h6.3c1.2,0,2.2,1,2.2,2.2v0
		C38,57.5,37,58.4,35.8,58.4z"/>
	<path class="st10" d="M35.8,68.4h-6.3c-1.2,0-2.2-1-2.2-2.2l0,0c0-1.2,1-2.2,2.2-2.2h6.3c1.2,0,2.2,1,2.2,2.2l0,0
		C38,67.4,37,68.4,35.8,68.4z"/>
	<path class="st11" d="M36.1,26.2h-6.9c-0.4,0-0.8-0.3-0.8-0.8v0c0-0.4,0.3-0.8,0.8-0.8h6.9c0.4,0,0.8,0.3,0.8,0.8v0
		C36.9,25.9,36.6,26.2,36.1,26.2z"/>
	<path class="st11" d="M36.1,36.2h-6.9c-0.4,0-0.8-0.3-0.8-0.8v0c0-0.4,0.3-0.8,0.8-0.8h6.9c0.4,0,0.8,0.3,0.8,0.8v0
		C36.9,35.9,36.6,36.2,36.1,36.2z"/>
	<path class="st11" d="M36.1,46.2h-6.9c-0.4,0-0.8-0.3-0.8-0.8v0c0-0.4,0.3-0.8,0.8-0.8h6.9c0.4,0,0.8,0.3,0.8,0.8v0
		C36.9,45.9,36.6,46.2,36.1,46.2z"/>
	<path class="st11" d="M36.1,56.2h-6.9c-0.4,0-0.8-0.3-0.8-0.8v0c0-0.4,0.3-0.8,0.8-0.8h6.9c0.4,0,0.8,0.3,0.8,0.8v0
		C36.9,55.9,36.6,56.2,36.1,56.2z"/>
	<path class="st11" d="M36.1,66.2h-6.9c-0.4,0-0.8-0.3-0.8-0.8v0c0-0.4,0.3-0.8,0.8-0.8h6.9c0.4,0,0.8,0.3,0.8,0.8v0
		C36.9,65.9,36.6,66.2,36.1,66.2z"/>
</g>
<g id="Layer_7">
	<path class="st1" d="M37.7,12.3h28.7c-1.4-6.4-6.6-5.5-6.6-5.5c-4-0.7-4.5-6.2-4.5-6.2H49c-0.7,5.9-4.7,5.9-4.7,5.9
		C38.1,6.8,37.7,12.3,37.7,12.3z"/>
</g>
<g id="Layer_6">
</g>
</svg>
