<?xml version="1.0" encoding="utf-8"?>
<!-- Generator: Adobe Illustrator 25.3.1, SVG Export Plug-In . SVG Version: 6.00 Build 0)  -->
<svg version="1.1" id="Layer_1" xmlns="http://www.w3.org/2000/svg" xmlns:xlink="http://www.w3.org/1999/xlink" x="0px" y="0px"
	 viewBox="0 0 102.3 92.9" style="enable-background:new 0 0 102.3 92.9;" xml:space="preserve">
<style type="text/css">
	.st0{fill:#5C5A51;}
	.st1{fill:#FFFFFF;}
	.st2{fill:#FFFFFF;stroke:#5C5A51;stroke-width:0.8504;stroke-linecap:round;stroke-miterlimit:10;}
	.st3{fill:#F9A027;stroke:#3A3634;stroke-miterlimit:10;}
	.st4{opacity:0.23;fill:#5C5A51;}
	.st5{fill:#F6DAB7;}
	.st6{fill:url(#SVGID_1_);}
</style>
<ellipse class="st0" cx="53" cy="90" rx="42" ry="1.1"/>
<path class="st1" d="M95.8,44.2c0-20-16.2-36.3-36.3-36.3v36.6L95.8,44.2z"/>
<path class="st2" d="M89.6,53.6c-2,21.5-20.8,38.2-43.2,36.6c-20-1.4-36.2-17.6-37.6-37.6C7.3,30.4,23.7,11.7,45,9.5
	c2.3-0.2,4.2,1.6,4.2,3.8V46c0,2.1,1.7,3.8,3.8,3.8h33.1C88.2,49.8,89.8,51.6,89.6,53.6z"/>
<path class="st3" d="M95.6,40C93.9,20.7,78.7,5.2,59.4,3.2C57.1,3,55.2,4.7,55.2,7l0,33.3c0,2,1.6,3.5,3.5,3.5l33.7-0.3
	C94.3,43.5,95.7,41.9,95.6,40z"/>
<path class="st4" d="M83.4,50.4c-5.2,25.5-26.8,33.9-26.8,33.9c23-4.9,30.4-23.3,32.5-30.8c0.4-1.6-0.8-3.1-2.4-3.1H83.4z"/>
<path class="st5" d="M55.7,42.6V6.9c0-1.9,1.6-3.3,3.4-3.2c16,1.2,26,13.1,26,13.1c-7.1-4.3-12.9-5.8-16.8-6.2
	c-3.2-0.4-6.1,1.8-6.8,4.9L55.7,42.6z"/>
<linearGradient id="SVGID_1_" gradientUnits="userSpaceOnUse" x1="31.1784" y1="44.9121" x2="27.7807" y2="24.798">
	<stop  offset="0" style="stop-color:#FFFFFF"/>
	<stop  offset="1" style="stop-color:#D9D9D9"/>
</linearGradient>
<path class="st6" d="M13,51.9c0.6-28,22.2-35.7,30-37.6c1.4-0.3,2.8,0.8,2.8,2.2l-0.5,32.1L13,51.9z"/>
</svg>
