<?xml version="1.0" encoding="utf-8"?>
<!-- Generator: Adobe Illustrator 25.2.3, SVG Export Plug-In . SVG Version: 6.00 Build 0)  -->
<svg version="1.1" id="Layer_1" xmlns="http://www.w3.org/2000/svg" xmlns:xlink="http://www.w3.org/1999/xlink" x="0px" y="0px"
	 viewBox="0 0 84.6 100.9" style="enable-background:new 0 0 84.6 100.9;" xml:space="preserve">
<style type="text/css">
	.st0{fill-rule:evenodd;clip-rule:evenodd;fill:#FFFFFF;stroke:#C1C1C1;stroke-width:1.7008;stroke-linecap:round;}
	.st1{fill:none;stroke:#C1C1C1;stroke-width:1.7008;stroke-linecap:round;}
	
		.st2{fill-rule:evenodd;clip-rule:evenodd;fill:#FFFFFF;stroke:#77ACD6;stroke-width:1.7008;stroke-linecap:round;stroke-miterlimit:10;}
	.st3{fill-rule:evenodd;clip-rule:evenodd;fill:none;stroke:#77ACD6;stroke-width:1.7008;stroke-miterlimit:10;}
	.st4{fill:none;stroke:#77ACD6;stroke-width:1.7008;stroke-linecap:round;stroke-miterlimit:10;}
</style>
<g id="Create_1">
	<path class="st0" d="M74.3,0.7H17.1L1,17.5V88c0,1.9,1.7,3.3,3.8,3.3h65.4c2,0,3.6-1.4,3.6-3.1V34.4"/>
	<path class="st1" d="M1,18h12.7c1.8,0,3.3-1.3,3.3-2.9V0.8"/>
	<line class="st1" x1="74.1" y1="27.8" x2="74" y2="0.7"/>
</g>
<line class="st1" x1="10.2" y1="56.5" x2="15.6" y2="56.5"/>
<line class="st1" x1="25.4" y1="56.6" x2="29.8" y2="56.6"/>
<line class="st1" x1="32.8" y1="56.6" x2="56.9" y2="56.6"/>
<line class="st1" x1="25.4" y1="60.8" x2="42.2" y2="60.8"/>
<line class="st1" x1="45.3" y1="60.8" x2="56.9" y2="60.8"/>
<line class="st1" x1="10.7" y1="68.2" x2="14.8" y2="68.2"/>
<line class="st1" x1="25.4" y1="68.2" x2="35.3" y2="68.2"/>
<line class="st1" x1="25.4" y1="72.4" x2="35.3" y2="72.4"/>
<path class="st2" d="M52.6,70.9l-0.1,24c0,2.8,7,5.1,15.6,5.1s15.6-2.3,15.6-5.1l0.1-24"/>
<ellipse class="st2" cx="68.1" cy="64.9" rx="15.6" ry="5.1"/>
<g>
	<ellipse class="st3" cx="24.4" cy="40.8" rx="4.6" ry="4.4"/>
	<path class="st4" d="M58.7,40.2l2.7-1.2L61,35.1c-0.2-1.4-1.3-2.6-2.7-2.8l-11.1-1.4l-4.2-5.2c-0.9-1.1-2.2-1.7-3.5-1.7H23.6
		c-1.4,0-2.8,0.7-3.6,1.9l-4.2,5.8l-1.2,2.9v5.5l2.9,1.2h2.3"/>
	<path class="st4" d="M33.6,41.4h13.3"/>
	<ellipse class="st3" cx="51.5" cy="40.8" rx="4.6" ry="4.4"/>
</g>
<line class="st2" x1="75.4" y1="78.5" x2="75.4" y2="98.7"/>
</svg>
