<?xml version="1.0" encoding="utf-8"?>
<!-- Generator: Adobe Illustrator 25.2.3, SVG Export Plug-In . SVG Version: 6.00 Build 0)  -->
<svg version="1.1" id="Layer_1" xmlns="http://www.w3.org/2000/svg" xmlns:xlink="http://www.w3.org/1999/xlink" x="0px" y="0px"
	 viewBox="0 0 103.5 100.9" style="enable-background:new 0 0 103.5 100.9;" xml:space="preserve">
<style type="text/css">
	.st0{fill:#FFFFFF;stroke:#C1C1C1;stroke-width:1.7008;stroke-linecap:round;stroke-linejoin:round;}
	.st1{fill:none;stroke:#77ACD6;stroke-width:2.2677;stroke-linecap:round;stroke-miterlimit:10;}
	.st2{fill-rule:evenodd;clip-rule:evenodd;fill:#FFFFFF;stroke:#C1C1C1;stroke-width:1.7008;stroke-linecap:round;}
	.st3{fill:none;stroke:#C1C1C1;stroke-width:1.7008;stroke-linecap:round;stroke-linejoin:round;}
	.st4{fill:#77ACD6;}
	.st5{fill:#C1C1C1;}
</style>
<circle class="st0" cx="12.8" cy="14.3" r="9.2"/>
<line class="st1" x1="62.9" y1="50.5" x2="100.1" y2="50.5"/>
<path class="st2" d="M70.5,91"/>
<line class="st3" x1="12.9" y1="26.7" x2="12.9" y2="37.6"/>
<line class="st1" x1="63.7" y1="13.6" x2="85" y2="13.6"/>
<line class="st1" x1="62.6" y1="86.7" x2="92.3" y2="86.7"/>
<line class="st3" x1="12.9" y1="62.7" x2="12.9" y2="73.6"/>
<path class="st2" d="M46,90.9"/>
<g id="Layer_2">
</g>
<g>
	<path class="st4" d="M30.5,11.7l-1.2-1.3c0.8-1,1.8-1.5,3.1-1.5c0.9,0,1.6,0.2,2.1,0.7c0.5,0.5,0.8,1.2,0.8,2
		c0,0.5-0.1,0.9-0.3,1.3s-0.5,0.8-1,1.2l-1.5,1.5h3v1.8h-5.7v-1.5l2.9-2.9c0.4-0.4,0.6-0.8,0.6-1.3c0-0.3-0.1-0.6-0.3-0.8
		s-0.5-0.3-0.8-0.3c-0.3,0-0.6,0.1-0.9,0.2C31.1,11.1,30.8,11.4,30.5,11.7z"/>
	<path class="st4" d="M38.7,9.2c0.4-0.2,0.9-0.3,1.4-0.3c0.5,0,1,0.1,1.4,0.3c0.5,0.2,0.8,0.5,1.2,0.8c0.3,0.4,0.6,0.8,0.8,1.4
		c0.2,0.6,0.3,1.2,0.3,1.8c0,0.7-0.1,1.3-0.3,1.8c-0.2,0.5-0.5,1-0.8,1.4s-0.7,0.7-1.2,0.9c-0.4,0.2-0.9,0.3-1.4,0.3
		c-0.5,0-1-0.1-1.4-0.3c-0.4-0.2-0.8-0.5-1.2-0.9s-0.6-0.8-0.8-1.4s-0.3-1.2-0.3-1.8c0-0.7,0.1-1.3,0.3-1.8c0.2-0.6,0.5-1,0.8-1.4
		C37.8,9.6,38.2,9.4,38.7,9.2z M41.3,11.4c-0.3-0.4-0.7-0.7-1.2-0.7c-0.5,0-0.9,0.2-1.2,0.7s-0.5,1-0.5,1.8c0,0.8,0.2,1.4,0.5,1.8
		s0.7,0.7,1.2,0.7c0.5,0,0.9-0.2,1.2-0.7c0.3-0.4,0.5-1,0.5-1.8C41.8,12.4,41.6,11.8,41.3,11.4z"/>
	<path class="st4" d="M45.5,11.7l-1.2-1.3c0.8-1,1.8-1.5,3.1-1.5c0.9,0,1.6,0.2,2.1,0.7c0.5,0.5,0.8,1.2,0.8,2
		c0,0.5-0.1,0.9-0.3,1.3s-0.5,0.8-1,1.2l-1.5,1.5h3v1.8h-5.7v-1.5l2.9-2.9c0.4-0.4,0.6-0.8,0.6-1.3c0-0.3-0.1-0.6-0.3-0.8
		s-0.5-0.3-0.8-0.3c-0.3,0-0.6,0.1-0.9,0.2C46.1,11.1,45.8,11.4,45.5,11.7z"/>
	<path class="st4" d="M55,8.9v8.5h-1.9v-5.9l-1.9,0.7v-1.9L55,8.9z"/>
</g>
<g>
	<path class="st4" d="M30.5,48.7l-1.2-1.3c0.8-1,1.8-1.5,3.1-1.5c0.9,0,1.6,0.2,2.1,0.7c0.5,0.5,0.8,1.2,0.8,2
		c0,0.5-0.1,0.9-0.3,1.3s-0.5,0.8-1,1.2l-1.5,1.5h3v1.8h-5.7v-1.5l2.9-2.9c0.4-0.4,0.6-0.8,0.6-1.3c0-0.3-0.1-0.6-0.3-0.8
		s-0.5-0.3-0.8-0.3c-0.3,0-0.6,0.1-0.9,0.2C31.1,48.1,30.8,48.4,30.5,48.7z"/>
	<path class="st4" d="M38.7,46.2c0.4-0.2,0.9-0.3,1.4-0.3c0.5,0,1,0.1,1.4,0.3c0.5,0.2,0.8,0.5,1.2,0.8c0.3,0.4,0.6,0.8,0.8,1.4
		c0.2,0.6,0.3,1.2,0.3,1.8c0,0.7-0.1,1.3-0.3,1.8c-0.2,0.5-0.5,1-0.8,1.4s-0.7,0.7-1.2,0.9c-0.4,0.2-0.9,0.3-1.4,0.3
		c-0.5,0-1-0.1-1.4-0.3c-0.4-0.2-0.8-0.5-1.2-0.9s-0.6-0.8-0.8-1.4c-0.2-0.5-0.3-1.2-0.3-1.8c0-0.7,0.1-1.3,0.3-1.8
		c0.2-0.6,0.5-1,0.8-1.4C37.8,46.6,38.2,46.4,38.7,46.2z M41.3,48.4c-0.3-0.4-0.7-0.7-1.2-0.7c-0.5,0-0.9,0.2-1.2,0.7
		s-0.5,1-0.5,1.8c0,0.8,0.2,1.4,0.5,1.8c0.3,0.4,0.7,0.7,1.2,0.7c0.5,0,0.9-0.2,1.2-0.7c0.3-0.4,0.5-1,0.5-1.8
		C41.8,49.4,41.6,48.8,41.3,48.4z"/>
	<path class="st4" d="M48.4,45.9v8.5h-1.9v-5.8l-1.9,0.7v-1.9L48.4,45.9z"/>
	<path class="st4" d="M50.7,54.4l2-2.8h-0.1c-0.5,0-0.9-0.1-1.3-0.2s-0.7-0.3-1-0.6s-0.5-0.5-0.6-0.9c-0.1-0.3-0.2-0.7-0.2-1.1
		c0-0.6,0.1-1.1,0.4-1.5c0.3-0.4,0.7-0.8,1.2-1s1.1-0.4,1.7-0.4c0.6,0,1.2,0.1,1.7,0.4c0.5,0.2,0.9,0.6,1.2,1
		c0.3,0.4,0.4,0.9,0.4,1.5c0,0.7-0.3,1.5-0.8,2.3L53,54.4H50.7z M51.9,49.6c0.2,0.2,0.5,0.3,0.9,0.3c0.4,0,0.6-0.1,0.9-0.3
		c0.2-0.2,0.3-0.5,0.3-0.8c0-0.3-0.1-0.6-0.3-0.8c-0.2-0.2-0.5-0.3-0.9-0.3c-0.4,0-0.6,0.1-0.9,0.3c-0.2,0.2-0.3,0.5-0.3,0.8
		C51.6,49.1,51.7,49.4,51.9,49.6z"/>
</g>
<g>
	<path class="st4" d="M30.5,84.5l-1.2-1.3c0.8-1,1.8-1.5,3.1-1.5c0.9,0,1.6,0.2,2.1,0.7c0.5,0.5,0.8,1.2,0.8,2
		c0,0.5-0.1,0.9-0.3,1.3s-0.5,0.8-1,1.2l-1.5,1.5h3v1.8h-5.7v-1.5l2.9-2.8c0.4-0.4,0.6-0.8,0.6-1.3c0-0.3-0.1-0.6-0.3-0.8
		c-0.2-0.2-0.5-0.3-0.8-0.3c-0.3,0-0.6,0.1-0.9,0.2C31.1,83.9,30.8,84.2,30.5,84.5z"/>
	<path class="st4" d="M38.7,82c0.4-0.2,0.9-0.3,1.4-0.3c0.5,0,1,0.1,1.4,0.3c0.5,0.2,0.8,0.5,1.2,0.8s0.6,0.8,0.8,1.4
		c0.2,0.6,0.3,1.2,0.3,1.8s-0.1,1.3-0.3,1.8c-0.2,0.5-0.5,1-0.8,1.4s-0.7,0.7-1.2,0.9c-0.4,0.2-0.9,0.3-1.4,0.3
		c-0.5,0-1-0.1-1.4-0.3c-0.4-0.2-0.8-0.5-1.2-0.9s-0.6-0.8-0.8-1.4s-0.3-1.2-0.3-1.8s0.1-1.3,0.3-1.8s0.5-1,0.8-1.4
		S38.2,82.2,38.7,82z M41.3,84.2c-0.3-0.4-0.7-0.7-1.2-0.7c-0.5,0-0.9,0.2-1.2,0.7c-0.3,0.4-0.5,1-0.5,1.8s0.2,1.4,0.5,1.8
		c0.3,0.4,0.7,0.7,1.2,0.7c0.5,0,0.9-0.2,1.2-0.7c0.3-0.4,0.5-1,0.5-1.8S41.6,84.6,41.3,84.2z"/>
	<path class="st4" d="M48.4,81.7v8.5h-1.9v-5.9l-1.9,0.7v-1.9L48.4,81.7z"/>
	<path class="st4" d="M51.4,81.9c0.5-0.2,1-0.3,1.6-0.3s1.1,0.1,1.6,0.3c0.5,0.2,0.9,0.5,1.1,0.8c0.3,0.4,0.4,0.8,0.4,1.3
		c0,0.9-0.4,1.5-1.3,1.9c1,0.4,1.5,1,1.5,2c0,0.5-0.2,0.9-0.5,1.3c-0.3,0.4-0.7,0.7-1.2,0.8c-0.5,0.2-1.1,0.3-1.7,0.3
		s-1.2-0.1-1.7-0.3c-0.5-0.2-0.9-0.5-1.2-0.8c-0.3-0.4-0.5-0.8-0.5-1.3c0-0.9,0.5-1.6,1.5-2c-0.8-0.4-1.3-1-1.3-1.9
		c0-0.5,0.1-0.9,0.4-1.3C50.6,82.4,51,82.1,51.4,81.9z M53.9,87c-0.2-0.2-0.5-0.3-0.9-0.3s-0.6,0.1-0.9,0.3
		c-0.2,0.2-0.4,0.4-0.4,0.7c0,0.3,0.1,0.5,0.4,0.7c0.2,0.2,0.5,0.3,0.9,0.3c0.4,0,0.6-0.1,0.9-0.3c0.2-0.2,0.4-0.4,0.4-0.7
		C54.3,87.4,54.1,87.2,53.9,87z M53,83.4c-0.3,0-0.6,0.1-0.8,0.2c-0.2,0.2-0.3,0.4-0.3,0.7c0,0.3,0.1,0.5,0.3,0.7
		c0.2,0.2,0.5,0.2,0.8,0.2c0.3,0,0.6-0.1,0.8-0.2c0.2-0.2,0.3-0.4,0.3-0.7c0-0.3-0.1-0.5-0.3-0.7C53.6,83.5,53.3,83.4,53,83.4z"/>
</g>
<circle class="st0" cx="12.8" cy="50.3" r="9.2"/>
<circle class="st0" cx="12.8" cy="86.3" r="9.2"/>
<g>
	<path class="st5" d="M12.5,9.6c0.8,0,1.5,0.2,2,0.6c0.5,0.4,0.8,1,0.8,1.7c0,0.5-0.1,0.9-0.3,1.2c-0.2,0.3-0.6,0.6-1,0.8
		c0.5,0.2,0.8,0.4,1.1,0.8s0.4,0.8,0.4,1.2c0,0.3-0.1,0.6-0.2,0.9c-0.1,0.3-0.2,0.5-0.4,0.7s-0.4,0.3-0.6,0.5
		c-0.2,0.1-0.5,0.2-0.8,0.3c-0.3,0.1-0.6,0.1-0.9,0.1c-0.6,0-1.1-0.1-1.6-0.3c-0.5-0.2-0.9-0.5-1.2-0.8l0.6-0.6
		c0.3,0.3,0.6,0.5,0.9,0.6c0.4,0.1,0.8,0.2,1.2,0.2c0.6,0,1-0.1,1.4-0.4c0.4-0.3,0.6-0.6,0.6-1.1c0-0.5-0.2-0.8-0.6-1.1
		c-0.4-0.3-0.9-0.4-1.4-0.4h-1.1v-0.8h1.1c0.5,0,1-0.1,1.3-0.4c0.3-0.3,0.5-0.6,0.5-1.1c0-0.4-0.2-0.8-0.5-1.1
		c-0.4-0.3-0.8-0.4-1.3-0.4c-0.4,0-0.8,0.1-1.1,0.3s-0.6,0.4-0.8,0.7l-0.7-0.6c0.3-0.4,0.6-0.7,1-0.9C11.4,9.7,11.9,9.6,12.5,9.6z"
		/>
</g>
<g>
	<path class="st5" d="M10.6,47.6L9.9,47c0.6-0.9,1.5-1.4,2.6-1.4c0.8,0,1.5,0.2,2,0.7c0.5,0.5,0.7,1.1,0.7,1.9
		c0,0.5-0.1,0.9-0.3,1.3s-0.5,0.7-0.8,1.1l-2.5,2.7h3.9v0.9h-5.3v-0.7l3.2-3.3c0.6-0.6,0.9-1.2,0.9-1.8c0-0.5-0.2-0.9-0.5-1.2
		c-0.3-0.3-0.7-0.5-1.3-0.5c-0.4,0-0.8,0.1-1.1,0.3C11.1,47,10.8,47.2,10.6,47.6z"/>
</g>
<g>
	<path class="st5" d="M13.2,82v8.5h-0.9v-7.2l-2.5,1.1v-1L13.2,82z"/>
</g>
</svg>
