<?xml version="1.0" encoding="utf-8"?>
<!-- Generator: Adobe Illustrator 25.2.3, SVG Export Plug-In . SVG Version: 6.00 Build 0)  -->
<svg version="1.1" id="Layer_1" xmlns="http://www.w3.org/2000/svg" xmlns:xlink="http://www.w3.org/1999/xlink" x="0px" y="0px"
	 viewBox="0 0 102.6 100.9" style="enable-background:new 0 0 102.6 100.9;" xml:space="preserve">
<style type="text/css">
	.st0{fill-rule:evenodd;clip-rule:evenodd;fill:#FFFFFF;}
	.st1{fill-rule:evenodd;clip-rule:evenodd;fill:#FFFFFF;stroke:#C1C1C1;stroke-width:1.7008;stroke-linecap:round;}
	.st2{fill:none;stroke:#C1C1C1;stroke-width:1.7008;stroke-linecap:round;}
	
		.st3{fill-rule:evenodd;clip-rule:evenodd;fill:#FFFFFF;stroke:#77ACD6;stroke-width:1.7008;stroke-linecap:round;stroke-miterlimit:10;}
	
		.st4{fill-rule:evenodd;clip-rule:evenodd;fill:#FFFFFF;stroke:#77ACD6;stroke-width:1.7008;stroke-linecap:round;stroke-linejoin:round;stroke-miterlimit:10;}
	.st5{fill-rule:evenodd;clip-rule:evenodd;fill:#77ACD6;}
</style>
<circle class="st0" cx="51.5" cy="50.5" r="49.6"/>
<path class="st1" d="M100.6,50.5c0,27.2-22,49.2-49.2,49.2S2.3,77.7,2.3,50.5s22-49.2,49.2-49.2"/>
<g>
	<path class="st1" d="M93.4,50.5c0,23.2-18.8,42-42,42s-42-18.8-42-42s18.8-42,42-42"/>
	<path class="st2" d="M52.3,8.6c14.7,0.5,22.8,7.3,22.8,7.3"/>
	<path class="st1" d="M93.5,50.3c0-14.2-7.4-23-7.4-23"/>
</g>
<path class="st1" d="M100.6,50.2c0.8-16.9-9.5-29.3-9.5-29.3"/>
<path class="st3" d="M61.5,48.7c0,4.9-4,8.9-8.9,8.9s-8.9-4-8.9-8.9s4-8.9,8.9-8.9"/>
<polyline class="st4" points="53.2,40.3 91.8,12.5 63.9,45.2 "/>
<path class="st1" d="M51.7,1.4c18.9-1.1,30.2,10.5,30.2,10.5"/>
<circle class="st5" cx="52.3" cy="18" r="2.9"/>
<circle class="st5" cx="37.2" cy="21.4" r="2.6"/>
<circle class="st5" cx="19.2" cy="48.8" r="1.6"/>
<circle class="st5" cx="84" cy="49.4" r="4.2"/>
<circle class="st5" cx="25.3" cy="33" r="2.6"/>
</svg>
