<?xml version="1.0" encoding="utf-8"?>
<!-- Generator: Adobe Illustrator 25.2.3, SVG Export Plug-In . SVG Version: 6.00 Build 0)  -->
<svg version="1.1" id="Layer_1" xmlns="http://www.w3.org/2000/svg" xmlns:xlink="http://www.w3.org/1999/xlink" x="0px" y="0px"
	 viewBox="0 0 94.8 100.9" style="enable-background:new 0 0 94.8 100.9;" xml:space="preserve">
<style type="text/css">
	.st0{fill:#FFFFFF;}
	
		.st1{fill-rule:evenodd;clip-rule:evenodd;fill:#FFFFFF;stroke:#C1C1C1;stroke-width:1.7008;stroke-linecap:round;stroke-linejoin:round;}
	.st2{fill-rule:evenodd;clip-rule:evenodd;fill:#FFFFFF;stroke:#C1C1C1;stroke-width:1.7008;stroke-linecap:round;}
	.st3{fill:none;stroke:#77ACD6;stroke-width:2.2677;stroke-linecap:round;stroke-miterlimit:10;}
	.st4{fill-rule:evenodd;clip-rule:evenodd;fill:#77ACD6;}
	.st5{fill:none;stroke:#C1C1C1;stroke-width:1.7008;stroke-linecap:round;stroke-linejoin:round;}
	.st6{fill:none;stroke:#C1C1C1;stroke-width:1.7008;stroke-linecap:round;stroke-miterlimit:10;}
</style>
<path class="st0" d="M83.1,99.7c7.7,0,11-5.6,11-13.4l-16.3-0.1L11,0.9l0.5,65.7L83.1,99.7z"/>
<path class="st0" d="M11.2,11.4H1.7c0-5.3,4.3-9.6,9.5-9.6"/>
<path class="st1" d="M83.8,99.5H23.3c-6.7,0-12.1-5.4-12.1-12.1V16.6"/>
<path class="st1" d="M11.2,1.3h55.3c6.3,0,11.4,5.1,11.4,11.4v73.9c0.5,8,6.5,8.3,6.5,8.3"/>
<path class="st2" d="M61.6,1.4"/>
<g>
	<g>
		<path class="st3" d="M43.7,28c0,0-4.1,3.9-9.4-0.1l-2.9,2.9l1.5,4.4c0.1,0.4,0.1,0.8-0.1,1.2c-8.3,17.2,7.5,16.9,7.5,16.9
			c2.7,0.2,3.4,2.5,3.4,2.5"/>
		<path class="st3" d="M43.8,28c0,0,4.1,3.9,9.4-0.1l2.9,2.9l-1.5,4.4c-0.1,0.4-0.1,0.8,0.1,1.2c8.3,17.2-7.5,16.9-7.5,16.9
			c-2.7,0.2-3.4,2.5-3.4,2.5"/>
	</g>
	<polygon class="st4" points="47.8,47.2 43.5,44.9 39.2,47.2 39.9,42.4 36.4,39 41.3,38.3 43.4,33.8 45.6,38.2 50.4,38.9 47,42.3 	
		"/>
</g>
<line class="st5" x1="22.7" y1="67.5" x2="65.6" y2="67.5"/>
<line class="st5" x1="22.8" y1="76.1" x2="65.8" y2="76.1"/>
<line class="st5" x1="22.8" y1="84.7" x2="65.8" y2="84.7"/>
<path class="st6" d="M1.3,11.4h61.2c2.1-5.9,6.2-6.7,6.2-6.7"/>
<path class="st6" d="M1.6,10.8c0-5.3,4.3-9.5,9.5-9.5"/>
<path class="st1" d="M83.9,86.1"/>
<path class="st2" d="M33.4,100.3"/>
<path class="st6" d="M93.7,86.1H82.2"/>
<path class="st6" d="M93.9,86.8c0,10-4.5,12.8-9.8,12.8"/>
</svg>
