<?xml version="1.0" encoding="utf-8"?>
<!-- Generator: Adobe Illustrator 25.2.3, SVG Export Plug-In . SVG Version: 6.00 Build 0)  -->
<svg version="1.1" id="Layer_1" xmlns="http://www.w3.org/2000/svg" xmlns:xlink="http://www.w3.org/1999/xlink" x="0px" y="0px"
	 viewBox="0 0 103.8 100.9" style="enable-background:new 0 0 103.8 100.9;" xml:space="preserve">
<style type="text/css">
	.st0{fill:#FFFFFF;}
	.st1{fill:none;stroke:#238E13;stroke-width:1.7008;stroke-miterlimit:10;}
	.st2{fill:none;stroke:#238E13;stroke-width:1.7008;stroke-linecap:round;stroke-miterlimit:10;}
	.st3{fill:none;stroke:#C1C1C1;stroke-width:1.7008;stroke-linecap:round;}
	.st4{fill:#238E13;}
	.st5{fill:none;stroke:#FFFFFF;stroke-width:1.7008;stroke-linecap:round;stroke-linejoin:round;}
</style>
<g>
	<ellipse class="st0" cx="29.5" cy="58.3" rx="7.2" ry="6.9"/>
	<path class="st0" d="M83.3,57.4l4.3-2l-0.6-6.1c-0.4-2.2-2.1-4-4.3-4.4l-17.4-2.2l-6.6-8.2c-1.5-1.7-3.4-2.7-5.5-2.7h-8.9H28.2
		c-2.2,0-4.4,1.1-5.6,2.9L16,44l-1.8,4.5v8.7l4.5,1.8h3.7h56.8L83.3,57.4z"/>
	<path class="st0" d="M43.9,59.2h20.8"/>
	<ellipse class="st0" cx="72" cy="58.3" rx="7.2" ry="6.9"/>
</g>
<g>
	<ellipse class="st1" cx="30" cy="58.2" rx="7.2" ry="6.9"/>
	<path class="st2" d="M44.7,31.8H28.6c-2.2,0-4.4,1.1-5.6,2.9l-6.6,9.1l-1.8,4.5V57l4.5,1.8h3.7"/>
	<path class="st2" d="M83.7,57.2l4.3-2l-0.6-6.1c-0.4-2.2-2.1-4-4.3-4.4l-17.4-2.2l-6.6-8.2c-1.5-1.7-3.4-2.7-5.5-2.7"/>
	<path class="st2" d="M44.4,59.1h20.8"/>
	<ellipse class="st1" cx="72.4" cy="58.2" rx="7.2" ry="6.9"/>
</g>
<line class="st3" x1="32.4" y1="70.7" x2="32.4" y2="85.9"/>
<path class="st3" d="M91.9,50.8h0.8c2.2,0,4,1.8,4,4v6.9"/>
<line class="st3" x1="69.1" y1="68" x2="69.1" y2="79.5"/>
<path class="st2" d="M43.5,35.9v5.7c0,1.5,1.1,2.6,2.6,2.6h12.6"/>
<line class="st3" x1="49.2" y1="39.7" x2="49.2" y2="15.7"/>
<circle class="st4" cx="49.2" cy="6.6" r="6.1"/>
<polyline class="st5" points="47,7.5 47.9,8.5 51.4,5 "/>
<circle class="st4" cx="91.2" cy="17.4" r="6.1"/>
<polyline class="st5" points="89,18.3 89.9,19.3 93.4,15.8 "/>
<circle class="st4" cx="97.2" cy="70.9" r="6.1"/>
<polyline class="st5" points="94.9,71.8 95.9,72.8 99.4,69.3 "/>
<circle class="st4" cx="69.4" cy="89.4" r="6.1"/>
<polyline class="st5" points="67.2,90.4 68.1,91.3 71.6,87.8 "/>
<circle class="st4" cx="32.9" cy="94.3" r="6.1"/>
<polyline class="st5" points="30.7,95.3 31.6,96.2 35.1,92.7 "/>
<circle class="st4" cx="6.4" cy="71.2" r="6.1"/>
<polyline class="st5" points="4.2,72.1 5.2,73 8.6,69.6 "/>
<circle class="st4" cx="7" cy="23.2" r="6.1"/>
<polyline class="st5" points="4.8,24.2 5.7,25.1 9.2,21.6 "/>
<path class="st3" d="M16.1,22.7h4.7c3.2,0,5.8,2.6,5.8,5.8"/>
<path class="st3" d="M22.5,65.3c0,2.9-2.4,5.3-5.3,5.3h-1.8"/>
<path class="st3" d="M71,39.8V22c0-2.8,2.3-5,5-5h5.9"/>
</svg>
