<?xml version="1.0" encoding="utf-8"?>
<!-- Generator: Adobe Illustrator 25.2.3, SVG Export Plug-In . SVG Version: 6.00 Build 0)  -->
<svg version="1.1" id="Layer_1" xmlns="http://www.w3.org/2000/svg" xmlns:xlink="http://www.w3.org/1999/xlink" x="0px" y="0px"
	 viewBox="0 0 100.1 100.9" style="enable-background:new 0 0 100.1 100.9;" xml:space="preserve">
<style type="text/css">
	.st0{fill:#FFFFFF;}
	.st1{fill:none;stroke:#C65218;stroke-width:1.7008;stroke-linecap:round;stroke-linejoin:round;}
	.st2{fill:#C65218;}
	.st3{fill:#FFFFFF;stroke:#C65218;stroke-width:1.7008;stroke-linecap:round;stroke-linejoin:round;}
	.st4{font-family:'ArialRoundedMTBold';}
	.st5{font-size:17.0659px;}
	.st6{fill:none;stroke:#C1C1C1;stroke-width:1.7008;stroke-linecap:round;}
	.st7{fill:#C1C1C1;}
	.st8{font-size:19.8535px;}
</style>
<g id="Layer_2_1_">
	<path class="st0" d="M42.8,63.7H16c-0.9,0-1.5-0.7-1.5-1.5v-2.7c0-0.9,0.7-1.5,1.5-1.5h26.9c0.9,0,1.5,0.7,1.5,1.5v2.7
		C44.4,63,43.7,63.7,42.8,63.7z"/>
	<path class="st0" d="M42.8,63.9c0.9,0,1.5,0.7,1.5,1.5v2.7c0,0.9-0.7,1.5-1.5,1.5H16c-0.9,0-1.5-0.7-1.5-1.5v-2.7
		c0-0.9,0.7-1.5,1.5-1.5"/>
	<path class="st0" d="M42.8,69.9c0.9,0,1.5,0.7,1.5,1.5v2.7c0,0.9-0.7,1.5-1.5,1.5H16c-0.9,0-1.5-0.7-1.5-1.5v-2.7
		c0-0.9,0.7-1.5,1.5-1.5"/>
	<path class="st0" d="M42.8,75.9c0.9,0,1.5,0.7,1.5,1.5v2.7c0,0.9-0.7,1.5-1.5,1.5H16c-0.9,0-1.5-0.7-1.5-1.5v-2.7
		c0-0.9,0.7-1.5,1.5-1.5"/>
	<path class="st0" d="M42.8,81.9c0.9,0,1.5,0.7,1.5,1.5v2.7c0,0.9-0.7,1.5-1.5,1.5H16c-0.9,0-1.5-0.7-1.5-1.5v-2.7
		c0-0.9,0.7-1.5,1.5-1.5"/>
	<path class="st0" d="M42.8,87.9c0.9,0,1.5,0.7,1.5,1.5v2.7c0,0.9-0.7,1.5-1.5,1.5H16c-0.9,0-1.5-0.7-1.5-1.5v-2.7
		c0-0.9,0.7-1.5,1.5-1.5"/>
	<path class="st0" d="M42.8,93.9c0.9,0,1.5,0.7,1.5,1.5v2.7c0,0.9-0.7,1.5-1.5,1.5H16c-0.9,0-1.5-0.7-1.5-1.5v-2.7
		c0-0.9,0.7-1.5,1.5-1.5"/>
	<path class="st0" d="M88.7,99.5H64.4c-5.6,0-10.2-4.6-10.2-10.2V53.4c0-5.6,4.6-10.2,10.2-10.2h24.3c5.6,0,10.2,4.6,10.2,10.2v35.9
		C98.9,94.9,94.3,99.5,88.7,99.5z"/>
	<circle class="st0" cx="14.1" cy="86.4" r="13.1"/>
	<path class="st0" d="M19.5,79.1V10.2c0-4.9,3.9-8.8,8.8-8.8h42.6c0,0,10.9,10.6,10.9,11v66.7"/>
</g>
<g id="Layer_1_1_">
	<path class="st1" d="M42.8,63.7H16c-0.9,0-1.5-0.7-1.5-1.5v-2.7c0-0.9,0.7-1.5,1.5-1.5h26.9c0.9,0,1.5,0.7,1.5,1.5v2.7
		C44.4,63,43.7,63.7,42.8,63.7z"/>
	<path class="st1" d="M42.8,63.9c0.9,0,1.5,0.7,1.5,1.5v2.7c0,0.9-0.7,1.5-1.5,1.5H16c-0.9,0-1.5-0.7-1.5-1.5v-2.7
		c0-0.9,0.7-1.5,1.5-1.5"/>
	<path class="st1" d="M42.8,69.9c0.9,0,1.5,0.7,1.5,1.5v2.7c0,0.9-0.7,1.5-1.5,1.5H16c-0.9,0-1.5-0.7-1.5-1.5v-2.7
		c0-0.9,0.7-1.5,1.5-1.5"/>
	<path class="st1" d="M42.8,75.9c0.9,0,1.5,0.7,1.5,1.5v2.7c0,0.9-0.7,1.5-1.5,1.5H16c-0.9,0-1.5-0.7-1.5-1.5v-2.7
		c0-0.9,0.7-1.5,1.5-1.5"/>
	<path class="st1" d="M42.8,81.9c0.9,0,1.5,0.7,1.5,1.5v2.7c0,0.9-0.7,1.5-1.5,1.5H16c-0.9,0-1.5-0.7-1.5-1.5v-2.7
		c0-0.9,0.7-1.5,1.5-1.5"/>
	<path class="st1" d="M42.8,87.9c0.9,0,1.5,0.7,1.5,1.5v2.7c0,0.9-0.7,1.5-1.5,1.5H16c-0.9,0-1.5-0.7-1.5-1.5v-2.7
		c0-0.9,0.7-1.5,1.5-1.5"/>
	<path class="st1" d="M42.8,93.9c0.9,0,1.5,0.7,1.5,1.5v2.7c0,0.9-0.7,1.5-1.5,1.5H16c-0.9,0-1.5-0.7-1.5-1.5v-2.7
		c0-0.9,0.7-1.5,1.5-1.5"/>
	<path class="st1" d="M98.9,69.6v19.7c0,5.6-4.6,10.2-10.2,10.2H64.4c-5.6,0-10.2-4.6-10.2-10.2V53.4c0-5.6,4.6-10.2,10.2-10.2h24.3
		c5.6,0,10.2,4.6,10.2,10.2v10.4"/>
	<path class="st1" d="M88.5,61.7H64.6c-1.6,0-2.9-1.3-2.9-2.9v-4.4c0-1.6,1.3-2.9,2.9-2.9h23.9c1.6,0,2.9,1.3,2.9,2.9v4.4
		C91.4,60.4,90.1,61.7,88.5,61.7z"/>
	<path class="st2" d="M65.5,73.2h-2.6c-0.6,0-1.1-0.5-1.1-1.1v-2.6c0-0.6,0.5-1.1,1.1-1.1h2.6c0.6,0,1.1,0.5,1.1,1.1v2.6
		C66.6,72.7,66.1,73.2,65.5,73.2z"/>
	<path class="st2" d="M74.2,73.2h-2.6c-0.6,0-1.1-0.5-1.1-1.1v-2.6c0-0.6,0.5-1.1,1.1-1.1h2.6c0.6,0,1.1,0.5,1.1,1.1v2.6
		C75.3,72.7,74.8,73.2,74.2,73.2z"/>
	<path class="st2" d="M82.8,73.2h-2.6c-0.6,0-1.1-0.5-1.1-1.1v-2.6c0-0.6,0.5-1.1,1.1-1.1h2.6c0.6,0,1.1,0.5,1.1,1.1v2.6
		C83.9,72.7,83.4,73.2,82.8,73.2z"/>
	<path class="st2" d="M91.4,73.2h-2.6c-0.6,0-1.1-0.5-1.1-1.1v-2.6c0-0.6,0.5-1.1,1.1-1.1h2.6c0.6,0,1.1,0.5,1.1,1.1v2.6
		C92.5,72.7,92,73.2,91.4,73.2z"/>
	<path class="st2" d="M65.5,82.2h-2.6c-0.6,0-1.1-0.5-1.1-1.1v-2.6c0-0.6,0.5-1.1,1.1-1.1h2.6c0.6,0,1.1,0.5,1.1,1.1v2.6
		C66.6,81.7,66.1,82.2,65.5,82.2z"/>
	<path class="st2" d="M74.2,82.2h-2.6c-0.6,0-1.1-0.5-1.1-1.1v-2.6c0-0.6,0.5-1.1,1.1-1.1h2.6c0.6,0,1.1,0.5,1.1,1.1v2.6
		C75.3,81.7,74.8,82.2,74.2,82.2z"/>
	<path class="st2" d="M82.8,82.2h-2.6c-0.6,0-1.1-0.5-1.1-1.1v-2.6c0-0.6,0.5-1.1,1.1-1.1h2.6c0.6,0,1.1,0.5,1.1,1.1v2.6
		C83.9,81.7,83.4,82.2,82.8,82.2z"/>
	<path class="st2" d="M91.4,82.2h-2.6c-0.6,0-1.1-0.5-1.1-1.1v-2.6c0-0.6,0.5-1.1,1.1-1.1h2.6c0.6,0,1.1,0.5,1.1,1.1v2.6
		C92.5,81.7,92,82.2,91.4,82.2z"/>
	<path class="st2" d="M65.5,91.2h-2.6c-0.6,0-1.1-0.5-1.1-1.1v-2.6c0-0.6,0.5-1.1,1.1-1.1h2.6c0.6,0,1.1,0.5,1.1,1.1v2.6
		C66.6,90.7,66.1,91.2,65.5,91.2z"/>
	<path class="st2" d="M74.2,91.2h-2.6c-0.6,0-1.1-0.5-1.1-1.1v-2.6c0-0.6,0.5-1.1,1.1-1.1h2.6c0.6,0,1.1,0.5,1.1,1.1v2.6
		C75.3,90.7,74.8,91.2,74.2,91.2z"/>
	<path class="st2" d="M82.8,91.2h-2.6c-0.6,0-1.1-0.5-1.1-1.1v-2.6c0-0.6,0.5-1.1,1.1-1.1h2.6c0.6,0,1.1,0.5,1.1,1.1v2.6
		C83.9,90.7,83.4,91.2,82.8,91.2z"/>
	<path class="st2" d="M91.4,91.2h-2.6c-0.6,0-1.1-0.5-1.1-1.1v-2.6c0-0.6,0.5-1.1,1.1-1.1h2.6c0.6,0,1.1,0.5,1.1,1.1v2.6
		C92.5,90.7,92,91.2,91.4,91.2z"/>
	<circle class="st1" cx="14.1" cy="86.4" r="13.1"/>
	<circle class="st3" cx="19.1" cy="86.4" r="13.1"/>
	<line class="st1" x1="1" y1="86.4" x2="6" y2="86.4"/>
	<line class="st1" x1="2.1" y1="90.8" x2="6.1" y2="90.8"/>
	<line class="st1" x1="2.1" y1="81.8" x2="6.1" y2="81.8"/>
	<line class="st1" x1="4.8" y1="77.6" x2="8.8" y2="77.6"/>
	<line class="st1" x1="4.8" y1="94.8" x2="8.8" y2="94.8"/>
	<text transform="matrix(1 0 0 1 14.3335 92.6368)" class="st2 st4 st5">$</text>
	<path class="st6" d="M19.5,52.3V10.2c0-4.9,3.9-8.8,8.8-8.8h42.6c0,0,10.9,10.6,10.9,11v25.9"/>
	<path class="st6" d="M69.5,7.1v3c0,1.6,1.3,3,3,3h3"/>
	<line class="st6" x1="47.1" y1="79" x2="51.3" y2="79"/>
	<text transform="matrix(1 0 0 1 31.0298 49.9103)" class="st7 st4 st8">$</text>
	<line class="st6" x1="32.6" y1="17" x2="67.8" y2="17"/>
	<line class="st6" x1="32.6" y1="22" x2="67.8" y2="22"/>
	<line class="st6" x1="32.6" y1="27" x2="67.8" y2="27"/>
	<g id="Layer_3">
	</g>
	<g id="Layer_2_2_">
	</g>
</g>
</svg>
