<?xml version="1.0" encoding="utf-8"?>
<!-- Generator: Adobe Illustrator 25.2.3, SVG Export Plug-In . SVG Version: 6.00 Build 0)  -->
<svg version="1.1" xmlns="http://www.w3.org/2000/svg" xmlns:xlink="http://www.w3.org/1999/xlink" x="0px" y="0px"
	 viewBox="0 0 72.5 100.9" style="enable-background:new 0 0 72.5 100.9;" xml:space="preserve">
<style type="text/css">
	.st0{fill:#FFFFFF;stroke:#FFFFFF;stroke-miterlimit:10;}
	.st1{fill:#FFFFFF;}
	.st2{fill:none;stroke:#238E13;stroke-width:1.7008;stroke-linecap:round;}
	.st3{fill:none;stroke:#C1C1C1;stroke-width:1.7008;stroke-linecap:round;}
	.st4{fill:#238E13;}
	.st5{font-family:'ArialRoundedMTBold';}
	.st6{font-size:28.129px;}
	.st7{fill:none;stroke:#FFFFFF;stroke-width:1.7008;stroke-linecap:round;stroke-linejoin:round;}
</style>
<g id="Layer_4">
</g>
<g id="Layer_3">
	<path class="st0" d="M0.9,16v8.9l2.9,1.7L8,26.4c0,0,0.9,1.8,1.2,2.3c0.3,0.5,2.8,2.8,2.8,2.8l4,0.9l2.9-0.9l3.1-2.9l0.6-1.5
		l26.4-0.2l2.5,4.1l3.5,0.8l4,0.6l2-2.1l1.4-3.2l8.4-4l-0.3-6.1L67,13.2l-17.2-2.1l-7.2-8.3l-4.9-2.1h-25l-3.8,2l-6.6,9.8L0.9,16z"
		/>
	<polygon class="st0" points="59.3,99.8 63.3,98.6 65.8,94.4 65.6,88.8 59.2,54.4 49.4,47.5 23.3,47.4 9.2,57 8,63.2 4,93.4 
		4.6,96.3 7.1,98.3 10.4,99.5 17.6,80 16.7,72.8 17.9,66.7 20.7,61.3 26.2,57 32.7,55.1 39.1,55.5 43.1,56.7 49.5,61.5 51.2,64.3 
		53.5,69.5 53.8,74.4 52.6,80.8 49.8,85.4 44.9,89.7 40.2,91.4 32.2,92.1 27.4,90.6 23,88.3 13.2,99.7 	"/>
	<polygon class="st1" points="14.1,77.3 18.2,81.3 19.9,84.3 21.9,86.6 26.2,90 21.5,100 8.7,99.5 6.6,89.2 	"/>
</g>
<g id="Layer_1">
	<path class="st2" d="M7.3,70.4l-3,21.3c-0.7,4.3,2.6,8.1,7,8.1H59c4.4,0,7.7-4,6.9-8.3L59,54.3l-9.9-6.8H23.2"/>
	<circle class="st2" cx="35.2" cy="73.5" r="18.6"/>
	<g>
		<ellipse class="st3" cx="15.5" cy="26" rx="6.9" ry="6.7"/>
		<path class="st3" d="M67,25.1l4.1-1.9l-0.6-5.8c-0.4-2.1-2-3.9-4.1-4.2l-16.7-2.1l-6.3-7.8c-1.4-1.6-3.3-2.6-5.3-2.6H14.2
			c-2.1,0-4.2,1.1-5.4,2.8l-6.3,8.8l-1.8,4.3v8.3L5,26.7h3.5"/>
		<path class="st3" d="M29.3,26.8h20"/>
		<ellipse class="st3" cx="56.1" cy="26" rx="6.9" ry="6.7"/>
	</g>
	<path class="st3" d="M29.5,4.7v5.5c0,1.4,1,2.5,2.3,2.5H43"/>
	<path class="st3" d="M14.6,4.7l-2.5,3.7c-1.2,1.8,0.2,4.2,2.3,4.2h9.9"/>
	<path class="st4" d="M65.2,35.6l-6.4,5c-0.9,1-2.1,1.5-3.3,1.5h-42c-1.4,0-2.7-0.7-3.6-2l-4.8-4.5l9.5,3.2h39.5L65.2,35.6z"/>
	<text transform="matrix(1 0 0 1 26.5762 82.7281)" class="st4 st5 st6">$</text>
	<path class="st2" d="M59,83.9l1.4,7.2c0.4,1.8-1,3.5-2.9,3.5h-8.2"/>
	<circle class="st4" cx="10.6" cy="54.9" r="10.1"/>
	<polyline class="st7" points="6.9,56.4 8.4,58 14.2,52.2 	"/>
</g>
</svg>
