<?xml version="1.0" encoding="utf-8"?>
<!-- Generator: Adobe Illustrator 25.2.3, SVG Export Plug-In . SVG Version: 6.00 Build 0)  -->
<svg version="1.1" xmlns="http://www.w3.org/2000/svg" xmlns:xlink="http://www.w3.org/1999/xlink" x="0px" y="0px"
	 viewBox="0 0 95.7 100.9" style="enable-background:new 0 0 95.7 100.9;" xml:space="preserve">
<style type="text/css">
	.st0{fill:#FFFFFF;}
	.st1{fill:none;stroke:#C1C1C1;stroke-width:1.7008;stroke-linecap:round;}
	.st2{fill:#238E13;}
	.st3{fill:none;stroke:#FFFFFF;stroke-width:1.7008;stroke-linecap:round;stroke-linejoin:round;}
	.st4{fill:none;stroke:#238E13;stroke-width:1.7008;stroke-linecap:round;stroke-linejoin:round;stroke-miterlimit:10;}
</style>
<g id="Layer_2">
	<polygon class="st0" points="49.7,30.7 73.2,40 82.1,52.6 78.6,64.2 65.4,73.1 73.4,61.9 75.3,53.6 69.1,44.7 55,42.4 28.6,42.4 
		14.6,44.7 8.4,53.6 10.2,61.9 18.3,73.1 5.1,64.2 1.5,52.6 10.4,40 31.3,30.7 	"/>
	<polyline class="st0" points="37.4,29.5 34.1,41.7 32.9,64 41.4,83.7 49.4,64 48,41.7 44.5,30.1 	"/>
	<line class="st0" x1="41.2" y1="36.1" x2="41.2" y2="69.8"/>
	<polyline class="st0" points="30.5,27.6 30.5,21.4 51.8,21.4 51.8,27.6 	"/>
	<line class="st0" x1="34.6" y1="29.5" x2="47.7" y2="29.5"/>
	<g>
		<polygon class="st0" points="30.6,4.7 35.4,0.8 41.3,4.7 46.4,0.8 51.5,4.7 56.8,0.9 56.8,21.2 55,21.2 27.4,21.2 25.5,21.2 
			25.5,0.9 		"/>
	</g>
	<path class="st0" d="M6.9,89.7V80l5.6-11.2l4.1-4.9c3.2-3.2,6.8-3.7,6.8-3.7h29.2c9.3,2.7,7.3,3.4,7.3,3.4l6.3,7.8l21.2,4.1
		c5.1,3.4,5.6,5.4,5.6,5.4l0.5,7.5l-9.3,3.9c-1.9,6.3-7.2,8.4-8.3,7.5c-5.3,0.1-9.3-4.9-9.3-7.1H34c-6.8,15.3-16.6,1.7-16.6,1.7
		l-1-2.4l-3.7,0.5L6.9,89.7z"/>
</g>
<g id="Layer_1">
	<path class="st1" d="M79.4,99.7"/>
	<circle class="st2" cx="77.2" cy="19.1" r="9.8"/>
	<polyline class="st3" points="73.7,20.7 75.1,22.1 80.7,16.5 	"/>
	<g>
		<ellipse class="st1" cx="25.2" cy="91.8" rx="8.6" ry="8.3"/>
		<path class="st1" d="M9.1,74.7L6.9,80v10.3l5.4,2.2h4.4"/>
		<path class="st1" d="M23.6,60.3c-2.6,0-5.2,1.3-6.7,3.5"/>
		<path class="st1" d="M63.6,67.7l-3.7-4.3c-1.7-2-4.1-3.2-6.5-3.2"/>
		<path class="st1" d="M89.2,90.6l5.1-2.3L93.6,81c-0.4-2.6-2.5-4.8-5.1-5.2l-16-3.3"/>
		<path class="st1" d="M42.3,92.8h24.8"/>
		<ellipse class="st1" cx="75.7" cy="91.8" rx="8.6" ry="8.3"/>
	</g>
	<path class="st1" d="M51.4,75.1h7.9"/>
	<path class="st1" d="M41.3,65.2"/>
	<polyline class="st4" points="31.3,30.7 10.4,40 1.5,52.6 5.1,64.2 18.3,73.1 10.2,61.9 8.4,53.6 14.6,44.7 28.6,42.4 	"/>
	<polyline class="st4" points="49.7,30.7 73.2,40 82.1,52.6 78.6,64.2 65.4,73.1 73.4,61.9 75.3,53.6 69.1,44.7 55,42.4 	"/>
	<polyline class="st4" points="37.4,29.5 34.1,41.7 32.9,64 41.4,83.7 49.4,64 48,41.7 44.5,30.1 	"/>
	<line class="st4" x1="41.2" y1="36.1" x2="41.2" y2="69.8"/>
	<path class="st1" d="M21.4,75.1h11.8"/>
	<polyline class="st4" points="30.5,27.6 30.5,21.4 51.8,21.4 51.8,27.6 	"/>
	<line class="st4" x1="34.6" y1="29.5" x2="47.7" y2="29.5"/>
	<g>
		<polyline class="st4" points="25.5,0.9 25.5,21.2 27.4,21.2 		"/>
		<polyline class="st4" points="56.8,0.9 56.8,21.2 55,21.2 		"/>
	</g>
</g>
</svg>
