<?xml version="1.0" encoding="utf-8"?>
<!-- Generator: Adobe Illustrator 25.2.3, SVG Export Plug-In . SVG Version: 6.00 Build 0)  -->
<svg version="1.1" xmlns="http://www.w3.org/2000/svg" xmlns:xlink="http://www.w3.org/1999/xlink" x="0px" y="0px"
	 viewBox="0 0 91.4 100.9" style="enable-background:new 0 0 91.4 100.9;" xml:space="preserve">
<style type="text/css">
	.st0{fill:#FFFFFF;}
	.st1{fill:none;stroke:#C1C1C1;stroke-width:1.7008;stroke-linecap:round;}
	.st2{fill:none;stroke:#C65218;stroke-width:1.7008;stroke-linecap:round;stroke-linejoin:round;}
</style>
<g id="Layer_2">
	<g id="Layer_1_2_">
		<path class="st0" d="M40.4,61.2v7.6c0,2,1.5,3.4,3.4,3.4h30.8"/>
		<path class="st0" d="M87.7,56.8H39.8L16.6,47l2.9-6.5c0,0,28.7-10.9,66.2-4l3.5-28.4c0,0-47.2-8.4-76.1,2.7
			c-4,1.5-6.3,5.5-4.7,9.4l8.2,15.5l-6.4-5.1H8.4c-2.3,0-4.3,1.9-4.3,4.3v1.3c0,2.1,1.7,3.8,3.7,3.8l5.3,0.2L10.5,44
			C6.9,49.3,5,55.6,5,62.1v7.8H4.3c-1.5,0-2.8,1.2-2.8,2.8v4.6c0,2.2,1.2,4.1,3.1,5.2L5,82.7v13.6c0,1.8,1.5,3.3,3.3,3.3h6
			c2.3,0,4.1-1.8,4.1-4.1V84.6l2.7,2.2h69.7"/>
		<path class="st0" d="M32.8,5.6l46.5,0.8l0.4-5.2H41.4C37.9,1.2,34.3,3.4,32.8,5.6"/>
		<path class="st0" d="M13.5,53.6L12.6,55c-0.7,1-1.1,2.2-1.1,3.4v2.7c0,1.5,1.2,2.8,2.8,2.8l19,0.2v-2.8c0-2.4-1.5-4.5-3.8-5.3
			l-11.3-3.9C16.5,51.5,14.6,52.1,13.5,53.6z"/>
		<path class="st0" d="M95,39"/>
		<line class="st0" x1="59.7" y1="61.1" x2="59.7" y2="68"/>
		<line class="st0" x1="22.8" y1="45.5" x2="26.4" y2="41.9"/>
		<line class="st0" x1="27.2" y1="47.3" x2="35" y2="39.2"/>
		<line class="st0" x1="31" y1="49.1" x2="42.5" y2="38"/>
		<line class="st0" x1="35.3" y1="50.8" x2="49.2" y2="37.2"/>
		<line class="st0" x1="40.1" y1="52.5" x2="55.6" y2="37.1"/>
		<line class="st0" x1="45.7" y1="53.2" x2="62" y2="36.9"/>
		<line class="st0" x1="52" y1="53.4" x2="68.3" y2="37.2"/>
		<line class="st0" x1="58.5" y1="53.6" x2="74.4" y2="37.7"/>
		<line class="st0" x1="65.3" y1="53.7" x2="80.3" y2="38.7"/>
		<line class="st0" x1="72.3" y1="53.5" x2="84.8" y2="41"/>
		<line class="st0" x1="78.3" y1="53.9" x2="85.8" y2="46.3"/>
		<line class="st0" x1="84.6" y1="53.4" x2="86.6" y2="51.4"/>
	</g>
	<g id="Layer_2_2_">
	</g>
	<line class="st1" x1="1.5" y1="100.3" x2="86.3" y2="100.3"/>
</g>
<g id="Layer_1">
	<g id="Layer_1_3_">
		<path class="st2" d="M40.4,61.2v7.6c0,2,1.5,3.4,3.4,3.4h30.8"/>
		<path class="st1" d="M10.2,30.6H8.4c-2.3,0-4.3,1.9-4.3,4.3v1.3c0,2.1,1.7,3.8,3.7,3.8l5.3,0.2L10.5,44C6.9,49.3,5,55.6,5,62.1
			v7.8H4.3c-1.5,0-2.8,1.2-2.8,2.8v4.6c0,2.2,1.2,4.1,3.1,5.2L5,82.7v13.6c0,1.8,1.5,3.3,3.3,3.3h6c2.3,0,4.1-1.8,4.1-4.1V84.6
			l2.7,2.2h59.7"/>
		<path class="st1" d="M79.7,1.2H41.4c-3.5,0-7.1,2.2-8.6,4.4"/>
		<path class="st1" d="M13.5,53.6L12.6,55c-0.7,1-1.1,2.2-1.1,3.4v2.7c0,1.5,1.2,2.8,2.8,2.8l19,0.2v-2.8c0-2.4-1.5-4.5-3.8-5.3
			l-11.3-3.9C16.5,51.5,14.6,52.1,13.5,53.6z"/>
		<path class="st1" d="M95,39"/>
		<path class="st1" d="M89.2,8.1c0,0-47.2-8.4-76.1,2.7c-4,1.5-6.3,5.5-4.7,9.4l8.2,15.5"/>
		<path class="st2" d="M87.7,56.8H39.8L16.6,47l2.9-6.5c27.6-12,66-4.2,66-4.2"/>
		<line class="st2" x1="59.7" y1="61.1" x2="59.7" y2="68"/>
		<line class="st2" x1="22.8" y1="45.5" x2="26.4" y2="41.9"/>
		<line class="st2" x1="27.2" y1="47.3" x2="35" y2="39.2"/>
		<line class="st2" x1="31" y1="49.1" x2="42.5" y2="38"/>
		<line class="st2" x1="35.3" y1="50.8" x2="49.2" y2="37.2"/>
		<line class="st2" x1="40.1" y1="52.5" x2="55.6" y2="37.1"/>
		<line class="st2" x1="45.7" y1="53.2" x2="62" y2="36.9"/>
		<line class="st2" x1="52" y1="53.4" x2="68.3" y2="37.2"/>
		<line class="st2" x1="58.5" y1="53.6" x2="74.4" y2="37.7"/>
		<line class="st2" x1="65.3" y1="53.7" x2="80.3" y2="38.7"/>
		<line class="st2" x1="72.3" y1="53.5" x2="84.8" y2="41"/>
		<line class="st2" x1="78.3" y1="53.9" x2="85.8" y2="46.3"/>
		<line class="st2" x1="84.6" y1="53.4" x2="86.6" y2="51.4"/>
	</g>
	<g id="Layer_3_2_">
	</g>
	<g id="Layer_2_3_">
	</g>
</g>
</svg>
