<?xml version="1.0" encoding="utf-8"?>
<!-- Generator: Adobe Illustrator 25.2.3, SVG Export Plug-In . SVG Version: 6.00 Build 0)  -->
<svg version="1.1" xmlns="http://www.w3.org/2000/svg" xmlns:xlink="http://www.w3.org/1999/xlink" x="0px" y="0px"
	 viewBox="0 0 118.7 100.9" style="enable-background:new 0 0 118.7 100.9;" xml:space="preserve">
<style type="text/css">
	.st0{fill:#FFFFFF;}
	.st1{fill:none;stroke:#C1C1C1;stroke-width:1.7008;stroke-linecap:round;}
	.st2{fill-rule:evenodd;clip-rule:evenodd;fill:#238E13;}
	.st3{fill:none;stroke:#238E13;stroke-width:1.7008;stroke-linecap:round;stroke-miterlimit:10;}
	.st4{fill:#238E13;}
	.st5{fill:none;stroke:#FFFFFF;stroke-width:1.7008;stroke-linecap:round;stroke-linejoin:round;}
</style>
<g id="Layer_2">
	<path class="st0" d="M50.4,31.2c0,0-10.8-2.2-27.2,3.1l11.2-23.7c0,0,2.2-2.6,6.2-2.9l47.9-0.2L88.7,2H41.8
		c-4.4,0-8.4,2.4-10.4,6.3L17.2,35.8l-2.5-2.7c-1.2-1.2-2.8-2-4.5-2H8.4c-2.3,0-4.3,1.9-4.3,4.3v1.3c0,2.1,1.7,3.8,3.7,3.8l5.3,0.2
		l-2.6,3.8C6.9,49.8,5,56.1,5,62.6v7.8H4.3c-1.5,0-2.8,1.2-2.8,2.8v4.6c0,2.2,1.2,4.1,3.1,5.2L5,83.2v13.6c0,1.8,1.5,3.3,3.3,3.3h6
		c2.3,0,4.1-1.8,4.1-4.1V85.1l2.7,2.2h31.7L50.4,31.2z"/>
	<circle class="st0" cx="78.1" cy="59.2" r="39.2"/>
</g>
<g id="Layer_1">
	<path class="st1" d="M88.7,2H41.8c-4.4,0-8.4,2.4-10.4,6.3L17.2,35.8l-2.5-2.7c-1.2-1.2-2.8-2-4.5-2H8.4c-2.3,0-4.3,1.9-4.3,4.3
		v1.3c0,2.1,1.7,3.8,3.7,3.8l5.3,0.2l-2.6,3.8C6.9,49.8,5,56.1,5,62.6v7.8H4.3c-1.5,0-2.8,1.2-2.8,2.8v4.6c0,2.2,1.2,4.1,3.1,5.2
		L5,83.2v13.6c0,1.8,1.5,3.3,3.3,3.3h6c2.3,0,4.1-1.8,4.1-4.1V85.1l2.7,2.2h21.7"/>
	<path class="st1" d="M13.5,54.1l-0.9,1.4c-0.7,1-1.1,2.2-1.1,3.4v2.7c0,1.5,1.2,2.8,2.8,2.8l19,0.2v-2.8c0-2.4-1.5-4.5-3.8-5.3
		l-11.3-3.9C16.5,52,14.6,52.6,13.5,54.1z"/>
	<path class="st1" d="M89.1,7.7h-49c-2.5,0-4.7,1.4-5.8,3.6l-11,22.8c12.8-3.3,17.4-3,17.4-3"/>
	<path class="st2" d="M88.5,58.4c0,5-4.1,9-9.2,8.9c-4.6-0.1-8.5-4-8.6-8.6c-0.1-5,3.9-9.2,8.9-9.2l15.3-10.6
		c1.7-1.2,3.9,0.7,2.9,2.6L88.5,58.4z"/>
	<path class="st3" d="M105.6,86.4c-15.3,15.3-40,15.3-55.3,0s-15.3-40,0-55.3s40-15.3,55.3,0"/>
	<line class="st3" x1="79.2" y1="26.8" x2="79.2" y2="35.8"/>
	<path class="st3" d="M105.5,58.9c0,15.2-12.3,27.5-27.5,27.5S50.5,74.1,50.5,58.9S62.8,31.4,78,31.4"/>
	<circle class="st4" cx="11.3" cy="11.6" r="10.1"/>
	<polyline class="st5" points="7.6,13.1 9.1,14.7 14.9,8.9 	"/>
</g>
</svg>
