<?xml version="1.0" encoding="utf-8"?>
<!-- Generator: Adobe Illustrator 25.2.3, SVG Export Plug-In . SVG Version: 6.00 Build 0)  -->
<svg version="1.1" xmlns="http://www.w3.org/2000/svg" xmlns:xlink="http://www.w3.org/1999/xlink" x="0px" y="0px"
	 viewBox="0 0 101.9 100.9" style="enable-background:new 0 0 101.9 100.9;" xml:space="preserve">
<style type="text/css">
	.st0{fill:#FFFFFF;}
	.st1{fill:none;stroke:#C1C1C1;stroke-width:1.7008;stroke-linecap:round;}
	.st2{fill:none;stroke:#238E13;stroke-width:1.7008;stroke-miterlimit:10;}
	.st3{fill:none;stroke:#238E13;stroke-width:1.7008;stroke-linecap:round;stroke-miterlimit:10;}
	.st4{fill:#238E13;}
	.st5{fill:none;stroke:#FFFFFF;stroke-width:1.7008;stroke-linecap:round;stroke-linejoin:round;}
</style>
<g id="Layer_2">
	<polygon class="st0" points="91,53.4 91,1.5 75.1,1.5 75.1,53.4 80.1,76.9 80.2,93 79.3,100.1 90.3,100 	"/>
	<path class="st0" d="M1.6,88.6L2,79.8l2.2-5.8l7.7-9.8l4.5-2.6h28.5l3.1,1.2L56.6,73l13.6-4.5l2.3,1.1l3.5,5.6l0.5,2.3l-1,3.1
		l1,8.2l-1.9,1.9l-2.6-0.3l-0.7,3.9l-2.6,2.4c0,0-2.6,0.8-3.1,1c-0.5,0.1-4.8-1-4.8-1l-3.5-3.1l-0.8-2.6H26l-1.1,3.3l-2.2,2.2
		l-2.9,1.2l-4.8-0.4l-3.3-2.9L10.8,92l-0.3-1.4l-3.3,0.1L1.6,88.6z"/>
	<line class="st1" x1="1.2" y1="100" x2="75.4" y2="99.8"/>
</g>
<g id="Layer_1">
	<g>
		<ellipse class="st2" cx="18.5" cy="90.1" rx="7.8" ry="7.5"/>
		<path class="st3" d="M76.7,89l-1-9.3l1-3.2c-0.4-2.4-3.9-7.8-6.3-8.2l-13.2,4.9l-7.1-8.8c-1.6-1.8-3.7-2.9-5.9-2.9H17.1
			c-2.4,0-4.8,1.2-6.1,3.2l-7.1,9.9l-2,4.9v9.4l4.9,2h4"/>
		<path class="st3" d="M34.1,91h22.6"/>
		<ellipse class="st2" cx="64.5" cy="90.1" rx="7.8" ry="7.5"/>
	</g>
	<path class="st3" d="M33.2,65.9v6.2c0,1.6,1.2,2.8,2.8,2.8h13.6"/>
	<path class="st1" d="M79.4,99.7"/>
	<polyline class="st1" points="90.4,70.6 90.4,1.4 74.7,1.4 74.7,53.2 80,76.1 	"/>
	<polygon class="st4" points="73.3,67.2 58.3,53.9 61.5,48.4 	"/>
	<polygon class="st4" points="72.6,61.1 65.6,49.1 68.8,46.1 	"/>
	<circle class="st4" cx="7.4" cy="7.2" r="6.1"/>
	<polyline class="st5" points="5.2,8.2 6.1,9.1 9.6,5.6 	"/>
	<circle class="st4" cx="29.2" cy="37.7" r="6.1"/>
	<polyline class="st5" points="27,38.7 27.9,39.6 31.4,36.1 	"/>
	<circle class="st4" cx="49.5" cy="17.5" r="6.1"/>
	<polyline class="st5" points="47.3,18.5 48.2,19.4 51.7,15.9 	"/>
	<polyline class="st1" points="6.7,15.8 6.7,56.7 9.3,60.4 	"/>
	<line class="st1" x1="28.8" y1="46.9" x2="28.8" y2="57.5"/>
	<line class="st1" x1="49" y1="27.9" x2="49" y2="57.5"/>
	<line class="st1" x1="79.4" y1="4.7" x2="86.2" y2="11.5"/>
	<line class="st1" x1="79.4" y1="11.9" x2="86.2" y2="18.8"/>
	<line class="st1" x1="79.4" y1="19.2" x2="86.2" y2="26"/>
	<line class="st1" x1="79.4" y1="26.4" x2="86.2" y2="33.3"/>
	<line class="st1" x1="79.4" y1="33.7" x2="86.2" y2="40.5"/>
	<line class="st1" x1="79.4" y1="40.7" x2="86.2" y2="47.5"/>
	<line class="st1" x1="79.4" y1="47.9" x2="86.2" y2="54.8"/>
	<line class="st1" x1="79.4" y1="55.2" x2="86.2" y2="62"/>
	<line class="st1" x1="82.4" y1="65.2" x2="86.2" y2="69.3"/>
	<polygon class="st4" points="80.3,82.1 96.9,71.2 99.9,76.1 	"/>
	<polygon class="st4" points="80,85.3 94.7,87.2 95.2,81.3 	"/>
	<polyline class="st1" points="80.1,93.2 79.4,100 90.5,100 90.5,95.2 	"/>
	<polygon class="st4" points="79.3,87.8 98.6,90.9 96.9,94.8 	"/>
</g>
</svg>
