<?xml version="1.0" encoding="utf-8"?>
<!-- Generator: Adobe Illustrator 25.2.3, SVG Export Plug-In . SVG Version: 6.00 Build 0)  -->
<svg version="1.1" id="Layer_1" xmlns="http://www.w3.org/2000/svg" xmlns:xlink="http://www.w3.org/1999/xlink" x="0px" y="0px"
	 viewBox="0 0 84.2 100.9" style="enable-background:new 0 0 84.2 100.9;" xml:space="preserve">
<style type="text/css">
	.st0{fill:#FFFFFF;}
	
		.st1{fill-rule:evenodd;clip-rule:evenodd;fill:#FFFFFF;stroke:#C1C1C1;stroke-width:2.2677;stroke-linecap:round;stroke-linejoin:round;}
	.st2{fill:none;stroke:#77ACD6;stroke-width:2.2677;stroke-linecap:round;stroke-miterlimit:10;}
	.st3{fill:none;stroke:#C1C1C1;stroke-width:2.2677;stroke-linecap:round;stroke-linejoin:round;}
</style>
<circle class="st0" cx="65.3" cy="32.6" r="13.8"/>
<path class="st1" d="M60,55.4V68c0,0-0.5,5.5,3.1,10.9c2.1,3-0.1,7.1-3.7,7.1H6.7c-3.8,0-5.9-4.5-3.4-7.4c2.3-2.8,4.1-6.3,4.1-10.6
	V36.3C7.3,21.6,19.5,9.8,34.4,10c8,0.1,13.2,6.1,13.2,6.1"/>
<circle class="st2" cx="65.3" cy="32.8" r="16.9"/>
<polyline class="st2" points="64.7,21 64.7,32.8 57.7,39.8 "/>
<path class="st1" d="M40.2,91.8c0,4-3.2,7.2-7.2,7.2s-7.2-3.2-7.2-7.2"/>
<path class="st3" d="M27.8,6.6c0-2.9,2.3-5.2,5.2-5.2s5.2,2.3,5.2,5.2"/>
<line class="st3" x1="9.1" y1="77.7" x2="37.9" y2="77.7"/>
<path class="st1" d="M20.5,20.2c-6.3,4.6-7.1,12.3-7.1,12.3"/>
</svg>
