<?xml version="1.0" encoding="utf-8"?>
<!-- Generator: Adobe Illustrator 25.2.3, SVG Export Plug-In . SVG Version: 6.00 Build 0)  -->
<svg version="1.1" id="Layer_1" xmlns="http://www.w3.org/2000/svg" xmlns:xlink="http://www.w3.org/1999/xlink" x="0px" y="0px"
	 viewBox="0 0 100.1 100.9" style="enable-background:new 0 0 100.1 100.9;" xml:space="preserve">
<style type="text/css">
	.st0{fill:#FFFFFF;}
	.st1{fill:none;stroke:#600E3F;stroke-width:1.7008;stroke-linecap:round;stroke-linejoin:round;}
	.st2{fill:none;stroke:#C1C1C1;stroke-width:1.7008;stroke-linecap:round;}
	.st3{fill:none;stroke:#600E3F;stroke-width:0.8504;stroke-linecap:round;stroke-linejoin:round;}
</style>
<g id="Layer_2_1_">
	<path class="st0" d="M86.4,62.6H13.6c-7.2,0-13-5.8-13-13v-36c0-7.2,5.8-13,13-13h72.8c7.2,0,13,5.8,13,13v36
		C99.3,56.8,93.5,62.6,86.4,62.6z"/>
	<path class="st0" d="M34.4,62L30,71l-2.2,3.6l0.4,4.8l12.1,13.1l-1.4,7h22.3v-6.8c0,0,10.7-7,11.3-8.2s1.2-13.7,1.2-13.7l-5.8-2.4
		l-2.2-4.8l-5.6-2.2L34.4,62z"/>
</g>
<path class="st1" d="M63.6,99.4"/>
<g>
	<path class="st1" d="M40.4,60.7l1-35.1c0.1-2.3,1.2-4.1,3.4-4h0.8c2.3,0.1,2.7,1.9,2.6,4.2l0.5,27.4l5.9,3.1
		c0.3,0.2,0.6,0.5,0.8,0.8l1.1,2.5c0.2,0.5,0.5,0.7,1,0.9l7.2,2.5c0.7,0.2,1.1,0.8,1.2,1.5l0.4,2.7c0.1,0.6,0.4,1,1,1.2l6,1.9
		l-0.4,15l-12.1,7.4l0.7,6.7"/>
	<path class="st1" d="M39.2,99.4l1.2-6.7l-11-11.4c-2.9-2.9-2.8-7.6,0.2-10.4L40,51.8"/>
</g>
<ellipse class="st2" cx="29.4" cy="39.9" rx="7" ry="6.7"/>
<path class="st2" d="M49.5,14.4H28.1c-2.1,0-4.3,1-5.4,2.8l-6.4,7.3l-1.8,4.3v8.4l4.4,1.8l3.5,1.5"/>
<path class="st2" d="M84.3,39l4.1-1.9l-0.6-5.9c-0.4-2.1-2-3.9-4.1-4.3l-17-2.1l-6.9-7.6c-1.2-1.6-2.6-2.8-4.6-2.8"/>
<path class="st2" d="M52.8,40.7H66"/>
<ellipse class="st2" cx="73" cy="39.9" rx="7" ry="6.7"/>
<path class="st2" d="M53.3,26.3h9l-6.3-7c-0.9-1-2.3-1.6-3.7-1.6h-5.1"/>
<path class="st2" d="M43.3,17.9L43.3,17.9"/>
<path class="st2" d="M36.6,37.1"/>
<path class="st2" d="M39.2,17.7H27.6l-2.7,6.2c0,1.4,1,2.5,2.4,2.5h7.3"/>
<g id="Layer_3">
</g>
<g id="Layer_2_2_">
</g>
<path class="st1" d="M72.6,63h15.3c6.2,0,11.3-5,11.3-11.3V12.4c0-6.2-5-11.3-11.3-11.3H70.4"/>
<path class="st1" d="M27.4,63H12.3C6.1,63,1,58,1,51.8V12.4C1,6.2,6,1.1,12.3,1.1h49.5"/>
<path class="st3" d="M6.4,48.9c0,4.6,3.7,8.3,8.3,8.3h15.9"/>
<path class="st3" d="M94,48.9c0,4.6-3.7,8.3-8.3,8.3H59.4"/>
</svg>
