<?xml version="1.0" encoding="utf-8"?>
<!-- Generator: Adobe Illustrator 25.2.3, SVG Export Plug-In . SVG Version: 6.00 Build 0)  -->
<svg version="1.1" id="Layer_1" xmlns="http://www.w3.org/2000/svg" xmlns:xlink="http://www.w3.org/1999/xlink" x="0px" y="0px"
	 viewBox="0 0 100.1 100.9" style="enable-background:new 0 0 100.1 100.9;" xml:space="preserve">
<style type="text/css">
	.st0{fill:#FFFFFF;}
	.st1{fill:none;stroke:#C65218;stroke-width:1.7008;stroke-linecap:round;stroke-linejoin:round;}
	.st2{fill:#C1C1C1;}
	.st3{fill:none;stroke:#C1C1C1;stroke-width:1.7008;stroke-linecap:round;}
	.st4{fill:none;stroke:#C1C1C1;stroke-width:2.8346;}
</style>
<g id="Layer_2_1_">
	<path class="st0" d="M81.9,4.6l-6.8,6.6l1.4,12l11.7-0.1l9-7.4c0.2,9.5-6.7,19-16.2,19.2l-3.6-0.5c-3.4-0.5-6.9,0.7-9.4,3.2
		L14,95.1c-2.4,2.5-6.3,2.6-8.8,0.1l0,0c-2.4-2.4-2.4-6.3,0-8.7l55.6-55.4c2.5-2.1,3.7-5.3,3.2-8.5L63.3,18
		C63.1,8.5,71.5,1.3,81,1.1"/>
	<path class="st0" d="M96.9,96.9l-0.6,0.6c-1.6,1.6-4.1,1.6-5.6,0L66,72.9c-1.6-1.6-1.6-4.1,0-5.6l0.6-0.6c1.6-1.6,4.1-1.6,5.6,0
		l24.6,24.6C98.4,92.8,98.4,95.4,96.9,96.9z"/>
</g>
<g id="Layer_1_1_">
	<path class="st1" d="M40.8,50.3l20-19.2c2.5-2.1,3.7-5.3,3.2-8.5L63.3,18C63.1,8.5,71.5,1.3,81,1.1"/>
	<path class="st1" d="M81.9,4.6l-6.8,6.6l1.4,12l11.7-0.1l9-7.4c0.2,9.5-6.7,19-16.2,19.2l-3.6-0.5c-3.4-0.5-6.9,0.7-9.4,3.2
		L14,95.1c-2.4,2.5-6.3,2.6-8.8,0.1l0,0c-2.4-2.4-2.4-6.3,0-8.7l31.1-32"/>
	<polygon class="st2" points="0.7,2.6 5.7,10.9 9,10.9 41.1,43.1 43,41.2 10.8,9.1 11,5.9 3.4,0.3 	"/>
	<path class="st3" d="M96.9,96.9l-0.6,0.6c-1.6,1.6-4.1,1.6-5.6,0L66,72.9c-1.6-1.6-1.6-4.1,0-5.6l0.6-0.6c1.6-1.6,4.1-1.6,5.6,0
		l24.6,24.6C98.4,92.8,98.4,95.4,96.9,96.9z"/>
	<line class="st4" x1="66.6" y1="66.7" x2="57.2" y2="57.2"/>
	<line class="st1" x1="10.7" y1="89.5" x2="63.4" y2="35"/>
	<g id="Layer_3">
	</g>
	<g id="Layer_2_2_">
	</g>
</g>
</svg>
