<?xml version="1.0" encoding="utf-8"?>
<!-- Generator: Adobe Illustrator 25.2.3, SVG Export Plug-In . SVG Version: 6.00 Build 0)  -->
<svg version="1.1" xmlns="http://www.w3.org/2000/svg" xmlns:xlink="http://www.w3.org/1999/xlink" x="0px" y="0px"
	 viewBox="0 0 113.8 100.9" style="enable-background:new 0 0 113.8 100.9;" xml:space="preserve">
<style type="text/css">
	.st0{display:none;}
	.st1{display:inline;}
	.st2{fill:#FFFFFF;}
	.st3{fill:#FFFDFD;}
	.st4{fill:none;stroke:#600E3F;stroke-width:1.7008;stroke-linecap:round;stroke-linejoin:round;}
	.st5{fill:none;stroke:#600E3F;stroke-width:0.8504;stroke-linecap:round;stroke-linejoin:round;}
</style>
<g id="Layer_2" class="st0">
	<g id="Layer_2_1_" class="st1">
		<path class="st2" d="M86.4,62.6H13.6c-7.2,0-13-5.8-13-13v-36c0-7.2,5.8-13,13-13h72.8c7.2,0,13,5.8,13,13v36
			C99.3,56.8,93.5,62.6,86.4,62.6z"/>
		<path class="st2" d="M34.4,62L30,71l-2.2,3.6l0.4,4.8l12.1,13.1l-1.4,7h22.3v-6.8c0,0,10.7-7,11.3-8.2s1.2-13.7,1.2-13.7l-5.8-2.4
			l-2.2-4.8l-5.6-2.2L34.4,62z"/>
	</g>
</g>
<g id="Layer_5">
	<path class="st3" d="M13.2,99.6h87.5c8.9,0,14.4-9.6,9.9-17.3L67.1,7.7c-4.4-7.6-15.4-7.6-19.8,0l-44,74.6
		C-1.3,89.9,4.3,99.6,13.2,99.6z"/>
</g>
<g id="Layer_3_1_">
	<path class="st4" d="M100.9,65.4L67.4,7.3c-4.4-7.6-15.4-7.6-19.9,0L3.3,82.2c-4.5,7.7,1,17.4,9.9,17.4h87.9
		c8.9,0,14.5-9.7,10-17.4l-7.5-12.3"/>
</g>
<g id="Layer_1">
	<g id="Layer_3">
	</g>
	<g id="Layer_2_2_">
	</g>
	<path class="st5" d="M104.4,83.5c3.6,5.4-0.3,9.4-6,9.1h-27"/>
	<path class="st4" d="M65.6,117.4"/>
	<path class="st4" d="M62.9,115.6"/>
</g>
<g id="Layer_4">
	<g>
		<path class="st4" d="M53.6,52.7l-0.7-12.5c-0.2-3.3-0.3-5.7-0.3-7.1c0-2,0.5-3.5,1.5-4.6c1-1.1,2.4-1.6,4-1.6c2,0,3.4,0.7,4.1,2.1
			c0.7,1.4,1,3.4,1,6.1c0,1.6-0.1,3.1-0.2,4.7l-1.5,17.4c-0.2,2.1-0.5,3.7-1.1,4.8c-0.5,1.1-1.4,1.7-2.7,1.7c-1.3,0-2.2-0.5-2.7-1.6
			c-0.5-1.1-0.8-2.7-1.1-4.9 M58,80.4c-1.4,0-2.7-0.5-3.8-1.4c-1.1-0.9-1.6-2.2-1.6-3.9c0-1.5,0.5-2.7,1.5-3.7c1-1,2.3-1.5,3.8-1.5
			c1.5,0,2.8,0.5,3.8,1.5c1,1,1.6,2.3,1.6,3.7c0,1.6-0.5,2.9-1.6,3.9C60.6,80,59.4,80.4,58,80.4z"/>
	</g>
	<path class="st5" d="M40.2,32.6l13.3-22.1c1.8-2.9,6-2.9,7.8,0l2.2,3.6"/>
</g>
</svg>
