<?xml version="1.0" encoding="utf-8"?>
<!-- Generator: Adobe Illustrator 25.3.1, SVG Export Plug-In . SVG Version: 6.00 Build 0)  -->
<svg version="1.1" id="Layer_1" xmlns="http://www.w3.org/2000/svg" xmlns:xlink="http://www.w3.org/1999/xlink" x="0px" y="0px"
	 viewBox="0 0 616.4 424.5" style="enable-background:new 0 0 616.4 424.5;" xml:space="preserve">
<style type="text/css">
	.st0{fill:#EFEFEF;}
</style>
<g>
	<path class="st0" d="M597.3,71.2l-271.8-63c-13.4-3.1-27.4-3.1-40.8,0L19.7,69.6C10.1,71.8,3.3,80.4,3.3,90.2v244
		c0,9.8,6.7,18.3,16.3,20.6l265.1,62.8c13.5,3.2,27.5,3.2,40.9,0.2l271.6-62c9.6-2.2,16.4-10.7,16.4-20.6V91.8
		C613.7,81.9,606.9,73.4,597.3,71.2z M322.7,399.7c-6.1,0-6.1-9.5,0-9.5C328.8,390.2,328.8,399.7,322.7,399.7z M598.9,95l0.5,236.3
		c0,4.2-2.9,7.8-6.9,8.7L304.1,406l-279.8-67c-4-1-6.8-4.5-6.8-8.7V92.4c0-4.2,2.9-7.8,6.9-8.7l264.1-60.4c10.3-2.3,20.9-2.3,31.2,0
		l272.4,63C596.1,87.2,598.9,90.8,598.9,95z"/>
	<path class="st0" d="M254.8,98.8l-6.1,15.7h17.7l-15.7,50.6c-5.1,11.6-13.7,8.6-13.7,8.6c-9.1-10.6-3-17.2-3-17.2h-19.7
		c-5.6,22.3,4.6,30.3,4.6,30.3c23.8,16.2,41,1,41,1c8.1-4,12.1-15.7,12.1-15.7l17.2-57.7h11.1l4.6-15.7H254.8z"/>
	<polygon class="st0" points="320.1,98.8 316,114.5 326.6,114.5 310.9,172.7 299.8,172.7 293.8,193.9 341.3,193.9 346.3,172.7 
		336.2,172.7 339.8,155.5 350.9,148.9 364.1,172.7 356,172.7 350.9,193.9 397.9,193.9 402.5,172.7 387.8,172.7 371.6,137.3 
		409.1,114.5 424.2,114.5 427.8,98.8 379.7,98.8 376.2,114.5 384.9,114.5 341.3,140.3 347.4,114.5 361.5,114.5 366.6,98.8 	"/>
	<path class="st0" d="M519.3,126.2c4-27.8-29.8-27.3-29.8-27.3h-49.1l-2.5,15.7l9.1,0.5l-17.2,57.7h-10.6l-5.6,21.2h50.1l6.6-21.2
		l-13.9-0.3l5.1-15.9l16.9,0c11.1,6.6,5.6,16.2,5.6,16.2h-5.1l-5.8,21.2h38.7l6.6-21.2h-12.1c-1-19.7-6.1-20.2-6.1-20.2
		C518.3,149.9,519.3,126.2,519.3,126.2z M500.3,129.2c0,0-1.8,10.4-16.7,10.6l-16.9-0.3l6.8-24.5l19.5-0.3
		C493,114.8,502.4,115.5,500.3,129.2z"/>
	<path class="st0" d="M87.4,82.7v193.7H56.6v34.9c37.9,0,55.6,15.7,55.6,15.7h12.6c58.2-36.9,109.2,0,109.2,0h14.7
		c59.7-36.4,106.2,0,106.2,0h14.2c59.2-35.4,107.2,0,107.2,0H491c29.3-17.2,55.6-14.7,55.6-14.7V289H194.1l0.5-12.6h-34.4V82.7H87.4
		z"/>
	<path class="st0" d="M256.1,346.6c-4.5,0-9.6-1.2-15-4.7c-4.5,2.9-17.4,9.1-33.5-0.2c-4.6,2.3-19.4,8.4-31.9,0.1
		c-4.5,2.5-18,8.2-34.4,0.2c-1.3-0.6-1.9-2.2-1.2-3.5c0.6-1.3,2.2-1.9,3.5-1.2c17,8.3,30.2-0.4,30.7-0.8c0.9-0.6,2.2-0.6,3.1,0.1
		c5,3.8,11.3,5,18.8,3.5c5.8-1.2,10.1-3.7,10.2-3.7c0.8-0.5,1.9-0.5,2.7,0c17.3,10.8,29.8,0.7,30.3,0.2c0.9-0.8,2.3-0.8,3.3-0.1
		c14.2,10.6,26.6,0.5,27.1,0.1c0.9-0.7,2.1-0.8,3.1-0.2c17.5,11.1,28.1-0.1,28.5-0.6c0.9-1,2.6-1.2,3.6-0.3c13.8,11.5,28.4,0,29-0.5
		c0.9-0.8,2.3-0.8,3.3,0c14.1,10.9,24.4,0.7,24.8,0.2c0.9-0.9,2.3-1,3.3-0.4c18.1,11.7,29.1,1.3,29.6,0.8c0.9-0.9,2.4-1,3.4-0.2
		c13.8,10.6,26.2,1.9,26.7,1.5c0.8-0.6,1.9-0.7,2.7-0.2c19.5,9.9,29.3-1.4,29.7-1.9c0.9-1.1,2.6-1.3,3.7-0.3
		c1.1,0.9,1.3,2.6,0.4,3.7c-0.1,0.1-12.3,14.5-34.8,3.9c-4.1,2.4-16.5,7.9-29.9-1.2c-4.3,3-16.2,9.1-32.6-0.5
		c-5.4,4.4-16.4,8.4-28.7,0c-4.7,3.1-18.6,10.4-32.2,0.7c-5.6,4.7-17.3,9.2-31.9,0.7C269,343.6,263.3,346.6,256.1,346.6z"/>
	<path class="st0" d="M282.4,370.1c-5.1,0-10.9-1.1-17.1-4.1c-1.3-0.6-1.8-2.2-1.2-3.5c0.6-1.3,2.2-1.9,3.5-1.2
		c17.1,8.3,30.6-0.7,30.7-0.8c0.9-0.6,2.2-0.6,3.1,0.1c12.1,9.3,28.8-0.1,28.9-0.2c1.3-0.7,2.9-0.3,3.6,1c0.7,1.3,0.3,2.9-1,3.6
		c-0.2,0.1-5,2.9-11.6,4.2c-8.3,1.7-15.7,0.6-21.7-3.4C296.9,367.3,290.7,370.1,282.4,370.1z"/>
</g>
</svg>
