<?xml version="1.0" encoding="utf-8"?>
<!-- Generator: Adobe Illustrator 25.3.1, SVG Export Plug-In . SVG Version: 6.00 Build 0)  -->
<svg version="1.1" id="Layer_1" xmlns="http://www.w3.org/2000/svg" xmlns:xlink="http://www.w3.org/1999/xlink" x="0px" y="0px"
	 viewBox="0 0 121.3 181.6" style="enable-background:new 0 0 121.3 181.6;" xml:space="preserve">
<style type="text/css">
	.st0{fill:url(#SVGID_1_);stroke:#606161;stroke-miterlimit:10;}
	.st1{fill:url(#SVGID_2_);stroke:#606161;stroke-miterlimit:10;}
	.st2{fill:url(#SVGID_3_);stroke:#606161;stroke-miterlimit:10;}
	.st3{fill:url(#SVGID_4_);stroke:#606161;stroke-miterlimit:10;}
	.st4{fill:url(#SVGID_5_);stroke:#606161;stroke-miterlimit:10;}
	.st5{fill:url(#SVGID_6_);stroke:#606161;stroke-miterlimit:10;}
</style>
<g>
	<linearGradient id="SVGID_1_" gradientUnits="userSpaceOnUse" x1="-0.4354" y1="95.359" x2="97.1776" y2="95.359">
		<stop  offset="0" style="stop-color:#FFFFFF"/>
		<stop  offset="1" style="stop-color:#D9D9D9"/>
	</linearGradient>
	<path class="st0" d="M20.1,100L19,98.3l-1.3-1.7l-3.4-1.2L11,93L10,91.7l-0.2-2.2l0.3-3.9L10,82.5l0.5-1.1l0.2-2.1l-0.1-1.7
		l-0.4-0.9l0.1-3.3l-1.5-1.6l-1.7-1.5l-2.3-0.7l-1.3-0.9l-0.7-2l-0.4-2.1l-0.8-1.5L1,62l0.5-1.5l0.8-1.7L2.9,58L3,56.7l1.1-2.5
		l0.1-1.3l-3-1.9l-1.7,0.7l0.3-3.4l1-1.2l0.2-3.5l1-1.1l0.1-2.1l-0.6-0.5l-0.9-1.3l0.2-4.8l-1.1-0.6l-0.1-2.2l0.6-0.7l0.7-1.6
		l0.1-2.2V25L0,23.9l0.2-2l2.7-1.4l1.1-1.5l3.2-2.7l2.1-0.3l2.5-4.4l1.5-2.1l1.6,1.6l1.6,1.1l1,0.8l3,0.5l1.2,1.5l1.8,1.6l2.9,3
		l0.8,2.3l2.9,2.2l3.8,2.7l3.3,3l1.5,0.7l1.8,2.3l4.5,2.7l1.5,1.6l7.5,0.3l0.8,1.5l1.9,1.6l2,2.7l4,4l1.2,2.2l1,2.2l0.1,2.6
		l-0.3,1.9l1.1,0.1l1.9,0.7l1.6,2l1.1,2.9l0.5,2.5l1.4,1.9l1,3l1.2,1.2l1.9,1.6l0.7,2.5l1.6,1.4v1.9l0.4,1.8c0,0,0.8-0.4,1.9,1
		s1.1,1.4,1.1,1.4l-0.1,3.4l0.3,2l1.4,0.7l3.3,2.5l-0.3,4.4l2.6,2l1,1.4l0.3,1.4l1.1,1.2l1.5,2.5l0.5,2.3l-0.3,2.7L92,111l-1.1,2.2
		l-0.7,1l0.5,1.5l1.2,1.5l1.9,3.3l0.8,1.9l-0.7,7.5l-1.4,2.7l-0.8,3.5l0.7,3.4l1.2,2.6l2.2,4.1l1.2,2.3l-0.8,1.8l-1.8,2l-1.2,1
		l-0.3,3.1l-0.8,2.3l-1.6,1l-6.5,0.1l-1.4,1l-1.9,2l-1,2.7l-0.4,3.3l0.7,2.9l1.1,2.6l-0.3,1.9l0.4,2.2l-1,1.9l-1.8,0.8l-2.2-0.4
		l-0.8-2.2l-1.2-1.2l-1.4-1.2l-0.4-1.4l-1.4-1l-3.4,0.3l-2.2-1.5l-2.6-1.5l-0.7-1.4l-0.4-1.5l-1.9-1.9l-2-1.5l-1.5-0.8l-2,0.3
		l-1.2,0.7l-1.5,0.8H50l-1.4,1.5h-2c0,0-1.8,1.1-1.5-0.8c0.3-1.9,0.3-1.9,0.3-1.9l-1.5-1.5c0,0-0.4,0.4-0.5-1
		c-0.1-1.4-0.1-1.4-0.1-1.4l0.8-1.4l2-3.4l0.8-2.5l1.6-2.9l1.9-2.6l2.7-3.7l1.5-3.8l1.4-2.2l-1.1-3.8l-2-1.5l-2.3-0.7l-3,0.3l-2.3,1
		l-1.9,0.3l-1.5-1.1l-1.2-1.5l-0.5-2l0.1-2.6l0.5-2.6l1.1-1.9l0.5-1.8l0.8-2.6l-0.4-1.9l-1.9-1.8H39l-3.5,0.1l-2.2,0.3l-2.5-0.4
		l-1-1.1l-1.9-0.3l-1.1-1l-1.5-2.2l-0.8-1.6L24,106l0.4-1.6l-0.7-2.2l-1.2-0.8l-1.1-1.2L20.1,100z"/>
	<linearGradient id="SVGID_2_" gradientUnits="userSpaceOnUse" x1="52.3997" y1="15.349" x2="58.9597" y2="15.349">
		<stop  offset="0" style="stop-color:#FFFFFF"/>
		<stop  offset="1" style="stop-color:#D9D9D9"/>
	</linearGradient>
	<polygon class="st1" points="53.3,12.1 53,13.9 52.4,15.9 53.3,17.1 54,17.9 55.2,19 56.5,19.1 57.2,18.2 57.5,16.9 58.2,16.1 
		59,14.8 57.4,13.7 55.7,13.4 55.4,12 54.5,11.6 	"/>
	<linearGradient id="SVGID_3_" gradientUnits="userSpaceOnUse" x1="32.7082" y1="3.5559" x2="38.6549" y2="3.5559">
		<stop  offset="0" style="stop-color:#FFFFFF"/>
		<stop  offset="1" style="stop-color:#D9D9D9"/>
	</linearGradient>
	<path class="st2" d="M34.1,1.4c0.3,1.3-1.5,0.9-1.4,2.1c0,0.3,0.7,1.2,1,1.3c0.2,0.1,0.6,0,0.8,0.1c0.2,0.1,0.4,0.3,0.6,0.4
		c1.1,0.5,2.3,0.5,3.1-0.6c0.2-0.3,0.5-1.1,0.4-1.4c-0.2-0.8-0.8-0.5-1.4-0.7c-0.8-0.2-0.7-0.7-1.3-1C35.4,1.4,34.5,1.8,34.1,1.4z"
		/>
	<linearGradient id="SVGID_4_" gradientUnits="userSpaceOnUse" x1="28.6975" y1="2.0898" x2="32.109" y2="2.0898">
		<stop  offset="0" style="stop-color:#FFFFFF"/>
		<stop  offset="1" style="stop-color:#D9D9D9"/>
	</linearGradient>
	<path class="st3" d="M30.2,0c-0.9,0.7-1.7,1.2-1.5,2.5c0.1,0.9,0.7,1.6,1.5,1.9c0.4-0.8,1.4-1.6,1.7-2.4C32.6,0.4,31.3-0.8,30.2,0z
		"/>
	<linearGradient id="SVGID_5_" gradientUnits="userSpaceOnUse" x1="75.8381" y1="63.3853" x2="79.417" y2="63.3853">
		<stop  offset="0" style="stop-color:#FFFFFF"/>
		<stop  offset="1" style="stop-color:#D9D9D9"/>
	</linearGradient>
	<path class="st4" d="M77.7,60.7c-0.7,0-0.5,0.5-0.8,1c-0.2,0.4-0.6,0.6-0.8,1c-0.6,1-0.1,1.7,0.7,2.3c0.7,0.5,1.4,1.6,2.3,0.6
		c0.7-0.9,0.1-2,0-2.9C78.9,61.3,78.5,61.1,77.7,60.7z"/>
	<linearGradient id="SVGID_6_" gradientUnits="userSpaceOnUse" x1="115.7508" y1="107.1064" x2="120.5133" y2="107.1064">
		<stop  offset="0" style="stop-color:#FFFFFF"/>
		<stop  offset="1" style="stop-color:#D9D9D9"/>
	</linearGradient>
	<path class="st5" d="M118.4,104.7c-0.7,0.3-0.9,0.5-1.4,1c-0.3,0.3-0.8,0.4-1.1,0.8c-0.4,0.6,0,2,0.5,2.5c0.6,0.8,1.8,0.7,2.4,0
		c0.4-0.4,0.5-1,0.8-1.4c0.3-0.4,0.8-0.7,0.9-1.1C120.8,105,119.1,105.1,118.4,104.7z"/>
</g>
</svg>
