<?xml version="1.0" encoding="utf-8"?>
<!-- Generator: Adobe Illustrator 25.3.1, SVG Export Plug-In . SVG Version: 6.00 Build 0)  -->
<svg version="1.1" xmlns="http://www.w3.org/2000/svg" xmlns:xlink="http://www.w3.org/1999/xlink" x="0px" y="0px"
	 viewBox="0 0 41 42.9" style="enable-background:new 0 0 41 42.9;" xml:space="preserve">
<style type="text/css">
	.st0{fill:#FFFFFF;stroke:#484848;stroke-miterlimit:10;}
</style>
<g id="Layer_1">
	<path class="st0" d="M34.1,42.4l-4.5-1.1h-4.4l-2.4-1.8l1.1-1.6l1.3-1.1l0.2-3.8v-6.2l-1.5-1.8l-0.5-2.7v-1.8l-1.8-2.2l-0.7-1.5
		l-0.2-3.1l1.1-2V4.8l-0.2-2.9l1.5-0.3l1.5-0.4l2.1,0.1l2.7-0.8l2-0.3l1.3,0.4l1.4,1.1L36,3l1.3,1.5l1.1,2.1L38.2,9L38,11.1l0.7,2.5
		l-0.6,1.5l1,1.7L39,18l-0.8,1v1.9l-1,1.4c0,0-0.9-0.3-0.4,0.7s0.5,1,0.5,1l0.3,0.6l0.6,1v1.2l-1.2,1.9l-0.9,1.2l0.9,1.3l0.7,0.5
		c0,0,0.2,0.2,0,1.7C37.6,35,37.6,35,37.6,35l0.1,2.6l0.1,2.5l-0.1,1.3l1.1,0.7L34.1,42.4z"/>
	<polygon class="st0" points="2.9,7.1 1.4,8 1,10.9 2.3,12.6 4.1,12.9 4.9,14.2 4.1,16.4 3,18.6 2.5,21.7 1.2,22.9 0.1,24.4 
		0.3,26.4 1,27.7 2.7,28.7 5,28.7 6.5,27.8 9.2,26.4 11,25.8 12.7,27.1 14.7,27.8 15.8,26.6 15.2,21.7 15.8,18.4 17.8,15.7 
		18.8,12.9 18.5,10 14.5,9.7 12.3,7.7 9.9,8.8 8.5,10.4 7,10.6 5.4,9.1 5.2,7.9 	"/>
</g>
<g id="Layer_2">
</g>
</svg>
