<?xml version="1.0" encoding="utf-8"?>
<!-- Generator: Adobe Illustrator 25.4.1, SVG Export Plug-In . SVG Version: 6.00 Build 0)  -->
<svg version="1.1" id="Layer_1" xmlns="http://www.w3.org/2000/svg" xmlns:xlink="http://www.w3.org/1999/xlink" x="0px" y="0px"
	 viewBox="0 0 399.1 358.1" style="enable-background:new 0 0 399.1 358.1;" xml:space="preserve">
<style type="text/css">
	.st0{enable-background:new    ;}
	.st1{fill:#3F3F3F;}
	.st2{fill:#3F3F40;}
	.st3{fill:#404041;}
	.st4{clip-path:url(#SVGID_00000122688921958512072410000008656223027833474223_);enable-background:new    ;}
	.st5{fill:#3F4040;}
	.st6{fill:#404040;}
	.st7{clip-path:url(#SVGID_00000118389191863394413720000016758414272061794179_);enable-background:new    ;}
	.st8{fill:#858585;}
	.st9{clip-path:url(#SVGID_00000121272067827000303160000010307620011734713519_);enable-background:new    ;}
	.st10{clip-path:url(#SVGID_00000154407902658241204620000012628646461512733591_);enable-background:new    ;}
	.st11{clip-path:url(#SVGID_00000151524301950743641460000002965873645804544903_);enable-background:new    ;}
	.st12{clip-path:url(#SVGID_00000096032256279714078380000009688121636475055245_);enable-background:new    ;}
	.st13{fill:#808080;}
	.st14{fill:#878787;}
	.st15{fill:#939393;}
	.st16{clip-path:url(#SVGID_00000083780174798999994850000013263201397291439753_);enable-background:new    ;}
	.st17{clip-path:url(#SVGID_00000051359079705609210510000013989519734200122300_);enable-background:new    ;}
	.st18{fill:#8B8B8B;}
	.st19{clip-path:url(#SVGID_00000022559102095137038880000016810675904770801053_);enable-background:new    ;}
	.st20{clip-path:url(#SVGID_00000051372530577399443200000013462981685912924822_);enable-background:new    ;}
	.st21{clip-path:url(#SVGID_00000124141519690424100630000015411809379385351843_);enable-background:new    ;}
	.st22{fill:#8A8A8A;}
	.st23{fill:#8F8F8F;}
	.st24{fill:#949494;}
	.st25{clip-path:url(#SVGID_00000057855921510430068600000016153013773660503977_);enable-background:new    ;}
	.st26{fill:#919191;}
	.st27{fill:#929292;}
	.st28{clip-path:url(#SVGID_00000145756370635181410070000007463370258309363619_);enable-background:new    ;}
	.st29{fill:#868686;}
	.st30{fill:#898989;}
	.st31{fill:#8E8E8E;}
	.st32{clip-path:url(#SVGID_00000176727212452582636380000018331810702390469763_);enable-background:new    ;}
	.st33{clip-path:url(#SVGID_00000175319354634721719610000013314665762695220911_);enable-background:new    ;}
	.st34{clip-path:url(#SVGID_00000103260007024350836630000016119154909696491442_);enable-background:new    ;}
	.st35{fill:#828282;}
	.st36{fill:#909090;}
	.st37{fill:#818181;}
	.st38{fill:#888888;}
	.st39{fill:#838383;}
	.st40{fill:#8C8C8C;}
	.st41{fill:#848484;}
	.st42{clip-path:url(#SVGID_00000034776701019538199720000005032556548851411642_);enable-background:new    ;}
	.st43{clip-path:url(#SVGID_00000036252749488614777940000018443990240285328044_);enable-background:new    ;}
	.st44{clip-path:url(#SVGID_00000018947554749748236070000005260427891826484880_);enable-background:new    ;}
	.st45{clip-path:url(#SVGID_00000157276744854488171610000010138689300884545715_);enable-background:new    ;}
	.st46{clip-path:url(#SVGID_00000097468555190259528870000017839273262569002634_);enable-background:new    ;}
	.st47{clip-path:url(#SVGID_00000101801528768288116080000012694883583494605707_);enable-background:new    ;}
	.st48{clip-path:url(#SVGID_00000113336670205664580480000016421172665471207821_);enable-background:new    ;}
	.st49{clip-path:url(#SVGID_00000130624407407589118960000018371504335066141338_);enable-background:new    ;}
	.st50{clip-path:url(#SVGID_00000056386508642188076650000014681208241524235919_);enable-background:new    ;}
	.st51{fill:#464646;}
	.st52{fill:#E5E5E5;}
	.st53{fill:#249EBA;stroke:#000000;stroke-miterlimit:10;}
	.st54{fill:none;}
	.st55{fill:none;stroke:#000000;stroke-linecap:round;stroke-linejoin:round;stroke-miterlimit:10;}
	.st56{fill:none;stroke:#000000;stroke-linecap:round;stroke-miterlimit:10;}
	.st57{fill:none;stroke:#000000;stroke-miterlimit:10;}
	.st58{fill:none;stroke:#000000;stroke-miterlimit:10;stroke-dasharray:2.7976,2.7976;}
	.st59{fill:none;stroke:#000000;stroke-miterlimit:10;stroke-dasharray:2.9486,2.9486;}
	.st60{fill:none;stroke:#000000;stroke-miterlimit:10;stroke-dasharray:1.7781,1.7781;}
	.st61{fill:none;stroke:#000000;stroke-miterlimit:10;stroke-dasharray:3.1435,3.1435;}
	.st62{fill:none;stroke:#000000;stroke-miterlimit:10;stroke-dasharray:2.9676,2.9676;}
	.st63{fill:none;stroke:#000000;stroke-miterlimit:10;stroke-dasharray:2.9123,2.9123;}
	.st64{fill:none;stroke:#000000;stroke-miterlimit:10;stroke-dasharray:1.804,1.804;}
	.st65{fill:none;stroke:#000000;stroke-miterlimit:10;stroke-dasharray:3.2246,3.2246;}
	.st66{fill:none;stroke:#000000;stroke-miterlimit:10;stroke-dasharray:2.6546,2.6546;}
	.st67{fill:none;stroke:#000000;stroke-miterlimit:10;stroke-dasharray:3.1518,3.1518;}
	.st68{fill:none;stroke:#000000;stroke-miterlimit:10;stroke-dasharray:2.6637,2.6637;}
	.st69{fill:none;stroke:#000000;stroke-miterlimit:10;stroke-dasharray:2.6635,2.6635;}
	.st70{fill:none;stroke:#000000;stroke-miterlimit:10;stroke-dasharray:3.2202,3.2202;}
	.st71{fill:none;stroke:#000000;stroke-miterlimit:10;stroke-dasharray:1.84,1.84;}
	.st72{fill:none;stroke:#000000;stroke-miterlimit:10;stroke-dasharray:2.7977,2.7977;}
	.st73{fill:none;stroke:#000000;stroke-miterlimit:10;stroke-dasharray:1.9138,1.9138;}
	.st74{fill:none;stroke:#000000;stroke-miterlimit:10;stroke-dasharray:3.228,3.228;}
	.st75{fill:none;stroke:#000000;stroke-miterlimit:10;stroke-dasharray:1.7106,1.7106;}
	.st76{fill:none;stroke:#000000;stroke-miterlimit:10;stroke-dasharray:2.7785,2.7785;}
	.st77{fill:none;stroke:#000000;stroke-miterlimit:10;stroke-dasharray:2.957,2.957;}
	.st78{fill:none;stroke:#000000;stroke-miterlimit:10;stroke-dasharray:1.9954,1.9954;}
	.st79{fill:none;stroke:#000000;stroke-miterlimit:10;stroke-dasharray:2.9388,2.9388;}
	.st80{fill:none;stroke:#000000;stroke-miterlimit:10;stroke-dasharray:3;}
</style>
<g>
	<g>
		<g class="st0">
			<g>
				<polygon class="st1" points="63.2,5.1 63.2,13.7 59.6,11.7 59.6,3 				"/>
			</g>
			<g>
				<polygon class="st2" points="59.6,3 59.6,11.7 55.8,14.7 55.8,6 				"/>
			</g>
			<g>
				<polygon class="st1" points="67.8,7.6 67.8,16.3 63.2,13.7 63.2,5.1 				"/>
			</g>
			<g>
				<polygon class="st1" points="70.2,11.2 70.2,19.9 67.8,16.3 67.8,7.6 				"/>
			</g>
			<g>
				<polygon class="st3" points="55.8,6 55.8,14.7 54.9,21.4 54.9,12.7 				"/>
			</g>
			<g>
				<polygon class="st1" points="74,13.6 74,22.3 70.2,19.9 70.2,11.2 				"/>
			</g>
			<g class="st0">
				<g>
					<g>
						<g>
							<g>
								<g>
									<g>
										<defs>
											<path id="SVGID_1_" d="M52.4,24.2v-8.7c0-0.6,1.2-1.8,2.6-2.8v8.7C53.6,22.3,52.4,23.6,52.4,24.2z"/>
										</defs>
										<clipPath id="SVGID_00000098209676700806098200000002357565061859581569_">
											<use xlink:href="#SVGID_1_"  style="overflow:visible;"/>
										</clipPath>
										<g style="clip-path:url(#SVGID_00000098209676700806098200000002357565061859581569_);enable-background:new    ;">
											<path class="st2" d="M54.9,12.7v8.7c-0.9,0.6-1.6,1.3-2.1,1.9v-8.7C53.3,14,54.1,13.3,54.9,12.7"/>
											<path class="st5" d="M52.8,14.6v8.7c-0.2,0.2-0.3,0.4-0.4,0.5v-8.7C52.5,15,52.7,14.8,52.8,14.6"/>
											<path class="st6" d="M52.5,15.1v8.7c0,0.1-0.1,0.2-0.1,0.2v-8.7C52.4,15.3,52.4,15.2,52.5,15.1"/>
											<path class="st3" d="M52.4,15.4v8.7v0.1V15.4C52.4,15.5,52.4,15.4,52.4,15.4"/>
										</g>
									</g>
								</g>
							</g>
						</g>
					</g>
				</g>
			</g>
			<g class="st0">
				<g>
					<g>
						<g>
							<g>
								<g>
									<g>
										<defs>
											<path id="SVGID_00000171720466664219626960000016565127783339539092_" d="M52.4,24.3v-0.1v-8.7v0.1l0,0c0,0.3,0,0.7,0,1
												c0,0.2,0,0.4,0,0.5c0,0.3,0,0.8,0,1.1s0,0.8,0,1.1s0,0.8,0,1.1s0,0.8,0,1.1s0,0.8,0,1.1s0,0.7,0,1
												C52.4,24,52.4,24.2,52.4,24.3L52.4,24.3z"/>
										</defs>
										<clipPath id="SVGID_00000040561401592984266770000015562238861832036997_">
											<use xlink:href="#SVGID_00000171720466664219626960000016565127783339539092_"  style="overflow:visible;"/>
										</clipPath>
										<g style="clip-path:url(#SVGID_00000040561401592984266770000015562238861832036997_);enable-background:new    ;">
											<path class="st8" d="M52.5,16.2v8.7c0-0.3,0-0.5-0.1-0.6v-0.1v-8.7v0.1C52.4,15.8,52.5,16,52.5,16.2"/>
										</g>
									</g>
								</g>
							</g>
						</g>
					</g>
				</g>
			</g>
			<g>
				<polygon class="st1" points="80.2,16.2 80.2,24.9 74,22.3 74,13.6 				"/>
			</g>
			<g class="st0">
				<g>
					<g>
						<g>
							<g>
								<g>
									<g>
										<defs>
											<path id="SVGID_00000072997899778603500610000017622718990341913510_" d="M52.5,24.9c0-0.3,0-0.5-0.1-0.6
												c0-0.3,0-0.7,0-1s0-0.8,0-1.1s0-0.8,0-1.1s0-0.8,0-1.1s0-0.8,0-1.1s0-0.8,0-1.1s0-0.8,0-1.1s0-0.7,0-1
												c0,0.1,0.1,0.4,0.1,0.6C52.5,18.9,52.5,22.3,52.5,24.9z"/>
										</defs>
										<clipPath id="SVGID_00000149350465540167394410000002010118451779874217_">
											<use xlink:href="#SVGID_00000072997899778603500610000017622718990341913510_"  style="overflow:visible;"/>
										</clipPath>
										<g style="clip-path:url(#SVGID_00000149350465540167394410000002010118451779874217_);enable-background:new    ;">
											<path class="st8" d="M52.5,16.2v8.7c0-0.3,0-0.5-0.1-0.6v-0.1v-8.7v0.1C52.4,15.8,52.5,16,52.5,16.2"/>
										</g>
									</g>
								</g>
							</g>
						</g>
					</g>
				</g>
			</g>
			<g class="st0">
				<g>
					<g>
						<g>
							<g>
								<g>
									<g>
										<defs>
											<path id="SVGID_00000062890201366667688360000004292684587998443395_" d="M51.5,16.3V25c0-0.2,0-0.3,0-0.3
												c0-0.1-0.1-0.3-0.1-0.4v-8.7c0,0.1,0,0.3,0.1,0.4C51.5,16,51.5,16.1,51.5,16.3z"/>
										</defs>
										<clipPath id="SVGID_00000072960389511676523250000005036508961113003399_">
											<use xlink:href="#SVGID_00000062890201366667688360000004292684587998443395_"  style="overflow:visible;"/>
										</clipPath>
										<g style="clip-path:url(#SVGID_00000072960389511676523250000005036508961113003399_);enable-background:new    ;">
											<path class="st2" d="M51.5,16.3V25c0-0.2,0-0.3,0-0.3c0-0.1-0.1-0.3-0.1-0.4v-8.7c0,0.1,0,0.3,0.1,0.4
												C51.5,16,51.5,16.1,51.5,16.3"/>
										</g>
									</g>
								</g>
							</g>
						</g>
					</g>
				</g>
			</g>
			<g>
				<polygon class="st1" points="84.5,19.8 84.5,28.5 80.2,24.9 80.2,16.2 				"/>
			</g>
			<g>
				<polygon class="st1" points="86.7,22.9 86.7,31.6 84.5,28.5 84.5,19.8 				"/>
			</g>
			<g class="st0">
				<g>
					<g>
						<g>
							<g>
								<g>
									<g>
										<defs>
											<path id="SVGID_00000055682089560856950020000007267990296116346499_" d="M52.5,16.2v8.7c0,2.1-1.4,7.6-1.8,8.8v-8.6
												C51,23.9,52.5,18.4,52.5,16.2z"/>
										</defs>
										<clipPath id="SVGID_00000042722376400212234020000006757216357729612959_">
											<use xlink:href="#SVGID_00000055682089560856950020000007267990296116346499_"  style="overflow:visible;"/>
										</clipPath>
										<g style="clip-path:url(#SVGID_00000042722376400212234020000006757216357729612959_);enable-background:new    ;">
											<path class="st3" d="M52.5,16.2v8.7c0,1-0.3,2.8-0.7,4.5v-8.7C52.1,19,52.5,17.3,52.5,16.2"/>
											<path class="st6" d="M51.8,20.8v8.7c-0.4,1.9-0.9,3.7-1.1,4.3v-8.7C50.9,24.4,51.3,22.6,51.8,20.8"/>
										</g>
									</g>
								</g>
							</g>
						</g>
					</g>
				</g>
			</g>
			<g>
				<polygon class="st1" points="88.1,28.8 88.1,37.4 86.7,31.6 86.7,22.9 				"/>
			</g>
			<g>
				<polygon class="st1" points="89.4,31.3 89.4,40 88.1,37.4 88.1,28.8 				"/>
			</g>
			<g>
				<polygon class="st6" points="50.7,25.1 50.7,33.8 49,41.3 49,32.6 				"/>
			</g>
			<g>
				<polygon class="st1" points="95.5,32.9 95.5,41.6 89.4,40 89.4,31.3 				"/>
			</g>
			<g>
				<polygon class="st1" points="98.9,37.4 98.9,46 95.5,41.6 95.5,32.9 				"/>
			</g>
			<g>
				<polygon class="st3" points="49,32.6 49,41.3 48.1,48.1 48.1,39.4 				"/>
			</g>
			<g>
				<polygon class="st1" points="267.4,45.1 267.4,53.7 265.4,53.6 265.4,44.9 				"/>
			</g>
			<g>
				<polygon class="st5" points="48.1,39.4 48.1,48.1 44.3,54.7 44.3,46 				"/>
			</g>
			<g>
				<polygon class="st1" points="267.8,46.4 267.8,55.1 267.4,53.7 267.4,45.1 				"/>
			</g>
			<g>
				<polygon class="st2" points="265.4,44.9 265.4,53.6 263,55.2 263,46.5 				"/>
			</g>
			<g>
				<polygon class="st1" points="263,46.5 263,55.2 260.4,55.5 260.4,46.8 				"/>
			</g>
			<g>
				<polygon class="st1" points="270,47.5 270,56.1 267.8,55.1 267.8,46.4 				"/>
			</g>
			<g>
				<polygon class="st1" points="271.3,48 271.3,56.7 270,56.1 270,47.5 				"/>
			</g>
			<g>
				<polygon class="st1" points="112.5,50.6 112.5,59.3 98.9,46 98.9,37.4 				"/>
			</g>
			<g>
				<polygon class="st1" points="273.4,50.7 273.4,59.4 271.3,56.7 271.3,48 				"/>
			</g>
			<g>
				<polygon class="st1" points="277.4,52.2 277.4,60.9 273.4,59.4 273.4,50.7 				"/>
			</g>
			<g class="st0">
				<g>
					<g>
						<g>
							<g>
								<g>
									<g>
										<defs>
											<path id="SVGID_00000120522364560805204250000007817323174513030022_" d="M279.7,53.2v8.7c-1.1-0.8-1.9-1-2.3-1v-8.7
												C277.8,52.2,278.6,52.4,279.7,53.2z"/>
										</defs>
										<clipPath id="SVGID_00000022550897403971732500000006609543676154642054_">
											<use xlink:href="#SVGID_00000120522364560805204250000007817323174513030022_"  style="overflow:visible;"/>
										</clipPath>
										<g style="clip-path:url(#SVGID_00000022550897403971732500000006609543676154642054_);enable-background:new    ;">
											<path class="st2" d="M279.7,53.2v8.7c-1.1-0.8-1.9-1-2.3-1v-8.7C277.8,52.2,278.6,52.4,279.7,53.2"/>
										</g>
									</g>
								</g>
							</g>
						</g>
					</g>
				</g>
			</g>
			<g>
				<polygon class="st3" points="260.4,46.8 260.4,55.5 259.7,62.3 259.7,53.6 				"/>
			</g>
			<g>
				<polygon class="st1" points="122.6,55.2 122.6,63.9 112.5,59.3 112.5,50.6 				"/>
			</g>
			<g>
				<polygon class="st1" points="282.4,55.2 282.4,63.9 279.7,61.9 279.7,53.2 				"/>
			</g>
			<g>
				<polygon class="st1" points="288.2,56 288.2,64.7 282.4,63.9 282.4,55.2 				"/>
			</g>
			<g>
				<polygon class="st2" points="259.7,53.6 259.7,62.3 257,65.7 257,57 				"/>
			</g>
			<g>
				<polygon class="st6" points="44.3,46 44.3,54.7 41.7,66 41.7,57.3 				"/>
			</g>
			<g>
				<polygon class="st1" points="127.9,57.7 127.9,66.4 122.6,63.9 122.6,55.2 				"/>
			</g>
			<g>
				<polygon class="st1" points="291.8,58.5 291.8,67.2 288.2,64.7 288.2,56 				"/>
			</g>
			<g>
				<polygon class="st5" points="41.7,57.3 41.7,66 39.1,70.7 39.1,62 				"/>
			</g>
			<g>
				<polygon class="st2" points="39.1,62 39.1,70.7 35.5,73.9 35.5,65.2 				"/>
			</g>
			<g>
				<polygon class="st1" points="297.3,66.2 297.3,74.9 291.8,67.2 291.8,58.5 				"/>
			</g>
			<g>
				<polygon class="st13" points="257.8,71.7 257.8,80.4 257,65.7 257,57 				"/>
			</g>
			<g>
				<polygon class="st1" points="256.8,71.8 256.8,80.5 255.9,65.4 255.9,56.7 				"/>
			</g>
			<g>
				<polygon class="st1" points="142.6,72.7 142.6,81.3 127.9,66.4 127.9,57.7 				"/>
			</g>
			<g>
				<polygon class="st1" points="229.7,74.6 229.7,83.2 213.6,83.1 213.6,74.4 				"/>
			</g>
			<g>
				<polygon class="st1" points="145.2,75.2 145.2,83.9 142.6,81.3 142.6,72.7 				"/>
			</g>
			<g>
				<polygon class="st1" points="173.7,75 173.7,83.7 145.2,83.9 145.2,75.2 				"/>
			</g>
			<g>
				<polygon class="st13" points="259.6,76.1 259.6,84.8 257.8,80.4 257.8,71.7 				"/>
			</g>
			<g>
				<polygon class="st1" points="258.6,76.3 258.6,85 256.8,80.5 256.8,71.8 				"/>
			</g>
			<g>
				<polygon class="st1" points="178.2,77.1 178.2,85.8 173.7,83.7 173.7,75 				"/>
			</g>
			<g>
				<polygon class="st1" points="297.8,77.1 297.8,85.8 297.3,74.9 297.3,66.2 				"/>
			</g>
			<g>
				<polygon class="st1" points="213.6,74.4 213.6,83.1 189.9,86.1 189.9,77.5 				"/>
			</g>
			<g>
				<polygon class="st1" points="189.9,77.5 189.9,86.1 178.2,85.8 178.2,77.1 				"/>
			</g>
			<g>
				<polygon class="st1" points="234.9,79.8 234.9,88.4 229.7,83.2 229.7,74.6 				"/>
			</g>
			<g>
				<polygon class="st13" points="38.8,79.8 38.8,88.5 35.5,82.8 35.5,74.1 				"/>
			</g>
			<g>
				<polygon class="st14" points="297.8,77.1 297.8,85.8 295.2,89 295.2,80.3 				"/>
			</g>
			<g>
				<polygon class="st1" points="38,80.4 38,89.1 34.5,83 34.5,74.3 				"/>
			</g>
			<g>
				<polygon class="st2" points="298.8,77.5 298.8,86.1 296.2,89.4 296.2,80.7 				"/>
			</g>
			<g>
				<polygon class="st13" points="41.8,83.2 41.8,91.9 38.8,88.5 38.8,79.8 				"/>
			</g>
			<g>
				<polygon class="st1" points="40.8,83.6 40.8,92.3 38,89.1 38,80.4 				"/>
			</g>
			<g>
				<polygon class="st1" points="259.5,83.9 259.5,92.6 258.6,85 258.6,76.3 				"/>
			</g>
			<g>
				<polygon class="st13" points="260.6,84.2 260.6,92.9 259.6,84.8 259.6,76.1 				"/>
			</g>
			<g>
				<polygon class="st1" points="241.5,85.5 241.5,94.2 234.9,88.4 234.9,79.8 				"/>
			</g>
			<g>
				<polygon class="st1" points="246,85.7 246,94.4 241.5,94.2 241.5,85.5 				"/>
			</g>
			<g>
				<polygon class="st1" points="41,87.8 41,96.5 40.8,92.3 40.8,83.6 				"/>
			</g>
			<g>
				<polygon class="st13" points="42,88.1 42,96.7 41.8,91.9 41.8,83.2 				"/>
			</g>
			<g>
				<polygon class="st1" points="250.5,89.5 250.5,98.2 246,94.4 246,85.7 				"/>
			</g>
			<g>
				<polygon class="st1" points="255,89.9 255,98.6 250.5,98.2 250.5,89.5 				"/>
			</g>
			<g>
				<polygon class="st2" points="260.6,84.2 260.6,92.9 255,98.6 255,89.9 				"/>
			</g>
			<g>
				<polygon class="st3" points="296.2,80.7 296.2,89.4 295.7,101.2 295.7,92.5 				"/>
			</g>
			<g>
				<polygon class="st15" points="295.2,80.3 295.2,89 294.7,101.3 294.7,92.6 				"/>
			</g>
			<g>
				<polygon class="st5" points="42,88.1 42,96.7 38.9,101.5 38.9,92.8 				"/>
			</g>
			<g>
				<polygon class="st1" points="38.9,92.8 38.9,101.5 33.5,102.2 33.5,93.5 				"/>
			</g>
			<g>
				<polygon class="st2" points="33.5,93.5 33.5,102.2 30.1,104.5 30.1,95.8 				"/>
			</g>
			<g>
				<polygon class="st1" points="30.1,95.8 30.1,104.5 24.3,104.4 24.3,95.7 				"/>
			</g>
			<g>
				<polygon class="st1" points="296.8,96.5 296.8,105.2 294.7,101.4 294.7,92.7 				"/>
			</g>
			<g>
				<polygon class="st1" points="24.3,95.7 24.3,104.4 20.9,105.3 20.9,96.6 				"/>
			</g>
			<g>
				<polygon class="st5" points="20.9,96.6 20.9,105.3 19.3,107.4 19.3,98.7 				"/>
			</g>
			<g>
				<polygon class="st1" points="301.1,99.1 301.1,107.8 296.8,105.2 296.8,96.5 				"/>
			</g>
			<g>
				<polygon class="st1" points="304.5,101.6 304.5,110.3 301.1,107.8 301.1,99.1 				"/>
			</g>
			<g>
				<polygon class="st3" points="19.3,98.7 19.3,107.4 19.2,110.9 19.2,102.2 				"/>
			</g>
			<g>
				<polygon class="st13" points="19.4,106.3 19.4,115 19.2,110.9 19.2,102.2 				"/>
			</g>
			<g>
				<polygon class="st1" points="18.4,106.4 18.4,115.1 18.2,110.9 18.2,102.2 				"/>
			</g>
			<g>
				<polygon class="st1" points="309.6,107.1 309.6,115.7 304.5,110.3 304.5,101.6 				"/>
			</g>
			<g>
				<polygon class="st1" points="19.2,109.5 19.2,118.2 18.4,115.1 18.4,106.4 				"/>
			</g>
			<g>
				<polygon class="st13" points="20.3,109.7 20.3,118.4 19.4,115 19.4,106.3 				"/>
			</g>
			<g class="st0">
				<g>
					<g>
						<g>
							<g>
								<g>
									<g>
										<defs>
											<path id="SVGID_00000173134317981038539670000015028930857005289607_" d="M312.1,111v8.7c-1.7-3.5-2.5-3.9-2.5-3.9v-8.7
												C309.6,107.1,310.4,107.5,312.1,111z"/>
										</defs>
										<clipPath id="SVGID_00000065775547171317200160000006652457000718805144_">
											<use xlink:href="#SVGID_00000173134317981038539670000015028930857005289607_"  style="overflow:visible;"/>
										</clipPath>
										<g style="clip-path:url(#SVGID_00000065775547171317200160000006652457000718805144_);enable-background:new    ;">
											<path class="st2" d="M312.1,111v8.7c-1.7-3.5-2.5-3.9-2.5-3.9v-8.7C309.6,107.1,310.4,107.5,312.1,111"/>
										</g>
									</g>
								</g>
							</g>
						</g>
					</g>
				</g>
			</g>
			<g>
				<polygon class="st5" points="20.3,109.7 20.3,118.4 18.3,121.3 18.3,112.6 				"/>
			</g>
			<g>
				<polygon class="st2" points="18.3,112.6 18.3,121.3 16.6,122.4 16.6,113.7 				"/>
			</g>
			<g>
				<polygon class="st1" points="314.1,115.1 314.1,123.8 312.1,119.7 312.1,111 				"/>
			</g>
			<g>
				<polygon class="st13" points="16.7,121.5 16.7,130.2 16.6,122.4 16.6,113.7 				"/>
			</g>
			<g>
				<polygon class="st1" points="15.7,122 15.7,130.7 15.6,121.9 15.6,113.2 				"/>
			</g>
			<g>
				<polygon class="st1" points="319.7,122.4 319.7,131.1 314.1,123.8 314.1,115.1 				"/>
			</g>
			<g>
				<polygon class="st13" points="20.7,125 20.7,133.6 16.7,130.2 16.7,121.5 				"/>
			</g>
			<g>
				<polygon class="st1" points="19.2,125 19.2,133.7 15.7,130.7 15.7,122 				"/>
			</g>
			<g>
				<polygon class="st2" points="20.7,125 20.7,133.6 18,136.4 18,127.7 				"/>
			</g>
			<g>
				<polygon class="st1" points="325.2,129.1 325.2,137.8 319.7,131.1 319.7,122.4 				"/>
			</g>
			<g>
				<polygon class="st1" points="328.5,129.8 328.5,138.5 325.2,137.8 325.2,129.1 				"/>
			</g>
			<g>
				<polygon class="st1" points="330.9,129.8 330.9,138.5 328.5,138.5 328.5,129.8 				"/>
			</g>
			<g>
				<polygon class="st2" points="18,127.7 18,136.4 7.6,143.2 7.6,134.5 				"/>
			</g>
			<g>
				<polygon class="st15" points="330.9,129.8 330.9,138.5 330.7,143.2 330.7,134.5 				"/>
			</g>
			<g>
				<polygon class="st3" points="331.9,128.8 331.9,137.5 331.7,143.5 331.7,134.8 				"/>
			</g>
			<g class="st0">
				<g>
					<g>
						<g>
							<g>
								<g>
									<g>
										<defs>
											<path id="SVGID_00000051367701564817128560000001391813676124253605_" d="M328.1,145.1
												C328.1,145.1,328.1,145,328.1,145.1C328.1,145,328.1,145,328.1,145.1c0-0.1,0-0.1,0-0.1l0,0l0,0l0,0l0,0l0,0
												c0-0.3,0-0.7,0-1s0-0.7,0-1s0-0.8,0-1.1s0-0.8,0-1.1s0-0.8,0-1.1s0-0.8,0-1.1s0-0.7,0-1s0-0.7,0-1h0.1v8.7
												C328.1,145,328.1,145.1,328.1,145.1z"/>
										</defs>
										<clipPath id="SVGID_00000165920922429222180030000010071211632178723502_">
											<use xlink:href="#SVGID_00000051367701564817128560000001391813676124253605_"  style="overflow:visible;"/>
										</clipPath>
										<g style="clip-path:url(#SVGID_00000165920922429222180030000010071211632178723502_);enable-background:new    ;">
											<path class="st8" d="M328.2,136.4v8.7c-0.5,0.1-1,0.4-1.3,0.8v-8.7C327.2,136.7,327.6,136.5,328.2,136.4"/>
										</g>
									</g>
								</g>
							</g>
						</g>
					</g>
				</g>
			</g>
			<g>
				<polygon class="st18" points="330.7,134.5 330.7,143.2 329.5,145.6 329.5,136.9 				"/>
			</g>
			<g class="st0">
				<g>
					<g>
						<g>
							<g>
								<g>
									<g>
										<defs>
											<path id="SVGID_00000116950791776577177970000010580604179640041886_" d="M329.5,136.9v8.7c-0.3-0.3-0.8-0.5-1.3-0.5
												v-8.7C328.7,136.4,329.1,136.6,329.5,136.9z"/>
										</defs>
										<clipPath id="SVGID_00000037685815421137829780000017680911659458805174_">
											<use xlink:href="#SVGID_00000116950791776577177970000010580604179640041886_"  style="overflow:visible;"/>
										</clipPath>
										<g style="clip-path:url(#SVGID_00000037685815421137829780000017680911659458805174_);enable-background:new    ;">
											<path class="st8" d="M329.5,136.9v8.7c-0.3-0.3-0.8-0.5-1.3-0.5v-8.7C328.7,136.4,329.1,136.6,329.5,136.9"/>
										</g>
									</g>
								</g>
							</g>
						</g>
					</g>
				</g>
			</g>
			<g>
				<polygon class="st13" points="7.9,137.5 7.9,146.2 7.6,143.2 7.6,134.5 				"/>
			</g>
			<g>
				<polygon class="st1" points="7,138.2 7,146.9 6.5,142.7 6.5,134 				"/>
			</g>
			<g>
				<polygon class="st6" points="331.7,134.8 331.7,143.5 329.6,147.3 329.6,138.6 				"/>
			</g>
			<g class="st0">
				<g>
					<g>
						<g>
							<g>
								<g>
									<g>
										<defs>
											<path id="SVGID_00000138563509116209051430000011221062684383928737_" d="M329.6,138.6v8.7c-0.6-0.8-1.1-1.3-1.5-1.3
												v-8.7C328.6,137.3,329,137.8,329.6,138.6z"/>
										</defs>
										<clipPath id="SVGID_00000183945039473921176630000008161650371390712471_">
											<use xlink:href="#SVGID_00000138563509116209051430000011221062684383928737_"  style="overflow:visible;"/>
										</clipPath>
										<g style="clip-path:url(#SVGID_00000183945039473921176630000008161650371390712471_);enable-background:new    ;">
											<path class="st2" d="M329.6,138.6v8.7c-0.6-0.8-1.1-1.3-1.5-1.3v-8.7C328.6,137.3,329,137.8,329.6,138.6"/>
										</g>
									</g>
								</g>
							</g>
						</g>
					</g>
				</g>
			</g>
			<g>
				<polygon class="st13" points="11.2,139 11.2,147.7 7.9,146.2 7.9,137.5 				"/>
			</g>
			<g>
				<polygon class="st1" points="10.7,139.9 10.7,148.6 7,146.9 7,138.2 				"/>
			</g>
			<g class="st0">
				<g>
					<g>
						<g>
							<g>
								<g>
									<g>
										<defs>
											<path id="SVGID_00000080891389362966869920000012629765073579950002_" d="M328.1,145.1c-1.2,0.3-1.9,1.5-2.3,3.7v-8.7
												c0.4-2.2,1-3.3,2.3-3.7c0,0.3,0,0.7,0,1s0,0.7,0,1s0,0.8,0,1.1s0,0.8,0,1.1s0,0.8,0,1.1s0,0.8,0,1.1s0,0.7,0,1s0,0.7,0,1
												l0,0l0,0l0,0l0,0l0,0C328.1,144.8,328.1,145,328.1,145.1C328.1,145,328.1,145,328.1,145.1
												C328.1,145,328.1,145.1,328.1,145.1z"/>
										</defs>
										<clipPath id="SVGID_00000002361426740307191520000007182528190973695132_">
											<use xlink:href="#SVGID_00000080891389362966869920000012629765073579950002_"  style="overflow:visible;"/>
										</clipPath>
										<g style="clip-path:url(#SVGID_00000002361426740307191520000007182528190973695132_);enable-background:new    ;">
											<path class="st8" d="M328.2,136.4v8.7c-0.5,0.1-1,0.4-1.3,0.8v-8.7C327.2,136.7,327.6,136.5,328.2,136.4"/>
											<path class="st22" d="M326.8,137.2v8.7c-0.2,0.2-0.3,0.4-0.4,0.7v-8.7C326.5,137.6,326.7,137.4,326.8,137.2"/>
											<path class="st23" d="M326.4,137.9v8.7c-0.2,0.4-0.4,1-0.5,1.6v-8.7C326.1,138.9,326.2,138.3,326.4,137.9"/>
											<path class="st24" d="M325.9,139.5v8.7c0,0.2-0.1,0.4-0.1,0.6v-8.7C325.8,139.8,325.9,139.6,325.9,139.5"/>
										</g>
									</g>
								</g>
							</g>
						</g>
					</g>
				</g>
			</g>
			<g class="st0">
				<g>
					<g>
						<g>
							<g>
								<g>
									<g>
										<defs>
											<path id="SVGID_00000005983933019642836120000006132300635839811751_" d="M328.2,137.3v8.7c-0.3,0.1-1,0.4-1.4,2.9v-8.7
												C327.2,137.7,327.9,137.4,328.2,137.3z"/>
										</defs>
										<clipPath id="SVGID_00000106840630477247581420000009806833634822668178_">
											<use xlink:href="#SVGID_00000005983933019642836120000006132300635839811751_"  style="overflow:visible;"/>
										</clipPath>
										<g style="clip-path:url(#SVGID_00000106840630477247581420000009806833634822668178_);enable-background:new    ;">
											<path class="st2" d="M328.2,137.3v8.7c-0.1,0-0.3,0.1-0.5,0.4v-8.7C327.9,137.4,328.1,137.4,328.2,137.3"/>
											<path class="st5" d="M327.7,137.7v8.7c-0.1,0.1-0.2,0.3-0.3,0.5v-8.7C327.5,138,327.6,137.8,327.7,137.7"/>
											<path class="st6" d="M327.4,138.2v8.7c-0.2,0.3-0.3,0.8-0.5,1.4v-8.7C327,139,327.2,138.6,327.4,138.2"/>
											<path class="st3" d="M326.9,139.7v8.7c0,0.2-0.1,0.3-0.1,0.5v-8.7C326.8,140,326.9,139.8,326.9,139.7"/>
										</g>
									</g>
								</g>
							</g>
						</g>
					</g>
				</g>
			</g>
			<g>
				<polygon class="st13" points="15.1,140.8 15.1,149.5 11.2,147.7 11.2,139 				"/>
			</g>
			<g>
				<polygon class="st13" points="19.4,141.3 19.4,149.9 15.1,149.5 15.1,140.8 				"/>
			</g>
			<g>
				<polygon class="st1" points="14.8,141.8 14.8,150.4 10.7,148.6 10.7,139.9 				"/>
			</g>
			<g>
				<polygon class="st1" points="18.8,142.2 18.8,150.9 14.8,150.4 14.8,141.8 				"/>
			</g>
			<g>
				<polygon class="st13" points="21.6,144.6 21.6,153.3 19.4,149.9 19.4,141.3 				"/>
			</g>
			<g>
				<polygon class="st1" points="20.4,144.7 20.4,153.4 18.8,150.9 18.8,142.2 				"/>
			</g>
			<g>
				<polygon class="st3" points="326.8,140.2 326.8,148.9 325.8,154.2 325.8,145.5 				"/>
			</g>
			<g>
				<polygon class="st26" points="325.8,140 325.8,148.7 324.8,154.4 324.8,145.7 				"/>
			</g>
			<g>
				<polygon class="st1" points="326.1,148.1 326.1,156.7 324.8,154.4 324.8,145.7 				"/>
			</g>
			<g>
				<polygon class="st6" points="21.6,144.6 21.6,153.3 19.8,157 19.8,148.3 				"/>
			</g>
			<g>
				<polygon class="st1" points="328.6,149.3 328.6,158 326.1,156.7 326.1,148.1 				"/>
			</g>
			<g>
				<polygon class="st3" points="19.8,148.3 19.8,157 19.4,161 19.4,152.3 				"/>
			</g>
			<g>
				<polygon class="st3" points="329.6,148.7 329.6,157.4 329.1,163 329.1,154.3 				"/>
			</g>
			<g>
				<polygon class="st27" points="328.6,149.3 328.6,158 328.1,163.3 328.1,154.6 				"/>
			</g>
			<g>
				<polygon class="st2" points="19.4,152.3 19.4,161 16.2,163.5 16.2,154.8 				"/>
			</g>
			<g>
				<polygon class="st2" points="16.2,154.8 16.2,163.5 14.5,165.2 14.5,156.6 				"/>
			</g>
			<g>
				<polygon class="st1" points="330.9,157.7 330.9,166.4 328.1,163.3 328.1,154.6 				"/>
			</g>
			<g>
				<polygon class="st6" points="14.5,156.6 14.5,165.2 13,168.4 13,159.7 				"/>
			</g>
			<g>
				<polygon class="st1" points="333.7,160.5 333.7,169.2 330.9,166.4 330.9,157.7 				"/>
			</g>
			<g>
				<polygon class="st6" points="13,159.7 13,168.4 11.9,170.4 11.9,161.8 				"/>
			</g>
			<g>
				<polygon class="st1" points="337,168 337,176.7 333.7,169.2 333.7,160.5 				"/>
			</g>
			<g>
				<polygon class="st13" points="14,169 14,177.7 11.9,170.4 11.9,161.8 				"/>
			</g>
			<g>
				<polygon class="st1" points="13.1,169.3 13.1,178 10.9,170.3 10.9,161.7 				"/>
			</g>
			<g>
				<polygon class="st1" points="343.1,172.2 343.1,180.9 337,176.7 337,168 				"/>
			</g>
			<g>
				<polygon class="st13" points="15.5,172.3 15.5,181 14,177.7 14,169 				"/>
			</g>
			<g>
				<polygon class="st1" points="14.5,172.7 14.5,181.4 13.1,178 13.1,169.3 				"/>
			</g>
			<g>
				<polygon class="st1" points="345.4,176.8 345.4,185.5 343.1,180.9 343.1,172.2 				"/>
			</g>
			<g>
				<polygon class="st13" points="18.4,179.3 18.4,188 15.5,181 15.5,172.3 				"/>
			</g>
			<g>
				<polygon class="st1" points="17.5,179.8 17.5,188.5 14.5,181.4 14.5,172.7 				"/>
			</g>
			<g>
				<polygon class="st1" points="350.6,183.9 350.6,192.6 345.4,185.5 345.4,176.8 				"/>
			</g>
			<g>
				<polygon class="st1" points="354.6,187.4 354.6,196.1 350.6,192.6 350.6,183.9 				"/>
			</g>
			<g>
				<polygon class="st13" points="25.2,187.7 25.2,196.3 18.4,188 18.4,179.3 				"/>
			</g>
			<g>
				<polygon class="st1" points="24.5,188.3 24.5,197 17.5,188.5 17.5,179.8 				"/>
			</g>
			<g class="st0">
				<g>
					<g>
						<g>
							<g>
								<g>
									<g>
										<defs>
											<path id="SVGID_00000165228992013711852780000008604657911953298050_" d="M357.2,192.3v8.7c-1.8-1.8-2.4-4.2-2.6-4.9
												v-8.7C354.8,188.1,355.4,190.6,357.2,192.3z"/>
										</defs>
										<clipPath id="SVGID_00000062910548126065645680000016273069331839723698_">
											<use xlink:href="#SVGID_00000165228992013711852780000008604657911953298050_"  style="overflow:visible;"/>
										</clipPath>
										<g style="clip-path:url(#SVGID_00000062910548126065645680000016273069331839723698_);enable-background:new    ;">
											<path class="st2" d="M357.2,192.3v8.7c-1.8-1.8-2.4-4.2-2.6-4.9v-8.7C354.8,188.1,355.4,190.6,357.2,192.3"/>
										</g>
									</g>
								</g>
							</g>
						</g>
					</g>
				</g>
			</g>
			<g>
				<polygon class="st13" points="32.2,193.5 32.2,202.1 25.2,196.3 25.2,187.7 				"/>
			</g>
			<g>
				<polygon class="st1" points="31.5,194.1 31.5,202.8 24.5,197 24.5,188.3 				"/>
			</g>
			<g>
				<polygon class="st1" points="359.1,194.2 359.1,202.9 357.2,201 357.2,192.3 				"/>
			</g>
			<g>
				<polygon class="st1" points="361.1,197.4 361.1,206.1 359.1,202.9 359.1,194.2 				"/>
			</g>
			<g>
				<polygon class="st15" points="361.1,197.4 361.1,206.1 361,211.1 361,202.4 				"/>
			</g>
			<g>
				<polygon class="st3" points="362.1,197.2 362.1,205.9 362,211.5 362,202.8 				"/>
			</g>
			<g>
				<polygon class="st13" points="41.2,204.9 41.2,213.6 32.2,202.1 32.2,193.5 				"/>
			</g>
			<g>
				<polygon class="st1" points="40.5,205.5 40.5,214.2 31.5,202.8 31.5,194.1 				"/>
			</g>
			<g>
				<polygon class="st29" points="361,202.4 361,211.1 357.8,214.9 357.8,206.2 				"/>
			</g>
			<g>
				<polygon class="st2" points="362,202.8 362,211.5 358.6,215.5 358.6,206.8 				"/>
			</g>
			<g>
				<polygon class="st30" points="357.8,206.2 357.8,214.9 354.3,220.2 354.3,211.5 				"/>
			</g>
			<g>
				<polygon class="st13" points="69.6,211.9 69.6,220.6 60.8,219.2 60.8,210.5 				"/>
			</g>
			<g>
				<polygon class="st13" points="47.2,212 47.2,220.7 41.2,213.6 41.2,204.9 				"/>
			</g>
			<g>
				<polygon class="st5" points="358.6,206.8 358.6,215.5 355.2,220.7 355.2,212 				"/>
			</g>
			<g>
				<polygon class="st13" points="51.3,212.6 51.3,221.3 47.2,220.7 47.2,212 				"/>
			</g>
			<g>
				<polygon class="st13" points="60.8,210.5 60.8,219.2 51.3,221.3 51.3,212.6 				"/>
			</g>
			<g>
				<polygon class="st1" points="69.1,212.8 69.1,221.4 60.8,220.2 60.8,211.5 				"/>
			</g>
			<g>
				<polygon class="st1" points="46.6,212.9 46.6,221.6 40.5,214.2 40.5,205.5 				"/>
			</g>
			<g>
				<polygon class="st1" points="51.3,213.6 51.3,222.3 46.6,221.6 46.6,212.9 				"/>
			</g>
			<g>
				<polygon class="st1" points="60.8,211.5 60.8,220.2 51.3,222.3 51.3,213.6 				"/>
			</g>
			<g>
				<polygon class="st31" points="354.3,211.5 354.3,220.2 352.8,225.2 352.8,216.5 				"/>
			</g>
			<g>
				<polygon class="st6" points="355.2,212 355.2,220.7 353.8,225.1 353.8,216.5 				"/>
			</g>
			<g>
				<polygon class="st1" points="354,219.7 354,228.4 352.8,225.2 352.8,216.5 				"/>
			</g>
			<g>
				<polygon class="st1" points="357.5,222.1 357.5,230.8 354,228.4 354,219.7 				"/>
			</g>
			<g>
				<polygon class="st13" points="92,229.8 92,238.5 69.6,220.6 69.6,211.9 				"/>
			</g>
			<g>
				<polygon class="st1" points="91.5,230.6 91.5,239.3 69.1,221.4 69.1,212.8 				"/>
			</g>
			<g>
				<polygon class="st1" points="368.9,233.3 368.9,242 357.5,230.8 357.5,222.1 				"/>
			</g>
			<g>
				<polygon class="st13" points="100,234.2 100,242.9 92,238.5 92,229.8 				"/>
			</g>
			<g>
				<polygon class="st13" points="110.8,234.8 110.8,243.5 100,242.9 100,234.2 				"/>
			</g>
			<g>
				<polygon class="st1" points="99.7,235.1 99.7,243.8 91.5,239.3 91.5,230.6 				"/>
			</g>
			<g>
				<polygon class="st1" points="110.3,235.8 110.3,244.5 99.7,243.8 99.7,235.1 				"/>
			</g>
			<g>
				<polygon class="st1" points="369.3,236.1 369.3,244.7 368.9,242 368.9,233.3 				"/>
			</g>
			<g>
				<polygon class="st1" points="372.3,238.8 372.3,247.5 369.3,244.7 369.3,236.1 				"/>
			</g>
			<g>
				<polygon class="st1" points="376.2,241.8 376.2,250.5 372.3,247.5 372.3,238.8 				"/>
			</g>
			<g>
				<polygon class="st13" points="119.9,245 119.9,253.7 110.8,243.5 110.8,234.8 				"/>
			</g>
			<g>
				<polygon class="st1" points="380.1,245.4 380.1,254.1 376.2,250.5 376.2,241.8 				"/>
			</g>
			<g>
				<polygon class="st1" points="119.2,245.7 119.2,254.4 110.3,244.5 110.3,235.8 				"/>
			</g>
			<g class="st0">
				<g>
					<g>
						<g>
							<g>
								<g>
									<g>
										<defs>
											<path id="SVGID_00000062903866042260711940000006286342631340279192_" d="M380.9,247.3v8.7c0-1.3-0.7-1.9-0.8-1.9v-8.7
												C380.2,245.4,380.9,246,380.9,247.3z"/>
										</defs>
										<clipPath id="SVGID_00000037679179321166352290000000467098323988002211_">
											<use xlink:href="#SVGID_00000062903866042260711940000006286342631340279192_"  style="overflow:visible;"/>
										</clipPath>
										<g style="clip-path:url(#SVGID_00000037679179321166352290000000467098323988002211_);enable-background:new    ;">
											<path class="st2" d="M380.9,247.3v8.7c0-1.3-0.7-1.9-0.8-1.9v-8.7C380.2,245.4,380.9,246,380.9,247.3"/>
										</g>
									</g>
								</g>
							</g>
						</g>
					</g>
				</g>
			</g>
			<g class="st0">
				<g>
					<g>
						<g>
							<g>
								<g>
									<g>
										<defs>
											<path id="SVGID_00000178895447412158895210000001415402577802567614_" d="M380.9,256c0,0.6-0.2,1.3-0.6,2.2v-8.7
												c0.4-0.9,0.6-1.6,0.6-2.2C380.9,249.9,380.9,253.3,380.9,256z"/>
										</defs>
										<clipPath id="SVGID_00000129191267173491216090000011931710027849752727_">
											<use xlink:href="#SVGID_00000178895447412158895210000001415402577802567614_"  style="overflow:visible;"/>
										</clipPath>
										<g style="clip-path:url(#SVGID_00000129191267173491216090000011931710027849752727_);enable-background:new    ;">
											<path class="st24" d="M380.9,247.3v8.7c0,0.2,0,0.5-0.1,0.8v-8.7C380.9,247.8,380.9,247.5,380.9,247.3"/>
											<path class="st23" d="M380.8,248.1v8.7c-0.1,0.3-0.2,0.7-0.4,1.1v-8.7C380.6,248.8,380.7,248.4,380.8,248.1"/>
											<path class="st22" d="M380.4,249.2v8.7c0,0.1-0.1,0.1-0.1,0.2v-8.7C380.4,249.4,380.4,249.3,380.4,249.2"/>
										</g>
									</g>
								</g>
							</g>
						</g>
					</g>
				</g>
			</g>
			<g class="st0">
				<g>
					<g>
						<g>
							<g>
								<g>
									<g>
										<defs>
											<path id="SVGID_00000044887872892204992140000015274000413700484248_" d="M381.9,247.3v8.7c0,0.7-0.2,1.6-0.7,2.6v-8.7
												C381.7,248.9,381.9,248,381.9,247.3z"/>
										</defs>
										<clipPath id="SVGID_00000028283941944597603350000008845393299500316557_">
											<use xlink:href="#SVGID_00000044887872892204992140000015274000413700484248_"  style="overflow:visible;"/>
										</clipPath>
										<g style="clip-path:url(#SVGID_00000028283941944597603350000008845393299500316557_);enable-background:new    ;">
											<path class="st3" d="M381.9,247.3v8.7c0,0.3,0,0.6-0.1,1v-8.7C381.9,247.9,381.9,247.6,381.9,247.3"/>
											<path class="st6" d="M381.8,248.3v8.7c-0.1,0.4-0.2,0.9-0.5,1.4v-8.7C381.6,249.2,381.7,248.7,381.8,248.3"/>
											<path class="st5" d="M381.3,249.6v8.7c0,0.1-0.1,0.2-0.1,0.2v-8.7C381.3,249.8,381.3,249.7,381.3,249.6"/>
										</g>
									</g>
								</g>
							</g>
						</g>
					</g>
				</g>
			</g>
			<g>
				<polygon class="st13" points="126,250 126,258.7 119.9,253.7 119.9,245 				"/>
			</g>
			<g>
				<polygon class="st1" points="125.4,250.8 125.4,259.5 119.2,254.4 119.2,245.7 				"/>
			</g>
			<g>
				<polygon class="st18" points="380.3,249.4 380.3,258.1 378.7,261.3 378.7,252.6 				"/>
			</g>
			<g>
				<polygon class="st13" points="134.1,252.7 134.1,261.3 126,258.7 126,250 				"/>
			</g>
			<g>
				<polygon class="st6" points="381.2,249.9 381.2,258.6 379.6,261.8 379.6,253.1 				"/>
			</g>
			<g>
				<polygon class="st1" points="133.5,253.5 133.5,262.2 125.4,259.5 125.4,250.8 				"/>
			</g>
			<g>
				<polygon class="st22" points="378.7,252.6 378.7,261.3 377,264.2 377,255.5 				"/>
			</g>
			<g>
				<polygon class="st5" points="379.6,253.1 379.6,261.8 378,264.5 378,255.8 				"/>
			</g>
			<g>
				<polygon class="st3" points="378,255.8 378,264.5 377.9,267 377.9,258.3 				"/>
			</g>
			<g>
				<polygon class="st15" points="377,255.5 377,264.2 376.8,267.4 376.8,258.8 				"/>
			</g>
			<g>
				<polygon class="st1" points="379.5,260.9 379.5,269.6 376.8,267.4 376.8,258.8 				"/>
			</g>
			<g>
				<polygon class="st13" points="149.4,264.8 149.4,273.5 134.1,261.3 134.1,252.7 				"/>
			</g>
			<g>
				<polygon class="st1" points="148.6,265.5 148.6,274.2 133.5,262.2 133.5,253.5 				"/>
			</g>
			<g>
				<polygon class="st1" points="380.1,266.9 380.1,275.6 379.5,269.6 379.5,260.9 				"/>
			</g>
			<g>
				<polygon class="st13" points="152.1,268.6 152.1,277.2 149.4,273.5 149.4,264.8 				"/>
			</g>
			<g>
				<polygon class="st1" points="151.5,269.4 151.5,278.1 148.6,274.2 148.6,265.5 				"/>
			</g>
			<g>
				<polygon class="st1" points="382.8,270.6 382.8,279.3 380.1,275.6 380.1,266.9 				"/>
			</g>
			<g>
				<polygon class="st13" points="169,271.9 169,280.6 152.1,277.2 152.1,268.6 				"/>
			</g>
			<g>
				<polygon class="st1" points="168.4,272.7 168.4,281.4 151.5,278.1 151.5,269.4 				"/>
			</g>
			<g>
				<polygon class="st1" points="387.3,273.2 387.3,281.8 382.8,279.3 382.8,270.6 				"/>
			</g>
			<g>
				<polygon class="st26" points="320.1,264.2 320.1,272.9 318.3,283.7 318.3,275 				"/>
			</g>
			<g>
				<polygon class="st13" points="342.6,288.5 342.6,297.2 320.1,272.9 320.1,264.2 				"/>
			</g>
			<g>
				<polygon class="st3" points="320.7,266.4 320.7,275.1 319.3,283.6 319.3,274.9 				"/>
			</g>
			<g>
				<polygon class="st1" points="320.6,280 320.6,288.7 318.3,283.7 318.3,275 				"/>
			</g>
			<g>
				<polygon class="st13" points="361.4,286.8 361.4,295.5 357.4,292.4 357.4,283.7 				"/>
			</g>
			<g>
				<polygon class="st35" points="357.4,283.7 357.4,292.4 351.4,296.6 351.4,287.9 				"/>
			</g>
			<g>
				<polygon class="st1" points="360.3,287.2 360.3,295.9 357.4,293.6 357.4,284.9 				"/>
			</g>
			<g>
				<polygon class="st2" points="357.4,284.9 357.4,293.6 351.9,297.4 351.9,288.7 				"/>
			</g>
			<g>
				<polygon class="st1" points="342.1,289.4 342.1,298.1 320.7,275.1 320.7,266.4 				"/>
			</g>
			<g>
				<polygon class="st13" points="347.4,289.7 347.4,298.4 342.6,297.2 342.6,288.5 				"/>
			</g>
			<g>
				<polygon class="st13" points="351.4,287.9 351.4,296.6 347.4,298.4 347.4,289.7 				"/>
			</g>
			<g>
				<polygon class="st1" points="331.5,289.8 331.5,298.5 320.6,288.7 320.6,280 				"/>
			</g>
			<g>
				<polygon class="st1" points="347.5,290.8 347.5,299.5 342.1,298.1 342.1,289.4 				"/>
			</g>
			<g>
				<polygon class="st1" points="351.9,288.7 351.9,297.4 347.5,299.5 347.5,290.8 				"/>
			</g>
			<g>
				<polygon class="st13" points="189.6,292.8 189.6,301.4 169,280.6 169,271.9 				"/>
			</g>
			<g>
				<polygon class="st3" points="361.4,286.8 361.4,295.5 360.1,301.8 360.1,293.1 				"/>
			</g>
			<g>
				<polygon class="st1" points="188.8,293.3 188.8,302 168.4,281.4 168.4,272.7 				"/>
			</g>
			<g>
				<polygon class="st1" points="360.1,293.1 360.1,301.8 353.7,302.7 353.7,294 				"/>
			</g>
			<g>
				<polygon class="st36" points="331.5,289.8 331.5,298.5 330.6,302.8 330.6,294.2 				"/>
			</g>
			<g>
				<polygon class="st1" points="388,294.7 388,303.3 387.3,281.8 387.3,273.2 				"/>
			</g>
			<g>
				<polygon class="st3" points="332.6,289.4 332.6,298.1 331.5,303.4 331.5,294.7 				"/>
			</g>
			<g>
				<polygon class="st1" points="353.7,294 353.7,302.7 348.6,303.7 348.6,295.1 				"/>
			</g>
			<g>
				<polygon class="st13" points="293.1,296.6 293.1,305.3 289.7,305.2 289.7,296.5 				"/>
			</g>
			<g>
				<polygon class="st35" points="330.6,294.2 330.6,302.8 326.6,305.6 326.6,296.9 				"/>
			</g>
			<g>
				<polygon class="st2" points="331.5,294.7 331.5,303.4 328,305.8 328,297.2 				"/>
			</g>
			<g>
				<rect x="289.8" y="297.5" class="st1" width="3.1" height="8.7"/>
			</g>
			<g>
				<polygon class="st1" points="391.4,298 391.4,306.7 388,303.3 388,294.7 				"/>
			</g>
			<g>
				<polygon class="st13" points="289.7,296.5 289.7,305.2 285.7,306.9 285.7,298.2 				"/>
			</g>
			<g>
				<polygon class="st13" points="297.2,298.5 297.2,307.2 293.1,305.3 293.1,296.6 				"/>
			</g>
			<g>
				<polygon class="st2" points="348.6,295.1 348.6,303.7 345.6,307.2 345.6,298.5 				"/>
			</g>
			<g>
				<polygon class="st1" points="289.8,297.5 289.8,306.2 286.1,307.8 286.1,299.1 				"/>
			</g>
			<g>
				<polygon class="st1" points="296.8,299.4 296.8,308.1 292.8,306.2 292.8,297.5 				"/>
			</g>
			<g>
				<polygon class="st1" points="328.5,299.9 328.5,308.6 326.6,305.6 326.6,296.9 				"/>
			</g>
			<g>
				<polygon class="st13" points="282.8,300.2 282.8,308.9 268.1,308.6 268.1,299.9 				"/>
			</g>
			<g>
				<polygon class="st35" points="285.7,298.2 285.7,306.9 282.8,308.9 282.8,300.2 				"/>
			</g>
			<g>
				<polygon class="st2" points="286.1,299.1 286.1,307.8 283.1,309.9 283.1,301.2 				"/>
			</g>
			<g>
				<polygon class="st1" points="283.1,301.2 283.1,309.9 268.4,309.6 268.4,300.9 				"/>
			</g>
			<g>
				<polygon class="st13" points="303.6,301.9 303.6,310.6 297.2,307.2 297.2,298.5 				"/>
			</g>
			<g>
				<polygon class="st1" points="331,302.2 331,310.9 328.5,308.6 328.5,299.9 				"/>
			</g>
			<g>
				<polygon class="st1" points="303.1,302.7 303.1,311.4 296.8,308.1 296.8,299.4 				"/>
			</g>
			<g>
				<polygon class="st37" points="268.1,299.9 268.1,308.6 262.3,311.8 262.3,303.1 				"/>
			</g>
			<g>
				<polygon class="st3" points="345.6,298.5 345.6,307.2 345.1,312.2 345.1,303.5 				"/>
			</g>
			<g>
				<polygon class="st1" points="268.4,300.9 268.4,309.6 262.9,312.6 262.9,303.9 				"/>
			</g>
			<g>
				<polygon class="st1" points="333,304.1 333,312.8 331,310.9 331,302.2 				"/>
			</g>
			<g>
				<polygon class="st27" points="391.4,298 391.4,306.7 390.9,313.8 390.9,305.1 				"/>
			</g>
			<g>
				<polygon class="st3" points="392.4,297.6 392.4,306.3 391.9,313.8 391.9,305.1 				"/>
			</g>
			<g>
				<polygon class="st36" points="333,304.1 333,312.8 332.5,314.7 332.5,306 				"/>
			</g>
			<g>
				<polygon class="st6" points="334,303.8 334,312.5 333.4,315.2 333.4,306.5 				"/>
			</g>
			<g>
				<polygon class="st13" points="310.1,307 310.1,315.6 303.6,310.6 303.6,301.9 				"/>
			</g>
			<g>
				<polygon class="st1" points="309.5,307.8 309.5,316.4 303.1,311.4 303.1,302.7 				"/>
			</g>
			<g>
				<polygon class="st38" points="332.5,306 332.5,314.7 330.9,316.9 330.9,308.2 				"/>
			</g>
			<g>
				<polygon class="st39" points="262.3,303.1 262.3,311.8 255.7,317.3 255.7,308.7 				"/>
			</g>
			<g>
				<polygon class="st5" points="333.4,306.5 333.4,315.2 331.5,317.7 331.5,309 				"/>
			</g>
			<g>
				<polygon class="st2" points="262.9,303.9 262.9,312.6 256.5,317.9 256.5,309.2 				"/>
			</g>
			<g>
				<polygon class="st13" points="330.9,308.2 330.9,316.9 325.2,318.8 325.2,310.1 				"/>
			</g>
			<g>
				<polygon class="st13" points="315.8,310.4 315.8,319.1 310.1,315.6 310.1,307 				"/>
			</g>
			<g>
				<polygon class="st13" points="325.2,310.1 325.2,318.8 315.8,319.1 315.8,310.4 				"/>
			</g>
			<g>
				<polygon class="st3" points="345.1,303.5 345.1,312.2 345,319.2 345,310.6 				"/>
			</g>
			<g>
				<polygon class="st13" points="358.9,311 358.9,319.7 356,318.5 356,309.8 				"/>
			</g>
			<g>
				<polygon class="st1" points="331.5,309 331.5,317.7 325.3,319.7 325.3,311.1 				"/>
			</g>
			<g>
				<polygon class="st1" points="315.5,311.4 315.5,320.1 309.5,316.4 309.5,307.8 				"/>
			</g>
			<g>
				<polygon class="st1" points="325.3,311.1 325.3,319.7 315.5,320.1 315.5,311.4 				"/>
			</g>
			<g>
				<polygon class="st15" points="390.9,305.1 390.9,313.8 390.7,320.4 390.7,311.7 				"/>
			</g>
			<g>
				<polygon class="st1" points="358.1,311.7 358.1,320.4 356.2,319.7 356.2,311 				"/>
			</g>
			<g>
				<polygon class="st3" points="391.9,305.1 391.9,313.8 391.7,320.7 391.7,312 				"/>
			</g>
			<g>
				<polygon class="st40" points="255.7,308.7 255.7,317.3 253.9,321.6 253.9,312.9 				"/>
			</g>
			<g>
				<polygon class="st13" points="201.4,312.9 201.4,321.6 189.6,301.4 189.6,292.8 				"/>
			</g>
			<g>
				<polygon class="st1" points="200.5,313.3 200.5,322 188.8,302 188.8,293.3 				"/>
			</g>
			<g>
				<polygon class="st1" points="344.5,313.4 344.5,322.1 344,319.3 344,310.6 				"/>
			</g>
			<g>
				<polygon class="st6" points="256.5,309.2 256.5,317.9 254.7,322.1 254.7,313.5 				"/>
			</g>
			<g>
				<polygon class="st13" points="346,314 346,322.7 345,319.2 345,310.6 				"/>
			</g>
			<g>
				<polygon class="st41" points="356,309.8 356,318.5 351.4,322.7 351.4,314 				"/>
			</g>
			<g class="st0">
				<g>
					<g>
						<g>
							<g>
								<g>
									<g>
										<defs>
											<path id="SVGID_00000143611373923267771140000008354979040930072970_" d="M346.6,322.9c-0.2-0.1-0.5-0.2-0.6-0.3v-8.7
												c0.2,0.1,0.4,0.2,0.6,0.3c0,0.1,0,0.2,0,0.4c0,0.1,0,0.3,0,0.4s0,0.3,0,0.4s0,0.3,0,0.4s0,0.3,0,0.4s0,0.3,0,0.4
												s0,0.3,0,0.4s0,0.3,0,0.4c0,0.2,0,0.5,0,0.7s0,0.5,0,0.7s0,0.5,0,0.7s0,0.5,0,0.7s0,0.5,0,0.7s0,0.5,0,0.7s0,0.5,0,0.7
												C346.6,322.5,346.6,322.7,346.6,322.9z"/>
										</defs>
										<clipPath id="SVGID_00000121989955906272997900000008349950761052664214_">
											<use xlink:href="#SVGID_00000143611373923267771140000008354979040930072970_"  style="overflow:visible;"/>
										</clipPath>
										<g style="clip-path:url(#SVGID_00000121989955906272997900000008349950761052664214_);enable-background:new    ;">
											<path class="st8" d="M351.4,314v8.7c-0.7,0.2-2.1,0.4-3.3,0.4c-0.8,0-1.6-0.1-2.1-0.4V314c0.5,0.3,1.3,0.4,2.1,0.4
												C349.3,314.4,350.7,314.2,351.4,314"/>
										</g>
									</g>
								</g>
							</g>
						</g>
					</g>
				</g>
			</g>
			<g class="st0">
				<g>
					<g>
						<g>
							<g>
								<g>
									<g>
										<defs>
											<path id="SVGID_00000091726819120707374120000016451389618982183564_" d="M351.4,322.7c-0.7,0.2-2.1,0.4-3.3,0.4
												c0-0.3,0-0.7,0-1s0-0.8,0-1.1s0-0.8,0-1.1s0-0.8,0-1.1s0-0.8,0-1.1s0-0.8,0-1.1s0-0.8,0-1.1s0-0.7,0-1
												c1.2,0,2.6-0.2,3.3-0.4c0,0.3,0,0.7,0,1s0,0.7,0,1.1c0,0.3,0,0.8,0,1.1s0,0.8,0,1.1s0,0.8,0,1.1s0,0.8,0,1.1s0,0.8,0,1.1
												C351.4,321.9,351.4,322.3,351.4,322.7c0-0.3,0-0.7,0-1s0-0.8,0-1.1s0-0.8,0-1.1s0-0.8,0-1.1s0-0.8,0-1.1s0-0.8,0-1.1
												s0-0.7,0-1.1c0-0.3,0-0.7,0-1l0,0C351.4,316.6,351.4,320.1,351.4,322.7z"/>
										</defs>
										<clipPath id="SVGID_00000157283260699963614180000013081441295276500135_">
											<use xlink:href="#SVGID_00000091726819120707374120000016451389618982183564_"  style="overflow:visible;"/>
										</clipPath>
										<g style="clip-path:url(#SVGID_00000157283260699963614180000013081441295276500135_);enable-background:new    ;">
											<path class="st8" d="M351.4,314v8.7c-0.7,0.2-2.1,0.4-3.3,0.4c-0.8,0-1.6-0.1-2.1-0.4V314c0.5,0.3,1.3,0.4,2.1,0.4
												C349.3,314.4,350.7,314.2,351.4,314"/>
										</g>
									</g>
								</g>
							</g>
						</g>
					</g>
				</g>
			</g>
			<g class="st0">
				<g>
					<g>
						<g>
							<g>
								<g>
									<g>
										<defs>
											<path id="SVGID_00000172406243031480247990000014424713303605679271_" d="M346.6,322.9c0-0.2,0-0.5,0-0.7s0-0.5,0-0.7
												s0-0.5,0-0.7s0-0.5,0-0.7s0-0.5,0-0.7s0-0.5,0-0.7s0-0.5,0-0.7s0-0.5,0-0.7c0-0.1,0-0.3,0-0.4s0-0.3,0-0.4s0-0.3,0-0.4
												s0-0.3,0-0.4s0-0.3,0-0.4s0-0.3,0-0.4s0-0.3,0-0.4s0-0.2,0-0.4c0.4,0.1,0.9,0.2,1.5,0.2c0,0.3,0,0.7,0,1s0,0.7,0,1.1
												c0,0.3,0,0.8,0,1.1s0,0.8,0,1.1s0,0.8,0,1.1s0,0.8,0,1.1s0,0.7,0,1.1c0,0.3,0,0.7,0,1l0,0l0,0l0,0l0,0l0,0l0,0l0,0l0,0
												C347.5,323.1,347,323,346.6,322.9z"/>
										</defs>
										<clipPath id="SVGID_00000059285582812796434180000013769433144914658191_">
											<use xlink:href="#SVGID_00000172406243031480247990000014424713303605679271_"  style="overflow:visible;"/>
										</clipPath>
										<g style="clip-path:url(#SVGID_00000059285582812796434180000013769433144914658191_);enable-background:new    ;">
											<path class="st8" d="M351.4,314v8.7c-0.7,0.2-2.1,0.4-3.3,0.4c-0.8,0-1.6-0.1-2.1-0.4V314c0.5,0.3,1.3,0.4,2.1,0.4
												C349.3,314.4,350.7,314.2,351.4,314"/>
										</g>
									</g>
								</g>
							</g>
						</g>
					</g>
				</g>
			</g>
			<g class="st0">
				<g>
					<g>
						<g>
							<g>
								<g>
									<g>
										<defs>
											<path id="SVGID_00000008113835712531399300000010496771694032532408_" d="M348.1,323.1L348.1,323.1L348.1,323.1
												L348.1,323.1L348.1,323.1C348.1,323.1,348.1,323,348.1,323.1C348.1,323,348.1,323,348.1,323.1
												C348.1,323,348.1,323,348.1,323.1C348.1,323,348.1,323,348.1,323.1c0-0.4,0-0.8,0-1.1s0-0.7,0-1.1c0-0.3,0-0.8,0-1.1
												s0-0.8,0-1.1s0-0.8,0-1.1s0-0.8,0-1.1s0-0.7,0-1.1c0-0.3,0-0.7,0-1l0,0l0,0c0,0.3,0,0.7,0,1s0,0.8,0,1.1s0,0.8,0,1.1
												s0,0.8,0,1.1s0,0.8,0,1.1s0,0.8,0,1.1s0,0.8,0,1.1C348.1,322.4,348.1,322.8,348.1,323.1L348.1,323.1L348.1,323.1z"/>
										</defs>
										<clipPath id="SVGID_00000043414896431641896850000015728287770703522456_">
											<use xlink:href="#SVGID_00000008113835712531399300000010496771694032532408_"  style="overflow:visible;"/>
										</clipPath>
										<g style="clip-path:url(#SVGID_00000043414896431641896850000015728287770703522456_);enable-background:new    ;">
											<path class="st8" d="M351.4,314v8.7c-0.7,0.2-2.1,0.4-3.3,0.4c-0.8,0-1.6-0.1-2.1-0.4V314c0.5,0.3,1.3,0.4,2.1,0.4
												C349.3,314.4,350.7,314.2,351.4,314"/>
										</g>
									</g>
								</g>
							</g>
						</g>
					</g>
				</g>
			</g>
			<g>
				<polygon class="st2" points="356.2,311 356.2,319.7 351.9,323.6 351.9,314.9 				"/>
			</g>
			<g>
				<polygon class="st13" points="360.1,315.4 360.1,324.1 358.9,319.7 358.9,311 				"/>
			</g>
			<g>
				<polygon class="st1" points="359,315.1 359,323.8 358.1,320.4 358.1,311.7 				"/>
			</g>
			<g>
				<polygon class="st14" points="390.7,311.7 390.7,320.4 388.1,323.8 388.1,315.1 				"/>
			</g>
			<g class="st0">
				<g>
					<g>
						<g>
							<g>
								<g>
									<g>
										<defs>
											<path id="SVGID_00000083046485116272805040000007655679825932666528_" d="M351.9,314.9v8.7c-0.2,0.1-2,0.5-3.8,0.5
												c-1,0-2-0.1-2.7-0.6c-0.5-0.3-0.9-0.8-1-1.4v-8.7c0.1,0.6,0.4,1.1,1,1.4c0.7,0.4,1.7,0.6,2.7,0.6
												C349.9,315.4,351.7,314.9,351.9,314.9z"/>
										</defs>
										<clipPath id="SVGID_00000116229279696326295320000003422166359510435514_">
											<use xlink:href="#SVGID_00000083046485116272805040000007655679825932666528_"  style="overflow:visible;"/>
										</clipPath>
										<g style="clip-path:url(#SVGID_00000116229279696326295320000003422166359510435514_);enable-background:new    ;">
											<path class="st2" d="M351.9,314.9v8.7c-0.2,0.1-2,0.5-3.8,0.5c-1,0-2-0.1-2.7-0.6c-0.5-0.3-0.9-0.8-1-1.4v-8.7
												c0.1,0.6,0.4,1.1,1,1.4c0.7,0.4,1.7,0.6,2.7,0.6C349.9,315.4,351.7,314.9,351.9,314.9"/>
										</g>
									</g>
								</g>
							</g>
						</g>
					</g>
				</g>
			</g>
			<g>
				<polygon class="st2" points="391.7,312 391.7,320.7 389.1,324.1 389.1,315.4 				"/>
			</g>
			<g>
				<polygon class="st13" points="229.6,318.7 229.6,327.4 226.9,324.9 226.9,316.2 				"/>
			</g>
			<g>
				<polygon class="st1" points="228.7,319.2 228.7,327.9 227.1,326.5 227.1,317.8 				"/>
			</g>
			<g>
				<polygon class="st1" points="388.3,319.3 388.3,328 388.1,323.8 388.1,315.1 				"/>
			</g>
			<g>
				<polygon class="st2" points="360.1,315.4 360.1,324.1 354.8,329 354.8,320.3 				"/>
			</g>
			<g>
				<polygon class="st29" points="253.9,312.9 253.9,321.6 247.1,329.3 247.1,320.6 				"/>
			</g>
			<g>
				<polygon class="st1" points="391,321.4 391,330.1 388.3,328 388.3,319.3 				"/>
			</g>
			<g>
				<polygon class="st2" points="254.7,313.5 254.7,322.1 247.7,330.2 247.7,321.5 				"/>
			</g>
			<g>
				<polygon class="st22" points="226.9,316.2 226.9,324.9 223.9,330.3 223.9,321.6 				"/>
			</g>
			<g>
				<polygon class="st5" points="227.1,317.8 227.1,326.5 224.9,330.5 224.9,321.8 				"/>
			</g>
			<g>
				<polygon class="st13" points="229.9,321.8 229.9,330.5 229.6,327.4 229.6,318.7 				"/>
			</g>
			<g>
				<polygon class="st1" points="229,322 229,330.7 228.7,327.9 228.7,319.2 				"/>
			</g>
			<g>
				<polygon class="st1" points="354.8,320.3 354.8,329 347.8,332.4 347.8,323.7 				"/>
			</g>
			<g>
				<polygon class="st13" points="231.6,324.4 231.6,333.1 229.9,330.5 229.9,321.8 				"/>
			</g>
			<g>
				<polygon class="st13" points="234.6,324.7 234.6,333.4 231.6,333.1 231.6,324.4 				"/>
			</g>
			<g>
				<rect x="234.6" y="324.7" class="st13" width="4.7" height="8.7"/>
			</g>
			<g>
				<polygon class="st13" points="247.1,320.6 247.1,329.3 239.3,333.4 239.3,324.7 				"/>
			</g>
			<g>
				<polygon class="st1" points="224.4,325 224.4,333.7 223.9,330.3 223.9,321.6 				"/>
			</g>
			<g>
				<polygon class="st1" points="231,325.4 231,334 229,330.7 229,322 				"/>
			</g>
			<g>
				<polygon class="st1" points="234.5,325.7 234.5,334.4 231,334 231,325.4 				"/>
			</g>
			<g>
				<rect x="234.5" y="325.7" class="st1" width="5" height="8.7"/>
			</g>
			<g>
				<polygon class="st1" points="247.7,321.5 247.7,330.2 239.6,334.4 239.6,325.7 				"/>
			</g>
			<g>
				<polygon class="st3" points="392.1,321 392.1,329.6 391.6,334.8 391.6,326.1 				"/>
			</g>
			<g>
				<polygon class="st27" points="391,321.4 391,330.1 390.6,335.3 390.6,326.6 				"/>
			</g>
			<g>
				<rect x="372" y="327.1" class="st13" width="11.1" height="8.7"/>
			</g>
			<g class="st0">
				<g>
					<g>
						<g>
							<g>
								<g>
									<g>
										<defs>
											<path id="SVGID_00000119796358417189097160000001035606949738433454_" d="M391.6,327.8v8.7c0-0.3-0.5-0.8-0.8-1v-8.7
												C391.1,327,391.6,327.4,391.6,327.8z"/>
										</defs>
										<clipPath id="SVGID_00000039830619331598038010000003497432970378429863_">
											<use xlink:href="#SVGID_00000119796358417189097160000001035606949738433454_"  style="overflow:visible;"/>
										</clipPath>
										<g style="clip-path:url(#SVGID_00000039830619331598038010000003497432970378429863_);enable-background:new    ;">
											<path class="st2" d="M391.6,327.8v8.7c0-0.3-0.5-0.8-0.8-1v-8.7C391.1,327,391.6,327.4,391.6,327.8"/>
										</g>
									</g>
								</g>
							</g>
						</g>
					</g>
				</g>
			</g>
			<g class="st0">
				<g>
					<g>
						<g>
							<g>
								<g>
									<g>
										<defs>
											<path id="SVGID_00000129923917801759407520000008034580269739836062_" d="M391.6,336.4
												C391.6,336.5,391.6,336.5,391.6,336.4c0-0.2,0-0.6,0-1c0-0.3,0-0.8,0-1.1s0-0.8,0-1.1s0-0.8,0-1.1s0-0.8,0-1.1
												s0-0.8,0-1.1s0-0.8,0-1.1s0-0.7,0-1c0,0,0,0,0-0.1C391.6,330.4,391.6,333.8,391.6,336.4z"/>
										</defs>
										<clipPath id="SVGID_00000088846375067822616530000017603478199789018285_">
											<use xlink:href="#SVGID_00000129923917801759407520000008034580269739836062_"  style="overflow:visible;"/>
										</clipPath>
										<g style="clip-path:url(#SVGID_00000088846375067822616530000017603478199789018285_);enable-background:new    ;">
											<path class="st24" d="M391.6,327.8v8.7c0,0,0,0,0,0.1V327.8L391.6,327.8"/>
										</g>
									</g>
								</g>
							</g>
						</g>
					</g>
				</g>
			</g>
			<g>
				<rect x="372.5" y="328.1" class="st1" width="10.2" height="8.7"/>
			</g>
			<g>
				<polygon class="st13" points="207.2,328.5 207.2,337.2 201.4,321.6 201.4,312.9 				"/>
			</g>
			<g class="st0">
				<g>
					<g>
						<g>
							<g>
								<g>
									<g>
										<defs>
											<path id="SVGID_00000183249544750583610480000015054511480082830782_" d="M391.6,336.5c-0.1,0.3-0.7,0.7-2.2,0.9v-8.7
												c1.5-0.3,2.2-0.7,2.2-0.9l0,0c0,0.3,0,0.7,0,1c0,0.2,0,0.4,0,0.5c0,0.3,0,0.8,0,1.1s0,0.8,0,1.1s0,0.8,0,1.1s0,0.8,0,1.1
												s0,0.8,0,1.1s0,0.7,0,1S391.6,336.3,391.6,336.5L391.6,336.5z"/>
										</defs>
										<clipPath id="SVGID_00000000934775158500002150000015845001363443238823_">
											<use xlink:href="#SVGID_00000183249544750583610480000015054511480082830782_"  style="overflow:visible;"/>
										</clipPath>
										<g style="clip-path:url(#SVGID_00000000934775158500002150000015845001363443238823_);enable-background:new    ;">
											<path class="st24" d="M391.6,327.8v8.7c0,0,0,0,0,0.1V327.8L391.6,327.8"/>
											<path class="st23" d="M391.6,327.8v8.7l0,0c0,0,0,0,0,0.1V327.8C391.6,327.9,391.6,327.8,391.6,327.8L391.6,327.8"/>
											<path class="st22" d="M391.6,327.9v8.7c0,0,0,0.1-0.1,0.1L391.6,327.9C391.5,327.9,391.5,327.9,391.6,327.9"/>
											<path class="st8" d="M391.5,328v8.7c-0.2,0.3-0.9,0.6-2.1,0.8v-8.7C390.6,328.5,391.3,328.2,391.5,328"/>
										</g>
									</g>
								</g>
							</g>
						</g>
					</g>
				</g>
			</g>
			<g>
				<polygon class="st1" points="206.3,328.9 206.3,337.6 200.5,322 200.5,313.3 				"/>
			</g>
			<g>
				<polygon class="st13" points="348.2,329.3 348.2,337.9 347.8,332.4 347.8,323.7 				"/>
			</g>
			<g>
				<polygon class="st13" points="389.4,328.8 389.4,337.4 384.9,338.2 384.9,329.5 				"/>
			</g>
			<g>
				<polygon class="st13" points="384.9,329.5 384.9,338.2 383.2,335.8 383.2,327.1 				"/>
			</g>
			<g class="st0">
				<g>
					<g>
						<g>
							<g>
								<g>
									<g>
										<defs>
											<path id="SVGID_00000054981120833428956070000015695994512906200240_" d="M392.6,327.8v8.7c0,0.1,0,0.2,0,0.3
												c-0.2,0.8-1.2,1.4-3,1.7v-8.7c1.8-0.3,2.8-0.9,3-1.7C392.6,327.9,392.6,327.8,392.6,327.8z"/>
										</defs>
										<clipPath id="SVGID_00000018205961576681702120000013989190304874960778_">
											<use xlink:href="#SVGID_00000054981120833428956070000015695994512906200240_"  style="overflow:visible;"/>
										</clipPath>
										<g style="clip-path:url(#SVGID_00000018205961576681702120000013989190304874960778_);enable-background:new    ;">
											<path class="st3" d="M392.6,327.8v8.7c0,0.1,0,0.2,0,0.3v-8.7C392.6,327.9,392.6,327.8,392.6,327.8"/>
											<path class="st6" d="M392.6,328v8.7l0,0c0,0.1-0.1,0.2-0.1,0.3v-8.7C392.5,328.2,392.5,328.1,392.6,328L392.6,328"/>
											<path class="st5" d="M392.5,328.3v8.7c0,0.1-0.1,0.2-0.2,0.3v-8.7C392.4,328.5,392.4,328.4,392.5,328.3"/>
											<path class="st2" d="M392.3,328.6v8.7c-0.4,0.5-1.3,0.9-2.8,1.2v-8.7C390.9,329.5,391.9,329.1,392.3,328.6"/>
										</g>
									</g>
								</g>
							</g>
						</g>
					</g>
				</g>
			</g>
			<g>
				<polygon class="st13" points="359.7,329.7 359.7,338.4 348.2,337.9 348.2,329.3 				"/>
			</g>
			<g>
				<polygon class="st1" points="347.3,330.2 347.3,338.9 346.7,331.8 346.7,323.2 				"/>
			</g>
			<g>
				<polygon class="st1" points="389.5,329.7 389.5,338.4 384.5,339.3 384.5,330.6 				"/>
			</g>
			<g>
				<polygon class="st1" points="384.5,330.6 384.5,339.3 382.6,336.8 382.6,328.1 				"/>
			</g>
			<g>
				<polygon class="st1" points="359.3,330.7 359.3,339.4 347.3,338.9 347.3,330.2 				"/>
			</g>
			<g>
				<polygon class="st1" points="225.5,331 225.5,339.7 224.4,333.7 224.4,325 				"/>
			</g>
			<g>
				<polygon class="st8" points="372,327.1 372,335.8 367.8,340.4 367.8,331.7 				"/>
			</g>
			<g>
				<polygon class="st13" points="362.3,332.1 362.3,340.8 359.7,338.4 359.7,329.7 				"/>
			</g>
			<g>
				<polygon class="st13" points="367.8,331.7 367.8,340.4 362.3,340.8 362.3,332.1 				"/>
			</g>
			<g>
				<polygon class="st2" points="372.5,328.1 372.5,336.8 368.2,341.3 368.2,332.6 				"/>
			</g>
			<g>
				<polygon class="st1" points="368.2,332.6 368.2,341.3 361.9,341.8 361.9,333.1 				"/>
			</g>
			<g>
				<polygon class="st1" points="361.9,333.1 361.9,341.8 359.3,339.4 359.3,330.7 				"/>
			</g>
			<g>
				<polygon class="st29" points="225.5,331 225.5,339.7 222.4,343.2 222.4,334.5 				"/>
			</g>
			<g>
				<polygon class="st2" points="226.6,331.3 226.6,340 223.4,343.6 223.4,334.9 				"/>
			</g>
			<g>
				<polygon class="st13" points="213.6,337.5 213.6,346.2 207.2,337.2 207.2,328.5 				"/>
			</g>
			<g>
				<polygon class="st1" points="212.6,337.8 212.6,346.5 206.3,337.6 206.3,328.9 				"/>
			</g>
			<g>
				<polygon class="st3" points="223.4,334.9 223.4,343.6 223.1,348.8 223.1,340.1 				"/>
			</g>
			<g>
				<polygon class="st15" points="222.4,334.5 222.4,343.2 222.1,349 222.1,340.3 				"/>
			</g>
			<g>
				<polygon class="st13" points="215,343.3 215,352 213.6,346.2 213.6,337.5 				"/>
			</g>
			<g>
				<polygon class="st1" points="214.1,343.9 214.1,352.6 212.6,346.5 212.6,337.8 				"/>
			</g>
			<g>
				<polygon class="st1" points="223.6,344.7 223.6,353.4 222.1,348.9 222.1,340.3 				"/>
			</g>
			<g>
				<polygon class="st13" points="218.5,345.5 218.5,354.2 215,352 215,343.3 				"/>
			</g>
			<g>
				<polygon class="st35" points="223.6,344.7 223.6,353.4 222,354.5 222,345.8 				"/>
			</g>
			<g>
				<polygon class="st13" points="222,345.8 222,354.5 218.5,354.2 218.5,345.5 				"/>
			</g>
			<g>
				<path class="st51" d="M391.6,326.1c0.4,0.3,1.1,1.1,1,1.9c-0.2,0.8-1.2,1.4-3,1.7l-5,0.9l-1.8-2.5h-10.2l-4.2,4.5l-6.3,0.5
					l-2.6-2.4l-12-0.5l-0.5-7.1l7.6-3.7l4.6-4.4l-0.9-3.3l-1.9-0.8l-4.3,3.9c-0.2,0.1-2,0.5-3.8,0.5c-1,0-2-0.1-2.7-0.6
					c-0.5-0.3-0.9-0.8-1-1.4l-0.5-2.7l0.2-7.2l0.5-5.3l3.5-4l5.4-1.2l5.7-0.8l1-5l-2.9-2.3l-5.4,3.8l-4.5,2.1l-5.4-1.4l-21.3-23
					l-1.4,8.5l2.2,4.6l11.1,9.9l-1.1,5.3l-3.5,2.4l1.3,2.1l2.4,2.2l2.3,2.3l-0.6,2.7l-1.9,2.5l-6.2,2l-9.8,0.3l-6-3.6l-6.4-5
					l-6.3-3.3l-4-1.9h-3.1l-3.6,1.6l-3,2.2l-14.8-0.3l-5.4,3l-6.4,5.3l-1.8,4.2l-7,8l-8.1,4.2h-5l-3.6-0.4l-2-3.3l-0.3-2.9l-1.5-1.4
					l-2.2,4l0.5,3.1l1.2,6.5l-3.1,3.6l-0.3,5.2l1.7,4.9l-2.6,1.8l-4.1-0.3l-4-2.6l-1.5-6.1l-6.4-8.9l-5.7-15.6l-11.7-20l-20.5-20.6
					l-16.9-3.2l-2.9-4l-15.1-12l-8.1-2.6l-6.2-5.2l-8.9-9.9l-10.6-0.7l-8.2-4.5l-22.4-17.8l-8.3-1.3l-9.5,2.1l-4.7-0.7l-6.2-7.4
					l-9-11.4l-7-5.8l-7-8.6l-2.9-7.1l-1.5-3.4l-2.2-7.7l1.2-2.4l1.7-3.3l1.8-1.9l2.8-2.3l0.5-3.8l1.6-3.3l-1.6-2.5l-4-0.4l-4-1.9
					l-3.7-1.7l-0.5-4.2l10.9-7.1l1.8-1.9l-3.5-3l-0.1-8.8l2-1.3l1.5-2.3l-0.8-3.1l-0.2-4.2l0.1-3.8l2-2.7l3.9-1l5.6,0.1l3.3-2.3
					l5.1-0.7l2.7-4.1L41,83.2L38.1,80l-3.5-6v-9.5l3.9-3.4l2.5-4.5l2.6-11.3l3.8-6.6l0.8-6.6l1.7-7.6c1-3.8,1.9-8.2,1.7-8.9
					c-0.5-1.4,1.8-3.2,2.5-3.8l0.8-6.7l4.7-3.7l4.2,2.4l4.8,2.6l2.5,3.7l3.5,2.2l6.3,2.6l4.5,3.8l2.4,3.4l1.5,5.9l1,2l6,1.6l3.5,4.6
					l13.5,13.1l9.9,4.5l5.6,2.7l14.7,15l2.3,2.3l28.2,0.3l4.6,2.1l11.3,0.3l23.6-3.1l16.6,0.2l5.4,5.5l6.4,5.5l4.4,0.2l4.6,3.9
					l3.7,0.3l4.9-5l-0.9-7.6l-1.8-4.4L256,56.8l2.8-3.4l0.7-7.3l3.2-0.4l2.5-1.6l3,0.2l0.5,1.6l1.8,0.9l1.6,0.7l2.2,2.8l2.3,1.4
					c1.7-0.2,2.6,0,3.9,1l2.5,1.9l5.7,0.8l4,2.8l5.8,8l0.5,11.6l-2.6,3.2l-0.5,11.8l1.8,3.3l4.1,2.5l3.5,2.6l4.9,5.3
					c0.5,0.3,1.4,1.2,2.9,4.4l2,4l5.5,7.2l5.3,6.5l2.9,0.6h3.2l-0.2,5.9l-2.1,3.8c-0.6-0.8-1.1-1.3-1.5-1.3c-0.3,0.1-1,0.4-1.4,2.9
					l-0.9,5.3l1,1.8l2.8,1.4l-0.5,5.6l2.5,2.7l3,3l3.2,7.3l6,4.2l2.3,4.8l5.1,7l4.2,3.6c0,0.2,0.5,2.9,2.3,4.7l2,2l2.2,3.5l-0.2,5.6
					l-3.4,4l-3.4,5.2l-1.4,4.4l1,2.6l3.3,2.3l11.6,11.4l0.5,2.7l2.7,2.5l3.9,3l4,3.6c0.1,0,2.2,1.7,0.4,5.3l-1.6,3.2l-1.6,2.7
					l-0.1,2.5l2.6,2.1l0.7,6.2l2.5,3.3l4.7,2.7l0.7,21.7l3.5,3.4l-0.5,7.5l-0.2,6.9l-2.6,3.4l0.1,3.5l2.8,2.1L391.6,326.1z
					 M389.4,328.8c1.5-0.3,2.2-0.7,2.2-0.9c0.1-0.3-0.5-0.9-0.8-1.1l0.3-5.3l-2.8-2.1l-0.2-4.3l2.6-3.4l0.2-6.6l0.5-7l-3.4-3.4
					l-0.6-21.5l-4.5-2.6l-2.7-3.7l-0.6-6.1l-2.7-2.1l0.2-3.3l1.7-2.8l1.6-3.2c1.4-2.8-0.1-4-0.2-4.1l-4-3.6l-3.9-3l-2.9-2.7
					l-0.5-2.7l-11.4-11.2l-3.5-2.5l-1.3-3.2l1.6-5l3.4-5.3l3.2-3.8l0.2-5l-2-3.2l-1.9-1.9c-1.8-1.8-2.4-4.2-2.6-4.9l-4-3.5l-5.2-7.1
					l-2.3-4.6l-6.1-4.2l-3.3-7.5l-2.9-2.8l-2.8-3.1l0.5-5.4l-2.5-1.2l-1.3-2.4l1-5.6c0.4-2.2,1.1-3.4,2.1-3.6c0.8,0,1.3,0.2,1.6,0.5
					l1.3-2.4l0.1-4.7h-2.4l-3.3-0.7l-5.5-6.7L314,115l-2-4.1c-1.7-3.5-2.5-3.9-2.5-3.9l-5.1-5.4l-3.4-2.5l-4.3-2.6l-2.1-3.8
					l0.5-12.4l2.6-3.2l-0.5-10.9l-5.6-7.7L288,56l-5.7-0.8l-2.7-2c-1.1-0.8-1.9-1-2.3-1l-4-1.5l-2.1-2.6l-1.3-0.6l-2.2-1.1l-0.5-1.3
					l-2-0.1l-2.4,1.6l-2.7,0.3l-0.6,6.8l-2.8,3.4l0.8,14.7l1.8,4.4l1,8.1l-5.6,5.6l-4.5-0.4l-4.6-3.9l-4.4-0.2l-6.7-5.8l-5.1-5.2
					l-16.1-0.2l-23.7,3l-11.7-0.4l-4.5-2L144.8,75l-2.6-2.6l-14.7-14.9l-5.3-2.5l-10.1-4.6L98.5,37.2l-3.4-4.4L89,31.2l-1.3-2.6
					l-1.4-5.9l-2.2-3.1L79.8,16l-6.1-2.5l-3.8-2.4l-2.4-3.6L62.9,5l-3.6-2.1l-3.8,3l-0.8,6.7c-1.5,1-2.7,2.4-2.5,2.9
					c0.4,1.3-1.3,8.1-1.7,9.5l-1.7,7.5l-0.9,6.8l-3.8,6.6l-2.6,11.3l-2.6,4.7l-3.6,3.2v8.8l3.3,5.7l3,3.4l0.2,4.9l-3.2,4.7l-5.3,0.7
					l-3.4,2.3l-5.8-0.1l-3.5,0.9L19,98.5l-0.1,3.5l0.2,4.1l0.9,3.4l-2,2.9l-1.7,1.1l0.1,7.8l3.9,3.4l-2.7,2.7l-10.4,6.8l0.4,3.1
					l3.2,1.4l3.9,1.8l4.3,0.4l2.2,3.3l-1.8,3.7l-0.4,4l-3.1,2.5l-1.7,1.8l-1.5,3.2l-1.1,2l2.1,7.2l1.4,3.3l2.9,7l6.8,8.3l7,5.8
					l9,11.4l5.9,7.1l4.1,0.6l9.5-2.1l8.7,1.3l22.5,18l8,4.4l10.7,0.6l9.1,10.1l6.1,5l8.1,2.6l15.3,12.2l2.7,3.7l16.8,3.2l20.8,21
					l11.8,20.1l5.7,15.6l6.4,9l1.4,5.8l3.5,2.2l3.5,0.3l1.7-1.1l-1.5-4.4l0.3-5.7l3.1-3.5l-1.1-6l-0.5-3.4l3-5.4l2.7,2.5l0.3,3.1
					l1.6,2.6l3,0.3h4.7l7.8-4.1l6.7-7.8l1.8-4.2l6.6-5.6l5.8-3.2l14.7,0.3l2.9-2l4-1.6h3.5l4.1,1.9l6.4,3.4l6.5,5l5.7,3.4l9.4-0.3
					l5.7-1.9l1.6-2.2l0.4-1.9l-1.9-1.9l-2.5-2.3l-1.9-3l4-2.7l0.9-4.4l-10.9-9.8l-2.4-5l1.8-10.8l22.5,24.3l4.8,1.2l4.1-1.9l6-4.2
					l4,3.2l-1.3,6.3l-6.4,0.9l-5,1.1l-3.1,3.5l-0.5,5l-0.2,7l0.5,2.6c1,1.1,1.8,1.2,2.7,1.2c1.2,0,2.6-0.2,3.3-0.4l4.6-4.2l3,1.2
					l1.1,4.4l-5.2,5l-7.1,3.4l0.4,5.5l11.5,0.5l2.6,2.4l5.5-0.5l4.3-4.5h11.1l1.8,2.4L389.4,328.8"/>
			</g>
			<g>
				<path class="st52" d="M59.6,3l3.6,2.1l4.6,2.5l2.4,3.6l3.8,2.4l6.1,2.5l4.3,3.6l2.2,3.1l1.4,5.9l1.3,2.6l6.1,1.6l3.4,4.4
					l13.6,13.2l10.1,4.6l5.3,2.5l14.7,14.9l2.6,2.6l28.6-0.2l4.5,2l11.7,0.4l23.7-3l16.1,0.2l5.1,5.2l6.7,5.8l4.4,0.2l4.6,3.9
					L255,90l5.6-5.6l-1-8.1l-1.8-4.4L257,57.2l2.8-3.4l0.6-6.8l2.7-0.3l2.4-1.6l2,0.1l0.4,1.3l2.2,1.1l1.4,0.6l2.1,2.6l2.8,1.7
					c1.7-0.2,2.4,0,3.6,0.8l2.7,2l5.7,0.8l3.6,2.5l5.6,7.7l0.5,10.9l-2.6,3.2L295,92.6l2.1,3.9l4.3,2.6l3.4,2.5l4.9,5.3
					c0.2,0.1,1,0.6,2.7,4.1l2,4.1l5.6,7.3l5.5,6.7l3.3,0.7h2.4l-0.1,4.7l-1.3,2.4c-0.3-0.3-0.8-0.5-1.3-0.5c-1.3,0.3-2,1.5-2.4,3.7
					l-1,5.6l1.3,2.4l2.5,1.2l-0.5,5.4l2.8,3.1l2.9,2.8l3.3,7.5l6.1,4.2l2.3,4.6l5.2,7.1l4,3.5c0.1,0.7,0.8,3.2,2.6,4.9l1.9,1.9
					l2,3.2l-0.2,5l-3.2,3.8l-3.4,5.3l-1.6,5l1.3,3.2l3.5,2.5l11.3,11.2l0.5,2.7l2.9,2.7l3.9,3l4,3.6c0.1,0,1.6,1.3,0.2,4.1l-1.6,3.2
					l-1.7,2.8l-0.2,3.3l2.7,2.1l0.6,6.1l2.7,3.7l4.5,2.6l0.6,21.5l3.4,3.4l-0.5,7l-0.2,6.6l-2.6,3.4l0.2,4.3l2.8,2.1l-0.5,5.2
					c0.5,0.4,1.1,0.9,1,1.2s-0.7,0.7-2.2,0.9l-4.4,0.8l-1.8-2.4H372l-4.3,4.5l-5.5,0.5l-2.6-2.4l-11.5-0.5l-0.4-5.5l7.1-3.4l5.2-5
					l-1.1-4.4l-3-1.2l-4.6,4.2c-0.7,0.2-2.1,0.4-3.3,0.4c-0.8,0-1.6-0.1-2.1-0.4l-1-3.4l0.2-7l0.5-5l3.1-3.5l5-1.1l6.4-0.9l1.3-6.3
					l-4-3.2l-6,4.2l-4.1,1.9l-4.8-1.2L320,264.4l-1.8,10.8l2.4,5l10.9,9.8l-0.9,4.4l-4,2.7l1.9,3l2.5,2.3l1.9,1.9l-0.4,1.9l-1.6,2.2
					l-5.7,1.9l-9.4,0.3l-5.7-3.4l-6.5-5l-6.4-3.4l-4.1-1.9h-3.5l-4,1.6l-2.9,2l-14.7-0.3l-5.8,3.2l-6.6,5.6l-1.8,4.2L247,321
					l-7.8,4.1h-4.7l-3-0.3l-1.6-2.6l-0.3-3.1l-2.7-2.5l-3,5.4l0.5,3.4l1.1,6l-3.1,3.5l-0.3,5.7l1.5,4.4l-1.7,1.1l-3.5-0.3l-3.5-2.2
					l-1.4-5.8l-6.4-9l-5.7-15.6l-11.8-20.1L169,271.9l-16.9-3.3l-2.7-3.7l-15.3-12.2l-8.1-2.6l-6.1-5l-9.1-10.1l-10.7-0.6l-8-4.4
					l-22.4-17.9l-8.8-1.4l-9.5,2.1l-4.1-0.6l-5.9-7.1l-9-11.4l-7-5.8l-6.8-8.3l-2.9-7l-1.4-3.3l-2.1-7.2l1.1-2l1.5-3.2l1.7-1.8
					l3.1-2.5l0.4-4l1.8-3.7l-2.2-3.3l-4.3-0.4l-3.9-1.8L8.2,138l-0.4-3.1l10.4-6.8l2.7-2.7L17,122l-0.1-7.8l1.7-1.1l2-2.9l-0.9-3.4
					l-0.2-4.1l0.1-3.5l1.6-2.1l3.5-0.9l5.8,0.1l3.4-2.3l5.3-0.7l3.2-4.7l-0.2-4.9l-3-3.4l-3.3-5.7v-8.8l3.6-3.2l2.6-4.7l2.6-11.3
					l3.8-6.6l0.9-6.8l1.7-7.5c0.4-1.3,2.1-8.1,1.7-9.5c-0.2-0.5,1.1-1.9,2.4-2.8l1-6.8L59.6,3z"/>
			</g>
			<g>
				<polygon class="st1" points="218.2,346.5 218.2,355.2 214.1,352.6 214.1,343.9 				"/>
			</g>
			<g>
				<polygon class="st2" points="224.8,345.1 224.8,353.7 222.2,355.5 222.2,346.8 				"/>
			</g>
			<g>
				<polygon class="st1" points="222.2,346.8 222.2,355.5 218.2,355.2 218.2,346.5 				"/>
			</g>
		</g>
	</g>
</g>
<circle class="st53" cx="200.7" cy="288.1" r="6.2"/>
<g>
	<line class="st54" x1="203.8" y1="286" x2="177" y2="303.5"/>
	<g>
		<line class="st55" x1="200.8" y1="288" x2="177" y2="303.5"/>
		<g>
			<path d="M198.6,284.9c1.7-1.1,4.1-0.6,5.2,1.1s0.6,4.1-1.1,5.2s-4.1,0.6-5.2-1.1C196.3,288.4,196.8,286.1,198.6,284.9z"/>
		</g>
	</g>
</g>
<circle class="st53" cx="283.1" cy="285.7" r="6.2"/>
<g>
	<g>
		<line class="st56" x1="283.1" y1="285.6" x2="283.1" y2="320.3"/>
		<g>
			<path d="M279.4,285.7c0-2.1,1.7-3.8,3.8-3.8c2.1,0,3.8,1.7,3.8,3.8c0,2.1-1.7,3.8-3.8,3.8C281,289.5,279.4,287.8,279.4,285.7z"/>
		</g>
	</g>
</g>
<path class="st57" d="M116.4,320.2"/>
<g id="Layer_2_00000183927635877926481930000005495527505831231884_">
	<g>
		<g>
			<line class="st57" x1="189.8" y1="77.2" x2="190.2" y2="78.6"/>
			<line class="st58" x1="191.1" y1="81.3" x2="199.2" y2="106.6"/>
			<polyline class="st57" points="199.6,107.9 200.1,109.3 199.1,110.5 			"/>
			<path class="st59" d="M238.2,181.2L261,135l9-3l2-17l-21,3l-17-12l-36.8,6.7l-10.7,12.4c-24.7,2.6-44.4,9.2-51.4,11.8"/>
			<path class="st57" d="M133.7,137.4c-0.9,0.3-1.4,0.5-1.4,0.5l0.1,1.5"/>
			<line class="st60" x1="132.5" y1="141.2" x2="132.6" y2="143.9"/>
			<path class="st57" d="M132.7,144.8l0.1,1.5c0.5,0.1,1,0.2,1.5,0.3"/>
			<path class="st61" d="M137.3,147.4c8.7,2.9,10.4,8.7,10.5,12.3"/>
			<path class="st57" d="M147.7,161.2c-0.1,0.9-0.2,1.5-0.2,1.5l0.9,1.2"/>
			<line class="st62" x1="150.2" y1="166.3" x2="160" y2="179.3"/>
			<polyline class="st57" points="160.9,180.5 161.8,181.7 160.6,182.6 			"/>
			<path class="st63" d="M158.3,184.5l-2.7,2.2c-0.5,4.3-4.5,5.7-4.5,5.7l-3,3.8"/>
			<polyline class="st57" points="147.2,197.4 146.3,198.6 147.3,199.7 			"/>
			<line class="st64" x1="148.6" y1="201" x2="150.4" y2="203"/>
			<polyline class="st57" points="151,203.7 152,204.8 151.1,206 			"/>
			<polyline class="st65" points="150.1,209 145.6,230.3 150.1,237.9 			"/>
			<path class="st57" d="M150.9,239.3l0.8,1.3c-0.3,0.4-0.6,0.8-0.9,1.2"/>
			<path class="st66" d="M149.6,244.3c-2.2,6.1-1.6,15.2-1.1,19.7"/>
			<path class="st57" d="M148.7,265.3c0.1,0.9,0.2,1.5,0.2,1.5"/>
		</g>
	</g>
	<g>
		<g>
			<path class="st57" d="M69.9,212.3c0-0.5,0.1-1,0.1-1.5"/>
			<path class="st67" d="M70.4,207.7c3.6-23.4,18.4-37.4,18.4-37.4V170"/>
			<polyline class="st57" points="88.9,168.5 89,167 86.6,166.5 86.6,165 			"/>
			<polyline class="st57" points="86.6,163.2 86.6,161.7 88.1,162.2 			"/>
			<path class="st57" d="M90.9,163l1.4,0.4c0.3-0.4,0.6-0.8,0.9-1.2"/>
			<path class="st68" d="M94.7,160c5.6-8.2,9.1-13.8,10.9-16.7"/>
			<path class="st57" d="M106.3,142.1c0.5-0.9,0.8-1.3,0.8-1.3l1.4,0.6"/>
			<polyline class="st69" points="110.9,142.5 120.2,146.8 129.9,146.4 			"/>
			<line class="st57" x1="131.3" y1="146.3" x2="132.8" y2="146.3"/>
		</g>
	</g>
	<g>
		<g>
			<path class="st57" d="M40.5,86.6c-0.1,0.5-0.3,1-0.4,1.5"/>
			<path class="st70" d="M39.9,91.3c0.2,5.6,4.2,8,6.5,8"/>
			<polyline class="st57" points="47.5,98.5 47.9,97.1 48.7,98.3 			"/>
			<polyline class="st57" points="49.7,100.1 50.5,101.3 52.9,101.8 53.6,100.5 			"/>
			<line class="st71" x1="54.5" y1="98.9" x2="55.8" y2="96.5"/>
			<polyline class="st57" points="56.5,95.9 57.9,95.4 58.5,96.7 			"/>
			<polyline class="st57" points="59.3,98.3 60,99.7 61.5,99.6 			"/>
			<polyline class="st72" points="64.3,99.5 65.7,99.4 71.4,103.5 72.8,103.6 			"/>
			<polyline class="st57" points="74.2,103.6 75.7,103.7 75.8,105.2 			"/>
			<polyline class="st57" points="75.8,105.6 75.9,107.1 77.4,107.1 			"/>
			<polyline class="st57" points="80.6,107.1 82.1,107.1 82.7,105.7 			"/>
			<line class="st73" x1="83.4" y1="103.9" x2="84.5" y2="101.2"/>
			<polyline class="st57" points="84.9,100.4 85.4,99 86.9,99 			"/>
			<polyline class="st57" points="89.2,99.1 90.7,99.2 91.4,102.1 92.9,102.1 			"/>
			<path class="st57" d="M95.6,102.1h1.5c0.3,0.4,0.5,0.9,0.8,1.3"/>
			<path class="st74" d="M99.7,106c3.2,4.1,6.4,6.1,8.7,7.1"/>
			<path class="st57" d="M109.9,113.6c0.9,0.3,1.5,0.3,1.5,0.3l0.9,1.2"/>
			<line class="st75" x1="113.3" y1="116.5" x2="114.9" y2="118.5"/>
			<polyline class="st57" points="115.4,119.2 116.4,120.4 115.7,121.7 			"/>
			<line class="st76" x1="114.6" y1="124.3" x2="108.3" y2="138.2"/>
			<line class="st57" x1="107.7" y1="139.4" x2="107.1" y2="140.8"/>
		</g>
	</g>
	<g>
		<g>
			<path class="st57" d="M151.6,240.6c0.5,0,1,0,1.5,0"/>
			<path class="st77" d="M156.1,240.9c28.4,3.2,59.9,35.2,59.9,35.2c3.7,7.3,5.3,12.6,6,15.6"/>
			<path class="st57" d="M222.2,293.1c0.2,1,0.2,1.5,0.2,1.5l1.5-0.3"/>
			<polyline class="st57" points="226.4,293.8 227.9,293.5 228.3,294.9 			"/>
			<line class="st78" x1="228.7" y1="296.9" x2="229.5" y2="299.8"/>
			<polyline class="st57" points="229.7,300.7 230.1,302.2 228.7,302.7 			"/>
			<path class="st57" d="M226.6,303.4l-1.4,0.5c0.1,0.5,0.1,1,0.2,1.5"/>
			<path class="st79" d="M225.8,308.2c0.8,5.8,1.1,8.8,1.2,10.2"/>
			<path class="st57" d="M226.7,319.4c-0.2-0.4-0.4-1.4-0.4-1.4"/>
		</g>
	</g>
	<path class="st80" d="M349.9,181.2l-3.8,4.9l-2.2-4.4l-105.7-0.5l1.1,23.4c-12.3,1.8,4.9,21.2,8.7,22.9l0.5,4.4l4.4,0.5l0.5,4.4
		l3.3,3.8l-12-2.7c-17.2,0.9-24.5-5-27.8-6.5c-1.1,14.7-8.2,9.3-8.2,9.3l-16.2,17.4"/>
	<path class="st80" d="M325.1,308.2"/>
	<path class="st80" d="M215.4,277.6l8.4-7.9c10-1.6,9.5,3.7,9.5,3.7v10l3.7-1.6h4.7c14.1,11.4,22.8-15.6,22.2-19.5
		c2.7-6.5,8.1-2.3,10-1.1c8.2,18,22.7,12.6,25.9,10c-6.4-9.7,2.6-13.3,5.8-13.2c4.7,11.6,7.9,11.1,7.9,11.1
		c5.4,6.4,11.1,15.8,11.1,15.8"/>
</g>
<line class="st80" x1="258.8" y1="243.2" x2="268.9" y2="258.8"/>
<path class="st59" d="M20.5,183.2c0.4-2.3,2.3-5.7,4-7.5c2-2.1,4.8-1.9,6.9-3.5c4.7-3.6,9.1-8.7,13.8-12.6
	c6.3-5.3,11.6-13.3,16.7-20c2.5-3.2,3.7-6,4.8-9.8c1.1-3.9,1.6-4.2,5.5-6.6c6.3-3.8,7.8-9.3,8.9-16"/>
<polyline class="st57" points="284.1,285.9 300.2,295.2 300.2,320.2 "/>
</svg>
