<?xml version="1.0" encoding="utf-8"?>
<!-- Generator: Adobe Illustrator 25.4.1, SVG Export Plug-In . SVG Version: 6.00 Build 0)  -->
<svg version="1.1" xmlns="http://www.w3.org/2000/svg" xmlns:xlink="http://www.w3.org/1999/xlink" x="0px" y="0px"
	 viewBox="0 0 486.3 398.9" style="enable-background:new 0 0 486.3 398.9;" xml:space="preserve">
<style type="text/css">
	.st0{enable-background:new    ;}
	.st1{fill:#3F3F40;}
	.st2{fill:#3F3F3F;}
	.st3{clip-path:url(#SVGID_00000101062475350068528870000002771154398928047756_);enable-background:new    ;}
	.st4{fill:#8A8A8A;}
	.st5{fill:#8F8F8F;}
	.st6{fill:#949494;}
	.st7{clip-path:url(#SVGID_00000111175321757165579660000015968129263221381560_);enable-background:new    ;}
	.st8{fill:#3F4040;}
	.st9{fill:#404040;}
	.st10{fill:#404041;}
	.st11{clip-path:url(#SVGID_00000084489042113164345940000017472760937647930027_);enable-background:new    ;}
	.st12{fill:#808080;}
	.st13{fill:#464646;}
	.st14{fill:#E5E5E5;}
	.st15{fill:#878787;}
	.st16{clip-path:url(#SVGID_00000137127814203987569020000012595161106757014965_);enable-background:new    ;}
	.st17{clip-path:url(#SVGID_00000118397234583590332690000014208459724940979884_);enable-background:new    ;}
	.st18{fill:#858585;}
	.st19{clip-path:url(#SVGID_00000088125389016983864370000011387720653047859884_);enable-background:new    ;}
	.st20{fill:#868686;}
	.st21{fill:#8C8C8C;}
	.st22{fill:#888888;}
	.st23{fill:#8D8D8D;}
	.st24{fill:#919191;}
	.st25{fill:#848484;}
	.st26{fill:#929292;}
	.st27{fill:#939393;}
	.st28{clip-path:url(#SVGID_00000003821768343732256660000002547631209125240250_);enable-background:new    ;}
	.st29{clip-path:url(#SVGID_00000125590943822950343050000004913834030431805595_);enable-background:new    ;}
	.st30{fill:#8B8B8B;}
	.st31{fill:#8E8E8E;}
	.st32{fill:#828282;}
	.st33{fill:#818181;}
	.st34{fill:#909090;}
	.st35{clip-path:url(#SVGID_00000160148373128207188850000009950343699691869354_);enable-background:new    ;}
	.st36{clip-path:url(#SVGID_00000080201391108166954560000012395654567367455925_);enable-background:new    ;}
	.st37{clip-path:url(#SVGID_00000132774730539732705630000017712272122334818181_);enable-background:new    ;}
	.st38{clip-path:url(#SVGID_00000174586457403344212240000000689896143383208601_);enable-background:new    ;}
	.st39{clip-path:url(#SVGID_00000116237579674782139730000016653266024018727612_);enable-background:new    ;}
	.st40{clip-path:url(#SVGID_00000148656156820779297940000010181825011743463358_);enable-background:new    ;}
	.st41{clip-path:url(#SVGID_00000176009905660927011840000012206000426945878681_);enable-background:new    ;}
	.st42{clip-path:url(#SVGID_00000075152718659459631520000008737035041205258157_);enable-background:new    ;}
	.st43{clip-path:url(#SVGID_00000167362170269878269750000011701362758604504715_);enable-background:new    ;}
	.st44{clip-path:url(#SVGID_00000070825123672949962240000014999903188531469696_);enable-background:new    ;}
	.st45{clip-path:url(#SVGID_00000170253593984277885590000005002991432767158186_);enable-background:new    ;}
	.st46{clip-path:url(#SVGID_00000183208258377668231440000000669965726696828820_);enable-background:new    ;}
	.st47{clip-path:url(#SVGID_00000071560906221076202390000003216545917255164313_);enable-background:new    ;}
	.st48{clip-path:url(#SVGID_00000090980489958387341230000007295549163960137384_);enable-background:new    ;}
	.st49{clip-path:url(#SVGID_00000093147466132930154450000017528007354868687763_);enable-background:new    ;}
	.st50{fill:#898989;}
	.st51{fill:#838383;}
	.st52{clip-path:url(#SVGID_00000031918997020797262810000009466635472034521505_);enable-background:new    ;}
	.st53{clip-path:url(#SVGID_00000138556436315025462170000009427246380771585949_);enable-background:new    ;}
	.st54{clip-path:url(#SVGID_00000012445306354275454110000013890680925725247388_);enable-background:new    ;}
	.st55{clip-path:url(#SVGID_00000054957561246631428900000001200446650065206408_);enable-background:new    ;}
	.st56{clip-path:url(#SVGID_00000181053470797439295990000003809502857256898690_);enable-background:new    ;}
	.st57{clip-path:url(#SVGID_00000033363961337345982260000005841639086811162509_);enable-background:new    ;}
	.st58{clip-path:url(#SVGID_00000016770421080454298650000018200886419196360361_);enable-background:new    ;}
	.st59{fill:none;stroke:#000000;stroke-miterlimit:10;stroke-dasharray:2.6635,2.6635;}
	.st60{fill:#00ADC1;stroke:#000000;stroke-miterlimit:10;}
	.st61{fill:none;stroke:#000000;stroke-linecap:round;stroke-miterlimit:10;}
</style>
<g id="Layer_1">
	<g id="path2439">
		<g>
			<g class="st0">
				<g>
					<polygon class="st1" points="207.3,1.9 207.3,10.6 206.7,11.3 206.7,2.7 					"/>
				</g>
				<g>
					<rect x="201.7" y="2.9" class="st2" width="3.6" height="8.7"/>
				</g>
				<g class="st0">
					<g>
						<defs>
							<path id="SVGID_1_" d="M205.3,2.9v8.7c-1,1.4-2.8,3.9-2.8,5V7.9C202.5,6.8,204.3,4.2,205.3,2.9z"/>
						</defs>
						<clipPath id="SVGID_00000153665551701222829830000014921087350403831732_">
							<use xlink:href="#SVGID_1_"  style="overflow:visible;"/>
						</clipPath>
						<g style="clip-path:url(#SVGID_00000153665551701222829830000014921087350403831732_);enable-background:new    ;">
							<path class="st4" d="M205.3,2.9v8.7c-0.7,1-1.9,2.6-2.4,3.8V6.7C203.4,5.4,204.6,3.8,205.3,2.9"/>
							<path class="st5" d="M202.9,6.7v8.7c-0.2,0.3-0.3,0.6-0.3,0.9V7.6C202.6,7.3,202.7,7,202.9,6.7"/>
							<path class="st6" d="M202.6,7.5v8.7c0,0.1,0,0.2,0,0.3V7.8C202.5,7.8,202.5,7.7,202.6,7.5"/>
						</g>
					</g>
				</g>
				<g class="st0">
					<g>
						<defs>
							<path id="SVGID_00000160155893244945806800000011347261873078876588_" d="M206.7,2.7v8.7c-1.3,1.7-3.2,4.4-3.2,5.2V7.9
								C203.5,7.1,205.4,4.4,206.7,2.7z"/>
						</defs>
						<clipPath id="SVGID_00000028296334567239276860000007864954239615242419_">
							<use xlink:href="#SVGID_00000160155893244945806800000011347261873078876588_"  style="overflow:visible;"/>
						</clipPath>
						<g style="clip-path:url(#SVGID_00000028296334567239276860000007864954239615242419_);enable-background:new    ;">
							<path class="st8" d="M206.7,2.7v8.7c-1,1.3-2.4,3.3-2.9,4.5V7.2C204.3,6,205.7,4,206.7,2.7"/>
							<path class="st9" d="M203.7,7.1v8.7c-0.1,0.2-0.2,0.4-0.2,0.6V7.7C203.6,7.5,203.6,7.4,203.7,7.1"/>
							<path class="st10" d="M203.5,7.7v8.7c0,0.1,0,0.1,0,0.2V7.9C203.5,7.8,203.5,7.8,203.5,7.7"/>
						</g>
					</g>
				</g>
				<g>
					<polygon class="st9" points="201.7,2.9 201.7,11.5 199.1,18.4 199.1,9.7 					"/>
				</g>
				<g>
					<polygon class="st2" points="199.1,9.7 199.1,18.4 193.2,18 193.2,9.3 					"/>
				</g>
				<g>
					<polygon class="st2" points="193.2,9.3 193.2,18 187,20.5 187,11.8 					"/>
				</g>
				<g class="st0">
					<g>
						<defs>
							<path id="SVGID_00000024700421265535240660000017361611167954584246_" d="M203.7,14v8.7c-0.3-1.3-1.2-5-1.2-6.1V7.9
								C202.5,9,203.4,12.7,203.7,14z"/>
						</defs>
						<clipPath id="SVGID_00000158019204083952013380000014320928671394188419_">
							<use xlink:href="#SVGID_00000024700421265535240660000017361611167954584246_"  style="overflow:visible;"/>
						</clipPath>
						<g style="clip-path:url(#SVGID_00000158019204083952013380000014320928671394188419_);enable-background:new    ;">
							<path class="st1" d="M203.7,14v8.7c-0.3-1.3-1.2-5-1.2-6.1V7.9C202.5,9,203.4,12.7,203.7,14"/>
						</g>
					</g>
				</g>
				<g>
					<polygon class="st12" points="203.7,14 203.7,22.7 194.6,24.8 194.6,16.2 					"/>
				</g>
				<g>
					<polygon class="st2" points="204.9,14.7 204.9,23.4 194.9,25.8 194.9,17.1 					"/>
				</g>
				<g>
					<polygon class="st10" points="187,11.8 187,20.5 186.2,27.8 186.2,19.1 					"/>
				</g>
				<g>
					<polygon class="st12" points="194.6,16.2 194.6,24.8 186.2,27.8 186.2,19.1 					"/>
				</g>
				<g>
					<path class="st13" d="M207.3,1.9l-0.6,0.8c-1.3,1.7-3.2,4.4-3.2,5.2c0,1,0.9,4.9,1.3,6.4l0.1,0.5l-10,2.4l-9.9,3.5l1.1-9.5
						l7-2.7l5.3,0.3L201,2h6.3V1.9z M202.5,7.9c0-1.1,1.8-3.6,2.8-5h-3.6l-2.6,6.8l-5.8-0.3l-6.2,2.4l-0.9,7.3l8.5-3l9.1-2.2
						C203.4,12.7,202.5,9,202.5,7.9"/>
				</g>
				<g>
					<path class="st14" d="M205.3,2.9c-1,1.4-2.8,3.9-2.8,5s0.9,4.8,1.2,6.1l-9.1,2.2l-8.5,3l0.9-7.3l6.2-2.4l5.8,0.3l2.6-6.8
						L205.3,2.9L205.3,2.9z"/>
				</g>
				<g>
					<polygon class="st2" points="194.9,17.1 194.9,25.8 185,29.3 185,20.6 					"/>
				</g>
			</g>
		</g>
	</g>
	<g id="path2441">
		<g>
			<g class="st0">
				<g>
					<polygon class="st2" points="235.3,3.2 235.3,11.9 227.1,11.3 227.1,2.6 					"/>
				</g>
				<g>
					<polygon class="st2" points="227.1,2.6 227.1,11.3 219,14.5 219,5.8 					"/>
				</g>
				<g>
					<polygon class="st2" points="240.5,9.3 240.5,17.9 235.3,11.9 235.3,3.2 					"/>
				</g>
				<g>
					<polygon class="st2" points="219,5.8 219,14.5 210.7,18.3 210.7,9.6 					"/>
				</g>
				<g>
					<polygon class="st15" points="240.5,9.3 240.5,17.9 236,23.7 236,15 					"/>
				</g>
				<g>
					<polygon class="st1" points="241.8,9.2 241.8,17.9 237.1,23.8 237.1,15.2 					"/>
				</g>
				<g>
					<polygon class="st2" points="236.1,15.2 236.1,23.9 236,23.7 236,15 					"/>
				</g>
				<g>
					<polygon class="st10" points="210.7,9.6 210.7,18.3 209.4,27.3 209.4,18.6 					"/>
				</g>
				<g class="st0">
					<g>
						<defs>
							<path id="SVGID_00000003107248274905798780000004797965500725929346_" d="M237.1,20.1v8.7c0-1.3-0.5-3.4-1-4.9v-8.7
								C236.6,16.7,237.1,18.8,237.1,20.1z"/>
						</defs>
						<clipPath id="SVGID_00000142882989789459485370000010623730033938731944_">
							<use xlink:href="#SVGID_00000003107248274905798780000004797965500725929346_"  style="overflow:visible;"/>
						</clipPath>
						<g style="clip-path:url(#SVGID_00000142882989789459485370000010623730033938731944_);enable-background:new    ;">
							<path class="st1" d="M237.1,20.1v8.7c0-1.3-0.5-3.4-1-4.9v-8.7C236.6,16.7,237.1,18.8,237.1,20.1"/>
						</g>
					</g>
				</g>
				<g class="st0">
					<g>
						<defs>
							<path id="SVGID_00000083811384260676123800000013321412691215176894_" d="M236.5,30.1c-2.3,0-14.3,0.9-14.8,1v-8.7
								c0.5,0,12.5-1,14.8-1c0.2,0,0.2-0.1,0.3-0.1c0.2-0.2,0.2-0.6,0.2-1.1v8.7c0,0.5-0.1,0.9-0.2,1.1
								C236.8,30,236.7,30.1,236.5,30.1z"/>
						</defs>
						<clipPath id="SVGID_00000163782538434807811580000010658372325940702651_">
							<use xlink:href="#SVGID_00000083811384260676123800000013321412691215176894_"  style="overflow:visible;"/>
						</clipPath>
						<g style="clip-path:url(#SVGID_00000163782538434807811580000010658372325940702651_);enable-background:new    ;">
							<path class="st6" d="M237.1,20.1v8.7c0,0.3,0,0.5-0.1,0.7v-8.7C237.1,20.6,237.1,20.4,237.1,20.1"/>
							<path class="st5" d="M237,20.8v8.7c0,0.1-0.1,0.2-0.1,0.3v-8.7C237,21,237,20.9,237,20.8"/>
							<path class="st4" d="M236.9,21.1v8.7c0,0,0,0.1-0.1,0.1l0,0v-8.7l0,0C236.9,21.2,236.9,21.2,236.9,21.1"/>
							<path class="st18" d="M236.8,21.3V30c-0.1,0.1-0.1,0.1-0.3,0.1c-2.3,0-14.3,0.9-14.8,1v-8.7c0.5,0,12.5-1,14.8-1
								C236.7,21.4,236.8,21.3,236.8,21.3"/>
						</g>
					</g>
				</g>
				<g>
					<polygon class="st12" points="221.7,22.4 221.7,31 221.5,31.1 221.5,22.4 					"/>
				</g>
				<g class="st0">
					<g>
						<defs>
							<path id="SVGID_00000054975350890308546580000000417667223064322434_" d="M238.1,20.1v8.7c0,0.7-0.1,1.3-0.4,1.7
								c-0.3,0.4-0.6,0.5-1.1,0.5c-2.1,0-12.9,0.8-14.5,1v-8.7c1.6-0.1,12.5-1,14.5-1c0.5,0,0.8-0.2,1.1-0.5
								C238,21.4,238.1,20.8,238.1,20.1z"/>
						</defs>
						<clipPath id="SVGID_00000069376117996903739630000013212589253522092210_">
							<use xlink:href="#SVGID_00000054975350890308546580000000417667223064322434_"  style="overflow:visible;"/>
						</clipPath>
						<g style="clip-path:url(#SVGID_00000069376117996903739630000013212589253522092210_);enable-background:new    ;">
							<path class="st10" d="M238.1,20.1v8.7c0,0.4,0,0.7-0.1,1V21C238,20.8,238.1,20.4,238.1,20.1"/>
							<path class="st9" d="M238,21v8.7c0,0.2-0.1,0.3-0.2,0.5v-8.7C237.9,21.4,237.9,21.2,238,21"/>
							<path class="st8" d="M237.8,21.5v8.7c0,0.1-0.1,0.2-0.2,0.3c0,0,0,0,0,0.1v-8.7c0,0,0,0,0-0.1
								C237.7,21.7,237.8,21.6,237.8,21.5"/>
							<path class="st1" d="M237.6,21.9v8.7c-0.3,0.3-0.6,0.5-1.1,0.5c-2.1,0-12.9,0.8-14.5,1v-8.7c1.6-0.1,12.5-1,14.5-1
								C237,22.4,237.4,22.2,237.6,21.9"/>
						</g>
					</g>
				</g>
				<g>
					<polygon class="st20" points="221.5,22.4 221.5,31.1 216.2,37.3 216.2,28.6 					"/>
				</g>
				<g>
					<path class="st14" d="M227.1,2.6l8.2,0.6l5.2,6L236,15l0.1,0.2c0.7,2,1.4,5.2,0.8,6c-0.1,0.1-0.1,0.1-0.3,0.1
						c-2.3,0-14.3,0.9-14.8,1h-0.2l-5.3,6.2l-2.4,0.8l-4.4-10.8l1.3-9l8.3-3.8L227.1,2.6z"/>
				</g>
				<g>
					<polygon class="st12" points="216.2,28.6 216.2,37.3 213.8,38 213.8,29.4 					"/>
				</g>
				<g>
					<polygon class="st12" points="213.8,29.4 213.8,38 209.4,27.3 209.4,18.6 					"/>
				</g>
				<g>
					<polygon class="st1" points="222,23.3 222,32 216.8,38.1 216.8,29.4 					"/>
				</g>
				<g>
					<polygon class="st2" points="213.2,30.6 213.2,39.3 208.4,27.4 208.4,18.7 					"/>
				</g>
				<g>
					<polygon class="st2" points="216.8,29.4 216.8,38.1 213.2,39.3 213.2,30.6 					"/>
				</g>
				<g>
					<path class="st13" d="M241.8,9.2l-4.7,5.9c0.4,1.3,1.6,5.2,0.5,6.6c-0.3,0.4-0.6,0.5-1.1,0.5c-2.1,0-12.9,0.8-14.5,1l-5.2,6.1
						l-3.5,1.2l-4.8-11.9l1.4-9.8l8.8-4l8.4-3.3l8.9,0.7L241.8,9.2z M236.8,21.2c0.6-0.8-0.1-4-0.8-6V15l4.5-5.7l-5.2-6l-8.2-0.6
						L219,5.9l-8.3,3.8l-1.3,9l4.4,10.8l2.4-0.8l5.3-6.2h0.2c0.5,0,12.5-1,14.8-1C236.7,21.4,236.8,21.3,236.8,21.2"/>
				</g>
			</g>
		</g>
	</g>
	<g id="path2437">
		<g>
			<g class="st0">
				<g>
					<rect x="214" y="49.4" class="st2" width="11.1" height="8.7"/>
				</g>
				<g>
					<polygon class="st2" points="182.5,51.1 182.5,59.8 172.4,55.9 172.4,47.2 					"/>
				</g>
				<g>
					<polygon class="st1" points="172.4,47.2 172.4,55.9 168,61 168,52.3 					"/>
				</g>
				<g>
					<polygon class="st2" points="229.2,52.6 229.2,61.2 225,58.1 225,49.4 					"/>
				</g>
				<g>
					<polygon class="st2" points="235.3,53 235.3,61.7 229.2,61.2 229.2,52.6 					"/>
				</g>
				<g>
					<polygon class="st9" points="214,49.4 214,58.1 211.7,64.7 211.7,56.1 					"/>
				</g>
				<g>
					<polygon class="st9" points="168,52.3 168,61 165.7,66.5 165.7,57.8 					"/>
				</g>
				<g>
					<polygon class="st2" points="184.6,58.1 184.6,66.8 182.5,59.8 182.5,51.1 					"/>
				</g>
				<g>
					<polygon class="st12" points="184.6,58.1 184.6,66.8 179.6,67.7 179.6,59 					"/>
				</g>
				<g>
					<polygon class="st2" points="211.7,56.1 211.7,64.7 206.7,67.9 206.7,59.2 					"/>
				</g>
				<g>
					<polygon class="st2" points="185.9,58.9 185.9,67.6 180.6,68.5 180.6,59.8 					"/>
				</g>
				<g>
					<polygon class="st5" points="235.3,53 235.3,61.7 232.7,70.6 232.7,62 					"/>
				</g>
				<g>
					<polygon class="st9" points="236.6,52.1 236.6,60.8 233.6,71 233.6,62.3 					"/>
				</g>
				<g>
					<polygon class="st9" points="165.7,57.8 165.7,66.5 162.5,72.8 162.5,64.1 					"/>
				</g>
				<g>
					<polygon class="st2" points="183.4,65.7 183.4,74.4 179.6,73 179.6,64.3 					"/>
				</g>
				<g>
					<polygon class="st21" points="232.7,62 232.7,70.6 230.7,75 230.7,66.3 					"/>
				</g>
				<g>
					<polygon class="st9" points="233.6,62.3 233.6,71 231.8,74.9 231.8,66.2 					"/>
				</g>
				<g>
					<polygon class="st12" points="209,66.8 209,75.5 206.7,67.9 206.7,59.2 					"/>
				</g>
				<g>
					<polygon class="st2" points="207.9,66.7 207.9,75.4 205.6,67.4 205.6,58.7 					"/>
				</g>
				<g>
					<polygon class="st2" points="185.6,74 185.6,82.7 183.4,74.4 183.4,65.7 					"/>
				</g>
				<g>
					<polygon class="st8" points="209,66.8 209,75.5 204.8,82.9 204.8,74.2 					"/>
				</g>
				<g>
					<polygon class="st2" points="236.8,74.7 236.8,83.4 230.7,75 230.7,66.3 					"/>
				</g>
				<g>
					<polygon class="st2" points="162.4,81.1 162.4,89.7 161.5,72.6 161.5,63.9 					"/>
				</g>
				<g>
					<polygon class="st22" points="185.6,74 185.6,82.7 180.6,89.8 180.6,81.1 					"/>
				</g>
				<g>
					<polygon class="st8" points="186.7,74.2 186.7,82.8 181.5,90.3 181.5,81.6 					"/>
				</g>
				<g>
					<polygon class="st12" points="163.4,81.7 163.4,90.4 162.5,72.8 162.5,64.1 					"/>
				</g>
				<g>
					<polygon class="st10" points="204.8,74.2 204.8,82.9 203.4,90.8 203.4,82.1 					"/>
				</g>
				<g>
					<polygon class="st2" points="163.4,81.7 163.4,90.4 156.8,92.8 156.8,84.1 					"/>
				</g>
				<g>
					<polygon class="st1" points="203.4,82.1 203.4,90.8 194.4,98.2 194.4,89.6 					"/>
				</g>
				<g>
					<polygon class="st23" points="180.6,81.1 180.6,89.8 176.8,98.7 176.8,90 					"/>
				</g>
				<g>
					<polygon class="st9" points="181.5,81.6 181.5,90.3 177.8,98.9 177.8,90.2 					"/>
				</g>
				<g>
					<polygon class="st2" points="245.9,92.8 245.9,101.5 236.8,96.8 236.8,88.1 					"/>
				</g>
				<g>
					<polygon class="st9" points="156.8,84.1 156.8,92.8 152.1,103.7 152.1,95 					"/>
				</g>
				<g>
					<polygon class="st1" points="194.4,89.6 194.4,98.2 188.8,105.2 188.8,96.5 					"/>
				</g>
				<g>
					<polygon class="st2" points="268.8,95.7 268.8,104.4 264.2,106 264.2,97.4 					"/>
				</g>
				<g>
					<polygon class="st2" points="188.8,96.5 188.8,105.2 177.3,107.1 177.3,98.5 					"/>
				</g>
				<g>
					<polygon class="st2" points="177.3,98.5 177.3,107.1 176.8,98.7 176.8,90 					"/>
				</g>
				<g>
					<polygon class="st2" points="257,99.6 257,108.3 245.9,101.5 245.9,92.8 					"/>
				</g>
				<g>
					<polygon class="st1" points="152.1,95 152.1,103.7 144.8,110.5 144.8,101.8 					"/>
				</g>
				<g>
					<polygon class="st2" points="276.1,103.4 276.1,112 268.8,104.4 268.8,95.7 					"/>
				</g>
				<g>
					<polygon class="st2" points="261.2,104.3 261.2,113 257,108.3 257,99.6 					"/>
				</g>
				<g>
					<polygon class="st9" points="264.2,97.4 264.2,106 261.2,113 261.2,104.3 					"/>
				</g>
				<g>
					<polygon class="st2" points="286.7,106.5 286.7,115.2 276.1,112 276.1,103.4 					"/>
				</g>
				<g>
					<polygon class="st10" points="144.8,101.8 144.8,110.5 143.8,116 143.8,107.4 					"/>
				</g>
				<g>
					<polygon class="st2" points="143.8,107.4 143.8,116 137.6,119.4 137.6,110.7 					"/>
				</g>
				<g>
					<polygon class="st2" points="290.3,114.9 290.3,123.6 286.7,115.2 286.7,106.5 					"/>
				</g>
				<g>
					<polygon class="st1" points="137.6,110.7 137.6,119.4 127.5,126.6 127.5,117.9 					"/>
				</g>
				<g>
					<polygon class="st9" points="127.5,117.9 127.5,126.6 126.1,130.7 126.1,122 					"/>
				</g>
				<g>
					<polygon class="st1" points="126.1,122 126.1,130.7 119,136.3 119,127.6 					"/>
				</g>
				<g>
					<polygon class="st2" points="291.7,130.8 291.7,139.5 290.3,123.6 290.3,114.9 					"/>
				</g>
				<g>
					<polygon class="st1" points="119,127.6 119,136.3 113.6,141.2 113.6,132.5 					"/>
				</g>
				<g>
					<polygon class="st12" points="117.5,133.7 117.5,142.4 113.6,141.2 113.6,132.5 					"/>
				</g>
				<g>
					<polygon class="st2" points="116.3,134.4 116.3,143.1 111.7,141.6 111.7,132.9 					"/>
				</g>
				<g>
					<polygon class="st24" points="291.7,130.8 291.7,139.5 290.4,147.3 290.4,138.6 					"/>
				</g>
				<g>
					<rect x="283.6" y="138.6" class="st12" width="6.7" height="8.7"/>
				</g>
				<g>
					<polygon class="st9" points="117.5,133.7 117.5,142.4 115.9,147.8 115.9,139.1 					"/>
				</g>
				<g>
					<polygon class="st2" points="115.9,139.1 115.9,147.8 108.7,148.3 108.7,139.6 					"/>
				</g>
				<g>
					<rect x="284" y="139.6" class="st2" width="7.2" height="8.7"/>
				</g>
				<g>
					<polygon class="st10" points="292.7,130.9 292.7,139.6 291.2,148.3 291.2,139.6 					"/>
				</g>
				<g>
					<polygon class="st25" points="283.6,138.6 283.6,147.3 278.2,152.2 278.2,143.5 					"/>
				</g>
				<g>
					<polygon class="st1" points="284,139.6 284,148.3 279.2,152.6 279.2,143.9 					"/>
				</g>
				<g>
					<polygon class="st1" points="108.7,139.6 108.7,148.3 103.8,152.7 103.8,144 					"/>
				</g>
				<g>
					<polygon class="st2" points="279.1,150.2 279.1,158.8 278.2,152.2 278.2,143.5 					"/>
				</g>
				<g>
					<polygon class="st9" points="103.8,144 103.8,152.7 100.5,159.1 100.5,150.5 					"/>
				</g>
				<g>
					<polygon class="st2" points="100.5,150.5 100.5,159.1 94.3,162.4 94.3,153.7 					"/>
				</g>
				<g>
					<polygon class="st12" points="100.9,156.3 100.9,164.9 94.3,162.4 94.3,153.7 					"/>
				</g>
				<g>
					<polygon class="st2" points="99.4,156.7 99.4,165.4 92,162.5 92,153.8 					"/>
				</g>
				<g>
					<polygon class="st2" points="283.3,157.5 283.3,166.2 279.1,158.8 279.1,150.2 					"/>
				</g>
				<g>
					<polygon class="st8" points="100.9,156.3 100.9,164.9 97.4,170.4 97.4,161.7 					"/>
				</g>
				<g>
					<polygon class="st10" points="284.3,157.3 284.3,166 283.8,172 283.8,163.3 					"/>
				</g>
				<g>
					<polygon class="st26" points="283.3,157.5 283.3,166.2 282.8,172 282.8,163.3 					"/>
				</g>
				<g>
					<polygon class="st2" points="330.5,160 330.5,168.7 322.2,173.8 322.2,165.2 					"/>
				</g>
				<g>
					<polygon class="st15" points="291,163.1 291,171.8 287.1,176.6 287.1,167.9 					"/>
				</g>
				<g>
					<polygon class="st1" points="292.2,163.6 292.2,172.2 289.7,174.3 289.7,165.6 					"/>
				</g>
				<g>
					<polygon class="st2" points="334.5,169.4 334.5,178.1 330.5,168.7 330.5,160 					"/>
				</g>
				<g>
					<polygon class="st2" points="285,169.7 285,178.4 282.8,172.1 282.8,163.4 					"/>
				</g>
				<g>
					<polygon class="st1" points="289.7,165.6 289.7,174.3 285,178.4 285,169.7 					"/>
				</g>
				<g>
					<polygon class="st15" points="284,180.3 284,171.7 287.1,167.9 287.1,176.6 					"/>
				</g>
				<g>
					<polygon class="st1" points="294,163.2 294,171.9 284.5,181.2 284.5,172.5 					"/>
				</g>
				<g>
					<polygon class="st2" points="304.7,173.5 304.7,182.2 298,181.8 298,173.1 					"/>
				</g>
				<g>
					<polygon class="st1" points="322.2,165.2 322.2,173.8 311.4,183.1 311.4,174.4 					"/>
				</g>
				<g>
					<polygon class="st2" points="311.4,174.4 311.4,183.1 304.7,182.2 304.7,173.5 					"/>
				</g>
				<g>
					<polygon class="st1" points="97.4,166.3 97.4,175 90.9,183.2 90.9,174.5 					"/>
				</g>
				<g>
					<polygon class="st2" points="339.5,177.2 339.5,185.9 334.5,186.3 334.5,177.7 					"/>
				</g>
				<g>
					<polygon class="st12" points="300.3,179.4 300.3,188.1 298,181.8 298,173.1 					"/>
				</g>
				<g>
					<polygon class="st2" points="298.9,178.5 298.9,187.1 296.6,180.7 296.6,172 					"/>
				</g>
				<g>
					<polygon class="st2" points="291.2,178.5 291.2,187.2 286.3,187.2 286.3,178.5 					"/>
				</g>
				<g>
					<polygon class="st2" points="296.4,179.4 296.4,188.1 291.2,187.2 291.2,178.5 					"/>
				</g>
				<g>
					<rect x="296.4" y="179.4" class="st2" width="4" height="8.7"/>
				</g>
				<g>
					<polygon class="st12" points="284,171.7 284,180.3 259.5,190.6 259.5,181.9 					"/>
				</g>
				<g>
					<polygon class="st2" points="284.5,172.5 284.5,181.2 265.3,189.2 265.3,180.6 					"/>
				</g>
				<g>
					<polygon class="st1" points="286.3,178.5 286.3,187.2 283.5,189 283.5,180.3 					"/>
				</g>
				<g>
					<polygon class="st2" points="283.5,180.3 283.5,189 259.5,190.6 259.5,181.9 					"/>
				</g>
				<g>
					<polygon class="st26" points="339.5,177.2 339.5,185.9 339.1,190.8 339.1,182.2 					"/>
				</g>
				<g>
					<polygon class="st10" points="340.6,176.1 340.6,184.8 340.1,190.9 340.1,182.2 					"/>
				</g>
				<g>
					<rect x="325.6" y="188.5" class="st12" width="6.9" height="8.7"/>
				</g>
				<g>
					<polygon class="st12" points="339.1,186.4 339.1,195.1 332.5,197.2 332.5,188.5 					"/>
				</g>
				<g>
					<polygon class="st1" points="90.9,185.5 90.9,194.2 87.4,198.1 87.4,189.4 					"/>
				</g>
				<g>
					<polygon class="st12" points="325.6,188.5 325.6,197.2 315.4,198.2 315.4,189.5 					"/>
				</g>
				<g>
					<rect x="325.6" y="189.5" class="st2" width="7" height="8.7"/>
				</g>
				<g>
					<polygon class="st2" points="340.1,187.1 340.1,195.8 332.6,198.2 332.6,189.5 					"/>
				</g>
				<g>
					<polygon class="st2" points="325.6,189.5 325.6,198.2 316.4,199.1 316.4,190.4 					"/>
				</g>
				<g>
					<polygon class="st2" points="359.6,190.9 359.6,199.6 350.5,197.8 350.5,189.1 					"/>
				</g>
				<g>
					<polygon class="st2" points="366.6,191.3 366.6,200 359.6,199.6 359.6,190.9 					"/>
				</g>
				<g>
					<polygon class="st2" points="372.3,191.6 372.3,200.2 366.6,200 366.6,191.3 					"/>
				</g>
				<g>
					<polygon class="st2" points="378.1,192.2 378.1,200.9 372.3,200.2 372.3,191.6 					"/>
				</g>
				<g>
					<polygon class="st2" points="87.4,189.4 87.4,198.1 75.4,203.1 75.4,194.5 					"/>
				</g>
				<g>
					<polygon class="st1" points="350.5,189.1 350.5,197.8 344.3,204.3 344.3,195.6 					"/>
				</g>
				<g>
					<polygon class="st2" points="386.9,198.3 386.9,207 378.1,200.9 378.1,192.2 					"/>
				</g>
				<g>
					<polygon class="st2" points="317.8,198.4 317.8,207.1 315.4,204.3 315.4,195.6 					"/>
				</g>
				<g>
					<polygon class="st8" points="75.4,194.5 75.4,203.1 72.3,207.9 72.3,199.3 					"/>
				</g>
				<g>
					<polygon class="st2" points="337.2,201.7 337.2,210.4 333.2,208.8 333.2,200.1 					"/>
				</g>
				<g>
					<polygon class="st10" points="344.3,195.6 344.3,204.3 343.8,211.3 343.8,202.6 					"/>
				</g>
				<g>
					<polygon class="st2" points="395.1,203.4 395.1,212.1 386.9,207 386.9,198.3 					"/>
				</g>
				<g>
					<polygon class="st1" points="333.2,200.1 333.2,208.8 329.6,212.8 329.6,204.1 					"/>
				</g>
				<g>
					<polygon class="st2" points="343.8,202.6 343.8,211.3 337.2,214 337.2,205.3 					"/>
				</g>
				<g>
					<polygon class="st2" points="329.6,204.1 329.6,212.8 321.2,214.8 321.2,206.1 					"/>
				</g>
				<g>
					<polygon class="st2" points="321.2,206.1 321.2,214.8 317.8,207.1 317.8,198.4 					"/>
				</g>
				<g>
					<polygon class="st2" points="400.1,207.3 400.1,216 395.1,212.1 395.1,203.4 					"/>
				</g>
				<g>
					<polygon class="st10" points="72.3,199.3 72.3,207.9 71.8,217.1 71.8,208.4 					"/>
				</g>
				<g>
					<polygon class="st12" points="400.1,207.3 400.1,216 394.5,217.2 394.5,208.5 					"/>
				</g>
				<g>
					<polygon class="st2" points="402.4,207.9 402.4,216.5 395.5,218 395.5,209.3 					"/>
				</g>
				<g>
					<polygon class="st2" points="410.1,212.3 410.1,221 401.4,221.3 401.4,212.6 					"/>
				</g>
				<g>
					<polygon class="st10" points="401.4,212.6 401.4,221.3 401.1,223.9 401.1,215.3 					"/>
				</g>
				<g>
					<polygon class="st9" points="71.8,208.4 71.8,217.1 69,224 69,215.3 					"/>
				</g>
				<g>
					<polygon class="st9" points="401.1,215.3 401.1,223.9 399.1,227.8 399.1,219.1 					"/>
				</g>
				<g>
					<polygon class="st2" points="412,219.6 412,228.3 410.1,221 410.1,212.3 					"/>
				</g>
				<g>
					<polygon class="st10" points="35.2,212.2 35.2,220.9 34.6,229.1 34.6,220.4 					"/>
				</g>
				<g>
					<polygon class="st10" points="395.5,214.4 395.5,223.1 395.2,229.1 395.2,220.5 					"/>
				</g>
				<g>
					<polygon class="st27" points="394.5,214.4 394.5,223 394.2,229.3 394.2,220.6 					"/>
				</g>
				<g>
					<polygon class="st1" points="34,215.3 34,224 27.5,231.9 27.5,223.2 					"/>
				</g>
				<g>
					<polygon class="st26" points="34,215.3 34,224 33.6,229.5 33.6,220.8 					"/>
				</g>
				<g>
					<polygon class="st2" points="421.1,223.2 421.1,231.9 412,228.3 412,219.6 					"/>
				</g>
				<g>
					<polygon class="st2" points="45.7,223.4 45.7,232.1 36.7,232.6 36.7,223.9 					"/>
				</g>
				<g>
					<polygon class="st2" points="36.7,223.9 36.7,232.6 33.6,229.5 33.6,220.8 					"/>
				</g>
				<g>
					<polygon class="st2" points="55.8,224.8 55.8,233.5 45.7,232.1 45.7,223.4 					"/>
				</g>
				<g class="st0">
					<g>
						<defs>
							<path id="SVGID_00000158020515488906178640000010993343069335823539_" d="M69,215.3v8.7c-1.5,2.2-5.2,8.1-5.6,9.6v-8.7
								C63.8,223.4,67.5,217.5,69,215.3z"/>
						</defs>
						<clipPath id="SVGID_00000065784056334563032200000002810916756786483083_">
							<use xlink:href="#SVGID_00000158020515488906178640000010993343069335823539_"  style="overflow:visible;"/>
						</clipPath>
						<g style="clip-path:url(#SVGID_00000065784056334563032200000002810916756786483083_);enable-background:new    ;">
							<path class="st8" d="M69,215.3v8.7c-1.3,1.9-4.2,6.6-5.3,8.8v-8.7C64.7,221.9,67.7,217.2,69,215.3"/>
							<path class="st9" d="M63.7,224.1v8.7c-0.2,0.3-0.3,0.6-0.3,0.8v-8.7C63.5,224.7,63.6,224.4,63.7,224.1"/>
						</g>
					</g>
				</g>
				<g class="st0">
					<g>
						<defs>
							<path id="SVGID_00000047775273743887373620000016389606271632725939_" d="M63.4,224.9v8.7c-1,1-1.5,1.1-2.1,1.1
								c-2,0-4.9-1-5.5-1.2v-8.7c0.6,0.2,3.5,1.2,5.5,1.2C61.9,225.9,62.4,225.9,63.4,224.9z"/>
						</defs>
						<clipPath id="SVGID_00000150798118151048078350000016788453039434851214_">
							<use xlink:href="#SVGID_00000047775273743887373620000016389606271632725939_"  style="overflow:visible;"/>
						</clipPath>
						<g style="clip-path:url(#SVGID_00000150798118151048078350000016788453039434851214_);enable-background:new    ;">
							<path class="st1" d="M63.4,224.9v8.7c-1,1-1.5,1.1-2.1,1.1c-2,0-4.9-1-5.5-1.2v-8.7c0.6,0.2,3.5,1.2,5.5,1.2
								C61.9,225.9,62.4,225.9,63.4,224.9"/>
						</g>
					</g>
				</g>
				<g>
					<polygon class="st9" points="399.1,219.1 399.1,227.8 396.8,235.2 396.8,226.5 					"/>
				</g>
				<g>
					<polygon class="st2" points="396.8,226.5 396.8,235.2 394.2,229.3 394.2,220.6 					"/>
				</g>
				<g>
					<polygon class="st2" points="431.5,229.3 431.5,238 421.1,231.9 421.1,223.2 					"/>
				</g>
				<g>
					<polygon class="st1" points="27.5,223.2 27.5,231.9 16.8,242 16.8,233.3 					"/>
				</g>
				<g>
					<polygon class="st2" points="437.3,234.4 437.3,243.1 431.5,238 431.5,229.3 					"/>
				</g>
				<g>
					<polygon class="st2" points="472.4,235.7 472.4,244.4 466.4,242.2 466.4,233.5 					"/>
				</g>
				<g>
					<polygon class="st2" points="466.4,233.5 466.4,242.2 462.4,244.4 462.4,235.7 					"/>
				</g>
				<g>
					<polygon class="st2" points="449.5,236 449.5,244.6 446.6,245.5 446.6,236.8 					"/>
				</g>
				<g>
					<polygon class="st2" points="454.3,237.5 454.3,246.1 449.5,244.6 449.5,236 					"/>
				</g>
				<g>
					<polygon class="st10" points="462.4,235.7 462.4,244.4 462.1,247.5 462.1,238.8 					"/>
				</g>
				<g>
					<polygon class="st2" points="479.4,239 479.4,247.7 472.4,244.4 472.4,235.7 					"/>
				</g>
				<g>
					<polygon class="st2" points="455,239.4 455,248 454.3,246.1 454.3,237.5 					"/>
				</g>
				<g>
					<polygon class="st2" points="462.1,238.8 462.1,247.5 455,248 455,239.4 					"/>
				</g>
				<g>
					<polygon class="st8" points="446.6,236.8 446.6,245.5 444.3,249.1 444.3,240.4 					"/>
				</g>
				<g>
					<polygon class="st2" points="444.3,240.4 444.3,249.1 439.4,249.8 439.4,241.2 					"/>
				</g>
				<g>
					<polygon class="st2" points="439.4,241.2 439.4,249.8 437.3,243.1 437.3,234.4 					"/>
				</g>
				<g>
					<polygon class="st1" points="16.8,233.3 16.8,242 4.1,252.7 4.1,244.1 					"/>
				</g>
				<g>
					<polygon class="st2" points="481.5,249.3 481.5,258 479.4,253.2 479.4,244.5 					"/>
				</g>
				<g>
					<polygon class="st12" points="12.6,256 12.6,264.7 4.1,252.7 4.1,244.1 					"/>
				</g>
				<g>
					<polygon class="st2" points="11.8,256.6 11.8,265.3 2.7,252.6 2.7,243.9 					"/>
				</g>
				<g>
					<polygon class="st26" points="481.5,249.3 481.5,258 480.7,265.8 480.7,257.2 					"/>
				</g>
				<g>
					<polygon class="st10" points="482.5,249.1 482.5,257.8 481.6,266.2 481.6,257.5 					"/>
				</g>
				<g>
					<polygon class="st30" points="480.7,257.2 480.7,265.8 477.4,272 477.4,263.3 					"/>
				</g>
				<g>
					<polygon class="st9" points="481.6,257.5 481.6,266.2 478.3,272.4 478.3,263.7 					"/>
				</g>
				<g>
					<polygon class="st12" points="35.4,261 35.4,269.6 24.9,272.7 24.9,264.1 					"/>
				</g>
				<g>
					<polygon class="st12" points="24.9,264.1 24.9,272.7 12.6,264.7 12.6,256 					"/>
				</g>
				<g>
					<polygon class="st2" points="24.7,265.1 24.7,273.8 11.8,265.3 11.8,256.6 					"/>
				</g>
				<g>
					<polygon class="st2" points="32.8,262.7 32.8,271.4 24.7,273.8 24.7,265.1 					"/>
				</g>
				<g>
					<polygon class="st31" points="477.4,263.3 477.4,272 476.2,275.4 476.2,266.7 					"/>
				</g>
				<g>
					<polygon class="st9" points="478.3,263.7 478.3,272.4 477,276 477,267.3 					"/>
				</g>
				<g>
					<polygon class="st8" points="35.4,260.9 35.4,269.6 29.5,277.6 29.5,268.9 					"/>
				</g>
				<g>
					<polygon class="st32" points="476.2,266.7 476.2,275.4 467.9,281.6 467.9,272.9 					"/>
				</g>
				<g>
					<polygon class="st1" points="477,267.3 477,276 468.4,282.5 468.4,273.8 					"/>
				</g>
				<g>
					<polygon class="st12" points="467.9,272.9 467.9,281.6 459.7,285.1 459.7,276.4 					"/>
				</g>
				<g>
					<polygon class="st2" points="468.4,273.8 468.4,282.5 460,286 460,277.3 					"/>
				</g>
				<g>
					<polygon class="st12" points="459.7,276.4 459.7,285.1 449.9,288.3 449.9,279.6 					"/>
				</g>
				<g>
					<polygon class="st12" points="449.9,279.6 449.9,288.3 442.2,288.5 442.2,279.8 					"/>
				</g>
				<g>
					<polygon class="st2" points="460,277.3 460,286 449.9,289.3 449.9,280.6 					"/>
				</g>
				<g>
					<polygon class="st2" points="449.9,280.6 449.9,289.3 442.3,289.5 442.3,280.8 					"/>
				</g>
				<g>
					<polygon class="st12" points="378,284.8 378,293.5 367.6,293 367.6,284.3 					"/>
				</g>
				<g>
					<polygon class="st12" points="442.2,279.8 442.2,288.5 431.5,293.5 431.5,284.9 					"/>
				</g>
				<g>
					<polygon class="st2" points="442.3,280.8 442.3,289.5 431.9,294.4 431.9,285.7 					"/>
				</g>
				<g>
					<polygon class="st2" points="377.5,285.8 377.5,294.5 368.5,294 368.5,285.3 					"/>
				</g>
				<g>
					<polygon class="st2" points="29.5,283.7 29.5,292.4 16.7,295.7 16.7,287 					"/>
				</g>
				<g>
					<polygon class="st10" points="368.5,285.3 368.5,294 368.4,295.9 368.4,287.2 					"/>
				</g>
				<g>
					<polygon class="st26" points="367.6,284.3 367.6,293 367.4,296.3 367.4,287.7 					"/>
				</g>
				<g>
					<polygon class="st12" points="365.4,287.7 365.4,296.4 360.1,296.7 360.1,288.1 					"/>
				</g>
				<g>
					<polygon class="st12" points="369.4,289.1 369.4,297.8 367.9,297.2 367.9,288.6 					"/>
				</g>
				<g>
					<polygon class="st2" points="368.5,289.9 368.5,298.5 367.4,296.3 367.4,287.7 					"/>
				</g>
				<g>
					<polygon class="st12" points="365.4,296.4 365.4,287.7 367.9,288.6 367.9,297.2 					"/>
				</g>
				<g>
					<polygon class="st2" points="365.1,288.7 365.1,297.4 360.3,297.7 360.3,289 					"/>
				</g>
				<g>
					<polygon class="st12" points="381.2,289.5 381.2,298.2 378,293.5 378,284.8 					"/>
				</g>
				<g>
					<polygon class="st2" points="380.3,289.9 380.3,298.6 377.5,294.5 377.5,285.8 					"/>
				</g>
				<g>
					<polygon class="st12" points="431.5,284.9 431.5,293.5 417.9,298.9 417.9,290.2 					"/>
				</g>
				<g>
					<polygon class="st12" points="360.1,288.1 360.1,296.7 354.4,299.6 354.4,290.9 					"/>
				</g>
				<g>
					<polygon class="st2" points="431.9,285.7 431.9,294.4 418.4,299.8 418.4,291.1 					"/>
				</g>
				<g>
					<polygon class="st1" points="371,289 371,297.7 368.6,299.8 368.6,291.1 					"/>
				</g>
				<g>
					<polygon class="st2" points="368.6,291.1 368.6,299.8 365.1,297.4 365.1,288.7 					"/>
				</g>
				<g>
					<polygon class="st12" points="395.7,290.8 395.7,299.5 391.3,300.4 391.3,291.7 					"/>
				</g>
				<g>
					<polygon class="st2" points="360.3,289 360.3,297.7 354.8,300.4 354.8,291.7 					"/>
				</g>
				<g>
					<polygon class="st12" points="400.9,292.1 400.9,300.8 395.7,299.5 395.7,290.8 					"/>
				</g>
				<g>
					<polygon class="st2" points="395.7,291.8 395.7,300.5 392.2,301.2 392.2,292.5 					"/>
				</g>
				<g>
					<polygon class="st2" points="400.7,293.1 400.7,301.8 395.7,300.5 395.7,291.8 					"/>
				</g>
				<g>
					<polygon class="st12" points="406.1,293.1 406.1,301.8 400.9,300.8 400.9,292.1 					"/>
				</g>
				<g>
					<polygon class="st8" points="16.7,287 16.7,295.7 12.2,301.9 12.2,293.2 					"/>
				</g>
				<g>
					<polygon class="st33" points="354.4,290.9 354.4,299.6 349.6,302.1 349.6,293.5 					"/>
				</g>
				<g>
					<polygon class="st2" points="405.9,294 405.9,302.7 400.7,301.8 400.7,293.1 					"/>
				</g>
				<g>
					<polygon class="st2" points="354.8,291.7 354.8,300.4 350.1,303 350.1,294.3 					"/>
				</g>
				<g>
					<polygon class="st9" points="12.2,293.2 12.2,301.9 11.7,303.2 11.7,294.5 					"/>
				</g>
				<g>
					<polygon class="st34" points="391.3,291.7 391.3,300.4 390.7,303.4 390.7,294.7 					"/>
				</g>
				<g>
					<polygon class="st12" points="410.8,294.8 410.8,303.5 406.1,301.8 406.1,293.1 					"/>
				</g>
				<g>
					<polygon class="st33" points="417.9,290.2 417.9,298.9 410.8,303.5 410.8,294.8 					"/>
				</g>
				<g>
					<polygon class="st12" points="390.7,294.7 390.7,303.4 383.4,303.5 383.4,294.9 					"/>
				</g>
				<g>
					<polygon class="st12" points="383.4,294.9 383.4,303.5 381.2,298.2 381.2,289.5 					"/>
				</g>
				<g>
					<polygon class="st12" points="40.3,294.9 40.3,303.5 11.7,303.2 11.7,294.5 					"/>
				</g>
				<g>
					<polygon class="st10" points="392.2,292.5 392.2,301.2 391.5,304.3 391.5,295.7 					"/>
				</g>
				<g>
					<polygon class="st2" points="39.3,295.8 39.3,304.5 10.3,304.2 10.3,295.5 					"/>
				</g>
				<g>
					<polygon class="st2" points="391.5,295.7 391.5,304.3 382.7,304.5 382.7,295.8 					"/>
				</g>
				<g>
					<polygon class="st2" points="382.7,295.8 382.7,304.5 380.3,298.6 380.3,289.9 					"/>
				</g>
				<g>
					<polygon class="st2" points="410.9,295.9 410.9,304.6 405.9,302.7 405.9,294 					"/>
				</g>
				<g>
					<polygon class="st1" points="418.4,291.1 418.4,299.8 410.9,304.6 410.9,295.9 					"/>
				</g>
				<g>
					<polygon class="st20" points="349.6,293.5 349.6,302.1 344.8,307.7 344.8,299 					"/>
				</g>
				<g>
					<polygon class="st1" points="350.1,294.3 350.1,303 345.6,308.2 345.6,299.5 					"/>
				</g>
				<g>
					<polygon class="st12" points="40.4,301.2 40.4,309.8 40.3,303.5 40.3,294.9 					"/>
				</g>
				<g>
					<polygon class="st2" points="39.4,301.5 39.4,310.2 39.3,304.5 39.3,295.8 					"/>
				</g>
				<g>
					<polygon class="st4" points="344.8,299 344.8,307.7 342.8,311.1 342.8,302.4 					"/>
				</g>
				<g>
					<polygon class="st8" points="345.6,299.5 345.6,308.2 344,310.9 344,302.2 					"/>
				</g>
				<g>
					<polygon class="st2" points="345.6,305.1 345.6,313.7 342.8,311.1 342.8,302.4 					"/>
				</g>
				<g>
					<polygon class="st12" points="45.3,307.3 45.3,315.9 40.4,309.8 40.4,301.2 					"/>
				</g>
				<g>
					<polygon class="st2" points="44.1,307.4 44.1,316.1 39.4,310.2 39.4,301.5 					"/>
				</g>
				<g>
					<polygon class="st9" points="45.3,307.3 45.3,315.9 40.5,327 40.5,318.3 					"/>
				</g>
				<g>
					<polygon class="st2" points="353.7,318.6 353.7,327.3 345.6,313.7 345.6,305.1 					"/>
				</g>
				<g>
					<polygon class="st2" points="361.1,323.9 361.1,332.6 353.7,327.3 353.7,318.6 					"/>
				</g>
				<g>
					<polygon class="st1" points="40.5,318.3 40.5,327 33.5,335.3 33.5,326.7 					"/>
				</g>
				<g>
					<polygon class="st2" points="371.5,334.4 371.5,343.1 361.1,332.6 361.1,323.9 					"/>
				</g>
				<g>
					<polygon class="st2" points="383.5,336.9 383.5,345.5 381.4,344.7 381.4,336 					"/>
				</g>
				<g>
					<polygon class="st2" points="381.4,336 381.4,344.7 377.6,346 377.6,337.3 					"/>
				</g>
				<g>
					<polygon class="st2" points="377.6,337.3 377.6,346 371.5,343.1 371.5,334.4 					"/>
				</g>
				<g>
					<polygon class="st2" points="385.1,340.9 385.1,349.6 383.5,345.5 383.5,336.9 					"/>
				</g>
				<g>
					<polygon class="st2" points="397,342.3 397,351 393.1,352.7 393.1,344 					"/>
				</g>
				<g>
					<polygon class="st10" points="33.5,326.7 33.5,335.3 30.3,353 30.3,344.3 					"/>
				</g>
				<g>
					<polygon class="st27" points="397,342.3 397,351 396.8,353.9 396.8,345.3 					"/>
				</g>
				<g>
					<polygon class="st10" points="398,340.7 398,349.4 397.8,354.1 397.8,345.4 					"/>
				</g>
				<g>
					<polygon class="st10" points="386.2,340.8 386.2,349.5 385.7,354.3 385.7,345.7 					"/>
				</g>
				<g>
					<polygon class="st26" points="385.1,340.9 385.1,349.6 384.6,355.1 384.6,346.4 					"/>
				</g>
				<g>
					<polygon class="st2" points="390.3,347.9 390.3,356.6 384.6,355.1 384.6,346.4 					"/>
				</g>
				<g>
					<polygon class="st8" points="393.1,344 393.1,352.7 390.3,356.6 390.3,347.9 					"/>
				</g>
				<g>
					<polygon class="st9" points="397.8,345.4 397.8,354.1 397.1,357.1 397.1,348.4 					"/>
				</g>
				<g>
					<polygon class="st34" points="396.8,345.3 396.8,353.9 395.9,357.8 395.9,349.1 					"/>
				</g>
				<g>
					<polygon class="st2" points="400.5,350.5 400.5,359.2 395.9,357.8 395.9,349.1 					"/>
				</g>
				<g>
					<polygon class="st2" points="403.6,353.3 403.6,362 400.5,359.2 400.5,350.5 					"/>
				</g>
				<g>
					<polygon class="st12" points="403.6,353.3 403.6,362 399.5,363.6 399.5,354.9 					"/>
				</g>
				<g>
					<polygon class="st2" points="405.5,353.6 405.5,362.3 399.8,364.6 399.8,355.9 					"/>
				</g>
				<g>
					<polygon class="st12" points="399.5,354.9 399.5,363.6 394.3,365.1 394.3,356.4 					"/>
				</g>
				<g>
					<polygon class="st2" points="399.8,355.9 399.8,364.6 395.7,365.7 395.7,357 					"/>
				</g>
				<g>
					<polygon class="st12" points="38.2,361.5 38.2,370.2 30.3,353 30.3,344.3 					"/>
				</g>
				<g>
					<polygon class="st2" points="35.2,357.4 35.2,366.1 29.2,353.2 29.2,344.5 					"/>
				</g>
				<g>
					<polygon class="st12" points="286.9,359.1 286.9,367.8 285.9,364.2 285.9,355.5 					"/>
				</g>
				<g>
					<polygon class="st12" points="285.9,355.5 285.9,364.2 276.6,368.9 276.6,360.3 					"/>
				</g>
				<g>
					<polygon class="st2" points="286.1,359.8 286.1,368.5 285.2,365.6 285.2,356.9 					"/>
				</g>
				<g>
					<polygon class="st2" points="285.2,356.9 285.2,365.6 278.1,369.3 278.1,360.6 					"/>
				</g>
				<g>
					<polygon class="st2" points="396.6,361.1 396.6,369.8 394.3,365.1 394.3,356.4 					"/>
				</g>
				<g>
					<polygon class="st2" points="37.1,361.4 37.1,370 35.2,366.1 35.2,357.4 					"/>
				</g>
				<g>
					<rect x="171.6" y="363.3" class="st12" width="6.2" height="8.7"/>
				</g>
				<g>
					<polygon class="st12" points="393.7,363.8 393.7,372.5 382.2,372.4 382.2,363.7 					"/>
				</g>
				<g>
					<polygon class="st25" points="396.6,361.1 396.6,369.8 393.7,372.5 393.7,363.8 					"/>
				</g>
				<g>
					<polygon class="st12" points="295.5,364.2 295.5,372.9 286.9,367.8 286.9,359.1 					"/>
				</g>
				<g class="st0">
					<g>
						<defs>
							<path id="SVGID_00000112598670868813142230000000481709618603691398_" d="M108.4,373c-1-0.4-4.6-1.2-5.4-1.4v-8.7
								c0.7,0.2,4.3,1,5.4,1.4c0,0.3,0,0.7,0,0.9c0,0.3,0,0.7,0,1s0,0.7,0,1s0,0.7,0,1.1c0,0.3,0,0.7,0,1.1c0,0.3,0,0.7,0,1
								s0,0.7,0,1s0,0.7,0,0.9c0,0,0,0,0,0.1c0,0,0,0,0,0.1v0.1v0.1v0.1V373C108.4,372.9,108.4,372.9,108.4,373
								C108.4,372.9,108.4,373,108.4,373z"/>
						</defs>
						<clipPath id="SVGID_00000086663190397274538970000003215473735103765156_">
							<use xlink:href="#SVGID_00000112598670868813142230000000481709618603691398_"  style="overflow:visible;"/>
						</clipPath>
						<g style="clip-path:url(#SVGID_00000086663190397274538970000003215473735103765156_);enable-background:new    ;">
							<path class="st18" d="M113.1,368.8v8.7c-1.3-1.3-3.9-4.1-4.5-4.4c-0.7-0.3-4.7-1.3-5.5-1.5v-8.7c0.8,0.2,4.9,1.2,5.5,1.5
								C109.2,364.7,111.8,367.4,113.1,368.8"/>
						</g>
					</g>
				</g>
				<g>
					<rect x="172.3" y="364.3" class="st2" width="5" height="8.7"/>
				</g>
				<g>
					<polygon class="st12" points="121.8,363.7 121.8,372.3 116.6,373 116.6,364.3 					"/>
				</g>
				<g>
					<rect x="65.6" y="364.5" class="st12" width="4.4" height="8.7"/>
				</g>
				<g>
					<rect x="362.1" y="364.5" class="st12" width="7.6" height="8.7"/>
				</g>
				<g>
					<polygon class="st12" points="382.2,363.7 382.2,372.4 369.7,373.2 369.7,364.5 					"/>
				</g>
				<g>
					<polygon class="st12" points="234.5,364.5 234.5,373.2 229.4,371.8 229.4,363.1 					"/>
				</g>
				<g>
					<polygon class="st2" points="394.1,364.8 394.1,373.5 382.2,373.3 382.2,364.7 					"/>
				</g>
				<g>
					<polygon class="st1" points="397.8,361.4 397.8,370 394.1,373.5 394.1,364.8 					"/>
				</g>
				<g>
					<polygon class="st2" points="295,365.1 295,373.8 286.1,368.5 286.1,359.8 					"/>
				</g>
				<g>
					<polygon class="st2" points="280,365.2 280,373.9 276.6,368.9 276.6,360.3 					"/>
				</g>
				<g>
					<polygon class="st12" points="127.5,365.2 127.5,373.9 121.8,372.3 121.8,363.7 					"/>
				</g>
				<g class="st0">
					<g>
						<defs>
							<path id="SVGID_00000121274787606531015550000017462685319031838599_" d="M108.1,365.3v8.7c-0.4-0.2-3.2-0.9-5.1-1.4v-8.7
								C104.9,364.3,107.7,365,108.1,365.3z"/>
						</defs>
						<clipPath id="SVGID_00000124132665471350511740000006016249346481182645_">
							<use xlink:href="#SVGID_00000121274787606531015550000017462685319031838599_"  style="overflow:visible;"/>
						</clipPath>
						<g style="clip-path:url(#SVGID_00000124132665471350511740000006016249346481182645_);enable-background:new    ;">
							<path class="st1" d="M108.1,365.3v8.7c-0.4-0.2-3.2-0.9-5.1-1.4v-8.7C104.9,364.3,107.7,365,108.1,365.3"/>
						</g>
					</g>
				</g>
				<g>
					<polygon class="st2" points="121.8,364.7 121.8,373.3 117.1,374 117.1,365.3 					"/>
				</g>
				<g>
					<polygon class="st12" points="298.8,365.4 298.8,374.1 295.5,372.9 295.5,364.2 					"/>
				</g>
				<g>
					<polygon class="st2" points="234,365.4 234,374.1 229.9,373 229.9,364.3 					"/>
				</g>
				<g>
					<polygon class="st2" points="382.2,364.7 382.2,373.3 369.8,374.1 369.8,365.5 					"/>
				</g>
				<g>
					<rect x="66.3" y="365.5" class="st2" width="3.2" height="8.7"/>
				</g>
				<g>
					<rect x="362.6" y="365.5" class="st2" width="7.2" height="8.7"/>
				</g>
				<g>
					<polygon class="st4" points="148.8,359.4 148.8,368.1 145.3,374.2 145.3,365.5 					"/>
				</g>
				<g>
					<polygon class="st8" points="38.2,361.5 38.2,370.2 35.3,374.2 35.3,365.5 					"/>
				</g>
				<g>
					<polygon class="st12" points="41.3,363.6 41.3,372.3 35.3,374.2 35.3,365.5 					"/>
				</g>
				<g>
					<polygon class="st12" points="158.4,366.8 158.4,375.5 148.8,368.1 148.8,359.4 					"/>
				</g>
				<g>
					<polygon class="st8" points="149.1,360.9 149.1,369.5 146.3,374.4 146.3,365.7 					"/>
				</g>
				<g>
					<polygon class="st2" points="126.9,366.1 126.9,374.7 121.8,373.3 121.8,364.7 					"/>
				</g>
				<g>
					<polygon class="st2" points="298.3,366.2 298.3,374.9 295,373.8 295,365.1 					"/>
				</g>
				<g>
					<polygon class="st12" points="196.4,366.3 196.4,375 191.6,372.6 191.6,363.9 					"/>
				</g>
				<g>
					<polygon class="st33" points="191.6,363.9 191.6,372.6 187.5,375.3 187.5,366.6 					"/>
				</g>
				<g>
					<polygon class="st12" points="202.3,367.1 202.3,375.8 196.4,375 196.4,366.3 					"/>
				</g>
				<g>
					<polygon class="st12" points="213.7,366.6 213.7,375.3 202.3,375.8 202.3,367.1 					"/>
				</g>
				<g>
					<polygon class="st2" points="196,367.2 196,375.9 191.7,373.7 191.7,365.1 					"/>
				</g>
				<g>
					<polygon class="st1" points="191.7,365.1 191.7,373.7 188.3,375.9 188.3,367.2 					"/>
				</g>
				<g>
					<polygon class="st2" points="40.9,364.7 40.9,373.4 32.7,376 32.7,367.4 					"/>
				</g>
				<g>
					<polygon class="st31" points="171.6,363.3 171.6,372 170.1,376.1 170.1,367.4 					"/>
				</g>
				<g>
					<polygon class="st12" points="72.3,367.5 72.3,376.2 69.9,373.2 69.9,364.5 					"/>
				</g>
				<g>
					<polygon class="st12" points="76.4,366.4 76.4,375.1 72.3,376.2 72.3,367.5 					"/>
				</g>
				<g>
					<polygon class="st2" points="157.8,367.6 157.8,376.3 149.1,369.5 149.1,360.9 					"/>
				</g>
				<g>
					<polygon class="st32" points="103,362.9 103,371.6 96.2,376.6 96.2,367.9 					"/>
				</g>
				<g>
					<polygon class="st2" points="202.2,368.1 202.2,376.7 196,375.9 196,367.2 					"/>
				</g>
				<g>
					<polygon class="st2" points="213.7,367.6 213.7,376.3 202.2,376.7 202.2,368.1 					"/>
				</g>
				<g>
					<polygon class="st9" points="172.3,364.3 172.3,373 170.8,377 170.8,368.3 					"/>
				</g>
				<g>
					<polygon class="st12" points="163.1,368.4 163.1,377 158.4,375.5 158.4,366.8 					"/>
				</g>
				<g>
					<polygon class="st12" points="170.1,367.4 170.1,376.1 163.1,377 163.1,368.4 					"/>
				</g>
				<g>
					<polygon class="st12" points="180.8,368.5 180.8,377.1 177.8,372 177.8,363.3 					"/>
				</g>
				<g class="st0">
					<g>
						<defs>
							<path id="SVGID_00000050646824552880833980000003721709049932402876_" d="M108.4,373C108.4,373,108.4,372.9,108.4,373
								c0-0.1,0-0.1,0-0.1v-0.1v-0.1v-0.1v-0.1c0,0,0,0,0-0.1c0,0,0,0,0-0.1c0-0.3,0-0.7,0-0.9c0-0.3,0-0.7,0-1s0-0.7,0-1
								s0-0.7,0-1.1c0-0.3,0-0.7,0-1.1c0-0.3,0-0.7,0-1s0-0.7,0-1s0-0.7,0-0.9c0.1,0,0.1,0.1,0.2,0.1c0.6,0.3,2.9,2.7,4.3,4.1
								c0,0.3,0,0.7,0,1s0,0.7,0,1s0,0.7,0,1s0,0.7,0,1.1s0,0.7,0,1.1c0,0.3,0,0.7,0,1s0,0.7,0,1s0,0.7,0,1c0,0,0,0,0,0.1
								c0,0,0,0,0,0.1c0,0,0,0,0,0.1c0,0,0,0,0,0.1s0,0,0,0.1c0,0,0,0,0,0.1c0,0,0,0,0,0.1c0,0,0,0,0,0.1c-1.3-1.4-3.7-3.8-4.3-4.1
								C108.5,373,108.4,373,108.4,373z"/>
						</defs>
						<clipPath id="SVGID_00000049928823372922061070000015541982942760424374_">
							<use xlink:href="#SVGID_00000050646824552880833980000003721709049932402876_"  style="overflow:visible;"/>
						</clipPath>
						<g style="clip-path:url(#SVGID_00000049928823372922061070000015541982942760424374_);enable-background:new    ;">
							<path class="st18" d="M113.1,368.8v8.7c-1.3-1.3-3.9-4.1-4.5-4.4c-0.7-0.3-4.7-1.3-5.5-1.5v-8.7c0.8,0.2,4.9,1.2,5.5,1.5
								C109.2,364.7,111.8,367.4,113.1,368.8"/>
						</g>
					</g>
				</g>
				<g>
					<polygon class="st1" points="103,363.9 103,372.6 97.1,377.2 97.1,368.5 					"/>
				</g>
				<g>
					<polygon class="st12" points="129.8,368.6 129.8,377.3 127.5,373.9 127.5,365.2 					"/>
				</g>
				<g>
					<polygon class="st2" points="72,368.6 72,377.3 69.4,374.1 69.4,365.5 					"/>
				</g>
				<g>
					<polygon class="st2" points="76.3,367.4 76.3,376.1 72,377.3 72,368.6 					"/>
				</g>
				<g class="st0">
					<g>
						<defs>
							<path id="SVGID_00000057837202912810250550000007844854546341181088_" d="M112.8,377.2v-0.1c0,0,0,0,0-0.1c0,0,0,0,0-0.1
								s0,0,0-0.1c0,0,0,0,0-0.1c0,0,0,0,0-0.1c0,0,0,0,0-0.1c0-0.3,0-0.7,0-1s0-0.7,0-1s0-0.7,0-1s0-0.7,0-1.1s0-0.7,0-1.1
								c0-0.3,0-0.7,0-1s0-0.7,0-1s0-0.7,0-1c0.1,0.1,0.2,0.2,0.2,0.3v8.7C113,377.4,112.9,377.3,112.8,377.2z"/>
						</defs>
						<clipPath id="SVGID_00000113342782818646445370000012129313710254901391_">
							<use xlink:href="#SVGID_00000057837202912810250550000007844854546341181088_"  style="overflow:visible;"/>
						</clipPath>
						<g style="clip-path:url(#SVGID_00000113342782818646445370000012129313710254901391_);enable-background:new    ;">
							<path class="st18" d="M113.1,368.8v8.7c-1.3-1.3-3.9-4.1-4.5-4.4c-0.7-0.3-4.7-1.3-5.5-1.5v-8.7c0.8,0.2,4.9,1.2,5.5,1.5
								C109.2,364.7,111.8,367.4,113.1,368.8"/>
						</g>
					</g>
				</g>
				<g>
					<polygon class="st15" points="116.6,364.3 116.6,373 113.1,377.4 113.1,368.8 					"/>
				</g>
				<g>
					<polygon class="st12" points="226.6,369.1 226.6,377.8 213.7,375.3 213.7,366.6 					"/>
				</g>
				<g>
					<polygon class="st21" points="229.4,363.1 229.4,371.8 226.6,377.8 226.6,369.1 					"/>
				</g>
				<g>
					<polygon class="st2" points="129,369.2 129,377.8 126.9,374.7 126.9,366.1 					"/>
				</g>
				<g>
					<polygon class="st2" points="180.2,369.3 180.2,378 177.2,373 177.2,364.3 					"/>
				</g>
				<g>
					<polygon class="st31" points="65.6,364.5 65.6,373.2 63.9,378 63.9,369.3 					"/>
				</g>
				<g>
					<polygon class="st22" points="362.1,364.5 362.1,373.2 358.5,378 358.5,369.3 					"/>
				</g>
				<g>
					<polygon class="st12" points="358.5,369.3 358.5,378 346.7,377.2 346.7,368.5 					"/>
				</g>
				<g>
					<polygon class="st2" points="163,369.4 163,378 157.8,376.3 157.8,367.6 					"/>
				</g>
				<g>
					<polygon class="st2" points="170.8,368.3 170.8,377 163,378 163,369.4 					"/>
				</g>
				<g>
					<polygon class="st9" points="66.3,365.5 66.3,374.1 64.9,378.1 64.9,369.4 					"/>
				</g>
				<g>
					<polygon class="st12" points="346.7,368.5 346.7,377.2 341.4,378.2 341.4,369.5 					"/>
				</g>
				<g>
					<polygon class="st12" points="45.8,370.1 45.8,378.8 41.3,372.3 41.3,363.6 					"/>
				</g>
				<g>
					<polygon class="st12" points="186.4,370.2 186.4,378.9 180.8,377.1 180.8,368.5 					"/>
				</g>
				<g>
					<polygon class="st5" points="187.5,366.6 187.5,375.3 186.4,378.9 186.4,370.2 					"/>
				</g>
				<g>
					<polygon class="st2" points="44.6,370.2 44.6,378.9 40.9,373.4 40.9,364.7 					"/>
				</g>
				<g>
					<polygon class="st2" points="227.1,370.2 227.1,378.9 213.7,376.3 213.7,367.6 					"/>
				</g>
				<g>
					<polygon class="st9" points="229.9,364.3 229.9,373 227.1,378.9 227.1,370.2 					"/>
				</g>
				<g>
					<polygon class="st1" points="117.1,365.3 117.1,374 113.1,379 113.1,370.3 					"/>
				</g>
				<g class="st0">
					<g>
						<defs>
							<path id="SVGID_00000137812593299186464810000012013158831352531862_" d="M113.1,370.3v8.7c-2.4-2.5-4.6-4.8-5-5v-8.7
								C108.5,365.5,110.8,367.8,113.1,370.3z"/>
						</defs>
						<clipPath id="SVGID_00000037656880105961162990000000083559874235573910_">
							<use xlink:href="#SVGID_00000137812593299186464810000012013158831352531862_"  style="overflow:visible;"/>
						</clipPath>
						<g style="clip-path:url(#SVGID_00000037656880105961162990000000083559874235573910_);enable-background:new    ;">
							<path class="st1" d="M113.1,370.3v8.7c-2.4-2.5-4.6-4.8-5-5v-8.7C108.5,365.5,110.8,367.8,113.1,370.3"/>
						</g>
					</g>
				</g>
				<g>
					<polygon class="st2" points="358.9,370.3 358.9,379 346.7,378.2 346.7,369.5 					"/>
				</g>
				<g>
					<polygon class="st8" points="362.6,365.5 362.6,374.1 358.9,379 358.9,370.3 					"/>
				</g>
				<g>
					<polygon class="st2" points="346.7,369.5 346.7,378.2 341.8,379.1 341.8,370.5 					"/>
				</g>
				<g>
					<polygon class="st2" points="281.9,370.7 281.9,379.4 280,373.9 280,365.2 					"/>
				</g>
				<g>
					<polygon class="st12" points="239.6,371 239.6,379.6 234.5,373.2 234.5,364.5 					"/>
				</g>
				<g>
					<rect x="239.6" y="371" class="st12" width="4.5" height="8.7"/>
				</g>
				<g class="st0">
					<g>
						<defs>
							<path id="SVGID_00000140701952532842139900000008934357056319436710_" d="M300.5,375.3c0-0.1,0-0.2,0-0.3c0-0.1,0-0.2,0-0.3
								c0-0.1,0-0.2,0-0.3c0-0.1,0-0.2,0-0.3c0-0.1,0-0.2,0-0.3c0-0.1,0-0.2,0-0.3c0-0.1,0-0.2,0-0.3c0-0.1,0-0.2,0-0.3
								c0-0.2,0-0.5,0-0.7s0-0.5,0-0.8c0-0.2,0-0.6,0-0.8c0-0.2,0-0.6,0-0.8c0-0.2,0-0.6,0-0.8c0-0.2,0-0.6,0-0.8c0-0.2,0-0.5,0-0.8
								c0-0.2,0-0.5,0-0.7c2.2,1.5,5.6,3.9,6.1,4.4c0.1,0.1,0.3,0.2,0.7,0.4c0,0.3,0,0.6,0,0.9s0,0.6,0,0.9s0,0.7,0,1s0,0.7,0,1
								s0,0.7,0,1s0,0.7,0,1s0,0.7,0,0.9c0,0.3,0,0.6,0,0.9v0.1v0.1c0,0,0,0.1,0,0.2c0,0,0,0.1,0,0.2c0,0,0,0.1,0,0.2
								c0,0,0,0.1,0,0.2v0.1v0.1c-0.3-0.2-0.6-0.4-0.7-0.4C306.1,379.2,302.7,376.8,300.5,375.3z"/>
						</defs>
						<clipPath id="SVGID_00000154425776030188693640000010083714542618433158_">
							<use xlink:href="#SVGID_00000140701952532842139900000008934357056319436710_"  style="overflow:visible;"/>
						</clipPath>
						<g style="clip-path:url(#SVGID_00000154425776030188693640000010083714542618433158_);enable-background:new    ;">
							<path class="st18" d="M326.7,378.7v8.7c-3.2-0.5-8.2-1.3-9.1-1.7c-1.7-0.8-10.5-5.5-11-6.1c-0.7-0.7-7.1-5.1-7.8-5.6v-8.7
								c0.7,0.5,7.1,4.9,7.8,5.6c0.6,0.6,9.4,5.2,11,6.1C318.6,377.4,323.5,378.3,326.7,378.7"/>
						</g>
					</g>
				</g>
				<g>
					<polygon class="st9" points="188.3,367.2 188.3,375.9 187.1,380.1 187.1,371.4 					"/>
				</g>
				<g>
					<polygon class="st2" points="187.1,371.4 187.1,380.1 180.2,378 180.2,369.3 					"/>
				</g>
				<g>
					<rect x="239.1" y="371.9" class="st2" width="4.7" height="8.7"/>
				</g>
				<g>
					<polygon class="st2" points="239.1,371.9 239.1,380.6 234,374.1 234,365.4 					"/>
				</g>
				<g class="st0">
					<g>
						<defs>
							<path id="SVGID_00000074401126552424452560000012864962435808253627_" d="M144.7,377.7c-1.2,0-8,3-9.4,3.6v-8.7
								c1.4-0.6,8.2-3.6,9.4-3.6c0,0.3,0,0.7,0,1s0,0.8,0,1.1c0,0.3,0,0.8,0,1.1c0,0.3,0,0.8,0,1.1c0,0.3,0,0.8,0,1.1
								c0,0.3,0,0.8,0,1.1c0,0.3,0,0.8,0,1.1C144.6,377,144.6,377.4,144.7,377.7c0-0.3,0-0.7,0-1s0-0.8,0-1.1c0-0.3,0-0.8,0-1.1
								c0-0.3,0-0.8,0-1.1c0-0.3,0-0.8,0-1.1c0-0.3,0-0.8,0-1.1c0-0.3,0-0.8,0-1.1c0-0.3,0-0.7,0-1l0,0
								C144.7,371.6,144.7,375.1,144.7,377.7z"/>
						</defs>
						<clipPath id="SVGID_00000032627592197334839950000008377843723424586424_">
							<use xlink:href="#SVGID_00000074401126552424452560000012864962435808253627_"  style="overflow:visible;"/>
						</clipPath>
						<g style="clip-path:url(#SVGID_00000032627592197334839950000008377843723424586424_);enable-background:new    ;">
							<path class="st18" d="M144.7,369v8.7c-1.2,0-8,3-9.4,3.6v-8.7C136.6,372,143.5,369,144.7,369"/>
						</g>
					</g>
				</g>
				<g class="st0">
					<g>
						<defs>
							<path id="SVGID_00000139977137692743126920000009205398268653882518_" d="M135.1,381.7L135.1,381.7L135.1,381.7
								C135.1,381.6,135.1,381.6,135.1,381.7C135.1,381.6,135.1,381.6,135.1,381.7C135.1,381.6,135.1,381.6,135.1,381.7
								c0-0.1,0-0.1,0-0.1l0,0l0,0c0-0.3,0-0.7,0-1s0-0.7,0-1.1c0-0.3,0-0.8,0-1.1c0-0.3,0-0.8,0-1.1c0-0.3,0-0.8,0-1.1
								c0-0.3,0-0.8,0-1.1c0-0.3,0-0.7,0-1.1c0-0.3,0-0.7,0-1c0.1-0.1,0.1-0.2,0.2-0.4v8.7C135.2,381.4,135.1,381.6,135.1,381.7z"/>
						</defs>
						<clipPath id="SVGID_00000063607922999525991150000012975539991966854531_">
							<use xlink:href="#SVGID_00000139977137692743126920000009205398268653882518_"  style="overflow:visible;"/>
						</clipPath>
						<g style="clip-path:url(#SVGID_00000063607922999525991150000012975539991966854531_);enable-background:new    ;">
							<path class="st4" d="M135.2,372.6v8.7c-0.4,0.9-0.7,1.5-0.9,1.8v-8.7C134.6,374.1,134.8,373.5,135.2,372.6"/>
						</g>
					</g>
				</g>
				<g>
					<polygon class="st21" points="96.2,367.9 96.2,376.6 93.9,381.8 93.9,373.1 					"/>
				</g>
				<g class="st0">
					<g>
						<defs>
							<path id="SVGID_00000087396116773732089390000013893931898115590811_" d="M146.3,365.7v8.7c0,1.4-0.2,4.3-1.7,4.3
								c-0.7,0-5.5,2-8.8,3.4v-8.7c3.3-1.5,8.1-3.4,8.8-3.4C146.1,370,146.3,367.1,146.3,365.7z"/>
						</defs>
						<clipPath id="SVGID_00000166665477490926539880000018372379445433717654_">
							<use xlink:href="#SVGID_00000087396116773732089390000013893931898115590811_"  style="overflow:visible;"/>
						</clipPath>
						<g style="clip-path:url(#SVGID_00000166665477490926539880000018372379445433717654_);enable-background:new    ;">
							<path class="st10" d="M146.3,365.7v8.7c0,0.6-0.1,1.6-0.2,2.4v-8.7C146.3,367.3,146.3,366.4,146.3,365.7"/>
							<path class="st9" d="M146.1,368.2v8.7c-0.1,0.3-0.2,0.7-0.3,0.9v-8.7C145.9,368.8,146,368.5,146.1,368.2"/>
							<path class="st8" d="M145.8,369.1v8.7c-0.1,0.2-0.2,0.3-0.3,0.4v-8.7C145.6,369.4,145.7,369.3,145.8,369.1"/>
							<path class="st1" d="M145.5,369.6v8.7c-0.2,0.3-0.5,0.4-0.8,0.4c-0.7,0-5.5,2-8.8,3.4v-8.7c3.3-1.5,8.1-3.4,8.8-3.4
								C145,370,145.3,369.8,145.5,369.6"/>
						</g>
					</g>
				</g>
				<g>
					<polygon class="st9" points="97.1,368.5 97.1,377.2 94.8,382.3 94.8,373.6 					"/>
				</g>
				<g class="st0">
					<g>
						<defs>
							<path id="SVGID_00000111892062440730044550000010933887688888691333_" d="M134.1,382.8c-1-1.2-3.4-4.3-4.3-5.5v-8.7
								c1,1.2,3.3,4.3,4.3,5.5c0,0.3,0,0.6,0,0.9s0,0.7,0,1s0,0.7,0,1s0,0.7,0,1s0,0.7,0,1s0,0.7,0,1s0,0.7,0,1s0,0.6,0,0.9v0.1v0.1
								v0.1v0.1v0.1v0.1C134.1,382.6,134.1,382.6,134.1,382.8C134.1,382.7,134.1,382.7,134.1,382.8z"/>
						</defs>
						<clipPath id="SVGID_00000150076272156969890730000006141776311529328565_">
							<use xlink:href="#SVGID_00000111892062440730044550000010933887688888691333_"  style="overflow:visible;"/>
						</clipPath>
						<g style="clip-path:url(#SVGID_00000150076272156969890730000006141776311529328565_);enable-background:new    ;">
							<path class="st18" d="M134.4,374.4v8.7c-0.8-0.8-3.5-4.4-4.6-5.8v-8.7C130.8,370,133.6,373.5,134.4,374.4"/>
						</g>
					</g>
				</g>
				<g>
					<polygon class="st2" points="64.6,374.4 64.6,383 63.9,378 63.9,369.3 					"/>
				</g>
				<g class="st0">
					<g>
						<defs>
							<path id="SVGID_00000159463332963983408510000014419827090694516129_" d="M134.1,382.8C134.1,382.7,134.1,382.7,134.1,382.8
								c0-0.1,0-0.2,0-0.2v-0.1v-0.1v-0.1v-0.1v-0.1V382c0-0.3,0-0.6,0-0.9s0-0.7,0-1s0-0.7,0-1s0-0.7,0-1s0-0.7,0-1s0-0.7,0-1
								s0-0.7,0-1s0-0.6,0-0.9c0.1,0.1,0.2,0.2,0.3,0.3v8.7C134.3,383,134.2,382.9,134.1,382.8z"/>
						</defs>
						<clipPath id="SVGID_00000155139332518006497050000007170884808094034608_">
							<use xlink:href="#SVGID_00000159463332963983408510000014419827090694516129_"  style="overflow:visible;"/>
						</clipPath>
						<g style="clip-path:url(#SVGID_00000155139332518006497050000007170884808094034608_);enable-background:new    ;">
							<path class="st18" d="M134.4,374.4v8.7c-0.8-0.8-3.5-4.4-4.6-5.8v-8.7C130.8,370,133.6,373.5,134.4,374.4"/>
						</g>
					</g>
				</g>
				<g class="st0">
					<g>
						<defs>
							<path id="SVGID_00000014628148702756462420000000908162808382120122_" d="M135.1,381.7c-0.3,0.7-0.5,1.2-0.7,1.4v-8.7
								c0.2-0.2,0.4-0.7,0.7-1.4c0,0.3,0,0.7,0,1s0,0.7,0,1.1c0,0.3,0,0.8,0,1.1c0,0.3,0,0.8,0,1.1c0,0.3,0,0.8,0,1.1
								c0,0.3,0,0.8,0,1.1c0,0.3,0,0.7,0,1.1C135.1,380.9,135.1,381.3,135.1,381.7C135.1,381.6,135.1,381.6,135.1,381.7z"/>
						</defs>
						<clipPath id="SVGID_00000076578974306062910600000007469669166483478431_">
							<use xlink:href="#SVGID_00000014628148702756462420000000908162808382120122_"  style="overflow:visible;"/>
						</clipPath>
						<g style="clip-path:url(#SVGID_00000076578974306062910600000007469669166483478431_);enable-background:new    ;">
							<path class="st4" d="M135.2,372.6v8.7c-0.4,0.9-0.7,1.5-0.9,1.8v-8.7C134.6,374.1,134.8,373.5,135.2,372.6"/>
						</g>
					</g>
				</g>
				<g class="st0">
					<g>
						<defs>
							<path id="SVGID_00000147925064229980061540000012624951604671445683_" d="M134.6,375.4v8.7c-1.5-0.9-5.4-6-5.6-6.3v-8.7
								C129.1,369.4,133.1,374.5,134.6,375.4z"/>
						</defs>
						<clipPath id="SVGID_00000146467949208988348080000004232411392000275331_">
							<use xlink:href="#SVGID_00000147925064229980061540000012624951604671445683_"  style="overflow:visible;"/>
						</clipPath>
						<g style="clip-path:url(#SVGID_00000146467949208988348080000004232411392000275331_);enable-background:new    ;">
							<path class="st1" d="M134.6,375.4v8.7c-1.5-0.9-5.4-6-5.6-6.3v-8.7C129.1,369.4,133.1,374.5,134.6,375.4"/>
						</g>
					</g>
				</g>
				<g class="st0">
					<g>
						<defs>
							<path id="SVGID_00000034773897602404075930000002304882393629363126_" d="M135.9,373.4v8.7c-0.2,0.8-0.7,1.8-1.3,2v-8.7
								C135.2,375.3,135.6,374.2,135.9,373.4z"/>
						</defs>
						<clipPath id="SVGID_00000146476749467123216760000013360960284584903827_">
							<use xlink:href="#SVGID_00000034773897602404075930000002304882393629363126_"  style="overflow:visible;"/>
						</clipPath>
						<g style="clip-path:url(#SVGID_00000146476749467123216760000013360960284584903827_);enable-background:new    ;">
							<path class="st9" d="M135.9,373.4v8.7c-0.1,0.3-0.2,0.6-0.3,0.9v-8.7C135.7,374,135.8,373.7,135.9,373.4"/>
							<path class="st8" d="M135.5,374.4v8.7c-0.1,0.2-0.2,0.5-0.4,0.6V375C135.3,374.8,135.4,374.6,135.5,374.4"/>
							<path class="st1" d="M135.1,375v8.7c-0.2,0.2-0.4,0.4-0.6,0.4v-8.7C134.8,375.4,135,375.2,135.1,375"/>
						</g>
					</g>
				</g>
				<g>
					<polygon class="st34" points="281.9,370.7 281.9,379.4 280.8,384.1 280.8,375.4 					"/>
				</g>
				<g>
					<polygon class="st9" points="282.9,370.6 282.9,379.3 281.8,384.3 281.8,375.6 					"/>
				</g>
				<g class="st0">
					<g>
						<defs>
							<path id="SVGID_00000103976596525919526070000013321679767638742202_" d="M85.8,381c-0.4-1.1-1.7-2.4-2.8-3.4
								c0-0.3,0-0.7,0-1s0-0.8,0-1.1c0-0.3,0-0.8,0-1.1c0-0.3,0-0.8,0-1.1c0-0.3,0-0.8,0-1.1c0-0.3,0-0.8,0-1.1c0-0.3,0-0.8,0-1.1
								c0-0.3,0-0.7,0-1c1.1,1.1,2.4,2.4,2.7,3.4c0,0.3,0,0.7,0,1s0,0.8,0,1.1c0,0.3,0,0.8,0,1.1c0,0.3,0,0.8,0,1.1s0,0.8,0,1.1
								c0,0.3,0,0.8,0,1.1c0,0.3,0,0.8,0,1.1C85.8,380.2,85.8,380.6,85.8,381c0-0.3,0-0.7,0-1s0-0.8,0-1.1c0-0.3,0-0.8,0-1.1
								c0-0.3,0-0.8,0-1.1s0-0.8,0-1.1c0-0.3,0-0.8,0-1.1c0-0.3,0-0.8,0-1.1c0-0.3,0-0.7,0-1l0,0c0.2,0.7,1.4,2.6,2,3.6v8.7
								C87.2,383.6,86,381.6,85.8,381z"/>
						</defs>
						<clipPath id="SVGID_00000015355699889775525520000011402918421344194738_">
							<use xlink:href="#SVGID_00000103976596525919526070000013321679767638742202_"  style="overflow:visible;"/>
						</clipPath>
						<g style="clip-path:url(#SVGID_00000015355699889775525520000011402918421344194738_);enable-background:new    ;">
							<path class="st18" d="M87.7,375.8v8.7c-0.6-0.9-1.7-2.9-2-3.6c-0.4-1.1-1.7-2.4-2.8-3.4s-6.1-2.3-6.7-2.4v-8.7
								c0.6,0.1,5.6,1.4,6.7,2.4c1.1,1.1,2.4,2.4,2.8,3.4C86,373,87.2,374.9,87.7,375.8"/>
						</g>
					</g>
				</g>
				<g>
					<polygon class="st50" points="93.9,373.1 93.9,381.8 91.9,384.8 91.9,376.1 					"/>
				</g>
				<g>
					<polygon class="st12" points="91.9,376.1 91.9,384.8 87.7,384.5 87.7,375.8 					"/>
				</g>
				<g>
					<polygon class="st51" points="341.4,369.5 341.4,378.2 333.3,384.9 333.3,376.2 					"/>
				</g>
				<g>
					<polygon class="st12" points="250.4,376.3 250.4,384.9 244.1,379.6 244.1,371 					"/>
				</g>
				<g class="st0">
					<g>
						<defs>
							<path id="SVGID_00000150066785134897563520000000791730395384603807_" d="M87.1,376.8v8.7c-0.2-0.3-2-3.2-2.3-4.2
								c-0.3-0.9-1.6-2.1-2.5-3c-0.6-0.6-4-1.6-6.1-2.1v-8.7c2.1,0.5,5.4,1.5,6.1,2.1c0.9,0.9,2.2,2.2,2.5,3
								C85.2,373.6,86.9,376.4,87.1,376.8z"/>
						</defs>
						<clipPath id="SVGID_00000070834239620105661380000006697246850104141997_">
							<use xlink:href="#SVGID_00000150066785134897563520000000791730395384603807_"  style="overflow:visible;"/>
						</clipPath>
						<g style="clip-path:url(#SVGID_00000070834239620105661380000006697246850104141997_);enable-background:new    ;">
							<path class="st1" d="M87.1,376.8v8.7c-0.2-0.3-2-3.2-2.3-4.2c-0.3-0.9-1.6-2.1-2.5-3c-0.6-0.6-4-1.6-6.1-2.1v-8.7
								c2.1,0.5,5.4,1.5,6.1,2.1c0.9,0.9,2.2,2.2,2.5,3C85.2,373.6,86.9,376.4,87.1,376.8"/>
						</g>
					</g>
				</g>
				<g>
					<polygon class="st2" points="249.8,377.1 249.8,385.7 243.8,380.6 243.8,371.9 					"/>
				</g>
				<g>
					<polygon class="st1" points="341.8,370.5 341.8,379.1 333.7,385.8 333.7,377.1 					"/>
				</g>
				<g class="st0">
					<g>
						<defs>
							<path id="SVGID_00000101087196904993350030000001905037378397533060_" d="M64.6,374.4v8.7c-1.2,1.3-2.7,2.7-3.1,2.8v-8.7
								C61.9,377,63.3,375.6,64.6,374.4z"/>
						</defs>
						<clipPath id="SVGID_00000006679174178110120060000014140186228917160108_">
							<use xlink:href="#SVGID_00000101087196904993350030000001905037378397533060_"  style="overflow:visible;"/>
						</clipPath>
						<g style="clip-path:url(#SVGID_00000006679174178110120060000014140186228917160108_);enable-background:new    ;">
							<path class="st18" d="M64.6,374.4v8.7c-1.2,1.3-2.7,2.7-3.1,2.8v-8.7C61.9,377,63.3,375.6,64.6,374.4"/>
						</g>
					</g>
				</g>
				<g>
					<polygon class="st2" points="92.5,377.1 92.5,385.8 87.1,385.5 87.1,376.8 					"/>
				</g>
				<g>
					<polygon class="st8" points="94.8,373.6 94.8,382.3 92.5,385.8 92.5,377.1 					"/>
				</g>
				<g class="st0">
					<g>
						<defs>
							<path id="SVGID_00000166666578732125874930000001465309376898613396_" d="M65.6,374.7v8.7c-1,1.1-3.1,3.2-3.9,3.4v-8.7
								C62.5,377.9,64.6,375.8,65.6,374.7z"/>
						</defs>
						<clipPath id="SVGID_00000099632985011568429810000004247276036970196890_">
							<use xlink:href="#SVGID_00000166666578732125874930000001465309376898613396_"  style="overflow:visible;"/>
						</clipPath>
						<g style="clip-path:url(#SVGID_00000099632985011568429810000004247276036970196890_);enable-background:new    ;">
							<path class="st1" d="M65.6,374.7v8.7c-1,1.1-3.1,3.2-3.9,3.4v-8.7C62.5,377.9,64.6,375.8,65.6,374.7"/>
						</g>
					</g>
				</g>
				<g class="st0">
					<g>
						<defs>
							<path id="SVGID_00000020397780771958081470000010227468777844051121_" d="M307.3,380.1V380v-0.1c0,0,0-0.1,0-0.2
								c0,0,0-0.1,0-0.2c0,0,0-0.1,0-0.2c0,0,0-0.1,0-0.2V379v-0.1c0-0.3,0-0.6,0-0.9s0-0.7,0-0.9c0-0.3,0-0.7,0-1s0-0.7,0-1
								s0-0.7,0-1s0-0.7,0-1s0-0.6,0-0.9s0-0.6,0-0.9c2.2,1.3,8.9,4.9,10.4,5.6c0.9,0.4,5.9,1.3,9.1,1.7v8.7
								c-3.2-0.5-8.2-1.3-9.1-1.7C316.2,385,309.5,381.4,307.3,380.1z"/>
						</defs>
						<clipPath id="SVGID_00000143610926970344370970000014062321393692618424_">
							<use xlink:href="#SVGID_00000020397780771958081470000010227468777844051121_"  style="overflow:visible;"/>
						</clipPath>
						<g style="clip-path:url(#SVGID_00000143610926970344370970000014062321393692618424_);enable-background:new    ;">
							<path class="st18" d="M326.7,378.7v8.7c-3.2-0.5-8.2-1.3-9.1-1.7c-1.7-0.8-10.5-5.5-11-6.1c-0.7-0.7-7.1-5.1-7.8-5.6v-8.7
								c0.7,0.5,7.1,4.9,7.8,5.6c0.6,0.6,9.4,5.2,11,6.1C318.6,377.4,323.5,378.3,326.7,378.7"/>
						</g>
					</g>
				</g>
				<g>
					<polygon class="st12" points="333.3,376.2 333.3,384.9 326.7,387.4 326.7,378.7 					"/>
				</g>
				<g>
					<polygon class="st24" points="280.8,375.4 280.8,384.1 280.3,387.7 280.3,379 					"/>
				</g>
				<g>
					<polygon class="st9" points="45.8,370.1 45.8,378.8 41.2,388.1 41.2,379.4 					"/>
				</g>
				<g>
					<polygon class="st12" points="255.5,379.4 255.5,388.1 250.4,384.9 250.4,376.3 					"/>
				</g>
				<g>
					<polygon class="st10" points="281.8,375.6 281.8,384.3 281.3,388.1 281.3,379.5 					"/>
				</g>
				<g>
					<polygon class="st2" points="333.7,377.1 333.7,385.8 326.9,388.4 326.9,379.7 					"/>
				</g>
				<g class="st0">
					<g>
						<defs>
							<path id="SVGID_00000069366495799005975460000001668129547582471585_" d="M326.9,379.7v8.7c-1-0.1-8.3-1.2-9.6-1.8
								c-1.1-0.5-10.6-5.5-11.3-6.2c-0.5-0.4-4.8-3.5-7.6-5.4v-8.7c2.8,1.9,7.1,5,7.6,5.4c0.7,0.7,10.2,5.7,11.3,6.2
								C318.6,378.5,325.9,379.6,326.9,379.7z"/>
						</defs>
						<clipPath id="SVGID_00000145738718172289351970000017122562541283661228_">
							<use xlink:href="#SVGID_00000069366495799005975460000001668129547582471585_"  style="overflow:visible;"/>
						</clipPath>
						<g style="clip-path:url(#SVGID_00000145738718172289351970000017122562541283661228_);enable-background:new    ;">
							<path class="st1" d="M326.9,379.7v8.7c-1-0.1-8.3-1.2-9.6-1.8c-1.1-0.5-10.6-5.5-11.3-6.2c-0.5-0.4-4.8-3.5-7.6-5.4v-8.7
								c2.8,1.9,7.1,5,7.6,5.4c0.7,0.7,10.2,5.7,11.3,6.2C318.6,378.5,325.9,379.6,326.9,379.7"/>
						</g>
					</g>
				</g>
				<g>
					<polygon class="st2" points="254.8,380.1 254.8,388.8 249.8,385.7 249.8,377.1 					"/>
				</g>
				<g class="st0">
					<g>
						<defs>
							<path id="SVGID_00000090986729465634376570000004864313975228089747_" d="M61.5,377.1v8.7c-0.6,0.2-3.4,2.9-5.7,5.2v-8.7
								C58.1,380,60.9,377.3,61.5,377.1z"/>
						</defs>
						<clipPath id="SVGID_00000034810848056047022880000011936630011026379449_">
							<use xlink:href="#SVGID_00000090986729465634376570000004864313975228089747_"  style="overflow:visible;"/>
						</clipPath>
						<g style="clip-path:url(#SVGID_00000034810848056047022880000011936630011026379449_);enable-background:new    ;">
							<path class="st18" d="M61.5,377.1v8.7c-0.6,0.2-3.4,2.9-5.7,5.2v-8.7C58.1,380,60.9,377.3,61.5,377.1"/>
						</g>
					</g>
				</g>
				<g>
					<polygon class="st12" points="55.8,382.3 55.8,391 52.8,391.1 52.8,382.5 					"/>
				</g>
				<g>
					<polygon class="st18" points="280.3,379 280.3,387.7 276.5,391.6 276.5,382.9 					"/>
				</g>
				<g class="st0">
					<g>
						<defs>
							<path id="SVGID_00000132782907778006386280000011094672586147772325_" d="M61.8,378.1v8.7c-0.4,0.2-3.1,2.7-5.3,5v-8.7
								C58.7,380.8,61.3,378.3,61.8,378.1z"/>
						</defs>
						<clipPath id="SVGID_00000127745982589319952930000002841579326740806799_">
							<use xlink:href="#SVGID_00000132782907778006386280000011094672586147772325_"  style="overflow:visible;"/>
						</clipPath>
						<g style="clip-path:url(#SVGID_00000127745982589319952930000002841579326740806799_);enable-background:new    ;">
							<path class="st1" d="M61.8,378.1v8.7c-0.4,0.2-3.1,2.7-5.3,5v-8.7C58.7,380.8,61.3,378.3,61.8,378.1"/>
						</g>
					</g>
				</g>
				<g>
					<polygon class="st1" points="281.3,379.5 281.3,388.1 277.5,392 277.5,383.3 					"/>
				</g>
				<g>
					<polygon class="st2" points="56.4,383.1 56.4,391.8 53.1,392.1 53.1,383.4 					"/>
				</g>
				<g>
					<polygon class="st24" points="276.5,382.9 276.5,391.6 276.2,393.6 276.2,384.9 					"/>
				</g>
				<g>
					<polygon class="st9" points="41.2,379.4 41.2,388.1 39.4,393.9 39.4,385.2 					"/>
				</g>
				<g>
					<polygon class="st12" points="276.2,384.9 276.2,393.6 259.5,393.9 259.5,385.2 					"/>
				</g>
				<g>
					<polygon class="st12" points="259.5,385.2 259.5,393.9 255.5,388.1 255.5,379.4 					"/>
				</g>
				<g>
					<polygon class="st10" points="277.5,383.3 277.5,392 277.1,394.5 277.1,385.9 					"/>
				</g>
				<g>
					<polygon class="st33" points="52.8,382.5 52.8,391.1 46.9,394.6 46.9,385.9 					"/>
				</g>
				<g>
					<polygon class="st2" points="259,386.2 259,394.9 254.8,388.8 254.8,380.1 					"/>
				</g>
				<g>
					<polygon class="st2" points="277.1,385.9 277.1,394.5 259,394.9 259,386.2 					"/>
				</g>
				<g>
					<polygon class="st2" points="53.1,383.4 53.1,392.1 47.5,395.4 47.5,386.7 					"/>
				</g>
				<g>
					<polygon class="st12" points="43.2,387.6 43.2,396.2 39.4,393.9 39.4,385.2 					"/>
				</g>
				<g>
					<polygon class="st12" points="44.6,388.2 44.6,396.9 43.2,396.2 43.2,387.6 					"/>
				</g>
				<g>
					<polygon class="st25" points="46.9,385.9 46.9,394.6 44.6,396.9 44.6,388.2 					"/>
				</g>
				<g>
					<path class="st13" d="M480.4,244.4l2.2,4.7l-0.9,8.4l-3.3,6.2l-1.3,3.6l-8.6,6.5l-8.4,3.6l-10.1,3.3l-7.6,0.2l-10.4,5
						l-13.5,5.4l-7.5,4.8l-5-1.9l-5.2-0.9l-5-1.3l-3.5,0.7l-0.7,3.1l-8.8,0.2l-2.4-5.9l-2.8-4.1l-9-0.4l-0.1,1.8l2.6,1.8l-2.4,2.1
						l-3.5-2.4l-4.8,0.3l-5.5,2.7l-4.7,2.5l-4.5,5.3l-1.6,2.7l2.4,2.3l8,13.5l7.3,5.1l10.4,10.5l5.5,2.6l3.8-1.3l2.8,1.1l1.9,4.7
						l-0.5,4.9l4.2,1.1l2.5-3.6l5.6-2.5l-0.2,4.7l-0.7,3l4,1.3l4.4,3.9l-5.7,2.2l-4.1,1.2l2,4.3l-3.7,3.5l-11.9-0.2l-12.5,0.8h-7.2
						l-3.6,4.9l-12.2-0.8l-4.9,0.9l-8.1,6.6l-6.9,2.6c-1-0.1-8.3-1.2-9.6-1.8c-1.1-0.5-10.6-5.5-11.3-6.2c-0.5-0.4-4.8-3.5-7.6-5.4
						l-3.3-1.2l-8.9-5.3l-0.9-2.8l-7.2,3.7l2.9,4.2l2,5.8l-1.2,5l-0.5,3.8l-3.8,3.9l-0.4,2.5l-18.1,0.3l-4.2-6.1l-5-3l-6-5.1h-4.7
						l-5.1-6.5l-4-1.1l-2.8,6l-13.5-2.7l-11.4,0.5l-6.2-0.9l-4.3-2.1l-3.4,2.2l-1.2,4.2l-6.9-2.2l-2.9-4.9h-5l-1.5,4l-7.8,1
						l-5.2-1.7L149,361l-2.8,4.9c0,1.4-0.2,4.3-1.7,4.3c-0.7,0-5.5,2-8.8,3.4c-0.2,0.8-0.7,1.8-1.3,2c-1.5-0.9-5.4-6-5.6-6.3
						l-2.1-3.1l-5.1-1.4l-4.6,0.6l-4,5c-2.4-2.5-4.6-4.8-5-5s-3.2-0.9-5.1-1.4l-6,4.6l-2.2,5.1l-2.3,3.6l-5.3-0.4
						c-0.2-0.3-2-3.2-2.3-4.2c-0.3-0.9-1.6-2.1-2.5-3c-0.6-0.6-4-1.6-6.1-2.1l-4.3,1.2l-2.5-3.1h-3.2l-1.3,3.9l0.7,5.3
						c-1,1.1-3.1,3.2-3.9,3.4c-0.4,0.2-3.1,2.7-5.3,5l-3.3,0.3l-5.6,3.3l-2.7,2.6l-2.1-0.9l-4.5-2.8l2.1-6.5l4.3-8.9l-3.7-5.5
						l-8.2,2.6l4.3-6l-1.9-4l-6-12.9l3.3-18.3l7.1-8.5l4.5-10.4l-4.7-5.9l-0.2-5.7l-29-0.3l0.8-2l5.1-7.3l12.4-3.2v-14.4l4.3-5.8
						l-8.1,2.4l-12.9-8.5L2.6,244L16,232.7l10.7-10.1l8.4-10.3l-0.6,8.2l2.5,2.4l8.6-0.4l10.4,1.4c1.5,0.5,3.8,1.1,5.2,1.1
						c1.6-2.2,6.5-9.8,6.7-10.1l2.7-6.7l0.5-9.2l3.4-5.3l12.1-5.1l3.1-3.4v-11l6.5-8.2v-4.6l3-4.7l-7.4-2.9l7.8-4.1l3.3-6.4l5.2-4.7
						l6.8-0.4l1.2-3.8l-4.5-1.5l6.7-6.1l6.9-5.4l1.4-4.1l10.4-7.4l5.9-3.1l0.9-5.4l7.5-6.9l4.7-11.1l6.4-2.2L161.5,64l3.3-6.5
						l2.4-5.6l4.9-5.8l11.3,4.3l2.6,8.5l-5.3,0.9v3.8l3.6,1.3l2.4,9.2l-5.2,7.5l-3.7,8.6l0.4,7.1l10-1.7l5.5-6.7l8.8-7.3l1.4-7.8
						l4.1-7.2l-2.4-7.9l5.3-3.3l2.4-7h12.2l4.2,3.2l7,0.5l-3,10.2l-1.8,3.9l6,8.1v13.1l8.6,4.4l11.3,7l3.2,3.5l2.6-5.9l5.6-2
						l7.6,7.9l10.8,3.2l3.9,9.1l1.4,16.1l-1.5,8.7H284l-4.8,4.3l0.9,6.1l4.2,7.4l-0.5,6l1.6,4.7l3.5-3.1l1.6-3.1l3.5,1.4l-9.5,9.3
						l-19.1,8l17.8-1.2l2.8-1.8h5.3l5.2,0.9h2.5l-2.3-6.5l8.2,0.5l6.3,0.9l10.5-9l9.4-5.9l4.4,10.8v7.2l5.2-0.5l-0.5,6.1v4.9
						l-7.5,2.4h-7l-9.3,0.9v4.9l2.3,2.7l3.1,6.9l7.3-1.7l3.8-4.3l5.3,2.1v2.8l4.6-1.9l0.5-6.7l6.8-7.2l9.6,1.9l6.9,0.5l5.8,0.2
						l6.1,0.7l9,6.2l8.2,5.2l6.8,5.2l-6.9,1.4v5.1l-0.3,6.1l1.4,3.2l1.6-4.9l2-3.9l0.4-3.3l10.4-0.4l2,7.6l8.6,3.5l10.6,6.2l6.1,5.3
						l1.9,6.2l3.6-0.5l2.3-3.5l3.4-1.1l5.7,1.7l0.6,1.7l5.5-0.4l0.3-2.8l4.9-2.7l6.5,2.3l7.6,3.6v6.4H480.4z M480.7,257.2l0.8-7.9
						l-2.1-4.8V239l-6.9-3.3l-6-2.2l-4,2.2l-0.4,3.1l-7,0.5l-0.7-1.9l-4.9-1.5l-2.8,0.9l-2.3,3.6l-4.9,0.7l-2.1-6.8l-5.8-5.1
						l-10.4-6.1l-9-3.6l-1.9-7.3l-8.7,0.3l-0.3,2.7l-2,3.9l-2.3,7.3l-2.6-5.9l0.3-6.3v-5.9l5.6-1.2l-5.1-3.9l-8.2-5.1l-8.8-6.1
						l-5.8-0.6l-5.7-0.2l-7-0.5l-9.1-1.8l-6.2,6.5l-0.5,7l-6.6,2.7v-3.6l-4-1.6l-3.6,4l-8.5,2l-3.4-7.6l-2.4-2.8v-6.1l10.2-1h6.9
						l6.6-2.2V182l0.4-5l-5.1,0.5v-8.2l-3.9-9.4l-8.3,5.2l-10.8,9.3l-6.7-0.9l-6.6-0.4l2.3,6.4h-4l-5.2-0.9h-4.9l-2.8,1.8l-24,1.6
						l24.5-10.3l8.2-8.1l-2.5,2l-4.8,4.2l-2.1-6.3l0.5-5.9l-4.2-7.4l-1-6.7l5.5-4.9h6.7l1.3-7.8l-1.4-15.9l-3.6-8.4l-10.6-3.2
						l-7.3-7.6l-4.6,1.6l-3,6.9l-4.2-4.6l-11.1-6.8l-9.1-4.7V74.7l-6.1-8.3l2-4.4l2.6-9l-6-0.4l-4.2-3.2h-11l-2.3,6.7l-4.9,3.1
						l2.3,7.6l-4.2,7.4l-1.4,7.9l-9,7.4l-5.6,6.9l-11.4,2L177,90l3.8-8.9l5-7.1l-2.2-8.2l-3.8-1.4V59l5-0.9l-2.1-7l-10.1-3.9
						l-4.4,5.2l-2.3,5.4l-3.2,6.3l0.9,17.6l-6.7,2.3l-4.7,11l-7.3,6.8l-0.9,5.6l-6.3,3.3l-10,7.2l-1.4,4.1l-7.1,5.6l-5.4,4.9
						l3.8,1.3l-1.6,5.4l-7.1,0.5l-4.9,4.4l-3.3,6.5l-6.2,3.2l6.5,2.6l-3.5,5.4v4.6l-6.5,8.2v11l-3.5,3.9l-12.1,5l-3.1,4.8l-0.5,9.2
						l-2.8,6.9c-1.5,2.2-5.2,8.1-5.6,9.6c-1,1-1.5,1.1-2.1,1.1c-2,0-4.9-1-5.5-1.2l-10.2-1.4l-9,0.5l-3.1-3.1l0.4-5.5l-6.4,7.9
						l-10.7,10.1L4.1,244.1l8.5,11.9l12.3,8.1l10.5-3.1l-5.9,7.9v14.9L16.7,287l-4.5,6.2l-0.5,1.3l28.5,0.3l0.2,6.3l4.8,6.1
						l-4.8,11.1l-7,8.3l-3.2,17.7l7.9,17.1l-2.9,4l6-1.9l4.5,6.5l-4.6,9.3l-1.8,5.7l3.8,2.4l1.4,0.6l2.3-2.3l5.9-3.5l3.1-0.2
						c2.3-2.3,5-5,5.7-5.2c0.4-0.1,1.8-1.5,3.1-2.8l-0.6-5.1l1.6-4.8H70l2.4,3l3.9-1.1c0.7,0.2,5.7,1.4,6.8,2.4
						c1.1,1.1,2.4,2.4,2.8,3.4c0.2,0.7,1.4,2.6,2,3.6l4.2,0.3l2-3l2.3-5.2l6.5-5.1c1,0.2,5.1,1.2,5.8,1.6c0.6,0.3,3.2,3,4.5,4.4
						l3.5-4.4l5.2-0.7l5.7,1.5l2.2,3.4c1.1,1.4,3.8,4.9,4.6,5.8c0.2-0.3,0.4-0.9,0.6-1.4c1.6-0.9,8.5-3.9,9.7-3.9
						c0.3-0.1,0.6-1.6,0.7-3.4l3.5-6.2l9.6,7.4l4.7,1.6l7-0.9l1.5-4.1h6.2l3,5.1l5.6,1.7l1.1-3.6l4.2-2.7l4.8,2.4l5.8,0.8l11.5-0.5
						l12.8,2.5l2.8-6l5.2,1.5l5,6.4h4.5l6.2,5.3l5.2,3.2l4,5.8l16.7-0.3l0.3-2l3.8-3.9l0.5-3.6l1.1-4.8l-1.9-5.5l-3.4-4.9l9.3-4.7
						l1.1,3.6l8.5,5.1l3.4,1.2c0.7,0.5,7.1,4.9,7.8,5.6c0.6,0.6,9.4,5.2,11,6.1c0.9,0.4,5.9,1.3,9.1,1.7l6.5-2.5l8.1-6.7l5.3-1
						l11.8,0.8l3.6-4.8h7.6l12.5-0.8l11.5,0.2l2.9-2.7l-2.2-4.7l5.2-1.5l4.1-1.6l-3.1-2.8l-4.6-1.4l0.9-3.9l0.1-3l-3.9,1.7l-2.7,3.9
						l-5.7-1.5l0.5-5.5l-1.7-4.1l-2.1-0.8l-3.8,1.3l-6.1-2.9l-10.4-10.5l-7.5-5.3l-8-13.5l-2.9-2.7l2-3.4l4.8-5.5l4.8-2.6l5.8-2.8
						l5.3-0.3l3.1,2.1l-1.1-2.2l0.2-3.3l10.4,0.5l3.1,4.7l2.2,5.4l7.3-0.2l0.6-3l4.4-0.9l5.2,1.3l5.2,1l4.6,1.7l7.2-4.6l13.6-5.4
						l10.7-5.1l7.7-0.2l9.8-3.2l8.3-3.5l8.2-6.2l1.3-3.4L480.7,257.2"/>
				</g>
				<g>
					<path class="st14" d="M172.4,47.2l10.1,3.9l2.1,7l-5,0.9v5.3l3.8,1.4l2.2,8.2l-5,7.1l-3.8,8.9l0.5,8.4l11.4-2l5.6-6.9l9-7.4
						l1.4-7.9l4.2-7.4l-2.3-7.6l4.9-3.1l2.3-6.7H225l4.2,3.2l6,0.4l-2.6,9l-2,4.4l6.1,8.3V88l9.1,4.7l11.1,6.8l4.2,4.6l3-6.9
						l4.6-1.6l7.3,7.6l10.6,3.2l3.6,8.4l1.4,15.9l-1.3,7.8h-6.7l-5.5,4.9l1,6.7l4.2,7.4l-0.5,5.8l2.1,6.4l4.8-4.2l1.3-2.5l-7,8.6
						l-24.5,10.3l24-1.6l2.8-1.8h4.9l5.2,0.9h4l-2.3-6.4l6.6,0.4l6.7,0.9l10.8-9.3l8.3-5.2l3.9,9.4v8.2l5.1-0.5l-0.4,5v4.2l-6.6,2.2
						h-6.9l-10.2,1v6.1l2.4,2.8l3.4,7.6l8.5-2l3.6-4l4,1.6v3.6l6.6-2.7l0.5-7l6.2-6.5l9.1,1.8l7,0.5l5.7,0.2l5.8,0.6l8.8,6.1
						l8.2,5.1l5.1,3.9l-5.6,1.2v5.9l-0.3,6.3l2.6,5.9l2.3-7.3l2-3.9l0.3-2.7l8.7-0.3l1.9,7.3l9,3.6l10.4,6.1l5.8,5.1l2.1,6.8
						l4.9-0.7l2.3-3.6l2.8-0.9l4.9,1.5l0.7,1.9l7-0.5l0.4-3.1l4-2.2l6,2.2l6.9,3.3v5.5l2.1,4.8l-0.8,7.9l-3.3,6.1l-1.3,3.4l-8.2,6.2
						l-8.3,3.5l-9.8,3.2l-7.7,0.2l-10.7,5.1l-13.6,5.4l-7.2,4.6l-4.6-1.7l-5.2-1l-5.2-1.3l-4.4,0.9l-0.6,3l-7.3,0.2l-2.2-5.4
						l-3.1-4.7l-10.4-0.5l-0.2,3.4l2,1.4l-4-1.4l-5.3,0.3l-5.8,2.8l-4.8,2.6l-4.8,5.5l-2,3.4l2.9,2.7l8,13.5l7.5,5.3l10.4,10.5
						l6.1,2.9l3.8-1.3l2.1,0.8l1.7,4.1l-0.5,5.5l5.7,1.5l2.7-3.9l3.9-1.7l-0.1,3l-0.9,3.9l4.6,1.4l3.1,2.8l-4.1,1.6l-5.2,1.5
						l2.2,4.7l-2.9,2.7l-11.5-0.2l-12.5,0.8h-7.6l-3.6,4.8l-11.7-0.8l-5.4,1l-8.1,6.7l-6.5,2.5c-3.2-0.5-8.2-1.3-9.1-1.7
						c-1.7-0.8-10.5-5.5-11-6.1c-0.7-0.7-7.1-5.1-7.8-5.6l-3.4-1.2l-8.5-5.1l-1.1-3.6l-9.3,4.7l3.4,4.9l1.9,5.5l-1.1,4.8l-0.5,3.6
						l-3.8,3.9l-0.3,2l-16.7,0.3l-4-5.8l-5.2-3.2l-6.2-5.3h-4.5l-5-6.4l-5.2-1.5l-2.8,6l-12.8-2.5l-11.5,0.5l-5.8-0.8l-4.8-2.4
						l-4.2,2.7l-1.1,3.6l-5.6-1.7l-3-5.1h-6.2l-1.5,4.1l-7,0.9l-4.7-1.6l-9.6-7.4l-3.5,6.1c0,1.9-0.4,3.4-0.7,3.5
						c-1.2,0-8,3-9.4,3.6c-0.4,0.9-0.7,1.5-0.9,1.8c-0.8-0.8-3.5-4.4-4.6-5.8l-2.2-3.4l-5.7-1.5l-5.2,0.7l-3.5,4.4
						c-1.3-1.3-3.9-4.1-4.5-4.4c-0.7-0.3-4.7-1.3-5.5-1.5l-6.8,5l-2.3,5.2l-2,3l-4.2-0.3c-0.6-0.9-1.7-2.9-2-3.6
						c-0.4-1.1-1.7-2.4-2.8-3.4s-6.1-2.3-6.7-2.4l-4,1l-2.4-3h-4.4l-1.6,4.8l0.6,5.1c-1.2,1.3-2.7,2.7-3.1,2.8
						c-0.6,0.2-3.4,2.9-5.7,5.2l-3.1,0.2l-5.9,3.5l-2.3,2.3l-1.4-0.6l-3.8-2.4l1.8-5.7l4.6-9.3l-4.5-6.5l-6,1.9l2.9-4l-7.9-17.1
						l3.2-17.7l7-8.3l4.8-11.1l-4.8-6.1l-0.2-6.3l-28.5-0.3l0.5-1.3l4.5-6.2l12.8-3.3v-14.9l5.9-7.9L24.8,264l-12.2-8l-8.5-11.9
						l12.7-10.7l10.7-10.1l6.4-7.9l-0.4,5.5l3.1,3.1l9-0.5l10.2,1.4c0.6,0.2,3.5,1.2,5.5,1.2c0.6,0,1.1-0.1,1.4-0.3
						c1-2.2,4.8-8.1,6.2-10.4l2.8-6.9l0.5-9.2l3.1-4.8l12.1-5l3.5-3.9v-11l6.5-8.2v-4.6l3.5-5.4l-6.5-2.6l6.2-3.2l3.3-6.5l4.9-4.4
						l7.1-0.5l1.6-5.4l-3.8-1.3l5.4-4.9l7.1-5.6l1.4-4.1l10-7.2l6.3-3.3l0.9-5.6l7.3-6.8l4.7-11l6.7-2.3l-0.9-17.6l3.2-6.3l2.3-5.4
						L172.4,47.2z"/>
				</g>
				<g>
					<polygon class="st2" points="42.7,388.4 42.7,397.1 38.2,394.3 38.2,385.6 					"/>
				</g>
				<g>
					<polygon class="st2" points="44.8,389.4 44.8,398.1 42.7,397.1 42.7,388.4 					"/>
				</g>
				<g>
					<polygon class="st1" points="47.5,386.7 47.5,395.4 44.8,398.1 44.8,389.4 					"/>
				</g>
			</g>
		</g>
	</g>
	<path class="st59" d="M163,81.9c5.2,3.3,10.2,5.2,16,6"/>
	<path class="st59" d="M297,215.9c-22-26-23.8-33.5-8-37"/>
	<path class="st59" d="M195,132.9c3.4,8.4,24.6,5.8,16.2,20c-4.9,8.3-15.2,10.3-15.2,21c0,7.8,15.5,11.9,15,22
		c-0.3,6.4-18.4,22.2-25.8,22.2"/>
	<path class="st59" d="M155,85.9c10.9,14.8-0.8,26.3-2.9,41.6c-1.1,8,3,11.2,6.7,18.7"/>
	<path class="st59" d="M68.2,284.2c0-10,0.6-15,5.5-22.9c4.6-7.5,8.7-7.2,13.5-12.7c2-2.2,2.7-6.5,5-9.4c2.8-3.4,5.6-2.8,7.6-6.5
		c2.3-4.2,0.8-7.6,3.6-11.9c2.3-3.6,6.6-2.4,8.5-7.4c5.8,5.5,14.4,17.3,21.7,18.9c1.2-2.4,3.4-3.4,4.2-6.2
		c6.4,4.9,13.7-2.6,20.8-2.3c7.2,0.3,14.5,9.8,21.9,6.5c5.4-2.4,5.7-11.1,12.1-12.7c4.9-1.2,17.6,1.4,16.5,8.2
		c7.8,7,44.7,11.5,54.8,6l36-14c10.2,3.3,19.6,8,28.8,12.2c-0.5,5-0.1,10.8,4.9,12.7c3.3-5.4,1.8-9.3,6.8-13.9
		c4.7-4.3,11.8-3.4,15.4-8.6c2.7-3.8,2.1-12.1,4.1-16.4c2.1-4.8,6.7-10.1,10-14"/>
</g>
<g id="Layer_2">
	<path class="st59" d="M265,232.9c0,11.3,1.7,21.6,2.1,32.9c8.8,0,5.2,6.4,0.1,9.3c1,1,1.7,3.8,3,4.8c-5.6,5.1-2.4,22.2-1.9,29.9
		c4.6-1.6,7.4-5.6,10.8-8.5c1.4-1.2,3.7-1.2,5-2.7c1-1.2,1.4-5.8,2-6.3c3.4-3.1,10.3-2.6,13.1-6.5c2.2-3-0.5-9.5,2.7-13.3
		c6.3-7.5,19.1,0.8,28.3,1.3c12.3,0.6,23.4-1,34.1-7.2c10.3-6,19.8-10.3,31-14.8h87"/>
	<path class="st59" d="M122.4,131.2c0.5,1,0.9,1.9,1.1,3c18.6-4.6,8.6,38.2,28.4,33.4c-0.3-1.5-0.9-0.2-1.9-0.8"/>
	<path class="st59" d="M88,185.9c6.8,5.9,28.1,12.8,34.4,15.3"/>
	<path class="st59" d="M64,221.9c0.3,4.8,9.6,10.7,12.5,14.1c2.8,3.2,8.6,5,10.7,9.5"/>
	<path class="st59" d="M57.7,226c-2.8,6.4-8.1,5.2-12.4,9.1c-4.1,3.7-3,9.3-9.3,10.5c-0.5,5.1-1.2,9.9-2,14.9"/>
	<path class="st59" d="M31,268.9c8.5,0.8,19.7,8.4,24,11.9c4.7,3.8,8-0.6,13.2,2.1c9.8,5.1,3.4,17.4,4.8,26.6c0.3,2.2,3.5,1.3,4,4.4
		c0.3,1.8,0.4,10.2-1,9.4c-4-2.4-8.2,7.8-8,13.6c0.4,10.4-4.6,20.7-2,30"/>
	<path class="st59" d="M74,365.9c1.4-5.8,10.6-20.6,16-21c0.9-11,15-10.7,15-24c0-8-0.6-22.9-10-20.7c-1.6-10.4,16.7-59.9-3-61.3"/>
	<path class="st59" d="M141.5,228.2c5.1,7.8,9.8,16.1,14.9,24c-3.1,2.2-7,4.3-7.4,9.3c-11.2,1.4,1.9,20.7,3,26.6
		c2.4,12.9,0.2,21.1,6.9,32.5c2.6-6.8,10.9-5.8,16.2-7.8c4.7,7.3,20.1,16.8,5.5,22.3c2.7,1.3,7.4-0.4,10.3,1.3
		c2.1,1.2,2.4,5.5,4.1,6.7c3.8,2.7,11,3.1,11.3,8.2"/>
	<path class="st59" d="M106.3,313.3c9.7,1.6,9.7-5.4,8.4-17.5c-0.8-6.6,9.6-11.8,15.2-6.4c3.9-10.5,12.4-6.7,15.5-13.8"/>
	<path class="st59" d="M197.6,374.7c0.1-4.7,4.9-9.2,7.4-12.9c1-1.6,1.5-5.2,2.6-7c1.5-2.6,4.8-1.4,6-4.8c3.1-9.1-3.9-5.6-4.7-11.2
		c-0.8-5.4,4.6-8,3.9-14.3c5.5,0.1,8.2,4.5,13.4,2.6c4.3-1.6,4.4-8.2,9.5-8.4c6.9-0.2,5.5,9.7,11,9.8c4.1,0.1,6.5-7.7,7.3-11.7
		c11.6-2,20,6.2,34,2.2"/>
	<path class="st59" d="M288,319.9c8.3,5.1,3.4,8.3,7,17c4-2.1,8.4-10.1,8.5,1.1c8.4-6.3,9.4-4.1,22.2,2.4c5.4,2.7,1.5,3.7,8.6,1.6
		c2.9-0.9,8.9-5.8,11-8.1"/>
	<path class="st59" d="M349,374.7c-2.2-7-7.9-9-11.4-14.6c-3.8-5.9-2.9-9-2.8-17.8"/>
	<path class="st59" d="M112,215.2c4.8-13.3,11.5-14.7,18.6-24.3c5-6.8,12.2-12.1,16.4-19.2c4.7-8,5.9-17.9,11.8-24.9
		c5.4-6.5,14.3-7.6,21.8-10.3c5.3-1.9,8.6-3.9,13.5-6.2c5.1-2.4,8.2-5.4,12.2,0.9c12.7-5-1.3-18-4.7-22c-4.9-5.7-1-15.4-10.5-15.4"
		/>
	<path class="st59" d="M100,148.9c2.7,0.2,6.6,7.4,9,5c2.2,2.2,2,4.3,4,6c2.1,1.7,4,5.4,6.2,6.5c-8.7,5,4.2,13-3.5,17.5
		c-1.5-10.1-16.4-6-24.7-4"/>
	<path class="st59" d="M345,334.9c2.2-6.7,10-6.6,15-10"/>
	<path class="st59" d="M346,305.9c-13.8-1.5-16.5,9.4-27.1,12.9c-4.5,1.5-9.6,2.8-14.4,3.1c-3.6,0.2-13.7-0.1-15.5-2"/>
	<path class="st59" d="M268,308.9c-1.6,2.7-3,7-3,8"/>
	<path class="st59" d="M238,87.9c-3.2,7.7-7.4,9.6-14,13c-4.5,2.3-10.7,2-7.1,9.8c-1.6,0.7-2.7,2.4-3.7,3
		c11.4,2.5,1.2,15.4-4.1,15.2"/>
	<circle class="st60" cx="105.5" cy="165.3" r="6.2"/>
	<g>
		<g>
			<line class="st61" x1="105.6" y1="165.3" x2="82.2" y2="144"/>
			<g>
				<path d="M107,161.9c1.9,0.8,2.8,3.1,2,5s-3.1,2.8-5,2c-1.9-0.8-2.8-3.1-2-5C102.9,161.9,105.1,161.1,107,161.9z"/>
			</g>
		</g>
	</g>
</g>
</svg>
