<?xml version="1.0" encoding="utf-8"?>
<!-- Generator: Adobe Illustrator 25.4.1, SVG Export Plug-In . SVG Version: 6.00 Build 0)  -->
<svg version="1.1" id="Layer_1" xmlns="http://www.w3.org/2000/svg" xmlns:xlink="http://www.w3.org/1999/xlink" x="0px" y="0px"
	 viewBox="0 0 261.3 411.9" style="enable-background:new 0 0 261.3 411.9;" xml:space="preserve">
<style type="text/css">
	.st0{enable-background:new    ;}
	.st1{fill:#3F3F3F;}
	.st2{fill:#3F3F40;}
	.st3{fill:#939393;}
	.st4{fill:#404041;}
	.st5{fill:#808080;}
	.st6{fill:#929292;}
	.st7{clip-path:url(#SVGID_00000126299482748996047290000003223403672580173716_);enable-background:new    ;}
	.st8{fill:#858585;}
	.st9{clip-path:url(#SVGID_00000060728315882723783690000006188175412712892317_);enable-background:new    ;}
	.st10{clip-path:url(#SVGID_00000169538701416537075470000010288920390064713379_);enable-background:new    ;}
	.st11{fill:#949494;}
	.st12{clip-path:url(#SVGID_00000132797244525181213270000010702023298431743874_);enable-background:new    ;}
	.st13{clip-path:url(#SVGID_00000029736504668539360780000003871859361194588826_);enable-background:new    ;}
	.st14{clip-path:url(#SVGID_00000055687392260057815400000003861101844639576981_);enable-background:new    ;}
	.st15{clip-path:url(#SVGID_00000081646280337555549480000008362997546369441181_);enable-background:new    ;}
	.st16{clip-path:url(#SVGID_00000065777433926357942580000010277239417575160721_);enable-background:new    ;}
	.st17{clip-path:url(#SVGID_00000077317909860008757960000015281282409323907470_);enable-background:new    ;}
	.st18{clip-path:url(#SVGID_00000003827520754171565820000015860133786425066395_);enable-background:new    ;}
	.st19{fill:#8F8F8F;}
	.st20{fill:#8A8A8A;}
	.st21{clip-path:url(#SVGID_00000017481973044500916530000016959704945478363528_);enable-background:new    ;}
	.st22{clip-path:url(#SVGID_00000106837996835738472360000004291822880715589274_);enable-background:new    ;}
	.st23{clip-path:url(#SVGID_00000048478690179387142230000017461479136619810737_);enable-background:new    ;}
	.st24{fill:#404040;}
	.st25{fill:#3F4040;}
	.st26{clip-path:url(#SVGID_00000152226343455433347650000012943191996092808085_);enable-background:new    ;}
	.st27{clip-path:url(#SVGID_00000122722438836224963450000017486770295512121274_);enable-background:new    ;}
	.st28{clip-path:url(#SVGID_00000180344094404902173700000001329078261371881886_);enable-background:new    ;}
	.st29{clip-path:url(#SVGID_00000080926535731036355570000008165750437172444329_);enable-background:new    ;}
	.st30{clip-path:url(#SVGID_00000179623540314143620520000010641096937690426014_);enable-background:new    ;}
	.st31{clip-path:url(#SVGID_00000057144220462493178630000000496984410644120962_);enable-background:new    ;}
	.st32{clip-path:url(#SVGID_00000070077391941446245690000010159041178902104731_);enable-background:new    ;}
	.st33{clip-path:url(#SVGID_00000029015890065405589070000018373467954780743608_);enable-background:new    ;}
	.st34{clip-path:url(#SVGID_00000178926326849836929440000009456662680442996101_);enable-background:new    ;}
	.st35{clip-path:url(#SVGID_00000011747698868888107090000002134508297109399208_);enable-background:new    ;}
	.st36{clip-path:url(#SVGID_00000119837730846482250860000014915586483918941872_);enable-background:new    ;}
	.st37{clip-path:url(#SVGID_00000158720710004396010410000007777368683774952872_);enable-background:new    ;}
	.st38{clip-path:url(#SVGID_00000008871196397581969530000008071018682532939426_);enable-background:new    ;}
	.st39{clip-path:url(#SVGID_00000134943800566597268840000002553029905020176052_);enable-background:new    ;}
	.st40{clip-path:url(#SVGID_00000052802492757264478110000009952074945727783300_);enable-background:new    ;}
	.st41{clip-path:url(#SVGID_00000116221248706174919100000016028289604276358554_);enable-background:new    ;}
	.st42{clip-path:url(#SVGID_00000083057623551801018620000003313690213473851555_);enable-background:new    ;}
	.st43{clip-path:url(#SVGID_00000116917481388937432690000009911196998261108926_);enable-background:new    ;}
	.st44{clip-path:url(#SVGID_00000048499584398924895580000012907049761423877032_);enable-background:new    ;}
	.st45{clip-path:url(#SVGID_00000080199605551882221740000008056590408138721208_);enable-background:new    ;}
	.st46{clip-path:url(#SVGID_00000028315587026658590020000000796096730477489341_);enable-background:new    ;}
	.st47{clip-path:url(#SVGID_00000029039488581155996960000000966936892513571753_);enable-background:new    ;}
	.st48{clip-path:url(#SVGID_00000013162427661863140960000010404282701687323308_);enable-background:new    ;}
	.st49{clip-path:url(#SVGID_00000035516972915274567990000011969549038169484206_);enable-background:new    ;}
	.st50{clip-path:url(#SVGID_00000083046442715676679960000017422765834555592620_);enable-background:new    ;}
	.st51{clip-path:url(#SVGID_00000104684564124450324980000015858580488605371038_);enable-background:new    ;}
	.st52{clip-path:url(#SVGID_00000075878959810662588890000006824112062336811921_);enable-background:new    ;}
	.st53{clip-path:url(#SVGID_00000014598709367942190750000007619495060359776688_);enable-background:new    ;}
	.st54{clip-path:url(#SVGID_00000092426401899227085070000012375118149122271674_);enable-background:new    ;}
	.st55{clip-path:url(#SVGID_00000114060140541188532690000003827792211220297856_);enable-background:new    ;}
	.st56{clip-path:url(#SVGID_00000170993204837512620050000002170361923405543089_);enable-background:new    ;}
	.st57{clip-path:url(#SVGID_00000075131726617578776280000007616528124054456711_);enable-background:new    ;}
	.st58{clip-path:url(#SVGID_00000098185378464045346200000003115005238349426075_);enable-background:new    ;}
	.st59{clip-path:url(#SVGID_00000141425265545497381910000014055781669968277429_);enable-background:new    ;}
	.st60{clip-path:url(#SVGID_00000182487609707882736210000000432461619244124825_);enable-background:new    ;}
	.st61{clip-path:url(#SVGID_00000152225720070920599870000012541264100275130506_);enable-background:new    ;}
	.st62{clip-path:url(#SVGID_00000156550055451199257930000015374526126846009230_);enable-background:new    ;}
	.st63{clip-path:url(#SVGID_00000079480526979101738180000007476311526801232531_);enable-background:new    ;}
	.st64{clip-path:url(#SVGID_00000124132713603512786950000007654052519132480425_);enable-background:new    ;}
	.st65{clip-path:url(#SVGID_00000034058639891236583980000015353548665828265656_);enable-background:new    ;}
	.st66{clip-path:url(#SVGID_00000079457219638381722250000008879473988325480837_);enable-background:new    ;}
	.st67{clip-path:url(#SVGID_00000084503215165006378330000013213293318822799747_);enable-background:new    ;}
	.st68{clip-path:url(#SVGID_00000044152524110953029140000006274650552041549488_);enable-background:new    ;}
	.st69{clip-path:url(#SVGID_00000008133291521910729000000011157001727843789238_);enable-background:new    ;}
	.st70{clip-path:url(#SVGID_00000043421494391272581650000011550827389957907373_);enable-background:new    ;}
	.st71{clip-path:url(#SVGID_00000158011417936043357190000009320444032665547180_);enable-background:new    ;}
	.st72{clip-path:url(#SVGID_00000052826216703410077130000000024503409881729949_);enable-background:new    ;}
	.st73{clip-path:url(#SVGID_00000040557367585434865310000002451019297051629185_);enable-background:new    ;}
	.st74{clip-path:url(#SVGID_00000044171896910957193020000008805871097366431906_);enable-background:new    ;}
	.st75{clip-path:url(#SVGID_00000016773919046884298630000006444579937326665630_);enable-background:new    ;}
	.st76{clip-path:url(#SVGID_00000102538911683666901450000002900087697761701025_);enable-background:new    ;}
	.st77{clip-path:url(#SVGID_00000084494183389502623600000005495479763617599126_);enable-background:new    ;}
	.st78{clip-path:url(#SVGID_00000048484484552631434440000002912540578979816615_);enable-background:new    ;}
	.st79{clip-path:url(#SVGID_00000153667825679358716460000009212630932734409883_);enable-background:new    ;}
	.st80{clip-path:url(#SVGID_00000180329105796225799890000004667026114211071661_);enable-background:new    ;}
	.st81{clip-path:url(#SVGID_00000141423163998819438240000005113574658132488329_);enable-background:new    ;}
	.st82{fill:#909090;}
	.st83{clip-path:url(#SVGID_00000079446198418750208740000016149089816566577057_);enable-background:new    ;}
	.st84{fill:#464646;}
	.st85{fill:#E5E5E5;stroke:#000000;stroke-miterlimit:10;}
	.st86{clip-path:url(#SVGID_00000108279860507369842370000011848243057489187226_);enable-background:new    ;}
	.st87{fill:none;stroke:#000000;stroke-miterlimit:10;stroke-dasharray:2.6635,2.6635;}
</style>
<g>
	<g>
		<g class="st0">
			<g>
				<polygon class="st1" points="117.5,3 117.5,11.6 107.1,8.9 107.1,0.2 				"/>
			</g>
			<g>
				<polygon class="st1" points="119.8,11.3 119.8,20 117.5,11.6 117.5,3 				"/>
			</g>
			<g>
				<polygon class="st1" points="211.2,12.6 211.2,21.3 179.7,17.9 179.7,9.2 				"/>
			</g>
			<g>
				<polygon class="st1" points="179.7,9.2 179.7,17.9 159.2,25.5 159.2,16.8 				"/>
			</g>
			<g>
				<polygon class="st1" points="129.2,20.9 129.2,29.6 119.8,20 119.8,11.3 				"/>
			</g>
			<g>
				<polygon class="st2" points="107.1,0.2 107.1,8.9 73.7,30.2 73.7,21.5 				"/>
			</g>
			<g>
				<polygon class="st1" points="142,22.2 142,30.8 129.2,29.6 129.2,20.9 				"/>
			</g>
			<g>
				<polygon class="st1" points="159.2,16.8 159.2,25.5 142,30.8 142,22.2 				"/>
			</g>
			<g>
				<polygon class="st3" points="211.2,12.6 211.2,21.3 210.8,34.2 210.8,25.5 				"/>
			</g>
			<g>
				<polygon class="st4" points="73.7,21.5 73.7,30.2 72.6,37.9 72.6,29.3 				"/>
			</g>
			<g>
				<polygon class="st5" points="85,37.3 85,46 72.6,37.9 72.6,29.3 				"/>
			</g>
			<g>
				<polygon class="st1" points="84.1,37.7 84.1,46.4 71.8,38.6 71.8,29.9 				"/>
			</g>
			<g>
				<polygon class="st1" points="219.8,38.7 219.8,47.3 210.9,34.5 210.9,25.8 				"/>
			</g>
			<g>
				<polygon class="st1" points="227,47.9 227,56.6 219.8,47.3 219.8,38.7 				"/>
			</g>
			<g>
				<polygon class="st5" points="85,46 85,37.3 88.5,55.2 88.5,63.8 				"/>
			</g>
			<g>
				<polygon class="st1" points="87.7,54.9 87.7,63.6 84.1,46.4 84.1,37.7 				"/>
			</g>
			<g>
				<polygon class="st2" points="88.7,55 88.7,63.7 80.3,73.1 80.3,64.4 				"/>
			</g>
			<g>
				<polygon class="st5" points="88.6,55.4 88.6,64.1 88.5,63.8 88.5,55.2 				"/>
			</g>
			<g>
				<polygon class="st6" points="227,47.9 227,56.6 226.3,65.1 226.3,56.4 				"/>
			</g>
			<g>
				<polygon class="st4" points="227.9,47.5 227.9,56.2 227.3,65.2 227.3,56.5 				"/>
			</g>
			<g class="st0">
				<g>
					<defs>
						<path id="SVGID_1_" d="M80.3,73.1c0-0.1,0-0.3,0-0.5c0-2.7,0-5.5,0-8.2c1.4,8.3,2.4,16.6,3,24.7c0,0.3,0,0.7,0,1s0,0.7,0,1.1
							c0,0.3,0,0.8,0,1.1s0,0.8,0,1.1s0,0.8,0,1.1s0,0.8,0,1.1s0,0.7,0,1.1c0,0.3,0,0.7,0,1l0,0l0,0l0,0l0,0l0,0l0,0l0,0l0,0
							C82.7,89.7,81.7,81.4,80.3,73.1z"/>
					</defs>
					<clipPath id="SVGID_00000118356261547470002090000013915031591479469750_">
						<use xlink:href="#SVGID_1_"  style="overflow:visible;"/>
					</clipPath>
					<g style="clip-path:url(#SVGID_00000118356261547470002090000013915031591479469750_);enable-background:new    ;">
						<path class="st8" d="M84.2,112.7v8.7c0-15.6-1.1-31.8-3.9-48.4v-8.7C83.1,80.9,84.2,97.2,84.2,112.7"/>
					</g>
				</g>
			</g>
			<g class="st0">
				<g>
					<defs>
						<path id="SVGID_00000072251927421471394990000012478696439978136479_" d="M83.3,97.8v-0.1c0-0.3,0-0.7,0-1s0-0.7,0-1.1
							c0-0.3,0-0.8,0-1.1s0-0.8,0-1.1s0-0.8,0-1.1s0-0.8,0-1.1s0-0.7,0-1.1c0-0.3,0-0.7,0-1c0,0.1,0,0.2,0,0.3c0,0.2,0,0.4,0,0.5
							c0,0.2,0,0.4,0,0.5c0,0.2,0,0.4,0,0.6c0,0.2,0,0.4,0,0.6c0,0.2,0,0.4,0,0.6c0,0.2,0,0.4,0,0.6c0,0.2,0,0.4,0,0.5
							c0,0.2,0,0.4,0,0.5s0,0.3,0,0.5s0,0.4,0,0.5c0,0.2,0,0.4,0,0.5c0,0.2,0,0.4,0,0.6c0,0.2,0,0.4,0,0.6c0,0.2,0,0.4,0,0.5
							c0,0.2,0,0.4,0,0.5s0,0.3,0,0.5C83.3,98,83.3,97.9,83.3,97.8z"/>
					</defs>
					<clipPath id="SVGID_00000147201694788241176230000008924633873397831574_">
						<use xlink:href="#SVGID_00000072251927421471394990000012478696439978136479_"  style="overflow:visible;"/>
					</clipPath>
					<g style="clip-path:url(#SVGID_00000147201694788241176230000008924633873397831574_);enable-background:new    ;">
						<path class="st8" d="M84.2,112.7v8.7c0-15.6-1.1-31.8-3.9-48.4v-8.7C83.1,80.9,84.2,97.2,84.2,112.7"/>
					</g>
				</g>
			</g>
			<g class="st0">
				<g>
					<defs>
						<path id="SVGID_00000019680373672928928170000011793742123298567835_" d="M223.2,112.7c0-0.1,0-0.3,0-0.4s0-0.3,0-0.5
							c0-0.1,0-0.3,0-0.5c0-0.1,0-0.3,0-0.5c0-0.1,0-0.3,0-0.5c0-0.1,0-0.3,0-0.5c0-0.1,0-0.3,0-0.5c0-0.1,0-0.3,0-0.4
							c0-0.2,0-0.4,0-0.6s0-0.4,0-0.6s0-0.4,0-0.6s0-0.4,0-0.6s0-0.4,0-0.6s0-0.4,0-0.6s0-0.4,0-0.6c0-0.2,0-0.4,0-0.6
							c0.8-18.2,3.1-35.3,3.1-47.6v8.7C226.3,77.4,224.1,94.5,223.2,112.7z"/>
					</defs>
					<clipPath id="SVGID_00000150080164881122060020000001394518924676382852_">
						<use xlink:href="#SVGID_00000019680373672928928170000011793742123298567835_"  style="overflow:visible;"/>
					</clipPath>
					<g style="clip-path:url(#SVGID_00000150080164881122060020000001394518924676382852_);enable-background:new    ;">
						<path class="st11" d="M226.3,56.4v8.7c0,15-3.4,37-3.4,59.7v-8.7C222.9,93.5,226.3,71.4,226.3,56.4"/>
					</g>
				</g>
			</g>
			<g class="st0">
				<g>
					<defs>
						<path id="SVGID_00000145779512260577316540000002482988758957301426_" d="M83.2,112.7v8.7c0-15.6-1.1-31.8-3.9-48.4v-8.7
							C82.1,80.9,83.2,97.1,83.2,112.7z"/>
					</defs>
					<clipPath id="SVGID_00000077313174515856909400000004255652571855197872_">
						<use xlink:href="#SVGID_00000145779512260577316540000002482988758957301426_"  style="overflow:visible;"/>
					</clipPath>
					<g style="clip-path:url(#SVGID_00000077313174515856909400000004255652571855197872_);enable-background:new    ;">
						<path class="st2" d="M83.2,112.7v8.7c0-15.6-1.1-31.8-3.9-48.4v-8.7C82.1,80.9,83.2,97.1,83.2,112.7"/>
					</g>
				</g>
			</g>
			<g class="st0">
				<g>
					<defs>
						<path id="SVGID_00000142867117670677606430000001904673015373948072_" d="M83.3,98.1c0-0.3,0-0.7,0-1c0-0.2,0-0.4,0-0.5
							c0-0.2,0-0.4,0-0.6c0-0.2,0-0.4,0-0.6c0-0.2,0-0.4,0-0.5c0-0.2,0-0.4,0-0.5s0-0.3,0-0.5s0-0.4,0-0.5c0-0.2,0-0.4,0-0.5
							c0-0.2,0-0.4,0-0.6c0-0.2,0-0.4,0-0.6c0-0.2,0-0.4,0-0.6c0-0.2,0-0.4,0-0.6c0-0.2,0-0.4,0-0.5c0-0.2,0-0.4,0-0.5
							c0.6,7.9,0.9,15.7,0.9,23.3v8.7C84.2,113.8,83.9,106,83.3,98.1z"/>
					</defs>
					<clipPath id="SVGID_00000127749799122917232010000003994095889266414261_">
						<use xlink:href="#SVGID_00000142867117670677606430000001904673015373948072_"  style="overflow:visible;"/>
					</clipPath>
					<g style="clip-path:url(#SVGID_00000127749799122917232010000003994095889266414261_);enable-background:new    ;">
						<path class="st8" d="M84.2,112.7v8.7c0-15.6-1.1-31.8-3.9-48.4v-8.7C83.1,80.9,84.2,97.2,84.2,112.7"/>
					</g>
				</g>
			</g>
			<g class="st0">
				<g>
					<defs>
						<path id="SVGID_00000055700477505263018570000002332625680567319171_" d="M227.3,56.5v8.7c0,15.1-3.4,37-3.4,59.6v-8.7
							C223.9,93.5,227.3,71.6,227.3,56.5z"/>
					</defs>
					<clipPath id="SVGID_00000046333377726963986910000012677602095764451750_">
						<use xlink:href="#SVGID_00000055700477505263018570000002332625680567319171_"  style="overflow:visible;"/>
					</clipPath>
					<g style="clip-path:url(#SVGID_00000046333377726963986910000012677602095764451750_);enable-background:new    ;">
						<path class="st4" d="M227.3,56.5v8.7c0,15.1-3.4,37-3.4,59.6v-8.7C223.9,93.5,227.3,71.6,227.3,56.5"/>
					</g>
				</g>
			</g>
			<g class="st0">
				<g>
					<defs>
						<path id="SVGID_00000016778022910192764730000007535587134683470771_" d="M223.2,112.7c-0.2,4-0.3,8-0.3,12.1v-8.7
							c0-4.1,0.1-8.1,0.3-12.1c0,0.2,0,0.4,0,0.6c0,0.2,0,0.4,0,0.6s0,0.4,0,0.6s0,0.4,0,0.6s0,0.4,0,0.6s0,0.4,0,0.6s0,0.4,0,0.6
							s0,0.4,0,0.6c0,0.1,0,0.3,0,0.4s0,0.3,0,0.5c0,0.1,0,0.3,0,0.5c0,0.1,0,0.3,0,0.5C223.2,111.4,223.2,112,223.2,112.7z"/>
					</defs>
					<clipPath id="SVGID_00000170270909575269604630000013110962933027118212_">
						<use xlink:href="#SVGID_00000016778022910192764730000007535587134683470771_"  style="overflow:visible;"/>
					</clipPath>
					<g style="clip-path:url(#SVGID_00000170270909575269604630000013110962933027118212_);enable-background:new    ;">
						<path class="st11" d="M226.3,56.4v8.7c0,15-3.4,37-3.4,59.7v-8.7C222.9,93.5,226.3,71.4,226.3,56.4"/>
					</g>
				</g>
			</g>
			<g class="st0">
				<g>
					<defs>
						<path id="SVGID_00000040534315036433756830000008361815325141042351_" d="M239.7,177v8.7C226,168.5,223,146.3,223,124.8v-8.7
							C222.9,137.7,226,159.9,239.7,177z"/>
					</defs>
					<clipPath id="SVGID_00000010305809662105876050000013953215497166020539_">
						<use xlink:href="#SVGID_00000040534315036433756830000008361815325141042351_"  style="overflow:visible;"/>
					</clipPath>
					<g style="clip-path:url(#SVGID_00000010305809662105876050000013953215497166020539_);enable-background:new    ;">
						<path class="st2" d="M239.7,177v8.7C226,168.5,223,146.3,223,124.8v-8.7C222.9,137.7,226,159.9,239.7,177"/>
					</g>
				</g>
			</g>
			<g class="st0">
				<g>
					<defs>
						<path id="SVGID_00000076583772975090745100000016664960693725363884_" d="M255.1,178.6v8.7c-5.4-0.1-9.1-1.7-13.2-1.7
							c-0.8,0-1.5,0-2.2,0.2V177c0.7-0.1,1.5-0.2,2.2-0.2C246,176.9,249.8,178.6,255.1,178.6z"/>
					</defs>
					<clipPath id="SVGID_00000006671828237955833800000015793255069261727676_">
						<use xlink:href="#SVGID_00000076583772975090745100000016664960693725363884_"  style="overflow:visible;"/>
					</clipPath>
					<g style="clip-path:url(#SVGID_00000006671828237955833800000015793255069261727676_);enable-background:new    ;">
						<path class="st2" d="M255.1,178.6v8.7c-5.4-0.1-9.1-1.7-13.2-1.7c-0.8,0-1.5,0-2.2,0.2V177c0.7-0.1,1.5-0.2,2.2-0.2
							C246,176.9,249.8,178.6,255.1,178.6"/>
					</g>
				</g>
			</g>
			<g>
				<polygon class="st1" points="258.7,187.7 258.7,196.4 254.2,188.6 254.2,180 				"/>
			</g>
			<g class="st0">
				<g>
					<defs>
						<path id="SVGID_00000091731145043301864850000012049878367651890075_" d="M259.2,196.2c-2.1,5.9-4.8,8.3-7.8,10.4
							c0-0.3,0-0.7,0-1s0-0.8,0-1.1c0-0.3,0-0.8,0-1.1c0-0.3,0-0.8,0-1.1c0-0.3,0-0.8,0-1.1c0-0.3,0-0.8,0-1.1c0-0.3,0-0.8,0-1.1
							c0-0.3,0-0.7,0-1c3-2,5.7-4.5,7.8-10.4C259.2,190.1,259.2,193.6,259.2,196.2z"/>
					</defs>
					<clipPath id="SVGID_00000072275619803333720200000016574319779295856769_">
						<use xlink:href="#SVGID_00000091731145043301864850000012049878367651890075_"  style="overflow:visible;"/>
					</clipPath>
					<g style="clip-path:url(#SVGID_00000072275619803333720200000016574319779295856769_);enable-background:new    ;">
						<path class="st19" d="M259.2,187.5v8.7c-0.3,1-0.7,1.8-1.1,2.6v-8.7C258.5,189.3,258.8,188.5,259.2,187.5"/>
						<path class="st20" d="M258.1,190.1v8.7c-0.7,1.6-1.5,2.8-2.3,3.8V194C256.6,192.9,257.4,191.7,258.1,190.1"/>
						<path class="st8" d="M255.8,194v8.7c-1.4,1.7-2.8,2.9-4.4,3.9c-2.8,1.9-5.8,3.4-8.6,6.9v-8.7c2.7-3.4,5.8-5,8.6-6.9
							C252.9,196.9,254.4,195.7,255.8,194"/>
					</g>
				</g>
			</g>
			<g class="st0">
				<g>
					<defs>
						<path id="SVGID_00000065040439612346611140000012353134258765135788_" d="M242.1,214.4c-4.6,6.6-5.8,11.7-7.7,16.1
							c0-0.3,0-0.7,0-1s0-0.8,0-1.1c0-0.3,0-0.8,0-1.1c0-0.3,0-0.8,0-1.1c0-0.3,0-0.8,0-1.1c0-0.3,0-0.8,0-1.1c0-0.3,0-0.8,0-1.1
							c0-0.3,0-0.7,0-1c1.9-4.4,3.1-9.5,7.7-16.1c2.9-4.1,6.3-5.8,9.3-7.8l0,0c0,0.3,0,0.7,0,1s0,0.8,0,1.1c0,0.3,0,0.8,0,1.1
							c0,0.3,0,0.8,0,1.1c0,0.3,0,0.8,0,1.1c0,0.3,0,0.8,0,1.1c0,0.3,0,0.8,0,1.1c0,0.3,0,0.7,0,1l0,0
							C248.4,208.7,245,210.3,242.1,214.4z"/>
					</defs>
					<clipPath id="SVGID_00000181782523751845263110000004096602205969226143_">
						<use xlink:href="#SVGID_00000065040439612346611140000012353134258765135788_"  style="overflow:visible;"/>
					</clipPath>
					<g style="clip-path:url(#SVGID_00000181782523751845263110000004096602205969226143_);enable-background:new    ;">
						<path class="st8" d="M255.8,194v8.7c-1.4,1.7-2.8,2.9-4.4,3.9c-2.8,1.9-5.8,3.4-8.6,6.9v-8.7c2.7-3.4,5.8-5,8.6-6.9
							C252.9,196.9,254.4,195.7,255.8,194"/>
						<path class="st20" d="M242.8,204.8v8.7c-0.2,0.3-0.5,0.6-0.7,1c-1.8,2.5-3,4.8-4,7v-8.7c1-2.1,2.3-4.4,4-7
							C242.3,205.4,242.6,205.1,242.8,204.8"/>
						<path class="st19" d="M238.1,212.7v8.7c-1.6,3.4-2.5,6.4-3.7,9.1c-0.1,0.2-0.1,0.3-0.2,0.5v-8.7c0.1-0.2,0.1-0.3,0.2-0.5
							C235.6,219.1,236.5,216.1,238.1,212.7"/>
					</g>
				</g>
			</g>
			<g class="st0">
				<g>
					<defs>
						<path id="SVGID_00000071537979947336508790000010759631191057481906_" d="M230.4,236.6L230.4,236.6c0-0.3,0-0.7,0-1
							s0-0.8,0-1.1c0-0.3,0-0.8,0-1.1c0-0.3,0-0.8,0-1.1c0-0.3,0-0.8,0-1.1c0-0.3,0-0.8,0-1.1c0-0.3,0-0.8,0-1.1c0-0.3,0-0.7,0-1
							l0,0l0,0c0,0.3,0,0.7,0,1s0,0.8,0,1.1c0,0.3,0,0.8,0,1.1c0,0.3,0,0.8,0,1.1c0,0.3,0,0.8,0,1.1c0,0.3,0,0.8,0,1.1
							c0,0.3,0,0.8,0,1.1C230.4,235.9,230.4,236.3,230.4,236.6c0-0.3,0-0.7,0-1s0-0.8,0-1.1c0-0.3,0-0.8,0-1.1c0-0.3,0-0.8,0-1.1
							c0-0.3,0-0.8,0-1.1c0-0.3,0-0.8,0-1.1c0-0.3,0-0.8,0-1.1c0-0.3,0-0.7,0-1c1.9-2,3-3.9,4-6.1c0,0.3,0,0.7,0,1s0,0.8,0,1.1
							c0,0.3,0,0.8,0,1.1c0,0.3,0,0.8,0,1.1c0,0.3,0,0.8,0,1.1c0,0.3,0,0.8,0,1.1c0,0.3,0,0.8,0,1.1c0,0.3,0,0.7,0,1
							C233.4,232.6,232.3,234.6,230.4,236.6z"/>
					</defs>
					<clipPath id="SVGID_00000052806107786947881950000000174470434309042073_">
						<use xlink:href="#SVGID_00000071537979947336508790000010759631191057481906_"  style="overflow:visible;"/>
					</clipPath>
					<g style="clip-path:url(#SVGID_00000052806107786947881950000000174470434309042073_);enable-background:new    ;">
						<path class="st19" d="M238.1,212.7v8.7c-1.6,3.4-2.5,6.4-3.7,9.1c-0.1,0.2-0.1,0.3-0.2,0.5v-8.7c0.1-0.2,0.1-0.3,0.2-0.5
							C235.6,219.1,236.5,216.1,238.1,212.7"/>
						<path class="st20" d="M234.2,222.3v8.7c-0.7,1.5-1.5,2.9-2.6,4.3v-8.7C232.7,225.2,233.5,223.7,234.2,222.3"/>
						<path class="st8" d="M231.6,226.5v8.7c-0.4,0.5-0.8,0.9-1.2,1.4c-1.9,1.9-4.5,3.9-8.4,5.9c-6.5,3.4-10.3,3.9-14,5.2
							c-1.8,0.7-3.6,1.5-5.6,3.1c-2,1.5-4.2,3.7-6.9,6.9c-0.2,0.2-0.3,0.4-0.5,0.6v-8.7c0.2-0.2,0.3-0.4,0.5-0.6
							c2.7-3.2,4.9-5.4,6.9-6.9s3.8-2.4,5.6-3.1c3.7-1.3,7.5-1.8,14-5.2c3.9-2,6.5-3.9,8.4-5.9C230.8,227.5,231.2,227,231.6,226.5"
							/>
					</g>
				</g>
			</g>
			<g class="st0">
				<g>
					<defs>
						<path id="SVGID_00000077281870915675350990000013417472260611206578_" d="M84.2,112.7v8.7c0,21.8-2.2,42.3-5.3,60.7
							c-1.7,10.3-4.9,18.3-9.2,24.6c-4.3,6.3-9.9,11-16.3,14.8c-12.8,7.5-29.3,11.4-47.6,17.9v-8.7c18.3-6.4,34.7-10.4,47.6-17.9
							c6.4-3.8,12-8.4,16.3-14.8c4.3-6.3,7.5-14.3,9.2-24.6C82,155,84.2,134.5,84.2,112.7z"/>
					</defs>
					<clipPath id="SVGID_00000067925419499551672750000011704351466793840059_">
						<use xlink:href="#SVGID_00000077281870915675350990000013417472260611206578_"  style="overflow:visible;"/>
					</clipPath>
					<g style="clip-path:url(#SVGID_00000067925419499551672750000011704351466793840059_);enable-background:new    ;">
						<path class="st4" d="M84.2,112.7v8.7c0,21.8-2.2,42.3-5.3,60.7c-0.2,1.5-0.5,2.9-0.8,4.3v-8.7c0.3-1.4,0.6-2.8,0.8-4.3
							C82,155,84.2,134.5,84.2,112.7"/>
						<path class="st24" d="M78.1,177.8v8.7c-1.1,5-2.6,9.4-4.4,13.3v-8.7C75.5,187.2,77,182.8,78.1,177.8"/>
						<path class="st25" d="M73.7,191.1v8.7c-1.2,2.5-2.5,4.9-4,7c-0.6,0.9-1.2,1.7-1.9,2.5v-8.7c0.6-0.8,1.3-1.7,1.9-2.5
							C71.2,195.9,72.5,193.6,73.7,191.1"/>
						<path class="st2" d="M67.9,200.6v8.7c-4,5.1-8.9,9-14.5,12.2c-12.8,7.5-29.3,11.4-47.6,17.9v-8.7
							c18.3-6.4,34.7-10.4,47.6-17.9C59,209.6,63.8,205.7,67.9,200.6"/>
					</g>
				</g>
			</g>
			<g class="st0">
				<g>
					<defs>
						<path id="SVGID_00000137090013979209724190000005116649528388318367_" d="M230.4,236.6c-1.9,1.9-4.5,3.9-8.4,5.9
							c0-0.3,0-0.7,0-1s0-0.8,0-1.1c0-0.3,0-0.8,0-1.1c0-0.3,0-0.8,0-1.1c0-0.3,0-0.8,0-1.1c0-0.3,0-0.8,0-1.1c0-0.3,0-0.8,0-1.1
							c0-0.3,0-0.7,0-1c3.9-2,6.5-3.9,8.4-5.9c0,0.3,0,0.7,0,1s0,0.8,0,1.1c0,0.3,0,0.8,0,1.1c0,0.3,0,0.8,0,1.1c0,0.3,0,0.8,0,1.1
							c0,0.3,0,0.8,0,1.1c0,0.3,0,0.8,0,1.1C230.4,235.9,230.5,236.3,230.4,236.6z"/>
					</defs>
					<clipPath id="SVGID_00000083081524942480277240000005912079819227710650_">
						<use xlink:href="#SVGID_00000137090013979209724190000005116649528388318367_"  style="overflow:visible;"/>
					</clipPath>
					<g style="clip-path:url(#SVGID_00000083081524942480277240000005912079819227710650_);enable-background:new    ;">
						<path class="st8" d="M231.6,226.5v8.7c-0.4,0.5-0.8,0.9-1.2,1.4c-1.9,1.9-4.5,3.9-8.4,5.9c-6.5,3.4-10.3,3.9-14,5.2
							c-1.8,0.7-3.6,1.5-5.6,3.1c-2,1.5-4.2,3.7-6.9,6.9c-0.2,0.2-0.3,0.4-0.5,0.6v-8.7c0.2-0.2,0.3-0.4,0.5-0.6
							c2.7-3.2,4.9-5.4,6.9-6.9s3.8-2.4,5.6-3.1c3.7-1.3,7.5-1.8,14-5.2c3.9-2,6.5-3.9,8.4-5.9C230.8,227.5,231.2,227,231.6,226.5"
							/>
					</g>
				</g>
			</g>
			<g class="st0">
				<g>
					<defs>
						<path id="SVGID_00000079455065983481023880000010784250564861633954_" d="M222,242.5L222,242.5c0-0.3,0-0.7,0-1s0-0.8,0-1.1
							c0-0.3,0-0.8,0-1.1c0-0.3,0-0.8,0-1.1c0-0.3,0-0.8,0-1.1c0-0.3,0-0.8,0-1.1c0-0.3,0-0.8,0-1.1c0-0.3,0-0.7,0-1l0,0
							c0,0.3,0,0.7,0,1s0,0.8,0,1.1c0,0.3,0,0.8,0,1.1c0,0.3,0,0.8,0,1.1c0,0.3,0,0.8,0,1.1c0,0.3,0,0.8,0,1.1c0,0.3,0,0.8,0,1.1
							C222,241.8,222,242.2,222,242.5z"/>
					</defs>
					<clipPath id="SVGID_00000089565347647742914320000007817281297297706119_">
						<use xlink:href="#SVGID_00000079455065983481023880000010784250564861633954_"  style="overflow:visible;"/>
					</clipPath>
					<g style="clip-path:url(#SVGID_00000089565347647742914320000007817281297297706119_);enable-background:new    ;">
						<path class="st8" d="M231.6,226.5v8.7c-0.4,0.5-0.8,0.9-1.2,1.4c-1.9,1.9-4.5,3.9-8.4,5.9c-6.5,3.4-10.3,3.9-14,5.2
							c-1.8,0.7-3.6,1.5-5.6,3.1c-2,1.5-4.2,3.7-6.9,6.9c-0.2,0.2-0.3,0.4-0.5,0.6v-8.7c0.2-0.2,0.3-0.4,0.5-0.6
							c2.7-3.2,4.9-5.4,6.9-6.9s3.8-2.4,5.6-3.1c3.7-1.3,7.5-1.8,14-5.2c3.9-2,6.5-3.9,8.4-5.9C230.8,227.5,231.2,227,231.6,226.5"
							/>
					</g>
				</g>
			</g>
			<g class="st0">
				<g>
					<defs>
						<path id="SVGID_00000152952687710073432240000011345577654258663062_" d="M5.8,230.7v8.7c-0.7,7.6-3.7,18.2-3.7,26.5v-8.7
							C2.1,248.9,5.1,238.3,5.8,230.7z"/>
					</defs>
					<clipPath id="SVGID_00000095332443645350871610000016537999649361708191_">
						<use xlink:href="#SVGID_00000152952687710073432240000011345577654258663062_"  style="overflow:visible;"/>
					</clipPath>
					<g style="clip-path:url(#SVGID_00000095332443645350871610000016537999649361708191_);enable-background:new    ;">
						<path class="st4" d="M5.8,230.7v8.7c-0.7,7.6-3.7,18.2-3.7,26.5v-8.7C2.1,248.9,5.1,238.3,5.8,230.7"/>
					</g>
				</g>
			</g>
			<g class="st0">
				<g>
					<defs>
						<path id="SVGID_00000049935312269164639720000001115647783678918847_" d="M195.5,257.7c-3,3.5-4.5,7-6,10.4c0-0.3,0-0.7,0-1
							s0-0.8,0-1.1c0-0.3,0-0.8,0-1.1c0-0.3,0-0.8,0-1.1c0-0.3,0-0.8,0-1.1c0-0.3,0-0.8,0-1.1c0-0.3,0-0.8,0-1.1c0-0.3,0-0.7,0-1
							c1.5-3.4,3.1-6.9,6-10.4c2.7-3.2,4.9-5.4,6.9-6.9s3.8-2.4,5.6-3.1l0,0c0,0.3,0,0.7,0,1s0,0.8,0,1.1c0,0.3,0,0.8,0,1.1
							c0,0.3,0,0.8,0,1.1c0,0.3,0,0.8,0,1.1c0,0.3,0,0.8,0,1.1c0,0.3,0,0.8,0,1.1c0,0.3,0,0.7,0,1c0-0.3,0-0.7,0-1s0-0.8,0-1.1
							c0-0.3,0-0.8,0-1.1c0-0.3,0-0.8,0-1.1c0-0.3,0-0.8,0-1.1c0-0.3,0-0.8,0-1.1c0-0.3,0-0.8,0-1.1c0-0.3,0-0.7,0-1
							c3.7-1.3,7.5-1.8,14-5.2c0,0.3,0,0.7,0,1s0,0.8,0,1.1c0,0.3,0,0.8,0,1.1c0,0.3,0,0.8,0,1.1c0,0.3,0,0.8,0,1.1
							c0,0.3,0,0.8,0,1.1c0,0.3,0,0.8,0,1.1c0,0.3,0,0.7,0,1c-6.5,3.4-10.3,3.9-14,5.2c-1.8,0.7-3.6,1.5-5.6,3.1
							C200.4,252.3,198.2,254.4,195.5,257.7z"/>
					</defs>
					<clipPath id="SVGID_00000038410967917087665010000003475981350005381034_">
						<use xlink:href="#SVGID_00000049935312269164639720000001115647783678918847_"  style="overflow:visible;"/>
					</clipPath>
					<g style="clip-path:url(#SVGID_00000038410967917087665010000003475981350005381034_);enable-background:new    ;">
						<path class="st8" d="M231.6,226.5v8.7c-0.4,0.5-0.8,0.9-1.2,1.4c-1.9,1.9-4.5,3.9-8.4,5.9c-6.5,3.4-10.3,3.9-14,5.2
							c-1.8,0.7-3.6,1.5-5.6,3.1c-2,1.5-4.2,3.7-6.9,6.9c-0.2,0.2-0.3,0.4-0.5,0.6v-8.7c0.2-0.2,0.3-0.4,0.5-0.6
							c2.7-3.2,4.9-5.4,6.9-6.9s3.8-2.4,5.6-3.1c3.7-1.3,7.5-1.8,14-5.2c3.9-2,6.5-3.9,8.4-5.9C230.8,227.5,231.2,227,231.6,226.5"
							/>
						<path class="st20" d="M195,249.6v8.7c-2,2.6-3.4,5.1-4.5,7.6v-8.7C191.6,254.7,193,252.1,195,249.6"/>
						<path class="st19" d="M190.5,257.2v8.7c-0.4,0.8-0.7,1.5-1,2.3c-0.3,0.6-0.5,1.1-0.8,1.7v-8.7c0.3-0.6,0.5-1.1,0.8-1.7
							C189.8,258.7,190.1,257.9,190.5,257.2"/>
					</g>
				</g>
			</g>
			<g class="st0">
				<g>
					<defs>
						<path id="SVGID_00000029736374384834013360000012400505504575914657_" d="M189.5,268.1c-1.5,3.4-3.1,6.8-6.1,10.2
							c0-0.3,0-0.7,0-1s0-0.8,0-1.1c0-0.3,0-0.8,0-1.1c0-0.3,0-0.8,0-1.1c0-0.3,0-0.8,0-1.1c0-0.3,0-0.8,0-1.1c0-0.3,0-0.8,0-1.1
							c0-0.3,0-0.7,0-1l0,0c0,0.3,0,0.7,0,1s0,0.8,0,1.1c0,0.3,0,0.8,0,1.1c0,0.3,0,0.8,0,1.1c0,0.3,0,0.8,0,1.1c0,0.3,0,0.8,0,1.1
							c0,0.3,0,0.8,0,1.1c0,0.3,0,0.7,0,1c0-0.3,0-0.7,0-1s0-0.8,0-1.1c0-0.3,0-0.8,0-1.1c0-0.3,0-0.8,0-1.1c0-0.3,0-0.8,0-1.1
							c0-0.3,0-0.8,0-1.1c0-0.3,0-0.8,0-1.1c0-0.3,0-0.7,0-1c3-3.4,4.5-6.8,6.1-10.2c0,0.3,0,0.7,0,1s0,0.8,0,1.1c0,0.3,0,0.8,0,1.1
							c0,0.3,0,0.8,0,1.1c0,0.3,0,0.8,0,1.1c0,0.3,0,0.8,0,1.1c0,0.3,0,0.8,0,1.1C189.5,267.4,189.5,267.8,189.5,268.1z"/>
					</defs>
					<clipPath id="SVGID_00000119807884276132931270000016985317249224327040_">
						<use xlink:href="#SVGID_00000029736374384834013360000012400505504575914657_"  style="overflow:visible;"/>
					</clipPath>
					<g style="clip-path:url(#SVGID_00000119807884276132931270000016985317249224327040_);enable-background:new    ;">
						<path class="st19" d="M190.5,257.2v8.7c-0.4,0.8-0.7,1.5-1,2.3c-0.3,0.6-0.5,1.1-0.8,1.7v-8.7c0.3-0.6,0.5-1.1,0.8-1.7
							C189.8,258.7,190.1,257.9,190.5,257.2"/>
						<path class="st20" d="M188.7,261.1v8.7c-1.2,2.5-2.4,4.9-4.4,7.4v-8.7C186.2,266,187.5,263.6,188.7,261.1"/>
						<path class="st8" d="M184.3,268.5v8.7c-0.3,0.4-0.6,0.7-0.9,1.1c-4.4,5-7.3,6.7-10.8,8c-3.4,1.3-7.4,2.3-13.4,5.8
							c-1.7,1-4.2,1.3-6.5,1.7c-2.4,0.4-4.7,0.8-6.3,2.2c-0.2,0.2-0.4,0.4-0.6,0.7V288c0.2-0.2,0.4-0.4,0.6-0.7
							c1.6-1.4,3.9-1.8,6.3-2.2c2.4-0.4,4.8-0.7,6.5-1.7c6-3.5,10-4.5,13.4-5.8c3.4-1.4,6.4-3,10.8-8
							C183.7,269.3,184,268.9,184.3,268.5"/>
					</g>
				</g>
			</g>
			<g class="st0">
				<g>
					<defs>
						<path id="SVGID_00000096043197051550704800000007059754163856410299_" d="M3.4,273.4c-0.9-2.1-1.3-4.7-1.3-7.5v-8.7
							c0,2.9,0.4,5.4,1.3,7.5c0.9,2.1,2.3,3.7,4.5,4.6c1.5,0.6,3.3,1,5.6,1c0,0.3,0,0.7,0,1s0,0.8,0,1.1c0,0.3,0,0.8,0,1.1
							c0,0.3,0,0.8,0,1.1c0,0.3,0,0.8,0,1.1c0,0.3,0,0.8,0,1.1c0,0.3,0,0.8,0,1.1c0,0.3,0,0.7,0,1c-2.3,0-4.1-0.4-5.6-1
							C5.7,277,4.3,275.5,3.4,273.4z"/>
					</defs>
					<clipPath id="SVGID_00000049941217492721324890000012850362869595427753_">
						<use xlink:href="#SVGID_00000096043197051550704800000007059754163856410299_"  style="overflow:visible;"/>
					</clipPath>
					<g style="clip-path:url(#SVGID_00000049941217492721324890000012850362869595427753_);enable-background:new    ;">
						<path class="st8" d="M16.4,270.4v8.7c-1.3-0.1-2.2,0-2.9,0c-2.3,0-4.1-0.4-5.6-1c-2.2-1-3.6-2.5-4.5-4.6s-1.3-4.7-1.3-7.5
							v-8.7c0,2.9,0.4,5.4,1.3,7.5c0.9,2.1,2.3,3.7,4.5,4.6c1.5,0.6,3.3,1,5.6,1C14.3,270.3,15.1,270.3,16.4,270.4"/>
					</g>
				</g>
			</g>
			<g class="st0">
				<g>
					<defs>
						<path id="SVGID_00000139289038693623302400000018257054109073418666_" d="M13.5,279L13.5,279c0-0.3,0-0.7,0-1s0-0.8,0-1.1
							c0-0.3,0-0.8,0-1.1c0-0.3,0-0.8,0-1.1c0-0.3,0-0.8,0-1.1c0-0.3,0-0.8,0-1.1c0-0.3,0-0.8,0-1.1c0-0.3,0-0.7,0-1l0,0
							c0.7,0,1.4,0,2.5,0c0,0.3,0,0.6,0,0.9s0,0.7,0,1s0,0.7,0,1s0,0.7,0,1s0,0.7,0,1s0,0.7,0,1s0,0.7,0,1s0,0.6,0,0.9v0.1v0.1v0.1
							v0.1v0.1v0.1v0.1v0.1C14.9,279,14.2,279,13.5,279z"/>
					</defs>
					<clipPath id="SVGID_00000026880963788924053860000006061387908640758150_">
						<use xlink:href="#SVGID_00000139289038693623302400000018257054109073418666_"  style="overflow:visible;"/>
					</clipPath>
					<g style="clip-path:url(#SVGID_00000026880963788924053860000006061387908640758150_);enable-background:new    ;">
						<path class="st8" d="M16.4,270.4v8.7c-1.3-0.1-2.2,0-2.9,0c-2.3,0-4.1-0.4-5.6-1c-2.2-1-3.6-2.5-4.5-4.6s-1.3-4.7-1.3-7.5
							v-8.7c0,2.9,0.4,5.4,1.3,7.5c0.9,2.1,2.3,3.7,4.5,4.6c1.5,0.6,3.3,1,5.6,1C14.3,270.3,15.1,270.3,16.4,270.4"/>
					</g>
				</g>
			</g>
			<g class="st0">
				<g>
					<defs>
						<path id="SVGID_00000145016362751893270790000017363635904089766325_" d="M16,279L16,279c0-0.1,0-0.2,0-0.2v-0.1v-0.1v-0.1
							v-0.1v-0.1v-0.1c0-0.3,0-0.6,0-0.9s0-0.7,0-1s0-0.7,0-1s0-0.7,0-1s0-0.7,0-1s0-0.7,0-1s0-0.7,0-1s0-0.6,0-0.9
							c0.1,0,0.3,0,0.4,0v8.7C16.3,279,16.1,279,16,279z"/>
					</defs>
					<clipPath id="SVGID_00000181777680445929600800000013298320721546191264_">
						<use xlink:href="#SVGID_00000145016362751893270790000017363635904089766325_"  style="overflow:visible;"/>
					</clipPath>
					<g style="clip-path:url(#SVGID_00000181777680445929600800000013298320721546191264_);enable-background:new    ;">
						<path class="st8" d="M16.4,270.4v8.7c-1.3-0.1-2.2,0-2.9,0c-2.3,0-4.1-0.4-5.6-1c-2.2-1-3.6-2.5-4.5-4.6s-1.3-4.7-1.3-7.5
							v-8.7c0,2.9,0.4,5.4,1.3,7.5c0.9,2.1,2.3,3.7,4.5,4.6c1.5,0.6,3.3,1,5.6,1C14.3,270.3,15.1,270.3,16.4,270.4"/>
					</g>
				</g>
			</g>
			<g class="st0">
				<g>
					<defs>
						<path id="SVGID_00000085954281103922823280000005055059299178344628_" d="M16,272.2v8.7c-1.1-0.9-1.8-0.9-2.6-0.9
							c-2.4,0-4.4-0.4-6-1.1s-2.9-1.7-3.8-3c-1.9-2.6-2.5-6.1-2.5-10v-8.7c0,3.9,0.6,7.4,2.5,10c0.9,1.3,2.2,2.3,3.8,3
							s3.6,1.1,6,1.1C14.2,271.3,15,271.3,16,272.2z"/>
					</defs>
					<clipPath id="SVGID_00000165937895887979748970000012367325498357118884_">
						<use xlink:href="#SVGID_00000085954281103922823280000005055059299178344628_"  style="overflow:visible;"/>
					</clipPath>
					<g style="clip-path:url(#SVGID_00000165937895887979748970000012367325498357118884_);enable-background:new    ;">
						<path class="st2" d="M16,272.2v8.7c-1.1-0.9-1.8-0.9-2.6-0.9c-2.4,0-4.4-0.4-6-1.1s-2.9-1.7-3.8-3c-1.9-2.6-2.5-6.1-2.5-10
							v-8.7c0,3.9,0.6,7.4,2.5,10c0.9,1.3,2.2,2.3,3.8,3s3.6,1.1,6,1.1C14.2,271.3,15,271.3,16,272.2"/>
					</g>
				</g>
			</g>
			<g class="st0">
				<g>
					<defs>
						<path id="SVGID_00000015347677046779033150000006469085616096763798_" d="M17,280.9c0-0.6-0.2-1.3-0.6-1.8v-8.7
							c0.5,0.5,0.6,1.2,0.6,1.8C17,274.8,17,278.3,17,280.9z"/>
					</defs>
					<clipPath id="SVGID_00000023245497117234897490000010439544930108322993_">
						<use xlink:href="#SVGID_00000015347677046779033150000006469085616096763798_"  style="overflow:visible;"/>
					</clipPath>
					<g style="clip-path:url(#SVGID_00000023245497117234897490000010439544930108322993_);enable-background:new    ;">
						<path class="st8" d="M17,272.2v8.7c0-0.6-0.2-1.3-0.6-1.8v-8.7C16.9,270.9,17,271.6,17,272.2"/>
					</g>
				</g>
			</g>
			<g class="st0">
				<g>
					<defs>
						<path id="SVGID_00000032622689209397209590000002850668948806886028_" d="M17,272.2v8.7c0,0.7-0.2,1.3-0.3,2
							c-0.1,0.6-0.3,1.2-0.3,1.7v-8.7c0-0.5,0.1-1.1,0.3-1.7C16.9,273.5,17,272.9,17,272.2z"/>
					</defs>
					<clipPath id="SVGID_00000018216858834658798230000005938658529895017383_">
						<use xlink:href="#SVGID_00000032622689209397209590000002850668948806886028_"  style="overflow:visible;"/>
					</clipPath>
					<g style="clip-path:url(#SVGID_00000018216858834658798230000005938658529895017383_);enable-background:new    ;">
						<path class="st4" d="M17,272.2v8.7c0,0.6-0.1,1.1-0.2,1.6v-8.7C16.9,273.3,17,272.7,17,272.2"/>
						<path class="st24" d="M16.8,273.8v8.7c0,0.1,0,0.2-0.1,0.3c0,0.1,0,0.2-0.1,0.3v-8.7c0-0.1,0-0.2,0.1-0.3
							C16.7,274.1,16.8,273.9,16.8,273.8"/>
						<path class="st4" d="M16.7,274.5v8.7c-0.1,0.5-0.2,1-0.2,1.4v-8.7C16.4,275.5,16.5,275,16.7,274.5"/>
					</g>
				</g>
			</g>
			<g class="st0">
				<g>
					<defs>
						<path id="SVGID_00000103260308243581024130000016439729774767318156_" d="M183.4,278.3c-4.4,5-7.3,6.7-10.8,8c0-0.3,0-0.7,0-1
							s0-0.8,0-1.1c0-0.3,0-0.8,0-1.1c0-0.3,0-0.8,0-1.1c0-0.3,0-0.8,0-1.1c0-0.3,0-0.8,0-1.1c0-0.3,0-0.8,0-1.1c0-0.3,0-0.7,0-1
							c3.4-1.4,6.4-3,10.8-8c0,0.3,0,0.7,0,1s0,0.8,0,1.1c0,0.3,0,0.8,0,1.1c0,0.3,0,0.8,0,1.1c0,0.3,0,0.8,0,1.1c0,0.3,0,0.8,0,1.1
							c0,0.3,0,0.8,0,1.1S183.5,278,183.4,278.3z"/>
					</defs>
					<clipPath id="SVGID_00000071549851527859245440000010704361043405460897_">
						<use xlink:href="#SVGID_00000103260308243581024130000016439729774767318156_"  style="overflow:visible;"/>
					</clipPath>
					<g style="clip-path:url(#SVGID_00000071549851527859245440000010704361043405460897_);enable-background:new    ;">
						<path class="st8" d="M184.3,268.5v8.7c-0.3,0.4-0.6,0.7-0.9,1.1c-4.4,5-7.3,6.7-10.8,8c-3.4,1.3-7.4,2.3-13.4,5.8
							c-1.7,1-4.2,1.3-6.5,1.7c-2.4,0.4-4.7,0.8-6.3,2.2c-0.2,0.2-0.4,0.4-0.6,0.7V288c0.2-0.2,0.4-0.4,0.6-0.7
							c1.6-1.4,3.9-1.8,6.3-2.2c2.4-0.4,4.8-0.7,6.5-1.7c6-3.5,10-4.5,13.4-5.8c3.4-1.4,6.4-3,10.8-8
							C183.7,269.3,184,268.9,184.3,268.5"/>
					</g>
				</g>
			</g>
			<g class="st0">
				<g>
					<defs>
						<path id="SVGID_00000060727835903590885930000009605486425230412989_" d="M15.4,284.6V276c0,0.7,0.2,1.3,1,2v8.7
							C15.6,286,15.4,285.3,15.4,284.6z"/>
					</defs>
					<clipPath id="SVGID_00000016759491075972533210000012479408758123387019_">
						<use xlink:href="#SVGID_00000060727835903590885930000009605486425230412989_"  style="overflow:visible;"/>
					</clipPath>
					<g style="clip-path:url(#SVGID_00000016759491075972533210000012479408758123387019_);enable-background:new    ;">
						<path class="st2" d="M16.4,277.9v8.7c-0.8-0.6-1-1.3-1-2V276C15.4,276.6,15.6,277.3,16.4,277.9"/>
					</g>
				</g>
			</g>
			<g class="st0">
				<g>
					<defs>
						<path id="SVGID_00000145021733463781342520000010976300580991846279_" d="M19.1,285.9c-0.9,0-1.8,0-2.3-0.2V277
							c0.5,0.1,1.4,0.1,2.3,0.2c1,0,2.1,0,3,0.2c0.6,0.1,1.1,0.3,1.6,0.9c0,0.3,0,0.7,0,0.9c0,0.3,0,0.7,0,1s0,0.7,0,1s0,0.7,0,1.1
							c0,0.3,0,0.7,0,1.1c0,0.3,0,0.7,0,1s0,0.7,0,1s0,0.7,0,0.9c0,0,0,0,0,0.1c0,0,0,0,0,0.1v0.1v0.1v0.1v0.1c0,0,0,0,0,0.1
							c0,0,0,0,0,0.1c-0.5-0.6-1.1-0.8-1.6-0.9C21.2,285.9,20.1,285.9,19.1,285.9z"/>
					</defs>
					<clipPath id="SVGID_00000126297174623003809370000018231496076079422121_">
						<use xlink:href="#SVGID_00000145021733463781342520000010976300580991846279_"  style="overflow:visible;"/>
					</clipPath>
					<g style="clip-path:url(#SVGID_00000126297174623003809370000018231496076079422121_);enable-background:new    ;">
						<path class="st8" d="M23.9,278.4v8.7c-0.6-0.7-1.2-0.9-1.8-1c-0.9-0.2-2-0.2-3-0.2c-0.9,0-1.8,0-2.3-0.2V277
							c0.5,0.1,1.4,0.1,2.3,0.2c1,0,2.1,0,3,0.2C22.7,277.5,23.3,277.7,23.9,278.4"/>
					</g>
				</g>
			</g>
			<g class="st0">
				<g>
					<defs>
						<path id="SVGID_00000058561687556810168160000005223364053691542684_" d="M23.8,286.9v-0.1v-0.1v-0.1v-0.1v-0.1c0,0,0,0,0-0.1
							c0,0,0,0,0-0.1c0-0.3,0-0.7,0-0.9c0-0.3,0-0.7,0-1s0-0.7,0-1s0-0.7,0-1.1c0-0.3,0-0.7,0-1.1c0-0.3,0-0.7,0-1s0-0.7,0-1
							s0-0.7,0-0.9c0,0.1,0.1,0.1,0.2,0.2v8.7C23.9,287,23.8,287,23.8,286.9z"/>
					</defs>
					<clipPath id="SVGID_00000134250813711301362530000007464507261823548557_">
						<use xlink:href="#SVGID_00000058561687556810168160000005223364053691542684_"  style="overflow:visible;"/>
					</clipPath>
					<g style="clip-path:url(#SVGID_00000134250813711301362530000007464507261823548557_);enable-background:new    ;">
						<path class="st8" d="M23.9,278.4v8.7c-0.6-0.7-1.2-0.9-1.8-1c-0.9-0.2-2-0.2-3-0.2c-0.9,0-1.8,0-2.3-0.2V277
							c0.5,0.1,1.4,0.1,2.3,0.2c1,0,2.1,0,3,0.2C22.7,277.5,23.3,277.7,23.9,278.4"/>
					</g>
				</g>
			</g>
			<g class="st0">
				<g>
					<defs>
						<path id="SVGID_00000134246415847322102040000010488193125759629485_" d="M22.9,278.7v8.7c-0.9-0.3-1.4-0.4-1.8-0.4
							c-0.9-0.1-2-0.1-3-0.1c-0.6,0-1.2-0.1-1.7-0.2V278c0.5,0.1,1.1,0.2,1.7,0.2c1,0,2,0,3,0.1C21.5,278.3,22,278.3,22.9,278.7z"/>
					</defs>
					<clipPath id="SVGID_00000135679206503461759960000011910746320024258192_">
						<use xlink:href="#SVGID_00000134246415847322102040000010488193125759629485_"  style="overflow:visible;"/>
					</clipPath>
					<g style="clip-path:url(#SVGID_00000135679206503461759960000011910746320024258192_);enable-background:new    ;">
						<path class="st2" d="M22.9,278.7v8.7c-0.9-0.3-1.4-0.4-1.8-0.4c-0.9-0.1-2-0.1-3-0.1c-0.6,0-1.2-0.1-1.7-0.2V278
							c0.5,0.1,1.1,0.2,1.7,0.2c1,0,2,0,3,0.1C21.5,278.3,22,278.3,22.9,278.7"/>
					</g>
				</g>
			</g>
			<g class="st0">
				<g>
					<defs>
						<path id="SVGID_00000157287495078975772890000006133810917542914951_" d="M22.9,282.4v8.7c0-1.2,0-2.5,0-3.7v-8.7
							C22.9,279.9,22.9,281.1,22.9,282.4z"/>
					</defs>
					<clipPath id="SVGID_00000119088546857357815690000015441811443214374334_">
						<use xlink:href="#SVGID_00000157287495078975772890000006133810917542914951_"  style="overflow:visible;"/>
					</clipPath>
					<g style="clip-path:url(#SVGID_00000119088546857357815690000015441811443214374334_);enable-background:new    ;">
						<path class="st2" d="M22.9,282.4v8.7c0-1.2,0-2.5,0-3.7v-8.7C22.9,279.9,22.9,281.1,22.9,282.4"/>
					</g>
				</g>
			</g>
			<g class="st0">
				<g>
					<defs>
						<path id="SVGID_00000155852024239847530910000000203753338601691297_" d="M23.9,282.4v8.7c0-1.3,0-2.7,0-4v-8.7
							C23.9,279.7,23.9,281.1,23.9,282.4z"/>
					</defs>
					<clipPath id="SVGID_00000061462272152997583820000001904570707696346557_">
						<use xlink:href="#SVGID_00000155852024239847530910000000203753338601691297_"  style="overflow:visible;"/>
					</clipPath>
					<g style="clip-path:url(#SVGID_00000061462272152997583820000001904570707696346557_);enable-background:new    ;">
						<path class="st8" d="M23.9,282.4v8.7c0-1.3,0-2.7,0-4v-8.7C23.9,279.7,23.9,281.1,23.9,282.4"/>
					</g>
				</g>
			</g>
			<g class="st0">
				<g>
					<defs>
						<path id="SVGID_00000067216784142809078870000016639319583161375124_" d="M159.1,292.2L159.1,292.2c0-0.3,0-0.7,0-1
							s0-0.8,0-1.1c0-0.3,0-0.8,0-1.1c0-0.3,0-0.8,0-1.1c0-0.3,0-0.8,0-1.1c0-0.3,0-0.8,0-1.1c0-0.3,0-0.8,0-1.1c0-0.3,0-0.7,0-1
							l0,0c6-3.5,10-4.5,13.4-5.8l0,0c0,0.3,0,0.7,0,1s0,0.8,0,1.1c0,0.3,0,0.8,0,1.1c0,0.3,0,0.8,0,1.1c0,0.3,0,0.8,0,1.1
							c0,0.3,0,0.8,0,1.1c0,0.3,0,0.8,0,1.1c0,0.3,0,0.7,0,1l0,0C169.1,287.7,165.2,288.7,159.1,292.2z"/>
					</defs>
					<clipPath id="SVGID_00000162311894492797718430000012711596245144647808_">
						<use xlink:href="#SVGID_00000067216784142809078870000016639319583161375124_"  style="overflow:visible;"/>
					</clipPath>
					<g style="clip-path:url(#SVGID_00000162311894492797718430000012711596245144647808_);enable-background:new    ;">
						<path class="st8" d="M184.3,268.5v8.7c-0.3,0.4-0.6,0.7-0.9,1.1c-4.4,5-7.3,6.7-10.8,8c-3.4,1.3-7.4,2.3-13.4,5.8
							c-1.7,1-4.2,1.3-6.5,1.7c-2.4,0.4-4.7,0.8-6.3,2.2c-0.2,0.2-0.4,0.4-0.6,0.7V288c0.2-0.2,0.4-0.4,0.6-0.7
							c1.6-1.4,3.9-1.8,6.3-2.2c2.4-0.4,4.8-0.7,6.5-1.7c6-3.5,10-4.5,13.4-5.8c3.4-1.4,6.4-3,10.8-8
							C183.7,269.3,184,268.9,184.3,268.5"/>
					</g>
				</g>
			</g>
			<g class="st0">
				<g>
					<defs>
						<path id="SVGID_00000177486096743925385140000010198703520452111279_" d="M159.1,292.2c-1.7,1-4.2,1.3-6.5,1.7
							c0-0.3,0-0.7,0-1s0-0.8,0-1.1c0-0.3,0-0.8,0-1.1c0-0.3,0-0.8,0-1.1c0-0.3,0-0.8,0-1.1c0-0.3,0-0.8,0-1.1c0-0.3,0-0.8,0-1.1
							c0-0.3,0-0.7,0-1c2.4-0.4,4.8-0.7,6.5-1.7c0,0.3,0,0.7,0,1s0,0.8,0,1.1c0,0.3,0,0.8,0,1.1c0,0.3,0,0.8,0,1.1
							c0,0.3,0,0.8,0,1.1c0,0.3,0,0.8,0,1.1c0,0.3,0,0.8,0,1.1C159.1,291.5,159.1,291.9,159.1,292.2z"/>
					</defs>
					<clipPath id="SVGID_00000067201995312377019310000001305587626866107017_">
						<use xlink:href="#SVGID_00000177486096743925385140000010198703520452111279_"  style="overflow:visible;"/>
					</clipPath>
					<g style="clip-path:url(#SVGID_00000067201995312377019310000001305587626866107017_);enable-background:new    ;">
						<path class="st8" d="M184.3,268.5v8.7c-0.3,0.4-0.6,0.7-0.9,1.1c-4.4,5-7.3,6.7-10.8,8c-3.4,1.3-7.4,2.3-13.4,5.8
							c-1.7,1-4.2,1.3-6.5,1.7c-2.4,0.4-4.7,0.8-6.3,2.2c-0.2,0.2-0.4,0.4-0.6,0.7V288c0.2-0.2,0.4-0.4,0.6-0.7
							c1.6-1.4,3.9-1.8,6.3-2.2c2.4-0.4,4.8-0.7,6.5-1.7c6-3.5,10-4.5,13.4-5.8c3.4-1.4,6.4-3,10.8-8
							C183.7,269.3,184,268.9,184.3,268.5"/>
					</g>
				</g>
			</g>
			<g class="st0">
				<g>
					<defs>
						<path id="SVGID_00000070112966430555167190000013896893200764410253_" d="M144.8,298.3c-0.3,0.9-0.4,1.7-0.4,2.6v-8.7
							c0-0.9,0.1-1.8,0.4-2.6c0.3-0.8,0.7-1.6,1.5-2.3c1.6-1.4,3.9-1.8,6.3-2.2l0,0c0,0.3,0,0.7,0,1s0,0.8,0,1.1c0,0.3,0,0.8,0,1.1
							c0,0.3,0,0.8,0,1.1c0,0.3,0,0.8,0,1.1c0,0.3,0,0.8,0,1.1c0,0.3,0,0.8,0,1.1c0,0.3,0,0.7,0,1l0,0c-2.4,0.4-4.7,0.8-6.3,2.2
							C145.6,296.7,145.1,297.5,144.8,298.3z"/>
					</defs>
					<clipPath id="SVGID_00000124858356560988868500000007683378279054672556_">
						<use xlink:href="#SVGID_00000070112966430555167190000013896893200764410253_"  style="overflow:visible;"/>
					</clipPath>
					<g style="clip-path:url(#SVGID_00000124858356560988868500000007683378279054672556_);enable-background:new    ;">
						<path class="st8" d="M184.3,268.5v8.7c-0.3,0.4-0.6,0.7-0.9,1.1c-4.4,5-7.3,6.7-10.8,8c-3.4,1.3-7.4,2.3-13.4,5.8
							c-1.7,1-4.2,1.3-6.5,1.7c-2.4,0.4-4.7,0.8-6.3,2.2c-0.2,0.2-0.4,0.4-0.6,0.7V288c0.2-0.2,0.4-0.4,0.6-0.7
							c1.6-1.4,3.9-1.8,6.3-2.2c2.4-0.4,4.8-0.7,6.5-1.7c6-3.5,10-4.5,13.4-5.8c3.4-1.4,6.4-3,10.8-8
							C183.7,269.3,184,268.9,184.3,268.5"/>
						<path class="st20" d="M145.7,288v8.7c-0.3,0.3-0.5,0.7-0.6,1V289C145.2,288.7,145.4,288.3,145.7,288"/>
						<path class="st19" d="M145.1,289v8.7c-0.1,0.2-0.2,0.4-0.2,0.6c-0.1,0.2-0.1,0.4-0.2,0.6v-8.7c0-0.2,0.1-0.4,0.2-0.6
							C144.9,289.4,145,289.2,145.1,289"/>
						<path class="st11" d="M144.7,290.2v8.7c-0.1,0.7-0.2,1.3-0.2,2v-8.7C144.5,291.6,144.5,290.9,144.7,290.2"/>
					</g>
				</g>
			</g>
			<g class="st0">
				<g>
					<defs>
						<path id="SVGID_00000149362493696934659600000013354019315323363484_" d="M260.1,187.1v8.7c-2,6.7-5,9.5-8.1,11.6
							s-6.3,3.6-9,7.6c-3.4,4.8-4.9,8.8-6.2,12.4c-1.4,3.6-2.6,6.8-5.6,9.9c-2,2.1-4.7,4.1-8.7,6.1c-5,2.6-8.5,3.5-11.4,4.4
							s-5.2,1.6-8.1,3.8c-1.9,1.5-4.1,3.6-6.7,6.8c-2.9,3.4-4.3,6.8-5.9,10.2c-1.5,3.4-3.1,6.9-6.3,10.4c-4.4,5.1-7.6,6.9-11.2,8.3
							c-3.5,1.4-7.3,2.3-13.3,5.8c-2,1.2-4.5,1.5-6.9,1.8c-2.4,0.4-4.5,0.8-5.8,1.9c-0.6,0.5-1,1.1-1.2,1.9
							c-0.2,0.7-0.3,1.5-0.3,2.3v-8.7c0-0.8,0.1-1.6,0.3-2.3c0.2-0.7,0.6-1.3,1.2-1.9c1.3-1.1,3.4-1.6,5.8-1.9
							c2.3-0.4,4.9-0.7,6.9-1.8c5.9-3.4,9.8-4.4,13.3-5.8s6.7-3.2,11.2-8.3c3.1-3.6,4.7-7,6.3-10.4c1.5-3.4,3-6.8,5.9-10.2
							c2.7-3.2,4.8-5.3,6.7-6.8c2.9-2.2,5.2-2.9,8.1-3.8s6.4-1.8,11.4-4.4c4-2,6.7-4,8.7-6.1c3-3.1,4.2-6.3,5.6-9.9
							s2.8-7.6,6.2-12.4c2.8-3.9,5.9-5.5,9-7.6S258.1,193.8,260.1,187.1z"/>
					</defs>
					<clipPath id="SVGID_00000081648804746186782730000009571278634115979930_">
						<use xlink:href="#SVGID_00000149362493696934659600000013354019315323363484_"  style="overflow:visible;"/>
					</clipPath>
					<g style="clip-path:url(#SVGID_00000081648804746186782730000009571278634115979930_);enable-background:new    ;">
						<path class="st24" d="M260.1,187.1v8.7c-0.4,1.4-0.9,2.7-1.4,3.8v-8.7C259.2,189.8,259.7,188.6,260.1,187.1"/>
						<path class="st25" d="M258.7,190.9v8.7c-0.7,1.5-1.5,2.8-2.3,3.8v-8.7C257.2,193.7,258,192.5,258.7,190.9"/>
						<path class="st2" d="M256.3,194.8v8.7c-1.4,1.7-2.9,2.9-4.4,3.9c-2.9,1.9-5.7,3.4-8.3,6.6v-8.7c2.6-3.3,5.5-4.7,8.3-6.6
							C253.5,197.7,255,196.5,256.3,194.8"/>
						<path class="st25" d="M243.6,205.4v8.7c-0.2,0.3-0.5,0.6-0.7,0.9c-1.7,2.5-3,4.7-3.9,6.8v-8.7c1-2.1,2.2-4.3,3.9-6.8
							C243.2,206,243.4,205.7,243.6,205.4"/>
						<path class="st24" d="M239,213.1v8.7c-0.9,2-1.6,3.9-2.3,5.6c-0.5,1.4-1,2.7-1.6,4v-8.7c0.6-1.3,1.1-2.6,1.6-4
							C237.4,217,238.1,215.1,239,213.1"/>
						<path class="st25" d="M235.1,222.7v8.7c-0.7,1.5-1.6,3-2.7,4.5v-8.7C233.5,225.7,234.4,224.2,235.1,222.7"/>
						<path class="st2" d="M232.4,227.1v8.7c-0.4,0.5-0.8,1-1.3,1.5c-2,2.1-4.7,4.1-8.7,6.1c-5,2.6-8.5,3.5-11.4,4.4
							s-5.2,1.6-8.1,3.8c-1.9,1.5-4.1,3.6-6.7,6.8c-0.2,0.2-0.3,0.4-0.5,0.6v-8.7c0.2-0.2,0.3-0.4,0.5-0.6c2.7-3.2,4.8-5.3,6.7-6.8
							c2.9-2.2,5.2-2.9,8.1-3.8s6.4-1.8,11.4-4.4c4-2,6.7-4,8.7-6.1C231.6,228.1,232,227.6,232.4,227.1"/>
						<path class="st25" d="M195.8,250.2v8.7c-1.9,2.5-3.2,4.9-4.3,7.3v-8.7C192.5,255.1,193.8,252.7,195.8,250.2"/>
						<path class="st24" d="M191.4,257.5v8.7c-0.4,0.8-0.7,1.5-1,2.3c-0.3,0.6-0.5,1.1-0.8,1.7v-8.7c0.3-0.6,0.5-1.1,0.8-1.7
							C190.7,259,191.1,258.3,191.4,257.5"/>
						<path class="st25" d="M189.6,261.5v8.7c-1.2,2.5-2.5,5-4.5,7.6v-8.7C187.1,266.5,188.4,264,189.6,261.5"/>
						<path class="st2" d="M185.1,269.1v8.7c-0.3,0.4-0.6,0.8-1,1.2c-4.4,5.1-7.6,6.9-11.2,8.3c-3.5,1.4-7.3,2.3-13.3,5.8
							c-2,1.2-4.5,1.5-6.9,1.8c-2.4,0.4-4.5,0.8-5.8,1.9c-0.2,0.2-0.3,0.3-0.5,0.5v-8.7c0.1-0.2,0.3-0.4,0.5-0.5
							c1.3-1.1,3.4-1.6,5.8-1.9c2.3-0.4,4.9-0.7,6.9-1.8c5.9-3.4,9.8-4.4,13.3-5.8s6.7-3.2,11.2-8.3
							C184.5,269.9,184.8,269.5,185.1,269.1"/>
						<path class="st25" d="M146.5,288.6v8.7c-0.2,0.3-0.4,0.5-0.5,0.8v-8.7C146.1,289.1,146.3,288.9,146.5,288.6"/>
						<path class="st24" d="M146,289.4v8.7c-0.1,0.2-0.1,0.3-0.2,0.5s-0.1,0.3-0.1,0.5v-8.7c0-0.2,0.1-0.3,0.1-0.5
							C145.8,289.8,145.9,289.6,146,289.4"/>
						<path class="st4" d="M145.6,290.4v8.7c-0.1,0.6-0.2,1.2-0.2,1.8v-8.7C145.5,291.6,145.5,291,145.6,290.4"/>
					</g>
				</g>
			</g>
			<g class="st0">
				<g>
					<defs>
						<path id="SVGID_00000156584639737164514670000012998359837293236867_" d="M144.8,297.1v8.7c0-1.3-0.3-3.1-0.3-4.8v-8.7
							C144.5,294,144.8,295.8,144.8,297.1z"/>
					</defs>
					<clipPath id="SVGID_00000121248702999110284510000002571665514064095891_">
						<use xlink:href="#SVGID_00000156584639737164514670000012998359837293236867_"  style="overflow:visible;"/>
					</clipPath>
					<g style="clip-path:url(#SVGID_00000121248702999110284510000002571665514064095891_);enable-background:new    ;">
						<path class="st2" d="M144.8,297.1v8.7c0-1.3-0.3-3.1-0.3-4.8v-8.7C144.5,294,144.8,295.8,144.8,297.1"/>
					</g>
				</g>
			</g>
			<g class="st0">
				<g>
					<defs>
						<path id="SVGID_00000158029935936921390070000005538424909150905002_" d="M144.8,305.8L144.8,305.8v-8.6c0,0,0,0,0-0.1
							C144.8,299.7,144.8,303.2,144.8,305.8z"/>
					</defs>
					<clipPath id="SVGID_00000129909638072047736590000017606417155424737962_">
						<use xlink:href="#SVGID_00000158029935936921390070000005538424909150905002_"  style="overflow:visible;"/>
					</clipPath>
					<g style="clip-path:url(#SVGID_00000129909638072047736590000017606417155424737962_);enable-background:new    ;">
						<path class="st11" d="M144.8,297.1v8.7c0,0,0,0,0,0.1V297.1L144.8,297.1"/>
					</g>
				</g>
			</g>
			<g class="st0">
				<g>
					<defs>
						<path id="SVGID_00000034788106853246692410000007186824520470125239_" d="M144.8,305.8c0,0.5,0,0.9-0.1,1.2v-8.7
							c0.1-0.3,0.1-0.8,0.1-1.2C144.8,299.7,144.8,303.2,144.8,305.8z"/>
					</defs>
					<clipPath id="SVGID_00000075877201024713033510000002495002883610335362_">
						<use xlink:href="#SVGID_00000034788106853246692410000007186824520470125239_"  style="overflow:visible;"/>
					</clipPath>
					<g style="clip-path:url(#SVGID_00000075877201024713033510000002495002883610335362_);enable-background:new    ;">
						<path class="st11" d="M144.8,297.1v8.7c0,0.4,0,0.8-0.1,1.1v-8.7C144.8,297.9,144.8,297.5,144.8,297.1"/>
						<path class="st19" d="M144.7,298.2v8.7c0,0.1,0,0.1,0,0.2v-8.7C144.7,298.3,144.7,298.3,144.7,298.2"/>
					</g>
				</g>
			</g>
			<g class="st0">
				<g>
					<defs>
						<path id="SVGID_00000100350312828115960050000015949988573813093563_" d="M144.4,307.3L144.4,307.3L144.4,307.3L144.4,307.3
							L144.4,307.3L144.4,307.3L144.4,307.3L144.4,307.3C144.4,307.3,144.4,307.2,144.4,307.3c0-0.4,0-0.8,0-1.1c0-0.3,0-0.7,0-1.1
							c0-0.3,0-0.8,0-1.1c0-0.3,0-0.8,0-1.1c0-0.3,0-0.8,0-1.1c0-0.3,0-0.8,0-1.1c0-0.3,0-0.7,0-1.1c0-0.3,0-0.7,0-1
							c0.1-0.1,0.2-0.2,0.3-0.2v8.7C144.6,307.1,144.5,307.2,144.4,307.3z"/>
					</defs>
					<clipPath id="SVGID_00000142893622238701591960000002709531705681237632_">
						<use xlink:href="#SVGID_00000100350312828115960050000015949988573813093563_"  style="overflow:visible;"/>
					</clipPath>
					<g style="clip-path:url(#SVGID_00000142893622238701591960000002709531705681237632_);enable-background:new    ;">
						<path class="st8" d="M144.7,298.4v8.7c-14.9,12.3-25.6,22-42.7,34.6c-6.6,4.8-12.4,6.8-17.1,9.6c-2.3,1.4-4.4,2.9-6.1,5.1
							v-8.7c1.7-2.2,3.8-3.7,6.1-5.1c4.7-2.8,10.5-4.8,17.1-9.6C119.1,320.4,129.8,310.7,144.7,298.4"/>
					</g>
				</g>
			</g>
			<g class="st0">
				<g>
					<defs>
						<path id="SVGID_00000181793488854287475580000009729061578867049360_" d="M145.8,297.1v8.7c0,0.5,0,1.1-0.2,1.5v-8.7
							C145.8,298.2,145.8,297.7,145.8,297.1z"/>
					</defs>
					<clipPath id="SVGID_00000163780362906820395720000016280623405836556949_">
						<use xlink:href="#SVGID_00000181793488854287475580000009729061578867049360_"  style="overflow:visible;"/>
					</clipPath>
					<g style="clip-path:url(#SVGID_00000163780362906820395720000016280623405836556949_);enable-background:new    ;">
						<path class="st4" d="M145.8,297.1v8.7c0,0.5,0,0.9-0.1,1.3v-8.7C145.8,298,145.8,297.6,145.8,297.1"/>
						<path class="st24" d="M145.7,298.4v8.7c0,0.1,0,0.2-0.1,0.2v-8.7C145.6,298.6,145.7,298.5,145.7,298.4"/>
					</g>
				</g>
			</g>
			<g class="st0">
				<g>
					<defs>
						<path id="SVGID_00000054978962981477126980000015992669872743888014_" d="M23.9,282.4v8.7c0,9.8-0.6,19.8-0.6,29.6V312
							C23.4,302.2,23.9,292.2,23.9,282.4z"/>
					</defs>
					<clipPath id="SVGID_00000098219733125253097920000000346187617441023362_">
						<use xlink:href="#SVGID_00000054978962981477126980000015992669872743888014_"  style="overflow:visible;"/>
					</clipPath>
					<g style="clip-path:url(#SVGID_00000098219733125253097920000000346187617441023362_);enable-background:new    ;">
						<path class="st4" d="M23.9,282.4v8.7c0,9.8-0.6,19.8-0.6,29.6V312C23.4,302.2,23.9,292.2,23.9,282.4"/>
					</g>
				</g>
			</g>
			<g class="st0">
				<g>
					<defs>
						<path id="SVGID_00000025431141727022268820000017488835000555451266_" d="M22.7,318.1v8.7c-0.3-2.3-0.3-4.2-0.3-6.1V312
							C22.4,313.9,22.4,315.8,22.7,318.1z"/>
					</defs>
					<clipPath id="SVGID_00000106826658796231117800000001145125010978404996_">
						<use xlink:href="#SVGID_00000025431141727022268820000017488835000555451266_"  style="overflow:visible;"/>
					</clipPath>
					<g style="clip-path:url(#SVGID_00000106826658796231117800000001145125010978404996_);enable-background:new    ;">
						<path class="st2" d="M22.7,318.1v8.7c-0.3-2.3-0.3-4.2-0.3-6.1V312C22.4,313.9,22.4,315.8,22.7,318.1"/>
					</g>
				</g>
			</g>
			<g class="st0">
				<g>
					<defs>
						<path id="SVGID_00000166669453196489045430000003439909394952311182_" d="M26.2,328.2c-0.7-0.5-1.6-1.2-2.8-2.1v-8.7
							c1.2,0.9,2.1,1.5,2.8,2.1c0,0.2,0,0.5,0,0.7s0,0.5,0,0.7s0,0.5,0,0.7s0,0.5,0,0.7s0,0.5,0,0.7s0,0.5,0,0.7s0,0.5,0,0.7
							s0,0.5,0,0.7c0,0.1,0,0.3,0,0.4s0,0.3,0,0.4s0,0.3,0,0.4s0,0.3,0,0.4s0,0.3,0,0.4s0,0.3,0,0.4s0,0.3,0,0.4
							C26.2,327.9,26.2,328.1,26.2,328.2z"/>
					</defs>
					<clipPath id="SVGID_00000087383119260557809380000017447845040446815125_">
						<use xlink:href="#SVGID_00000166669453196489045430000003439909394952311182_"  style="overflow:visible;"/>
					</clipPath>
					<g style="clip-path:url(#SVGID_00000087383119260557809380000017447845040446815125_);enable-background:new    ;">
						<path class="st8" d="M27.1,320.3v8.7c-0.7-0.7-1.8-1.5-3.7-2.9v-8.7C25.3,318.8,26.4,319.6,27.1,320.3"/>
					</g>
				</g>
			</g>
			<g class="st0">
				<g>
					<defs>
						<path id="SVGID_00000127009774688666819880000017194619568986377856_" d="M26.2,328.2c0-0.1,0-0.3,0-0.4s0-0.3,0-0.4
							s0-0.3,0-0.4s0-0.3,0-0.4s0-0.3,0-0.4s0-0.3,0-0.4s0-0.3,0-0.4s0-0.3,0-0.4c0-0.2,0-0.5,0-0.7s0-0.5,0-0.7s0-0.5,0-0.7
							s0-0.5,0-0.7s0-0.5,0-0.7s0-0.5,0-0.7s0-0.5,0-0.7s0-0.5,0-0.7c0.4,0.3,0.7,0.6,0.9,0.8v8.7C26.9,328.8,26.6,328.5,26.2,328.2
							z"/>
					</defs>
					<clipPath id="SVGID_00000134220220995928095180000014445064524655971519_">
						<use xlink:href="#SVGID_00000127009774688666819880000017194619568986377856_"  style="overflow:visible;"/>
					</clipPath>
					<g style="clip-path:url(#SVGID_00000134220220995928095180000014445064524655971519_);enable-background:new    ;">
						<path class="st8" d="M27.1,320.3v8.7c-0.7-0.7-1.8-1.5-3.7-2.9v-8.7C25.3,318.8,26.4,319.6,27.1,320.3"/>
					</g>
				</g>
			</g>
			<g class="st0">
				<g>
					<defs>
						<path id="SVGID_00000057849497379076731320000014008340029915991183_" d="M27.6,329.5c-0.1-0.2-0.3-0.3-0.4-0.5v-8.7
							c0.2,0.2,0.3,0.3,0.4,0.5c0,0.2,0,0.5,0,0.8c0,0.2,0,0.6,0,0.8c0,0.3,0,0.6,0,0.8c0,0.3,0,0.6,0,0.9s0,0.6,0,0.9s0,0.6,0,0.8
							c0,0.2,0,0.6,0,0.8c0,0.2,0,0.5,0,0.8c0,0.1,0,0.2,0,0.2c0,0.1,0,0.2,0,0.3c0,0.1,0,0.2,0,0.3c0,0.1,0,0.2,0,0.3
							c0,0.1,0,0.2,0,0.3c0,0.1,0,0.2,0,0.3c0,0.1,0,0.2,0,0.3C27.6,329.3,27.6,329.4,27.6,329.5z"/>
					</defs>
					<clipPath id="SVGID_00000155133798538078943690000016261595985793910194_">
						<use xlink:href="#SVGID_00000057849497379076731320000014008340029915991183_"  style="overflow:visible;"/>
					</clipPath>
					<g style="clip-path:url(#SVGID_00000155133798538078943690000016261595985793910194_);enable-background:new    ;">
						<path class="st8" d="M30.5,327.6v8.7c-1-1.7-1.5-2.9-1.8-3.7c-0.2-0.7-0.3-1.1-0.5-1.6c-0.2-0.7-0.5-1.3-1.2-2v-8.7
							c0.7,0.7,1,1.3,1.2,2c0.1,0.4,0.2,0.9,0.5,1.6C29.1,324.8,29.6,325.9,30.5,327.6"/>
					</g>
				</g>
			</g>
			<g class="st0">
				<g>
					<defs>
						<path id="SVGID_00000119820343524239957510000014201761820038094500_" d="M27.1,321.9v8.7c-0.2-0.3-0.4-0.6-0.9-1.1
							c-0.6-0.6-1.7-1.4-3.5-2.7v-8.7c1.8,1.3,2.9,2.1,3.5,2.7C26.7,321.2,26.9,321.6,27.1,321.9z"/>
					</defs>
					<clipPath id="SVGID_00000164482309891067516240000015543575595535924892_">
						<use xlink:href="#SVGID_00000119820343524239957510000014201761820038094500_"  style="overflow:visible;"/>
					</clipPath>
					<g style="clip-path:url(#SVGID_00000164482309891067516240000015543575595535924892_);enable-background:new    ;">
						<path class="st2" d="M27.1,321.9v8.7c-0.2-0.3-0.4-0.6-0.9-1.1c-0.6-0.6-1.7-1.4-3.5-2.7v-8.7c1.8,1.3,2.9,2.1,3.5,2.7
							C26.7,321.2,26.9,321.6,27.1,321.9"/>
					</g>
				</g>
			</g>
			<g class="st0">
				<g>
					<defs>
						<path id="SVGID_00000124871948064274022560000006140625037959839135_" d="M27.6,329.5c0-0.1,0-0.2,0-0.2c0-0.1,0-0.2,0-0.3
							c0-0.1,0-0.2,0-0.3c0-0.1,0-0.2,0-0.3c0-0.1,0-0.2,0-0.3c0-0.1,0-0.2,0-0.3c0-0.1,0-0.2,0-0.3c0-0.1,0-0.2,0-0.2
							c0-0.2,0-0.5,0-0.8c0-0.2,0-0.6,0-0.8c0-0.3,0-0.6,0-0.8c0-0.3,0-0.6,0-0.9s0-0.6,0-0.9s0-0.6,0-0.8c0-0.2,0-0.6,0-0.8
							c0-0.2,0-0.5,0-0.8c0.4,0.5,0.6,1,0.7,1.5c0.1,0.3,0.2,0.6,0.3,1.1c0,0.2,0,0.5,0,0.7s0,0.5,0,0.8c0,0.2,0,0.6,0,0.8
							c0,0.2,0,0.6,0,0.8c0,0.2,0,0.6,0,0.8c0,0.2,0,0.6,0,0.8c0,0.2,0,0.5,0,0.8c0,0.2,0,0.5,0,0.7c0,0.1,0,0.2,0,0.3
							c0,0.1,0,0.2,0,0.3c0,0.1,0,0.2,0,0.3c0,0.1,0,0.2,0,0.3c0,0.1,0,0.2,0,0.3c0,0.1,0,0.2,0,0.3c0,0.1,0,0.2,0,0.3
							c0,0.1,0,0.2,0,0.3c-0.1-0.4-0.2-0.7-0.3-1.1C28.2,330.5,28,330,27.6,329.5z"/>
					</defs>
					<clipPath id="SVGID_00000088121725683032542080000015411207515173895571_">
						<use xlink:href="#SVGID_00000124871948064274022560000006140625037959839135_"  style="overflow:visible;"/>
					</clipPath>
					<g style="clip-path:url(#SVGID_00000088121725683032542080000015411207515173895571_);enable-background:new    ;">
						<path class="st8" d="M30.5,327.6v8.7c-1-1.7-1.5-2.9-1.8-3.7c-0.2-0.7-0.3-1.1-0.5-1.6c-0.2-0.7-0.5-1.3-1.2-2v-8.7
							c0.7,0.7,1,1.3,1.2,2c0.1,0.4,0.2,0.9,0.5,1.6C29.1,324.8,29.6,325.9,30.5,327.6"/>
					</g>
				</g>
			</g>
			<g class="st0">
				<g>
					<defs>
						<path id="SVGID_00000102514762165402523250000005900214641060996228_" d="M28.6,332.1c0-0.1,0-0.2,0-0.3c0-0.1,0-0.2,0-0.3
							c0-0.1,0-0.2,0-0.3c0-0.1,0-0.2,0-0.3c0-0.1,0-0.2,0-0.3c0-0.1,0-0.2,0-0.3c0-0.1,0-0.2,0-0.3c0-0.1,0-0.2,0-0.3
							c0-0.2,0-0.5,0-0.7s0-0.5,0-0.8c0-0.2,0-0.6,0-0.8c0-0.2,0-0.6,0-0.8c0-0.2,0-0.6,0-0.8c0-0.2,0-0.6,0-0.8c0-0.2,0-0.5,0-0.8
							c0-0.2,0-0.5,0-0.7c0,0.2,0.1,0.3,0.2,0.5c0.3,0.8,0.8,2,1.8,3.7v8.7c-1-1.7-1.5-2.9-1.8-3.7
							C28.7,332.4,28.7,332.2,28.6,332.1z"/>
					</defs>
					<clipPath id="SVGID_00000157281447201275301920000000067677566886732430_">
						<use xlink:href="#SVGID_00000102514762165402523250000005900214641060996228_"  style="overflow:visible;"/>
					</clipPath>
					<g style="clip-path:url(#SVGID_00000157281447201275301920000000067677566886732430_);enable-background:new    ;">
						<path class="st8" d="M30.5,327.6v8.7c-1-1.7-1.5-2.9-1.8-3.7c-0.2-0.7-0.3-1.1-0.5-1.6c-0.2-0.7-0.5-1.3-1.2-2v-8.7
							c0.7,0.7,1,1.3,1.2,2c0.1,0.4,0.2,0.9,0.5,1.6C29.1,324.8,29.6,325.9,30.5,327.6"/>
					</g>
				</g>
			</g>
			<g class="st0">
				<g>
					<defs>
						<path id="SVGID_00000144316089976944617450000008444351812154097538_" d="M29.9,328.4v8.7c-1.4-2.2-1.9-3.6-2.2-4.5
							c-0.3-1-0.4-1.5-0.6-2v-8.7c0.3,0.5,0.3,1,0.6,2S28.5,326.2,29.9,328.4z"/>
					</defs>
					<clipPath id="SVGID_00000085233224783948838880000014276444630726539928_">
						<use xlink:href="#SVGID_00000144316089976944617450000008444351812154097538_"  style="overflow:visible;"/>
					</clipPath>
					<g style="clip-path:url(#SVGID_00000085233224783948838880000014276444630726539928_);enable-background:new    ;">
						<path class="st2" d="M29.9,328.4v8.7c-1.4-2.2-1.9-3.6-2.2-4.5c-0.3-1-0.4-1.5-0.6-2v-8.7c0.3,0.5,0.3,1,0.6,2
							S28.5,326.2,29.9,328.4"/>
					</g>
				</g>
			</g>
			<g class="st0">
				<g>
					<defs>
						<path id="SVGID_00000154392978935335156290000004956522380522399894_" d="M32.7,336.8c-0.8,0-1.5-0.1-2.1-0.5v-8.7
							c0.7,0.4,1.4,0.5,2.1,0.5c0.7,0,1.4-0.1,2.1-0.1c0.7,0,1.5,0.1,2.5,0.7c0,0.3,0,0.7,0,1s0,0.7,0,1s0,0.8,0,1.1
							c0,0.3,0,0.8,0,1.1c0,0.3,0,0.8,0,1.1c0,0.3,0,0.8,0,1.1c0,0.3,0,0.7,0,1s0,0.7,0,1l0,0l0,0l0,0l0,0l0,0l0,0l0,0l0,0
							c-1-0.6-1.8-0.7-2.5-0.7C34,336.7,33.3,336.8,32.7,336.8z"/>
					</defs>
					<clipPath id="SVGID_00000074427370567095105880000016282848738345741959_">
						<use xlink:href="#SVGID_00000154392978935335156290000004956522380522399894_"  style="overflow:visible;"/>
					</clipPath>
					<g style="clip-path:url(#SVGID_00000074427370567095105880000016282848738345741959_);enable-background:new    ;">
						<path class="st8" d="M37.5,328.9v8.7c-1.1-0.7-1.9-0.8-2.7-0.8c-0.7,0-1.4,0.1-2.1,0.1c-0.8,0-1.5-0.1-2.1-0.5v-8.7
							c0.7,0.4,1.4,0.5,2.1,0.5c0.7,0,1.4-0.1,2.1-0.1C35.6,328,36.4,328.1,37.5,328.9"/>
					</g>
				</g>
			</g>
			<g class="st0">
				<g>
					<defs>
						<path id="SVGID_00000049189927694649945830000010158701888161443988_" d="M37.3,337.4L37.3,337.4L37.3,337.4
							C37.3,337.3,37.3,337.3,37.3,337.4c0-0.1,0-0.1,0-0.1l0,0l0,0l0,0l0,0c0-0.3,0-0.7,0-1s0-0.7,0-1s0-0.8,0-1.1
							c0-0.3,0-0.8,0-1.1c0-0.3,0-0.8,0-1.1c0-0.3,0-0.8,0-1.1c0-0.3,0-0.7,0-1s0-0.7,0-1c0.1,0,0.2,0.1,0.2,0.1v8.7
							C37.4,337.5,37.4,337.5,37.3,337.4z"/>
					</defs>
					<clipPath id="SVGID_00000084522894965871247750000015875004566391809458_">
						<use xlink:href="#SVGID_00000049189927694649945830000010158701888161443988_"  style="overflow:visible;"/>
					</clipPath>
					<g style="clip-path:url(#SVGID_00000084522894965871247750000015875004566391809458_);enable-background:new    ;">
						<path class="st8" d="M37.5,328.9v8.7c-1.1-0.7-1.9-0.8-2.7-0.8c-0.7,0-1.4,0.1-2.1,0.1c-0.8,0-1.5-0.1-2.1-0.5v-8.7
							c0.7,0.4,1.4,0.5,2.1,0.5c0.7,0,1.4-0.1,2.1-0.1C35.6,328,36.4,328.1,37.5,328.9"/>
					</g>
				</g>
			</g>
			<g class="st0">
				<g>
					<defs>
						<path id="SVGID_00000130649326940612595750000005958322762802214282_" d="M36.6,329.3v8.7c-0.6-0.2-1.2-0.3-1.8-0.3
							c-0.7,0-1.4,0.1-2.1,0.1c-0.9,0-1.9-0.1-2.8-0.7v-8.7c0.9,0.6,1.9,0.7,2.8,0.7c0.7,0,1.4-0.1,2.1-0.1
							C35.4,329,36,329.1,36.6,329.3z"/>
					</defs>
					<clipPath id="SVGID_00000005230388918475609560000013057404935968320951_">
						<use xlink:href="#SVGID_00000130649326940612595750000005958322762802214282_"  style="overflow:visible;"/>
					</clipPath>
					<g style="clip-path:url(#SVGID_00000005230388918475609560000013057404935968320951_);enable-background:new    ;">
						<path class="st2" d="M36.6,329.3v8.7c-0.6-0.2-1.2-0.3-1.8-0.3c-0.7,0-1.4,0.1-2.1,0.1c-0.9,0-1.9-0.1-2.8-0.7v-8.7
							c0.9,0.6,1.9,0.7,2.8,0.7c0.7,0,1.4-0.1,2.1-0.1C35.4,329,36,329.1,36.6,329.3"/>
					</g>
				</g>
			</g>
			<g class="st0">
				<g>
					<defs>
						<path id="SVGID_00000123428517434574679210000015230384520565794455_" d="M144.4,307.3c-14.7,12.2-25.4,21.8-42.4,34.3
							c0-0.3,0-0.7,0-1s0-0.8,0-1.1c0-0.3,0-0.8,0-1.1c0-0.3,0-0.8,0-1.1c0-0.3,0-0.8,0-1.1c0-0.3,0-0.8,0-1.1c0-0.3,0-0.8,0-1.1
							c0-0.3,0-0.7,0-1c17-12.5,27.7-22.1,42.4-34.3c0,0.3,0,0.7,0,1s0,0.7,0,1.1c0,0.3,0,0.8,0,1.1c0,0.3,0,0.8,0,1.1
							c0,0.3,0,0.8,0,1.1c0,0.3,0,0.8,0,1.1c0,0.3,0,0.7,0,1.1C144.4,306.5,144.4,306.9,144.4,307.3
							C144.4,307.2,144.4,307.3,144.4,307.3L144.4,307.3L144.4,307.3L144.4,307.3L144.4,307.3L144.4,307.3L144.4,307.3L144.4,307.3z
							"/>
					</defs>
					<clipPath id="SVGID_00000127729044594500674080000013724175948758753435_">
						<use xlink:href="#SVGID_00000123428517434574679210000015230384520565794455_"  style="overflow:visible;"/>
					</clipPath>
					<g style="clip-path:url(#SVGID_00000127729044594500674080000013724175948758753435_);enable-background:new    ;">
						<path class="st8" d="M144.7,298.4v8.7c-14.9,12.3-25.6,22-42.7,34.6c-6.6,4.8-12.4,6.8-17.1,9.6c-2.3,1.4-4.4,2.9-6.1,5.1
							v-8.7c1.7-2.2,3.8-3.7,6.1-5.1c4.7-2.8,10.5-4.8,17.1-9.6C119.1,320.4,129.8,310.7,144.7,298.4"/>
					</g>
				</g>
			</g>
			<g class="st0">
				<g>
					<defs>
						<path id="SVGID_00000016052130852269475500000016859908043849373322_" d="M102,341.6L102,341.6c0-0.3,0-0.7,0-1s0-0.8,0-1.1
							c0-0.3,0-0.8,0-1.1c0-0.3,0-0.8,0-1.1c0-0.3,0-0.8,0-1.1c0-0.3,0-0.8,0-1.1c0-0.3,0-0.8,0-1.1c0-0.3,0-0.7,0-1l0,0
							c0,0.3,0,0.7,0,1s0,0.8,0,1.1c0,0.3,0,0.8,0,1.1c0,0.3,0,0.8,0,1.1c0,0.3,0,0.8,0,1.1c0,0.3,0,0.8,0,1.1c0,0.3,0,0.8,0,1.1
							C102,340.9,102,341.3,102,341.6z"/>
					</defs>
					<clipPath id="SVGID_00000155834259637140782640000008849796921594553507_">
						<use xlink:href="#SVGID_00000016052130852269475500000016859908043849373322_"  style="overflow:visible;"/>
					</clipPath>
					<g style="clip-path:url(#SVGID_00000155834259637140782640000008849796921594553507_);enable-background:new    ;">
						<path class="st8" d="M144.7,298.4v8.7c-14.9,12.3-25.6,22-42.7,34.6c-6.6,4.8-12.4,6.8-17.1,9.6c-2.3,1.4-4.4,2.9-6.1,5.1
							v-8.7c1.7-2.2,3.8-3.7,6.1-5.1c4.7-2.8,10.5-4.8,17.1-9.6C119.1,320.4,129.8,310.7,144.7,298.4"/>
					</g>
				</g>
			</g>
			<g class="st0">
				<g>
					<defs>
						<path id="SVGID_00000062872410738718898800000012582517162202921603_" d="M40.6,349.6c-1-3.7-2.3-7.3-3.1-12.1v-8.7
							c0.8,4.8,2,8.4,3.1,12.1l0,0c0,0.3,0,0.7,0,1s0,0.8,0,1.1c0,0.3,0,0.8,0,1.1c0,0.3,0,0.8,0,1.1c0,0.3,0,0.8,0,1.1
							c0,0.3,0,0.8,0,1.1c0,0.3,0,0.8,0,1.1C40.6,348.9,40.6,349.3,40.6,349.6L40.6,349.6z"/>
					</defs>
					<clipPath id="SVGID_00000159454865479793186470000005412888003701160380_">
						<use xlink:href="#SVGID_00000062872410738718898800000012582517162202921603_"  style="overflow:visible;"/>
					</clipPath>
					<g style="clip-path:url(#SVGID_00000159454865479793186470000005412888003701160380_);enable-background:new    ;">
						<path class="st8" d="M42.5,352.8v8.7c0-4.5-0.8-8.2-1.9-11.8c-1-3.7-2.3-7.3-3.1-12.1v-8.7c0.8,4.8,2,8.4,3.1,12.1
							C41.6,344.6,42.5,348.2,42.5,352.8"/>
					</g>
				</g>
			</g>
			<g class="st0">
				<g>
					<defs>
						<path id="SVGID_00000145043100237479713940000003607140123921037991_" d="M41.5,352.8v8.7c0-4.4-0.8-7.9-1.8-11.5
							s-2.2-7.2-3.1-11.9v-8.7c0.8,4.7,2,8.4,3.1,11.9C40.7,344.8,41.5,348.3,41.5,352.8z"/>
					</defs>
					<clipPath id="SVGID_00000111158905517299234300000016087120309423474329_">
						<use xlink:href="#SVGID_00000145043100237479713940000003607140123921037991_"  style="overflow:visible;"/>
					</clipPath>
					<g style="clip-path:url(#SVGID_00000111158905517299234300000016087120309423474329_);enable-background:new    ;">
						<path class="st2" d="M41.5,352.8v8.7c0-4.4-0.8-7.9-1.8-11.5s-2.2-7.2-3.1-11.9v-8.7c0.8,4.7,2,8.4,3.1,11.9
							C40.7,344.8,41.5,348.3,41.5,352.8"/>
					</g>
				</g>
			</g>
			<g class="st0">
				<g>
					<defs>
						<path id="SVGID_00000157994730367122509290000000135673816045550769_" d="M42.5,361.4c0-4.5-0.8-8.1-1.9-11.8c0-0.3,0-0.7,0-1
							s0-0.8,0-1.1c0-0.3,0-0.8,0-1.1c0-0.3,0-0.8,0-1.1c0-0.3,0-0.8,0-1.1c0-0.3,0-0.8,0-1.1c0-0.3,0-0.8,0-1.1c0-0.3,0-0.7,0-1
							c1,3.6,1.9,7.2,1.9,11.8C42.5,355.4,42.5,358.8,42.5,361.4z"/>
					</defs>
					<clipPath id="SVGID_00000166670002755737379770000002978720750674619071_">
						<use xlink:href="#SVGID_00000157994730367122509290000000135673816045550769_"  style="overflow:visible;"/>
					</clipPath>
					<g style="clip-path:url(#SVGID_00000166670002755737379770000002978720750674619071_);enable-background:new    ;">
						<path class="st8" d="M42.5,352.8v8.7c0-4.5-0.8-8.2-1.9-11.8c-1-3.7-2.3-7.3-3.1-12.1v-8.7c0.8,4.8,2,8.4,3.1,12.1
							C41.6,344.6,42.5,348.2,42.5,352.8"/>
					</g>
				</g>
			</g>
			<g class="st0">
				<g>
					<defs>
						<path id="SVGID_00000030448671057575129030000012316962246956330425_" d="M78.7,356.5c-1.7,2.2-3.1,5.1-4.1,9c0-0.3,0-0.7,0-1
							s0-0.8,0-1.1s0-0.8,0-1.1s0-0.8,0-1.1s0-0.8,0-1.1c0-0.3,0-0.8,0-1.1c0-0.3,0-0.8,0-1.1c0-0.3,0-0.7,0-1c1-3.9,2.3-6.8,4.1-9
							c1.7-2.2,3.8-3.8,6.2-5.2l0,0c0,0.3,0,0.7,0,1s0,0.8,0,1.1c0,0.3,0,0.8,0,1.1c0,0.3,0,0.8,0,1.1c0,0.3,0,0.8,0,1.1
							c0,0.3,0,0.8,0,1.1c0,0.3,0,0.8,0,1.1c0,0.3,0,0.7,0,1c0-0.3,0-0.7,0-1s0-0.8,0-1.1c0-0.3,0-0.8,0-1.1c0-0.3,0-0.8,0-1.1
							c0-0.3,0-0.8,0-1.1c0-0.3,0-0.8,0-1.1c0-0.3,0-0.8,0-1.1c0-0.3,0-0.7,0-1c4.7-2.8,10.5-4.8,17.1-9.6c0,0.3,0,0.7,0,1
							s0,0.8,0,1.1c0,0.3,0,0.8,0,1.1c0,0.3,0,0.8,0,1.1c0,0.3,0,0.8,0,1.1c0,0.3,0,0.8,0,1.1c0,0.3,0,0.8,0,1.1c0,0.3,0,0.7,0,1
							c-6.6,4.8-12.4,6.8-17.1,9.6C82.5,352.6,80.4,354.2,78.7,356.5z"/>
					</defs>
					<clipPath id="SVGID_00000152231231770635727750000014827008674387480749_">
						<use xlink:href="#SVGID_00000030448671057575129030000012316962246956330425_"  style="overflow:visible;"/>
					</clipPath>
					<g style="clip-path:url(#SVGID_00000152231231770635727750000014827008674387480749_);enable-background:new    ;">
						<path class="st8" d="M144.7,298.4v8.7c-14.9,12.3-25.6,22-42.7,34.6c-6.6,4.8-12.4,6.8-17.1,9.6c-2.3,1.4-4.4,2.9-6.1,5.1
							v-8.7c1.7-2.2,3.8-3.7,6.1-5.1c4.7-2.8,10.5-4.8,17.1-9.6C119.1,320.4,129.8,310.7,144.7,298.4"/>
						<path class="st20" d="M78.7,347.7v8.7l-0.1,0.1c-0.8,1.1-1.6,2.3-2.3,3.7v-8.7c0.7-1.4,1.4-2.7,2.3-3.7
							C78.7,347.8,78.7,347.7,78.7,347.7"/>
						<path class="st19" d="M76.4,351.5v8.7c-0.7,1.5-1.3,3.3-1.8,5.3v-8.7C75.1,354.8,75.7,353.1,76.4,351.5"/>
					</g>
				</g>
			</g>
			<g class="st0">
				<g>
					<defs>
						<path id="SVGID_00000176031685217112462200000001615977549954863792_" d="M74.6,365.5L74.6,365.5v-8.6l0,0c0,0.3,0,0.7,0,1
							s0,0.8,0,1.1c0,0.3,0,0.8,0,1.1c0,0.3,0,0.8,0,1.1c0,0.3,0,0.8,0,1.1s0,0.8,0,1.1s0,0.8,0,1.1
							C74.6,364.8,74.6,365.2,74.6,365.5z"/>
					</defs>
					<clipPath id="SVGID_00000091711424213303950110000011064963168336663712_">
						<use xlink:href="#SVGID_00000176031685217112462200000001615977549954863792_"  style="overflow:visible;"/>
					</clipPath>
					<g style="clip-path:url(#SVGID_00000091711424213303950110000011064963168336663712_);enable-background:new    ;">
						<path class="st19" d="M76.4,351.5v8.7c-0.7,1.5-1.3,3.3-1.8,5.3v-8.7C75.1,354.8,75.7,353.1,76.4,351.5"/>
					</g>
				</g>
			</g>
			<g class="st0">
				<g>
					<defs>
						<path id="SVGID_00000137120023272644419500000006955172672295899547_" d="M145.6,298.7v8.7c-0.1,0.5-0.4,0.9-0.8,1.2
							c-14.4,11.6-25.1,21.2-42.3,33.9c-5,3.7-9.6,5.8-13.5,7.7c-3.9,2-7.1,3.8-9.6,6.9c-1.6,2.1-3,4.8-3.9,8.7v-8.7
							c0.9-3.8,2.3-6.6,3.9-8.7c2.5-3.2,5.7-5,9.6-6.9c3.9-1.9,8.5-4,13.5-7.7c17.2-12.6,27.9-22.3,42.3-33.9
							C145.2,299.6,145.5,299.1,145.6,298.7z"/>
					</defs>
					<clipPath id="SVGID_00000111163902065997165570000000259337763002705025_">
						<use xlink:href="#SVGID_00000137120023272644419500000006955172672295899547_"  style="overflow:visible;"/>
					</clipPath>
					<g style="clip-path:url(#SVGID_00000111163902065997165570000000259337763002705025_);enable-background:new    ;">
						<path class="st24" d="M145.6,298.7v8.7c0,0.1-0.1,0.3-0.1,0.4V299C145.5,298.9,145.6,298.8,145.6,298.7"/>
						<path class="st25" d="M145.5,299v8.7c-0.1,0.2-0.2,0.3-0.3,0.5v-8.7C145.3,299.4,145.4,299.2,145.5,299"/>
						<path class="st2" d="M145.2,299.5v8.7c-0.1,0.1-0.2,0.2-0.3,0.3c-14.4,11.6-25.1,21.2-42.3,33.9c-5,3.7-9.6,5.8-13.5,7.7
							c-3.8,1.9-7,3.7-9.5,6.8v-8.7c2.4-3.1,5.6-4.9,9.5-6.8s8.5-4,13.5-7.7c17.2-12.6,27.9-22.3,42.3-33.9
							C145,299.8,145.1,299.7,145.2,299.5"/>
						<path class="st25" d="M79.6,348.2v8.7c0,0.1-0.1,0.1-0.1,0.2c-0.8,1-1.5,2.2-2.1,3.5v-8.7c0.6-1.4,1.4-2.5,2.1-3.5
							C79.5,348.3,79.5,348.3,79.6,348.2"/>
						<path class="st24" d="M77.3,351.9v8.7c-0.7,1.5-1.3,3.2-1.8,5.1V357C76,355.1,76.6,353.4,77.3,351.9"/>
					</g>
				</g>
			</g>
			<g class="st0">
				<g>
					<defs>
						<path id="SVGID_00000093885238109499296910000007409352120649932164_" d="M42.5,352.8v8.7c0,1.7-0.1,3.5-0.4,5.6v-8.7
							C42.4,356.3,42.5,354.5,42.5,352.8z"/>
					</defs>
					<clipPath id="SVGID_00000084506804601427595500000015922215653769693884_">
						<use xlink:href="#SVGID_00000093885238109499296910000007409352120649932164_"  style="overflow:visible;"/>
					</clipPath>
					<g style="clip-path:url(#SVGID_00000084506804601427595500000015922215653769693884_);enable-background:new    ;">
						<path class="st4" d="M42.5,352.8v8.7c0,1.7-0.1,3.5-0.4,5.6v-8.7C42.4,356.3,42.5,354.5,42.5,352.8"/>
					</g>
				</g>
			</g>
			<g class="st0">
				<g>
					<defs>
						<path id="SVGID_00000134957781877354970550000001057224098678931088_" d="M42.6,366.9c-0.2-1.1-0.2-2.1-0.2-3.1v-8.7
							c0,1,0,2,0.2,3.1C42.6,360.9,42.6,364.3,42.6,366.9z"/>
					</defs>
					<clipPath id="SVGID_00000116915668226355303840000009742168666630814357_">
						<use xlink:href="#SVGID_00000134957781877354970550000001057224098678931088_"  style="overflow:visible;"/>
					</clipPath>
					<g style="clip-path:url(#SVGID_00000116915668226355303840000009742168666630814357_);enable-background:new    ;">
						<path class="st8" d="M42.6,358.3v8.7c-0.2-1.1-0.2-2.1-0.2-3.1v-8.7C42.4,356.1,42.5,357.2,42.6,358.3"/>
					</g>
				</g>
			</g>
			<g class="st0">
				<g>
					<defs>
						<path id="SVGID_00000053512020443562784840000016927783296156824223_" d="M43.8,367.8L43.8,367.8c0-0.3,0-0.7,0-1s0-0.8,0-1.1
							s0-0.8,0-1.1s0-0.8,0-1.1s0-0.8,0-1.1s0-0.8,0-1.1s0-0.8,0-1.1c0-0.3,0-0.7,0-1l0,0c0.2,0.2,0.3,0.4,0.4,0.6
							c0,0.2,0,0.4,0,0.6s0,0.4,0,0.6s0,0.4,0,0.6c0,0.2,0,0.4,0,0.6s0,0.4,0,0.6c0,0.2,0,0.4,0,0.6c0,0.2,0,0.4,0,0.6
							c0,0.2,0,0.4,0,0.6c0,0.1,0,0.3,0,0.4c0,0.1,0,0.3,0,0.5c0,0.1,0,0.3,0,0.5s0,0.4,0,0.5c0,0.2,0,0.4,0,0.5s0,0.3,0,0.5
							c0,0.1,0,0.3,0,0.5c0,0.1,0,0.3,0,0.4C44.1,368.1,44,367.9,43.8,367.8z"/>
					</defs>
					<clipPath id="SVGID_00000088849420545597027030000016386252247551026340_">
						<use xlink:href="#SVGID_00000053512020443562784840000016927783296156824223_"  style="overflow:visible;"/>
					</clipPath>
					<g style="clip-path:url(#SVGID_00000088849420545597027030000016386252247551026340_);enable-background:new    ;">
						<path class="st8" d="M47.3,363.7v8.7c-0.9-0.4-1.6-0.8-2-1.4c-0.4-0.6-0.6-1.3-0.9-2.1c-0.2-0.4-0.3-0.8-0.6-1.1
							s-0.7-0.6-1.2-0.8v-8.7c0.5,0.2,0.9,0.5,1.2,0.8s0.5,0.7,0.6,1.1c0.3,0.8,0.5,1.6,0.9,2.1C45.6,362.9,46.4,363.3,47.3,363.7"
							/>
					</g>
				</g>
			</g>
			<g class="st0">
				<g>
					<defs>
						<path id="SVGID_00000082359051344014365280000000878795890320599198_" d="M41.5,362.2v-8.7c0,1.6,0.1,3.5,1.6,6.2v8.7
							C41.6,365.6,41.5,363.8,41.5,362.2z"/>
					</defs>
					<clipPath id="SVGID_00000111161902446773499990000004163583513089859230_">
						<use xlink:href="#SVGID_00000082359051344014365280000000878795890320599198_"  style="overflow:visible;"/>
					</clipPath>
					<g style="clip-path:url(#SVGID_00000111161902446773499990000004163583513089859230_);enable-background:new    ;">
						<path class="st2" d="M43,359.7v8.7c-1.5-2.7-1.6-4.6-1.6-6.2v-8.7C41.5,355.1,41.6,357,43,359.7"/>
					</g>
				</g>
			</g>
			<g class="st0">
				<g>
					<defs>
						<path id="SVGID_00000103228579406537812710000017853368800714799506_" d="M44.2,368.4c0-0.1,0-0.3,0-0.4c0-0.1,0-0.3,0-0.5
							c0-0.1,0-0.3,0-0.5s0-0.4,0-0.5c0-0.2,0-0.4,0-0.5s0-0.3,0-0.5c0-0.1,0-0.3,0-0.5c0-0.1,0-0.3,0-0.4c0-0.2,0-0.4,0-0.6
							c0-0.2,0-0.4,0-0.6c0-0.2,0-0.4,0-0.6c0-0.2,0-0.4,0-0.6s0-0.4,0-0.6c0-0.2,0-0.4,0-0.6c0-0.2,0-0.4,0-0.6s0-0.4,0-0.6
							c0.1,0.2,0.2,0.3,0.2,0.5c0.2,0.5,0.3,1,0.5,1.5c0,0.2,0,0.5,0,0.7s0,0.5,0,0.7s0,0.5,0,0.7s0,0.5,0,0.7s0,0.5,0,0.7
							s0,0.5,0,0.7s0,0.5,0,0.7s0,0.5,0,0.7c0,0.1,0,0.2,0,0.3s0,0.3,0,0.4c0,0.1,0,0.3,0,0.4c0,0.1,0,0.3,0,0.4s0,0.3,0,0.4
							c0,0.1,0,0.3,0,0.4c0,0.1,0,0.3,0,0.4c0,0.1,0,0.2,0,0.3c-0.2-0.5-0.3-1-0.5-1.5C44.4,368.7,44.3,368.5,44.2,368.4z"/>
					</defs>
					<clipPath id="SVGID_00000160161738353311607590000017999288034664069812_">
						<use xlink:href="#SVGID_00000103228579406537812710000017853368800714799506_"  style="overflow:visible;"/>
					</clipPath>
					<g style="clip-path:url(#SVGID_00000160161738353311607590000017999288034664069812_);enable-background:new    ;">
						<path class="st8" d="M47.3,363.7v8.7c-0.9-0.4-1.6-0.8-2-1.4c-0.4-0.6-0.6-1.3-0.9-2.1c-0.2-0.4-0.3-0.8-0.6-1.1
							s-0.7-0.6-1.2-0.8v-8.7c0.5,0.2,0.9,0.5,1.2,0.8s0.5,0.7,0.6,1.1c0.3,0.8,0.5,1.6,0.9,2.1C45.6,362.9,46.4,363.3,47.3,363.7"
							/>
					</g>
				</g>
			</g>
			<g class="st0">
				<g>
					<defs>
						<path id="SVGID_00000150097280575008514040000003125283641072946602_" d="M45,370.3c0-0.1,0-0.2,0-0.3s0-0.3,0-0.4
							c0-0.1,0-0.3,0-0.4c0-0.1,0-0.3,0-0.4s0-0.3,0-0.4c0-0.1,0-0.3,0-0.4c0-0.1,0-0.3,0-0.4c0-0.1,0-0.2,0-0.3c0-0.2,0-0.5,0-0.7
							s0-0.5,0-0.7s0-0.5,0-0.7s0-0.5,0-0.7s0-0.5,0-0.7s0-0.5,0-0.7s0-0.5,0-0.7s0-0.5,0-0.7c0.1,0.2,0.2,0.5,0.3,0.6
							c0.4,0.6,1.1,1,2,1.4v8.7c-0.9-0.4-1.6-0.8-2-1.4C45.2,370.8,45.1,370.6,45,370.3z"/>
					</defs>
					<clipPath id="SVGID_00000160164559565256453910000008466043345066505861_">
						<use xlink:href="#SVGID_00000150097280575008514040000003125283641072946602_"  style="overflow:visible;"/>
					</clipPath>
					<g style="clip-path:url(#SVGID_00000160164559565256453910000008466043345066505861_);enable-background:new    ;">
						<path class="st8" d="M47.3,363.7v8.7c-0.9-0.4-1.6-0.8-2-1.4c-0.4-0.6-0.6-1.3-0.9-2.1c-0.2-0.4-0.3-0.8-0.6-1.1
							s-0.7-0.6-1.2-0.8v-8.7c0.5,0.2,0.9,0.5,1.2,0.8s0.5,0.7,0.6,1.1c0.3,0.8,0.5,1.6,0.9,2.1C45.6,362.9,46.4,363.3,47.3,363.7"
							/>
					</g>
				</g>
			</g>
			<g class="st0">
				<g>
					<defs>
						<path id="SVGID_00000154405657033350321760000003917265605549411516_" d="M48.2,372.8c-0.3-0.2-0.7-0.3-1-0.5v-8.7
							c0.3,0.2,0.7,0.3,1,0.5c0,0.3,0,0.7,0,1s0,0.7,0,1s0,0.7,0,1s0,0.7,0,1.1c0,0.3,0,0.7,0,1.1c0,0.3,0,0.7,0,1s0,0.7,0,1
							s0,0.7,0,1c0,0,0,0,0,0.1c0,0,0,0,0,0.1c0,0,0,0,0,0.1c0,0,0,0,0,0.1S48.2,372.7,48.2,372.8C48.2,372.8,48.2,372.8,48.2,372.8
							C48.2,372.7,48.2,372.7,48.2,372.8L48.2,372.8z"/>
					</defs>
					<clipPath id="SVGID_00000163779903971927197050000002375391174293528489_">
						<use xlink:href="#SVGID_00000154405657033350321760000003917265605549411516_"  style="overflow:visible;"/>
					</clipPath>
					<g style="clip-path:url(#SVGID_00000163779903971927197050000002375391174293528489_);enable-background:new    ;">
						<path class="st8" d="M65.4,400.9v8.7c-2.8-3.4-13.8-17.6-14.7-34.2c0-0.7-0.4-1.3-0.9-1.7c-0.7-0.6-1.6-1-2.5-1.4v-8.7
							c0.8,0.4,1.8,0.8,2.5,1.4c0.5,0.4,0.8,1,0.9,1.7C51.5,383.3,62.5,397.5,65.4,400.9"/>
					</g>
				</g>
			</g>
			<g class="st0">
				<g>
					<defs>
						<path id="SVGID_00000166637592538706459110000013685486182418481845_" d="M48.2,372.8L48.2,372.8
							C48.2,372.7,48.2,372.7,48.2,372.8c0-0.1,0-0.1,0-0.2c0,0,0,0,0-0.1s0,0,0-0.1c0,0,0,0,0-0.1c0,0,0,0,0-0.1c0,0,0,0,0-0.1
							c0-0.3,0-0.7,0-1s0-0.7,0-1s0-0.7,0-1s0-0.7,0-1.1c0-0.3,0-0.7,0-1.1c0-0.3,0-0.7,0-1s0-0.7,0-1s0-0.7,0-1
							c0.5,0.3,1.1,0.5,1.5,0.9c0.5,0.4,0.8,1,0.9,1.7c0.9,15.3,10.2,28.5,13.9,33.2c0,0.2,0,0.4,0,0.6c0,0.2,0,0.5,0,0.7
							s0,0.5,0,0.7s0,0.5,0,0.7s0,0.5,0,0.7s0,0.5,0,0.7s0,0.5,0,0.7s0,0.4,0,0.6c0,0.1,0,0.3,0,0.4c0,0.1,0,0.3,0,0.4
							c0,0.1,0,0.3,0,0.4c0,0.1,0,0.3,0,0.4s0,0.3,0,0.4c0,0.1,0,0.3,0,0.4c0,0.1,0,0.3,0,0.4c0,0.1,0,0.3,0,0.4
							c-3.7-4.6-13.1-17.9-13.9-33.2c0-0.7-0.4-1.3-0.9-1.7C49.3,373.4,48.8,373.1,48.2,372.8z"/>
					</defs>
					<clipPath id="SVGID_00000170256788733018821050000008006269926453951904_">
						<use xlink:href="#SVGID_00000166637592538706459110000013685486182418481845_"  style="overflow:visible;"/>
					</clipPath>
					<g style="clip-path:url(#SVGID_00000170256788733018821050000008006269926453951904_);enable-background:new    ;">
						<path class="st8" d="M65.4,400.9v8.7c-2.8-3.4-13.8-17.6-14.7-34.2c0-0.7-0.4-1.3-0.9-1.7c-0.7-0.6-1.6-1-2.5-1.4v-8.7
							c0.8,0.4,1.8,0.8,2.5,1.4c0.5,0.4,0.8,1,0.9,1.7C51.5,383.3,62.5,397.5,65.4,400.9"/>
					</g>
				</g>
			</g>
			<g class="st0">
				<g>
					<defs>
						<path id="SVGID_00000015322666786288783540000010732740009331882384_" d="M49.6,366.8v8.7c-1.8-1.8-2.8-2.2-3.7-2.7
							c-0.6-0.3-1.1-0.7-1.5-1.3s-0.6-1.2-0.7-1.8s-0.4-1-0.7-1.4v-8.7c0.3,0.3,0.5,0.8,0.7,1.4s0.4,1.2,0.7,1.8
							c0.4,0.6,0.9,1,1.5,1.3C46.8,364.6,47.8,365,49.6,366.8z"/>
					</defs>
					<clipPath id="SVGID_00000129200270604752749590000009099647949478043042_">
						<use xlink:href="#SVGID_00000015322666786288783540000010732740009331882384_"  style="overflow:visible;"/>
					</clipPath>
					<g style="clip-path:url(#SVGID_00000129200270604752749590000009099647949478043042_);enable-background:new    ;">
						<path class="st2" d="M49.6,366.8v8.7c-1.8-1.8-2.8-2.2-3.7-2.7c-0.6-0.3-1.1-0.7-1.5-1.3s-0.6-1.2-0.7-1.8s-0.4-1-0.7-1.4
							v-8.7c0.3,0.3,0.5,0.8,0.7,1.4s0.4,1.2,0.7,1.8c0.4,0.6,0.9,1,1.5,1.3C46.8,364.6,47.8,365,49.6,366.8"/>
					</g>
				</g>
			</g>
			<g>
				<polygon class="st82" points="74.6,356.9 74.6,365.6 65.4,409.6 65.4,400.9 				"/>
			</g>
			<g class="st0">
				<g>
					<defs>
						<path id="SVGID_00000096054444578513714210000014545868674230492298_" d="M64.5,408.6c0-0.1,0-0.3,0-0.4c0-0.1,0-0.3,0-0.4
							c0-0.1,0-0.3,0-0.4c0-0.1,0-0.3,0-0.4s0-0.3,0-0.4c0-0.1,0-0.3,0-0.4c0-0.1,0-0.3,0-0.4c0-0.1,0-0.3,0-0.4c0-0.2,0-0.4,0-0.6
							c0-0.2,0-0.5,0-0.7s0-0.5,0-0.7s0-0.5,0-0.7s0-0.5,0-0.7s0-0.5,0-0.7s0-0.5,0-0.7s0-0.4,0-0.6c0.3,0.4,0.6,0.7,0.8,1v8.7
							C65.1,409.3,64.9,409,64.5,408.6z"/>
					</defs>
					<clipPath id="SVGID_00000168096076961600920680000017070746562986369717_">
						<use xlink:href="#SVGID_00000096054444578513714210000014545868674230492298_"  style="overflow:visible;"/>
					</clipPath>
					<g style="clip-path:url(#SVGID_00000168096076961600920680000017070746562986369717_);enable-background:new    ;">
						<path class="st8" d="M65.4,400.9v8.7c-2.8-3.4-13.8-17.6-14.7-34.2c0-0.7-0.4-1.3-0.9-1.7c-0.7-0.6-1.6-1-2.5-1.4v-8.7
							c0.8,0.4,1.8,0.8,2.5,1.4c0.5,0.4,0.8,1,0.9,1.7C51.5,383.3,62.5,397.5,65.4,400.9"/>
					</g>
				</g>
			</g>
			<g>
				<path class="st84" d="M260.1,187.1c-2,6.7-5,9.5-8.1,11.6s-6.3,3.6-9,7.6c-3.4,4.8-4.9,8.8-6.2,12.4c-1.4,3.6-2.6,6.8-5.6,9.9
					c-2,2.1-4.7,4.1-8.7,6.1c-5,2.6-8.5,3.5-11.4,4.4s-5.2,1.6-8.1,3.8c-1.9,1.5-4.1,3.6-6.7,6.8c-2.9,3.4-4.3,6.8-5.9,10.2
					c-1.5,3.4-3.1,6.9-6.3,10.4c-4.4,5.1-7.6,6.9-11.2,8.3c-3.5,1.4-7.3,2.3-13.3,5.8c-2,1.2-4.5,1.5-6.9,1.8
					c-2.4,0.4-4.5,0.8-5.8,1.9c-0.6,0.5-1,1.1-1.2,1.9c-0.2,0.7-0.3,1.5-0.3,2.3c0,1.6,0.3,3.4,0.3,4.9c0,0.5,0,1.1-0.2,1.5
					c-0.1,0.5-0.4,0.9-0.8,1.2c-14.4,11.6-25.1,21.2-42.3,33.9c-5,3.7-9.6,5.8-13.5,7.7c-3.9,2-7.1,3.8-9.6,6.9
					c-1.6,2.1-3,4.8-3.9,8.7l-9.4,45c-0.9,0.2-15.4-15.8-16.5-35.3c-1.8-1.8-2.8-2.2-3.7-2.7c-0.6-0.3-1.1-0.7-1.5-1.3
					s-0.6-1.2-0.7-1.8c-0.2-0.6-0.4-1-0.7-1.4c-1.7-3.2-1.6-5.1-1.6-6.9c0-4.4-0.8-7.9-1.8-11.5s-2.2-7.2-3.1-11.9
					c-0.6-0.2-1.2-0.3-1.8-0.3c-0.7,0-1.4,0.1-2.1,0.1c-0.9,0-1.9-0.1-2.8-0.7c-1.4-2.2-1.9-3.6-2.2-4.5c-0.3-1-0.4-1.5-0.6-2
					c-0.2-0.3-0.4-0.6-0.9-1.1c-0.6-0.6-1.7-1.4-3.5-2.7c-0.3-2.3-0.3-4.2-0.3-6.1c0-9.8,0.6-19.8,0.6-29.6c0-1.2,0-2.5,0-3.7
					c-0.9-0.3-1.4-0.4-1.8-0.4c-0.9-0.1-2-0.1-3-0.1c-0.6,0-1.2-0.1-1.7-0.2c-0.8-0.7-1-1.4-1-2c0-0.7,0.2-1.3,0.3-2
					c0.1-0.6,0.3-1.2,0.3-1.8c-1.1-0.9-1.8-0.9-2.6-0.9c-2.4,0-4.4-0.4-6-1.1s-2.9-1.7-3.8-3c-1.9-2.6-2.5-6.1-2.5-10
					c0-8.6,3.1-19.4,3.7-26.9c14.2-5.3,27-8.8,37.8-13.3c10.9-4.5,19.8-10.2,26.2-19.5c4.2-6.2,7.3-14,9-24.2
					c3.1-18.4,5.3-38.8,5.3-60.5c0-15.6-1.1-31.8-3.9-48.4l8.4-9.4l-3.6-17.2L71.6,30l0.9-8.8l34-21.8l11.3,2.8l2.6,8.7l8.8,9.3
					l12.4,1.2l17-5.3l20.6-7.7l32.3,3.5v13.7l8.8,12.7l7.3,9.4l-0.6,9c0,15.1-3.4,37-3.4,59.6c0,21.3,3,43.1,14.7,59.6
					c1.5,0.3,2.4,0.2,3.2,0.2c4.4,0,8.2,1.7,12.2,1.7c0.5,0,1,0,1.5-0.1c0.5,2.4,0.8,3.4,1.1,4.4
					C257.8,183.7,258.9,185.6,260.1,187.1z M251.4,197.9c3-2,5.7-4.5,7.8-10.4c-0.2-0.3-0.4-0.6-0.6-0.9c0.1,0.3,0.2,0.7,0.2,1.1
					l-4.6-7.7c1-0.6,1-1,1-1.3c-5.4-0.1-9.1-1.7-13.2-1.7c-0.8,0-1.5,0-2.2,0.2c-13.7-17.2-16.7-39.4-16.7-60.9
					c0-22.7,3.4-44.7,3.4-59l0.7-9.2l-7.2-9.3L211.1,26l0.3-13.2l-31.5-3.5L159.4,17l-17.2,5.3l-12.9-1.2l-9.3-9.6l-2.3-8.4
					l-10.4-2.7L73.9,21.6l-1,7.8l12.2,7.7l3.9,18l-8.4,9.4c2.8,16.6,3.9,32.8,3.9,48.4c0,21.8-2.2,42.3-5.3,60.7
					c-1.7,10.3-4.9,18.3-9.2,24.6c-4.3,6.3-9.9,11-16.3,14.8c-12.8,7.5-29.3,11.4-47.6,17.9c-0.7,7.6-3.7,18.2-3.7,26.5
					c0,2.9,0.4,5.4,1.3,7.5c0.9,2.1,2.3,3.7,4.5,4.6c1.5,0.6,3.3,1,5.6,1c0.8,0,1.6,0,2.5-0.1c0.9,0.7,1.1,1.4,1.1,2
					c0,0.7-0.2,1.3-0.3,2c-0.1,0.6-0.3,1.2-0.3,1.7s0.1,0.8,0.4,1.1c0.5,0.1,1.4,0.1,2.3,0.2c1,0,2.1,0,3,0.2
					c0.6,0.1,1.2,0.3,1.6,0.7c0.2,1.7,0.2,3,0.2,4.3c0,9.8-0.6,19.8-0.6,29.6c0,1.8,0,3.6,0.1,5.4c1.9,1.4,3,2.2,3.7,2.9
					c0.7,0.7,1,1.3,1.2,2c0.1,0.4,0.2,0.9,0.5,1.6c0.3,0.8,0.8,2,1.8,3.7c0.7,0.4,1.4,0.5,2.1,0.5c0.7,0,1.4-0.1,2.1-0.1
					c0.8,0,1.6,0.1,2.5,0.5c1.1,5.1,2.3,8.8,3.4,12.5c1,3.6,1.9,7.3,1.9,11.8c0,1.7-0.1,3.5-0.4,5.6c1,0.1,1.4,0.4,1.7,0.8
					c0.3,0.3,0.5,0.7,0.6,1.1c0.3,0.8,0.5,1.6,0.9,2.1c0.4,0.6,1.1,1,2,1.4c0.8,0.4,1.8,0.8,2.5,1.4c0.5,0.4,0.8,1,0.9,1.7
					c0.9,16.6,11.9,30.8,14.7,34.2l9.2-44c1-4,2.3-6.8,4.1-9.1c1.7-2.2,3.8-3.8,6.2-5.2c4.7-2.8,10.5-4.8,17.1-9.6
					c17.1-12.6,27.9-22.2,42.3-33.8c0.6-1.1,0.6-1.5,0.6-2c0-1.3-0.3-3.1-0.3-4.9c0-0.9,0.1-1.8,0.4-2.6c0.3-0.8,0.7-1.6,1.5-2.3
					c1.6-1.4,3.9-1.8,6.3-2.2c2.4-0.4,4.8-0.7,6.5-1.7c6-3.5,10-4.5,13.4-5.8c3.4-1.4,6.4-3,10.8-8c3-3.4,4.6-6.8,6.1-10.2
					c1.5-3.4,3.1-6.9,6-10.4c2.7-3.2,4.9-5.4,6.9-6.9s3.8-2.4,5.6-3.1c3.7-1.3,7.5-1.8,14-5.2c3.9-2,6.5-3.9,8.4-5.9s3-4,4-6.1
					c1.9-4.4,3.1-9.5,7.7-16.1C245,201.6,248.4,200,251.4,197.9"/>
			</g>
			<g>
				<path class="st85" d="M80,64.4l8.3-9l-3.5-18.1l-12.4-8.1l1-7.8l33.7-21.2l10.4,2.7l2.2,8.2l9.1,9.7l13,1.4l17.3-5.3l20.5-7.7
					l31.5,3.5l-0.4,12.9l9,13.1l7.2,9.3l-0.7,8.5c0,15-3.4,37-3.4,59.7c0,21.6,3.1,43.8,15.2,60.5c2.3,0.3,3,0.2,3.8,0.2
					c4.2,0,7.9,1.7,12.2,1.7c1,0.4,1.1,0.8,1.1,1.1l2.6,8.3c0.9-0.6,0.8-1,0.7-1.3c0.2,0.3,0.4,0.6,0.6,0.9
					c-2.1,5.9-4.8,8.3-7.8,10.4s-6.4,3.7-9.3,7.8c-4.6,6.6-5.8,11.7-7.7,16.1c-1,2.2-2.1,4.2-4,6.1s-4.5,3.9-8.4,5.9
					c-6.5,3.4-10.3,3.9-14,5.2c-1.8,0.7-3.6,1.5-5.6,3.1c-2,1.5-4.2,3.7-6.9,6.9c-3,3.5-4.5,7-6,10.4s-3.1,6.8-6.1,10.2
					c-4.4,5-7.3,6.7-10.8,8c-3.4,1.3-7.4,2.3-13.4,5.8c-1.7,1-4.2,1.3-6.5,1.7c-2.4,0.4-4.7,0.8-6.3,2.2c-0.7,0.6-1.2,1.4-1.5,2.3
					s-0.4,1.7-0.4,2.6c0,1.8,0.3,3.5,0.3,4.9c0,0.5,0,0.9-0.1,1.2c-14.9,12.3-25.6,22-42.7,34.6c-6.6,4.8-12.4,6.8-17.1,9.6
					c-2.4,1.4-4.5,3-6.2,5.2c-1.7,2.3-3.1,5.1-4.1,9.1l-9.2,44c-2.8-3.4-13.8-17.6-14.7-34.2c0-0.7-0.4-1.3-0.9-1.7
					c-0.7-0.6-1.6-1-2.5-1.4s-1.6-0.8-2-1.4c-0.4-0.6-0.6-1.3-0.9-2.1c-0.2-0.4-0.3-0.8-0.6-1.1c-0.3-0.3-0.7-0.6-1.2-0.8
					c-0.3-2-0.2-3.8-0.2-5.5c0-4.5-0.8-8.2-1.9-11.8c-1-3.7-2.3-7.3-3.1-12.1c-1.1-0.7-1.9-0.8-2.7-0.8c-0.7,0-1.4,0.1-2.1,0.1
					c-0.8,0-1.5-0.1-2.1-0.5c-1-1.7-1.5-2.9-1.8-3.7c-0.2-0.7-0.3-1.1-0.5-1.6c-0.2-0.7-0.5-1.3-1.2-2s-1.8-1.5-3.7-2.9
					c0-1.8-0.1-3.6-0.1-5.4c0-9.8,0.6-19.8,0.6-29.6c0-1.3,0-2.7,0-4c-0.6-0.7-1.2-0.9-1.8-1c-0.9-0.2-2-0.2-3-0.2
					c-0.9,0-1.8,0-2.3-0.2c-0.3-0.3-0.4-0.7-0.4-1.1c0-0.5,0.1-1.1,0.3-1.7c0.1-0.6,0.3-1.3,0.3-2c0-0.6-0.2-1.3-0.6-1.8
					c-1.3-0.1-2.2,0-2.9,0c-2.3,0-4.1-0.4-5.6-1c-2.2-1-3.6-2.5-4.5-4.6s-1.3-4.7-1.3-7.5c0-8.3,3-18.9,3.7-26.5l7.5-10.9l13-9
					l-2-12l8-10l10-19l1-15l4-26l0.3-4.2c0.3-3.7,4.8-5.3,7.3-2.5l3.4,3.7l1,7h8l4-8l-2-8l-8-16l3-14l8-10L80,64.4z"/>
			</g>
			<g>
				<polygon class="st4" points="75.6,357.1 75.6,365.8 66.1,410.8 66.1,402.1 				"/>
			</g>
			<g class="st0">
				<g>
					<defs>
						<path id="SVGID_00000105428567981820154200000000309438153553043339_" d="M66.1,402.1v8.7c-0.9,0.2-15.4-15.8-16.5-35.3v-8.7
							C50.7,386.3,65.2,402.3,66.1,402.1z"/>
					</defs>
					<clipPath id="SVGID_00000026844649374592344470000011759838749487411085_">
						<use xlink:href="#SVGID_00000105428567981820154200000000309438153553043339_"  style="overflow:visible;"/>
					</clipPath>
					<g style="clip-path:url(#SVGID_00000026844649374592344470000011759838749487411085_);enable-background:new    ;">
						<path class="st2" d="M66.1,402.1v8.7c-0.9,0.2-15.4-15.8-16.5-35.3v-8.7C50.7,386.3,65.2,402.3,66.1,402.1"/>
					</g>
				</g>
			</g>
		</g>
	</g>
</g>
<path class="st87" d="M24,314.9c4.3-7.6,23.8-19.7,32.7-21.8c0.2,0.3,1.1,1.8,1.3,1.9c0,0.7-0.1,0.7-0.1,0c1.7-4.5,0.1-9.4,3.1-13.2
	c5,5.3,0.5,20.3,11.1,20.2c12.8-0.2,6.3-30.4,6.1-37.9c4-0.9,7.8-0.4,10.8,2c2.9-1.5,4.6-4,7.4-5.7c1.5-0.9,2-3.5,3.6-4.5
	c1.4-0.9,4.4,0.8,6-0.1c5.1-2.6,7.3-8.4,9.7-12.7c10.6-18.8,8-40.8,12.3-51.5"/>
<path class="st87" d="M67.5,131.9c6.5,18,9.1,15.9,14.7,29.4c3.9,9.3,11.1-0.3,19.6,1.6c7.4,1.6,7.8,16.9,8.2,23.7
	c0.6,9.9,13-6.4,15.5,3.3c2.3,8.7,10.6-0.8,18,0.8c2.7,0.6-3.5-0.1-1.6,0.8c4.1,2,5.5-0.9,9,0c3.4,0.9,8.4,0.9,12.3,1.6
	c3.2,0.6,8.5-0.2,12.3,0c16.4,0.9,26.7-3.7,41.6-8.3c7.4-2.3,19.5,0,23-8"/>
</svg>
