<?xml version="1.0" encoding="utf-8"?>
<!-- Generator: Adobe Illustrator 25.4.1, SVG Export Plug-In . SVG Version: 6.00 Build 0)  -->
<svg version="1.1" id="Layer_1" xmlns="http://www.w3.org/2000/svg" xmlns:xlink="http://www.w3.org/1999/xlink" x="0px" y="0px"
	 viewBox="0 0 335.3 365.9" style="enable-background:new 0 0 335.3 365.9;" xml:space="preserve">
<style type="text/css">
	.st0{enable-background:new    ;}
	.st1{fill:#3F3F3F;}
	.st2{fill:#808080;}
	.st3{fill:#929292;}
	.st4{fill:#404041;}
	.st5{fill:#404040;}
	.st6{fill:#8C8C8C;}
	.st7{fill:#868686;}
	.st8{fill:#3F3F40;}
	.st9{fill:#888888;}
	.st10{fill:#3F4040;}
	.st11{clip-path:url(#SVGID_00000001654179262000766830000006464147630679075983_);enable-background:new    ;}
	.st12{fill:#858585;}
	.st13{fill:#8A8A8A;}
	.st14{fill:#8F8F8F;}
	.st15{fill:#949494;}
	.st16{clip-path:url(#SVGID_00000011733462072538237490000010808011963611928466_);enable-background:new    ;}
	.st17{clip-path:url(#SVGID_00000070106487663259301670000000748405370412214432_);enable-background:new    ;}
	.st18{fill:#898989;}
	.st19{fill:#878787;}
	.st20{clip-path:url(#SVGID_00000031203680462605060110000003248141952513586077_);enable-background:new    ;}
	.st21{clip-path:url(#SVGID_00000066486746229480910020000004046642666590261647_);enable-background:new    ;}
	.st22{clip-path:url(#SVGID_00000082370228381435499560000004983881607189325489_);enable-background:new    ;}
	.st23{fill:#464646;}
	.st24{fill:#E5E5E5;}
	.st25{fill:#8D8D8D;}
	.st26{fill:#919191;}
	.st27{fill:#818181;}
	.st28{fill:none;stroke:#000000;stroke-miterlimit:10;stroke-dasharray:2.6635,2.6635;}
	.st29{fill:#249EBA;stroke:#000000;stroke-miterlimit:10;}
	.st30{fill:none;stroke:#000000;stroke-linecap:round;stroke-miterlimit:10;}
</style>
<g>
	<g>
		<g class="st0">
			<g>
				<polygon class="st1" points="270,0.9 270,9.6 252.9,11.9 252.9,3.2 				"/>
			</g>
			<g>
				<polygon class="st1" points="280.7,3.9 280.7,12.6 270,9.6 270,0.9 				"/>
			</g>
			<g>
				<polygon class="st1" points="252.9,3.2 252.9,11.9 229.5,18.8 229.5,10.1 				"/>
			</g>
			<g>
				<polygon class="st1" points="229.5,10.1 229.5,18.8 211.6,18 211.6,9.3 				"/>
			</g>
			<g>
				<polygon class="st1" points="211.6,9.3 211.6,18 198.4,21.1 198.4,12.4 				"/>
			</g>
			<g>
				<polygon class="st1" points="292.3,13.1 292.3,21.8 280.7,12.6 280.7,3.9 				"/>
			</g>
			<g>
				<polygon class="st1" points="198.4,12.4 198.4,21.1 185.6,23.3 185.6,14.6 				"/>
			</g>
			<g>
				<polygon class="st1" points="308.6,23.8 308.6,32.5 292.3,21.8 292.3,13.1 				"/>
			</g>
			<g>
				<polygon class="st1" points="319.4,36 319.4,44.7 308.6,32.5 308.6,23.8 				"/>
			</g>
			<g>
				<polygon class="st2" points="187.1,38.7 187.1,47.4 185.6,23.3 185.6,14.6 				"/>
			</g>
			<g>
				<polygon class="st1" points="186.1,38.8 186.1,47.5 184.5,22.5 184.5,13.8 				"/>
			</g>
			<g>
				<polygon class="st1" points="328.7,53.5 328.7,62.1 319.4,44.7 319.4,36 				"/>
			</g>
			<g>
				<polygon class="st3" points="328.7,53.5 328.7,62.1 327.2,83.5 327.2,74.8 				"/>
			</g>
			<g>
				<polygon class="st4" points="329.7,53.3 329.7,61.9 328.2,83.6 328.2,74.9 				"/>
			</g>
			<g>
				<polygon class="st4" points="328.2,74.9 328.2,83.6 326.6,101.1 326.6,92.4 				"/>
			</g>
			<g>
				<polygon class="st3" points="327.2,74.8 327.2,83.5 325.6,101.2 325.6,92.5 				"/>
			</g>
			<g>
				<polygon class="st1" points="331.8,113.9 331.8,122.6 325.6,101.2 325.6,92.5 				"/>
			</g>
			<g>
				<polygon class="st5" points="187.1,97.2 187.1,105.9 177.8,122.8 177.8,114.1 				"/>
			</g>
			<g>
				<polygon class="st6" points="331.8,113.9 331.8,122.6 326.3,135 326.3,126.3 				"/>
			</g>
			<g>
				<polygon class="st5" points="332.9,114 332.9,122.7 327.4,134.9 327.4,126.2 				"/>
			</g>
			<g>
				<polygon class="st2" points="179.3,139.9 179.3,148.6 177.8,122.8 177.8,114.1 				"/>
			</g>
			<g>
				<polygon class="st1" points="178.3,140.1 178.3,148.8 176.8,122.6 176.8,113.9 				"/>
			</g>
			<g>
				<polygon class="st1" points="334.9,141 334.9,149.6 326.3,135 326.3,126.3 				"/>
			</g>
			<g>
				<polygon class="st3" points="334.9,141 334.9,149.6 334.2,159.3 334.2,150.6 				"/>
			</g>
			<g>
				<polygon class="st4" points="336,140.7 336,149.4 335.2,159.7 335.2,151 				"/>
			</g>
			<g>
				<polygon class="st2" points="185.5,152.1 185.5,160.8 179.3,148.6 179.3,139.9 				"/>
			</g>
			<g>
				<polygon class="st1" points="184.6,152.6 184.6,161.3 178.3,148.8 178.3,140.1 				"/>
			</g>
			<g>
				<polygon class="st7" points="334.2,150.6 334.2,159.3 327.2,167.8 327.2,159.1 				"/>
			</g>
			<g>
				<polygon class="st8" points="335.2,151 335.2,159.7 328.2,168.1 328.2,159.4 				"/>
			</g>
			<g>
				<polygon class="st2" points="201.1,170.6 201.1,179.3 185.5,160.8 185.5,152.1 				"/>
			</g>
			<g>
				<polygon class="st1" points="200.1,170.9 200.1,179.6 184.6,161.3 184.6,152.6 				"/>
			</g>
			<g>
				<polygon class="st1" points="200.2,186.2 200.2,194.9 200.1,179.6 200.1,170.9 				"/>
			</g>
			<g>
				<polygon class="st9" points="327.2,175.2 327.2,183.9 318.9,195 318.9,186.3 				"/>
			</g>
			<g>
				<polygon class="st10" points="328.2,175.5 328.2,184.2 319.3,196.1 319.3,187.5 				"/>
			</g>
			<g class="st0">
				<g>
					<defs>
						<path id="SVGID_1_" d="M314.5,195.7c-0.4,0.4-0.5,1-0.5,1.7v-8.7c0-0.7,0.2-1.2,0.5-1.7c0.6-0.7,1.6-1,2.6-1
							c0.7,0,1.4,0.1,1.8,0.2v8.7c-0.4-0.1-1.1-0.2-1.8-0.2C316.1,194.8,315.1,195,314.5,195.7z"/>
					</defs>
					<clipPath id="SVGID_00000039851250609836487720000003077433771768345260_">
						<use xlink:href="#SVGID_1_"  style="overflow:visible;"/>
					</clipPath>
					<g style="clip-path:url(#SVGID_00000039851250609836487720000003077433771768345260_);enable-background:new    ;">
						<path class="st12" d="M318.9,186.3v8.7c-0.4-0.1-1.1-0.2-1.8-0.2c-0.9,0-2,0.2-2.6,1l0,0v-8.7l0,0c0.6-0.7,1.6-1,2.6-1
							C317.8,186.1,318.5,186.2,318.9,186.3"/>
						<path class="st13" d="M314.5,187.1v8.7c-0.1,0.1-0.2,0.3-0.3,0.4v-8.7C314.3,187.4,314.4,187.2,314.5,187.1"/>
						<path class="st14" d="M314.2,187.5v8.7c-0.1,0.2-0.1,0.3-0.2,0.5V188C314.1,187.9,314.1,187.7,314.2,187.5"/>
						<path class="st15" d="M314,188.1v8.7c0,0.2-0.1,0.4-0.1,0.7v-8.7C314,188.5,314,188.3,314,188.1"/>
					</g>
				</g>
			</g>
			<g class="st0">
				<g>
					<defs>
						<path id="SVGID_00000143579188405215633120000003423314828089948046_" d="M315,197.4v-8.7c0-0.4,0.1-0.8,0.3-1
							c0.4-0.5,1.1-0.6,1.8-0.6c0.7,0,1.5,0.2,2.2,0.4v8.7c-0.7-0.2-1.5-0.4-2.2-0.4s-1.4,0.1-1.8,0.6
							C315.1,196.6,315,197,315,197.4z"/>
					</defs>
					<clipPath id="SVGID_00000150062364562484751730000015908947270935287972_">
						<use xlink:href="#SVGID_00000143579188405215633120000003423314828089948046_"  style="overflow:visible;"/>
					</clipPath>
					<g style="clip-path:url(#SVGID_00000150062364562484751730000015908947270935287972_);enable-background:new    ;">
						<path class="st8" d="M319.3,187.5v8.7c-0.7-0.2-1.5-0.4-2.2-0.4s-1.4,0.1-1.8,0.6l0,0v-8.7l0,0c0.4-0.5,1.1-0.6,1.8-0.6
							C317.8,187.1,318.6,187.2,319.3,187.5"/>
						<path class="st10" d="M315.3,187.7v8.7c-0.1,0.1-0.1,0.2-0.1,0.2v-8.7C315.2,187.8,315.2,187.8,315.3,187.7"/>
						<path class="st5" d="M315.1,187.9v8.7c0,0.1-0.1,0.2-0.1,0.3v-8.7C315.1,188.1,315.1,188,315.1,187.9"/>
						<path class="st4" d="M315,188.2v8.7c0,0.1,0,0.3,0,0.5v-8.7C315,188.6,315,188.4,315,188.2"/>
					</g>
				</g>
			</g>
			<g class="st0">
				<g>
					<defs>
						<path id="SVGID_00000062162284898263072370000013014749610870718885_" d="M314,197.4v-8.7c0,1.1,0.5,2.6,1.6,4.5v8.7
							C314.5,200.1,314,198.6,314,197.4z"/>
					</defs>
					<clipPath id="SVGID_00000138536863220342632030000013432253730300444060_">
						<use xlink:href="#SVGID_00000062162284898263072370000013014749610870718885_"  style="overflow:visible;"/>
					</clipPath>
					<g style="clip-path:url(#SVGID_00000138536863220342632030000013432253730300444060_);enable-background:new    ;">
						<path class="st8" d="M315.5,193.3v8.7c-1-1.9-1.6-3.4-1.6-4.5v-8.7C314,189.9,314.5,191.4,315.5,193.3"/>
					</g>
				</g>
			</g>
			<g>
				<polygon class="st1" points="320.2,201.7 320.2,210.3 315.5,201.9 315.5,193.3 				"/>
			</g>
			<g>
				<polygon class="st1" points="322.6,207.1 322.6,215.8 320.2,210.3 320.2,201.7 				"/>
			</g>
			<g>
				<polygon class="st2" points="205.8,208.9 205.8,217.6 201.1,194.8 201.1,186.1 				"/>
			</g>
			<g>
				<polygon class="st1" points="204.8,209.4 204.8,218 200.2,194.9 200.2,186.2 				"/>
			</g>
			<g>
				<polygon class="st1" points="327.9,215.4 327.9,224.1 322.6,215.8 322.6,207.1 				"/>
			</g>
			<g>
				<polygon class="st2" points="218.3,224.3 218.3,233 205.8,217.6 205.8,208.9 				"/>
			</g>
			<g>
				<polygon class="st1" points="217.3,224.7 217.3,233.3 204.8,218 204.8,209.4 				"/>
			</g>
			<g>
				<polygon class="st18" points="327.9,225.1 327.9,233.8 317.9,249.8 317.9,241.1 				"/>
			</g>
			<g>
				<polygon class="st10" points="328.9,225.4 328.9,234.1 318.7,250.3 318.7,241.6 				"/>
			</g>
			<g>
				<polygon class="st19" points="317.9,241.1 317.9,249.8 309.9,260 309.9,251.3 				"/>
			</g>
			<g>
				<polygon class="st8" points="318.7,241.6 318.7,250.3 311.1,260 311.1,251.4 				"/>
			</g>
			<g>
				<polygon class="st1" points="317.9,262.4 317.9,271.1 309.9,260 309.9,251.3 				"/>
			</g>
			<g>
				<polygon class="st1" points="324.2,267 324.2,275.7 317.9,271.1 317.9,262.4 				"/>
			</g>
			<g class="st0">
				<g>
					<defs>
						<path id="SVGID_00000142866916719756068470000016528101541771184048_" d="M324.7,271.7v8.7c0-3.5-0.5-4.4-0.6-4.6V267
							C324.3,267.2,324.7,268.2,324.7,271.7z"/>
					</defs>
					<clipPath id="SVGID_00000171710317653402815990000010989005635087330970_">
						<use xlink:href="#SVGID_00000142866916719756068470000016528101541771184048_"  style="overflow:visible;"/>
					</clipPath>
					<g style="clip-path:url(#SVGID_00000171710317653402815990000010989005635087330970_);enable-background:new    ;">
						<path class="st8" d="M324.7,271.7v8.7c0-3.5-0.5-4.4-0.6-4.6V267C324.3,267.2,324.7,268.2,324.7,271.7"/>
					</g>
				</g>
			</g>
			<g class="st0">
				<g>
					<defs>
						<path id="SVGID_00000047746344743972476600000009454656790257744792_" d="M324,289.9c0-2.9,0-5.8,0-8.7
							c0.5-4.4,0.7-7.4,0.7-9.6v8.7C324.7,282.5,324.6,285.5,324,289.9z"/>
					</defs>
					<clipPath id="SVGID_00000110470833342689634250000007464514483244629432_">
						<use xlink:href="#SVGID_00000047746344743972476600000009454656790257744792_"  style="overflow:visible;"/>
					</clipPath>
					<g style="clip-path:url(#SVGID_00000110470833342689634250000007464514483244629432_);enable-background:new    ;">
						<path class="st15" d="M324.7,271.7v8.7c0,2.1-0.2,5.2-0.7,9.6v-8.7C324.6,276.8,324.7,273.8,324.7,271.7"/>
					</g>
				</g>
			</g>
			<g class="st0">
				<g>
					<defs>
						<path id="SVGID_00000159448284653746245890000015811412860201218450_" d="M325.7,271.7v8.7c0,2.2-0.2,5.3-0.7,9.6v-8.7
							C325.6,277,325.7,273.9,325.7,271.7z"/>
					</defs>
					<clipPath id="SVGID_00000004545260359363767200000002828713738406627003_">
						<use xlink:href="#SVGID_00000159448284653746245890000015811412860201218450_"  style="overflow:visible;"/>
					</clipPath>
					<g style="clip-path:url(#SVGID_00000004545260359363767200000002828713738406627003_);enable-background:new    ;">
						<path class="st4" d="M325.7,271.7v8.7c0,2.2-0.2,5.3-0.7,9.6v-8.7C325.6,277,325.7,273.9,325.7,271.7"/>
					</g>
				</g>
			</g>
			<g>
				<polygon class="st3" points="324,281.2 324,289.9 322.5,303 322.5,294.3 				"/>
			</g>
			<g>
				<polygon class="st4" points="325,281.3 325,290 323.5,303.1 323.5,294.4 				"/>
			</g>
			<g>
				<polygon class="st4" points="218.3,276.7 218.3,285.4 216.7,317.8 216.7,309.1 				"/>
			</g>
			<g>
				<polygon class="st1" points="323.3,316.6 323.3,325.3 322.5,303 322.5,294.3 				"/>
			</g>
			<g>
				<polygon class="st8" points="216.7,309.1 216.7,317.8 205.7,327.1 205.7,318.4 				"/>
			</g>
			<g>
				<polygon class="st10" points="205.7,318.4 205.7,327.1 196.6,340.5 196.6,331.8 				"/>
			</g>
			<g>
				<polygon class="st1" points="324,337.3 324,346 323.3,325.3 323.3,316.6 				"/>
			</g>
			<g>
				<polygon class="st2" points="216.4,346.8 216.4,355.5 196.6,340.5 196.6,331.8 				"/>
			</g>
			<g>
				<rect x="216.4" y="346.8" class="st2" width="37.3" height="8.7"/>
			</g>
			<g>
				<rect x="216.1" y="347.8" class="st1" width="37.5" height="8.7"/>
			</g>
			<g>
				<polygon class="st1" points="216.1,347.8 216.1,356.5 195.3,340.7 195.3,332 				"/>
			</g>
			<g>
				<polygon class="st4" points="325,337.3 325,346 324.3,356.5 324.3,347.8 				"/>
			</g>
			<g>
				<polygon class="st3" points="324,337.3 324,346 323.2,357 323.2,348.3 				"/>
			</g>
			<g>
				<polygon class="st1" points="331.6,353.8 331.6,362.5 323.2,357 323.2,348.3 				"/>
			</g>
			<g>
				<polygon class="st2" points="331.6,353.8 331.6,362.5 292.6,364.7 292.6,356 				"/>
			</g>
			<g>
				<polygon class="st2" points="292.6,356 292.6,364.7 253.7,355.5 253.7,346.8 				"/>
			</g>
			<g>
				<path class="st23" d="M327.4,126.2l8.5,14.5l-0.8,10.3l-7,8.4v16.1l-8.9,11.9c-0.7-0.2-1.5-0.4-2.2-0.4s-1.4,0.1-1.8,0.6
					c-0.7,0.8-0.3,2.6,1.1,5.1l4.7,8.4l2.4,5.4l5.5,8.5v10.3l-10.2,16.2l-7.6,9.7l7.5,10.4l6.2,4.6c0.3,0.3,1.7,2.4,0.2,15l-1.6,13
					l0.8,22.2l0.8,20.7l-0.8,10.5l10.4,6.8l-42.1,2.4l-39-9.2H216L195.3,332l9.7-14.3l10.7-9.1l1.5-32v-52l-12.4-15.3l-4.7-23.1
					v-15.3l-15.5-18.4l-6.3-12.5l-1.6-26.2l9.4-16.9V38.7l-1.6-25l13.7-2.4l13.3-3.1L229.4,9l23.3-6.9L270-0.2L281.2,3l11.7,9.2
					L309.3,23l11,12.4l9.4,17.8l-1.6,21.6l-1.6,17.6l6.3,21.6L327.4,126.2z M334.2,150.6l0.8-9.7l-8.6-14.7l5.5-12.3l-6.2-21.4
					l1.6-17.7l1.5-21.3L319.5,36l-10.8-12.2l-16.3-10.7l-11.6-9.2l-10.7-3l-17,2.3l-23.4,6.9l-17.9-0.8l-13.2,3l-12.8,2.2l1.5,24.1
					v58.5L178,114l1.5,25.9l6.2,12.1l15.7,18.5V186l4.6,22.8l12.5,15.4v52.4l-1.6,32.5l-11,9.3l-9.1,13.4l19.8,15h37.3l38.9,9.2
					l39-2.2l-8.4-5.5l0.8-11l-0.8-20.7l-0.8-22.3l1.6-13.1c1.4-11.5,0.3-13.9,0.1-14.2l-6.3-4.7l-8-11l8-10.3l10-16v-9.7l-5.4-8.3
					l-2.4-5.4l-4.7-8.4c-1.7-3-2-5-1-6.2c0.6-0.7,1.6-1,2.6-1c0.7,0,1.4,0.1,1.8,0.2l8.3-11.1V159L334.2,150.6"/>
			</g>
			<g>
				<path class="st24" d="M270,0.9l10.7,3l11.6,9.2l16.3,10.7L319.4,36l9.3,17.5l-1.5,21.3l-1.6,17.7l6.2,21.4l-5.5,12.3l8.6,14.7
					l-0.8,9.7l-7,8.5v16.1l-8.3,11.1c-0.4-0.1-1.1-0.2-1.8-0.2c-0.9,0-2,0.2-2.6,1c-1,1.2-0.6,3.2,1,6.2l4.7,8.4l2.4,5.4l5.4,8.3
					v9.7l-10,16l-8,10.3l8,11l6.3,4.7c0.2,0.3,1.2,2.7-0.1,14.2l-1.6,13.1l0.8,22.3l0.8,20.7l-0.8,11l8.4,5.5l-39,2.2l-38.9-9.2
					h-37.3l-19.8-15l9.1-13.4l11-9.3l1.6-32.5v-52.4l-12.5-15.4l-4.6-22.8v-15.5l-15.7-18.5l-6.2-12.1l-1.5-25.9l9.3-16.8l0.1-58.6
					l-1.5-24.1l12.8-2.2l13.2-3l17.9,0.8l23.5-6.9L270,0.9z"/>
			</g>
			<g>
				<polygon class="st1" points="334.6,354.6 334.6,363.3 292.5,365.7 292.5,357 				"/>
			</g>
			<g>
				<polygon class="st1" points="292.5,357 292.5,365.7 253.6,356.5 253.6,347.8 				"/>
			</g>
		</g>
	</g>
</g>
<g>
	<g>
		<g class="st0">
			<g>
				<polygon class="st1" points="44.3,64.8 44.3,73.5 24.6,67.5 24.6,58.8 				"/>
			</g>
			<g>
				<polygon class="st1" points="24.6,58.8 24.6,67.5 12.5,74.9 12.5,66.3 				"/>
			</g>
			<g>
				<polygon class="st1" points="105.5,63.5 105.5,72.2 85.6,81.2 85.6,72.5 				"/>
			</g>
			<g>
				<polygon class="st1" points="45.9,75.4 45.9,84.1 44.3,73.5 44.3,64.8 				"/>
			</g>
			<g>
				<polygon class="st1" points="124.1,80.3 124.1,88.9 105.5,72.2 105.5,63.5 				"/>
			</g>
			<g>
				<polygon class="st1" points="158.1,83.3 158.1,92 124.1,88.9 124.1,80.3 				"/>
			</g>
			<g>
				<polygon class="st8" points="85.6,72.5 85.6,81.2 73.1,95.1 73.1,86.4 				"/>
			</g>
			<g>
				<polygon class="st1" points="60.2,88 60.2,96.6 45.9,84.1 45.9,75.4 				"/>
			</g>
			<g>
				<polygon class="st1" points="73.1,86.4 73.1,95.1 60.2,96.6 60.2,88 				"/>
			</g>
			<g>
				<polygon class="st4" points="12.5,66.3 12.5,74.9 9.5,99.1 9.5,90.4 				"/>
			</g>
			<g>
				<polygon class="st2" points="20.1,103.9 20.1,112.6 9.5,99.1 9.5,90.4 				"/>
			</g>
			<g>
				<polygon class="st1" points="19.6,104.8 19.6,113.5 8.4,99.3 8.4,90.7 				"/>
			</g>
			<g>
				<polygon class="st2" points="35.8,107 35.8,115.6 20.1,112.6 20.1,103.9 				"/>
			</g>
			<g>
				<polygon class="st1" points="161.2,107.3 161.2,116 158.1,92 158.1,83.3 				"/>
			</g>
			<g>
				<polygon class="st1" points="35.1,107.8 35.1,116.5 19.6,113.5 19.6,104.8 				"/>
			</g>
			<g>
				<polygon class="st2" points="42.2,118.1 42.2,126.8 35.8,115.6 35.8,107 				"/>
			</g>
			<g>
				<polygon class="st1" points="41.1,118.2 41.1,126.9 35.1,116.5 35.1,107.8 				"/>
			</g>
			<g>
				<polygon class="st25" points="161.2,107.3 161.2,116 151.9,138.9 151.9,130.2 				"/>
			</g>
			<g>
				<polygon class="st5" points="162.2,107.5 162.2,116.1 152.7,139.4 152.7,130.7 				"/>
			</g>
			<g>
				<polygon class="st5" points="42.2,118.1 42.2,126.8 35.9,145.4 35.9,136.7 				"/>
			</g>
			<g>
				<polygon class="st9" points="151.9,130.2 151.9,138.9 134.7,161.9 134.7,153.3 				"/>
			</g>
			<g>
				<polygon class="st10" points="152.7,130.7 152.7,139.4 135.7,162.3 135.7,153.6 				"/>
			</g>
			<g>
				<polygon class="st5" points="35.9,136.7 35.9,145.4 26.6,163.8 26.6,155.1 				"/>
			</g>
			<g>
				<polygon class="st26" points="134.7,153.3 134.7,161.9 130,189.7 130,181 				"/>
			</g>
			<g>
				<polygon class="st4" points="135.7,153.6 135.7,162.3 131,189.8 131,181.1 				"/>
			</g>
			<g>
				<polygon class="st4" points="26.6,155.1 26.6,163.8 21.9,190 21.9,181.3 				"/>
			</g>
			<g>
				<polygon class="st8" points="21.9,181.3 21.9,190 10.9,200.8 10.9,192.2 				"/>
			</g>
			<g>
				<polygon class="st10" points="10.9,192.2 10.9,200.8 1.7,212.9 1.7,204.2 				"/>
			</g>
			<g>
				<polygon class="st2" points="94.8,215.8 94.8,224.5 78.8,229.2 78.8,220.5 				"/>
			</g>
			<g>
				<polygon class="st2" points="3.2,220.8 3.2,229.5 1.7,212.9 1.7,204.2 				"/>
			</g>
			<g>
				<polygon class="st1" points="2.2,221 2.2,229.7 0.6,212.6 0.6,204 				"/>
			</g>
			<g>
				<polygon class="st1" points="94.6,216.9 94.6,225.6 79.2,230.1 79.2,221.5 				"/>
			</g>
			<g>
				<polygon class="st1" points="134.7,222.4 134.7,231 130,189.7 130,181.1 				"/>
			</g>
			<g>
				<polygon class="st2" points="108.9,226.7 108.9,235.4 94.8,224.5 94.8,215.8 				"/>
			</g>
			<g>
				<polygon class="st1" points="108.4,227.5 108.4,236.2 94.6,225.6 94.6,216.9 				"/>
			</g>
			<g>
				<polygon class="st2" points="9.3,231.4 9.3,240.1 3.2,229.5 3.2,220.8 				"/>
			</g>
			<g>
				<polygon class="st1" points="8.6,232.1 8.6,240.7 2.2,229.7 2.2,221 				"/>
			</g>
			<g>
				<polygon class="st7" points="134.7,222.4 134.7,231 125.7,241.4 125.7,232.7 				"/>
			</g>
			<g>
				<polygon class="st2" points="125.7,232.7 125.7,241.4 108.9,235.4 108.9,226.7 				"/>
			</g>
			<g>
				<polygon class="st27" points="78.8,220.5 78.8,229.2 55.4,241.5 55.4,232.8 				"/>
			</g>
			<g>
				<polygon class="st1" points="79.2,221.5 79.2,230.1 55.9,242.4 55.9,233.7 				"/>
			</g>
			<g>
				<polygon class="st8" points="135.7,222.7 135.7,231.4 126,242.5 126,233.8 				"/>
			</g>
			<g>
				<polygon class="st1" points="126,233.8 126,242.5 108.4,236.2 108.4,227.5 				"/>
			</g>
			<g>
				<polygon class="st27" points="55.4,232.8 55.4,241.5 43.1,249.1 43.1,240.4 				"/>
			</g>
			<g>
				<rect x="23.1" y="240.4" class="st2" width="20" height="8.7"/>
			</g>
			<g>
				<polygon class="st2" points="23.1,240.4 23.1,249.1 9.3,240.1 9.3,231.4 				"/>
			</g>
			<g>
				<path class="st23" d="M152.7,130.7l-17.1,22.9L131,181l4.7,41.6l-9.7,11.2l-17.6-6.3l-13.8-10.6l-15.3,4.5L56,233.6l-12.6,7.7
					H22.8l-14.3-9.4l-6.4-11l-1.6-17.1l9.5-12.4l10.8-10.7l4.7-26.1l9.4-18.4l6.1-18.1l-6-10.4l-15.5-3.1L8.3,90.5l3.2-25l12.9-7.9
					l20.8,6.3l1.6,10.9l13.7,12l12.1-1.5l12.5-13.8l20.6-9.4l18.8,17l34.5,3.1l3.2,25.1L152.7,130.7z M130,181.1l4.7-27.8l17.2-23.1
					l9.3-22.8l-3.1-24l-34-3l-18.6-16.8l-19.9,9L73.1,86.5l-12.9,1.6L45.9,75.5l-1.5-10.6l-19.7-6l-12.1,7.4L9.5,90.4l10.7,13.5
					l15.6,3.1l6.5,11.1L36,136.7l-9.3,18.4L22,181.3l-11,10.8l-9.2,12.1l1.5,16.6l6.1,10.6l13.8,9.1h20l12.3-7.6l23.4-12.3l15.9-4.7
					l14.2,10.9l16.7,6l9-10.3L130,181.1"/>
			</g>
			<g>
				<polygon class="st24" points="24.6,58.8 44.3,64.8 45.9,75.4 60.2,88 73.1,86.4 85.6,72.5 105.5,63.5 124.1,80.3 158.1,83.3 
					161.2,107.3 151.9,130.2 134.7,153.3 130,181 134.7,222.4 125.7,232.7 108.9,226.7 94.8,215.8 78.8,220.5 55.4,232.8 
					43.1,240.4 23.1,240.4 9.3,231.4 3.2,220.8 1.7,204.2 10.9,192.2 21.9,181.3 26.6,155.1 35.9,136.7 42.2,118.1 35.8,107 
					20.1,103.9 9.5,90.4 12.5,66.3 				"/>
			</g>
			<g>
				<rect x="22.8" y="241.4" class="st1" width="20.6" height="8.7"/>
			</g>
			<g>
				<polygon class="st1" points="55.9,233.7 55.9,242.4 43.4,250.1 43.4,241.4 				"/>
			</g>
			<g>
				<polygon class="st1" points="22.8,241.4 22.8,250.1 8.6,240.7 8.6,232.1 				"/>
			</g>
		</g>
	</g>
</g>
<path class="st28" d="M218,226.9c2.6-1.9,19.1-2,25-3.2c9.6-2,18-3.8,27.7-4.8c12.9-1.3,22.7-1.1,34.7-4.9c7.6-2.4,16.4-2.8,21.6,5"
	/>
<path class="st28" d="M181,145.9c5.2-5.5,11.5-8.2,16.5-15c1.6-2.2,3.8-6.2,5.7-8c5-4.5,7.3-3.7,15.6-4.2c1.5-8.5,6.5-16,14.6-18.3
	c5.8-1.7,16.1,2.2,21.1-0.6c3.7-2,3.5-8.2,6.4-11c7.4-6.8,13.8,4.2,22,9.3c6.8,4.3,13.5,8,19.5,9.8c11,3.3,17.7,8.4,27.5,15"/>
<path class="st28" d="M69,86.9c-2.3,6.2-1.8,19.3,2.2,24.8c5,6.9,9.3,3.4,10.8,12.2c0.8,4.5-1.8,8.3-1,13c1.4,8,8.2,13.6,9.1,21.9
	c0.9,8.4-2,19.3,5.1,25.8c9.9,9,25.4,1.2,33.8,1.3"/>
<circle class="st29" cx="147.1" cy="95.7" r="6.2"/>
<g>
	<g>
		<line class="st30" x1="147.1" y1="95.8" x2="147.1" y2="64.1"/>
		<g>
			<path d="M150.8,95.7c0,2.1-1.7,3.8-3.8,3.8s-3.8-1.7-3.8-3.8s1.7-3.8,3.8-3.8C149.2,91.9,150.8,93.6,150.8,95.7z"/>
		</g>
	</g>
</g>
</svg>
