<?xml version="1.0" encoding="utf-8"?>
<!-- Generator: Adobe Illustrator 25.4.1, SVG Export Plug-In . SVG Version: 6.00 Build 0)  -->
<svg version="1.1" id="Layer_1" xmlns="http://www.w3.org/2000/svg" xmlns:xlink="http://www.w3.org/1999/xlink" x="0px" y="0px"
	 viewBox="0 0 368.3 507.9" style="enable-background:new 0 0 368.3 507.9;" xml:space="preserve">
<style type="text/css">
	.st0{enable-background:new    ;}
	.st1{fill:#3F3F3F;}
	.st2{fill:#3F3F40;}
	.st3{fill:#404040;}
	.st4{fill:#808080;}
	.st5{clip-path:url(#SVGID_00000047781991228939296870000016688661517724006045_);enable-background:new    ;}
	.st6{fill:#858585;}
	.st7{clip-path:url(#SVGID_00000114065881583019530990000002023650846607058574_);enable-background:new    ;}
	.st8{clip-path:url(#SVGID_00000037685348434120724550000010615442796526495144_);enable-background:new    ;}
	.st9{clip-path:url(#SVGID_00000023960930140496683640000013805735344778369153_);enable-background:new    ;}
	.st10{clip-path:url(#SVGID_00000129180748322646947710000008567434528118984067_);enable-background:new    ;}
	.st11{clip-path:url(#SVGID_00000137839138050186963660000017616957478231202179_);enable-background:new    ;}
	.st12{clip-path:url(#SVGID_00000067208336419238242610000002954702939878554759_);enable-background:new    ;}
	.st13{fill:#404041;}
	.st14{fill:#3F4040;}
	.st15{fill:#888888;}
	.st16{fill:#8A8A8A;}
	.st17{fill:#838383;}
	.st18{fill:#929292;}
	.st19{fill:#939393;}
	.st20{fill:#8C8C8C;}
	.st21{fill:#868686;}
	.st22{fill:#8D8D8D;}
	.st23{fill:#898989;}
	.st24{fill:#8E8E8E;}
	.st25{fill:#909090;}
	.st26{fill:#848484;}
	.st27{fill:#818181;}
	.st28{fill:#878787;}
	.st29{fill:#919191;}
	.st30{clip-path:url(#SVGID_00000122682929234384896370000009574280089740648885_);enable-background:new    ;}
	.st31{clip-path:url(#SVGID_00000032641668730194765090000016655532518267114662_);enable-background:new    ;}
	.st32{clip-path:url(#SVGID_00000101092845006328822050000012851871330107130523_);enable-background:new    ;}
	.st33{clip-path:url(#SVGID_00000022552749627188062700000009684685680243063713_);enable-background:new    ;}
	.st34{clip-path:url(#SVGID_00000122000204176525008330000012077055155936279682_);enable-background:new    ;}
	.st35{fill:#E5E5E5;}
	.st36{clip-path:url(#SVGID_00000016037500026769310680000009409179256343370886_);enable-background:new    ;}
	.st37{fill:#949494;}
	.st38{fill:#8F8F8F;}
	.st39{clip-path:url(#SVGID_00000051356674675748224050000011150597466554108565_);enable-background:new    ;}
	.st40{clip-path:url(#SVGID_00000054227268527445215080000010039551197312036494_);enable-background:new    ;}
	.st41{clip-path:url(#SVGID_00000090276435379559013550000008435792195376884378_);enable-background:new    ;}
	.st42{clip-path:url(#SVGID_00000165943514429700500670000006342913075821012125_);enable-background:new    ;}
	.st43{clip-path:url(#SVGID_00000107574647876951247030000009612876758750707105_);enable-background:new    ;}
	.st44{clip-path:url(#SVGID_00000062872653057651229060000014501463084120413883_);enable-background:new    ;}
	.st45{clip-path:url(#SVGID_00000157279864393352010510000018216538856752552354_);enable-background:new    ;}
	.st46{fill:#464646;}
	.st47{fill:none;stroke:#000000;stroke-miterlimit:10;stroke-dasharray:2.6635,2.6635;}
	.st48{fill:#249EBA;stroke:#000000;stroke-miterlimit:10;}
	.st49{fill:none;stroke:#000000;stroke-linecap:round;stroke-miterlimit:10;}
</style>
<g>
	<g>
		<g class="st0">
			<g>
				<polygon class="st1" points="223,20.2 223,28.9 221,28.6 221,19.9 				"/>
			</g>
			<g>
				<polygon class="st2" points="221,19.9 221,28.6 219,30.6 219,21.9 				"/>
			</g>
			<g>
				<polygon class="st1" points="228.8,24.3 228.8,33 223,28.9 223,20.2 				"/>
			</g>
			<g>
				<polygon class="st3" points="219,21.9 219,30.6 217.8,34.4 217.8,25.7 				"/>
			</g>
			<g>
				<polygon class="st1" points="260.8,27 260.8,35.7 257,36.3 257,27.6 				"/>
			</g>
			<g>
				<polygon class="st1" points="264.4,29 264.4,37.7 260.8,35.7 260.8,27 				"/>
			</g>
			<g>
				<polygon class="st1" points="235.1,29.6 235.1,38.3 228.8,33 228.8,24.3 				"/>
			</g>
			<g>
				<polygon class="st3" points="257,27.6 257,36.3 256,38.4 256,29.8 				"/>
			</g>
			<g>
				<polygon class="st4" points="219.2,31.6 219.2,40.3 217.8,34.4 217.8,25.7 				"/>
			</g>
			<g>
				<polygon class="st1" points="218.3,31.9 218.3,40.6 216.7,34.3 216.7,25.6 				"/>
			</g>
			<g>
				<polygon class="st4" points="258.3,32.2 258.3,40.9 256,38.4 256,29.8 				"/>
			</g>
			<g>
				<polygon class="st1" points="239.4,32.7 239.4,41.4 235.1,38.3 235.1,29.6 				"/>
			</g>
			<g>
				<polygon class="st1" points="257.6,32.9 257.6,41.6 254.8,38.6 254.8,29.9 				"/>
			</g>
			<g class="st0">
				<g>
					<g>
						<defs>
							<path id="SVGID_1_" d="M259.5,42.2c-0.2-0.2-0.5-0.5-1.2-1.2v-8.7c0.6,0.7,1,1.1,1.2,1.2c0,0.2,0,0.5,0,0.8
								c0,0.2,0,0.6,0,0.8c0,0.3,0,0.6,0,0.8c0,0.3,0,0.6,0,0.9s0,0.6,0,0.9s0,0.6,0,0.8s0,0.6,0,0.8s0,0.5,0,0.8c0,0.1,0,0.2,0,0.3
								s0,0.2,0,0.3s0,0.2,0,0.3s0,0.2,0,0.3s0,0.2,0,0.3s0,0.2,0,0.3S259.5,42.1,259.5,42.2C259.5,42,259.5,42.1,259.5,42.2z"/>
						</defs>
						<clipPath id="SVGID_00000116236019412405368650000013903649679578663103_">
							<use xlink:href="#SVGID_1_"  style="overflow:visible;"/>
						</clipPath>
						<g style="clip-path:url(#SVGID_00000116236019412405368650000013903649679578663103_);enable-background:new    ;">
							<path class="st6" d="M259.6,33.6v8.7c-0.1,0-0.4-0.4-1.3-1.3v-8.7C259.2,33.1,259.5,33.5,259.6,33.6"/>
						</g>
					</g>
				</g>
			</g>
			<g class="st0">
				<g>
					<g>
						<defs>
							<path id="SVGID_00000016757326580329555480000008244607549681640091_" d="M259.5,42.2c0-0.1,0-0.2,0-0.3s0-0.2,0-0.3
								s0-0.2,0-0.3s0-0.2,0-0.3s0-0.2,0-0.3s0-0.2,0-0.3s0-0.2,0-0.3s0-0.2,0-0.3c0-0.2,0-0.5,0-0.8c0-0.2,0-0.6,0-0.8
								c0-0.3,0-0.6,0-0.8c0-0.3,0-0.6,0-0.9s0-0.6,0-0.9s0-0.6,0-0.8s0-0.6,0-0.8c0-0.2,0-0.5,0-0.8c0.1,0.1,0.1,0.1,0.1,0.1V42
								C259.6,42.2,259.5,42.2,259.5,42.2z"/>
						</defs>
						<clipPath id="SVGID_00000094603956596856921220000010039699173738573213_">
							<use xlink:href="#SVGID_00000016757326580329555480000008244607549681640091_"  style="overflow:visible;"/>
						</clipPath>
						<g style="clip-path:url(#SVGID_00000094603956596856921220000010039699173738573213_);enable-background:new    ;">
							<path class="st6" d="M259.6,33.6v8.7c-0.1,0-0.4-0.4-1.3-1.3v-8.7C259.2,33.1,259.5,33.5,259.6,33.6"/>
						</g>
					</g>
				</g>
			</g>
			<g class="st0">
				<g>
					<g>
						<defs>
							<path id="SVGID_00000177458152041256691400000004285972781033915566_" d="M259.2,34.5v8.7c-0.2-0.1-0.2-0.1-1.6-1.5V33
								C258.9,34.3,258.9,34.3,259.2,34.5z"/>
						</defs>
						<clipPath id="SVGID_00000048488039945379190370000005808723088286054817_">
							<use xlink:href="#SVGID_00000177458152041256691400000004285972781033915566_"  style="overflow:visible;"/>
						</clipPath>
						<g style="clip-path:url(#SVGID_00000048488039945379190370000005808723088286054817_);enable-background:new    ;">
							<path class="st2" d="M259.2,34.5v8.7c-0.2-0.1-0.2-0.1-1.6-1.5V33C258.9,34.3,258.9,34.3,259.2,34.5"/>
						</g>
					</g>
				</g>
			</g>
			<g class="st0">
				<g>
					<g>
						<defs>
							<path id="SVGID_00000002367702846262095430000003298462237635596935_" d="M262.1,44.3c-2-1.7-2.3-1.9-2.5-2v-8.7
								c0.2,0.1,0.6,0.3,2.5,2c0,0.3,0,0.7,0,1s0,0.8,0,1.1c0,0.3,0,0.8,0,1.1s0,0.8,0,1.1c0,0.3,0,0.8,0,1.1s0,0.8,0,1.1
								c0,0.3,0,0.8,0,1.1S262.1,43.9,262.1,44.3c0-0.3,0-0.7,0-1s0-0.8,0-1.1c0-0.3,0-0.8,0-1.1c0-0.3,0-0.8,0-1.1
								c0-0.3,0-0.8,0-1.1c0-0.3,0-0.8,0-1.1s0-0.8,0-1.1c0-0.3,0-0.7,0-1l0,0l0,0c0,0.3,0,0.7,0,1s0,0.8,0,1.1c0,0.3,0,0.8,0,1.1
								s0,0.8,0,1.1c0,0.3,0,0.8,0,1.1s0,0.8,0,1.1c0,0.3,0,0.8,0,1.1C262.1,43.5,262.1,44,262.1,44.3L262.1,44.3z"/>
						</defs>
						<clipPath id="SVGID_00000094612749435798945120000017557617972298500526_">
							<use xlink:href="#SVGID_00000002367702846262095430000003298462237635596935_"  style="overflow:visible;"/>
						</clipPath>
						<g style="clip-path:url(#SVGID_00000094612749435798945120000017557617972298500526_);enable-background:new    ;">
							<path class="st6" d="M263.9,38.4v8.7c0-0.9-0.6-1.8-1.8-2.9c-2-1.7-2.3-1.9-2.5-2v-8.7c0.2,0.1,0.6,0.3,2.5,2
								C263.3,36.6,263.9,37.6,263.9,38.4"/>
						</g>
					</g>
				</g>
			</g>
			<g>
				<polygon class="st1" points="270.8,36.5 270.8,45.2 264.4,37.7 264.4,29 				"/>
			</g>
			<g>
				<polygon class="st4" points="221.6,38 221.6,46.7 219.2,40.3 219.2,31.6 				"/>
			</g>
			<g>
				<polygon class="st1" points="220.6,38.1 220.6,46.8 218.3,40.6 218.3,31.9 				"/>
			</g>
			<g class="st0">
				<g>
					<g>
						<defs>
							<path id="SVGID_00000012453174931032368170000014893114209762255037_" d="M262.9,38.4v8.7c0-0.6-0.5-1.3-1.4-2.1
								c-1.9-1.6-2.2-1.8-2.3-1.8v-8.7c0.1,0.1,0.4,0.2,2.3,1.8C262.4,37.1,262.9,37.9,262.9,38.4z"/>
						</defs>
						<clipPath id="SVGID_00000020365107284940290160000009382838861286881686_">
							<use xlink:href="#SVGID_00000012453174931032368170000014893114209762255037_"  style="overflow:visible;"/>
						</clipPath>
						<g style="clip-path:url(#SVGID_00000020365107284940290160000009382838861286881686_);enable-background:new    ;">
							<path class="st2" d="M262.9,38.4v8.7c0-0.6-0.5-1.3-1.4-2.1c-1.9-1.6-2.2-1.8-2.3-1.8v-8.7c0.1,0.1,0.4,0.2,2.3,1.8
								C262.4,37.1,262.9,37.9,262.9,38.4"/>
						</g>
					</g>
				</g>
			</g>
			<g class="st0">
				<g>
					<g>
						<defs>
							<path id="SVGID_00000059291473168691569180000015566097795162557616_" d="M263.9,47.1c0-0.9-0.6-1.8-1.8-2.9c0-0.3,0-0.7,0-1
								s0-0.8,0-1.1c0-0.3,0-0.8,0-1.1c0-0.3,0-0.8,0-1.1s0-0.8,0-1.1c0-0.3,0-0.8,0-1.1s0-0.8,0-1.1c0-0.3,0-0.7,0-1
								c1.2,1,1.8,2,1.8,2.9C263.9,41,263.9,44.5,263.9,47.1z"/>
						</defs>
						<clipPath id="SVGID_00000000915940100119843100000002930683160733784754_">
							<use xlink:href="#SVGID_00000059291473168691569180000015566097795162557616_"  style="overflow:visible;"/>
						</clipPath>
						<g style="clip-path:url(#SVGID_00000000915940100119843100000002930683160733784754_);enable-background:new    ;">
							<path class="st6" d="M263.9,38.4v8.7c0-0.9-0.6-1.8-1.8-2.9c-2-1.7-2.3-1.9-2.5-2v-8.7c0.2,0.1,0.6,0.3,2.5,2
								C263.3,36.6,263.9,37.6,263.9,38.4"/>
						</g>
					</g>
				</g>
			</g>
			<g>
				<polygon class="st1" points="243,39.5 243,48.2 239.4,41.4 239.4,32.7 				"/>
			</g>
			<g class="st0">
				<g>
					<g>
						<defs>
							<path id="SVGID_00000119119697312123057390000009285859385592138916_" d="M263.9,38.4v8.7c0,0.2,0,0.3-0.1,0.5
								c-0.3,1.2-1.7,1.7-2.2,1.9v-8.7c0.5-0.2,1.9-0.7,2.2-1.9C263.9,38.7,263.9,38.6,263.9,38.4z"/>
						</defs>
						<clipPath id="SVGID_00000066494270480793826880000006253871357749362075_">
							<use xlink:href="#SVGID_00000119119697312123057390000009285859385592138916_"  style="overflow:visible;"/>
						</clipPath>
						<g style="clip-path:url(#SVGID_00000066494270480793826880000006253871357749362075_);enable-background:new    ;">
							<path class="st13" d="M263.9,38.4v8.7c0,0.1,0,0.3,0,0.4v-8.7C263.9,38.7,263.9,38.6,263.9,38.4"/>
							<path class="st3" d="M263.8,38.8v8.7c0,0,0,0,0,0.1c0,0.1-0.1,0.2-0.1,0.3v-8.7C263.8,39.1,263.8,39,263.8,38.8
								C263.8,38.9,263.8,38.9,263.8,38.8"/>
							<path class="st14" d="M263.7,39.2v8.7c-0.1,0.2-0.2,0.3-0.3,0.4v-8.7C263.5,39.5,263.6,39.4,263.7,39.2"/>
							<path class="st2" d="M263.4,39.6v8.7c-0.5,0.7-1.4,1-1.8,1.1v-8.7C262,40.7,262.9,40.3,263.4,39.6"/>
						</g>
					</g>
				</g>
			</g>
			<g>
				<polygon class="st1" points="276.7,42.7 276.7,51.4 270.8,45.2 270.8,36.5 				"/>
			</g>
			<g>
				<polygon class="st1" points="246.6,43.5 246.6,52.1 243,48.2 243,39.5 				"/>
			</g>
			<g>
				<polygon class="st1" points="282.8,43.8 282.8,52.5 276.7,51.4 276.7,42.7 				"/>
			</g>
			<g>
				<polygon class="st1" points="286.9,44.2 286.9,52.9 282.8,52.5 282.8,43.8 				"/>
			</g>
			<g>
				<polygon class="st14" points="261.7,40.8 261.7,49.5 258.3,54.3 258.3,45.6 				"/>
			</g>
			<g>
				<polygon class="st1" points="220.8,46.4 220.8,55.1 220.6,46.8 220.6,38.1 				"/>
			</g>
			<g>
				<polygon class="st4" points="221.8,46.5 221.8,55.2 221.6,46.7 221.6,38 				"/>
			</g>
			<g>
				<polygon class="st1" points="258.3,45.6 258.3,54.3 251.7,56.1 251.7,47.4 				"/>
			</g>
			<g>
				<polygon class="st1" points="251.7,47.4 251.7,56.1 246.6,52.1 246.6,43.5 				"/>
			</g>
			<g>
				<polygon class="st1" points="293.4,49.7 293.4,58.4 286.9,52.9 286.9,44.2 				"/>
			</g>
			<g>
				<polygon class="st13" points="221.8,46.5 221.8,55.2 220.1,64 220.1,55.3 				"/>
			</g>
			<g>
				<polygon class="st1" points="298.6,55.5 298.6,64.1 293.4,58.4 293.4,49.7 				"/>
			</g>
			<g>
				<polygon class="st3" points="220.1,55.3 220.1,64 217.6,70.1 217.6,61.4 				"/>
			</g>
			<g>
				<polygon class="st1" points="300.3,65.8 300.3,74.5 298.6,64.1 298.6,55.5 				"/>
			</g>
			<g>
				<polygon class="st1" points="305.9,75.2 305.9,83.9 300.3,74.5 300.3,65.8 				"/>
			</g>
			<g>
				<polygon class="st2" points="217.6,61.4 217.6,70.1 203.8,85.5 203.8,76.8 				"/>
			</g>
			<g>
				<polygon class="st1" points="317,98.1 317,106.8 305.9,83.9 305.9,75.2 				"/>
			</g>
			<g>
				<polygon class="st2" points="203.8,76.8 203.8,85.5 177.7,107.1 177.7,98.4 				"/>
			</g>
			<g>
				<polygon class="st14" points="177.7,98.4 177.7,107.1 171.7,115.1 171.7,106.4 				"/>
			</g>
			<g>
				<polygon class="st1" points="329.3,119.5 329.3,128.2 317,106.8 317,98.1 				"/>
			</g>
			<g>
				<polygon class="st13" points="171.7,106.4 171.7,115.1 171.3,129.2 171.3,120.6 				"/>
			</g>
			<g>
				<polygon class="st2" points="171.3,120.6 171.3,129.2 168.5,131.6 168.5,122.9 				"/>
			</g>
			<g>
				<polygon class="st1" points="332.8,124.8 332.8,133.5 329.3,128.2 329.3,119.5 				"/>
			</g>
			<g>
				<polygon class="st1" points="336.4,128.4 336.4,137.1 332.8,133.5 332.8,124.8 				"/>
			</g>
			<g>
				<polygon class="st1" points="339.1,131.9 339.1,140.6 336.4,137.1 336.4,128.4 				"/>
			</g>
			<g>
				<polygon class="st1" points="340.9,135.8 340.9,144.5 339.1,140.6 339.1,131.9 				"/>
			</g>
			<g>
				<polygon class="st13" points="168.5,122.9 168.5,131.6 166.6,144.7 166.6,136 				"/>
			</g>
			<g>
				<polygon class="st15" points="340.9,135.8 340.9,144.5 336.4,150.8 336.4,142.1 				"/>
			</g>
			<g>
				<polygon class="st14" points="342.1,135.9 342.1,144.6 337.2,151.3 337.2,142.6 				"/>
			</g>
			<g>
				<polygon class="st14" points="166.6,136 166.6,144.7 160.8,152.3 160.8,143.6 				"/>
			</g>
			<g>
				<polygon class="st2" points="160.8,143.6 160.8,152.3 154.3,156.8 154.3,148.1 				"/>
			</g>
			<g>
				<polygon class="st1" points="154.3,148.1 154.3,156.8 146.5,157.4 146.5,148.7 				"/>
			</g>
			<g>
				<polygon class="st1" points="146.5,148.7 146.5,157.4 135.2,157.2 135.2,148.5 				"/>
			</g>
			<g>
				<polygon class="st14" points="135.2,148.5 135.2,157.2 132.7,161 132.7,152.3 				"/>
			</g>
			<g>
				<polygon class="st1" points="132.7,152.3 132.7,161 127,161.4 127,152.7 				"/>
			</g>
			<g>
				<polygon class="st16" points="336.4,142.1 336.4,150.8 328.6,164.4 328.6,155.7 				"/>
			</g>
			<g>
				<polygon class="st1" points="127,152.7 127,161.4 120.6,164.5 120.6,155.9 				"/>
			</g>
			<g>
				<polygon class="st4" points="328.6,155.7 328.6,164.4 321.9,165.3 321.9,156.6 				"/>
			</g>
			<g>
				<polygon class="st14" points="337.2,142.6 337.2,151.3 329.2,165.4 329.2,156.7 				"/>
			</g>
			<g>
				<polygon class="st1" points="120.6,155.9 120.6,164.5 112.4,166 112.4,157.4 				"/>
			</g>
			<g>
				<polygon class="st1" points="329.2,156.7 329.2,165.4 322.3,166.2 322.3,157.5 				"/>
			</g>
			<g>
				<polygon class="st1" points="112.4,157.4 112.4,166 104.4,170.6 104.4,161.9 				"/>
			</g>
			<g>
				<polygon class="st17" points="321.9,156.6 321.9,165.3 311.3,174 311.3,165.3 				"/>
			</g>
			<g>
				<polygon class="st2" points="322.3,157.5 322.3,166.2 312,174.7 312,166 				"/>
			</g>
			<g>
				<polygon class="st2" points="104.4,161.9 104.4,170.6 98.7,177.9 98.7,169.2 				"/>
			</g>
			<g>
				<polygon class="st15" points="311.3,165.3 311.3,174 307.9,178.6 307.9,169.9 				"/>
			</g>
			<g>
				<polygon class="st14" points="312,166 312,174.7 308.6,179.3 308.6,170.7 				"/>
			</g>
			<g>
				<polygon class="st4" points="307.9,169.9 307.9,178.6 299.2,183.1 299.2,174.4 				"/>
			</g>
			<g>
				<polygon class="st1" points="308.6,170.7 308.6,179.3 300.2,183.7 300.2,175 				"/>
			</g>
			<g>
				<polygon class="st13" points="98.7,169.2 98.7,177.9 97,185.8 97,177.1 				"/>
			</g>
			<g>
				<polygon class="st13" points="300.2,175 300.2,183.7 299.6,189.5 299.6,180.8 				"/>
			</g>
			<g>
				<polygon class="st18" points="299.2,174.4 299.2,183.1 298.6,189.9 298.6,181.2 				"/>
			</g>
			<g>
				<polygon class="st13" points="97,177.1 97,185.8 96.4,190.9 96.4,182.3 				"/>
			</g>
			<g>
				<polygon class="st1" points="302.4,184.6 302.4,193.2 298.6,189.9 298.6,181.2 				"/>
			</g>
			<g>
				<polygon class="st19" points="302.4,189.6 302.4,198.3 302.2,205.1 302.2,196.4 				"/>
			</g>
			<g>
				<polygon class="st1" points="96,196.6 96,205.2 95.4,190.9 95.4,182.2 				"/>
			</g>
			<g>
				<polygon class="st4" points="97,196.7 97,205.4 96.4,190.9 96.4,182.3 				"/>
			</g>
			<g>
				<polygon class="st13" points="303.4,189.6 303.4,198.3 303.2,205.4 303.2,196.7 				"/>
			</g>
			<g>
				<polygon class="st20" points="302.2,196.4 302.2,205.1 299.9,210 299.9,201.3 				"/>
			</g>
			<g>
				<polygon class="st3" points="303.2,196.7 303.2,205.4 300.7,210.5 300.7,201.9 				"/>
			</g>
			<g>
				<polygon class="st21" points="299.9,201.3 299.9,210 297.9,212.4 297.9,203.7 				"/>
			</g>
			<g>
				<polygon class="st2" points="300.7,201.9 300.7,210.5 298.9,212.7 298.9,204 				"/>
			</g>
			<g>
				<polygon class="st13" points="97,196.6 97,205.3 95.2,214.6 95.2,205.9 				"/>
			</g>
			<g>
				<polygon class="st3" points="95.2,205.9 95.2,214.6 93.5,219.7 93.5,211 				"/>
			</g>
			<g>
				<polygon class="st1" points="298.2,211.1 298.2,219.8 297.9,212.4 297.9,203.7 				"/>
			</g>
			<g>
				<polygon class="st1" points="301.6,213 301.6,221.6 298.2,219.8 298.2,211.1 				"/>
			</g>
			<g>
				<polygon class="st4" points="94.1,220 94.1,228.7 93.5,219.7 93.5,211 				"/>
			</g>
			<g>
				<polygon class="st1" points="93.1,220.2 93.1,228.9 92.5,219.6 92.5,210.9 				"/>
			</g>
			<g>
				<polygon class="st4" points="96.4,224.7 96.4,233.4 94.1,228.7 94.1,220 				"/>
			</g>
			<g>
				<polygon class="st1" points="95.4,224.9 95.4,233.6 93.1,228.9 93.1,220.2 				"/>
			</g>
			<g>
				<polygon class="st13" points="302.6,212.4 302.6,221.1 301.9,236.3 301.9,227.6 				"/>
			</g>
			<g>
				<polygon class="st19" points="301.6,212.9 301.6,221.6 300.9,236.6 300.9,227.9 				"/>
			</g>
			<g>
				<polygon class="st13" points="96.4,224.7 96.4,233.4 95.8,239 95.8,230.3 				"/>
			</g>
			<g>
				<polygon class="st1" points="304,232.1 304,240.7 300.9,236.6 300.9,227.9 				"/>
			</g>
			<g>
				<polygon class="st1" points="305.8,233.7 305.8,242.3 304,240.7 304,232.1 				"/>
			</g>
			<g>
				<polygon class="st4" points="104.4,235.9 104.4,244.6 95.8,239 95.8,230.3 				"/>
			</g>
			<g>
				<polygon class="st1" points="103.9,236.7 103.9,245.4 94.8,239.5 94.8,230.8 				"/>
			</g>
			<g>
				<polygon class="st4" points="112.1,239.4 112.1,248.1 104.4,244.6 104.4,235.9 				"/>
			</g>
			<g>
				<polygon class="st18" points="305.8,233.7 305.8,242.3 305.4,248.4 305.4,239.7 				"/>
			</g>
			<g>
				<polygon class="st1" points="111.2,240.1 111.2,248.8 103.9,245.4 103.9,236.7 				"/>
			</g>
			<g>
				<polygon class="st13" points="306.8,233.2 306.8,241.9 306.4,248.8 306.4,240.2 				"/>
			</g>
			<g>
				<polygon class="st6" points="305.4,239.7 305.4,248.4 302.2,251.8 302.2,243.1 				"/>
			</g>
			<g>
				<polygon class="st2" points="306.4,240.2 306.4,248.8 303.2,252.2 303.2,243.5 				"/>
			</g>
			<g>
				<polygon class="st4" points="113.4,249 113.4,257.7 112.1,248.1 112.1,239.4 				"/>
			</g>
			<g>
				<polygon class="st1" points="112.3,248.9 112.3,257.6 111.2,248.8 111.2,240.1 				"/>
			</g>
			<g>
				<polygon class="st19" points="302.2,243.1 302.2,251.8 301.6,262.9 301.6,254.2 				"/>
			</g>
			<g>
				<polygon class="st13" points="303.2,243.5 303.2,252.2 302.6,263.3 302.6,254.6 				"/>
			</g>
			<g>
				<polygon class="st3" points="113.4,249 113.4,257.7 110.5,265 110.5,256.3 				"/>
			</g>
			<g>
				<polygon class="st21" points="301.6,254.2 301.6,262.9 298.4,266.7 298.4,258 				"/>
			</g>
			<g>
				<polygon class="st2" points="302.6,254.6 302.6,263.3 299.3,267.1 299.3,258.4 				"/>
			</g>
			<g>
				<polygon class="st4" points="115.1,260.8 115.1,269.5 110.5,265 110.5,256.3 				"/>
			</g>
			<g>
				<polygon class="st1" points="114.1,261.3 114.1,270 109.3,265.2 109.3,256.5 				"/>
			</g>
			<g>
				<polygon class="st13" points="299.3,258.4 299.3,267.1 298.4,276.8 298.4,268.2 				"/>
			</g>
			<g>
				<polygon class="st4" points="116.9,268.7 116.9,277.4 115.1,269.5 115.1,260.8 				"/>
			</g>
			<g>
				<polygon class="st1" points="115.8,268.3 115.8,277 114.1,270 114.1,261.3 				"/>
			</g>
			<g>
				<polygon class="st18" points="298.4,258 298.4,266.7 297.2,278.4 297.2,269.7 				"/>
			</g>
			<g>
				<polygon class="st1" points="303.1,267.4 303.1,276.1 297.2,278.4 297.2,269.7 				"/>
			</g>
			<g>
				<polygon class="st2" points="116.9,268.7 116.9,277.4 112.6,280.5 112.6,271.8 				"/>
			</g>
			<g>
				<polygon class="st1" points="312.2,273.2 312.2,281.8 303.1,276.1 303.1,267.4 				"/>
			</g>
			<g>
				<polygon class="st1" points="70.6,275.9 70.6,284.6 62.3,282.9 62.3,274.2 				"/>
			</g>
			<g>
				<polygon class="st2" points="112.6,271.8 112.6,280.5 106.7,285.1 106.7,276.4 				"/>
			</g>
			<g>
				<polygon class="st18" points="312.2,273.2 312.2,281.8 311.8,285.4 311.8,276.8 				"/>
			</g>
			<g>
				<polygon class="st13" points="313.2,272.7 313.2,281.3 312.7,285.8 312.7,277.1 				"/>
			</g>
			<g>
				<polygon class="st14" points="62.3,274.2 62.3,282.9 60.1,286.6 60.1,277.9 				"/>
			</g>
			<g>
				<polygon class="st2" points="106.7,276.4 106.7,285.1 102,290.3 102,281.6 				"/>
			</g>
			<g>
				<polygon class="st1" points="78.2,281.6 78.2,290.3 70.6,284.6 70.6,275.9 				"/>
			</g>
			<g>
				<polygon class="st1" points="88.8,283.4 88.8,292.1 78.2,290.3 78.2,281.6 				"/>
			</g>
			<g>
				<polygon class="st3" points="60.1,277.9 60.1,286.6 58.4,292.5 58.4,283.8 				"/>
			</g>
			<g>
				<polygon class="st22" points="311.8,276.8 311.8,285.4 308.4,293.4 308.4,284.7 				"/>
			</g>
			<g>
				<polygon class="st3" points="312.7,277.1 312.7,285.8 309.4,293.7 309.4,285 				"/>
			</g>
			<g>
				<polygon class="st1" points="97.2,285.1 97.2,293.8 88.8,292.1 88.8,283.4 				"/>
			</g>
			<g>
				<polygon class="st2" points="102,281.6 102,290.3 97.2,293.8 97.2,285.1 				"/>
			</g>
			<g>
				<polygon class="st2" points="58.4,283.8 58.4,292.5 54.2,295.4 54.2,286.7 				"/>
			</g>
			<g>
				<polygon class="st18" points="308.4,284.7 308.4,293.4 308,297.6 308,288.9 				"/>
			</g>
			<g>
				<polygon class="st13" points="309.4,285 309.4,293.7 308.9,297.9 308.9,289.2 				"/>
			</g>
			<g>
				<polygon class="st23" points="308,288.9 308,297.6 306.3,300.1 306.3,291.4 				"/>
			</g>
			<g>
				<polygon class="st14" points="308.9,289.2 308.9,297.9 307.2,300.5 307.2,291.9 				"/>
			</g>
			<g>
				<polygon class="st2" points="54.2,286.7 54.2,295.4 48.9,301.1 48.9,292.4 				"/>
			</g>
			<g>
				<polygon class="st20" points="306.3,291.4 306.3,300.1 303.7,305.4 303.7,296.7 				"/>
			</g>
			<g>
				<polygon class="st14" points="48.9,292.4 48.9,301.1 46.2,305.5 46.2,296.8 				"/>
			</g>
			<g>
				<polygon class="st3" points="307.2,291.9 307.2,300.5 304.6,305.7 304.6,297 				"/>
			</g>
			<g>
				<polygon class="st24" points="303.7,296.7 303.7,305.4 301.9,310.4 301.9,301.7 				"/>
			</g>
			<g>
				<polygon class="st3" points="304.6,297 304.6,305.7 303,310.3 303,301.6 				"/>
			</g>
			<g>
				<polygon class="st4" points="47.9,304.1 47.9,312.8 46.2,305.5 46.2,296.8 				"/>
			</g>
			<g>
				<polygon class="st1" points="46.9,304.2 46.9,312.9 45.1,305.3 45.1,296.6 				"/>
			</g>
			<g>
				<polygon class="st1" points="306.7,310.2 306.7,318.9 301.9,310.4 301.9,301.7 				"/>
			</g>
			<g>
				<polygon class="st13" points="47.9,304.1 47.9,312.8 47.3,322.3 47.3,313.6 				"/>
			</g>
			<g>
				<polygon class="st1" points="308,316.9 308,325.6 306.7,318.9 306.7,310.2 				"/>
			</g>
			<g>
				<polygon class="st2" points="47.3,313.6 47.3,322.3 43.2,327.5 43.2,318.8 				"/>
			</g>
			<g>
				<polygon class="st1" points="310.4,323.4 310.4,332.1 308,325.6 308,316.9 				"/>
			</g>
			<g>
				<polygon class="st1" points="314.6,326.2 314.6,334.9 310.4,332.1 310.4,323.4 				"/>
			</g>
			<g>
				<polygon class="st13" points="43.2,318.8 43.2,327.5 41.5,335.4 41.5,326.7 				"/>
			</g>
			<g>
				<polygon class="st1" points="321.8,328.3 321.8,337 314.6,334.9 314.6,326.2 				"/>
			</g>
			<g>
				<polygon class="st3" points="41.5,326.7 41.5,335.4 39.7,341.1 39.7,332.5 				"/>
			</g>
			<g>
				<polygon class="st1" points="327.1,332.9 327.1,341.5 321.8,337 321.8,328.3 				"/>
			</g>
			<g>
				<polygon class="st1" points="331.8,337.7 331.8,346.4 327.1,341.5 327.1,332.9 				"/>
			</g>
			<g>
				<polygon class="st13" points="332.8,337.4 332.8,346 332.6,356.6 332.6,347.9 				"/>
			</g>
			<g>
				<polygon class="st19" points="331.8,337.7 331.8,346.4 331.6,356.8 331.6,348.1 				"/>
			</g>
			<g>
				<polygon class="st1" points="332.9,351.1 332.9,359.8 331.6,356.8 331.6,348.1 				"/>
			</g>
			<g>
				<polygon class="st3" points="39.7,342.9 39.7,351.5 35,360.3 35,351.6 				"/>
			</g>
			<g>
				<polygon class="st14" points="35,351.6 35,360.3 31.5,364.8 31.5,356.1 				"/>
			</g>
			<g>
				<polygon class="st1" points="333.1,356.2 333.1,364.9 332.9,359.8 332.9,351.1 				"/>
			</g>
			<g>
				<polygon class="st18" points="333.1,356.2 333.1,364.9 332.5,371.5 332.5,362.8 				"/>
			</g>
			<g>
				<polygon class="st13" points="334.1,356.2 334.1,364.9 333.4,371.8 333.4,363.2 				"/>
			</g>
			<g>
				<polygon class="st20" points="332.5,362.8 332.5,371.5 330.8,375.1 330.8,366.4 				"/>
			</g>
			<g>
				<polygon class="st3" points="333.4,363.2 333.4,371.8 331.8,375.3 331.8,366.6 				"/>
			</g>
			<g>
				<polygon class="st2" points="31.5,364.2 31.5,372.9 27.3,377.6 27.3,369 				"/>
			</g>
			<g>
				<polygon class="st2" points="27.3,369 27.3,377.6 22.7,381.6 22.7,372.9 				"/>
			</g>
			<g>
				<polygon class="st1" points="331.2,376.3 331.2,385 330.8,375.1 330.8,366.4 				"/>
			</g>
			<g>
				<polygon class="st3" points="22.7,372.9 22.7,381.6 21.1,388.2 21.1,379.5 				"/>
			</g>
			<g>
				<polygon class="st4" points="23.9,384.5 23.9,393.2 21.1,388.2 21.1,379.5 				"/>
			</g>
			<g>
				<polygon class="st1" points="23,385 23,393.7 20,388.3 20,379.6 				"/>
			</g>
			<g>
				<polygon class="st13" points="332.2,376.4 332.2,385 331.3,397.5 331.3,388.8 				"/>
			</g>
			<g>
				<polygon class="st18" points="331.2,376.3 331.2,385 330.3,397.5 330.3,388.8 				"/>
			</g>
			<g>
				<polygon class="st4" points="27.5,390.4 27.5,399.1 23.9,393.2 23.9,384.5 				"/>
			</g>
			<g>
				<polygon class="st1" points="26.4,390.6 26.4,399.3 23,393.7 23,385 				"/>
			</g>
			<g>
				<polygon class="st1" points="331,395.9 331,404.6 330.3,397.5 330.3,388.8 				"/>
			</g>
			<g>
				<polygon class="st3" points="27.5,390.4 27.5,399.1 25.1,408.1 25.1,399.4 				"/>
			</g>
			<g>
				<polygon class="st1" points="334.1,400.2 334.1,408.9 331,404.6 331,395.9 				"/>
			</g>
			<g>
				<polygon class="st2" points="25.1,399.4 25.1,408.1 21,411 21,402.3 				"/>
			</g>
			<g>
				<polygon class="st1" points="344.8,407.6 344.8,416.3 334.1,408.9 334.1,400.2 				"/>
			</g>
			<g>
				<polygon class="st13" points="21,402.3 21,411 20.5,418.1 20.5,409.4 				"/>
			</g>
			<g>
				<polygon class="st1" points="355.7,411.4 355.7,420.1 344.8,416.3 344.8,407.6 				"/>
			</g>
			<g>
				<polygon class="st4" points="23.4,415.8 23.4,424.5 20.5,418.1 20.5,409.4 				"/>
			</g>
			<g>
				<polygon class="st1" points="22.3,415.8 22.3,424.5 19.4,418.3 19.4,409.6 				"/>
			</g>
			<g>
				<polygon class="st1" points="359.8,416.7 359.8,425.4 355.7,420.1 355.7,411.4 				"/>
			</g>
			<g>
				<polygon class="st1" points="363.4,422.3 363.4,431 359.8,425.4 359.8,416.7 				"/>
			</g>
			<g>
				<polygon class="st3" points="23.4,415.8 23.4,424.5 20.9,431.7 20.9,423 				"/>
			</g>
			<g>
				<polygon class="st1" points="364.6,426.2 364.6,434.9 363.4,431 363.4,422.3 				"/>
			</g>
			<g>
				<polygon class="st14" points="20.9,423 20.9,431.7 17.5,436.3 17.5,427.6 				"/>
			</g>
			<g>
				<polygon class="st3" points="17.5,427.6 17.5,436.3 15.1,441.5 15.1,432.8 				"/>
			</g>
			<g>
				<polygon class="st4" points="322.8,437.8 322.8,446.5 317.8,447.6 317.8,438.9 				"/>
			</g>
			<g>
				<polygon class="st4" points="326.2,439.1 326.2,447.8 322.8,446.5 322.8,437.8 				"/>
			</g>
			<g>
				<polygon class="st2" points="15.1,432.8 15.1,441.5 9.2,447.8 9.2,439.2 				"/>
			</g>
			<g>
				<polygon class="st1" points="322.7,438.8 322.7,447.5 318.3,448.5 318.3,439.8 				"/>
			</g>
			<g>
				<polygon class="st4" points="133.3,439.9 133.3,448.6 126.8,447.9 126.8,439.3 				"/>
			</g>
			<g>
				<polygon class="st1" points="325.6,440 325.6,448.6 322.7,447.5 322.7,438.8 				"/>
			</g>
			<g>
				<polygon class="st4" points="182.2,438.8 182.2,447.5 175.8,449.3 175.8,440.6 				"/>
			</g>
			<g>
				<polygon class="st1" points="132.8,440.9 132.8,449.6 127,449 127,440.3 				"/>
			</g>
			<g>
				<polygon class="st4" points="126.8,439.3 126.8,447.9 122.3,450 122.3,441.3 				"/>
			</g>
			<g>
				<polygon class="st1" points="181.9,439.9 181.9,448.6 176.4,450.1 176.4,441.5 				"/>
			</g>
			<g>
				<polygon class="st1" points="127,440.3 127,449 122.9,450.7 122.9,442 				"/>
			</g>
			<g>
				<polygon class="st6" points="317.8,438.9 317.8,447.6 314.6,450.9 314.6,442.2 				"/>
			</g>
			<g>
				<polygon class="st4" points="185.8,442.3 185.8,451 182.2,447.5 182.2,438.8 				"/>
			</g>
			<g>
				<polygon class="st1" points="365.1,442.4 365.1,451.1 364.6,434.9 364.6,426.2 				"/>
			</g>
			<g>
				<polygon class="st2" points="318.3,439.8 318.3,448.5 315.4,451.5 315.4,442.8 				"/>
			</g>
			<g>
				<polygon class="st1" points="185.1,443.1 185.1,451.7 181.9,448.6 181.9,439.9 				"/>
			</g>
			<g>
				<polygon class="st4" points="207.7,441.7 207.7,450.4 203.1,452 203.1,443.4 				"/>
			</g>
			<g>
				<polygon class="st1" points="207.6,442.8 207.6,451.5 203.7,452.8 203.7,444.2 				"/>
			</g>
			<g>
				<polygon class="st4" points="330.1,444.2 330.1,452.9 326.2,447.8 326.2,439.1 				"/>
			</g>
			<g>
				<polygon class="st4" points="136.9,444.9 136.9,453.5 133.3,448.6 133.3,439.9 				"/>
			</g>
			<g>
				<polygon class="st1" points="329.4,444.9 329.4,453.6 325.6,448.6 325.6,440 				"/>
			</g>
			<g>
				<polygon class="st4" points="213,445 213,453.7 207.7,450.4 207.7,441.7 				"/>
			</g>
			<g>
				<polygon class="st1" points="136,445.2 136,453.9 132.8,449.6 132.8,440.9 				"/>
			</g>
			<g>
				<polygon class="st15" points="175.8,440.6 175.8,449.3 172.2,454.1 172.2,445.5 				"/>
			</g>
			<g>
				<polygon class="st14" points="176.4,441.5 176.4,450.1 173.2,454.5 173.2,445.8 				"/>
			</g>
			<g>
				<polygon class="st1" points="212.5,445.9 212.5,454.5 207.6,451.5 207.6,442.8 				"/>
			</g>
			<g>
				<polygon class="st14" points="9.2,439.2 9.2,447.8 4,454.7 4,446 				"/>
			</g>
			<g>
				<polygon class="st15" points="122.3,441.3 122.3,450 119,454.7 119,446 				"/>
			</g>
			<g>
				<polygon class="st14" points="122.9,442 122.9,450.7 119.9,455.2 119.9,446.5 				"/>
			</g>
			<g>
				<polygon class="st4" points="192.9,446.7 192.9,455.3 185.8,451 185.8,442.3 				"/>
			</g>
			<g>
				<polygon class="st25" points="365.1,442.4 365.1,451.1 363.8,456.2 363.8,447.5 				"/>
			</g>
			<g>
				<polygon class="st1" points="192.5,447.5 192.5,456.2 185.1,451.7 185.1,443.1 				"/>
			</g>
			<g>
				<polygon class="st4" points="218.2,447.8 218.2,456.5 213,453.7 213,445 				"/>
			</g>
			<g>
				<polygon class="st3" points="366.1,442.6 366.1,451.2 364.7,456.7 364.7,448 				"/>
			</g>
			<g>
				<polygon class="st23" points="203.1,443.4 203.1,452 199.7,457.1 199.7,448.4 				"/>
			</g>
			<g>
				<polygon class="st4" points="199.7,448.4 199.7,457.1 192.9,455.3 192.9,446.7 				"/>
			</g>
			<g>
				<polygon class="st1" points="217.6,448.6 217.6,457.2 212.5,454.5 212.5,445.9 				"/>
			</g>
			<g>
				<polygon class="st4" points="337.7,449.2 337.7,457.9 330.1,452.9 330.1,444.2 				"/>
			</g>
			<g>
				<polygon class="st14" points="203.7,444.2 203.7,452.8 200.2,458.3 200.2,449.6 				"/>
			</g>
			<g>
				<polygon class="st1" points="200.2,449.6 200.2,458.3 192.5,456.2 192.5,447.5 				"/>
			</g>
			<g>
				<polygon class="st1" points="337.2,450.1 337.2,458.8 329.4,453.6 329.4,444.9 				"/>
			</g>
			<g>
				<polygon class="st3" points="4,446 4,454.7 1.8,459.6 1.8,450.9 				"/>
			</g>
			<g>
				<polygon class="st21" points="363.8,447.5 363.8,456.2 360.4,460.2 360.4,451.5 				"/>
			</g>
			<g>
				<polygon class="st4" points="139.5,452.2 139.5,460.9 136.9,453.5 136.9,444.9 				"/>
			</g>
			<g>
				<polygon class="st2" points="364.7,448 364.7,456.7 360.9,461.1 360.9,452.4 				"/>
			</g>
			<g>
				<polygon class="st1" points="138.5,452.5 138.5,461.1 136,453.9 136,445.2 				"/>
			</g>
			<g>
				<polygon class="st4" points="345,452.5 345,461.2 337.7,457.9 337.7,449.2 				"/>
			</g>
			<g>
				<polygon class="st4" points="353.2,453.1 353.2,461.8 345,461.2 345,452.5 				"/>
			</g>
			<g>
				<polygon class="st4" points="360.4,451.5 360.4,460.2 353.2,461.8 353.2,453.1 				"/>
			</g>
			<g>
				<polygon class="st1" points="344.7,453.4 344.7,462.1 337.2,458.8 337.2,450.1 				"/>
			</g>
			<g>
				<polygon class="st1" points="360.9,452.4 360.9,461.1 353.2,462.8 353.2,454.1 				"/>
			</g>
			<g>
				<polygon class="st1" points="353.2,454.1 353.2,462.8 344.7,462.1 344.7,453.4 				"/>
			</g>
			<g>
				<polygon class="st15" points="314.6,442.2 314.6,450.9 306.2,463 306.2,454.3 				"/>
			</g>
			<g>
				<polygon class="st14" points="315.4,442.8 315.4,451.5 306.9,463.7 306.9,455 				"/>
			</g>
			<g>
				<polygon class="st26" points="306.2,454.3 306.2,463 302.7,466.3 302.7,457.6 				"/>
			</g>
			<g>
				<polygon class="st4" points="5.3,458.3 5.3,467 1.8,459.6 1.8,450.9 				"/>
			</g>
			<g>
				<polygon class="st2" points="306.9,455 306.9,463.7 303.2,467.2 303.2,458.5 				"/>
			</g>
			<g>
				<polygon class="st1" points="4.2,458.5 4.2,467.2 0.7,459.6 0.7,450.9 				"/>
			</g>
			<g>
				<polygon class="st4" points="302.7,457.6 302.7,466.3 297.5,467.5 297.5,458.8 				"/>
			</g>
			<g>
				<polygon class="st4" points="229.3,459.6 229.3,468.3 218.2,456.5 218.2,447.8 				"/>
			</g>
			<g>
				<polygon class="st1" points="303.2,458.5 303.2,467.2 297.8,468.4 297.8,459.7 				"/>
			</g>
			<g>
				<polygon class="st1" points="228.6,460.2 228.6,468.9 217.6,457.2 217.6,448.6 				"/>
			</g>
			<g>
				<polygon class="st25" points="119,446 119,454.7 115.9,469.4 115.9,460.7 				"/>
			</g>
			<g>
				<polygon class="st13" points="119.9,446.5 119.9,455.2 116.9,469.5 116.9,460.9 				"/>
			</g>
			<g>
				<polygon class="st18" points="172.2,445.5 172.2,454.1 170.3,470.3 170.3,461.6 				"/>
			</g>
			<g>
				<polygon class="st13" points="173.2,445.8 173.2,454.5 171.2,470.7 171.2,462 				"/>
			</g>
			<g>
				<polygon class="st27" points="297.5,458.8 297.5,467.5 292.4,470.7 292.4,462 				"/>
			</g>
			<g>
				<polygon class="st2" points="297.8,459.7 297.8,468.4 293.1,471.5 293.1,462.8 				"/>
			</g>
			<g>
				<polygon class="st4" points="141.9,463.8 141.9,472.5 139.5,460.9 139.5,452.2 				"/>
			</g>
			<g>
				<polygon class="st1" points="140.9,464.1 140.9,472.7 138.5,461.1 138.5,452.5 				"/>
			</g>
			<g>
				<polygon class="st23" points="292.4,462 292.4,470.7 289.4,475.5 289.4,466.8 				"/>
			</g>
			<g>
				<polygon class="st21" points="170.3,461.6 170.3,470.3 165.3,476.1 165.3,467.4 				"/>
			</g>
			<g>
				<polygon class="st13" points="5.3,458.3 5.3,467 4.7,476.3 4.7,467.6 				"/>
			</g>
			<g>
				<polygon class="st14" points="293.1,462.8 293.1,471.5 290,476.4 290,467.7 				"/>
			</g>
			<g>
				<polygon class="st4" points="289.4,466.8 289.4,475.5 286,476.5 286,467.8 				"/>
			</g>
			<g>
				<polygon class="st2" points="171.2,462 171.2,470.7 166,476.7 166,468 				"/>
			</g>
			<g>
				<polygon class="st1" points="290,467.7 290,476.4 286.1,477.5 286.1,468.8 				"/>
			</g>
			<g>
				<polygon class="st4" points="286,467.8 286,476.5 251.1,477.8 251.1,469.1 				"/>
			</g>
			<g>
				<polygon class="st1" points="286.1,468.8 286.1,477.5 251.3,478.7 251.3,470.1 				"/>
			</g>
			<g>
				<polygon class="st4" points="238.2,471.1 238.2,479.7 229.3,468.3 229.3,459.6 				"/>
			</g>
			<g>
				<polygon class="st28" points="165.3,467.4 165.3,476.1 162.4,479.8 162.4,471.1 				"/>
			</g>
			<g>
				<polygon class="st2" points="166,468 166,476.7 163.4,480.1 163.4,471.4 				"/>
			</g>
			<g>
				<polygon class="st1" points="237.6,471.9 237.6,480.6 228.6,468.9 228.6,460.2 				"/>
			</g>
			<g>
				<polygon class="st29" points="115.9,460.7 115.9,469.4 114.2,481.2 114.2,472.6 				"/>
			</g>
			<g>
				<polygon class="st13" points="116.9,460.9 116.9,469.5 115.2,481.7 115.2,473 				"/>
			</g>
			<g>
				<polygon class="st4" points="251.1,469.1 251.1,477.8 243.2,481.7 243.2,473 				"/>
			</g>
			<g>
				<polygon class="st4" points="243.2,473 243.2,481.7 238.2,479.7 238.2,471.1 				"/>
			</g>
			<g>
				<polygon class="st1" points="243.3,474.1 243.3,482.8 237.6,480.6 237.6,471.9 				"/>
			</g>
			<g>
				<polygon class="st1" points="251.3,470.1 251.3,478.7 243.3,482.8 243.3,474.1 				"/>
			</g>
			<g>
				<polygon class="st3" points="4.7,467.6 4.7,476.3 2.9,483.2 2.9,474.6 				"/>
			</g>
			<g>
				<polygon class="st4" points="145.6,474.7 145.6,483.4 141.9,472.5 141.9,463.8 				"/>
			</g>
			<g>
				<polygon class="st1" points="144.8,475.3 144.8,484 140.9,472.7 140.9,464.1 				"/>
			</g>
			<g>
				<polygon class="st16" points="114.2,472.6 114.2,481.2 111.3,486.1 111.3,477.4 				"/>
			</g>
			<g>
				<polygon class="st14" points="115.2,473 115.2,481.7 112.1,486.8 112.1,478.1 				"/>
			</g>
			<g class="st0">
				<g>
					<g>
						<defs>
							<path id="SVGID_00000031168057405937789960000000084162316949966992_" d="M7.9,487.4c-0.2-0.1-0.4-0.1-0.6-0.1v-8.7
								c0.2,0,0.3,0,0.6,0.1c0,0.1,0,0.2,0,0.3s0,0.2,0,0.3s0,0.2,0,0.3s0,0.2,0,0.3s0,0.2,0,0.3s0,0.2,0,0.3s0,0.2,0,0.3
								s0,0.2,0,0.3c0,0.2,0,0.5,0,0.8c0,0.2,0,0.6,0,0.8c0,0.3,0,0.6,0,0.8c0,0.3,0,0.6,0,0.8c0,0.3,0,0.6,0,0.8c0,0.3,0,0.6,0,0.8
								s0,0.6,0,0.8C7.9,486.9,7.9,487.2,7.9,487.4z"/>
						</defs>
						<clipPath id="SVGID_00000077305743578078508340000010031517246276912273_">
							<use xlink:href="#SVGID_00000031168057405937789960000000084162316949966992_"  style="overflow:visible;"/>
						</clipPath>
						<g style="clip-path:url(#SVGID_00000077305743578078508340000010031517246276912273_);enable-background:new    ;">
							<path class="st6" d="M13.3,482.8v8.7c-0.2-0.4-0.2-0.4-2.3-2.1c-2-1.7-3.1-2.1-3.7-2.1v-8.7c0.6,0,1.6,0.4,3.7,2.1
								C13.1,482.5,13.1,482.5,13.3,482.8"/>
						</g>
					</g>
				</g>
			</g>
			<g>
				<polygon class="st19" points="162.4,471.1 162.4,479.8 162.2,487.8 162.2,479.1 				"/>
			</g>
			<g>
				<polygon class="st26" points="111.3,477.4 111.3,486.1 109.4,487.9 109.4,479.2 				"/>
			</g>
			<g>
				<polygon class="st13" points="163.4,471.4 163.4,480.1 163.2,488 163.2,479.4 				"/>
			</g>
			<g>
				<polygon class="st4" points="109.4,479.2 109.4,487.9 102.8,488.7 102.8,480 				"/>
			</g>
			<g>
				<polygon class="st2" points="112.1,478.1 112.1,486.8 109.8,488.8 109.8,480.1 				"/>
			</g>
			<g>
				<polygon class="st1" points="109.8,480.1 109.8,488.8 103.2,489.6 103.2,481 				"/>
			</g>
			<g>
				<polygon class="st27" points="7.4,478.6 7.4,487.3 2.9,489.9 2.9,481.2 				"/>
			</g>
			<g>
				<polygon class="st4" points="155,482.7 155,491.4 145.6,483.4 145.6,474.7 				"/>
			</g>
			<g>
				<polygon class="st1" points="7.4,479.6 7.4,488.3 1.9,491.5 1.9,482.8 				"/>
			</g>
			<g class="st0">
				<g>
					<g>
						<defs>
							<path id="SVGID_00000047022659347756905910000017544202524801129088_" d="M7.9,487.4c0-0.2,0-0.5,0-0.8c0-0.2,0-0.6,0-0.8
								c0-0.3,0-0.6,0-0.8c0-0.3,0-0.6,0-0.8c0-0.3,0-0.6,0-0.8s0-0.6,0-0.8s0-0.6,0-0.8s0-0.5,0-0.8c0-0.1,0-0.2,0-0.3s0-0.2,0-0.3
								s0-0.2,0-0.3s0-0.2,0-0.3s0-0.2,0-0.3s0-0.2,0-0.3s0-0.2,0-0.3s0-0.2,0-0.3c0.6,0.2,1.6,0.8,3.1,2c2.1,1.7,2.1,1.7,2.3,2.1
								c0,0.3,0,0.7,0,1s0,0.8,0,1.1s0,0.8,0,1.1s0,0.8,0,1.1s0,0.8,0,1.1s0,0.8,0,1.1s0,0.8,0,1.1s0,0.7,0,1c0-0.3,0-0.7,0-1
								s0-0.8,0-1.1s0-0.8,0-1.1s0-0.8,0-1.1s0-0.8,0-1.1s0-0.8,0-1.1s0-0.8,0-1.1s0-0.7,0-1l0,0v8.7c-0.2-0.4-0.2-0.4-2.3-2.1
								C9.5,488.2,8.6,487.6,7.9,487.4z"/>
						</defs>
						<clipPath id="SVGID_00000012470368800143238650000012351204736075278251_">
							<use xlink:href="#SVGID_00000047022659347756905910000017544202524801129088_"  style="overflow:visible;"/>
						</clipPath>
						<g style="clip-path:url(#SVGID_00000012470368800143238650000012351204736075278251_);enable-background:new    ;">
							<path class="st6" d="M13.3,482.8v8.7c-0.2-0.4-0.2-0.4-2.3-2.1c-2-1.7-3.1-2.1-3.7-2.1v-8.7c0.6,0,1.6,0.4,3.7,2.1
								C13.1,482.5,13.1,482.5,13.3,482.8"/>
						</g>
					</g>
				</g>
			</g>
			<g>
				<polygon class="st4" points="160,482.9 160,491.6 155,491.4 155,482.7 				"/>
			</g>
			<g>
				<polygon class="st16" points="162.2,479.1 162.2,487.8 160,491.6 160,482.9 				"/>
			</g>
			<g class="st0">
				<g>
					<g>
						<defs>
							<path id="SVGID_00000018955730481987674290000005481363144285926833_" d="M12.4,483.3v8.7c-0.1-0.2-0.2-0.2-2-1.8
								c-2.1-1.8-2.9-1.9-3-1.9v-8.7c0.2,0,0.9,0.1,3,1.9C12.3,483,12.3,483.1,12.4,483.3z"/>
						</defs>
						<clipPath id="SVGID_00000101082750399308296470000015387221633174754708_">
							<use xlink:href="#SVGID_00000018955730481987674290000005481363144285926833_"  style="overflow:visible;"/>
						</clipPath>
						<g style="clip-path:url(#SVGID_00000101082750399308296470000015387221633174754708_);enable-background:new    ;">
							<path class="st2" d="M12.4,483.3v8.7c-0.1-0.2-0.2-0.2-2-1.8c-2.1-1.8-2.9-1.9-3-1.9v-8.7c0.2,0,0.9,0.1,3,1.9
								C12.3,483,12.3,483.1,12.4,483.3"/>
						</g>
					</g>
				</g>
			</g>
			<g>
				<polygon class="st1" points="154.6,483.7 154.6,492.4 144.8,484 144.8,475.3 				"/>
			</g>
			<g>
				<polygon class="st1" points="160.6,483.9 160.6,492.6 154.6,492.4 154.6,483.7 				"/>
			</g>
			<g>
				<polygon class="st3" points="163.2,479.4 163.2,488 160.6,492.6 160.6,483.9 				"/>
			</g>
			<g>
				<polygon class="st4" points="41.7,484.7 41.7,493.4 37.2,491.8 37.2,483.1 				"/>
			</g>
			<g>
				<polygon class="st1" points="41.2,485.5 41.2,494.2 37.5,492.9 37.5,484.2 				"/>
			</g>
			<g>
				<polygon class="st6" points="102.8,480 102.8,488.7 96.4,495.1 96.4,486.5 				"/>
			</g>
			<g>
				<polygon class="st26" points="37.2,483.1 37.2,491.8 33,495.5 33,486.8 				"/>
			</g>
			<g>
				<polygon class="st2" points="103.2,481 103.2,489.6 97.2,495.8 97.2,487.1 				"/>
			</g>
			<g>
				<polygon class="st2" points="37.5,484.2 37.5,492.9 34,496 34,487.3 				"/>
			</g>
			<g>
				<polygon class="st4" points="47.4,488.2 47.4,496.9 41.7,493.4 41.7,484.7 				"/>
			</g>
			<g>
				<polygon class="st1" points="46.9,489.1 46.9,497.8 41.2,494.2 41.2,485.5 				"/>
			</g>
			<g>
				<polygon class="st4" points="53.9,490.3 53.9,499 47.4,496.9 47.4,488.2 				"/>
			</g>
			<g class="st0">
				<g>
					<g>
						<defs>
							<path id="SVGID_00000023280507480181725380000009098767879529815180_" d="M20.2,491.1v8.7c-0.1-0.5-0.8-1.6-4-4.9
								c-2.5-2.7-2.8-3.2-2.9-3.4v-8.7c0.1,0.2,0.4,0.7,2.9,3.4C19.3,489.6,20.1,490.6,20.2,491.1z"/>
						</defs>
						<clipPath id="SVGID_00000176008597295100666190000008575964998202882997_">
							<use xlink:href="#SVGID_00000023280507480181725380000009098767879529815180_"  style="overflow:visible;"/>
						</clipPath>
						<g style="clip-path:url(#SVGID_00000176008597295100666190000008575964998202882997_);enable-background:new    ;">
							<path class="st6" d="M20.2,491.1v8.7c-0.1-0.5-0.8-1.6-4-4.9c-2.5-2.7-2.8-3.2-2.9-3.4v-8.7c0.1,0.2,0.4,0.7,2.9,3.4
								C19.3,489.6,20.1,490.6,20.2,491.1"/>
						</g>
					</g>
				</g>
			</g>
			<g class="st0">
				<g>
					<g>
						<defs>
							<path id="SVGID_00000030465367387592194080000013887290487869695162_" d="M19.6,491v8.7c0-0.1-0.1-0.1-0.1-0.2v-8.7
								C19.5,490.8,19.5,490.9,19.6,491z"/>
						</defs>
						<clipPath id="SVGID_00000150066368341152922680000016859657312640528561_">
							<use xlink:href="#SVGID_00000030465367387592194080000013887290487869695162_"  style="overflow:visible;"/>
						</clipPath>
						<g style="clip-path:url(#SVGID_00000150066368341152922680000016859657312640528561_);enable-background:new    ;">
							<path class="st6" d="M19.6,491v8.7c0-0.1-0.1-0.1-0.1-0.2v-8.7C19.5,490.8,19.5,490.9,19.6,491"/>
						</g>
					</g>
				</g>
			</g>
			<g>
				<polygon class="st15" points="19.7,490.8 19.7,499.5 19.6,499.6 19.6,491 				"/>
			</g>
			<g>
				<path class="st35" d="M19.5,490.8h0.1h0.1l-0.1,0.2C19.5,490.9,19.5,490.8,19.5,490.8z"/>
			</g>
			<g>
				<polygon class="st1" points="53.6,491.2 53.6,499.9 46.9,497.8 46.9,489.1 				"/>
			</g>
			<g class="st0">
				<g>
					<g>
						<defs>
							<path id="SVGID_00000008827084424609271800000009366335347759440029_" d="M33.1,496.8c0,1.7-0.6,2.5-1.6,3.3c0-0.3,0-0.7,0-1
								s0-0.8,0-1.1s0-0.8,0-1.1s0-0.8,0-1.1s0-0.8,0-1.1s0-0.8,0-1.1s0-0.8,0-1.1s0-0.7,0-1c1-0.8,1.6-1.7,1.6-3.3
								C33.1,490.7,33.1,494.2,33.1,496.8z"/>
						</defs>
						<clipPath id="SVGID_00000166667960032012290100000009194984868562611384_">
							<use xlink:href="#SVGID_00000008827084424609271800000009366335347759440029_"  style="overflow:visible;"/>
						</clipPath>
						<g style="clip-path:url(#SVGID_00000166667960032012290100000009194984868562611384_);enable-background:new    ;">
							<path class="st37" d="M33.1,488.1v8.7c0,0.4,0,0.8-0.1,1.1v-8.7C33,488.9,33.1,488.5,33.1,488.1"/>
							<path class="st38" d="M33,489.2v8.7c-0.1,0.3-0.1,0.5-0.2,0.7v-8.7C32.8,489.7,32.9,489.5,33,489.2"/>
							<path class="st16" d="M32.7,489.9v8.7c-0.1,0.3-0.3,0.5-0.4,0.7v-8.7C32.5,490.4,32.6,490.2,32.7,489.9"/>
							<path class="st6" d="M32.3,490.6v8.7c-0.2,0.3-0.5,0.5-0.8,0.8c-0.4,0.3-0.7,0.6-0.9,0.9v-8.7c0.2-0.3,0.5-0.6,0.9-0.9
								C31.8,491.2,32.1,490.9,32.3,490.6"/>
						</g>
					</g>
				</g>
			</g>
			<g class="st0">
				<g>
					<g>
						<defs>
							<path id="SVGID_00000012464682109881473670000010134402957848092032_" d="M19.1,491.6v8.7c0-0.4-0.4-1.1-3.7-4.7
								c-2.6-2.8-2.9-3.3-3-3.6v-8.7c0.1,0.3,0.4,0.9,3,3.6C18.8,490.5,19.1,491.1,19.1,491.6z"/>
						</defs>
						<clipPath id="SVGID_00000134212032237370436430000000613573697230145458_">
							<use xlink:href="#SVGID_00000012464682109881473670000010134402957848092032_"  style="overflow:visible;"/>
						</clipPath>
						<g style="clip-path:url(#SVGID_00000134212032237370436430000000613573697230145458_);enable-background:new    ;">
							<path class="st2" d="M19.1,491.6v8.7c0-0.4-0.4-1.1-3.7-4.7c-2.6-2.8-2.9-3.3-3-3.6v-8.7c0.1,0.3,0.4,0.9,3,3.6
								C18.8,490.5,19.1,491.1,19.1,491.6"/>
						</g>
					</g>
				</g>
			</g>
			<g>
				<polygon class="st4" points="62.1,492.2 62.1,500.9 53.9,499 53.9,490.3 				"/>
			</g>
			<g class="st0">
				<g>
					<g>
						<defs>
							<path id="SVGID_00000182530118639336064760000008110233752614072243_" d="M96.4,486.5v8.7c-0.1,0.1-2,2.2-3.7,5.8v-8.7
								C94.5,488.7,96.4,486.5,96.4,486.5z"/>
						</defs>
						<clipPath id="SVGID_00000183222605355890346500000014997150412722726286_">
							<use xlink:href="#SVGID_00000182530118639336064760000008110233752614072243_"  style="overflow:visible;"/>
						</clipPath>
						<g style="clip-path:url(#SVGID_00000183222605355890346500000014997150412722726286_);enable-background:new    ;">
							<path class="st6" d="M96.4,486.5v8.7c0,0-0.2,0.2-0.5,0.6v-8.7C96.2,486.7,96.4,486.5,96.4,486.5"/>
							<path class="st16" d="M95.9,487.1v8.7c-0.7,0.9-2,2.7-3.2,5.2v-8.7C93.9,489.7,95.3,487.9,95.9,487.1"/>
						</g>
					</g>
				</g>
			</g>
			<g class="st0">
				<g>
					<g>
						<defs>
							<path id="SVGID_00000163755308295251012930000003352334406259996048_" d="M97.2,487.1v8.7c0,0-1.9,2.1-3.5,5.5v-8.7
								C95.3,489.2,97.2,487.1,97.2,487.1z"/>
						</defs>
						<clipPath id="SVGID_00000087379930290305816080000004322304306431651733_">
							<use xlink:href="#SVGID_00000163755308295251012930000003352334406259996048_"  style="overflow:visible;"/>
						</clipPath>
						<g style="clip-path:url(#SVGID_00000087379930290305816080000004322304306431651733_);enable-background:new    ;">
							<path class="st2" d="M97.2,487.1v8.7c0,0-0.2,0.2-0.5,0.5v-8.7C97,487.3,97.2,487.1,97.2,487.1"/>
							<path class="st14" d="M96.7,487.7v8.7c-0.7,0.8-1.9,2.6-3.1,5v-8.7C94.8,490.2,96.1,488.5,96.7,487.7"/>
						</g>
					</g>
				</g>
			</g>
			<g>
				<polygon class="st1" points="61.7,493.1 61.7,501.8 53.6,499.9 53.6,491.2 				"/>
			</g>
			<g class="st0">
				<g>
					<g>
						<defs>
							<path id="SVGID_00000021087702299845787980000005295449823100952716_" d="M31.5,500.1c-1.2,1-1.5,1.8-1.5,2.4v-8.7
								c0-0.6,0.3-1.4,1.5-2.4c0,0.3,0,0.7,0,1s0,0.8,0,1.1s0,0.8,0,1.1s0,0.8,0,1.1s0,0.8,0,1.1s0,0.8,0,1.1s0,0.8,0,1.1
								C31.5,499.4,31.5,499.8,31.5,500.1z"/>
						</defs>
						<clipPath id="SVGID_00000000913562128344282740000012735485310424648630_">
							<use xlink:href="#SVGID_00000021087702299845787980000005295449823100952716_"  style="overflow:visible;"/>
						</clipPath>
						<g style="clip-path:url(#SVGID_00000000913562128344282740000012735485310424648630_);enable-background:new    ;">
							<path class="st6" d="M32.3,490.6v8.7c-0.2,0.3-0.5,0.5-0.8,0.8c-0.4,0.3-0.7,0.6-0.9,0.9v-8.7c0.2-0.3,0.5-0.6,0.9-0.9
								C31.8,491.2,32.1,490.9,32.3,490.6"/>
							<path class="st16" d="M30.6,492.3v8.7c-0.2,0.2-0.3,0.5-0.4,0.7V493C30.3,492.8,30.4,492.6,30.6,492.3"/>
							<path class="st38" d="M30.2,493v8.7c-0.1,0.2-0.1,0.3-0.2,0.5v-8.7C30,493.3,30.1,493.2,30.2,493"/>
							<path class="st37" d="M30,493.5v8.7c0,0.1,0,0.3,0,0.4v-8.7C30,493.8,30,493.6,30,493.5"/>
						</g>
					</g>
				</g>
			</g>
			<g class="st0">
				<g>
					<g>
						<defs>
							<path id="SVGID_00000083080575976411321340000015158519658270916245_" d="M31,502.6v-8.7c0-0.3,0.2-0.9,1.2-1.7
								c1.4-1.3,2.2-2.5,2.2-3.6v8.7c0,1.2-0.7,2.4-2.2,3.6C31.2,501.7,31,502.2,31,502.6z"/>
						</defs>
						<clipPath id="SVGID_00000165913663264028592860000017728793588055621788_">
							<use xlink:href="#SVGID_00000083080575976411321340000015158519658270916245_"  style="overflow:visible;"/>
						</clipPath>
						<g style="clip-path:url(#SVGID_00000165913663264028592860000017728793588055621788_);enable-background:new    ;">
							<path class="st13" d="M34.3,488.6v8.7c0,0.2,0,0.4-0.1,0.6v-8.7C34.3,489,34.3,488.8,34.3,488.6"/>
							<path class="st3" d="M34.3,489.2v8.7c-0.1,0.2-0.1,0.5-0.3,0.7v-8.7C34.1,489.7,34.2,489.4,34.3,489.2"/>
							<path class="st14" d="M34,489.9v8.7c-0.2,0.3-0.4,0.7-0.7,1V491C33.6,490.6,33.9,490.2,34,489.9"/>
							<path class="st2" d="M33.4,491v8.7c-0.3,0.4-0.7,0.8-1.2,1.2c-0.3,0.3-0.6,0.6-0.8,0.8V493c0.2-0.2,0.4-0.5,0.8-0.8
								C32.6,491.8,33,491.4,33.4,491"/>
							<path class="st14" d="M31.4,493v8.7c-0.1,0.2-0.2,0.3-0.3,0.5v-8.7C31.1,493.3,31.2,493.2,31.4,493"/>
							<path class="st3" d="M31.1,493.4v8.7c0,0.1-0.1,0.2-0.1,0.3v-8.7C31,493.6,31,493.5,31.1,493.4"/>
							<path class="st13" d="M31,493.7v8.7c0,0.1,0,0.1,0,0.2v-8.7C31,493.8,31,493.8,31,493.7"/>
						</g>
					</g>
				</g>
			</g>
			<g>
				<polygon class="st4" points="23.9,494.1 23.9,502.7 20.2,499.8 20.2,491.1 				"/>
			</g>
			<g>
				<polygon class="st4" points="28.4,494.3 28.4,503 23.9,502.7 23.9,494.1 				"/>
			</g>
			<g class="st0">
				<g>
					<g>
						<defs>
							<path id="SVGID_00000047057964382933867140000010975609231398148495_" d="M29.1,503c0-0.1,0-0.2,0-0.3s0-0.3,0-0.4
								s0-0.3,0-0.4s0-0.3,0-0.4s0-0.3,0-0.4s0-0.3,0-0.4s0-0.3,0-0.4s0-0.2,0-0.3c0-0.2,0-0.5,0-0.7s0-0.5,0-0.7s0-0.5,0-0.7
								s0-0.5,0-0.8c0-0.2,0-0.5,0-0.8c0-0.2,0-0.5,0-0.7s0-0.5,0-0.7s0-0.5,0-0.7c0.4,0,0.7,0,0.9,0v8.7
								C29.8,503,29.5,503,29.1,503z"/>
						</defs>
						<clipPath id="SVGID_00000014620601028026286810000007980927919422308016_">
							<use xlink:href="#SVGID_00000047057964382933867140000010975609231398148495_"  style="overflow:visible;"/>
						</clipPath>
						<g style="clip-path:url(#SVGID_00000014620601028026286810000007980927919422308016_);enable-background:new    ;">
							<path class="st6" d="M30,494.3v8.7c-0.4,0-0.9,0-1.6-0.1v-8.7C29.1,494.3,29.7,494.3,30,494.3"/>
						</g>
					</g>
				</g>
			</g>
			<g>
				<polygon class="st1" points="23.5,495 23.5,503.7 19.1,500.3 19.1,491.6 				"/>
			</g>
			<g>
				<polygon class="st1" points="28.4,495.3 28.4,503.9 23.5,503.7 23.5,495 				"/>
			</g>
			<g class="st0">
				<g>
					<g>
						<defs>
							<path id="SVGID_00000079487908332506639500000018261292439762866569_" d="M31,494.3v8.7c-1.4,1-1.9,1-2.7,1v-8.7
								C29.2,495.3,29.7,495.3,31,494.3z"/>
						</defs>
						<clipPath id="SVGID_00000145036262175608785320000001013330345092930990_">
							<use xlink:href="#SVGID_00000079487908332506639500000018261292439762866569_"  style="overflow:visible;"/>
						</clipPath>
						<g style="clip-path:url(#SVGID_00000145036262175608785320000001013330345092930990_);enable-background:new    ;">
							<path class="st2" d="M31,494.3v8.7c-1.4,1-1.9,1-2.7,1v-8.7C29.2,495.3,29.7,495.3,31,494.3"/>
						</g>
					</g>
				</g>
			</g>
			<g>
				<polygon class="st20" points="92.7,492.2 92.7,500.9 91.1,504.3 91.1,495.6 				"/>
			</g>
			<g>
				<polygon class="st3" points="93.6,492.7 93.6,501.3 91.8,505.1 91.8,496.4 				"/>
			</g>
			<g>
				<polygon class="st4" points="70.1,496.8 70.1,505.5 62.1,500.9 62.1,492.2 				"/>
			</g>
			<g>
				<polygon class="st4" points="91.1,495.6 91.1,504.3 86.3,505.7 86.3,497 				"/>
			</g>
			<g>
				<polygon class="st1" points="69.7,497.7 69.7,506.4 61.7,501.8 61.7,493.1 				"/>
			</g>
			<g>
				<polygon class="st1" points="91.8,496.4 91.8,505.1 86.5,506.6 86.5,498 				"/>
			</g>
			<g>
				<path class="st35" d="M364.7,426.2l0.4,16.2l-1.2,5.1l-3.4,4l-7.2,1.6l-8.1-0.6l-7.3-3.3l-7.6-5l-3.9-5.1l-3.5-1.4l-5,1.1
					l-3.1,3.3l-8.5,12.1l-3.5,3.2l-5.2,1.2l-5.1,3.2l-3,4.8l-3.4,1l-34.9,1.3l-7.9,3.9l-5-2l-8.9-11.5l-11.1-11.8L213,445l-5.3-3.3
					l-4.7,1.6l-3.3,5.1l-6.8-1.8l-7.1-4.3l-3.6-3.5l-6.4,1.8l-3.6,4.9l-1.9,16.1l-5,5.8l-2.9,3.7l-0.2,8l-2.1,3.8l-5.1-0.2l-9.4-8
					l-3.8-10.9l-2.4-11.6l-2.6-7.3l-3.6-4.9l-6.5-0.7l-4.5,2L119,446l-3.1,14.7l-1.7,11.9l-2.9,4.9l-2,1.7l-6.6,0.8l-6.3,6.4
					c-0.1,0.1-2,2.2-3.7,5.8l-1.6,3.4l-4.9,1.4l-6.9,1.4l-9.2-1.6l-8-4.6l-8.2-1.9l-6.5-2.1l-5.7-3.5l-4.4-1.6l-4.3,3.8
					c0.4,2.6-0.3,3.6-1.5,4.6c-1.4,1.3-1.6,2.2-1.5,2.9c-0.4,0-0.9,0-1.6-0.1l-4.5-0.2l-3.7-2.9c-0.1-0.5-0.8-1.6-4-4.9
					c-2.5-2.7-2.8-3.2-2.9-3.4c-0.2-0.4-0.2-0.4-2.3-2.1c-2-1.7-3.1-2.1-3.7-2.1l-4.4,2.5v-6.6l1.8-6.9l0.6-9.3L1.8,451l2.2-4.9
					l5.2-6.8L15,433l2.4-5.3l3.5-4.6l2.5-7.2l-2.9-6.4l0.5-7.1l4-2.8l2.4-9l-3.6-5.9l-2.8-5l1.7-6.6l4.6-4l4.2-4.7v-8.1l3.4-4.5
					l4.7-8.7v-10.4l1.7-5.7l1.7-7.9l4.1-5.2l0.6-9.4l-1.7-7.3l2.8-4.4l5.2-5.7l4.2-2.9l1.8-5.9l2.1-3.7l8.3,1.6L78,282l10.6,1.7
					l8.4,1.8l4.9-3.6l4.7-5.2l5.8-4.6l4.4-3.1l-1.9-7.9l-4.6-4.5l2.9-7.3l-1.2-9.6l-7.8-3.5l-8.5-5.6l0.6-5.6l-2.3-4.6l-0.6-9
					l1.7-5.2l1.8-9.2l-0.6-14.4l0.6-5.1l1.7-7.9l5.7-7.3l8-4.5l8.1-1.5l6.4-3.1l5.7-0.4l2.5-3.8l11.3,0.2l7.8-0.6l6.5-4.5l5.7-7.6
					l1.9-13.2l2.8-2.3l0.4-14.1l6.1-8l26-21.6L217.4,62l2.5-6.1l1.7-8.9l-0.2-8.4l-2.4-6.4l-1.5-6l1.2-3.7l2.1-2l2,0.4l5.8,4.1
					l6.2,5.3l4.4,3.1l3.6,6.8l3.5,3.9l5.1,3.9l6.6-1.8l3.4-4.8c0.5-0.2,1.9-0.7,2.2-1.9c0.3-1-0.3-2.1-1.7-3.3c-2-1.7-2.3-1.9-2.5-2
					c-0.1,0-0.4-0.4-1.3-1.3l-2.3-2.5l1-2.2l3.8-0.6l3.6,2l6.4,7.5l5.9,6.2l6.2,1.1l4.1,0.4l6.4,5.5l5.2,5.8l1.7,10.4l5.6,9.4
					l11.1,22.9l12.4,21.4l3.4,5.2l3.6,3.6l2.7,3.5l1.8,3.9l-4.6,6.3l-7.8,13.6l-6.7,0.8l-10.5,8.7l-3.4,4.6l-8.7,4.5l-0.7,6.8
					l3.9,3.4v5l-0.2,6.8l-2.3,4.9l-2,2.4l0.2,7.4l3.4,1.9l-0.6,15l3.1,4.1l1.8,1.6l-0.4,6.1l-3.2,3.4l-0.6,11.1l-3.2,3.8l-1.2,11.7
					l5.8-2.3l9.1,5.8l-0.4,3.6l-3.4,7.9l-0.5,4.2l-1.7,2.5l-2.6,5.3l-1.8,5l4.8,8.5l1.3,6.7l2.4,6.4l4.2,2.8l7.3,2.1l5.2,4.5
					l4.8,4.9l-0.2,10.4l1.3,3l0.2,5.1l-0.6,6.6l-1.7,3.6l0.4,9.9l-0.9,12.5l0.6,7.1l3.1,4.3l10.8,7.5l10.9,3.8l4.1,5.3l3.6,5.6
					L364.7,426.2z"/>
			</g>
			<g>
				<polygon class="st4" points="79.3,498.5 79.3,507.1 70.1,505.5 70.1,496.8 				"/>
			</g>
			<g>
				<polygon class="st4" points="86.3,497 86.3,505.7 79.3,507.1 79.3,498.5 				"/>
			</g>
			<g>
				<polygon class="st1" points="79.4,499.5 79.4,508.1 69.7,506.4 69.7,497.7 				"/>
			</g>
			<g>
				<polygon class="st1" points="86.5,498 86.5,506.6 79.4,508.1 79.4,499.5 				"/>
			</g>
			<g>
				<path class="st46" d="M365.6,426.1l0.4,16.4l-1.3,5.4l-3.8,4.4l-7.7,1.7l-8.6-0.7l-7.5-3.4l-7.9-5.2l-3.8-4.9l-2.9-1.2l-4.4,1
					l-2.9,3l-8.5,12.2l-3.7,3.4l-5.4,1.3l-4.7,3l-3,4.9l-3.9,1.1l-34.8,1.3l-8,4l-5.7-2.2l-9-11.7l-11-11.7l-5-2.7l-4.9-3l-3.9,1.3
					l-3.5,5.4l-7.7-2l-7.3-4.5l-3.2-3.2l-5.5,1.6l-3.2,4.4l-1.9,16.2l-5.2,6l-2.7,3.4l-0.2,7.9l-2.5,4.6l-6-0.2L145,475l-3.9-11.2
					l-2.4-11.6l-2.5-7.2l-3.2-4.4l-5.8-0.6l-4,1.8l-3.1,4.4l-3,14.4l-1.8,12.1l-3.1,5.2l-2.2,2l-6.6,0.8l-6.1,6.2
					c0,0-1.9,2.1-3.5,5.5l-1.8,3.8l-5.3,1.5l-7.2,1.5l-9.6-1.8l-8-4.6l-8-1.9l-6.8-2.2l-5.7-3.5l-3.7-1.3l-3.5,3.1
					c0.2,0.3,0.4,0.7,0.4,1.3c0,1.2-0.7,2.4-2.2,3.6c-1.4,1.2-1.2,1.8-1.1,2.1c-1.4,1-1.9,1-2.7,1l-4.9-0.2l-4.4-3.5
					c0-0.4-0.4-1.1-3.7-4.7c-2.6-2.8-2.9-3.3-3-3.6c-0.1-0.2-0.2-0.2-2-1.8c-2.1-1.8-2.9-1.9-3-1.9l-5.4,3.2v-8.4l1.7-6.9l0.6-9
					L1,450.6l2.5-5.5l5.3-6.9l5.8-6.3l2.4-5.2l3.5-4.5l2.2-6.6l-2.9-6.3l0.6-7.8l4.1-2.9l2.2-8.3L23,385l-3-5.4l1.8-7.2l4.8-4.1
					l3.9-4.4v-8l3.6-4.7l4.6-8.5v-10.4l1.8-5.8l1.8-8.2l4-5.1l0.6-9l-1.8-7.6l3-4.8l5.4-5.9l4-2.8l1.7-5.7l2.5-4.3l9.2,1.8l7.6,5.8
					l10.4,1.7l8,1.7l4.5-3.3l4.6-5.1l5.9-4.7l3.8-2.7l-1.6-7l-4.8-4.7l3-7.7l-1.1-8.8l-7.3-3.3l-9.1-6l0.6-5.9l-2.3-4.7l-0.6-9.3
					l1.8-5.3l1.7-9.1l-0.6-14.3L96,177l1.9-8.3l6-7.6l8.3-4.7l8.1-1.5l6.5-3.2l5.3-0.4l2.6-3.8l11.8,0.2l7.5-0.6l6.2-4.3l5.4-7.2
					l1.9-13.3l2.7-2.3l0.4-14l6.4-8.4L203,76l13.7-15.2L219,55l1.7-8.7l-0.2-8.3l-2.3-6.2l-1.5-6.3l1.4-4.2l2.6-2.6l2.8,0.6l6,4.2
					l6.2,5.3l4.5,3.2l3.6,7l3.4,3.7l4.6,3.6l5.8-1.6l3.4-4.8c0.6-0.1,1.6-0.6,1.8-1.3c0.2-0.6-0.3-1.4-1.4-2.3
					c-1.9-1.6-2.2-1.8-2.3-1.8c-0.2-0.1-0.2-0.1-1.6-1.5l-2.8-3l1.5-3.3l4.7-0.7l4.1,2.3l6.4,7.6l5.6,5.9l5.8,1l4.4,0.4l6.7,5.8
					l5.5,6l1.7,10.5l5.5,9.2l11.1,22.9L330,119l3.4,5.2l3.6,3.5l2.9,3.7l2,4.5l-4.9,6.7l-8,14l-6.9,0.9L312,166l-3.4,4.7l-8.4,4.3
					l-0.6,5.8l3.8,3.3v5.5l-0.3,7.1l-2.4,5.1l-1.8,2.2l0.2,6.5l3.4,1.9l-0.6,15.2l2.8,3.8l2.1,1.8l-0.4,6.9l-3.2,3.4l-0.6,11.1
					l-3.2,3.8l-1,9.8l4.8-1.9l10.1,6.4l-0.5,4.4l-3.4,7.9l-0.4,4.2l-1.8,2.6l-2.5,5.2l-1.6,4.6l4.6,8.3l1.3,6.7l2.3,6.1l3.8,2.6
					l7.4,2.2l5.3,4.6l5.1,5.2l-0.2,10.6l1.3,3l0.2,5.2l-0.7,6.9l-1.7,3.5l0.4,9.7l-0.9,12.4l0.6,6.7l2.9,4l10.5,7.2l10.9,3.8
					l4.4,5.6l3.7,5.8L365.6,426.1z M363.8,447.5l1.2-5.1l-0.4-16.2l-1.2-3.9l-3.6-5.6l-4.1-5.3l-10.9-3.8l-10.8-7.5l-3.1-4.3
					l-0.6-7.1l0.9-12.5l-0.4-9.9l1.7-3.6l0.6-6.6l-0.2-5.1l-1.3-3l0.2-10.4l-4.8-4.9l-5.2-4.5l-7.3-2.1l-4.2-2.8l-2.4-6.4l-1.3-6.7
					l-4.8-8.5l1.8-5l2.6-5.3l1.7-2.5l0.4-4.2l3.4-7.9l0.4-3.6l-9.1-5.8l-5.8,2.3l1.2-11.7l3.2-3.8l0.6-11.1l3.2-3.4l0.4-6.1L304,232
					l-3.1-4.1l0.6-15l-3.4-1.9l-0.2-7.4l2-2.4l2.3-4.9l0.2-6.8v-5l-3.9-3.4l0.7-6.8l8.7-4.5l3.4-4.6l10.5-8.7l6.7-0.8l7.8-13.6
					l4.6-6.3l-1.8-3.9l-2.7-3.5l-3.6-3.6l-3.4-5.2L317,98.1l-11.1-22.9l-5.6-9.4l-1.7-10.4l-5.2-5.8l-6.4-5.5l-4.1-0.4l-6.2-1.1
					l-5.9-6.2l-6.4-7.5l-3.6-2l-3.8,0.6l-1,2.2l2.3,2.5c0.8,0.9,1.2,1.3,1.3,1.3c0.2,0.1,0.6,0.3,2.5,2c1.4,1.2,2,2.3,1.7,3.3
					c-0.3,1.2-1.7,1.7-2.2,1.9l-3.4,4.8l-6.6,1.8l-5.1-3.9l-3.5-3.9l-3.6-6.8l-4.4-3.1l-6.2-5.3l-5.8-4.1l-2-0.4l-2.1,2l-1.2,3.7
					l1.5,6l2.4,6.4l0.2,8.4l-1.7,8.9l-2.5,6.1l-13.9,15.3l-26,21.6l-6.1,8l-0.4,14.1l-2.8,2.3l-1.9,13.2l-5.7,7.6l-6.5,4.5l-7.8,0.6
					l-11.3-0.2l-2.5,3.8l-5.7,0.4l-6.4,3.1l-8.1,1.5l-8,4.5l-5.7,7.3l-1.7,7.9l-0.6,5.1l0.6,14.4l-1.8,9.3l-1.7,5.1l0.6,9l2.3,4.6
					l-0.6,5.6l8.5,5.6l7.8,3.5l1.2,9.6l-2.9,7.3l4.6,4.5l1.9,7.9l-4.4,3.1l-5.8,4.6l-4.7,5.2l-4.9,3.6l-8.4-1.8l-10.6-1.7l-7.6-5.8
					l-8.3-1.6l-2.1,3.7l-1.8,5.9l-4.2,2.9l-5.2,5.7l-2.8,4.4l1.7,7.3l-0.6,9.4l-4.1,5.2l-1.7,7.9l-1.7,5.7v10.4l-4.7,8.7l-3.4,4.5
					v8.1l-4.2,4.7l-4.6,4l-1.7,6.6l2.8,5l3.6,5.9l-2.4,9l-4.1,2.8l-0.5,7.1l2.9,6.4l-2.5,7.2l-3.5,4.6l-2.4,5.3l-5.8,6.3L4,446
					l-2.2,4.9l3.5,7.4l-0.6,9.3l-1.8,6.9v6.6l3.5-1.8C8,478.6,9,479,11,480.7c2.1,1.7,2.1,1.7,2.3,2.1c0.1,0.2,0.4,0.7,2.9,3.4
					c3.1,3.3,3.9,4.4,4,4.9l3.7,2.9l4.5,0.2c0.7,0,1.2,0.1,1.6,0.1c-0.2-0.7,0-1.6,1.5-2.9c1.2-1,1.8-2,1.9-2.9l3.9-5.5l4.4,1.6
					l5.7,3.5l6.5,2.1l8.2,1.9l8,4.6l9.2,1.6l6.9-1.4l4.9-1.4l1.6-3.4c1.7-3.6,3.6-5.7,3.7-5.8l6.3-6.4l6.6-0.8l2-1.7l2.9-4.9
					l1.7-11.9L119,446l3.3-4.7l4.5-2l6.5,0.7l3.6,4.9l2.6,7.3l2.4,11.6l3.8,10.9l9.4,8l5.1,0.2l2.1-3.8l0.2-8l2.9-3.7l5-5.8
					l1.9-16.1l3.6-4.9l6.4-1.8l3.6,3.5l7.1,4.3l6.8,1.8l3.3-5.1l4.7-1.6l5.3,3.3l5.2,2.8l11.1,11.8l8.9,11.5l5,2l7.9-3.9l34.9-1.3
					l3.4-1l3-4.8l5.1-3.2l5.2-1.2l3.5-3.2l8.5-12.1l3.1-3.3l5-1.1l3.5,1.4l3.9,5.1l7.6,5l7.3,3.3l8.1,0.6l7.2-1.6L363.8,447.5"/>
			</g>
		</g>
	</g>
</g>
<path class="st47" d="M116,262.9c2.8,8.6,14.6,16.2,19.1,24.8c26.9,1.2,35.7,17.4,46.9,25.2c17.1,11.9,25,16.3,46,15
	c2.2-6.6,1.4-11.8,1-19c11,0,25.2,0.6,36-1c7.2-1.1,31.6-15.2,36-8"/>
<path class="st47" d="M169,120.9c4.6-2.6,9.5-8.8,15-10c9.2-2.1,12.3,7,20.5,9.1c13.4,3.3,32.7,3,44.5,4"/>
<path class="st47" d="M299,173.9c-7.8,2.7-38.2,20.5-43.2,9.1c-9.2,2.7-16.3,0.8-22.8,6.9c-2.4,2.3-2.1,5.4-6,7.1
	c-2.4,1.1-8.1-1.4-12,0.6c-4.7,2.4-17.8,10.8-16.7,16.2c1.4,7.1,2.8,18-0.2,28l-5.1-2.4l-9.9-4l-4.9-2.1l0.4-3.8l2.9-1.2l-0.7-7.6
	l-3.3-8.9l-4.7-4.5l2-5.3l3.6-1.5l-0.2-6.2l0.7-6.5l0.9-10.5l4.7-4.5l2.9-1.1l3.5-1.1l7.8-8.7l2.7-6.7l4.4,3.3l5.8,0.7l5.1-5.3
	l-0.9-2.9l-8.9-0.5l-5.4-2l0.7-3.5l1.3-2.7l-6.2-1.3l-3.5-4.2l-7.8-2l-4-6.7l-4-8.4l-0.7-5.8"/>
<polyline class="st47" points="124.4,274.4 153.1,276.6 167.7,268.1 170,257.5 175.7,257.2 185.6,237.2 "/>
<polyline class="st47" points="235.4,187.3 233.1,180.5 233.1,175.6 231.6,171.1 233.6,168 237.2,166.7 243.2,165.1 245.6,161.5 
	247.6,154.9 247.6,150.8 247,143.8 247.8,138.2 247.9,133.7 247.2,126.6 246.7,121.3 246.5,117 247.4,111 258.5,117.9 263,118.8 
	266.3,119.1 268.8,122.2 270.3,128.4 271.7,133.9 275.2,135.9 277,140.4 275.6,142.8 278.6,145.3 282.1,147.5 285.4,147.8 
	288.8,150.8 291.9,151.7 296.6,151.8 301.5,147.5 305,144.6 307.9,145.1 309.7,148.4 309.7,150.8 310.8,152.4 316.2,154 
	321.8,156.5 "/>
<path class="st47" d="M287,44.1l-1.8,5.8l-0.4,3.6c0,0-1.8,2.7-2.5,2.5s-4.9,0.2-4.9,0.2l-1.1,3.1l2.9,2l1.8,2l-0.4,3.1l-2.2,0.9
	l-2,2.5l2.5,2.2l3.3,1.6l-0.9,2.7l-0.9,3.1l-1.6,5.6l-2.5,2.7l-7.1,3.8l-0.5,2.2h6.2h5.1l6.7-0.2l6.4,2l1.3,1.5l3.3,4.5l2.7,4.2
	l4.2,1.5l3.1,1.1l3.8-0.4l2.7-1.6l3.6-1.6l2.7-1.3"/>
<path class="st47" d="M268.3,95.7"/>
<polyline class="st47" points="258.2,45.5 252.9,53.9 249,62.3 243.8,64.7 235.2,70.7 236,73.4 240.3,75 242,75.4 245.6,77.4 
	249.2,82.8 249.8,88.5 249.4,92.8 247.2,110.2 "/>
<polyline class="st47" points="220.7,46.3 226.2,50.7 227.2,52.9 239,56.9 242.5,58.7 245.6,61.2 247,63 "/>
<polyline class="st47" points="268.3,95.7 268.1,99.4 267.6,101 266.7,105.7 267.7,109.7 266.1,115.7 266.5,116.1 "/>
<circle class="st48" cx="268.4" cy="50.6" r="6.2"/>
<g>
	<g>
		<line class="st49" x1="268.4" y1="50.7" x2="278.7" y2="20.7"/>
		<g>
			<path d="M272.1,50.6c0,2.1-1.7,3.8-3.8,3.8s-3.8-1.7-3.8-3.8s1.7-3.8,3.8-3.8C270.5,46.8,272.1,48.5,272.1,50.6z"/>
		</g>
	</g>
</g>
<g>
	<g>
		<line class="st49" x1="224.8" y1="28.2" x2="225" y2="2.9"/>
	</g>
</g>
<g>
	<g>
		<polyline class="st49" points="335.9,191.3 318.4,191.3 268.8,155.8 		"/>
	</g>
</g>
<polyline class="st49" points="297.7,79 348.9,115.8 367.7,115.8 "/>
<polyline class="st49" points="153.3,131.3 214.9,131.3 214.9,178.2 "/>
<polyline class="st49" points="257.4,97.5 340.8,20.2 365.3,20.2 "/>
<circle class="st48" cx="233.7" cy="183.4" r="6.2"/>
<g>
	<g>
		<line class="st49" x1="233.6" y1="183.4" x2="345.7" y2="262.9"/>
		<g>
			<path d="M232.7,187c-2-0.6-3.2-2.7-2.6-4.7c0.6-2,2.7-3.2,4.7-2.6c2,0.6,3.2,2.7,2.6,4.7C236.8,186.5,234.7,187.6,232.7,187z"/>
		</g>
	</g>
</g>
<line class="st49" x1="232" y1="42.9" x2="167" y2="42.9"/>
</svg>
