<?xml version="1.0" encoding="utf-8"?>
<!-- Generator: Adobe Illustrator 25.4.1, SVG Export Plug-In . SVG Version: 6.00 Build 0)  -->
<svg version="1.1" id="Layer_1" xmlns="http://www.w3.org/2000/svg" xmlns:xlink="http://www.w3.org/1999/xlink" x="0px" y="0px"
	 viewBox="0 0 374.6 413.9" style="enable-background:new 0 0 374.6 413.9;" xml:space="preserve">
<style type="text/css">
	.st0{enable-background:new    ;}
	.st1{fill:#3F3F3F;}
	.st2{fill:#3F3F40;}
	.st3{fill:#3F4040;}
	.st4{clip-path:url(#SVGID_00000159461552067187009410000014812397075644268445_);enable-background:new    ;}
	.st5{fill:#404040;}
	.st6{fill:#404041;}
	.st7{clip-path:url(#SVGID_00000116946623274801778420000005237265147772805818_);enable-background:new    ;}
	.st8{fill:#858585;}
	.st9{clip-path:url(#SVGID_00000030446974160401592160000007027653888947521158_);enable-background:new    ;}
	.st10{clip-path:url(#SVGID_00000003099169632605619710000014069093412790804898_);enable-background:new    ;}
	.st11{clip-path:url(#SVGID_00000062192825834416993720000011914073164637863841_);enable-background:new    ;}
	.st12{fill:#808080;}
	.st13{clip-path:url(#SVGID_00000054947672949214911390000009924155263379881648_);enable-background:new    ;}
	.st14{clip-path:url(#SVGID_00000029764841544859710710000008796912023811837075_);enable-background:new    ;}
	.st15{clip-path:url(#SVGID_00000112595674589374087440000013988799089040061352_);enable-background:new    ;}
	.st16{fill:#8F8F8F;}
	.st17{clip-path:url(#SVGID_00000180324414663879048270000012009776802329087360_);enable-background:new    ;}
	.st18{clip-path:url(#SVGID_00000073691685236502835000000008254250547455127937_);enable-background:new    ;}
	.st19{fill:#878787;}
	.st20{clip-path:url(#SVGID_00000046301425219770400340000014228388740922760852_);enable-background:new    ;}
	.st21{clip-path:url(#SVGID_00000005946393561864226380000000133424862634694568_);enable-background:new    ;}
	.st22{clip-path:url(#SVGID_00000018225162063143479540000000564401316318020015_);enable-background:new    ;}
	.st23{clip-path:url(#SVGID_00000152250347837610567810000012507616569524862383_);enable-background:new    ;}
	.st24{clip-path:url(#SVGID_00000085236704767787559250000016246857560388417689_);enable-background:new    ;}
	.st25{clip-path:url(#SVGID_00000110457768457727987390000004087934857899043511_);enable-background:new    ;}
	.st26{clip-path:url(#SVGID_00000014610504204875133790000011778035854041046425_);enable-background:new    ;}
	.st27{clip-path:url(#SVGID_00000143611490530880016360000005432821835006765503_);enable-background:new    ;}
	.st28{clip-path:url(#SVGID_00000085234240216993566240000012906649995597157006_);enable-background:new    ;}
	.st29{fill:#919191;}
	.st30{clip-path:url(#SVGID_00000088092457265535077910000006449896840371720841_);enable-background:new    ;}
	.st31{clip-path:url(#SVGID_00000048476038896154324010000003642488723468977341_);enable-background:new    ;}
	.st32{fill:#909090;}
	.st33{fill:#868686;}
	.st34{fill:#838383;}
	.st35{fill:#848484;}
	.st36{fill:#8A8A8A;}
	.st37{fill:#929292;}
	.st38{fill:#8B8B8B;}
	.st39{fill:#888888;}
	.st40{fill:#8D8D8D;}
	.st41{fill:#939393;}
	.st42{clip-path:url(#SVGID_00000031887142543595085090000010573924023702748847_);enable-background:new    ;}
	.st43{clip-path:url(#SVGID_00000012437192184660382810000003239255693443338895_);enable-background:new    ;}
	.st44{clip-path:url(#SVGID_00000088817872107166853790000011077853039000380350_);enable-background:new    ;}
	.st45{fill:#949494;}
	.st46{clip-path:url(#SVGID_00000018946189618625608530000006356329564537713320_);enable-background:new    ;}
	.st47{clip-path:url(#SVGID_00000003098661182481258760000017175685498003434397_);enable-background:new    ;}
	.st48{clip-path:url(#SVGID_00000056390754753442922850000013005197360072873356_);enable-background:new    ;}
	.st49{clip-path:url(#SVGID_00000159437925001004735530000017885655030492940948_);enable-background:new    ;}
	.st50{fill:#828282;}
	.st51{fill:#818181;}
	.st52{clip-path:url(#SVGID_00000036948539641254745100000001226182559049218690_);enable-background:new    ;}
	.st53{clip-path:url(#SVGID_00000171684923441774791000000002877863389360113054_);enable-background:new    ;}
	.st54{clip-path:url(#SVGID_00000041989302334061312370000007039358131753727637_);enable-background:new    ;}
	.st55{clip-path:url(#SVGID_00000100384293637873012650000013496359766435298236_);enable-background:new    ;}
	.st56{clip-path:url(#SVGID_00000171704764521859971850000003830814805476079538_);enable-background:new    ;}
	.st57{fill:#898989;}
	.st58{fill:#E5E5E5;}
	.st59{fill:#464646;}
	.st60{fill:#1A1A1A;}
	.st61{fill:#1B1B1B;}
	.st62{fill:#1C1C1C;}
	.st63{fill:#1D1D1D;}
	.st64{fill:#2E2E2E;}
	.st65{fill:#232323;}
	.st66{clip-path:url(#SVGID_00000153698370179004014570000007815976323891785091_);enable-background:new    ;}
	.st67{fill:#292929;}
	.st68{fill:#272727;}
	.st69{fill:#262626;}
	.st70{fill:#242424;}
	.st71{fill:#8C8C8C;}
	.st72{clip-path:url(#SVGID_00000102523697226218805540000015608202820655545762_);enable-background:new    ;}
	.st73{clip-path:url(#SVGID_00000041981862639875976290000018117668554460855737_);enable-background:new    ;}
	.st74{fill:#252525;}
	.st75{clip-path:url(#SVGID_00000050638775071279417940000001778806894407375759_);enable-background:new    ;}
	.st76{fill:#282828;}
	.st77{clip-path:url(#SVGID_00000081617756710601011770000010914889310573067912_);enable-background:new    ;}
	.st78{clip-path:url(#SVGID_00000016789694525030728270000000820712718264541839_);enable-background:new    ;}
	.st79{clip-path:url(#SVGID_00000075879936813621272730000009426833987813793956_);enable-background:new    ;}
	.st80{clip-path:url(#SVGID_00000134234053788529617210000007935699336392434064_);enable-background:new    ;}
	.st81{clip-path:url(#SVGID_00000035515641838210703360000018110502716705323407_);enable-background:new    ;}
	.st82{clip-path:url(#SVGID_00000060722540634092712090000004958294255962455452_);enable-background:new    ;}
	.st83{clip-path:url(#SVGID_00000011020807896765671580000008088392043416976784_);enable-background:new    ;}
	.st84{clip-path:url(#SVGID_00000003086252124656881760000005782330684603737748_);enable-background:new    ;}
	.st85{fill:none;stroke:#000000;stroke-miterlimit:10;stroke-dasharray:2.6635,2.6635;}
</style>
<g class="st0">
	<g>
		<rect x="187" y="1.3" class="st1" width="5.1" height="8.7"/>
	</g>
	<g>
		<polygon class="st1" points="198.3,3 198.3,11.6 192.1,9.9 192.1,1.3 		"/>
	</g>
	<g>
		<polygon class="st1" points="187,1.3 187,9.9 179,12.7 179,4.1 		"/>
	</g>
	<g>
		<polygon class="st1" points="203.5,5.2 203.5,13.9 198.3,11.6 198.3,3 		"/>
	</g>
	<g>
		<polygon class="st1" points="208,8 208,16.7 203.5,13.9 203.5,5.2 		"/>
	</g>
	<g>
		<polygon class="st2" points="179,4.1 179,12.7 172.7,17.8 172.7,9.1 		"/>
	</g>
	<g>
		<polygon class="st1" points="172.7,9.1 172.7,17.8 165.6,20.2 165.6,11.5 		"/>
	</g>
	<g>
		<polygon class="st1" points="165.6,11.5 165.6,20.2 160.6,20.8 160.6,12.1 		"/>
	</g>
	<g>
		<polygon class="st1" points="212.1,14.3 212.1,23 208,16.7 208,8 		"/>
	</g>
	<g>
		<polygon class="st1" points="221.3,21.1 221.3,29.8 212.1,23 212.1,14.3 		"/>
	</g>
	<g>
		<polygon class="st1" points="257.5,20.7 257.5,29.4 250.2,29.9 250.2,21.2 		"/>
	</g>
	<g>
		<polygon class="st1" points="266.6,23.4 266.6,32.1 257.5,29.4 257.5,20.7 		"/>
	</g>
	<g>
		<polygon class="st2" points="250.2,21.2 250.2,29.9 245.2,33.2 245.2,24.5 		"/>
	</g>
	<g>
		<polygon class="st1" points="225.4,26.3 225.4,35 221.3,29.8 221.3,21.1 		"/>
	</g>
	<g>
		<polygon class="st1" points="270.1,28 270.1,36.7 266.6,32.1 266.6,23.4 		"/>
	</g>
	<g>
		<polygon class="st3" points="245.2,24.5 245.2,33.2 243,37.1 243,28.4 		"/>
	</g>
	<g>
		<polygon class="st1" points="230.8,29.8 230.8,38.5 225.4,35 225.4,26.3 		"/>
	</g>
	<g>
		<polygon class="st1" points="236.9,30.9 236.9,39.6 230.8,38.5 230.8,29.8 		"/>
	</g>
	<g>
		<polygon class="st1" points="243,28.4 243,37.1 236.9,39.6 236.9,30.9 		"/>
	</g>
	<g>
		<polygon class="st1" points="276.9,32.5 276.9,41.2 270.1,36.7 270.1,28 		"/>
	</g>
	<g>
		<polygon class="st1" points="280.9,38.1 280.9,46.8 276.9,41.2 276.9,32.5 		"/>
	</g>
	<g>
		<polygon class="st1" points="285.5,46 285.5,54.7 280.9,46.8 280.9,38.1 		"/>
	</g>
	<g class="st0">
		<g>
			<defs>
				<path id="SVGID_1_" d="M160.6,12.1v8.7c-1.5,1.8-2.7,2.9-3.8,3.7c-1.1,0.9-2,1.7-2.9,3c-1.1,1.7-1.3,2.8-1.5,3.8s-0.4,2-1.4,3.1
					c-0.6,0.7-1.6,1.5-3,2.4c-1.7,1-2.9,1.4-4,1.7s-1.9,0.5-2.8,1.2c-0.6,0.5-1.4,1.2-2.2,2.3c-0.9,1.2-1.3,2.3-1.8,3.6
					c-0.4,1.2-0.9,2.6-2,3.8c-1.5,1.8-2.7,2.6-4,3.2c-1.3,0.6-2.6,1-4.6,2.3c-0.6,0.4-1.2,0.5-1.9,0.6c-0.6,0.1-1.2,0.2-1.7,0.3
					v-8.7c0.5-0.1,1.1-0.2,1.7-0.3s1.3-0.2,1.9-0.6c2-1.2,3.3-1.7,4.6-2.3c1.3-0.6,2.5-1.4,4-3.2c1.1-1.3,1.5-2.6,2-3.8
					c0.4-1.2,0.9-2.4,1.8-3.6c0.9-1.1,1.6-1.8,2.2-2.3c1-0.7,1.7-0.9,2.8-1.2c1-0.3,2.3-0.7,4-1.7c1.5-0.9,2.4-1.7,3-2.4
					c0.9-1.1,1.1-2.1,1.4-3.1c0.2-1,0.5-2.1,1.5-3.8c0.9-1.3,1.8-2.1,2.9-3C157.8,15,159.1,14,160.6,12.1z"/>
			</defs>
			<clipPath id="SVGID_00000126312112066022102650000008901992737544398489_">
				<use xlink:href="#SVGID_1_"  style="overflow:visible;"/>
			</clipPath>
			<g style="clip-path:url(#SVGID_00000126312112066022102650000008901992737544398489_);enable-background:new    ;">
				<path class="st2" d="M160.6,12.1v8.7c-1.5,1.8-2.7,2.9-3.8,3.7c-0.9,0.7-1.6,1.4-2.4,2.3v-8.7c0.7-0.9,1.5-1.5,2.4-2.3
					C157.8,15,159.1,14,160.6,12.1"/>
				<path class="st3" d="M154.4,18.1v8.7c-0.2,0.2-0.4,0.5-0.5,0.8c-0.3,0.5-0.6,1-0.8,1.4v-8.7c0.2-0.4,0.5-0.9,0.8-1.4
					C154,18.6,154.2,18.4,154.4,18.1"/>
				<path class="st5" d="M153,20.3V29c-0.4,0.8-0.5,1.4-0.7,2.1v-8.7C152.5,21.8,152.7,21.1,153,20.3"/>
				<path class="st6" d="M152.4,22.4v8.7c0,0.1,0,0.2-0.1,0.3c0,0.1-0.1,0.3-0.1,0.4v-8.7c0-0.1,0.1-0.3,0.1-0.4
					S152.4,22.5,152.4,22.4"/>
				<path class="st5" d="M152.2,23.1v8.7c-0.1,0.5-0.2,1-0.5,1.5v-8.7C152,24.1,152.1,23.6,152.2,23.1"/>
				<path class="st3" d="M151.7,24.6v8.7c-0.2,0.3-0.4,0.7-0.6,1v-8.7C151.4,25.3,151.6,24.9,151.7,24.6"/>
				<path class="st2" d="M151.1,25.6v8.7c0,0.1-0.1,0.1-0.2,0.2c-0.6,0.7-1.6,1.5-3,2.4c-1.7,1-2.9,1.4-4,1.7s-1.9,0.5-2.8,1.2
					c-0.6,0.4-1.3,1.1-2.1,2.1v-8.7c0.8-1,1.5-1.7,2.1-2.1c1-0.7,1.7-0.9,2.8-1.2c1-0.3,2.3-0.7,4-1.7c1.5-0.9,2.4-1.7,3-2.4
					C151,25.8,151.1,25.7,151.1,25.6"/>
				<path class="st3" d="M139,33.2v8.7l-0.1,0.1c-0.4,0.6-0.8,1.1-1,1.7V35c0.3-0.6,0.6-1.1,1-1.7C139,33.3,139,33.3,139,33.2"/>
				<path class="st5" d="M137.9,35v8.7c-0.3,0.6-0.5,1.2-0.7,1.9c-0.2,0.6-0.4,1.2-0.7,1.8v-8.7c0.3-0.6,0.5-1.2,0.7-1.8
					C137.4,36.3,137.6,35.6,137.9,35"/>
				<path class="st3" d="M136.5,38.7v8.7c-0.3,0.6-0.7,1.3-1.2,1.9v-8.7C135.8,40,136.2,39.4,136.5,38.7"/>
				<path class="st2" d="M135.3,40.6v8.7l-0.1,0.1c-1.5,1.8-2.7,2.6-4,3.2c-1.3,0.6-2.6,1-4.6,2.3c-0.6,0.4-1.2,0.5-1.9,0.6
					c-0.6,0.1-1.2,0.2-1.7,0.3v-8.7c0.5-0.1,1.1-0.2,1.7-0.3s1.3-0.2,1.9-0.6c2-1.2,3.3-1.7,4.6-2.3c1.3-0.6,2.5-1.4,4-3.2
					C135.2,40.7,135.2,40.7,135.3,40.6"/>
			</g>
		</g>
	</g>
	<g class="st0">
		<g>
			<defs>
				<path id="SVGID_00000171701133731188790360000005012037229885388478_" d="M121.9,57.9c0-0.1,0-0.2,0-0.4v-8.7c0,0.1,0,0.2,0,0.4
					C121.9,51.9,121.9,55.3,121.9,57.9z"/>
			</defs>
			<clipPath id="SVGID_00000065059153243640697750000006219305740538968451_">
				<use xlink:href="#SVGID_00000171701133731188790360000005012037229885388478_"  style="overflow:visible;"/>
			</clipPath>
			<g style="clip-path:url(#SVGID_00000065059153243640697750000006219305740538968451_);enable-background:new    ;">
				<path class="st8" d="M121.9,49.2v8.7c0-0.1,0-0.2,0-0.4v-8.7C121.9,49,121.9,49.1,121.9,49.2"/>
			</g>
		</g>
	</g>
	<g class="st0">
		<g>
			<defs>
				<path id="SVGID_00000014611318498442175220000009321078816425846709_" d="M120.9,49.9v8.7c0-0.4,0-0.7,0-1v-8.7
					C120.9,49.2,120.9,49.5,120.9,49.9z"/>
			</defs>
			<clipPath id="SVGID_00000022550848218580677370000009292517357073785279_">
				<use xlink:href="#SVGID_00000014611318498442175220000009321078816425846709_"  style="overflow:visible;"/>
			</clipPath>
			<g style="clip-path:url(#SVGID_00000022550848218580677370000009292517357073785279_);enable-background:new    ;">
				<path class="st2" d="M120.9,49.9v8.7c0-0.4,0-0.7,0-1v-8.7C120.9,49.2,120.9,49.5,120.9,49.9"/>
			</g>
		</g>
	</g>
	<g class="st0">
		<g>
			<defs>
				<path id="SVGID_00000090279877019163759830000018070255336091596454_" d="M122,59v-8.7c0-0.5,0.1-1.1,1.1-3.2v8.7
					C122,57.9,122,58.5,122,59z"/>
			</defs>
			<clipPath id="SVGID_00000029734625797713192810000017412233590015625862_">
				<use xlink:href="#SVGID_00000090279877019163759830000018070255336091596454_"  style="overflow:visible;"/>
			</clipPath>
			<g style="clip-path:url(#SVGID_00000029734625797713192810000017412233590015625862_);enable-background:new    ;">
				<path class="st3" d="M123,47.1v8.7c-0.1,0.2-0.2,0.3-0.2,0.5v-8.7C122.9,47.4,122.9,47.3,123,47.1"/>
				<path class="st5" d="M122.8,47.6v8.7c-0.5,1-0.7,1.6-0.8,2v-8.7C122.1,49.2,122.3,48.6,122.8,47.6"/>
				<path class="st6" d="M122,49.6v8.7c-0.1,0.3-0.1,0.5-0.1,0.7v-8.7C122,50.1,122,49.9,122,49.6"/>
			</g>
		</g>
	</g>
	<g>
		<polygon class="st1" points="287.2,53.3 287.2,62 285.5,54.7 285.5,46 		"/>
	</g>
	<g>
		<polygon class="st1" points="287.8,68.1 287.8,76.8 287.2,62 287.2,53.3 		"/>
	</g>
	<g class="st0">
		<g>
			<defs>
				<path id="SVGID_00000087381830660761991350000014260466938077131908_" d="M122,50.5v8.7c-5.2,5.4-8.7,8.8-14.4,13.3
					c-1.7,1.3-3.3,2.1-4.6,2.8s-2.4,1.4-3.1,2.6c-0.5,0.8-0.9,1.8-1.1,3.3v-8.7c0.2-1.5,0.6-2.5,1.1-3.3c0.7-1.2,1.8-1.8,3.1-2.6
					c1.3-0.7,2.9-1.5,4.6-2.8C113.3,59.3,116.7,55.9,122,50.5z"/>
			</defs>
			<clipPath id="SVGID_00000037650911296629935490000006544962760042667445_">
				<use xlink:href="#SVGID_00000087381830660761991350000014260466938077131908_"  style="overflow:visible;"/>
			</clipPath>
			<g style="clip-path:url(#SVGID_00000037650911296629935490000006544962760042667445_);enable-background:new    ;">
				<path class="st2" d="M122,50.5v8.7c-5.2,5.4-8.7,8.8-14.4,13.3c-1.7,1.3-3.3,2.1-4.6,2.8c-1.1,0.6-2.1,1.2-2.8,2.1v-8.7
					c0.7-0.9,1.6-1.5,2.8-2.1c1.3-0.7,2.9-1.5,4.6-2.8C113.3,59.3,116.7,55.9,122,50.5"/>
				<path class="st3" d="M100.2,68.7v8.7c-0.1,0.1-0.2,0.3-0.3,0.5s-0.2,0.4-0.3,0.6v-8.7c0.1-0.2,0.2-0.4,0.3-0.6
					C99.9,69,100,68.9,100.2,68.7"/>
				<path class="st5" d="M99.5,69.8v8.7c-0.2,0.5-0.4,1-0.5,1.7v-8.7C99.1,70.8,99.3,70.3,99.5,69.8"/>
				<path class="st6" d="M98.9,71.5v8.7c-0.1,0.3-0.1,0.6-0.2,1v-8.7C98.8,72.1,98.9,71.8,98.9,71.5"/>
			</g>
		</g>
	</g>
	<g>
		<polygon class="st1" points="288.4,75.8 288.4,84.4 287.8,76.8 287.8,68.1 		"/>
	</g>
	<g>
		<polygon class="st1" points="331.5,81.1 331.5,89.7 327.7,87.6 327.7,78.9 		"/>
	</g>
	<g>
		<polygon class="st1" points="291.9,81.4 291.9,90.1 288.4,84.4 288.4,75.8 		"/>
	</g>
	<g>
		<polygon class="st1" points="327.7,78.9 327.7,87.6 321.6,90.3 321.6,81.6 		"/>
	</g>
	<g>
		<polygon class="st1" points="335.5,84.5 335.5,93.2 331.5,89.7 331.5,81.1 		"/>
	</g>
	<g>
		<polygon class="st6" points="98.8,72.4 98.8,81.1 95.9,95.7 95.9,87 		"/>
	</g>
	<g>
		<polygon class="st2" points="321.6,81.6 321.6,90.3 316.5,95.9 316.5,87.2 		"/>
	</g>
	<g>
		<polygon class="st1" points="294.5,87.4 294.5,96.1 291.9,90.1 291.9,81.4 		"/>
	</g>
	<g>
		<polygon class="st1" points="340.4,87.4 340.4,96.1 335.5,93.2 335.5,84.5 		"/>
	</g>
	<g>
		<rect x="348.5" y="88" class="st1" width="10.3" height="8.7"/>
	</g>
	<g>
		<polygon class="st1" points="348.5,88 348.5,96.7 340.4,96.1 340.4,87.4 		"/>
	</g>
	<g>
		<polygon class="st12" points="98.9,89.1 98.9,97.8 95.9,95.7 95.9,87 		"/>
	</g>
	<g>
		<polygon class="st1" points="98.2,89.9 98.2,98.5 95.1,96.3 95.1,87.6 		"/>
	</g>
	<g>
		<polygon class="st1" points="301,90.3 301,98.9 294.5,96.1 294.5,87.4 		"/>
	</g>
	<g>
		<polygon class="st1" points="366.8,90.8 366.8,99.5 358.9,96.7 358.9,88 		"/>
	</g>
	<g>
		<polygon class="st1" points="316.5,87.2 316.5,95.9 308.2,100 308.2,91.4 		"/>
	</g>
	<g>
		<polygon class="st1" points="308.2,91.4 308.2,100 301,98.9 301,90.3 		"/>
	</g>
	<g class="st0">
		<g>
			<defs>
				<path id="SVGID_00000173134776931525007910000010987805710503691926_" d="M99,97.9c0-2.9,0-5.8,0-8.7c1.9,1.8,4.2,2.7,5,3
					c0,0.3,0,0.6,0,0.9c0,0.3,0,0.7,0,1s0,0.7,0,1s0,0.7,0,1s0,0.7,0,1s0,0.7,0,1s0,0.7,0,1s0,0.6,0,0.9v0.1v0.1v0.1v0.1v0.1v0.1
					v0.1v0.1C103.2,100.6,100.9,99.7,99,97.9z"/>
			</defs>
			<clipPath id="SVGID_00000147908157317454626340000002984764066549674140_">
				<use xlink:href="#SVGID_00000173134776931525007910000010987805710503691926_"  style="overflow:visible;"/>
			</clipPath>
			<g style="clip-path:url(#SVGID_00000147908157317454626340000002984764066549674140_);enable-background:new    ;">
				<path class="st8" d="M104.2,92.4v8.7c-0.6-0.3-3.2-1.2-5.3-3.2v-8.7C101,91.2,103.6,92.1,104.2,92.4"/>
			</g>
		</g>
	</g>
	<g class="st0">
		<g>
			<defs>
				<path id="SVGID_00000121984729857526134260000009009556826252784527_" d="M104,101C104,100.9,104,100.9,104,101
					c0-0.1,0-0.2,0-0.2v-0.1v-0.1v-0.1v-0.1v-0.1v-0.1c0-0.3,0-0.6,0-0.9c0-0.3,0-0.7,0-1s0-0.7,0-1s0-0.7,0-1s0-0.7,0-1s0-0.7,0-1
					s0-0.7,0-1s0-0.6,0-0.9c0.1,0,0.1,0.1,0.2,0.1v8.7C104.1,101,104.1,101,104,101z"/>
			</defs>
			<clipPath id="SVGID_00000069357316754528887920000012346461179956413354_">
				<use xlink:href="#SVGID_00000121984729857526134260000009009556826252784527_"  style="overflow:visible;"/>
			</clipPath>
			<g style="clip-path:url(#SVGID_00000069357316754528887920000012346461179956413354_);enable-background:new    ;">
				<path class="st8" d="M104.2,92.4v8.7c-0.6-0.3-3.2-1.2-5.3-3.2v-8.7C101,91.2,103.6,92.1,104.2,92.4"/>
			</g>
		</g>
	</g>
	<g class="st0">
		<g>
			<defs>
				<path id="SVGID_00000148626852464384107380000004254467581562893753_" d="M103.4,93v8.7c-0.7-0.2-3.1-1.1-5.2-3.2v-8.7
					C100.3,91.9,102.8,92.8,103.4,93z"/>
			</defs>
			<clipPath id="SVGID_00000159442455692698327170000007425867026467352216_">
				<use xlink:href="#SVGID_00000148626852464384107380000004254467581562893753_"  style="overflow:visible;"/>
			</clipPath>
			<g style="clip-path:url(#SVGID_00000159442455692698327170000007425867026467352216_);enable-background:new    ;">
				<path class="st2" d="M103.4,93v8.7c-0.7-0.2-3.1-1.1-5.2-3.2v-8.7C100.3,91.9,102.8,92.8,103.4,93"/>
			</g>
		</g>
	</g>
	<g>
		<polygon class="st1" points="371.7,95.1 371.7,103.8 366.8,99.5 366.8,90.8 		"/>
	</g>
	<g>
		<polygon class="st12" points="106.8,96.3 106.8,105 104.2,101 104.2,92.4 		"/>
	</g>
	<g>
		<polygon class="st1" points="106,96.9 106,105.6 103.4,101.7 103.4,93 		"/>
	</g>
	<g>
		<polygon class="st12" points="108.8,98.9 108.8,107.6 106.8,105 106.8,96.3 		"/>
	</g>
	<g>
		<polygon class="st1" points="108,99.5 108,108.2 106,105.6 106,96.9 		"/>
	</g>
	<g>
		<rect x="363.6" y="100.7" class="st12" width="6.6" height="8.7"/>
	</g>
	<g>
		<polygon class="st16" points="371.7,95.1 371.7,103.8 370.2,109.4 370.2,100.7 		"/>
	</g>
	<g>
		<polygon class="st5" points="372.6,94.5 372.6,103.2 371,110 371,101.3 		"/>
	</g>
	<g>
		<polygon class="st1" points="371,101.3 371,110 363.7,110.4 363.7,101.7 		"/>
	</g>
	<g>
		<polygon class="st12" points="363.6,100.7 363.6,109.4 359.4,110.5 359.4,101.9 		"/>
	</g>
	<g>
		<polygon class="st1" points="363.7,101.7 363.7,110.4 359.7,111.5 359.7,102.8 		"/>
	</g>
	<g>
		<polygon class="st12" points="112.3,104.4 112.3,113.1 108.8,107.6 108.8,98.9 		"/>
	</g>
	<g>
		<polygon class="st12" points="359.4,101.9 359.4,110.5 351.8,113.4 351.8,104.7 		"/>
	</g>
	<g>
		<polygon class="st1" points="111.5,104.9 111.5,113.6 108,108.2 108,99.5 		"/>
	</g>
	<g>
		<polygon class="st1" points="359.7,102.8 359.7,111.5 352.3,114.3 352.3,105.6 		"/>
	</g>
	<g class="st0">
		<g>
			<defs>
				<path id="SVGID_00000035524727140295683830000005258518115278013119_" d="M113.7,115.1c-0.6-0.9-1.2-1.7-1.4-2.1v-8.7
					c0.2,0.4,0.8,1.2,1.4,2.1l0,0c0,0.3,0,0.7,0,1s0,0.7,0,1.1c0,0.3,0,0.8,0,1.1c0,0.3,0,0.8,0,1.1c0,0.3,0,0.8,0,1.1
					c0,0.3,0,0.8,0,1.1c0,0.3,0,0.7,0,1.1C113.7,114.4,113.7,114.8,113.7,115.1L113.7,115.1L113.7,115.1L113.7,115.1L113.7,115.1
					L113.7,115.1L113.7,115.1L113.7,115.1L113.7,115.1L113.7,115.1z"/>
			</defs>
			<clipPath id="SVGID_00000135680016571607575390000008579351726683862415_">
				<use xlink:href="#SVGID_00000035524727140295683830000005258518115278013119_"  style="overflow:visible;"/>
			</clipPath>
			<g style="clip-path:url(#SVGID_00000135680016571607575390000008579351726683862415_);enable-background:new    ;">
				<path class="st8" d="M116,109.4v8.7c-1-1.2-1.7-2.1-2.3-3s-1.2-1.7-1.4-2.1v-8.7c0.2,0.4,0.8,1.2,1.4,2.1
					C114.4,107.3,115.1,108.2,116,109.4"/>
			</g>
		</g>
	</g>
	<g class="st0">
		<g>
			<defs>
				<path id="SVGID_00000150094120427652521600000007285680828950708411_" d="M113.7,115.2C113.7,115.1,113.7,115.1,113.7,115.2
					c0-0.4,0-0.8,0-1.1c0-0.3,0-0.7,0-1.1c0-0.3,0-0.8,0-1.1c0-0.3,0-0.8,0-1.1c0-0.3,0-0.8,0-1.1c0-0.3,0-0.8,0-1.1
					c0-0.3,0-0.7,0-1.1c0-0.3,0-0.7,0-1c0.6,0.9,1.3,1.8,2.3,3v8.7C115.1,116.9,114.4,116,113.7,115.2z"/>
			</defs>
			<clipPath id="SVGID_00000101799563765799437350000015803605307937986217_">
				<use xlink:href="#SVGID_00000150094120427652521600000007285680828950708411_"  style="overflow:visible;"/>
			</clipPath>
			<g style="clip-path:url(#SVGID_00000101799563765799437350000015803605307937986217_);enable-background:new    ;">
				<path class="st8" d="M116,109.4v8.7c-1-1.2-1.7-2.1-2.3-3s-1.2-1.7-1.4-2.1v-8.7c0.2,0.4,0.8,1.2,1.4,2.1
					C114.4,107.3,115.1,108.2,116,109.4"/>
			</g>
		</g>
	</g>
	<g>
		<polygon class="st19" points="351.8,104.7 351.8,113.4 347.6,118.7 347.6,110 		"/>
	</g>
	<g class="st0">
		<g>
			<defs>
				<path id="SVGID_00000008847555106273462000000005645538417601907119_" d="M115.3,110.1v8.7c0,0-1.8-2.3-3-3.9
					c-0.4-0.5-0.7-1-0.8-1.3v-8.7c0.2,0.3,0.5,0.8,0.8,1.3C113.5,107.8,115.3,110,115.3,110.1z"/>
			</defs>
			<clipPath id="SVGID_00000151532934064400617420000001733282114157640367_">
				<use xlink:href="#SVGID_00000008847555106273462000000005645538417601907119_"  style="overflow:visible;"/>
			</clipPath>
			<g style="clip-path:url(#SVGID_00000151532934064400617420000001733282114157640367_);enable-background:new    ;">
				<path class="st2" d="M115.3,110.1v8.7c0,0-1.8-2.3-3-3.9c-0.4-0.5-0.7-1-0.8-1.3v-8.7c0.2,0.3,0.5,0.8,0.8,1.3
					C113.5,107.8,115.3,110,115.3,110.1"/>
			</g>
		</g>
	</g>
	<g>
		<polygon class="st2" points="352.3,105.6 352.3,114.3 348.4,119.2 348.4,110.5 		"/>
	</g>
	<g>
		<polygon class="st12" points="117.6,111.3 117.6,120 116,118.1 116,109.4 		"/>
	</g>
	<g>
		<polygon class="st12" points="120.8,111.9 120.8,120.5 117.6,120 117.6,111.3 		"/>
	</g>
	<g>
		<polygon class="st1" points="117.3,112.2 117.3,120.9 115.3,118.7 115.3,110.1 		"/>
	</g>
	<g>
		<polygon class="st1" points="120.4,112.8 120.4,121.5 117.3,120.9 117.3,112.2 		"/>
	</g>
	<g>
		<polygon class="st12" points="120.8,120.5 120.8,111.9 124.5,114 124.5,122.6 		"/>
	</g>
	<g>
		<polygon class="st1" points="123.7,114.3 123.7,123 120.4,121.5 120.4,112.8 		"/>
	</g>
	<g>
		<polygon class="st5" points="124.6,113.6 124.6,122.3 123.4,127.3 123.4,118.7 		"/>
	</g>
	<g>
		<polygon class="st12" points="124.8,114.2 124.8,122.8 124.5,122.6 124.5,114 		"/>
	</g>
	<g>
		<polygon class="st16" points="347.6,110 347.6,118.7 346.3,123.4 346.3,114.8 		"/>
	</g>
	<g>
		<polygon class="st5" points="348.4,110.5 348.4,119.2 347.3,123.5 347.3,114.9 		"/>
	</g>
	<g>
		<polygon class="st1" points="348.3,120.4 348.3,129.1 346.3,123.7 346.3,115 		"/>
	</g>
	<g>
		<polygon class="st1" points="354.1,123.8 354.1,132.5 348.3,129.1 348.3,120.4 		"/>
	</g>
	<g>
		<polygon class="st2" points="123.4,122 123.4,130.7 121.1,133.4 121.1,124.7 		"/>
	</g>
	<g>
		<polygon class="st1" points="360.4,128.4 360.4,137.1 354.1,132.5 354.1,123.8 		"/>
	</g>
	<g>
		<polygon class="st12" points="121.4,128.5 121.4,137.2 121.1,133.4 121.1,124.7 		"/>
	</g>
	<g>
		<polygon class="st1" points="120.4,128.6 120.4,137.3 120.1,133.3 120.1,124.6 		"/>
	</g>
	<g>
		<polygon class="st12" points="121.7,132.6 121.7,141.2 121.4,137.2 121.4,128.5 		"/>
	</g>
	<g>
		<polygon class="st1" points="120.7,132.6 120.7,141.3 120.4,137.3 120.4,128.6 		"/>
	</g>
	<g>
		<polygon class="st1" points="366,133.9 366,142.6 360.4,137.1 360.4,128.4 		"/>
	</g>
	<g>
		<polygon class="st1" points="120.8,136 120.8,144.7 120.7,141.3 120.7,132.6 		"/>
	</g>
	<g>
		<polygon class="st12" points="124.2,138.1 124.2,146.8 121.7,144.2 121.7,135.5 		"/>
	</g>
	<g>
		<polygon class="st1" points="123.3,138.5 123.3,147.2 120.8,144.7 120.8,136 		"/>
	</g>
	<g class="st0">
		<g>
			<defs>
				<path id="SVGID_00000050649994177549814000000003240546888063186610_" d="M125.1,143.1v8.7c0-0.8-0.2-3.1-0.9-5v-8.7
					C125,140.1,125.1,142.4,125.1,143.1z"/>
			</defs>
			<clipPath id="SVGID_00000023258978283746630650000006471589045680720819_">
				<use xlink:href="#SVGID_00000050649994177549814000000003240546888063186610_"  style="overflow:visible;"/>
			</clipPath>
			<g style="clip-path:url(#SVGID_00000023258978283746630650000006471589045680720819_);enable-background:new    ;">
				<path class="st8" d="M125.1,143.1v8.7c0-0.8-0.2-3.1-0.9-5v-8.7C125,140.1,125.1,142.4,125.1,143.1"/>
			</g>
		</g>
	</g>
	<g>
		<polygon class="st1" points="367.2,143.4 367.2,152.1 366,142.6 366,133.9 		"/>
	</g>
	<g class="st0">
		<g>
			<defs>
				<path id="SVGID_00000102510481327940894600000012260066101416940441_" d="M124.4,143.8v8.7c-0.3-1.2-0.3-1.6-0.3-2.1
					c-0.1-0.9-0.3-2.2-0.7-3.2v-8.7c0.4,1.1,0.6,2.3,0.7,3.2C124.1,142.2,124.1,142.7,124.4,143.8z"/>
			</defs>
			<clipPath id="SVGID_00000133489066254752778590000018140825029517564343_">
				<use xlink:href="#SVGID_00000102510481327940894600000012260066101416940441_"  style="overflow:visible;"/>
			</clipPath>
			<g style="clip-path:url(#SVGID_00000133489066254752778590000018140825029517564343_);enable-background:new    ;">
				<path class="st2" d="M124.4,143.8v8.7c-0.3-1.2-0.3-1.6-0.3-2.1c-0.1-0.9-0.3-2.2-0.7-3.2v-8.7c0.4,1.1,0.6,2.3,0.7,3.2
					C124.1,142.2,124.1,142.7,124.4,143.8"/>
			</g>
		</g>
	</g>
	<g>
		<polygon class="st12" points="127.4,144.6 127.4,153.3 125.1,151.8 125.1,143.1 		"/>
	</g>
	<g>
		<polygon class="st1" points="126.5,145.2 126.5,153.8 124.4,152.5 124.4,143.8 		"/>
	</g>
	<g>
		<polygon class="st12" points="129.1,148.8 129.1,157.5 127.4,153.3 127.4,144.6 		"/>
	</g>
	<g>
		<polygon class="st1" points="128.3,149.5 128.3,158.2 126.5,153.8 126.5,145.2 		"/>
	</g>
	<g class="st0">
		<g>
			<defs>
				<path id="SVGID_00000066485100439252757920000002350938808606870426_" d="M131.9,160c0,0.7,0,1.3,0,1.7c0-0.3,0-0.7,0-1
					s0-0.8,0-1.1c0-0.3,0-0.8,0-1.1c0-0.3,0-0.8,0-1.1c0-0.3,0-0.8,0-1.1c0-0.3,0-0.8,0-1.1c0-0.3,0-0.8,0-1.1c0-0.3,0-0.7,0-1
					c0-0.4,0-1,0-1.7C131.9,153.9,131.9,157.4,131.9,160z"/>
			</defs>
			<clipPath id="SVGID_00000120535688098354389590000010785426602820956812_">
				<use xlink:href="#SVGID_00000066485100439252757920000002350938808606870426_"  style="overflow:visible;"/>
			</clipPath>
			<g style="clip-path:url(#SVGID_00000120535688098354389590000010785426602820956812_);enable-background:new    ;">
				<path class="st6" d="M131.9,151.3v8.7c0,1.9-0.1,2.6-0.1,3.2v-8.7C131.8,153.9,131.9,153.2,131.9,151.3"/>
			</g>
		</g>
	</g>
	<g>
		<polygon class="st12" points="131.9,152.7 131.9,161.4 129.1,157.5 129.1,148.8 		"/>
	</g>
	<g>
		<polygon class="st1" points="131,151.9 131,160.6 128.3,158.2 128.3,149.5 		"/>
	</g>
	<g class="st0">
		<g>
			<defs>
				<path id="SVGID_00000098924546085647232740000003694551748047658389_" d="M131.9,161.7c0,0.7,0,1.1,0,1.5v-8.7
					c0-0.4,0-0.8,0-1.5c0,0.3,0,0.7,0,1s0,0.8,0,1.1c0,0.3,0,0.8,0,1.1c0,0.3,0,0.8,0,1.1c0,0.3,0,0.8,0,1.1c0,0.3,0,0.8,0,1.1
					C131.9,160.3,131.9,161,131.9,161.7z"/>
			</defs>
			<clipPath id="SVGID_00000177483053444319507210000015194528005461618870_">
				<use xlink:href="#SVGID_00000098924546085647232740000003694551748047658389_"  style="overflow:visible;"/>
			</clipPath>
			<g style="clip-path:url(#SVGID_00000177483053444319507210000015194528005461618870_);enable-background:new    ;">
				<path class="st6" d="M131.9,151.3v8.7c0,1.9-0.1,2.6-0.1,3.2v-8.7C131.8,153.9,131.9,153.2,131.9,151.3"/>
			</g>
		</g>
	</g>
	<g class="st0">
		<g>
			<defs>
				<path id="SVGID_00000137114158396136855190000010965382986978388141_" d="M131.8,163.2C131.8,163.3,131.8,163.3,131.8,163.2
					v-8.6v-0.1C131.8,157.2,131.8,160.6,131.8,163.2z"/>
			</defs>
			<clipPath id="SVGID_00000018236975043425835450000010582818983270934707_">
				<use xlink:href="#SVGID_00000137114158396136855190000010965382986978388141_"  style="overflow:visible;"/>
			</clipPath>
			<g style="clip-path:url(#SVGID_00000018236975043425835450000010582818983270934707_);enable-background:new    ;">
				<path class="st6" d="M131.8,154.6v8.7v0.1V154.6L131.8,154.6"/>
			</g>
		</g>
	</g>
	<g class="st0">
		<g>
			<defs>
				<path id="SVGID_00000183970441549224229010000005109722560621926036_" d="M131.8,163.3v-8.7c0,0.6,0.1,1.2,0.2,1.4v8.7
					C131.9,164.5,131.8,163.9,131.8,163.3z"/>
			</defs>
			<clipPath id="SVGID_00000157299206860528660600000002717160383272045474_">
				<use xlink:href="#SVGID_00000183970441549224229010000005109722560621926036_"  style="overflow:visible;"/>
			</clipPath>
			<g style="clip-path:url(#SVGID_00000157299206860528660600000002717160383272045474_);enable-background:new    ;">
				<path class="st8" d="M132,156v8.7c-0.1-0.2-0.2-0.8-0.2-1.4v-8.7C131.8,155.2,131.9,155.8,132,156"/>
			</g>
		</g>
	</g>
	<g class="st0">
		<g>
			<defs>
				<path id="SVGID_00000173842448071739388830000014147461249281548454_" d="M131.1,156.5v8.7c-0.3-0.5-0.3-1.2-0.3-1.9v-8.7
					C130.8,155.3,130.9,155.9,131.1,156.5z"/>
			</defs>
			<clipPath id="SVGID_00000039813414075140031450000004952831987412750486_">
				<use xlink:href="#SVGID_00000173842448071739388830000014147461249281548454_"  style="overflow:visible;"/>
			</clipPath>
			<g style="clip-path:url(#SVGID_00000039813414075140031450000004952831987412750486_);enable-background:new    ;">
				<path class="st2" d="M131.1,156.5v8.7c-0.3-0.5-0.3-1.2-0.3-1.9v-8.7C130.8,155.3,130.9,155.9,131.1,156.5"/>
			</g>
		</g>
	</g>
	<g class="st0">
		<g>
			<defs>
				<path id="SVGID_00000152948456314013672290000018394909944295529097_" d="M132.6,166.4c-0.1-0.6-0.3-1.2-0.6-1.7V156
					c0.2,0.5,0.4,1.1,0.6,1.7c0,0.2,0,0.5,0,0.7s0,0.5,0,0.8c0,0.2,0,0.6,0,0.8c0,0.2,0,0.6,0,0.8c0,0.2,0,0.6,0,0.8
					c0,0.2,0,0.6,0,0.8c0,0.2,0,0.5,0,0.8c0,0.2,0,0.5,0,0.7c0,0.1,0,0.2,0,0.3c0,0.1,0,0.2,0,0.3c0,0.1,0,0.2,0,0.3
					c0,0.1,0,0.2,0,0.3c0,0.1,0,0.2,0,0.3c0,0.1,0,0.2,0,0.3c0,0.1,0,0.2,0,0.3C132.6,166.2,132.6,166.4,132.6,166.4z"/>
			</defs>
			<clipPath id="SVGID_00000026164899452143221050000001278288819389950606_">
				<use xlink:href="#SVGID_00000152948456314013672290000018394909944295529097_"  style="overflow:visible;"/>
			</clipPath>
			<g style="clip-path:url(#SVGID_00000026164899452143221050000001278288819389950606_);enable-background:new    ;">
				<path class="st8" d="M132.9,160v8.7c0-0.2-0.1-0.8-0.2-1.6c-0.2-0.8-0.4-1.7-0.7-2.4V156c0.3,0.7,0.5,1.6,0.7,2.4
					C132.9,159.2,132.9,159.8,132.9,160"/>
			</g>
		</g>
	</g>
	<g>
		<polygon class="st29" points="367.2,143.4 367.2,152.1 364.3,167.4 364.3,158.7 		"/>
	</g>
	<g>
		<polygon class="st6" points="368.2,143.4 368.2,152 365.3,167.6 365.3,158.9 		"/>
	</g>
	<g class="st0">
		<g>
			<defs>
				<path id="SVGID_00000017490095957906516680000016638834128658932352_" d="M131.9,160v8.7c-0.3-2.1-0.6-3-0.8-3.5v-8.7
					C131.4,156.9,131.6,157.9,131.9,160z"/>
			</defs>
			<clipPath id="SVGID_00000098932120345114445380000001579754191496142527_">
				<use xlink:href="#SVGID_00000017490095957906516680000016638834128658932352_"  style="overflow:visible;"/>
			</clipPath>
			<g style="clip-path:url(#SVGID_00000098932120345114445380000001579754191496142527_);enable-background:new    ;">
				<path class="st2" d="M131.9,160v8.7c-0.3-2.1-0.6-3-0.8-3.5v-8.7C131.4,156.9,131.6,157.9,131.9,160"/>
			</g>
		</g>
	</g>
	<g class="st0">
		<g>
			<defs>
				<path id="SVGID_00000032608800404889161980000000398090001568335270_" d="M132.6,166.4c0-0.1,0-0.2,0-0.3c0-0.1,0-0.2,0-0.3
					c0-0.1,0-0.2,0-0.3c0-0.1,0-0.2,0-0.3c0-0.1,0-0.2,0-0.3c0-0.1,0-0.2,0-0.3c0-0.1,0-0.2,0-0.3c0-0.1,0-0.2,0-0.3
					c0-0.2,0-0.5,0-0.7s0-0.5,0-0.8c0-0.2,0-0.6,0-0.8c0-0.2,0-0.6,0-0.8c0-0.2,0-0.6,0-0.8c0-0.2,0-0.6,0-0.8c0-0.2,0-0.5,0-0.8
					c0-0.2,0-0.5,0-0.7c0.1,0.2,0.1,0.5,0.1,0.7c0.1,0.8,0.2,1.4,0.2,1.6v8.7c0-0.2-0.1-0.8-0.2-1.6
					C132.7,166.9,132.6,166.7,132.6,166.4z"/>
			</defs>
			<clipPath id="SVGID_00000132768011454917995730000005603940896762029499_">
				<use xlink:href="#SVGID_00000032608800404889161980000000398090001568335270_"  style="overflow:visible;"/>
			</clipPath>
			<g style="clip-path:url(#SVGID_00000132768011454917995730000005603940896762029499_);enable-background:new    ;">
				<path class="st8" d="M132.9,160v8.7c0-0.2-0.1-0.8-0.2-1.6c-0.2-0.8-0.4-1.7-0.7-2.4V156c0.3,0.7,0.5,1.6,0.7,2.4
					C132.9,159.2,132.9,159.8,132.9,160"/>
			</g>
		</g>
	</g>
	<g>
		<polygon class="st6" points="132.9,159.9 132.9,168.6 132.4,172.3 132.4,163.6 		"/>
	</g>
	<g>
		<polygon class="st12" points="132.9,165.4 132.9,174.1 132.4,172.3 132.4,163.6 		"/>
	</g>
	<g>
		<polygon class="st1" points="132.1,166 132.1,174.7 131.4,172.5 131.4,163.8 		"/>
	</g>
	<g>
		<polygon class="st32" points="364.3,158.7 364.3,167.4 362.6,175.3 362.6,166.6 		"/>
	</g>
	<g>
		<polygon class="st6" points="365.3,158.9 365.3,167.6 363.5,175.6 363.5,166.9 		"/>
	</g>
	<g>
		<polygon class="st12" points="135.2,167.7 135.2,176.3 132.9,174.1 132.9,165.4 		"/>
	</g>
	<g>
		<polygon class="st1" points="134.4,168.3 134.4,176.9 132.1,174.7 132.1,166 		"/>
	</g>
	<g>
		<polygon class="st12" points="136.7,170 136.7,178.7 135.2,176.3 135.2,167.7 		"/>
	</g>
	<g>
		<polygon class="st1" points="135.7,170 135.7,178.7 134.4,176.9 134.4,168.3 		"/>
	</g>
	<g>
		<polygon class="st33" points="362.6,166.6 362.6,175.3 356.3,182.6 356.3,173.9 		"/>
	</g>
	<g>
		<polygon class="st2" points="363.5,166.9 363.5,175.6 357,183.2 357,174.5 		"/>
	</g>
	<g>
		<polygon class="st6" points="136.6,169.7 136.6,178.3 135.6,183.8 135.6,175.1 		"/>
	</g>
	<g>
		<polygon class="st33" points="356.3,173.9 356.3,182.6 352.3,187.1 352.3,178.4 		"/>
	</g>
	<g>
		<polygon class="st1" points="134.8,178.4 134.8,187.1 134.6,183.8 134.6,175.1 		"/>
	</g>
	<g>
		<polygon class="st12" points="135.8,178.6 135.8,187.3 135.6,183.8 135.6,175.1 		"/>
	</g>
	<g>
		<polygon class="st2" points="357,174.5 357,183.2 353,187.8 353,179.1 		"/>
	</g>
	<g>
		<polygon class="st12" points="352.3,178.4 352.3,187.1 347.7,189.3 347.7,180.6 		"/>
	</g>
	<g>
		<polygon class="st1" points="353,179.1 353,187.8 348.2,190.2 348.2,181.5 		"/>
	</g>
	<g>
		<polygon class="st5" points="135.8,178.5 135.8,187.1 134.4,191.7 134.4,183 		"/>
	</g>
	<g>
		<polygon class="st12" points="135.2,184.9 135.2,193.5 134.4,191.7 134.4,183 		"/>
	</g>
	<g>
		<polygon class="st34" points="347.7,180.6 347.7,189.3 341.9,193.9 341.9,185.2 		"/>
	</g>
	<g>
		<polygon class="st1" points="134.3,185.2 134.3,193.9 133.4,191.9 133.4,183.3 		"/>
	</g>
	<g>
		<polygon class="st2" points="348.2,181.5 348.2,190.2 342.5,194.7 342.5,186 		"/>
	</g>
	<g>
		<polygon class="st12" points="136.1,187 136.1,195.7 135.2,193.5 135.2,184.9 		"/>
	</g>
	<g>
		<polygon class="st1" points="135.1,187.2 135.1,195.9 134.3,193.9 134.3,185.2 		"/>
	</g>
	<g>
		<polygon class="st35" points="341.9,185.2 341.9,193.9 336,199.1 336,190.4 		"/>
	</g>
	<g>
		<polygon class="st1" points="135.4,191 135.4,199.7 135.1,195.9 135.1,187.2 		"/>
	</g>
	<g>
		<polygon class="st2" points="342.5,186 342.5,194.7 336.8,199.8 336.8,191.1 		"/>
	</g>
	<g>
		<polygon class="st12" points="136.4,191.2 136.4,199.9 136.1,195.7 136.1,187 		"/>
	</g>
	<g>
		<polygon class="st36" points="336,190.4 336,199.1 333.6,203.2 333.6,194.5 		"/>
	</g>
	<g>
		<polygon class="st3" points="336.8,191.1 336.8,199.8 334.5,203.6 334.5,194.9 		"/>
	</g>
	<g>
		<polygon class="st5" points="136.4,191 136.4,199.7 135.3,204.4 135.3,195.7 		"/>
	</g>
	<g>
		<polygon class="st1" points="134.3,198 134.3,206.7 134.3,204.3 134.3,195.6 		"/>
	</g>
	<g>
		<polygon class="st12" points="135.8,200 135.8,208.7 135.3,206.5 135.3,197.8 		"/>
	</g>
	<g>
		<polygon class="st1" points="134.9,200.4 134.9,209.1 134.3,206.7 134.3,198 		"/>
	</g>
	<g>
		<polygon class="st29" points="333.6,194.5 333.6,203.2 332.4,210.2 332.4,201.5 		"/>
	</g>
	<g>
		<polygon class="st6" points="334.5,194.9 334.5,203.6 333.4,210.3 333.4,201.7 		"/>
	</g>
	<g>
		<polygon class="st12" points="137.2,203 137.2,211.7 135.8,208.7 135.8,200 		"/>
	</g>
	<g>
		<polygon class="st1" points="136.5,203.7 136.5,212.4 134.9,209.1 134.9,200.4 		"/>
	</g>
	<g>
		<polygon class="st12" points="137.2,211.7 137.2,203 140.6,206 140.6,214.7 		"/>
	</g>
	<g>
		<polygon class="st6" points="140.6,205.8 140.6,214.5 140.5,218.9 140.5,210.2 		"/>
	</g>
	<g>
		<polygon class="st12" points="140.8,206.2 140.8,214.9 140.6,214.7 140.6,206 		"/>
	</g>
	<g>
		<polygon class="st1" points="139.8,206.4 139.8,215.1 136.5,212.4 136.5,203.7 		"/>
	</g>
	<g>
		<polygon class="st37" points="332.4,201.5 332.4,210.2 331.3,221.2 331.3,212.6 		"/>
	</g>
	<g>
		<polygon class="st12" points="331.3,212.6 331.3,221.2 328.2,221.5 328.2,212.8 		"/>
	</g>
	<g>
		<polygon class="st6" points="333.4,201.7 333.4,210.3 332.2,221.7 332.2,213.1 		"/>
	</g>
	<g>
		<polygon class="st6" points="140.5,210.2 140.5,218.9 139.9,222.3 139.9,213.7 		"/>
	</g>
	<g>
		<polygon class="st1" points="332.2,213.1 332.2,221.7 328.5,222.5 328.5,213.8 		"/>
	</g>
	<g>
		<polygon class="st34" points="328.2,212.8 328.2,221.5 322.9,225.8 322.9,217.1 		"/>
	</g>
	<g>
		<polygon class="st12" points="322.9,217.1 322.9,225.8 317.5,226.1 317.5,217.4 		"/>
	</g>
	<g>
		<polygon class="st6" points="139.9,213.7 139.9,222.3 139,226.6 139,217.9 		"/>
	</g>
	<g>
		<polygon class="st2" points="328.5,213.8 328.5,222.5 323.4,226.6 323.4,218 		"/>
	</g>
	<g>
		<polygon class="st1" points="323.4,218 323.4,226.6 317.8,227 317.8,218.3 		"/>
	</g>
	<g>
		<polygon class="st6" points="139,217.9 139,226.6 138.7,228.6 138.7,219.9 		"/>
	</g>
	<g>
		<polygon class="st34" points="317.5,217.4 317.5,226.1 313.7,229.3 313.7,220.6 		"/>
	</g>
	<g>
		<polygon class="st2" points="317.8,218.3 317.8,227 314.6,229.9 314.6,221.2 		"/>
	</g>
	<g>
		<polygon class="st2" points="138.7,219.9 138.7,228.6 136,231.7 136,223 		"/>
	</g>
	<g>
		<polygon class="st37" points="313.7,220.6 313.7,229.3 313.3,232.8 313.3,224.1 		"/>
	</g>
	<g>
		<polygon class="st6" points="314.6,221.2 314.6,229.9 314.3,232.9 314.3,224.2 		"/>
	</g>
	<g>
		<polygon class="st3" points="136,223 136,231.7 134.1,234.5 134.1,225.8 		"/>
	</g>
	<g>
		<polygon class="st6" points="314.3,224.2 314.3,232.9 313.8,236 313.8,227.3 		"/>
	</g>
	<g>
		<polygon class="st29" points="313.3,224.1 313.3,232.8 312.7,236.2 312.7,227.5 		"/>
	</g>
	<g>
		<polygon class="st5" points="134.1,225.8 134.1,234.5 132.7,238.6 132.7,229.9 		"/>
	</g>
	<g>
		<polygon class="st1" points="317.6,230.6 317.6,239.2 313,236.7 313,228 		"/>
	</g>
	<g>
		<polygon class="st1" points="321,232.2 321,240.9 317.6,239.2 317.6,230.6 		"/>
	</g>
	<g>
		<polygon class="st12" points="133.5,233.1 133.5,241.7 132.7,238.6 132.7,229.9 		"/>
	</g>
	<g>
		<polygon class="st1" points="132.6,233.5 132.6,242.2 131.7,238.6 131.7,230 		"/>
	</g>
	<g>
		<polygon class="st1" points="324.3,236.1 324.3,244.7 321,240.9 321,232.2 		"/>
	</g>
	<g>
		<polygon class="st12" points="136,237 136,245.6 133.5,241.7 133.5,233.1 		"/>
	</g>
	<g>
		<polygon class="st1" points="135.3,237.6 135.3,246.3 132.6,242.2 132.6,233.5 		"/>
	</g>
	<g>
		<polygon class="st12" points="138.4,239.7 138.4,248.4 136,245.6 136,237 		"/>
	</g>
	<g>
		<polygon class="st1" points="137.5,240.1 137.5,248.8 135.3,246.3 135.3,237.6 		"/>
	</g>
	<g>
		<polygon class="st1" points="325.1,240.3 325.1,249 324.3,244.7 324.3,236.1 		"/>
	</g>
	<g>
		<polygon class="st12" points="168.2,249.2 168.2,240.5 170.8,241.6 170.8,250.2 		"/>
	</g>
	<g>
		<polygon class="st12" points="168.2,240.5 168.2,249.2 162.7,250.9 162.7,242.2 		"/>
	</g>
	<g>
		<polygon class="st1" points="170.2,241.9 170.2,250.6 168.1,250.2 168.1,241.5 		"/>
	</g>
	<g>
		<polygon class="st1" points="168.1,241.5 168.1,250.2 163.1,251.8 163.1,243.1 		"/>
	</g>
	<g>
		<polygon class="st5" points="171.1,241.1 171.1,249.7 167.6,256.5 167.6,247.8 		"/>
	</g>
	<g>
		<polygon class="st12" points="171.4,241.8 171.4,250.5 170.8,250.2 170.8,241.6 		"/>
	</g>
	<g>
		<polygon class="st38" points="325.1,240.3 325.1,249 323.2,252.6 323.2,243.9 		"/>
	</g>
	<g>
		<polygon class="st12" points="140.1,244.3 140.1,253 138.4,248.4 138.4,239.7 		"/>
	</g>
	<g>
		<polygon class="st5" points="326.2,240.3 326.2,249 324.1,253 324.1,244.3 		"/>
	</g>
	<g>
		<polygon class="st12" points="142.1,244.9 142.1,253.6 140.1,253 140.1,244.3 		"/>
	</g>
	<g>
		<polygon class="st1" points="139.6,245.2 139.6,253.8 137.5,248.8 137.5,240.1 		"/>
	</g>
	<g>
		<polygon class="st1" points="141.5,245.7 141.5,254.4 139.6,253.8 139.6,245.2 		"/>
	</g>
	<g>
		<polygon class="st34" points="162.7,242.2 162.7,250.9 158.2,254.7 158.2,246 		"/>
	</g>
	<g>
		<polygon class="st2" points="163.1,243.1 163.1,251.8 158.9,255.4 158.9,246.7 		"/>
	</g>
	<g>
		<polygon class="st12" points="145.5,248.3 145.5,257 142.1,253.6 142.1,244.9 		"/>
	</g>
	<g>
		<polygon class="st39" points="158.2,246 158.2,254.7 156.2,257.5 156.2,248.9 		"/>
	</g>
	<g>
		<polygon class="st1" points="144.9,249 144.9,257.7 141.5,254.4 141.5,245.7 		"/>
	</g>
	<g>
		<polygon class="st1" points="135.3,248.6 135.3,257.3 133.3,257.8 133.3,249.1 		"/>
	</g>
	<g>
		<polygon class="st40" points="323.2,243.9 323.2,252.6 321.2,257.8 321.2,249.2 		"/>
	</g>
	<g>
		<polygon class="st3" points="158.9,246.7 158.9,255.4 156.9,258.2 156.9,249.5 		"/>
	</g>
	<g>
		<polygon class="st5" points="324.1,244.3 324.1,253 322.1,258.4 322.1,249.7 		"/>
	</g>
	<g>
		<polygon class="st2" points="167.6,247.8 167.6,256.5 164.1,259.4 164.1,250.7 		"/>
	</g>
	<g>
		<polygon class="st12" points="156.2,248.9 156.2,257.5 152.3,259.4 152.3,250.8 		"/>
	</g>
	<g>
		<polygon class="st12" points="148.8,251 148.8,259.7 145.5,257 145.5,248.3 		"/>
	</g>
	<g>
		<polygon class="st12" points="152.3,250.8 152.3,259.4 148.8,259.7 148.8,251 		"/>
	</g>
	<g>
		<polygon class="st12" points="321.2,249.2 321.2,257.8 316.5,259.8 316.5,251.1 		"/>
	</g>
	<g>
		<polygon class="st2" points="133.3,249.1 133.3,257.8 131.1,259.9 131.1,251.2 		"/>
	</g>
	<g>
		<polygon class="st1" points="139.6,251.6 139.6,260.3 135.3,257.3 135.3,248.6 		"/>
	</g>
	<g>
		<polygon class="st1" points="156.9,249.5 156.9,258.2 152.7,260.4 152.7,251.7 		"/>
	</g>
	<g>
		<polygon class="st1" points="322.1,249.7 322.1,258.4 317.2,260.5 317.2,251.8 		"/>
	</g>
	<g>
		<polygon class="st1" points="152.7,251.7 152.7,260.4 148.7,260.7 148.7,252 		"/>
	</g>
	<g>
		<polygon class="st1" points="148.7,252 148.7,260.7 144.9,257.7 144.9,249 		"/>
	</g>
	<g>
		<polygon class="st5" points="131.1,251.2 131.1,259.9 129.8,263.4 129.8,254.7 		"/>
	</g>
	<g>
		<polygon class="st2" points="164.1,250.7 164.1,259.4 158.9,265.1 158.9,256.4 		"/>
	</g>
	<g>
		<polygon class="st1" points="143.6,256.6 143.6,265.2 139.6,260.3 139.6,251.6 		"/>
	</g>
	<g>
		<polygon class="st1" points="316.5,257.1 316.5,265.8 316.2,260.2 316.2,251.5 		"/>
	</g>
	<g>
		<polygon class="st41" points="316.5,251.1 316.5,259.8 316.5,265.8 316.5,257.1 		"/>
	</g>
	<g>
		<polygon class="st1" points="146.3,257.4 146.3,266.1 143.6,265.2 143.6,256.6 		"/>
	</g>
	<g>
		<polygon class="st1" points="158.9,256.4 158.9,265.1 154.6,266.7 154.6,258 		"/>
	</g>
	<g>
		<polygon class="st1" points="154.6,258 154.6,266.7 146.3,266.1 146.3,257.4 		"/>
	</g>
	<g>
		<polygon class="st12" points="131.4,261.2 131.4,269.9 129.8,263.4 129.8,254.7 		"/>
	</g>
	<g>
		<polygon class="st39" points="316.5,257.1 316.5,265.8 313.7,269.9 313.7,261.2 		"/>
	</g>
	<g>
		<polygon class="st3" points="317.5,257.2 317.5,265.9 314.5,270.5 314.5,261.8 		"/>
	</g>
	<g>
		<polygon class="st1" points="130.8,261.9 130.8,270.6 128.8,263.5 128.8,254.8 		"/>
	</g>
	<g>
		<polygon class="st12" points="137.3,264.5 137.3,273.2 131.4,269.9 131.4,261.2 		"/>
	</g>
	<g>
		<polygon class="st8" points="313.7,261.2 313.7,269.9 310.5,273.3 310.5,264.6 		"/>
	</g>
	<g>
		<polygon class="st1" points="136.4,265 136.4,273.7 130.8,270.6 130.8,261.9 		"/>
	</g>
	<g>
		<polygon class="st2" points="314.5,261.8 314.5,270.5 311.3,273.9 311.3,265.3 		"/>
	</g>
	<g>
		<polygon class="st8" points="310.5,264.6 310.5,273.3 307.6,276.4 307.6,267.7 		"/>
	</g>
	<g>
		<polygon class="st2" points="311.3,265.3 311.3,273.9 308.5,276.9 308.5,268.2 		"/>
	</g>
	<g>
		<polygon class="st12" points="138.4,268.4 138.4,277.1 137.3,273.2 137.3,264.5 		"/>
	</g>
	<g>
		<polygon class="st1" points="137.5,268.9 137.5,277.6 136.4,273.7 136.4,265 		"/>
	</g>
	<g>
		<polygon class="st12" points="139.6,270.4 139.6,279.1 138.4,277.1 138.4,268.4 		"/>
	</g>
	<g>
		<polygon class="st1" points="309.1,270.5 309.1,279.2 307.5,276.9 307.5,268.2 		"/>
	</g>
	<g class="st0">
		<g>
			<defs>
				<path id="SVGID_00000168826189571315833850000005016913158668565944_" d="M312.1,267.9v8.7c-1.2,0.4-1.5,0.7-1.8,1
					c-0.6,0.6-1.1,1.3-1.2,1.6v-8.7c0.2-0.3,0.7-1,1.2-1.6C310.6,268.6,310.9,268.3,312.1,267.9z"/>
			</defs>
			<clipPath id="SVGID_00000036955549167460140430000006106944051012768654_">
				<use xlink:href="#SVGID_00000168826189571315833850000005016913158668565944_"  style="overflow:visible;"/>
			</clipPath>
			<g style="clip-path:url(#SVGID_00000036955549167460140430000006106944051012768654_);enable-background:new    ;">
				<path class="st2" d="M312.1,267.9v8.7c-1.2,0.4-1.5,0.7-1.8,1c-0.2,0.2-0.4,0.4-0.5,0.6v-8.7c0.2-0.2,0.3-0.4,0.5-0.6
					C310.6,268.6,310.9,268.3,312.1,267.9"/>
				<path class="st3" d="M309.8,269.5v8.7c-0.3,0.4-0.6,0.8-0.7,1v-8.7C309.2,270.3,309.5,269.9,309.8,269.5"/>
			</g>
		</g>
	</g>
	<g>
		<polygon class="st1" points="138.7,270.9 138.7,279.6 137.5,277.6 137.5,268.9 		"/>
	</g>
	<g class="st0">
		<g>
			<defs>
				<path id="SVGID_00000126285938662612284980000017488875730920442549_" d="M312.8,271.5v8.7c0-1.1-0.1-2-0.2-2.5
					c-0.1-0.6-0.3-0.9-0.5-1V268c0.1,0.1,0.3,0.4,0.5,1C312.7,269.5,312.8,270.4,312.8,271.5z"/>
			</defs>
			<clipPath id="SVGID_00000105396059414594162530000016228690039149500312_">
				<use xlink:href="#SVGID_00000126285938662612284980000017488875730920442549_"  style="overflow:visible;"/>
			</clipPath>
			<g style="clip-path:url(#SVGID_00000105396059414594162530000016228690039149500312_);enable-background:new    ;">
				<path class="st2" d="M312.8,271.5v8.7c0-1.1-0.1-2-0.2-2.5c-0.1-0.6-0.3-0.9-0.5-1V268c0.1,0.1,0.3,0.4,0.5,1
					C312.7,269.5,312.8,270.4,312.8,271.5"/>
			</g>
		</g>
	</g>
	<g class="st0">
		<g>
			<defs>
				<path id="SVGID_00000131361838086727792200000008482123812008807615_" d="M312.8,280.2c0,0,0,0.1,0,0.2v-8.7c0-0.1,0-0.1,0-0.2
					C312.8,274.1,312.8,277.6,312.8,280.2z"/>
			</defs>
			<clipPath id="SVGID_00000076593705703205903870000000231349667442498193_">
				<use xlink:href="#SVGID_00000131361838086727792200000008482123812008807615_"  style="overflow:visible;"/>
			</clipPath>
			<g style="clip-path:url(#SVGID_00000076593705703205903870000000231349667442498193_);enable-background:new    ;">
				<path class="st45" d="M312.8,271.5v8.7c0,0,0,0.1,0,0.2v-8.7C312.8,271.6,312.8,271.5,312.8,271.5"/>
			</g>
		</g>
	</g>
	<g>
		<polygon class="st12" points="173.4,271.9 173.4,280.6 166.9,281.4 166.9,272.7 		"/>
	</g>
	<g>
		<polygon class="st12" points="177.7,273.1 177.7,281.8 173.4,280.6 173.4,271.9 		"/>
	</g>
	<g>
		<polygon class="st1" points="173.3,272.9 173.3,281.5 167,282.4 167,273.7 		"/>
	</g>
	<g>
		<polygon class="st1" points="177.1,273.9 177.1,282.6 173.3,281.5 173.3,272.9 		"/>
	</g>
	<g>
		<polygon class="st12" points="141.6,274.3 141.6,282.9 139.6,279.1 139.6,270.4 		"/>
	</g>
	<g>
		<polygon class="st1" points="140.7,274.5 140.7,283.2 138.7,279.6 138.7,270.9 		"/>
	</g>
	<g>
		<polygon class="st12" points="158.2,275.3 158.2,284 151.6,283.7 151.6,275 		"/>
	</g>
	<g>
		<polygon class="st12" points="166.9,272.7 166.9,281.4 158.2,284 158.2,275.3 		"/>
	</g>
	<g>
		<polygon class="st12" points="151.6,275 151.6,283.7 146.5,284.8 146.5,276.2 		"/>
	</g>
	<g>
		<polygon class="st1" points="167,273.7 167,282.4 158.4,284.9 158.4,276.2 		"/>
	</g>
	<g>
		<polygon class="st1" points="158.4,276.2 158.4,284.9 151.6,284.7 151.6,276 		"/>
	</g>
	<g>
		<polygon class="st12" points="182,276.5 182,285.2 177.7,281.8 177.7,273.1 		"/>
	</g>
	<g>
		<polygon class="st12" points="146.5,276.2 146.5,284.8 142.1,285.6 142.1,276.9 		"/>
	</g>
	<g>
		<polygon class="st12" points="142.1,276.9 142.1,285.6 141.6,282.9 141.6,274.3 		"/>
	</g>
	<g>
		<polygon class="st1" points="151.6,276 151.6,284.7 146.8,285.8 146.8,277.1 		"/>
	</g>
	<g>
		<polygon class="st1" points="181.4,277.3 181.4,286 177.1,282.6 177.1,273.9 		"/>
	</g>
	<g>
		<polygon class="st1" points="146.8,277.1 146.8,285.8 141.8,286.7 141.8,278 		"/>
	</g>
	<g>
		<polygon class="st1" points="141.8,278 141.8,286.7 140.7,283.2 140.7,274.5 		"/>
	</g>
	<g class="st0">
		<g>
			<defs>
				<path id="SVGID_00000159443667371767786990000013953904534956308364_" d="M313.8,271.6v8.7c0,0.7,0,1.5-0.1,2.5
					c-0.1,1.8-0.2,3.2-0.2,4.2v-8.7c0-1.1,0-2.4,0.2-4.2C313.8,273.2,313.8,272.4,313.8,271.6z"/>
			</defs>
			<clipPath id="SVGID_00000093867312501684049130000016676919650883158945_">
				<use xlink:href="#SVGID_00000159443667371767786990000013953904534956308364_"  style="overflow:visible;"/>
			</clipPath>
			<g style="clip-path:url(#SVGID_00000093867312501684049130000016676919650883158945_);enable-background:new    ;">
				<path class="st6" d="M313.8,271.6v8.7c0,0.7,0,1.5-0.1,2.5c-0.1,1.8-0.2,3.2-0.2,4.2v-8.7c0-1.1,0-2.4,0.2-4.2
					C313.8,273.2,313.8,272.4,313.8,271.6"/>
			</g>
		</g>
	</g>
	<g class="st0">
		<g>
			<defs>
				<path id="SVGID_00000047738740331224265020000015084528189980556430_" d="M312.7,282.7c-0.1,1.8-0.2,3.2-0.2,4.3v-8.7
					c0-1.1,0.1-2.5,0.2-4.3c0.1-0.9,0.1-1.7,0.1-2.4v8.7C312.8,281,312.8,281.8,312.7,282.7z"/>
			</defs>
			<clipPath id="SVGID_00000078024677134268324490000017968155132435174586_">
				<use xlink:href="#SVGID_00000047738740331224265020000015084528189980556430_"  style="overflow:visible;"/>
			</clipPath>
			<g style="clip-path:url(#SVGID_00000078024677134268324490000017968155132435174586_);enable-background:new    ;">
				<path class="st45" d="M312.8,271.6v8.7c0,0.7,0,1.5-0.1,2.4c-0.1,1.8-0.2,3.2-0.2,4.3v-8.7c0-1.1,0.1-2.5,0.2-4.3
					C312.8,273.1,312.8,272.3,312.8,271.6"/>
			</g>
		</g>
	</g>
	<g>
		<polygon class="st12" points="188.2,280.6 188.2,289.3 182,285.2 182,276.5 		"/>
	</g>
	<g>
		<polygon class="st1" points="187.4,281.3 187.4,290 181.4,286 181.4,277.3 		"/>
	</g>
	<g class="st0">
		<g>
			<defs>
				<path id="SVGID_00000038386583732643196240000003606873878335974575_" d="M315.1,280.3v8.7c0,0.4-0.2,0.8-0.4,1.1v-8.7
					C314.9,281.1,315.1,280.7,315.1,280.3z"/>
			</defs>
			<clipPath id="SVGID_00000178891399944501749320000016295166330049374382_">
				<use xlink:href="#SVGID_00000038386583732643196240000003606873878335974575_"  style="overflow:visible;"/>
			</clipPath>
			<g style="clip-path:url(#SVGID_00000178891399944501749320000016295166330049374382_);enable-background:new    ;">
				<path class="st6" d="M315.1,280.3v8.7c0,0.1,0,0.2,0,0.3v-8.7C315.1,280.5,315.1,280.4,315.1,280.3"/>
				<path class="st5" d="M315.1,280.6v8.7c0,0.1-0.1,0.3-0.1,0.4V281C315,280.8,315,280.7,315.1,280.6"/>
				<path class="st3" d="M314.9,281v8.7c-0.1,0.1-0.1,0.3-0.2,0.4v-8.7C314.8,281.3,314.9,281.1,314.9,281"/>
			</g>
		</g>
	</g>
	<g class="st0">
		<g>
			<defs>
				<path id="SVGID_00000182523376492912375140000016847761645355857318_" d="M312.9,281.5v8.7c-0.3-1-0.3-1.8-0.3-3.1v-8.7
					C312.5,279.6,312.6,280.5,312.9,281.5z"/>
			</defs>
			<clipPath id="SVGID_00000048501441101191921160000008624147077846485175_">
				<use xlink:href="#SVGID_00000182523376492912375140000016847761645355857318_"  style="overflow:visible;"/>
			</clipPath>
			<g style="clip-path:url(#SVGID_00000048501441101191921160000008624147077846485175_);enable-background:new    ;">
				<path class="st2" d="M312.9,281.5v8.7c-0.3-1-0.3-1.8-0.3-3.1v-8.7C312.5,279.6,312.6,280.5,312.9,281.5"/>
			</g>
		</g>
	</g>
	<g>
		<polygon class="st36" points="312.7,281 312.7,289.7 311.7,291.6 311.7,282.9 		"/>
	</g>
	<g>
		<polygon class="st2" points="314.7,281.4 314.7,290.1 312.5,292.1 312.5,283.4 		"/>
	</g>
	<g>
		<polygon class="st12" points="192.3,285.2 192.3,293.9 188.2,289.3 188.2,280.6 		"/>
	</g>
	<g>
		<polygon class="st1" points="191.4,285.8 191.4,294.4 187.4,290 187.4,281.3 		"/>
	</g>
	<g>
		<polygon class="st29" points="311.7,282.9 311.7,291.6 310.7,296.9 310.7,288.2 		"/>
	</g>
	<g>
		<polygon class="st6" points="312.5,283.4 312.5,292.1 311.7,297 311.7,288.4 		"/>
	</g>
	<g>
		<polygon class="st12" points="195.8,292.1 195.8,300.8 192.3,293.9 192.3,285.2 		"/>
	</g>
	<g>
		<polygon class="st1" points="194.8,292.1 194.8,300.8 191.4,294.4 191.4,285.8 		"/>
	</g>
	<g>
		<polygon class="st1" points="311,298.5 311,307.2 310.7,297 310.7,288.3 		"/>
	</g>
	<g>
		<polygon class="st12" points="298.8,299.3 298.8,307.9 294.1,307.4 294.1,298.7 		"/>
	</g>
	<g>
		<polygon class="st6" points="195.7,291.8 195.7,300.5 195.2,308.7 195.2,300.1 		"/>
	</g>
	<g>
		<polygon class="st12" points="302.4,300.2 302.4,308.8 298.8,307.9 298.8,299.3 		"/>
	</g>
	<g>
		<polygon class="st1" points="298.6,300.2 298.6,308.9 294.2,308.4 294.2,299.7 		"/>
	</g>
	<g>
		<polygon class="st40" points="311,298.5 311,307.2 310.2,309.2 310.2,300.5 		"/>
	</g>
	<g>
		<polygon class="st5" points="312,298.6 312,307.3 311.1,309.7 311.1,301 		"/>
	</g>
	<g>
		<polygon class="st1" points="302,301.1 302,309.7 298.6,308.9 298.6,300.2 		"/>
	</g>
	<g>
		<polygon class="st12" points="305,301.5 305,310.2 302.4,308.8 302.4,300.2 		"/>
	</g>
	<g>
		<polygon class="st50" points="294.1,298.7 294.1,307.4 290,310.3 290,301.6 		"/>
	</g>
	<g>
		<polygon class="st2" points="294.2,299.7 294.2,308.4 291.5,310.4 291.5,301.7 		"/>
	</g>
	<g>
		<polygon class="st51" points="310.2,300.5 310.2,309.2 307.9,310.5 307.9,301.8 		"/>
	</g>
	<g>
		<polygon class="st12" points="307.9,301.8 307.9,310.5 305,310.2 305,301.5 		"/>
	</g>
	<g>
		<polygon class="st1" points="304.8,302.5 304.8,311.2 302,309.7 302,301.1 		"/>
	</g>
	<g>
		<polygon class="st1" points="311.1,301 311.1,309.7 308.2,311.4 308.2,302.7 		"/>
	</g>
	<g>
		<polygon class="st1" points="308.2,302.7 308.2,311.4 304.8,311.2 304.8,302.5 		"/>
	</g>
	<g>
		<polygon class="st1" points="292.1,302.8 292.1,311.5 290.2,311.2 290.2,302.5 		"/>
	</g>
	<g>
		<polygon class="st51" points="292.1,302.8 292.1,311.5 289.5,313.1 289.5,304.5 		"/>
	</g>
	<g>
		<polygon class="st2" points="293.6,302.1 293.6,310.8 290.3,313.8 290.3,305.1 		"/>
	</g>
	<g>
		<polygon class="st6" points="195.2,300.1 195.2,308.7 194.7,315.2 194.7,306.5 		"/>
	</g>
	<g>
		<polygon class="st1" points="289.5,310.7 289.5,319.4 289.2,313.6 289.2,304.9 		"/>
	</g>
	<g>
		<polygon class="st12" points="196.9,314.8 196.9,323.5 194.7,315.2 194.7,306.5 		"/>
	</g>
	<g>
		<polygon class="st1" points="195.9,314.5 195.9,323.2 193.7,315.4 193.7,306.7 		"/>
	</g>
	<g>
		<polygon class="st33" points="289.5,310.7 289.5,319.4 285.3,324.1 285.3,315.4 		"/>
	</g>
	<g>
		<polygon class="st2" points="290.5,310.8 290.5,319.5 286.4,324.4 286.4,315.7 		"/>
	</g>
	<g>
		<polygon class="st5" points="196.9,314.4 196.9,323.1 195,327.8 195,319.1 		"/>
	</g>
	<g>
		<polygon class="st1" points="289,319.7 289,328.3 285.3,324.7 285.3,316.1 		"/>
	</g>
	<g>
		<polygon class="st50" points="289,319.7 289,328.3 285.7,330.9 285.7,322.2 		"/>
	</g>
	<g>
		<polygon class="st2" points="290.1,319.4 290.1,328 286.5,331.5 286.5,322.8 		"/>
	</g>
	<g>
		<polygon class="st12" points="198.1,324.6 198.1,333.3 195,327.8 195,319.1 		"/>
	</g>
	<g>
		<polygon class="st1" points="197.1,324.7 197.1,333.4 194,328.1 194,319.4 		"/>
	</g>
	<g>
		<polygon class="st6" points="286.5,322.8 286.5,331.5 286.2,334.5 286.2,325.8 		"/>
	</g>
	<g>
		<polygon class="st37" points="285.7,322.2 285.7,330.9 285.2,334.6 285.2,325.9 		"/>
	</g>
	<g>
		<polygon class="st6" points="198.1,324.3 198.1,333 197.8,337 197.8,328.3 		"/>
	</g>
	<g>
		<polygon class="st1" points="288.4,329.6 288.4,338.3 285.3,335 285.3,326.3 		"/>
	</g>
	<g>
		<polygon class="st34" points="288.4,329.6 288.4,338.3 286.2,340 286.2,331.3 		"/>
	</g>
	<g>
		<polygon class="st2" points="197.8,328.3 197.8,337 195.2,340.3 195.2,331.6 		"/>
	</g>
	<g>
		<polygon class="st2" points="289.5,329.4 289.5,338 287.2,340.5 287.2,331.8 		"/>
	</g>
	<g>
		<polygon class="st1" points="287.8,335.5 287.8,344.2 286.1,340.6 286.1,331.9 		"/>
	</g>
	<g>
		<polygon class="st1" points="288.3,339.2 288.3,347.9 287.8,344.2 287.8,335.5 		"/>
	</g>
	<g>
		<polygon class="st34" points="288.3,339.2 288.3,347.9 285.2,350.4 285.2,341.8 		"/>
	</g>
	<g>
		<polygon class="st3" points="195.2,337.4 195.2,346.1 191.9,350.6 191.9,342 		"/>
	</g>
	<g>
		<polygon class="st12" points="285.2,341.8 285.2,350.4 279.9,350.7 279.9,342 		"/>
	</g>
	<g>
		<polygon class="st12" points="279.9,342 279.9,350.7 275.5,351 275.5,342.3 		"/>
	</g>
	<g>
		<polygon class="st2" points="289.4,339.3 289.4,348 285.7,351.3 285.7,342.6 		"/>
	</g>
	<g>
		<polygon class="st1" points="285.7,342.6 285.7,351.3 279.9,351.7 279.9,343 		"/>
	</g>
	<g>
		<polygon class="st1" points="279.9,343 279.9,351.7 275.7,352 275.7,343.3 		"/>
	</g>
	<g>
		<polygon class="st51" points="275.5,342.3 275.5,351 268.6,350.5 270.9,345 		"/>
	</g>
	<g>
		<polygon class="st1" points="275.7,343.3 275.7,352 271.5,350.8 271.6,342.3 		"/>
	</g>
	<g class="st0">
		<g>
			<defs>
				<path id="SVGID_00000004532145145885374960000012297283911029495175_" d="M191.2,353v-0.1v-0.1v-0.1v-0.1v-0.1v-0.1
					c0,0,0,0,0-0.1c0-0.3,0-0.7,0-0.9c0-0.3,0-0.7,0-1s0-0.7,0-1s0-0.7,0-1.1c0-0.3,0-0.7,0-1.1c0-0.3,0-0.7,0-1s0-0.7,0-1
					s0-0.7,0-0.9c1.4,2.5,1.4,2.5,1.4,2.6v8.7C192.6,355.5,192.6,355.5,191.2,353z"/>
			</defs>
			<clipPath id="SVGID_00000106866238545898357310000017201331135323265720_">
				<use xlink:href="#SVGID_00000004532145145885374960000012297283911029495175_"  style="overflow:visible;"/>
			</clipPath>
			<g style="clip-path:url(#SVGID_00000106866238545898357310000017201331135323265720_);enable-background:new    ;">
				<path class="st8" d="M192.6,346.9v8.7c0,0,0,0-1.8-3.2c-0.4-0.7-0.5-1.1-0.5-1.3v-8.7c0,0.2,0.1,0.7,0.5,1.3
					C192.6,346.9,192.6,346.9,192.6,346.9"/>
			</g>
		</g>
	</g>
	<g class="st0">
		<g>
			<defs>
				<path id="SVGID_00000031928325614707787820000003604583071426644916_" d="M189.3,351v-8.7l0,0c0,0.5,0.2,1.1,0.6,1.8
					c1.7,3.1,1.7,3.1,1.7,3.1v8.7c0,0,0,0-1.7-3.1C189.5,352.1,189.3,351.5,189.3,351L189.3,351z"/>
			</defs>
			<clipPath id="SVGID_00000135679445484606128880000007193903179821583491_">
				<use xlink:href="#SVGID_00000031928325614707787820000003604583071426644916_"  style="overflow:visible;"/>
			</clipPath>
			<g style="clip-path:url(#SVGID_00000135679445484606128880000007193903179821583491_);enable-background:new    ;">
				<path class="st2" d="M191.7,347.3v8.7c0,0,0,0-1.7-3.1c-0.4-0.8-0.6-1.3-0.6-1.8l0,0v-8.7l0,0c0,0.5,0.2,1.1,0.6,1.8
					C191.7,347.3,191.7,347.3,191.7,347.3"/>
			</g>
		</g>
	</g>
	<g>
		<polygon class="st12" points="193.4,348.9 193.4,357.5 192.6,355.6 192.6,346.9 		"/>
	</g>
	<g>
		<polygon class="st3" points="261.7,342.6 267.1,341.1 267.1,350.4 261.4,351.9 		"/>
	</g>
	<g>
		<polygon class="st1" points="275,342.5 275.3,351.6 267.1,350 267.1,341.1 		"/>
	</g>
	<g>
		<polygon class="st1" points="192.6,349.4 192.6,358 191.7,356 191.7,347.3 		"/>
	</g>
	<g>
		<polygon class="st3" points="271.5,342.1 271.5,350.9 267.3,350.4 267.3,341.3 		"/>
	</g>
	<g>
		<polygon class="st12" points="255.8,345.6 256.4,355 254.1,358.4 254.1,349.7 		"/>
	</g>
	<g>
		<polygon class="st1" points="261.7,342.6 256,345.9 256.2,355.4 261.5,351.7 		"/>
	</g>
	<g>
		<polygon class="st12" points="254.1,349.7 254.1,358.4 251.1,359 251.1,350.3 		"/>
	</g>
	<g>
		<polygon class="st1" points="255.8,346 256,355.6 254.2,359.4 254.2,350.7 		"/>
	</g>
	<g>
		<polygon class="st1" points="254.2,350.7 254.2,359.4 251.5,359.9 251.5,351.2 		"/>
	</g>
	<g>
		<polygon class="st12" points="195.5,352.2 195.5,360.9 193.4,357.5 193.4,348.9 		"/>
	</g>
	<g>
		<polygon class="st1" points="194.5,352.4 194.5,361.1 192.6,358 192.6,349.4 		"/>
	</g>
	<g>
		<polygon class="st8" points="251.1,350.3 251.1,359 245.9,364.3 245.9,355.6 		"/>
	</g>
	<g>
		<polygon class="st2" points="251.5,351.2 251.5,359.9 246.8,364.8 246.8,356.1 		"/>
	</g>
	<g>
		<polygon class="st3" points="195.5,355.9 195.5,364.6 191.7,370.9 191.7,362.2 		"/>
	</g>
	<g>
		<polygon class="st41" points="245.9,355.6 245.9,364.3 245.5,371.6 245.5,362.9 		"/>
	</g>
	<g>
		<polygon class="st6" points="246.8,356.1 246.8,364.8 246.5,371.8 246.5,363.1 		"/>
	</g>
	<g>
		<polygon class="st2" points="191.7,362.2 191.7,370.9 189,374.3 189,365.6 		"/>
	</g>
	<g>
		<polygon class="st39" points="245.5,362.9 245.5,371.6 242.4,376 242.4,367.3 		"/>
	</g>
	<g>
		<polygon class="st3" points="246.5,363.1 246.5,371.8 243.2,376.6 243.2,367.9 		"/>
	</g>
	<g>
		<polygon class="st12" points="191.6,369.3 191.6,378 189,374.3 189,365.6 		"/>
	</g>
	<g>
		<polygon class="st1" points="191,370 191,378.7 187.9,374.6 187.9,365.9 		"/>
	</g>
	<g>
		<polygon class="st12" points="194.2,371.6 194.2,380.2 191.6,378 191.6,369.3 		"/>
	</g>
	<g>
		<polygon class="st1" points="193.2,371.7 193.2,380.4 191,378.7 191,370 		"/>
	</g>
	<g>
		<polygon class="st33" points="242.4,367.3 242.4,376 238.1,381.1 238.1,372.4 		"/>
	</g>
	<g>
		<polygon class="st2" points="243.2,367.9 243.2,376.6 238.9,381.8 238.9,373.1 		"/>
	</g>
	<g class="st0">
		<g>
			<defs>
				<path id="SVGID_00000117663733941257756890000009737920866288119196_" d="M193.3,373.2v8.7c0-1-0.1-1.4-0.1-1.5v-8.7
					C193.2,371.8,193.3,372.2,193.3,373.2z"/>
			</defs>
			<clipPath id="SVGID_00000090984336392340295420000009310808454095880120_">
				<use xlink:href="#SVGID_00000117663733941257756890000009737920866288119196_"  style="overflow:visible;"/>
			</clipPath>
			<g style="clip-path:url(#SVGID_00000090984336392340295420000009310808454095880120_);enable-background:new    ;">
				<path class="st2" d="M193.3,373.2v8.7c0-1-0.1-1.4-0.1-1.5v-8.7C193.2,371.8,193.3,372.2,193.3,373.2"/>
			</g>
		</g>
	</g>
	<g class="st0">
		<g>
			<defs>
				<path id="SVGID_00000042712217940243659500000010688012786837461396_" d="M194.3,373.2v8.7c0-0.8-0.1-1.3-0.1-1.6v-8.7
					C194.3,371.9,194.3,372.4,194.3,373.2z"/>
			</defs>
			<clipPath id="SVGID_00000090287020558714348060000000782545683159318174_">
				<use xlink:href="#SVGID_00000042712217940243659500000010688012786837461396_"  style="overflow:visible;"/>
			</clipPath>
			<g style="clip-path:url(#SVGID_00000090287020558714348060000000782545683159318174_);enable-background:new    ;">
				<path class="st8" d="M194.3,373.2v8.7c0-0.8-0.1-1.3-0.1-1.6v-8.7C194.3,371.9,194.3,372.4,194.3,373.2"/>
			</g>
		</g>
	</g>
	<g>
		<polygon class="st8" points="238.1,372.4 238.1,381.1 233.8,385.4 233.8,376.7 		"/>
	</g>
	<g>
		<polygon class="st2" points="238.9,373.1 238.9,381.8 234.5,386.1 234.5,377.4 		"/>
	</g>
	<g>
		<polygon class="st34" points="233.8,376.7 233.8,385.4 229.5,389.1 229.5,380.4 		"/>
	</g>
	<g>
		<polygon class="st2" points="234.5,377.4 234.5,386.1 230.1,389.8 230.1,381.1 		"/>
	</g>
	<g class="st0">
		<g>
			<defs>
				<path id="SVGID_00000155111293967359805270000003498289261218106788_" d="M194.1,385.5c-0.5,4.1-0.6,4.7-0.6,4.8v-8.7
					c0-0.1,0.1-0.7,0.6-4.8c0.2-1.6,0.3-2.8,0.3-3.6v8.7C194.3,382.7,194.3,383.9,194.1,385.5z"/>
			</defs>
			<clipPath id="SVGID_00000169523696285294130990000018089655735027741352_">
				<use xlink:href="#SVGID_00000155111293967359805270000003498289261218106788_"  style="overflow:visible;"/>
			</clipPath>
			<g style="clip-path:url(#SVGID_00000169523696285294130990000018089655735027741352_);enable-background:new    ;">
				<path class="st6" d="M194.3,373.2v8.7c0,0.8-0.1,2-0.3,3.6c-0.5,4.1-0.6,4.7-0.6,4.8v-8.7c0-0.1,0.1-0.7,0.6-4.8
					C194.3,375.2,194.3,374,194.3,373.2"/>
			</g>
		</g>
	</g>
	<g>
		<polygon class="st19" points="229.5,380.4 229.5,389.1 224.2,396 224.2,387.3 		"/>
	</g>
	<g>
		<polygon class="st3" points="230.1,381.1 230.1,389.8 225,396.6 225,387.9 		"/>
	</g>
	<g>
		<polygon class="st12" points="193.8,389.9 193.8,398.5 193.5,390.3 193.5,381.7 		"/>
	</g>
	<g>
		<polygon class="st1" points="192.8,389.9 192.8,398.6 192.5,390.3 192.5,381.6 		"/>
	</g>
	<g>
		<polygon class="st57" points="224.2,387.3 224.2,396 220.1,402.3 220.1,393.6 		"/>
	</g>
	<g>
		<polygon class="st3" points="225,387.9 225,396.6 220.9,402.8 220.9,394.1 		"/>
	</g>
	<g>
		<polygon class="st1" points="193.1,397.6 193.1,406.3 192.8,398.6 192.8,389.9 		"/>
	</g>
	<g>
		<polygon class="st12" points="194.1,397.6 194.1,406.3 193.8,398.5 193.8,389.9 		"/>
	</g>
	<g>
		<polygon class="st8" points="220.1,393.6 220.1,402.3 215.3,407 215.3,398.3 		"/>
	</g>
	<g>
		<polygon class="st2" points="220.9,394.1 220.9,402.8 215.9,407.8 215.9,399.1 		"/>
	</g>
	<g>
		<polygon class="st6" points="194.1,397.6 194.1,406.3 193.8,410 193.8,401.3 		"/>
	</g>
	<g>
		<polygon class="st12" points="215.3,398.3 215.3,407 208.4,410.1 208.4,401.4 		"/>
	</g>
	<g>
		<polygon class="st1" points="215.9,399.1 215.9,407.8 208.8,411 208.8,402.3 		"/>
	</g>
	<g>
		<polygon class="st12" points="196.9,403.4 196.9,412.1 193.8,410 193.8,401.3 		"/>
	</g>
	<g>
		<path class="st58" d="M192.1,1.3l6.3,1.7l5.1,2.3l4.5,2.8l4,6.2l9.3,6.9l4,5.1l5.3,3.5l6,1.2l6.1-2.3l2.5-4.1l5-3.3l7.3-0.5l9,2.8
			l3.4,4.4l7,4.6l4,5.6l4.6,7.9l1.7,7.3l0.6,14.8l0.6,7.4l3.5,5.9l2.3,5.7l6.6,3.1l7.1,1.2l8.4-4l5.3-5.7l6-2.7l3.8,2.1l4,3.4
			l4.7,2.9l8.3,0.6h10.4l7.9,2.8l4.9,4.3l-1.6,5.6h-6.6l-4.2,1.2l-7.6,2.9l-4.3,5.3L346,115l1.8,5.4l6,3.7l6.3,4.5l5.6,5.6l1.1,9.5
			l-2.9,15.3l-1.7,7.9l-6.3,7.3l-4,4.5l-4.5,2.2l-5.9,4.6l-5.8,5.2l-2.4,4.1l-1.2,7l-1.1,11l-3.1,0.2l-5.4,4.3l-5.3,0.3l-3.8,3.3
			l-0.4,3.4l-0.6,3.4l4.9,3.1l3.4,1.7l3.3,3.8l0.8,4.3l-1.9,3.6l-2,5.3l-4.7,1.9v6l-2.8,4.1l-3.2,3.4l-2.9,3.1l0.5,2.7
			c1.2-0.3,1.7-1,2.2-1.6c0.3-0.3,0.6-0.6,0.9-0.8c1.1-0.1,1.3,0.2,1.4,0.8c0.1,0.6,0.2,1.5,0.2,2.7c0,0.7,0,1.5-0.1,2.4
			c-0.1,1.8-0.2,3.2-0.2,4.3c0,1.3,0.1,2.1,0.2,2.7l-1.1,1.8l-1,5.4l0.3,10.3l-0.8,2l-2.3,1.3l-2.9-0.3l-2.5-1.4l-3.6-0.9l-4.7-0.6
			l-4.1,3l2.1,1.2l-2.7,1.6v6.2l-4.2,4.7l3.7,4.3l-3.3,2.5l-0.5,3.8l3.2,3.7l-2.2,1.7l1.6,4.2l0.5,3.7l-3.1,2.6l-5.3,0.3l-4.3,0.3
			l-7.9-1.5l-5.7,1.5l-5.6,3l-2.3,4.4l-2.9,0.6l-5.2,5.3l-0.4,7.3l-3.1,4.4l-4.3,5.1l-4.3,4.3l-4.3,3.7l-5.3,6.9l-4,6.3l-4.8,4.7
			l-6.9,3.1l-5.7,2.2l-5.8-0.3l-3.1-2l0.3-3.7l-0.3-7.8l-0.3-8.2c0-0.1,0.1-0.7,0.6-4.8c0.2-1.6,0.3-2.8,0.3-3.6s-0.1-1.3-0.1-1.6
			l-2.6-2.3l-2.6-3.6l2.7-3.4l3.8-6l0.1-4l-2.1-3.4l-0.9-2c0,0,0,0-1.8-3.2c-0.4-0.7-0.5-1.1-0.5-1.4l4.8-4.7l0.1-6.1l2.5-3l0.4-4
			l-3.1-5.5l1.9-4.3l-2.3-8.2l0.6-6.5l0.6-8l-3.5-6.8l-4.1-4.7l-6.2-4.1l-4.3-3.4l-4.2-1.2l-6.6,0.8l-8.7,2.6l-6.6-0.3l-5,1.2
			l-4.4,0.8l-0.5-2.7l-2.1-3.9l-1.1-2l-1.1-3.9l-5.8-3.3l-1.6-6.5l1.4-3.5l2.1-2.1l2-0.5l4.4,3l3.7,4.8l2.8,1l8.2,0.6l4.3-1.5
			l5.4-5.8l3.4-2.8l3.9-6.1l-3.2-1.3l-5.5,1.7l-4.5,3.8l-2,2.8l-3.9,1.9l-3.5,0.3l-3.3-2.7l-3.5-3.4l-2-0.6l-1.7-4.6l-2.4-2.7
			l-2.5-3.9l-0.8-3.2l1.4-4.1l2-2.8l2.6-2.8l0.4-2.2l0.9-4.3l0.6-3.4l0.3-4l-3.6-3.2l-1.4-3l-0.5-2.2v-2.2l1.1-4.5l-0.3-4.1
			l-0.9-2.2l-0.8-1.8l1.4-4.4l-0.3-3.5l1.1-5.1l-1.5-2.4l-2.3-2.3l-0.5-1.8l0.6-3.6c0-0.1-0.1-0.8-0.2-1.6c-0.2-0.8-0.4-1.7-0.7-2.4
			c-0.1-0.2-0.2-0.8-0.2-1.5c0-0.6,0.1-1.4,0.1-1.9l-2.8-3.8l-1.7-4.2l-2.3-1.5c0-0.8-0.2-3.1-0.9-5l-2.6-2.6v-2.9l-0.3-4l-0.3-3.8
			l2.2-2.4l0.1-3.7l1.4-4.5l-4-2.3l-3.1-0.6l-1.6-1.9c-1-1.2-1.7-2.1-2.3-3s-1.2-1.7-1.4-2.1l-3.5-5.5l-2-2.6l-2.6-4
			c-0.6-0.3-3.2-1.2-5.3-3.2L96,87l2.8-14.5c0.2-1.5,0.6-2.5,1.1-3.3c0.7-1.2,1.8-1.8,3.1-2.6c1.3-0.7,2.9-1.5,4.6-2.8
			c5.7-4.5,9.2-7.9,13.9-12c0.5-1.9,0.4-2.4,0.4-2.9c1.6-1.9,2.2-2,2.8-2.1c0.6-0.1,1.3-0.2,1.9-0.6c2-1.2,3.3-1.7,4.6-2.3
			c1.3-0.6,2.5-1.4,4-3.2c1.1-1.3,1.5-2.6,2-3.8c0.4-1.2,0.9-2.4,1.8-3.6c0.9-1.1,1.6-1.8,2.2-2.3c1-0.7,1.7-0.9,2.8-1.2
			c1-0.3,2.3-0.7,4-1.7c1.5-0.9,2.4-1.7,3-2.4c0.9-1.1,1.1-2.1,1.4-3.1c0.2-1,0.5-2.1,1.5-3.8c0.9-1.3,1.8-2.1,2.9-3
			s2.3-1.9,3.8-3.7l5-0.6l7-2.3l6.5-5.2l7.9-2.8h5.1V1.3z"/>
	</g>
	<g>
		<polygon class="st12" points="202.8,403.6 202.8,412.3 196.9,412.1 196.9,403.4 		"/>
	</g>
	<g>
		<polygon class="st12" points="208.4,401.4 208.4,410.1 202.8,412.3 202.8,403.6 		"/>
	</g>
	<g>
		<polygon class="st1" points="196.7,404.4 196.7,413 193,410.7 193,402 		"/>
	</g>
	<g>
		<polygon class="st1" points="203,404.6 203,413.3 196.7,413 196.7,404.4 		"/>
	</g>
	<g>
		<polygon class="st1" points="208.8,402.3 208.8,411 203,413.3 203,404.6 		"/>
	</g>
	<g>
		<path class="st59" d="M372.6,94.5l-1.6,6.8l-7.4,0.4l-4,1.1l-7.4,2.8l-3.9,4.9l-1.1,4.3l1.6,4.8l5.6,3.3l6.4,4.6l5.9,5.8l1.3,10
			l-2.9,15.5l-1.7,8l-6.5,7.6l-4.1,4.6l-4.7,2.4l-5.7,4.5l-5.7,5.1l-2.2,3.9l-1.1,6.7l-1.2,11.4l-3.8,0.7l-5.1,4.2l-5.6,0.4
			l-3.2,2.9l-0.3,3l-0.5,3.1l4.3,2.4l3.5,1.7l3.6,4.1l1,4.8l-2.1,4l-2,5.4l-4.9,2.1l0.3,5.4l-3,4.6l-3.2,3.5l-2.7,2.9
			c0.7,0.3,1.3-0.3,1.9-0.8c0.4-0.3,0.9-0.6,1.4-0.6c1.2,0.6,1.4,0.9,1.5,1.2c0.3,0.8,0.5,1.9,0.5,3.6c0,0.7,0,1.5-0.1,2.5
			c-0.1,1.8-0.2,3.2-0.2,4.2c0,0.9,0,1.5,0.1,2l0.9-0.9c0.8,0.5,0.5,1.3,0.1,1.9l-2.2,2l-0.8,5l0.3,10.2L311,301l-2.8,1.7l-3.5-0.2
			L302,301l-3.4-0.8l-4.4-0.5l-2.7,2l2.1,0.4l-3.3,3l0.3,5.7l-4.2,4.8l3.7,3.7l-3.6,3.5l-0.3,3l3.3,3.6l-2.4,2.5l1.6,3.3l0.6,4.1
			l-3.7,3.3l-5.8,0.4l-3.4-0.2l-9.3-1.6l-5.6,1.6l-5.6,3l-1.9,5l-2.7,0.5l-4.7,4.9l-0.3,6.9l-3.3,4.8l-4.4,5.2l-4.4,4.3L230,381
			l-5.2,6.8l-4,6.3l-5,4.9l-7.1,3.2l-5.8,2.3l-6.3-0.2l-3.7-2.4l0.1-4.4l-0.3-7.7l-0.3-8.3c0-0.1,0-0.1,0.6-4.9
			c0.2-1.6,0.3-2.7,0.3-3.5c0-1-0.1-1.4-0.1-1.5L191,370l-3-4.1l2.9-4.3l3.7-5.8v-3.4l-1.9-3l-0.9-2c0,0,0,0-1.7-3.1
			c-0.4-0.8-0.6-1.3-0.6-1.8c0-0.4,0.2-0.9,0.5-1.1l4.4-4.1v-5.8l2.6-3.3l0.3-3.4l-3.1-5.3l1.9-4.8l-2.3-7.8l0.6-6.7l0.6-7.8
			l-3.4-6.4l-4-4.5l-6-4l-4.3-3.4l-3.9-1.1l-6.2,0.8l-8.7,2.6l-6.8-0.3l-4.9,1.1l-5,0.9l-1.1-3.5l-2-3.6l-1.2-2l-1.2-3.9l-5.6-3
			l-2-7.2l1.5-4l2.4-2.5l2.5-0.7l5,3.2l3.8,4.8l2.4,0.8l7.9,0.6l3.8-1.3l5.1-5.6l3.5-2.9l3.3-5.3l-2.1-0.4l-5,1.6l-4.2,3.6l-2,2.8
			l-4.2,2.2l-4,0.3l-3.8-3l-3.4-3.4l-1.9-0.5l-2-5.1l-2.2-2.5l-2.7-4.1l-0.9-3.6l1.5-4.6l2.1-3l2.5-2.8l0.3-1.8l0.9-4.3l0.6-3.4
			l0.3-3.7l-3.3-2.7l-1.6-3.3l-0.5-2.3v-2.4l1.2-4.6l-0.3-3.8l-0.8-1.9l-0.9-2l1.4-4.8l-0.3-3.3l1.1-5.1l-1.3-1.8l-2.3-2.3l-0.7-2.2
			l0.6-3.8c-0.3-2.1-0.6-3-0.8-3.5c-0.3-0.5-0.3-1.2-0.3-1.9c0-1.1,0.1-2.2,0.2-2.7l-2.7-2.4l-1.8-4.3l-2.2-1.3
			c-0.3-1.2-0.3-1.6-0.3-2.1c-0.1-0.9-0.3-2.2-0.7-3.2l-2.5-2.5l-0.1-3.5l-0.3-4l-0.3-4l2.3-2.8v-3.2l1.3-4.3l-3.3-1.5l-3.1-0.6
			l-2-2.2c0,0-1.8-2.3-3-3.9c-0.4-0.5-0.7-1-0.8-1.3l-3.5-5.4l-2-2.5l-2.5-3.9c-0.7-0.2-3.1-1.1-5.2-3.2l-3.2-2.3l2.7-15.3
			c0.2-1.5,0.6-2.7,1.2-3.6c0.6-0.9,1.3-1.6,2.2-2.1c1.7-1.1,3.7-1.8,5.8-3.5c5.7-4.5,9.1-7.8,13.9-11.9c0.1-1,0-1.6,0-2.2
			c0-0.4,0-0.8,0.1-1.1c0.1-0.4,0.3-0.7,0.6-1c0.3-0.3,0.7-0.5,1.1-0.6s0.8-0.2,1.2-0.2c0.8-0.1,1.6-0.2,2.1-0.5
			c2.1-1.3,3.5-1.8,4.7-2.3c1.2-0.6,2.2-1.2,3.6-2.9c1-1.2,1.4-2.3,1.8-3.6c0.4-1.2,0.9-2.5,1.9-3.8c0.9-1.2,1.7-1.9,2.4-2.4
			c0.7-0.5,1.4-0.8,2.1-1c1.4-0.4,2.6-0.6,4.7-1.9c1.4-0.9,2.3-1.6,2.8-2.2c0.5-0.6,0.8-1.1,0.9-1.7c0.3-1.2,0.4-2.7,1.9-5.1
			c1-1.5,2-2.3,3.1-3.2c1-0.8,2-1.7,3.3-3.2l6-1.4l6.8-2.2l6.3-5.1l8.3-2.9h5.4l6.5,1.7l5.3,2.3l4.7,2.9l4.2,6.4l9.2,6.8l4.1,5.2
			l5.1,3.3l5.6,1.1l5.5-2.2l2.2-3.8l5.4-3.6l7.8-0.7l9.5,2.9l3.7,4.7l6.9,4.5l4.2,5.8l4.7,8l1.8,7.6l0.6,14.9l0.6,7.3l3.4,5.6
			l2.3,5.6l6.1,2.7l6.7,1.1l7.9-3.9l5.2-5.6l6.5-3l4.5,2.3l4.1,3.4l4.5,2.8l8,0.6h10.4l8.3,2.9L372.6,94.5z M370.2,100.7l1.6-5.6
			l-4.9-4.3L359,88h-10.3l-8.1-0.6l-4.9-2.9l-4.1-3.4l-3.8-2.1l-6,2.7l-5.1,5.6l-8.3,4.1l-7.3-1.1l-6.5-2.9l-2.6-5.9l-3.5-5.7
			l-0.6-7.6l-0.6-14.8l-1.7-7.3l-4.6-7.9l-4-5.6l-6.9-4.5l-3.5-4.6l-9-2.8l-7.3,0.5l-5,3.3l-2.3,3.9l-6,2.5l-6.1-1.1l-5.4-3.5
			l-4.1-5.2l-9.2-6.8L208.1,8l-4.5-2.8L198.3,3L192,1.3h-5.1L179,4.1l-6.3,5.1l-7.1,2.4l-5.1,0.6c-1.5,1.8-2.7,2.9-3.8,3.7
			c-1.1,0.9-2,1.7-2.9,3c-1.1,1.7-1.3,2.8-1.5,3.8s-0.4,2-1.4,3.1c-0.6,0.7-1.6,1.5-3,2.4c-1.7,1-2.9,1.4-4,1.7s-1.9,0.5-2.8,1.2
			c-0.6,0.5-1.4,1.2-2.2,2.3c-0.9,1.2-1.3,2.3-1.8,3.6c-0.4,1.2-0.9,2.6-2,3.8c-1.5,1.8-2.7,2.6-4,3.2c-1.3,0.6-2.6,1-4.6,2.3
			c-0.6,0.4-1.2,0.5-1.9,0.6c-0.6,0.1-1.2,0.2-1.7,0.3c-1.1,2.3-1.1,2.9-1.1,3.4c-5.2,5.4-8.7,8.8-14.4,13.3
			c-1.7,1.3-3.3,2.1-4.6,2.8s-2.4,1.4-3.1,2.6c-0.5,0.8-0.9,1.8-1.1,3.3l-2.8,14.6l2.9,2.1c2.1,2.1,4.8,3,5,3.1l2.9,4.2l2,2.6
			l3.5,5.5c0.2,0.4,0.8,1.2,1.4,2.1c0.6,0.9,1.3,1.8,1.8,2.4l2.1,2.5l3,0.5l3.9,1.7l-1.2,5.1v3.4l-2.3,2.7l0.3,3.8l0.3,4v3l2.5,2.4
			c0.9,2.1,1,4.4,1,5.2l2.1,1.3l1.9,4.4l2.8,2.5c0,1.9-0.1,2.6-0.1,3.2s0.1,1.2,0.2,1.5c0.3,0.7,0.5,1.6,0.7,2.4s0.2,1.5,0.2,1.5
			l-0.6,3.7l0.5,1.8l2.2,2.2l1.5,2.1l-1.1,5.5l0.3,3.3l-1.4,4.6l0.8,1.8l0.9,2l0.3,4.1l-1.2,4.7v2.2l0.5,2.2l1.4,3l3.4,2.8l-0.1,4.4
			l-0.6,3.5l-0.9,4.3l-0.3,2l-2.7,3.1l-2,2.8l-1.4,4.1l0.8,3.2l2.5,3.9l2.3,2.5l1.7,4.8l1.8,0.5l3.7,3.5l3.3,2.7l3.5-0.3l3.9-1.9
			l2-2.8l4.4-3.8l5.4-1.8l3.1,0.6l-3.4,6.7l-3.6,3l-5.2,5.7l-4.3,1.6l-8.3-0.5l-2.7-0.9l-4-5l-4.4-3l-2,0.5l-2.1,2.1l-1.4,3.5
			l1.6,6.5l5.6,3l1.4,4.2l1.1,1.9l2,3.7l0.5,2.8l4.4-0.8l4.9-1.1l6.7,0.3l8.6-2.5l6.4-0.9l4.3,1.2l4.5,3.5l6.1,4l4.2,4.6l3.5,6.7
			l-0.5,8.3l-0.6,6.5l2.3,7.9l-1.9,4.7l3.1,5.2l-0.2,4l-2.6,3.3v5.8l-3.3,4.6c-1.6,0.6-1.5,1.1-1.1,1.8c1.7,3.1,1.7,3.1,1.7,3.1
			l0.9,2l2,3.1l0.1,4l-3.8,6.2l-2.7,3.5l2.6,3.6l2.2,1.7c0.4,0.9,0.5,1.4,0.5,2.3c0,0.8-0.1,2-0.3,3.6c-0.5,4.1-0.6,4.7-0.6,4.8
			l0.3,8.2l0.3,7.7l-0.3,3.8l3.1,2l5.8,0.3l5.7-2.2l6.9-3.1l4.8-4.7l4-6.2l5.2-6.9l4.4-3.8l4.3-4.3l4.3-5.1l3.1-4.4l0.3-7l5.1-5.5
			l3.2-0.7l1.7-5.3l6.1-3.2c-0.1-1.8-2.5-1.3-1.2-0.1l7.4-1.6l5.7,0.8l6.2,1.6l5.3-0.3l3.1-2.6l-0.5-3.7l-1.7-3.6l2.3-2.3l-3.1-3.3
			l0.2-3.8l3.5-2.9l-3.7-3.6l4.2-5.4l-0.3-5.8l2.9-2l-1.9-0.3l3.6-3.7l5,0.5l3.5,0.9l2.6,1.4l2.9,0.3l2.3-1.3l0.8-2l-0.3-10.2
			l0.9-5.2l1.3-1.6c-0.3-1-0.3-1.8-0.3-3.1c0-1.1,0.1-2.5,0.2-4.3c0.1-0.9,0.1-1.7,0.1-2.4c0-1.2-0.1-2.1-0.2-2.7s-0.3-0.9-0.5-1
			c-1.2,0.4-1.5,0.7-1.8,1c-0.6,0.6-1.1,1.3-1.2,1.6l-1.6-2.3l3-3.6l3.2-3.4l2.8-4.1l-0.3-5.5l5-2.4l2-5.2l2-3.6l-0.8-4.3l-3.3-3.8
			l-3.4-1.7l-4.7-2.6l0.3-3.9l0.3-3.1l3.6-3.5l5.7-0.4l5.1-4.2l3.3-0.4l1.1-11l1.2-6.9l2.4-4.2l5.9-5.3l5.8-4.6l4.6-2.3l4-4.5
			l6.3-7.3l1.7-7.9l2.9-15.3l-1.1-9.5l-5.6-5.6l-6.3-4.5l-5.8-3.4l-2-5.4l1.1-4.8l4.1-5.3l7.7-3l4.1-1.2L370.2,100.7"/>
	</g>
</g>
<g>
	<g>
		<g class="st0">
			<g>
				<polygon class="st60" points="55.3,70.4 55.3,77.3 53.3,76.1 53.3,69.2 				"/>
			</g>
			<g>
				<polygon class="st61" points="53.3,69.2 53.3,76.1 51.4,78.2 51.4,71.3 				"/>
			</g>
			<g>
				<polygon class="st62" points="51.4,71.3 51.4,78.2 50.6,80.3 50.6,73.4 				"/>
			</g>
			<g>
				<polygon class="st32" points="55.3,70.4 55.3,77.3 54.6,80.5 54.6,73.6 				"/>
			</g>
			<g>
				<polygon class="st63" points="56.4,69.9 56.4,76.8 55.5,81.2 55.5,74.2 				"/>
			</g>
			<g>
				<polygon class="st58" points="53.3,69.2 55.3,70.4 54.6,73.6 52.9,74.4 50.6,73.4 51.4,71.3 				"/>
			</g>
			<g>
				<polygon class="st12" points="52.9,74.4 52.9,81.3 50.6,80.3 50.6,73.4 				"/>
			</g>
			<g>
				<polygon class="st12" points="54.6,73.6 54.6,80.5 52.9,81.3 52.9,74.4 				"/>
			</g>
			<g>
				<polygon class="st60" points="55.5,74.2 55.5,81.2 52.9,82.4 52.9,75.5 				"/>
			</g>
			<g>
				<polygon class="st60" points="52.9,75.5 52.9,82.4 49.3,80.9 49.3,73.9 				"/>
			</g>
			<g>
				<path class="st64" d="M53.1,67.9l3.3,2l-1,4.4l-2.6,1.2l-3.6-1.6l1.4-3.2L53.1,67.9z M54.6,73.6l0.7-3.2l-2-1.2l-1.9,2.1
					l-0.9,2.1l2.3,1L54.6,73.6"/>
			</g>
		</g>
	</g>
</g>
<g>
	<g>
		<g class="st0">
			<g>
				<polygon class="st65" points="19,53.8 19,60.8 15,58.6 15,51.6 				"/>
			</g>
			<g class="st0">
				<defs>
					<path id="SVGID_00000169544944861053055730000013771479739217475969_" class="st0" d="M20,53.7l0,6.9c0,0.1,0,0.2-0.1,0.3V54
						C20,53.9,20,53.8,20,53.7z"/>
				</defs>
				<clipPath id="SVGID_00000156588093867649941810000017571297135094246542_">
					<use xlink:href="#SVGID_00000169544944861053055730000013771479739217475969_"  style="overflow:visible;"/>
				</clipPath>
				<g style="clip-path:url(#SVGID_00000156588093867649941810000017571297135094246542_);enable-background:new    ;">
					<path class="st67" d="M20,53.7v6.9c0,0,0,0.1,0,0.1v-6.9C20,53.8,20,53.8,20,53.7"/>
					<path class="st68" d="M20,53.9v6.9c0,0,0,0.1,0,0.1V54C20,54,20,53.9,20,53.9"/>
					<path class="st69" d="M20,54v6.9c0,0,0,0,0,0L20,54C20,54,20,54,20,54"/>
				</g>
			</g>
			<g>
				<polygon class="st70" points="15,51.6 15,58.6 11.4,61.6 11.4,54.7 				"/>
			</g>
			<g>
				<polygon class="st71" points="19,53.8 19,60.8 17.9,63.1 17.9,56.2 				"/>
			</g>
			<g>
				<polygon class="st69" points="20,54 20,61 18.8,63.6 18.8,56.6 				"/>
			</g>
			<g>
				<polygon class="st69" points="11.4,54.7 11.4,61.6 9.9,64.7 9.9,57.8 				"/>
			</g>
			<g>
				<polygon class="st12" points="10.2,59.6 10.2,66.6 9.9,64.7 9.9,57.8 				"/>
			</g>
			<g>
				<polygon class="st36" points="17.9,56.2 17.9,63.1 15.8,66.6 15.8,59.6 				"/>
			</g>
			<g>
				<polygon class="st65" points="9.2,59.8 9.2,66.8 8.9,64.5 8.9,57.5 				"/>
			</g>
			<g>
				<polygon class="st69" points="18.8,56.6 18.8,63.6 16.3,67.4 16.3,60.5 				"/>
			</g>
			<g class="st0">
				<defs>
					<path id="SVGID_00000031182697256889410480000008113409229133829300_" class="st0" d="M9.7,60.5v6.9c-0.4-0.2-0.5-0.5-0.5-0.7
						l0-6.9C9.2,60,9.3,60.3,9.7,60.5z"/>
				</defs>
				<clipPath id="SVGID_00000018209870103975463630000007850456118104929440_">
					<use xlink:href="#SVGID_00000031182697256889410480000008113409229133829300_"  style="overflow:visible;"/>
				</clipPath>
				<g style="clip-path:url(#SVGID_00000018209870103975463630000007850456118104929440_);enable-background:new    ;">
					<path class="st70" d="M9.7,60.5v6.9c-0.4-0.2-0.5-0.5-0.5-0.7v-6.9C9.2,60,9.3,60.3,9.7,60.5"/>
				</g>
			</g>
			<g>
				<polygon class="st12" points="15.8,59.6 15.8,66.6 13.6,67.7 13.6,60.7 				"/>
			</g>
			<g>
				<polygon class="st58" points="15,51.6 19,53.8 17.9,56.2 15.8,59.6 13.6,60.7 10.2,59.6 9.9,57.8 11.4,54.7 				"/>
			</g>
			<g>
				<polygon class="st12" points="13.6,60.7 13.6,67.7 10.2,66.6 10.2,59.6 				"/>
			</g>
			<g>
				<polygon class="st65" points="13.3,61.7 13.3,68.6 9.7,67.5 9.7,60.5 				"/>
			</g>
			<g>
				<polygon class="st65" points="16.3,60.5 16.3,67.4 13.8,68.7 13.8,61.7 				"/>
			</g>
			<g>
				<path class="st1" d="M20,53.5c0.1,0.2,0.1,0.4,0,0.5l-1.2,2.6l-2.5,3.9l-2.5,1.2l-0.5,0l-3.6-1.2c-0.4-0.2-0.5-0.5-0.5-0.7
					l-0.3-2.3l1.7-3.6l3.9-3.2c0.2-0.2,0.4-0.2,0.5-0.2c0.1,0,0.3,0,0.4,0.1l4.2,2.4C19.8,53.2,19.9,53.3,20,53.5z M17.9,56.2
					l1.1-2.3L15,51.6l-3.7,3l-1.4,3.1l0.3,1.8l3.4,1.1l2.2-1.1L17.9,56.2"/>
			</g>
			<g>
				<polygon class="st65" points="13.8,61.7 13.8,68.7 13.3,68.6 13.3,61.7 				"/>
			</g>
		</g>
	</g>
</g>
<g>
	<g>
		<g class="st0">
			<g>
				<polygon class="st65" points="34.1,19.7 34.1,26.7 31.2,26 31.2,19 				"/>
			</g>
			<g>
				<polygon class="st65" points="7.6,21.7 7.6,28.7 4.8,27.7 4.8,20.7 				"/>
			</g>
			<g>
				<polygon class="st65" points="12.3,21.8 12.3,28.7 7.6,28.7 7.6,21.7 				"/>
			</g>
			<g>
				<polygon class="st65" points="35.7,22.3 35.7,29.3 34.1,26.7 34.1,19.7 				"/>
			</g>
			<g class="st0">
				<defs>
					<path id="SVGID_00000006709082520493462580000013624205033857472441_" class="st0" d="M36.4,22.7l0,6.9c-0.4,0-0.6-0.2-0.7-0.4
						v-6.9C35.8,22.4,36,22.7,36.4,22.7z"/>
				</defs>
				<clipPath id="SVGID_00000141421692680404928070000002135989474699632526_">
					<use xlink:href="#SVGID_00000006709082520493462580000013624205033857472441_"  style="overflow:visible;"/>
				</clipPath>
				<g style="clip-path:url(#SVGID_00000141421692680404928070000002135989474699632526_);enable-background:new    ;">
					<path class="st70" d="M36.4,22.7v6.9c-0.4,0-0.6-0.2-0.7-0.4v-6.9C35.8,22.4,36,22.7,36.4,22.7"/>
				</g>
			</g>
			<g>
				<polygon class="st65" points="38.6,21.9 38.6,28.9 36.4,29.6 36.4,22.7 				"/>
			</g>
			<g>
				<polygon class="st74" points="4.8,20.7 4.8,27.7 3,29.8 3,22.8 				"/>
			</g>
			<g>
				<polygon class="st65" points="15.8,22.9 15.8,29.9 12.3,28.7 12.3,21.8 				"/>
			</g>
			<g>
				<polygon class="st65" points="19.1,23.2 19.1,30.2 15.8,29.9 15.8,22.9 				"/>
			</g>
			<g>
				<polygon class="st65" points="40.7,23.9 40.7,30.9 38.6,28.9 38.6,21.9 				"/>
			</g>
			<g>
				<polygon class="st65" points="23.3,24.4 23.3,31.3 19.1,30.2 19.1,23.2 				"/>
			</g>
			<g>
				<polygon class="st74" points="31.2,19 31.2,26 26.2,31.6 26.2,24.7 				"/>
			</g>
			<g>
				<polygon class="st65" points="25.4,25 25.4,31.9 23.3,31.3 23.3,24.4 				"/>
			</g>
			<g class="st0">
				<defs>
					<path id="SVGID_00000094583809695852355050000016547322742478912640_" class="st0" d="M26.2,24.7v6.9c-0.2,0.3-0.5,0.3-0.7,0.3
						V25C25.7,25,26,25,26.2,24.7z"/>
				</defs>
				<clipPath id="SVGID_00000101811860583346569470000005170070310001800858_">
					<use xlink:href="#SVGID_00000094583809695852355050000016547322742478912640_"  style="overflow:visible;"/>
				</clipPath>
				<g style="clip-path:url(#SVGID_00000101811860583346569470000005170070310001800858_);enable-background:new    ;">
					<path class="st69" d="M26.2,24.7v6.9c0,0,0,0,0,0.1L26.2,24.7C26.2,24.7,26.2,24.7,26.2,24.7"/>
					<path class="st70" d="M26.2,24.7v6.9c-0.2,0.2-0.5,0.2-0.6,0.2V25C25.7,25,26,25,26.2,24.7"/>
				</g>
			</g>
			<g>
				<polygon class="st65" points="25.6,25 25.6,31.9 25.4,31.9 25.4,25 				"/>
			</g>
			<g>
				<polygon class="st76" points="3,22.8 3,29.8 2.6,33 2.6,26 				"/>
			</g>
			<g>
				<polygon class="st29" points="40.7,23.9 40.7,30.9 40.1,34.3 40.1,27.4 				"/>
			</g>
			<g>
				<polygon class="st76" points="41.8,23.6 41.8,30.5 41.1,34.5 41.1,27.5 				"/>
			</g>
			<g>
				<polygon class="st69" points="2.6,26 2.6,33 1.2,36 1.2,29.1 				"/>
			</g>
			<g>
				<polygon class="st12" points="1.4,31.2 1.4,38.1 1.2,36 1.2,29.1 				"/>
			</g>
			<g>
				<polygon class="st65" points="0.5,31.7 0.5,38.6 0.2,35.8 0.2,28.9 				"/>
			</g>
			<g>
				<polygon class="st29" points="40.1,27.4 40.1,34.3 39.5,38.8 39.5,31.8 				"/>
			</g>
			<g>
				<polygon class="st76" points="41.1,27.5 41.1,34.5 40.5,38.8 40.5,31.8 				"/>
			</g>
			<g>
				<polygon class="st12" points="3.5,32.9 3.5,39.9 1.4,38.1 1.4,31.2 				"/>
			</g>
			<g>
				<polygon class="st12" points="5.9,33.7 5.9,40.7 3.5,39.9 3.5,32.9 				"/>
			</g>
			<g>
				<rect x="5.9" y="33.7" class="st12" width="4.2" height="6.9"/>
			</g>
			<g>
				<polygon class="st65" points="2.9,33.7 2.9,40.7 0.5,38.6 0.5,31.7 				"/>
			</g>
			<g>
				<polygon class="st12" points="10.4,33.9 10.4,40.8 10.1,40.7 10.1,33.7 				"/>
			</g>
			<g>
				<polygon class="st65" points="5.7,34.7 5.7,41.6 2.9,40.7 2.9,33.7 				"/>
			</g>
			<g>
				<polygon class="st65" points="9.9,34.7 9.9,41.7 5.7,41.6 5.7,34.7 				"/>
			</g>
			<g>
				<polygon class="st12" points="12.9,35.4 12.9,42.4 10.4,40.8 10.4,33.9 				"/>
			</g>
			<g class="st0">
				<defs>
					<path id="SVGID_00000086693522962880404670000003557958543588962463_" class="st0" d="M13.1,35.8v6.9c0-0.2-0.2-0.3-0.2-0.4
						v-6.9C13,35.5,13.1,35.6,13.1,35.8z"/>
				</defs>
				<clipPath id="SVGID_00000013161681417214079420000009998715243552058010_">
					<use xlink:href="#SVGID_00000086693522962880404670000003557958543588962463_"  style="overflow:visible;"/>
				</clipPath>
				<g style="clip-path:url(#SVGID_00000013161681417214079420000009998715243552058010_);enable-background:new    ;">
					<path class="st8" d="M13.1,35.8v6.9c0-0.2-0.2-0.3-0.2-0.4v-6.9C13,35.5,13.1,35.6,13.1,35.8"/>
				</g>
			</g>
			<g>
				<polygon class="st65" points="39.8,36.1 39.8,43 39.5,38.8 39.5,31.8 				"/>
			</g>
			<g>
				<polygon class="st65" points="12.1,36.1 12.1,43.1 9.9,41.7 9.9,34.7 				"/>
			</g>
			<g>
				<polygon class="st12" points="13.7,38.9 13.7,45.8 13.1,42.8 13.1,35.8 				"/>
			</g>
			<g>
				<polygon class="st65" points="12.7,38.9 12.7,45.9 12.1,43.1 12.1,36.1 				"/>
			</g>
			<g>
				<polygon class="st12" points="33.7,40.2 33.7,47.1 31.1,46.2 31.1,39.3 				"/>
			</g>
			<g>
				<polygon class="st65" points="41,40.7 41,47.6 39.8,43 39.8,36.1 				"/>
			</g>
			<g>
				<polygon class="st12" points="31.1,39.3 31.1,46.2 26.5,48 26.5,41.1 				"/>
			</g>
			<g>
				<polygon class="st65" points="33.3,41.1 33.3,48.1 31.1,47.3 31.1,40.3 				"/>
			</g>
			<g>
				<polygon class="st65" points="31.1,40.3 31.1,47.3 27,48.9 27,42 				"/>
			</g>
			<g>
				<polygon class="st8" points="41,40.7 41,47.6 39.5,49 39.5,42.1 				"/>
			</g>
			<g>
				<polygon class="st12" points="39.5,42.1 39.5,49 33.7,47.1 33.7,40.2 				"/>
			</g>
			<g>
				<polygon class="st70" points="42.1,41 42.1,47.9 39.8,50.2 39.8,43.2 				"/>
			</g>
			<g>
				<polygon class="st65" points="39.8,43.2 39.8,50.2 33.3,48.1 33.3,41.1 				"/>
			</g>
			<g>
				<rect x="18.6" y="45.7" class="st12" width="1.9" height="6.9"/>
			</g>
			<g>
				<polygon class="st34" points="26.5,41.1 26.5,48 20.5,52.6 20.5,45.7 				"/>
			</g>
			<g>
				<polygon class="st12" points="18.6,45.7 18.6,52.6 13.7,49.5 13.7,42.5 				"/>
			</g>
			<g>
				<path class="st1" d="M40.8,35.9l1.2,5l-2.3,2.3l-6.5-2.1l-2.2-0.8L27,42l-6.1,4.7h-2.5l-5.6-3.6v-4.1l-0.6-2.8l-2.3-1.4l-4.2,0
					l-2.8-1l-2.4-2.1l-0.3-2.8l1.5-3.2L2,22.4l2.6-2.8l3.3,1.2l4.6,0L16,22l3.3,0.3l6.2,1.7l5.4-6.1l3.9,0.9l1.7,2.8l2.4-0.8
					l2.9,2.8l-0.6,3.9l-0.6,4.3L40.8,35.9z M39.5,42.1l1.4-1.4l-1.1-4.6l-0.3-4.3l0.6-4.4l0.5-3.4l-2.1-2l-2.2,0.7
					c-0.4,0-0.6-0.2-0.7-0.4l-1.6-2.6L31.2,19l-5,5.7C26,25,25.7,25,25.6,25l-0.1,0l-2.1-0.6l-4.2-1.2l-3.3-0.3l-3.5-1.2l-4.6,0
					l-2.8-1L3,22.8L2.6,26l-1.4,3l0.2,2.1l2.1,1.8l2.4,0.8h4.2l0.3,0.1l2.5,1.6c0.1,0.1,0.2,0.2,0.2,0.4l0.6,3v3.7l4.9,3.1h1.9
					l6-4.6l4.6-1.8l2.6,0.9L39.5,42.1"/>
			</g>
			<g>
				<path class="st58" d="M31.2,19l2.9,0.7l1.6,2.6c0.1,0.1,0.3,0.4,0.7,0.4l2.2-0.7l2.1,2l-0.5,3.4l-0.6,4.4l0.3,4.3l1.1,4.6
					l-1.4,1.4l-5.9-1.9l-2.6-0.9l-4.6,1.8l-6,4.6h-1.9l-4.9-3.1v-3.7l-0.6-3c0-0.2-0.2-0.3-0.2-0.4l-2.5-1.6l-0.3-0.1H5.9l-2.4-0.8
					l-2.1-1.8l-0.2-2.1l1.4-3L3,22.8l1.9-2.1l2.8,1l4.6,0l3.5,1.2l3.3,0.3l4.2,1.2l2.1,0.6l0.1,0c0.2,0,0.5,0,0.7-0.3L31.2,19z"/>
			</g>
			<g>
				<rect x="18.3" y="46.7" class="st65" width="2.5" height="6.9"/>
			</g>
			<g>
				<polygon class="st65" points="18.3,46.7 18.3,53.6 12.7,50 12.7,43.1 				"/>
			</g>
			<g>
				<polygon class="st70" points="27,42 27,48.9 20.9,53.6 20.9,46.7 				"/>
			</g>
		</g>
	</g>
</g>
<g>
	<g>
		<g class="st0">
			<g class="st0">
				<defs>
					<path id="SVGID_00000128465300580036526410000018103774111445272231_" class="st0" d="M29.3,45.4v6.9c-0.2-0.1-0.5-0.2-0.7-0.3
						l0-6.9C28.8,45.2,29.1,45.3,29.3,45.4z"/>
				</defs>
				<clipPath id="SVGID_00000142895111953337085700000012917952746742612131_">
					<use xlink:href="#SVGID_00000128465300580036526410000018103774111445272231_"  style="overflow:visible;"/>
				</clipPath>
				<g style="clip-path:url(#SVGID_00000142895111953337085700000012917952746742612131_);enable-background:new    ;">
					<path class="st70" d="M29.3,45.4v6.9c-0.2-0.1-0.5-0.2-0.7-0.3v-6.9C28.8,45.2,29.1,45.3,29.3,45.4"/>
				</g>
			</g>
			<g>
				<polygon class="st65" points="29.3,45.5 29.3,52.4 29.3,52.4 29.3,45.4 				"/>
			</g>
			<g class="st0">
				<defs>
					<path id="SVGID_00000019638624328940988120000011313921661443508369_" class="st0" d="M29.5,45.8l0,6.9
						c-0.1-0.1-0.2-0.2-0.2-0.4l0-6.9C29.4,45.6,29.4,45.7,29.5,45.8z"/>
				</defs>
				<clipPath id="SVGID_00000038413815851110749770000001604386374966738105_">
					<use xlink:href="#SVGID_00000019638624328940988120000011313921661443508369_"  style="overflow:visible;"/>
				</clipPath>
				<g style="clip-path:url(#SVGID_00000038413815851110749770000001604386374966738105_);enable-background:new    ;">
					<path class="st70" d="M29.5,45.8v6.9c-0.1-0.1-0.2-0.2-0.2-0.4v-6.9C29.4,45.6,29.4,45.7,29.5,45.8"/>
				</g>
			</g>
			<g>
				<polygon class="st70" points="28.5,45.1 28.5,52.1 26.7,53.8 26.7,46.9 				"/>
			</g>
			<g>
				<polygon class="st65" points="36.4,46.4 36.4,53.3 33.3,53.8 33.3,46.9 				"/>
			</g>
			<g>
				<polygon class="st65" points="38.1,48.3 38.1,55.2 36.4,53.3 36.4,46.4 				"/>
			</g>
			<g>
				<polygon class="st65" points="26.7,46.9 26.7,53.8 23.2,55.5 23.2,48.6 				"/>
			</g>
			<g>
				<polygon class="st76" points="30.6,45.3 30.6,52.3 30.1,56.8 30.1,49.8 				"/>
			</g>
			<g>
				<polygon class="st76" points="23.2,48.6 23.2,55.5 22.6,58.2 22.6,51.3 				"/>
			</g>
			<g>
				<polygon class="st65" points="38.2,52.4 38.2,59.4 38.1,55.2 38.1,48.3 				"/>
			</g>
			<g class="st0">
				<defs>
					<path id="SVGID_00000091726524895357378990000006466505357010283906_" class="st0" d="M39.2,52.5l0,6.9c0,0.1,0,0.3-0.2,0.5V53
						C39.2,52.8,39.2,52.6,39.2,52.5z"/>
				</defs>
				<clipPath id="SVGID_00000005966373988423132180000003157300575263461816_">
					<use xlink:href="#SVGID_00000091726524895357378990000006466505357010283906_"  style="overflow:visible;"/>
				</clipPath>
				<g style="clip-path:url(#SVGID_00000005966373988423132180000003157300575263461816_);enable-background:new    ;">
					<path class="st67" d="M39.2,52.5v6.9c0,0,0,0.1,0,0.2v-6.9C39.2,52.6,39.2,52.5,39.2,52.5"/>
					<path class="st68" d="M39.2,52.7v6.9c0,0,0,0.1,0,0.1v-6.9C39.2,52.8,39.2,52.7,39.2,52.7"/>
					<path class="st69" d="M39.2,52.8v6.9c0,0,0,0.1-0.1,0.1v-6.9C39.1,52.9,39.1,52.9,39.2,52.8"/>
					<path class="st70" d="M39.1,52.9v6.9c0,0,0,0-0.1,0.1L39.1,52.9C39,53,39.1,53,39.1,52.9"/>
				</g>
			</g>
			<g>
				<polygon class="st12" points="23.2,53.3 23.2,60.3 22.6,58.2 22.6,51.3 				"/>
			</g>
			<g>
				<polygon class="st65" points="22.1,53.3 22.1,60.3 21.6,58.1 21.6,51.2 				"/>
			</g>
			<g>
				<polygon class="st37" points="29.5,45.8 29.5,52.8 28.7,60.6 28.7,53.6 				"/>
			</g>
			<g>
				<polygon class="st74" points="33.3,46.9 33.3,53.8 28.7,60.6 28.7,53.6 				"/>
			</g>
			<g>
				<polygon class="st39" points="38.2,52.4 38.2,59.4 35.8,62.8 35.8,55.8 				"/>
			</g>
			<g>
				<polygon class="st12" points="35.8,55.8 35.8,62.8 34.6,60.8 34.6,53.8 				"/>
			</g>
			<g>
				<polygon class="st19" points="34.6,53.8 34.6,60.8 31.9,64 31.9,57 				"/>
			</g>
			<g>
				<polygon class="st65" points="35.1,56.7 35.1,63.6 34.5,62.5 34.5,55.6 				"/>
			</g>
			<g>
				<polygon class="st74" points="39,53 39,59.9 36.4,63.7 36.4,56.7 				"/>
			</g>
			<g>
				<polygon class="st65" points="35.2,56.8 35.2,63.7 35.1,63.6 35.1,56.7 				"/>
			</g>
			<g>
				<polygon class="st68" points="23.2,53.3 23.2,60.3 22.3,63.7 22.3,56.8 				"/>
			</g>
			<g class="st0">
				<defs>
					<path id="SVGID_00000062894038700638380700000009257255013008398261_" class="st0" d="M21.3,63.7l0-6.9c0,0,0,0.1,0,0.2v6.9
						C21.3,63.8,21.3,63.8,21.3,63.7z"/>
				</defs>
				<clipPath id="SVGID_00000123400910438934504780000003264787128175900329_">
					<use xlink:href="#SVGID_00000062894038700638380700000009257255013008398261_"  style="overflow:visible;"/>
				</clipPath>
				<g style="clip-path:url(#SVGID_00000123400910438934504780000003264787128175900329_);enable-background:new    ;">
					<path class="st70" d="M21.3,56.9v6.9c0-0.1,0-0.1,0-0.2v-6.9C21.3,56.8,21.3,56.9,21.3,56.9"/>
				</g>
			</g>
			<g class="st0">
				<defs>
					<path id="SVGID_00000102515588912837486880000016439624015832094622_" class="st0" d="M36.4,56.7v6.9C36.2,63.8,36,64,35.8,64
						c-0.3,0-0.5-0.2-0.6-0.2v-6.9c0.1,0.1,0.3,0.2,0.6,0.2C36,57,36.2,56.9,36.4,56.7z"/>
				</defs>
				<clipPath id="SVGID_00000013872342137254951310000016375956967681271437_">
					<use xlink:href="#SVGID_00000102515588912837486880000016439624015832094622_"  style="overflow:visible;"/>
				</clipPath>
				<g style="clip-path:url(#SVGID_00000013872342137254951310000016375956967681271437_);enable-background:new    ;">
					<path class="st70" d="M36.4,56.7v6.9C36.2,63.8,36,64,35.8,64c-0.3,0-0.5-0.2-0.6-0.2v-6.9c0.1,0.1,0.3,0.2,0.6,0.2
						C36,57,36.2,56.9,36.4,56.7"/>
				</g>
			</g>
			<g>
				<polygon class="st74" points="34.5,55.6 34.5,62.5 32.9,64.4 32.9,57.5 				"/>
			</g>
			<g>
				<polygon class="st12" points="23.7,60.1 23.7,67.1 22.3,63.7 22.3,56.8 				"/>
			</g>
			<g>
				<polygon class="st65" points="22.8,60.5 22.8,67.5 21.3,63.9 21.3,56.9 				"/>
			</g>
			<g class="st0">
				<defs>
					<path id="SVGID_00000151524499490971756490000010629431335983846037_" class="st0" d="M23,60.9v6.9c-0.1-0.1-0.2-0.2-0.2-0.3
						v-6.9C22.8,60.7,22.9,60.8,23,60.9z"/>
				</defs>
				<clipPath id="SVGID_00000096748218771049285340000006655828637903922864_">
					<use xlink:href="#SVGID_00000151524499490971756490000010629431335983846037_"  style="overflow:visible;"/>
				</clipPath>
				<g style="clip-path:url(#SVGID_00000096748218771049285340000006655828637903922864_);enable-background:new    ;">
					<path class="st70" d="M23,60.9v6.9c-0.1-0.1-0.2-0.2-0.2-0.3v-6.9C22.8,60.7,22.9,60.8,23,60.9"/>
				</g>
			</g>
			<g>
				<polygon class="st12" points="26,61.2 26,68.2 23.7,67.1 23.7,60.1 				"/>
			</g>
			<g>
				<path class="st58" d="M28.5,45.1c0.2,0.1,0.5,0.2,0.7,0.3l0.1,0c0,0.2,0.1,0.3,0.2,0.4l-0.8,7.8l4.6-6.7l3.1-0.5l1.7,1.9
					l0.2,4.2l-2.4,3.4l-1.2-2L31.9,57l-0.9,4.5L26,61.2l-2.3-1.1l-1.4-3.3l0.9-3.5l-0.6-2l0.6-2.7l3.5-1.7L28.5,45.1z"/>
			</g>
			<g>
				<polygon class="st29" points="31.9,57 31.9,64 31.1,68.5 31.1,61.5 				"/>
			</g>
			<g>
				<polygon class="st12" points="31.1,61.5 31.1,68.5 26,68.2 26,61.2 				"/>
			</g>
			<g>
				<polygon class="st76" points="32.9,57.5 32.9,64.4 32,68.9 32,61.9 				"/>
			</g>
			<g>
				<polygon class="st65" points="25.6,62.1 25.6,69.1 23,67.8 23,60.9 				"/>
			</g>
			<g>
				<polygon class="st65" points="31.3,62.5 31.3,69.5 25.6,69.1 25.6,62.1 				"/>
			</g>
			<g class="st0">
				<defs>
					<path id="SVGID_00000139276661456117535030000012620432860086027450_" class="st0" d="M32,61.9l0,6.9c0,0.3-0.4,0.6-0.7,0.6
						v-6.9C31.6,62.5,32,62.2,32,61.9z"/>
				</defs>
				<clipPath id="SVGID_00000041292525186182063050000006982006210091023755_">
					<use xlink:href="#SVGID_00000139276661456117535030000012620432860086027450_"  style="overflow:visible;"/>
				</clipPath>
				<g style="clip-path:url(#SVGID_00000041292525186182063050000006982006210091023755_);enable-background:new    ;">
					<path class="st67" d="M32,61.9v6.9c0,0,0,0.1,0,0.1L32,61.9C32,62,32,62,32,61.9"/>
					<path class="st68" d="M32,62V69c0,0,0,0.1,0,0.1L32,62C32,62.1,32,62.1,32,62"/>
					<path class="st69" d="M32,62.1v6.9c0,0,0,0.1-0.1,0.1v-6.9C31.9,62.2,32,62.2,32,62.1"/>
					<path class="st70" d="M31.9,62.2v6.9c-0.1,0.2-0.4,0.3-0.6,0.3v-6.9C31.5,62.5,31.8,62.4,31.9,62.2"/>
				</g>
			</g>
			<g>
				<path class="st1" d="M39.1,48.2l0.2,4.3c0,0.1,0,0.3-0.2,0.5l-2.6,3.7C36.2,56.9,36,57,35.8,57c-0.3,0-0.5-0.2-0.6-0.2l-0.1-0.1
					l-0.7-1.1l-1.6,1.9L32,61.9c0,0.3-0.4,0.6-0.7,0.6l-5.7-0.4L23,60.9c-0.1-0.1-0.2-0.2-0.2-0.3l-1.5-3.6c0-0.2,0-0.3,0-0.4
					l0.8-3.2l-0.5-2.1l0.6-2.9c0-0.3,0.2-0.5,0.5-0.6l3.4-1.7l1.9-1.8c0.1-0.1,0.2-0.2,0.3-0.2c0.2,0,0.5,0.1,1.1,0.4l0-0.2h0.4
					c0.4,0,0.5,0.4,0.5,0.6l0.2,0.1v0.4l-0.5,4.5l2.5-3.6c0.1-0.2,0.3-0.3,0.6-0.3l3.2-0.5c0,0,0,0,0.1,0c0.3,0,0.5,0.1,0.6,0.2
					l1.8,2.1C39.1,47.9,39.1,48.1,39.1,48.2z M35.8,55.8l2.4-3.4l-0.2-4.2l-1.7-1.9l-3.1,0.5l-4.6,6.7l0.8-7.8
					c-0.1-0.1-0.2-0.2-0.2-0.4l-0.1,0c-0.2-0.1-0.5-0.2-0.7-0.3l-1.9,1.7l-3.5,1.7l-0.6,2.7l0.6,2l-0.9,3.5l1.4,3.3l2.3,1.1l5.1,0.3
					l0.9-4.5l2.7-3.2L35.8,55.8"/>
			</g>
		</g>
	</g>
</g>
<path class="st85" d="M197.6,354.2c8-4.4,10.6-2.5,18.2,0.6c11.4,4.7,6.1-3.6,13.7-8c3.5-2,5.4,2.6,8.4-0.8
	c2.6-2.9-1.3-9.2,0.8-12.1c0.7-1.1,9.2-3.2,10.5-2.7c2.6,1.2,8.9,8.7,9.9,10.7"/>
<path class="st85" d="M192.6,288c1.8-0.7,3.9-3.1,5.7-3.3c2.3-0.3,2.1,0.9,3.9,1.2c4.9,0.8,6.4,1.8,9.3-2.4
	c7.7-11.3,14.8-10.2,21.9-6.4c5.3,8.7,14.5,28.6,22.7,34.9c4.7,3.6,27.4,12.6,30.2,4.9"/>
<path class="st85" d="M227.3,273.8c0.8-2.2-0.8-4.4,0-6.3c0.9-2.3,3-1.9,4.4-3.8c1.7-2.2-0.7-3.2,2.5-4.8c1.4-0.7,5.3,0,6.9-0.1
	c0.3-6.9,1-15-1.9-21c-1.9-4-4.2-5.3-3.6-10.3c0.4-3.8,2.1-6.8,2.2-10.7c3.7,5,6.2,17.5,14,18.1c5.8,0.5,9.7-7,16.7-6.9
	c3.5,0.1,6.1,2.3,9.5,2.3c3.2,0,5.6-2.6,9.2-1.7c5.3,1.3,9.6,10.7,15,6.9c8.9-6.3-3.1-12.2-5-17.4c-1.7-4.7,1.8-5.7,3.2-8.8
	c1.4-3.2,1-7.1,1-10.9c0-8.3,2.8-14,5.8-21c1.8-4.2,2.1-7.9-0.1-12.3c-2.2-4.5-10.1-8-9.1-13.7c1.4-7.9,22.5-11.2,29.2-13.4
	c12.5-4.1,25.7-0.2,37.7-3.7"/>
<path class="st85" d="M232.4,197.5c-5.9-4.5-16.7-0.8-22.9-3.6c-2.8-1.3-4.5-3.2-7.6-3.8c-2.9-0.6-8.5,1.3-10.8,0.5
	c-5.4-2-3.3-12.7-6.1-17.5c-1.5-2.5-3.5-6.2-5.6-8.2c-1.8-1.8-5.3-2.2-6.4-4.7c-1.6-3.6,2.1-5.3-0.3-10c-1.5-2.9-4.7-4.7-4.9-7.9
	c6.1,0.9,13.4,1.2,18.3-3.1c5-4.2,4.2-12.3,12.5-9.8c2.6,0.8,4,3.7,7.1,2.7c2.9-0.9,2.1-4.3,4.4-5.8c5.6-3.5,13,2.4,17-5.4
	c2.4,1.2,4.6,2.8,7,3.6"/>
<path class="st85" d="M240.2,217.2c-0.9-5.3-3.4-5.7-5.5-9.8c-1.5-3,0.2-7.3-1.6-10.3c-0.4-0.7-3.3-1.8-4.3-3.3
	c-1.3-2-1.5-3.5-1.2-5.4c0.2-1.9,2.4-8.5,3.3-10.1c3-5.3,8.5-8.7,11.4-14.3c1.7-3.3,2.2-8.3,7.1-8.5c3.8-0.2,4.7,4.6,9.5,1.8
	c7.5-4.3,0.7-12.8,4.7-19c0.8,0.8,2.8,1.3,3.6,2.1c0.9-5.9,2.8-3.2,6.3-5.4c3-1.9,3.8-5.3,4.6-8.3c1.6-6.4,4.3-12.5,5.5-18.9
	c5.9,0.7,10.2,4.7,12.8-2.5c2-5.4-0.2-10.7-0.8-16.1"/>
<path class="st85" d="M125.6,112.5c0.4-2,1-4,1.8-6c6.8,1,1.9-11.2,6.4-14.2c5-3.3,10.9-2.7,18.9,4.4c4.5,4,9.8,2.5,15.2,4.4
	c2.4,0.8,0.7,3.3,4.8,2.2c1.1-0.3,3.1-3.1,5.1-3.6c3.2-0.9,3.7,1.7,6.4-1.8c1.7-2.2,0.5-9.3,2.5-11.6c4-4.5,7.6-1.6,10.9-7.6
	c3.5-6.5,3.4-4,0-9.8c-3.5-6-3.2-11.7,0.8-17.3c3-4.1,2.6-1.5,6.8-3.6c3-1.5,3.5-4.6,5-7.3c2-3.7,3.6-3.6,6.1-5.8
	c3.4-2.9,4.9-6.7,7-11.2"/>
<path class="st85" d="M197,80.4c0.2,3.9,2,16.3,7.6,16.9c2.7,0.3,6-5.6,9.6-5.4c3.8,0.2,4.1,2.7,4.9,5.9c0.3,1.4,0.2,3.6,0.8,4.9
	c1.2,2.9,0.8,2,3,3.9c3.1,2.7,5,3.2,7.1,7.3c3.7,7.4,0.1,17.2,5.1,24.3c2.1,3,5.5,4.2,7.6,7.1c2.3,3.2,2.7,7.2,3.4,10.8"/>
<path class="st85" d="M157.2,248.1c10.8,0.5,10.9-0.9,14.9-10.9c2.7-6.8,7.1-11.4,10-17.1c2.9-5.6,0.9-12.8,3.5-18.1
	c3-6,5.1-2,5.5-11.6"/>
<path class="st85" d="M133.8,174.1c4-0.4,7-0.5,10.9-0.1c5.1,0.4,9.7-0.6,14.8-0.4c5,0.2,23.7-1.6,24.5,3.8"/>
</svg>
