<?xml version="1.0" encoding="utf-8"?>
<!-- Generator: Adobe Illustrator 25.3.1, SVG Export Plug-In . SVG Version: 6.00 Build 0)  -->
<svg version="1.1" id="Layer_1" xmlns="http://www.w3.org/2000/svg" xmlns:xlink="http://www.w3.org/1999/xlink" x="0px" y="0px"
	 viewBox="0 0 650.3 395.9" style="enable-background:new 0 0 650.3 395.9;" xml:space="preserve">
<style type="text/css">
	.st0{fill:#FFFFFF;stroke:#736666;stroke-width:3;stroke-linecap:round;stroke-linejoin:round;stroke-miterlimit:10;}
</style>
<path class="st0" d="M14.5,112.9l9.7,10.6l7.8,12.4l9.7,10.1l19.3-2.8l29,2.8l11,10.1l16.1,20.2l23.5,33.6l49.2,46
	c0,0-0.7,0.9,31.7,27.1c12,9.7,19.3,3.7,19.3,3.7l12.4,12l25.8,0.9l15.6,0.5l5.1,3.7c0,0,0,0,13.3,13.3
	c13.3,13.3,24.8,10.6,24.8,10.6l16.1,17l26.2,5.5l15.2,11l12.9-1.4l20.7,5.5l12,12.9l13.8,5.5h34.5l14.7,9.7l46.5-2.8l6-10.6
	l6.9-14.3l7.8-8.3l12.9-10.6l1.8-17l7.4-15.6l-8.3-12.9l-17.9-1.8l-17.5-8.3l-15.2-6.9l-1.8-16.1l29-19.3l17.5-11.5l9.7-10.1
	l-16.1-14.3l-0.5-36.8l8.3-5.5l7.4-11.5l-3.7-14.3l-0.9-18.4l0.5-16.1l7.8-10.6l16.1-4.1l24.8,0.5L647,86.3l-20.7-11.4h-40.6
	l-33.2,1.8L534,50.9l-38.6-1.6l-10.5-10l-19.2-23.5h-12.9c0,0,3,6.4-20.3-5.5c-20.2-10.4-20.7-7.5-20.7-7.5l-9,1.4l-10.9,26.4
	l-24-3.7l-14.8-9.2l-24-7.4l-21.3,1.5l-11.9,4.3c0,0-0.5,2.9-18.5,10.8c-22.7,10.1-30,7.2-30,7.2l-12.4,5.2c0,0-12.4-1.4-20.4-3.2
	c-25.5-5.7-27.1,0.4-27.1,0.4L169,39.8c0,0-5.1,1.9-12.8,4.8c-35.6,13.1-35.8,13.7-35.8,13.7L85.4,62L55.8,87.8l-35.1,16.6l-10-3.1
	c-3.8-1.2-6.5,3.9-3.3,6.3L14.5,112.9z"/>
</svg>
