<?xml version="1.0" encoding="utf-8"?>
<!-- Generator: Adobe Illustrator 25.3.1, SVG Export Plug-In . SVG Version: 6.00 Build 0)  -->
<svg version="1.1" id="Layer_1" xmlns="http://www.w3.org/2000/svg" xmlns:xlink="http://www.w3.org/1999/xlink" x="0px" y="0px"
	 viewBox="0 0 208.3 216.9" style="enable-background:new 0 0 208.3 216.9;" xml:space="preserve">
<style type="text/css">
	.st0{fill:url(#SVGID_1_);stroke:#606161;stroke-miterlimit:10;}
</style>
<g>
	
		<linearGradient id="SVGID_1_" gradientUnits="userSpaceOnUse" x1="2.3" y1="418.2899" x2="205.8" y2="418.2899" gradientTransform="matrix(1 0 0 -1 0 525.8898)">
		<stop  offset="0" style="stop-color:#FFFFFF"/>
		<stop  offset="1" style="stop-color:#D9D9D9"/>
	</linearGradient>
	<path class="st0" d="M98,158l1.6,0.9l1.9,0.4l1.1,3l1.6,2.6l6,5.3l1.1,1.2h2.1l0.9,1.4l2.1,0.2l1.9,0.9l1.9,1.4l1.9,2.3v1.2l3.6,2
		l1,1.6l1.5,1l2.6,1.1l1.8,1.6l1,1.4l0.6,2.5l0.5,1l2.5,0.7l1.4,1.9l5.7,5.6l6.4,3l7.2,7.4l11.9-0.1l1.9,0.9l4.8,0.1l9.9-1.3
		l6.8,0.1l2.2,2.2l2.7,2.4l1.8,0.1l1.9,1.6l1.7,0.1l2.2-2.2l-0.4-3.3l-0.7-1.8l-0.3-6.3l1.2-1.4l0.3-3l-1.8,0.2l-0.7-2.2l-0.8-1.7
		l-4.2-3.1l-4.5-3.9l-3.5-3.2l-1.2-1.8l-0.5-4.3l-1-1v-4.4l1.1-1.4l0.2-1.7l-1.6-1.5l0.4-4.7l1-1.5l0.5-6.8l0.7-0.9l0.4-3l-0.6-3.9
		l-1.3-2.2l-0.8-1.2v-3.4l0.8-1.2l-0.5-2.3v-4.5l1-1.4l0.1-3.3l2.7-2.9l-0.1-1.6l-1.6-1.8l-0.1-1.3l-2.2-4l-2.8-4.7l-3.1-3.5
		l-1.5-2.8l-1.5-1.7l-0.2-4.1l-0.6-1.7l0.6-1.4l2.5-1.8l0.8-1.3l0.4-3.8l1.2-0.9v-2.9l1.1-2l0.6-1.5l3.4-0.1l0.8-1.9l-0.4-1.6
		l-0.5-1l-1.1-2.3l-0.9-2.4l0.2-8.5l1.5-2l1.4-1.1l0.2-1.7l-6.4,0.2l-0.7,0.5l-2.5,2.4l-1.1,2.6l-0.5,3.5l0.6,2.8l1.3,2.6l-0.4,1.7
		l0.5,2.5l-1,1.8l-1.9,0.7l-2-0.5l-0.8-2l-2.6-2.6l-0.5-1.5l-1.3-0.8l-3.5,0.3l-4.9-3.1l-0.5-1.1l-0.5-1.7l-2.3-1.9l-3-2.2l-2.2,0.3
		l-2.9,1.5H149l-1.5,1.5h-1.7l-1.2,0.4l-0.7-0.7l0.3-2.4l-1-1.4l-0.6-0.3l-0.3-2.3l2.5-4.3l0.8-2.6l2.1-3.3l4.5-6.3l1.2-3.6l1.7-2.3
		l-1.2-3.8l-1.9-1.5l-2.4-0.6l-3.3,0.3l-1.9,0.8l-2,0.5l-1.7-1.4l-1.1-1.5l-0.4-2.1l-0.2-2.5l0.7-3.1l1-1.7l1.4-3.6l-0.6-2.2
		l-1.7-1.8l-5.6,0.1l-1.8,0.3l-2.4-0.5l-1-1.1l-2.4-0.2l-1.6-2l-1.3-2.1l-0.6-2.5l0.2-1.6l-0.5-2.1l-1.1-0.8L120-0.4l-1.2-0.1
		l0.4,1.3l0.1,5.2L119,7.6l-1.1,1.3l-2.3,0.5L113,9.2l-2.3-1.1l-2.4-1.6L107,5l-1-0.4l-1.5,0.3l-0.9,1L101,9.8l-1.1,1.1l-1.7,0.4
		l-1.5,1l-0.9,1.5l-1.1,0.3l-10.9,0.4l-2.5,1.3l-1.7-0.7l-2.8-3.6l-3.4-3.7l-1.6-0.9l-1.6-1l-1.3,0.5l-1,1.6l-2.3-0.6L63.4,6
		l-1.1-1.1l-1.9,0.5l-1.1,1.5L58.8,12l-1.6,1.9L56.4,15l-0.1,2.5l-0.7,1.3l-1.7-0.1l-3-2.6l-1.2-3.5L48.9,9l-0.8-2.3L47,5.2L45.1,5
		l-1.3,0.6l-1,1.5l-0.9,4.6l-0.5,3.8L40.5,17l-0.7,0.6l-2.1,0.3l-1.9,2c0,0-0.6,0.7-1.1,1.8s-0.5,1.1-0.5,1.1l-1.6,0.5l-2.2,0.5
		l-2.9-0.5L25,21.8l-2.5-0.6l-2.1-0.7l-1.8-1.1l-1.3-0.5L16.1,20c0,0,0.6,0.5-0.5,1.5c-1.1,0.9,0.4,1-1.1,0.9S13,22.3,13,22.3
		l-1.3-1.1c0,0,0.5,0.3-1.1-1.5S10.3,19,9,18c-1.3-1.1-1.2-0.5-1.2-0.5l-1.4,0.7L6,20.6l-1,2.9l2.4,1.6l0.2,1.3L6,27.7L4.9,29
		L3,31.5l-0.7,2.4l0.5,1.6L3.7,38c0,0-1.8,0.2,1.5,0.5s1.5,0.4,1.5,0.4h1.8H11l0.7,1.6l-0.9,2.9l0.4,1.8l0.9,2l0.4,1.8l-0.4,2.2
		l0.2,2.2l0.5,1.5l2,0.7l0.5,1.3l0.2,2v1.8l1.3,1.5l2.4,1.3l2,1.1l1.5,1.3v2.5l-0.2,2.5l-1.3,3.6l0.5,3.3l1.3,2l-0.2,2l-0.9,2
		l0.2,1.6l1.5,2.4l0.4,2.4v2.5l-0.3,1.2l1.3,0.3l1.1,0.6l1.3,0.7l0.8,1l0.8,1.1l1.7,0.1l1,1.1l1.2,1.2l0.9,0.9l4.6,0.2l2.3,2
		l0.2,3.1l1.9,1.3l0.1,1.9l1,1.3l1.1,1.6l0.2,2.6l-0.1,3.5l-1,2l-1.5,3.1L41,126l-1.2,1.8v1.5l1,0.9l-0.4,3.1l1.5,1.4
		c0,0,0.4-1.2,0.7,0.7c0.4,1.9,0.4,1.9,0.4,1.9l1.8,1.1h1.1l1.3,1.2l6.5,0.5l1.2,1.5l2,0.6l2.5,0.5l1.5,2.2l1.3,1.7l0.5,0.7l2.4,0.3
		l1.8-0.9h1.6l2.1-1.9l3.4,3l3.2,1.6l1.8,1.4l2.8,1.1l3-0.2l4.1,2.1L91,155l2.8,0.5h2.9L98,158"/>
</g>
</svg>
