<?xml version="1.0" encoding="utf-8"?>
<!-- Generator: Adobe Illustrator 25.3.1, SVG Export Plug-In . SVG Version: 6.00 Build 0)  -->
<svg version="1.1" id="Layer_1" xmlns="http://www.w3.org/2000/svg" xmlns:xlink="http://www.w3.org/1999/xlink" x="0px" y="0px"
	 viewBox="0 0 162 146.4" style="enable-background:new 0 0 162 146.4;" xml:space="preserve">
<style type="text/css">
	.st0{fill:url(#SVGID_1_);stroke:#606161;stroke-miterlimit:10;}
</style>
<linearGradient id="SVGID_1_" gradientUnits="userSpaceOnUse" x1="1.2231" y1="73.151" x2="161.5333" y2="73.151">
	<stop  offset="0" style="stop-color:#FFFFFF"/>
	<stop  offset="1" style="stop-color:#D9D9D9"/>
</linearGradient>
<path class="st0" d="M14.3,38.5l1.2-1.9l-0.1-1.9l-1.2-1.4l-1.4-2.5v-3.9l1.6-1.4l1.1-1.9l1.1-4.8l1.6-2.8l0.4-2.8l0.7-3.2
	c0,0,0.9-3.4,0.7-3.9S21,4.7,21,4.7l0.4-2.8l1.8-1.4l1.6,0.9l2,1.1l1,1.6l1.5,1l2.6,1.1l1.8,1.6l1,1.4l0.6,2.5l0.5,1l2.5,0.7
	l1.4,1.9l5.7,5.6l4.2,1.9l2.2,1.1l6.1,6.3l1,1L70.7,31l1.9,0.9l4.8,0.1l9.9-1.3l6.8,0.1l2.2,2.2l2.7,2.4l1.8,0.1l1.9,1.6l1.7,0.1
	l2.2-2.2l-0.4-3.3l-0.7-1.8l-0.3-6.3l1.2-1.4l0.3-3l1.2-0.1l1-0.7l1,0.1l0.2,0.6l0.8,0.4l0.6,0.3l0.9,1.2l1.1,0.7
	c0,0,0.4-0.5,1.5,0.3s1.1,0.8,1.1,0.8l2.4,0.3l1.6,1.1l1.4,1.9l1,1.4l0.2,4.8l-1.1,1.4l-0.2,5.1l0.8,1.5l1.8,1.1l1.4,1.1l2,2.2
	c0,0,0.3,0.1,1.2,1.8c0.8,1.7,0.8,1.7,0.8,1.7l2.3,3.1l2.2,2.8l1.3,0.3h1.2l-0.1,2.2l-0.7,1.3c0,0-1-1.3-1.4,1s-0.4,2.3-0.4,2.3
	l0.5,0.9l1.1,0.5l-0.2,2.3l1.1,1.2l1.2,1.2l1.4,3.1l2.5,1.8l1,2l2.2,3l1.7,1.5c0,0,0.2,1.2,1,2c0.8,0.8,0.8,0.8,0.8,0.8l0.9,1.4
	l-0.1,2.2l-1.4,1.6L146,89l-0.6,2l0.5,1.2l1.4,1l1.9,1.9l2.9,2.9l0.2,1.2l1.2,1.1l1.6,1.3l1.6,1.5c0,0,0.8,0.6,0.1,2
	s-0.7,1.4-0.7,1.4l-0.7,1.2l-0.1,1.2l1.1,0.9l0.3,2.6l1.1,1.5l1.9,1.1l0.3,9.1l1.4,1.4l-0.2,3.1l-0.1,2.9l-1.1,1.4l0.1,1.6l1.2,0.9
	l-0.2,2.2c0,0,1.3,0.9-0.7,1.2s-2,0.3-2,0.3l-0.7-1h-4.4l-1.8,1.9l-2.5,0.2l-1.1-1l-4.9-0.2l-0.2-2.7l3.1-1.5l2-2l-0.4-1.6l-1-0.4
	l-1.8,1.7c0,0-2.6,0.7-2.8-0.5c-0.2-1.2-0.2-1.2-0.2-1.2l0.1-3l0.2-2.2l1.4-1.6l2.2-0.5l2.5-0.3l0.5-2.4l-1.4-1.2l-2.4,1.7l-1.8,0.8
	l-2.1-0.5l-9.1-10l-0.7,4.1l1,2l4.6,4.2l-0.4,2l-1.6,1.1l0.7,1.1l1,1l0.9,0.9l-0.2,1l-0.7,1l-2.5,0.8l-4,0.1l-2.5-1.5l-2.7-2.1
	l-2.7-1.4l-1.7-0.8h-1.4l-1.6,0.7l-1.2,0.9l-6.1-0.1l-2.3,1.3l-2.7,2.3l-0.7,1.8l-2.9,3.3l-3.3,1.8h-2l-1.4-0.1l-0.7-1.2l-0.1-1.3
	l-0.9-0.8l-1.1,2l0.2,1.4l0.5,2.7l-1.3,1.5l-0.1,2.3l0.7,2l-0.9,0.6l-1.6-0.1l-1.6-1l-0.6-2.5l-2.7-3.7l-2.4-6.6l-4.9-8.5l-8.6-8.8
	l-7-1.4l-1.2-1.6l-6.3-5.1l-3.3-1.1l-2.6-2.2l-3.7-4.2l-4.4-0.3l-3.4-1.9l-9.3-7.6l-3.5-0.5l-4,0.9l-1.8-0.3l-2.5-3.1l-3.7-4.8
	l-2.9-2.5l-2.9-3.5l-1.2-3l-0.6-1.4L3,67.8l0.5-0.9l0.7-1.4l0.7-0.8l1.2-1l0.2-1.6L7,60.6l-0.8-1.2l-1.7-0.2l-1.7-0.8l-1.5-0.7
	l-0.2-1.5L4,54.3l1.7-1.1l0.9-1L5,50.9l0-3.5l0.8-0.5l0.7-1.1l-0.4-1.4l-0.1-1.8l0-1.5l0.7-1l1.5-0.4l2.4,0l1.4-1L14.3,38.5"/>
</svg>
