<?xml version="1.0" encoding="utf-8"?>
<!-- Generator: Adobe Illustrator 25.3.1, SVG Export Plug-In . SVG Version: 6.00 Build 0)  -->
<svg version="1.1" id="Layer_1" xmlns="http://www.w3.org/2000/svg" xmlns:xlink="http://www.w3.org/1999/xlink" x="0px" y="0px"
	 viewBox="0 0 585.3 544.9" style="enable-background:new 0 0 585.3 544.9;" xml:space="preserve">
<style type="text/css">
	.st0{fill:#FFFFFF;stroke:#736666;stroke-width:3;stroke-miterlimit:10;}
</style>
<g>
	<path class="st0" d="M303.4,16.7c-4.1,5.2-6.7,5.6-9.1,9.4c-3.9,6.1,0,7.5-7.6,12.3c-5.7,3.6-7.4,1-12,7c-2.5,3.3-2.3,6.6-4.9,9.9
		c-3.8,4.7-5.9,3.9-11.2,7.2c-1.7,1-4.5,0.5-5.7,1.7c-1.6,1.5,0,4.9-1.1,5.8c-6.3,5.5-10.8,10-18.4,16c-5.8,4.6-10.8,4-11.8,12
		l-3.8,19.9l4.2,3.1c3.1,3.1,6.9,4.2,6.9,4.2l3.4,5.4l2.7,3.4l4.6,7.3c0.8,1.5,5,6.9,5,6.9l2.3,2.7l4.2,0.8l5,2.3L254,160v4.6
		l-3.1,3.4l0.4,5.4l0.4,5.4v4.2l3.4,3.4c1.1,3.1,1.1,6.9,1.1,6.9l3.1,1.9l2.3,5.7l3.8,3.4c0,0-0.8,4.6,0,6.1c0.8,1.5,1.1,5,1.1,5
		l-0.8,5l0.8,2.7l3.1,3.1l1.9,2.7l-1.5,6.9l0.4,4.6l-1.9,6.1l1.1,2.7l1.1,2.7l0.4,5.4l-1.5,6.1v3.1l0.8,3.1l1.9,4.2l4.6,3.8
		l-0.4,5.4l-0.8,4.6l-1.1,5.7l-0.4,2.7l-3.4,3.8l-2.7,3.8l-1.9,5.7l1.1,4.6l3.4,5.4l3.1,3.4l2.3,6.5l2.7,0.8l4.6,4.6l4.6,3.8l5-0.4
		l5.4-2.7l2.7-3.8l5.7-5l6.9-2.3l3.8,0.8l-5,8l-4.6,3.8l-6.9,7.6l-5.4,1.9l-10.7-0.8l-3.4-1.1l-5-6.5l-6.1-4.2l-3.1,0.8l-3.1,3.1
		l-1.9,5l2.3,9.2l7.6,4.2l1.5,5.4l1.5,2.7l2.7,5l0.8,4.2l6.5-1.1l6.5-1.5l8.8,0.4l11.5-3.4l8.4-1.1l5.4,1.5l5.7,4.6l8,5.4l5.4,6.1
		l4.6,8.8l-0.8,10.7l-0.8,8.8l3.1,10.7l-2.7,6.1l4.2,7.3l-0.4,5l-3.4,4.2v8l-4.2,5.7c0,0-3.8-1.1-1.5,3.1c2.3,4.2,2.3,4.2,2.3,4.2
		l1.1,2.7l2.7,4.2v5l-5,8l-3.8,5l3.8,5.4l3.1,2.3c0,0,0.8,0.8,0,7.3c-0.8,6.5-0.8,6.5-0.8,6.5l0.4,11.1l0.4,10.3l-0.4,5.4l4.6,3.1
		l8,0.4l7.6-3.1l9.2-4.2l6.5-6.5l5.4-8.4l6.9-9.2l5.7-5l5.7-5.7l5.7-6.9l4.2-6.1l0.4-9.6l6.5-6.9l3.8-0.8l11.1-1.1h8l3.4-5.4
		l5.7-3.4l5.7-0.4l7.3-0.4l4.6-3.8l-0.8-5.4l-2.3-5l3.4-2.7l-4.6-5l0.4-4.6l5-3.8l-5.4-5.4l5.7-6.5l-0.4-8l5-3.1l-4.2-0.8l5-3.8
		l6.1,0.8l4.6,1.1l3.4,1.9l4.2,0.4l3.4-1.9l1.1-3.1l-0.4-13.8l1.1-6.9l3.8-4.6c0,0-3.4,9.2-2.3-7.6c1.1-16.8-6.1-5-6.1-5l-0.8-3.1
		l3.8-4.2l4.2-4.6l3.8-5.7l-0.4-7.6l6.5-2.7l2.7-7.3l2.7-5l-1.1-6.1l-4.6-5.4l-4.6-2.3L505,306l0.8-4.6l0.4-4.2l4.6-4.2l7.3-0.4
		l6.9-5.7l4.6-0.4l1.5-15.3l1.5-9.2l3.1-5.4l7.6-6.9l7.6-6.1l6.1-3.1l5.4-6.1l8.4-9.9l2.3-10.7l3.8-20.6l-1.5-13l-7.6-7.6l-8.4-6.1
		l-7.6-4.6l-2.3-6.9l1.5-6.1l5.4-6.9l9.9-3.8l5.4-1.5h9.2l2.3-8.4l-6.9-6.1l-10.7-3.8h-13.8l-10.7-0.8l-6.1-3.8l-5.4-4.6l-5.4-3.1
		l-8.4,3.8l-6.9,7.6l-10.7,5.4l-9.2-1.5l-8.4-3.8l-3.1-7.6l-4.6-7.6l-0.8-9.9l-0.8-19.9l-2.3-9.9L463,51.9l-5.4-7.6l-9.2-6.1
		l-4.6-6.1l-12.2-3.8l-9.9,0.8l-6.9,4.6l-3.1,5.4l-7.6,3.1l-7.6-1.5l-6.9-4.6l-5.4-6.9L372,19.8l-5.4-8.4l-6.1-3.8l-6.9-3.1
		l-8.4-2.3h-6.9L327.7,6l-8.4,6.9l-9.2,3.1l-7.4,0.9"/>
	<g>
		<path class="st0" d="M135.5,152"/>
		<path class="st0" d="M38.5,108.4"/>
		<polygon class="st0" points="129.4,158.9 126.3,166.5 134.8,170.4 140.9,167.3 143.2,156.6 135.5,152 		"/>
		<polygon class="st0" points="79,22.1 65.2,38.1 59.9,36.6 49.2,33.5 40.7,32.8 31.6,29.7 20.1,29.7 11.7,26.7 5.6,33.5 4.8,41.9 
			1,50.4 1.8,57.2 7.9,62.6 14.8,64.9 25.5,64.9 31.6,68.7 33.1,76.3 33.1,87 46.9,96.2 53,96.2 60.6,90.1 68.3,84 79,79.4 
			85.1,81.7 101.1,87 106.5,81.7 103.4,68.7 102.7,58 104.2,46.5 105.7,36.6 98.8,29.7 92.7,32 88.1,24.4 		"/>
		<polygon class="st0" points="28.5,116.8 24.7,125.3 25.5,130.6 34.6,133.7 40.7,130.6 46.1,121.4 49.2,114.6 38.5,108.4 		"/>
		<polygon class="st0" points="76.7,88.6 67.5,96.2 58.3,100.8 56.8,108.4 58.3,113.8 56,123 59.9,132.1 66,135.2 79.7,136 
			82,123.7 88.1,116.1 91.2,121.4 98.1,111.5 97.3,100 92.7,94.7 84.3,96.2 73.6,112.3 		"/>
		<line class="st0" x1="73.6" y1="112.3" x2="82" y2="123.7"/>
	</g>
</g>
</svg>
