<?xml version="1.0" encoding="utf-8"?>
<!-- Generator: Adobe Illustrator 25.3.1, SVG Export Plug-In . SVG Version: 6.00 Build 0)  -->
<svg version="1.1" id="Layer_1" xmlns="http://www.w3.org/2000/svg" xmlns:xlink="http://www.w3.org/1999/xlink" x="0px" y="0px"
	 viewBox="0 0 115.1 151.8" style="enable-background:new 0 0 115.1 151.8;" xml:space="preserve">
<style type="text/css">
	.st0{fill:url(#SVGID_1_);stroke:#606161;stroke-miterlimit:10;}
</style>
<linearGradient id="SVGID_1_" gradientUnits="userSpaceOnUse" x1="0.6" y1="76.3" x2="114.1" y2="76.3">
	<stop  offset="0" style="stop-color:#FFFFFF"/>
	<stop  offset="1" style="stop-color:#D9D9D9"/>
</linearGradient>
<path class="st0" d="M1,146.5v-2.4l0.5-2.2l0.2-2.9l-1.1-2.4l0.7-1.6l1.6-2.2l1.8-2l0.7-1.6l1.1-1.5l0.7-2.2l-0.9-2l0.2-2.4l1.3-0.9
	l0.7-2.7l-1.1-1.8l-0.9-1.6l0.5-2.2l1.5-1.3l1.3-1.5v-2.5l1.1-1.5l1.5-2.7v-3.3l0.5-1.8l0.5-2.5l1.3-1.6l0.2-2.9l-0.5-2.4l0.9-1.5
	l1.6-1.8l1.3-0.9l0.5-1.8l0.7-1.3l2.7,0.5l2.4,1.8l3.3,0.5l2.5,0.5l1.5-1.1l1.5-1.6l1.8-1.5l1.3-0.9l-0.5-2.4l-1.5-1.5l0.9-2.4
	l-0.4-2.9L32.6,69l-2.7-1.8l0.2-1.8l-0.7-1.5L29.1,61l0.5-1.6l0.5-2.9L30,51.9l0.2-1.6l0.5-2.5l1.8-2.4l2.5-1.5l2.6-0.5l2-1l1.7-0.1
	l0.8-1.2l3.6,0.1l2.4-0.2l2-1.4l1.7-2.3l0.6-4.2l0.9-0.7l0.1-4.4l1.9-2.6l8.1-6.8l4.3-4.8l0.7-1.9L69,9.1l-0.1-2.7l-0.7-2l-0.5-1.9
	l0.4-1.3l0.7-0.7l0.7,0.1L71.4,2l1.9,1.7l1.4,1l1.1,2.2L76.9,8l1.5,1.2l1.9-0.5l1.1-1.5c0,0,1.3-0.3,0.1-1.4
	c-1.2-1.1-0.4-0.2-1.2-1.1s-0.8-0.9-0.8-0.9L80,3l1.3-0.2l1.2,0.7l2,2.4l1.8,1.9l1.9,0.3l1.3,0.1l2.1,1.8l1.7,1.9l0.5,3.3l1.7,2.9
	l3.4,7.2l3.8,6.8l1.1,1.7l1.1,1.1l0.9,1.1l0.6,1.3l-1.5,2.1l-2.5,4.4l-2.1,0.3l-3.2,2.7L96,48.1l-2.7,1.4l-0.2,2l1.2,1.1v1.7
	l-0.1,2.2L93.6,58L93,58.7l0.1,2.2l1.1,0.6L94,66.3l0.9,1.3l0.6,0.5l-0.1,2.1l-1,1.1l-0.2,3.5l-1,1.2l-0.3,3.4l1.7-0.7l3,1.9
	l-0.1,1.3l-1.1,2.5l-0.1,1.3l-0.5,0.8L95,88.2l-0.5,1.5l0.7,1.2l0.8,1.5l0.4,2.1l0.7,2l1.3,0.9l2.3,0.7l1.7,1.5l1.5,1.6l-0.1,3.3
	l0.4,0.9l0.1,1.7l-0.2,2.1l-0.5,1.1l0.1,3.1l-0.3,3.9l0.2,2.2l0.9,1.3l3.3,2.3l3.4,1.2l1.3,1.7l1.1,1.8l0.4,1.3l0.1,5.2l-0.4,1.7
	l-1.1,1.3l-2.3,0.5l-2.6-0.2l-2.3-1.1l-2.4-1.6l-1.2-1.6l-1-0.4l-1.5,0.3l-0.9,1l-2.7,3.8l-1.1,1.1l-1.7,0.4l-1.5,1l-0.9,1.5
	l-1.1,0.3l-10.9,0.4L76,144l-1.7-0.7l-2.8-3.6l-3.4-3.7l-1.6-0.9l-1.6-1l-1.3,0.5l-1.1,1.7l-2.3-0.6l-2.3-1.4l-1.1-1.1l-1.9,0.5
	l-1.1,1.5l-0.6,5.1l-1.6,1.9l-0.9,1.1l-0.1,2.5L50,147l-1.7-0.1l-3-2.6l-1.2-3.5l-0.7-3.6l-0.8-2.3l-1.1-1.5l-1.9-0.2l-1.3,0.6
	l-1,1.5l-0.9,4.6l-0.5,3.8l-0.9,1.6l-0.7,0.6l-2.1,0.3l-1.9,2c0,0-0.6,0.7-1.1,1.8s-0.5,1.1-0.5,1.1l-1.6,0.5l-2.2,0.5l-2.9-0.5
	l-2.5-1.5l-2.5-0.6l-2.1-0.7l-1.8-1.1l-1.3-0.5l-1.3,1.1c0,0,0.6,0.5-0.5,1.5s0.4,1-1.1,0.9s-1.5-0.1-1.5-0.1l-1.3-1.1
	c0,0,0.5,0.3-1.1-1.5c-1.6-1.7-0.3-0.7-1.6-1.7s-1.2-0.5-1.2-0.5L1,146.5z"/>
</svg>
