<?xml version="1.0" encoding="utf-8"?>
<!-- Generator: Adobe Illustrator 25.4.1, SVG Export Plug-In . SVG Version: 6.00 Build 0)  -->
<svg version="1.1" id="Layer_1" xmlns="http://www.w3.org/2000/svg" xmlns:xlink="http://www.w3.org/1999/xlink" x="0px" y="0px"
	 viewBox="0 0 399.1 552" style="enable-background:new 0 0 399.1 552;" xml:space="preserve">
<style type="text/css">
	.st0{enable-background:new    ;}
	.st1{clip-path:url(#SVGID_00000039114392278369309560000000063742668056660624_);enable-background:new    ;}
	.st2{fill:#2B2B2B;}
	.st3{clip-path:url(#SVGID_00000088099507225258083270000007262963980722928289_);enable-background:new    ;}
	.st4{clip-path:url(#SVGID_00000147927129206681359020000010067884909778280091_);enable-background:new    ;}
	.st5{clip-path:url(#SVGID_00000034771406252855658670000013573341437243994278_);enable-background:new    ;}
	.st6{clip-path:url(#SVGID_00000010304833782229235340000011815034961159198630_);enable-background:new    ;}
	.st7{clip-path:url(#SVGID_00000075863042732544295180000005803661684748572601_);enable-background:new    ;}
	.st8{clip-path:url(#SVGID_00000109731934566688796460000012983667100611286656_);enable-background:new    ;}
	.st9{clip-path:url(#SVGID_00000135662995356665986150000008564126448709345961_);enable-background:new    ;}
	.st10{clip-path:url(#SVGID_00000093885712465389047980000008199807284493199018_);enable-background:new    ;}
	.st11{fill:#858585;}
	.st12{clip-path:url(#SVGID_00000158026451744130536150000005721011804013863601_);enable-background:new    ;}
	.st13{fill:#949494;}
	.st14{fill:#818181;}
	.st15{clip-path:url(#SVGID_00000072968691674010620640000014809343268295228075_);enable-background:new    ;}
	.st16{clip-path:url(#SVGID_00000174578639383529045990000013152518802698906045_);enable-background:new    ;}
	.st17{clip-path:url(#SVGID_00000082339867606802094860000017562722486631762606_);enable-background:new    ;}
	.st18{clip-path:url(#SVGID_00000071534059909558838000000016475774743582411163_);enable-background:new    ;}
	.st19{clip-path:url(#SVGID_00000019659574999895326860000008328064101672578701_);enable-background:new    ;}
	.st20{clip-path:url(#SVGID_00000094602768417072610110000016936453233427647882_);enable-background:new    ;}
	.st21{fill:#808080;}
	.st22{clip-path:url(#SVGID_00000112611224042185302500000015978328919960835216_);enable-background:new    ;}
	.st23{clip-path:url(#SVGID_00000021803631500854456570000003015953660731575177_);enable-background:new    ;}
	.st24{clip-path:url(#SVGID_00000047775653214393626680000009135961836527902620_);enable-background:new    ;}
	.st25{clip-path:url(#SVGID_00000139282139315138282620000009009271055805031855_);enable-background:new    ;}
	.st26{clip-path:url(#SVGID_00000056393595565629573570000016075889686269167271_);enable-background:new    ;}
	.st27{clip-path:url(#SVGID_00000106119532347369562440000016752972874846514623_);enable-background:new    ;}
	.st28{clip-path:url(#SVGID_00000159469867601960819650000008601711800267306383_);enable-background:new    ;}
	.st29{fill:#8F8F8F;}
	.st30{fill:#8A8A8A;}
	.st31{clip-path:url(#SVGID_00000160876696291180825020000008183070857613646214_);enable-background:new    ;}
	.st32{clip-path:url(#SVGID_00000000905197624996478820000010215739693682244758_);enable-background:new    ;}
	.st33{clip-path:url(#SVGID_00000056410680730109143430000014721126389151470987_);enable-background:new    ;}
	.st34{clip-path:url(#SVGID_00000165925776203304291380000013136538599427356034_);enable-background:new    ;}
	.st35{clip-path:url(#SVGID_00000063635568463076304270000015270356662028117675_);enable-background:new    ;}
	.st36{fill:#959595;}
	.st37{clip-path:url(#SVGID_00000108993435299727970950000004875579871728123309_);enable-background:new    ;}
	.st38{clip-path:url(#SVGID_00000020391361250153631680000010232474046352639411_);enable-background:new    ;}
	.st39{clip-path:url(#SVGID_00000139285247672002209310000003116969079584457101_);enable-background:new    ;}
	.st40{clip-path:url(#SVGID_00000000209563168351981350000018270195489754495387_);enable-background:new    ;}
	.st41{clip-path:url(#SVGID_00000096060625663021237780000013564545135723522225_);enable-background:new    ;}
	.st42{clip-path:url(#SVGID_00000152986107117754423640000000418850983825350324_);enable-background:new    ;}
	.st43{clip-path:url(#SVGID_00000114783998791163908370000007060867238898222246_);enable-background:new    ;}
	.st44{fill:#909090;}
	.st45{fill:#939393;}
	.st46{fill:#828282;}
	.st47{clip-path:url(#SVGID_00000098217700972224672860000015080031376966210989_);enable-background:new    ;}
	.st48{clip-path:url(#SVGID_00000015327877503288756870000011958739040328142211_);enable-background:new    ;}
	.st49{clip-path:url(#SVGID_00000147904885979683336800000012171338376844915623_);enable-background:new    ;}
	.st50{clip-path:url(#SVGID_00000077311775126088535490000011179822086658974132_);enable-background:new    ;}
	.st51{clip-path:url(#SVGID_00000063609014176449423520000011791214502978384794_);enable-background:new    ;}
	.st52{clip-path:url(#SVGID_00000028296527367672539420000014597736703197151656_);enable-background:new    ;}
	.st53{clip-path:url(#SVGID_00000111889968777086636540000011953548771411681441_);enable-background:new    ;}
	.st54{clip-path:url(#SVGID_00000111904018879391079850000015085590608211751055_);enable-background:new    ;}
	.st55{clip-path:url(#SVGID_00000083051638429295389640000017666999960928469674_);enable-background:new    ;}
	.st56{fill:#EAEAEA;}
	.st57{fill:none;stroke:#010101;stroke-miterlimit:10;stroke-dasharray:2.6635,2.6635;}
	.st58{fill:#269FBA;stroke:#010101;stroke-miterlimit:10;}
	.st59{fill:none;}
	.st60{fill:none;stroke:#010101;stroke-miterlimit:10;}
	.st61{fill:#010101;}
</style>
<g>
	<g>
		<g class="st0">
			<g class="st0">
				<defs>
					<path id="SVGID_1_" class="st0" d="M159.7,2.5v17.1c-1.1-1.6-1.6-2.1-1.9-2.2V0.3C158.1,0.4,158.6,0.9,159.7,2.5z"/>
				</defs>
				<clipPath id="SVGID_00000033365929826146219980000003321158525006612629_">
					<use xlink:href="#SVGID_1_"  style="overflow:visible;"/>
				</clipPath>
				<g style="clip-path:url(#SVGID_00000033365929826146219980000003321158525006612629_);enable-background:new    ;">
					<path class="st2" d="M159.7,2.5v17.1c-1.1-1.6-1.6-2.1-1.9-2.2V0.3C158.1,0.4,158.6,0.9,159.7,2.5"/>
				</g>
			</g>
			<g>
				<polygon class="st2" points="157.9,0.3 157.9,17.4 157.7,25.8 157.7,8.7 				"/>
			</g>
			<g>
				<polygon class="st2" points="157.7,8.7 157.7,25.8 122.4,26.2 122.4,9.1 				"/>
			</g>
			<g>
				<polygon class="st2" points="250.2,15.6 250.2,32.7 235.9,33 235.9,15.9 				"/>
			</g>
			<g>
				<polygon class="st2" points="177.7,11.5 177.7,28.6 172.7,34 172.7,16.9 				"/>
			</g>
			<g>
				<polygon class="st2" points="168.5,17.3 168.5,34.4 159.7,19.6 159.7,2.5 				"/>
			</g>
			<g>
				<polygon class="st2" points="187.4,18.1 187.4,35.2 177.7,28.6 177.7,11.5 				"/>
			</g>
			<g class="st0">
				<defs>
					<path id="SVGID_00000138552281215131160870000009458335594385452928_" class="st0" d="M170.5,18.6v17.1c-0.8,0-1.4-0.5-2-1.3
						V17.3C169.1,18.1,169.7,18.6,170.5,18.6z"/>
				</defs>
				<clipPath id="SVGID_00000008837597456789756680000001563951724309655436_">
					<use xlink:href="#SVGID_00000138552281215131160870000009458335594385452928_"  style="overflow:visible;"/>
				</clipPath>
				<g style="clip-path:url(#SVGID_00000008837597456789756680000001563951724309655436_);enable-background:new    ;">
					<path class="st2" d="M170.5,18.6v17.1c-0.8,0-1.4-0.5-2-1.3V17.3C169.1,18.1,169.7,18.6,170.5,18.6"/>
				</g>
			</g>
			<g class="st0">
				<defs>
					<path id="SVGID_00000029734161420413263320000016358293787000094624_" class="st0" d="M172.7,16.9V34c-0.8,1.1-1.5,1.6-2.2,1.6
						V18.6C171.2,18.6,171.9,18,172.7,16.9z"/>
				</defs>
				<clipPath id="SVGID_00000020373981776400375910000013968052480743697026_">
					<use xlink:href="#SVGID_00000029734161420413263320000016358293787000094624_"  style="overflow:visible;"/>
				</clipPath>
				<g style="clip-path:url(#SVGID_00000020373981776400375910000013968052480743697026_);enable-background:new    ;">
					<path class="st2" d="M172.7,16.9V34c-0.2,0.3-0.4,0.5-0.6,0.8V17.7C172.3,17.5,172.5,17.2,172.7,16.9"/>
					<path class="st2" d="M172.1,17.7v17.1c-0.2,0.3-0.5,0.5-0.7,0.6V18.3C171.6,18.2,171.8,18,172.1,17.7"/>
					<path class="st2" d="M171.4,18.3v17.1c-0.3,0.2-0.6,0.3-0.9,0.3V18.6C170.8,18.6,171.1,18.5,171.4,18.3"/>
				</g>
			</g>
			<g class="st0">
				<defs>
					<path id="SVGID_00000106139416299160220650000009519461548270276238_" class="st0" d="M188.8,20v17.1c-0.3-0.8-0.7-1.5-1.4-1.9
						V18.1C188.1,18.5,188.6,19.2,188.8,20z"/>
				</defs>
				<clipPath id="SVGID_00000157292864036316261220000002302599929160295346_">
					<use xlink:href="#SVGID_00000106139416299160220650000009519461548270276238_"  style="overflow:visible;"/>
				</clipPath>
				<g style="clip-path:url(#SVGID_00000157292864036316261220000002302599929160295346_);enable-background:new    ;">
					<path class="st2" d="M188.8,20v17.1c-0.3-0.8-0.7-1.5-1.4-1.9V18.1C188.1,18.5,188.6,19.2,188.8,20"/>
				</g>
			</g>
			<g class="st0">
				<defs>
					<path id="SVGID_00000092437999656522284140000011467768027474753934_" class="st0" d="M235.9,15.9V33
						c-1.8,1.7-17.6,15.8-31.3,15.8c-1.2,0-2.3-0.1-3.4-0.3c-5.5-1.1-9.7-4.9-12.4-11.4V20c2.7,6.5,6.9,10.3,12.4,11.4
						c1.1,0.2,2.3,0.3,3.4,0.3C218.3,31.7,234.1,17.5,235.9,15.9z"/>
				</defs>
				<clipPath id="SVGID_00000168075082262676588940000004974273061364021144_">
					<use xlink:href="#SVGID_00000092437999656522284140000011467768027474753934_"  style="overflow:visible;"/>
				</clipPath>
				<g style="clip-path:url(#SVGID_00000168075082262676588940000004974273061364021144_);enable-background:new    ;">
					<path class="st2" d="M235.9,15.9V33c-0.9,0.9-5.7,5.1-12,9V24.9C230.2,21,234.9,16.7,235.9,15.9"/>
					<path class="st2" d="M223.9,24.9V42c-5.7,3.6-12.8,6.8-19.3,6.8c-1.2,0-2.3-0.1-3.4-0.3c-5.5-1.1-9.7-4.9-12.4-11.4V20
						c2.7,6.5,6.9,10.3,12.4,11.4c1.1,0.2,2.3,0.3,3.4,0.3C211.1,31.7,218.2,28.4,223.9,24.9"/>
				</g>
			</g>
			<g class="st0">
				<defs>
					<path id="SVGID_00000182489858218002186190000015543057214067189895_" class="st0" d="M122.4,9.1v17.1c-0.9,0-1.8,0.2-2.7,0.5
						c-5,1.9-19.9,8.5-50.4,28.2V37.8c30.5-19.7,45.4-26.3,50.4-28.2C120.6,9.2,121.5,9.1,122.4,9.1z"/>
				</defs>
				<clipPath id="SVGID_00000183230433212492632970000004753853437731966113_">
					<use xlink:href="#SVGID_00000182489858218002186190000015543057214067189895_"  style="overflow:visible;"/>
				</clipPath>
				<g style="clip-path:url(#SVGID_00000183230433212492632970000004753853437731966113_);enable-background:new    ;">
					<path class="st2" d="M122.4,9.1v17.1c-0.9,0-1.8,0.2-2.7,0.5c-4.3,1.7-16.2,6.9-39.3,21.2V30.8c23.1-14.3,34.9-19.5,39.3-21.2
						C120.6,9.2,121.5,9.1,122.4,9.1"/>
					<path class="st2" d="M80.4,30.8v17.1c-3.5,2.1-7.2,4.5-11.1,7.1V37.8C73.3,35.2,77,32.9,80.4,30.8"/>
				</g>
			</g>
			<g class="st0">
				<defs>
					<path id="SVGID_00000018955646594951929690000001403208686561107087_" class="st0" d="M63.1,91.8l0-17.1
						c0-35,5.9-36.8,6.2-36.9v17.1C69.1,55,63.1,56.8,63.1,91.8z"/>
				</defs>
				<clipPath id="SVGID_00000093147139776585395080000010166389761582109095_">
					<use xlink:href="#SVGID_00000018955646594951929690000001403208686561107087_"  style="overflow:visible;"/>
				</clipPath>
				<g style="clip-path:url(#SVGID_00000093147139776585395080000010166389761582109095_);enable-background:new    ;">
					<path class="st2" d="M69.3,37.8v17.1c0,0-0.1,0-0.3,0.1V37.9C69.2,37.8,69.3,37.8,69.3,37.8"/>
					<path class="st2" d="M69,37.9V55c-0.1,0.1-0.3,0.2-0.6,0.5V38.4C68.7,38.2,68.9,38,69,37.9"/>
					<path class="st2" d="M68.4,38.4v17.1c-0.3,0.4-0.7,0.9-1.2,1.8V40.2C67.7,39.3,68.1,38.8,68.4,38.4"/>
					<path class="st2" d="M67.3,40.2v17.1c-1.8,3.6-4.2,12.4-4.2,34.5V74.7C63.1,52.6,65.5,43.7,67.3,40.2"/>
				</g>
			</g>
			<g class="st0">
				<defs>
					<path id="SVGID_00000121254437149739940920000012408113952672165268_" class="st0" d="M294.8,78.6v17.1c0-5.9-0.5-13-2-20.3
						c-5.2-24.3-19.5-38.7-42.6-42.7V15.6c23,4,37.3,18.4,42.6,42.7C294.3,65.6,294.8,72.7,294.8,78.6z"/>
				</defs>
				<clipPath id="SVGID_00000053541534512045174550000013154841750903176365_">
					<use xlink:href="#SVGID_00000121254437149739940920000012408113952672165268_"  style="overflow:visible;"/>
				</clipPath>
				<g style="clip-path:url(#SVGID_00000053541534512045174550000013154841750903176365_);enable-background:new    ;">
					<path class="st2" d="M294.8,78.6v17.1c0-5.9-0.5-13-2-20.3c-5.2-24.3-19.5-38.7-42.6-42.7V15.6c23,4,37.3,18.4,42.6,42.7
						C294.3,65.6,294.8,72.7,294.8,78.6"/>
				</g>
			</g>
			<g class="st0">
				<defs>
					<path id="SVGID_00000155138675608228275810000005857426746503051404_" class="st0" d="M63.3,101.8c-0.1-3.6-0.1-6.8-0.1-9.9
						l0-17.1c0,3,0,6.3,0.1,9.9c0,0.5,0,1.3,0,1.8c0,0.6,0,1.4,0,1.9c0,0.6,0,1.4,0,2c0,0.6,0,1.4,0,2c0,0.6,0,1.4,0,2
						c0,0.6,0,1.4,0,2c0,0.6,0,1.4,0,1.9c0,0.5,0,1.3,0,1.8c0,0.1,0,0.1,0,0.2c0,0.1,0,0.1,0,0.2c0,0.1,0,0.1,0,0.2
						c0,0.1,0,0.1,0,0.2c0,0.1,0,0.1,0,0.2c0,0.1,0,0.1,0,0.2c0,0.1,0,0.1,0,0.2C63.3,101.6,63.3,101.7,63.3,101.8z"/>
				</defs>
				<clipPath id="SVGID_00000179620382353544666370000007545285885633623171_">
					<use xlink:href="#SVGID_00000155138675608228275810000005857426746503051404_"  style="overflow:visible;"/>
				</clipPath>
				<g style="clip-path:url(#SVGID_00000179620382353544666370000007545285885633623171_);enable-background:new    ;">
					<path class="st11" d="M64.5,108.8v17.1c-1-14-1.4-25.2-1.4-34.2V74.7C63.1,83.7,63.5,94.9,64.5,108.8"/>
				</g>
			</g>
			<g class="st0">
				<defs>
					<path id="SVGID_00000148659320608420889050000002768194824842816655_" class="st0" d="M294.8,95.7c0,7.8-0.8,13.5-1,15V93.6
						c0.2-1.5,1-7.3,1-15C294.8,83.7,294.8,90.5,294.8,95.7z"/>
				</defs>
				<clipPath id="SVGID_00000160152998388448601700000012223970386629880475_">
					<use xlink:href="#SVGID_00000148659320608420889050000002768194824842816655_"  style="overflow:visible;"/>
				</clipPath>
				<g style="clip-path:url(#SVGID_00000160152998388448601700000012223970386629880475_);enable-background:new    ;">
					<path class="st13" d="M294.8,78.6v17.1c0,7.7-0.8,13.5-1,15V93.6C294,92.1,294.8,86.4,294.8,78.6"/>
				</g>
			</g>
			<g>
				<polygon class="st14" points="293.8,93.6 293.8,110.7 289.3,110.8 289.3,93.7 				"/>
			</g>
			<g class="st0">
				<defs>
					<path id="SVGID_00000151542893872431480430000009958037903389370524_" class="st0" d="M295.8,78.6v17.1
						c0,9.1-1.1,15.4-1.1,15.5V94.1C294.7,94,295.8,87.7,295.8,78.6z"/>
				</defs>
				<clipPath id="SVGID_00000139295964789610248000000001658618355287453373_">
					<use xlink:href="#SVGID_00000151542893872431480430000009958037903389370524_"  style="overflow:visible;"/>
				</clipPath>
				<g style="clip-path:url(#SVGID_00000139295964789610248000000001658618355287453373_);enable-background:new    ;">
					<path class="st2" d="M295.8,78.6v17.1c0,9.1-1.1,15.4-1.1,15.5V94.1C294.7,94,295.8,87.7,295.8,78.6"/>
				</g>
			</g>
			<g>
				<polygon class="st2" points="294.7,94.1 294.7,111.2 290.2,111.7 290.2,94.6 				"/>
			</g>
			<g class="st0">
				<defs>
					<path id="SVGID_00000124848692423505872110000005747169617161850799_" class="st0" d="M289.3,110.8c-0.2,1.4-0.2,2.8-0.2,4.1
						V97.9c0-1.3,0.1-2.7,0.2-4.1C289.3,98.9,289.6,105.7,289.3,110.8z"/>
				</defs>
				<clipPath id="SVGID_00000007424234946939146960000002332713455347361712_">
					<use xlink:href="#SVGID_00000124848692423505872110000005747169617161850799_"  style="overflow:visible;"/>
				</clipPath>
				<g style="clip-path:url(#SVGID_00000007424234946939146960000002332713455347361712_);enable-background:new    ;">
					<path class="st13" d="M289.3,93.7v17.1c-0.2,1.4-0.2,2.8-0.2,4.2V97.9C289.1,96.6,289.1,95.2,289.3,93.7"/>
				</g>
			</g>
			<g class="st0">
				<defs>
					<path id="SVGID_00000027596527001972141820000012414378744877769114_" class="st0" d="M290,115.2V98.1c0-1.1,0.1-2.3,0.2-3.5
						v17.1C290.1,112.9,290,114.1,290,115.2z"/>
				</defs>
				<clipPath id="SVGID_00000171691692103578407710000007440928273672949688_">
					<use xlink:href="#SVGID_00000027596527001972141820000012414378744877769114_"  style="overflow:visible;"/>
				</clipPath>
				<g style="clip-path:url(#SVGID_00000171691692103578407710000007440928273672949688_);enable-background:new    ;">
					<path class="st2" d="M290.2,94.6v17.1c-0.1,1.2-0.2,2.3-0.2,3.5V98.1C290,97,290.1,95.8,290.2,94.6"/>
				</g>
			</g>
			<g class="st0">
				<defs>
					<path id="SVGID_00000177473111419886121560000011525639396973282732_" class="st0" d="M63.3,101.8c0-0.8,0-1.6,0-2.4
						c0-0.6,0-1.3,0-1.9c0-0.6,0-1.4,0-2c0-0.6,0-1.4,0-2c0-0.6,0-1.4,0-2c0-0.6,0-1.4,0-2c0-0.6,0-1.4,0-2c0-0.6,0-1.3,0-1.9
						c0-0.3,0-0.6,0-0.9c0.2,7,0.6,15,1.2,24.2l0,17.1C63.8,116.7,63.5,108.7,63.3,101.8z"/>
				</defs>
				<clipPath id="SVGID_00000060001092569706586780000004907681613664484236_">
					<use xlink:href="#SVGID_00000177473111419886121560000011525639396973282732_"  style="overflow:visible;"/>
				</clipPath>
				<g style="clip-path:url(#SVGID_00000060001092569706586780000004907681613664484236_);enable-background:new    ;">
					<path class="st11" d="M64.5,108.8v17.1c-1-14-1.4-25.2-1.4-34.2V74.7C63.1,83.7,63.5,94.9,64.5,108.8"/>
				</g>
			</g>
			<g class="st0">
				<defs>
					<path id="SVGID_00000161605585759635628920000001106583884851295911_" class="st0" d="M62.1,91.3l0-17.1c0,9.2,0.4,20.7,1.4,35
						l0,17.1C62.5,112,62.1,100.5,62.1,91.3z"/>
				</defs>
				<clipPath id="SVGID_00000089552533364709051860000007581258358706959279_">
					<use xlink:href="#SVGID_00000161605585759635628920000001106583884851295911_"  style="overflow:visible;"/>
				</clipPath>
				<g style="clip-path:url(#SVGID_00000089552533364709051860000007581258358706959279_);enable-background:new    ;">
					<path class="st2" d="M63.5,109.2v17.1c-1-14.3-1.4-25.8-1.4-35V74.2C62.1,83.4,62.5,94.9,63.5,109.2"/>
				</g>
			</g>
			<g class="st0">
				<defs>
					<path id="SVGID_00000163048202059766456990000008364747510059235772_" class="st0" d="M289,115.2V98.1
						c0,10.7,4.6,18.4,4.8,18.7v17.1C293.6,133.6,289,125.9,289,115.2z"/>
				</defs>
				<clipPath id="SVGID_00000150796806156992945400000013041517099265814194_">
					<use xlink:href="#SVGID_00000163048202059766456990000008364747510059235772_"  style="overflow:visible;"/>
				</clipPath>
				<g style="clip-path:url(#SVGID_00000150796806156992945400000013041517099265814194_);enable-background:new    ;">
					<path class="st2" d="M293.8,116.8v17.1c-0.2-0.2-4.8-7.9-4.8-18.7V98.1C289,108.8,293.6,116.5,293.8,116.8"/>
				</g>
			</g>
			<g>
				<polygon class="st21" points="71.6,117.1 71.6,134.2 64.5,125.9 64.5,108.8 				"/>
			</g>
			<g>
				<polygon class="st2" points="70.2,117 70.2,134.1 63.5,126.3 63.5,109.2 				"/>
			</g>
			<g>
				<polygon class="st2" points="71.6,117.1 71.6,134.2 66.3,138.3 66.3,121.2 				"/>
			</g>
			<g class="st0">
				<defs>
					<path id="SVGID_00000113345585836374807470000014328202205005157026_" class="st0" d="M66.3,121.2v17.1
						c-0.1,0.1-15.5,17.5-25.2,45.3v-17.1C50.8,138.8,66.2,121.3,66.3,121.2z"/>
				</defs>
				<clipPath id="SVGID_00000176734487907265962650000011105480164761672338_">
					<use xlink:href="#SVGID_00000113345585836374807470000014328202205005157026_"  style="overflow:visible;"/>
				</clipPath>
				<g style="clip-path:url(#SVGID_00000176734487907265962650000011105480164761672338_);enable-background:new    ;">
					<path class="st2" d="M66.3,121.2v17.1c-0.1,0.1-8.7,9.8-17.1,26.3v-17.1C57.6,131,66.3,121.3,66.3,121.2"/>
					<path class="st2" d="M49.2,147.5v17.1c-2.8,5.6-5.7,11.9-8.1,19v-17.1C43.6,159.5,46.4,153.1,49.2,147.5"/>
				</g>
			</g>
			<g class="st0">
				<defs>
					<path id="SVGID_00000173848927089927103020000018095203597654764169_" class="st0" d="M321.2,168v17.1c0-12.3-3-38.3-27.4-51.2
						v-17.1C318.2,129.7,321.2,155.7,321.2,168z"/>
				</defs>
				<clipPath id="SVGID_00000087414516155523980400000002934261008009330055_">
					<use xlink:href="#SVGID_00000173848927089927103020000018095203597654764169_"  style="overflow:visible;"/>
				</clipPath>
				<g style="clip-path:url(#SVGID_00000087414516155523980400000002934261008009330055_);enable-background:new    ;">
					<path class="st2" d="M321.2,168v17.1c0-12.3-3-38.3-27.4-51.2v-17.1C318.2,129.7,321.2,155.7,321.2,168"/>
				</g>
			</g>
			<g>
				<polygon class="st2" points="31,173.3 31,190.4 26.2,190.2 26.2,173.1 				"/>
			</g>
			<g>
				<polygon class="st2" points="41.1,166.5 41.1,183.6 31,190.4 31,173.3 				"/>
			</g>
			<g class="st0">
				<defs>
					<path id="SVGID_00000064324946308797700150000006154184231667708576_" class="st0" d="M321.2,185c0,4-0.3,6.5-0.3,6.6v-17.1
						c0-0.1,0.3-2.6,0.3-6.6C321.2,173.1,321.2,179.9,321.2,185z"/>
				</defs>
				<clipPath id="SVGID_00000180324147903810793460000012272998388517643146_">
					<use xlink:href="#SVGID_00000064324946308797700150000006154184231667708576_"  style="overflow:visible;"/>
				</clipPath>
				<g style="clip-path:url(#SVGID_00000180324147903810793460000012272998388517643146_);enable-background:new    ;">
					<path class="st13" d="M321.2,168v17.1c0,4-0.3,6.5-0.3,6.5v-17.1C320.9,174.4,321.2,171.9,321.2,168"/>
				</g>
			</g>
			<g class="st0">
				<defs>
					<path id="SVGID_00000069373071845911146240000016833042095171139213_" class="st0" d="M322.2,167.9V185c0,3.7-0.3,6.2-0.3,6.6
						v-17.1C322,174.1,322.2,171.7,322.2,167.9z"/>
				</defs>
				<clipPath id="SVGID_00000145032201526734319250000010190108564975422085_">
					<use xlink:href="#SVGID_00000069373071845911146240000016833042095171139213_"  style="overflow:visible;"/>
				</clipPath>
				<g style="clip-path:url(#SVGID_00000145032201526734319250000010190108564975422085_);enable-background:new    ;">
					<path class="st2" d="M322.2,167.9V185c0,3.7-0.3,6.2-0.3,6.6v-17.1C322,174.1,322.2,171.7,322.2,167.9"/>
				</g>
			</g>
			<g class="st0">
				<defs>
					<path id="SVGID_00000028296221753842901180000011217362767570252679_" class="st0" d="M321,176.3l0,17.1c0-0.6,0-1.2-0.1-1.6
						v-17.1C321,175.1,321,175.7,321,176.3z"/>
				</defs>
				<clipPath id="SVGID_00000124840661756530381060000010919972191594946992_">
					<use xlink:href="#SVGID_00000028296221753842901180000011217362767570252679_"  style="overflow:visible;"/>
				</clipPath>
				<g style="clip-path:url(#SVGID_00000124840661756530381060000010919972191594946992_);enable-background:new    ;">
					<path class="st2" d="M321,176.3v17.1c0-0.6,0-1.2-0.1-1.6v-17.1C321,175.1,321,175.7,321,176.3"/>
				</g>
			</g>
			<g>
				<polygon class="st2" points="26.2,173.1 26.2,190.2 25.7,201.7 25.7,184.6 				"/>
			</g>
			<g>
				<polygon class="st14" points="30.8,184.9 30.8,202 25.7,201.7 25.7,184.6 				"/>
			</g>
			<g class="st0">
				<defs>
					<path id="SVGID_00000047030613293394337610000018187751660186929838_" class="st0" d="M319.5,202.4c0-0.2,0-0.6,0-0.8
						c0-0.3,0-0.6,0-0.8c0-0.3,0-0.6,0-0.9c0-0.3,0-0.6,0-0.9c0-0.3,0-0.6,0-0.9c0-0.3,0-0.6,0-0.9c0-0.3,0-0.6,0-0.8
						c0-0.2,0-0.6,0-0.8c0-0.4,0-0.8,0-1.2c0-0.4,0-0.9,0-1.3c0-0.4,0-0.9,0-1.3c0-0.4,0-0.9,0-1.3c0-0.4,0-0.9,0-1.3
						c0-0.4,0-0.9,0-1.3c0-0.4,0-0.9,0-1.3c0-0.4,0-0.8,0-1.2c0.7-2.7,1.2-5.1,1.4-7.2c0,0.6,0,1.4,0,2c0,0.6,0,1.5,0,2.1
						c0,0.7,0,1.5,0,2.2c0,0.7,0,1.6,0,2.2c0,0.7,0,1.6,0,2.2c0,0.7,0,1.5,0,2.2c0,0.6,0,1.5,0,2.1c0,0.6,0,1.4,0,2c0-0.6,0-1.4,0-2
						c0-0.6,0-1.5,0-2.1c0-0.7,0-1.5,0-2.2c0-0.7,0-1.6,0-2.2c0-0.7,0-1.6,0-2.2c0-0.7,0-1.5,0-2.2c0-0.6,0-1.5,0-2.1
						c0-0.6,0-1.4,0-2c0.1-0.7,0.1-1.4,0.1-2v17.1C321,195.6,320.4,198.8,319.5,202.4z"/>
				</defs>
				<clipPath id="SVGID_00000161621691048305778620000011980091615330723258_">
					<use xlink:href="#SVGID_00000047030613293394337610000018187751660186929838_"  style="overflow:visible;"/>
				</clipPath>
				<g style="clip-path:url(#SVGID_00000161621691048305778620000011980091615330723258_);enable-background:new    ;">
					<path class="st13" d="M321,176.2v17.1c0,7.8-7,26.5-10.4,33.1v-17.1C314,202.7,321,184,321,176.2"/>
				</g>
			</g>
			<g>
				<polygon class="st2" points="29.8,185.8 29.8,202.9 24.6,202.6 24.6,185.5 				"/>
			</g>
			<g>
				<polygon class="st2" points="30.4,195.5 30.4,212.6 29.8,202.9 29.8,185.8 				"/>
			</g>
			<g>
				<polygon class="st21" points="31.4,195.8 31.4,212.9 30.8,202 30.8,184.9 				"/>
			</g>
			<g>
				<polygon class="st2" points="31.4,195.8 31.4,212.9 28.1,216.9 28.1,199.8 				"/>
			</g>
			<g>
				<polygon class="st2" points="27.6,209.5 27.6,226.6 27.1,216.6 27.1,199.5 				"/>
			</g>
			<g>
				<polygon class="st21" points="28.5,210 28.5,227.1 28.1,216.9 28.1,199.8 				"/>
			</g>
			<g class="st0">
				<defs>
					<path id="SVGID_00000013156407282762713090000006214915423731898278_" class="st0" d="M319.5,202.4
						c-2.8,10.7-8.6,24.6-10.2,26.3v-17.1c1.6-1.7,7.4-15.6,10.2-26.3c0,0.4,0,0.8,0,1.2c0,0.4,0,0.9,0,1.3c0,0.4,0,0.9,0,1.3
						c0,0.4,0,0.9,0,1.3c0,0.4,0,0.9,0,1.3c0,0.4,0,0.9,0,1.3c0,0.4,0,0.9,0,1.3c0,0.4,0,0.8,0,1.2c0,0.2,0,0.6,0,0.8
						c0,0.3,0,0.6,0,0.8c0,0.3,0,0.6,0,0.9c0,0.3,0,0.6,0,0.9c0,0.3,0,0.6,0,0.9c0,0.3,0,0.6,0,0.9c0,0.3,0,0.6,0,0.8
						C319.5,201.8,319.5,202.1,319.5,202.4z"/>
				</defs>
				<clipPath id="SVGID_00000153696147404360434680000004548069441676633273_">
					<use xlink:href="#SVGID_00000013156407282762713090000006214915423731898278_"  style="overflow:visible;"/>
				</clipPath>
				<g style="clip-path:url(#SVGID_00000153696147404360434680000004548069441676633273_);enable-background:new    ;">
					<path class="st13" d="M321,176.2v17.1c0,7.8-7,26.5-10.4,33.1v-17.1C314,202.7,321,184,321,176.2"/>
					<path class="st29" d="M310.6,209.3v17.1c-0.6,1.1-1,1.9-1.3,2.2v-17.1C309.6,211.2,310.1,210.4,310.6,209.3"/>
					<path class="st30" d="M309.3,211.5v17.1c0,0,0,0,0,0L309.3,211.5C309.3,211.6,309.3,211.6,309.3,211.5"/>
				</g>
			</g>
			<g class="st0">
				<defs>
					<path id="SVGID_00000015326491875734015130000018123234641875840420_" class="st0" d="M322,176.2v17.1c0,5.4-3.3,15.3-4.8,19.6
						c-2.7,7.6-6.2,15.9-7.5,16.6v-17.1c1.3-0.8,4.9-9.1,7.5-16.6C318.8,191.5,322,181.6,322,176.2z"/>
				</defs>
				<clipPath id="SVGID_00000075845262192072582510000007952663324484955267_">
					<use xlink:href="#SVGID_00000015326491875734015130000018123234641875840420_"  style="overflow:visible;"/>
				</clipPath>
				<g style="clip-path:url(#SVGID_00000075845262192072582510000007952663324484955267_);enable-background:new    ;">
					<path class="st2" d="M322,176.2v17.1c0,5.4-3.3,15.3-4.8,19.6c-1.8,5.1-4,10.5-5.7,13.8v-17.1c1.6-3.2,3.8-8.7,5.7-13.8
						C318.8,191.5,322,181.6,322,176.2"/>
					<path class="st2" d="M311.6,209.6v17.1c-0.6,1.3-1.2,2.2-1.6,2.6v-17.1C310.4,211.8,310.9,210.9,311.6,209.6"/>
					<path class="st2" d="M310,212.2v17.1c-0.1,0.1-0.2,0.2-0.3,0.2v-17.1C309.8,212.4,309.9,212.3,310,212.2"/>
					<path class="st2" d="M309.7,212.5v17.1c0,0,0,0,0,0L309.7,212.5C309.7,212.5,309.7,212.5,309.7,212.5"/>
				</g>
			</g>
			<g class="st0">
				<defs>
					<path id="SVGID_00000005263637995995636850000004501690419438667945_" class="st0" d="M15.2,261.7l0-17.1
						c0-20.6,13.1-34.4,13.4-34.7l0,17.1C28.4,227.3,15.2,241.1,15.2,261.7z"/>
				</defs>
				<clipPath id="SVGID_00000087376327618114847010000004344763905990265221_">
					<use xlink:href="#SVGID_00000005263637995995636850000004501690419438667945_"  style="overflow:visible;"/>
				</clipPath>
				<g style="clip-path:url(#SVGID_00000087376327618114847010000004344763905990265221_);enable-background:new    ;">
					<path class="st2" d="M28.6,209.9V227c0,0,0,0-0.1,0.1V210C28.6,209.9,28.6,209.9,28.6,209.9"/>
					<path class="st2" d="M28.5,210v17.1c-0.7,0.7-4.2,4.7-7.5,11.2v-17.1C24.3,214.7,27.9,210.7,28.5,210"/>
					<path class="st2" d="M21,221.1v17.1c-3,5.9-5.8,14-5.8,23.4v-17.1C15.2,235.1,18,227.1,21,221.1"/>
				</g>
			</g>
			<g>
				<polygon class="st2" points="319.8,244.7 319.8,261.8 304.8,263.4 304.8,246.3 				"/>
			</g>
			<g class="st0">
				<defs>
					<path id="SVGID_00000139273337278175165290000004576652012030022045_" class="st0" d="M309.3,211.6v17.1
						c-5.1,10.5-11.3,38.9-11.4,39.2v-17.1C298,250.4,304.2,222.1,309.3,211.6z"/>
				</defs>
				<clipPath id="SVGID_00000018957542916873220580000016509745072971761286_">
					<use xlink:href="#SVGID_00000139273337278175165290000004576652012030022045_"  style="overflow:visible;"/>
				</clipPath>
				<g style="clip-path:url(#SVGID_00000018957542916873220580000016509745072971761286_);enable-background:new    ;">
					<path class="st13" d="M309.3,211.6v17.1c-5.1,10.5-11.3,38.9-11.4,39.2v-17.1C298,250.4,304.2,222.1,309.3,211.6"/>
				</g>
			</g>
			<g class="st0">
				<defs>
					<path id="SVGID_00000028300983642932994740000010349747253513253512_" class="st0" d="M309.7,212.5v17.1
						c-4,8.8-9,30.4-10.4,36.7v-17.1C300.7,242.9,305.7,221.3,309.7,212.5z"/>
				</defs>
				<clipPath id="SVGID_00000140719606046028942270000009861302050265326241_">
					<use xlink:href="#SVGID_00000028300983642932994740000010349747253513253512_"  style="overflow:visible;"/>
				</clipPath>
				<g style="clip-path:url(#SVGID_00000140719606046028942270000009861302050265326241_);enable-background:new    ;">
					<path class="st2" d="M309.7,212.5v17.1c-4,8.8-9,30.4-10.4,36.7v-17.1C300.7,242.9,305.7,221.3,309.7,212.5"/>
				</g>
			</g>
			<g class="st0">
				<defs>
					<path id="SVGID_00000057830892958862440630000001338583986099169719_" class="st0" d="M304.8,246.3v17.1c-0.1,0-1.8,0.1-6,4.8
						v-17.1C303,246.4,304.7,246.3,304.8,246.3z"/>
				</defs>
				<clipPath id="SVGID_00000014596423022416092240000018132846142286020252_">
					<use xlink:href="#SVGID_00000057830892958862440630000001338583986099169719_"  style="overflow:visible;"/>
				</clipPath>
				<g style="clip-path:url(#SVGID_00000014596423022416092240000018132846142286020252_);enable-background:new    ;">
					<path class="st2" d="M304.8,246.3v17.1c0,0-0.5,0-1.4,0.6v-17.1C304.3,246.4,304.8,246.3,304.8,246.3"/>
					<path class="st2" d="M303.4,246.9V264c-0.9,0.5-2.2,1.6-4.1,3.6v-17.1C301.2,248.5,302.6,247.5,303.4,246.9"/>
					<path class="st2" d="M299.4,250.5v17.1c-0.2,0.2-0.4,0.4-0.6,0.6v-17.1C299,250.9,299.2,250.7,299.4,250.5"/>
				</g>
			</g>
			<g>
				<polygon class="st36" points="297.9,250.7 297.9,267.8 297.5,269.6 297.5,252.5 				"/>
			</g>
			<g>
				<polygon class="st2" points="298.8,251.1 298.8,268.2 297.5,269.6 297.5,252.5 				"/>
			</g>
			<g>
				<polygon class="st2" points="383.1,257.4 383.1,274.5 377.5,276.3 377.5,259.2 				"/>
			</g>
			<g>
				<polygon class="st2" points="392.7,267 392.7,284.1 386.4,286 386.4,268.9 				"/>
			</g>
			<g>
				<polygon class="st2" points="383.8,270.9 383.8,288 383.1,274.5 383.1,257.4 				"/>
			</g>
			<g>
				<polygon class="st2" points="386.4,268.9 386.4,286 383.8,288 383.8,270.9 				"/>
			</g>
			<g>
				<polygon class="st2" points="362,274 362,291.1 319.8,261.8 319.8,244.7 				"/>
			</g>
			<g>
				<polygon class="st2" points="377.5,259.2 377.5,276.3 362,291.1 362,274 				"/>
			</g>
			<g>
				<polygon class="st13" points="392.7,267 392.7,284.1 388.5,291.5 388.5,274.4 				"/>
			</g>
			<g>
				<polygon class="st2" points="394.8,265.4 394.8,282.5 389.5,291.7 389.5,274.6 				"/>
			</g>
			<g>
				<polygon class="st2" points="388.6,291.9 388.6,309 388.5,291.5 388.5,274.4 				"/>
			</g>
			<g class="st0">
				<defs>
					<path id="SVGID_00000145775234299085886140000013337417994222146183_" class="st0" d="M392.1,302v17.1c0-3.7-1-7.1-3.5-10.2
						v-17.1C391.1,294.9,392.1,298.4,392.1,302z"/>
				</defs>
				<clipPath id="SVGID_00000001637942740346340280000016668349725183426740_">
					<use xlink:href="#SVGID_00000145775234299085886140000013337417994222146183_"  style="overflow:visible;"/>
				</clipPath>
				<g style="clip-path:url(#SVGID_00000001637942740346340280000016668349725183426740_);enable-background:new    ;">
					<path class="st2" d="M392.1,302v17.1c0-3.7-1-7.1-3.5-10.2v-17.1C391.1,294.9,392.1,298.4,392.1,302"/>
				</g>
			</g>
			<g class="st0">
				<defs>
					<path id="SVGID_00000108995664092190868770000002737405958473006479_" class="st0" d="M15.9,269.9c-0.5-2.8-0.7-5.6-0.7-8.2
						l0-17.1c0,2.6,0.2,5.4,0.7,8.2c3.2,18.6,16.6,36.4,40.2,53.1c0,0.6,0,1.4,0,2c0,0.6,0,1.5,0,2.1c0,0.7,0,1.5,0,2.2
						c0,0.7,0,1.6,0,2.2c0,0.7,0,1.6,0,2.2c0,0.7,0,1.5,0,2.2c0,0.6,0,1.5,0,2.1c0,0.6,0,1.4,0,2c0-0.6,0-1.4,0-2c0-0.6,0-1.5,0-2.1
						c0-0.7,0-1.5,0-2.2c0-0.7,0-1.6,0-2.2c0-0.7,0-1.6,0-2.2c0-0.7,0-1.5,0-2.2c0-0.6,0-1.5,0-2.1c0-0.6,0-1.4,0-2
						c7.8,5.6,16.8,11,26.9,16.4l0,17.1C42.7,318.1,20.2,294.7,15.9,269.9z"/>
				</defs>
				<clipPath id="SVGID_00000007394943469017925780000015332343362847021469_">
					<use xlink:href="#SVGID_00000108995664092190868770000002737405958473006479_"  style="overflow:visible;"/>
				</clipPath>
				<g style="clip-path:url(#SVGID_00000007394943469017925780000015332343362847021469_);enable-background:new    ;">
					<path class="st11" d="M83,322.3v17.1c-40.3-21.4-62.8-44.7-67-69.5c-0.5-2.8-0.7-5.6-0.7-8.2v-17.1c0,2.6,0.2,5.4,0.7,8.2
						C20.2,277.6,42.7,301,83,322.3"/>
				</g>
			</g>
			<g class="st0">
				<defs>
					<path id="SVGID_00000043422045500056055850000008123910148360560807_" class="st0" d="M14.2,261.7l0-17.1
						c0,2.7,0.2,5.5,0.7,8.4c4.3,25.1,26.9,48.6,67.3,70.1l0,17.1c-40.4-21.4-63.1-45-67.3-70.1C14.4,267.2,14.2,264.4,14.2,261.7z"
						/>
				</defs>
				<clipPath id="SVGID_00000181798650200306683710000014732548604739681438_">
					<use xlink:href="#SVGID_00000043422045500056055850000008123910148360560807_"  style="overflow:visible;"/>
				</clipPath>
				<g style="clip-path:url(#SVGID_00000181798650200306683710000014732548604739681438_);enable-background:new    ;">
					<path class="st2" d="M82.3,323v17.1c-40.4-21.4-63.1-45-67.3-70.1c-0.5-2.9-0.7-5.7-0.7-8.4v-17.1c0,2.7,0.2,5.5,0.7,8.4
						C19.2,278,41.9,301.6,82.3,323"/>
				</g>
			</g>
			<g class="st0">
				<defs>
					<path id="SVGID_00000067939250920954121520000017749553446687434112_" class="st0" d="M377.4,349.7c0-5.7,0-11.4,0-17.1
						c1.3-1.5,14.7-17.1,14.7-30.6v17.1C392.1,332.6,378.6,348.2,377.4,349.7z"/>
				</defs>
				<clipPath id="SVGID_00000165220155823445430970000011298584477342592951_">
					<use xlink:href="#SVGID_00000067939250920954121520000017749553446687434112_"  style="overflow:visible;"/>
				</clipPath>
				<g style="clip-path:url(#SVGID_00000165220155823445430970000011298584477342592951_);enable-background:new    ;">
					<path class="st13" d="M392,302v17.1c0,5.1-1.9,10.5-4.4,15.4v-17.1C390.1,312.6,392,307.1,392,302"/>
					<path class="st29" d="M387.6,317.4v17.1c-4,7.9-9.5,14.3-10.3,15.2v-17.1C378.1,331.7,383.6,325.3,387.6,317.4"/>
				</g>
			</g>
			<g class="st0">
				<defs>
					<path id="SVGID_00000051372826262312694620000000624017202113375407_" class="st0" d="M393.1,302.1v17.1
						c0,14.2-14.3,30.3-15.1,31.2l0-17.1C378.8,332.4,393.1,316.3,393.1,302.1z"/>
				</defs>
				<clipPath id="SVGID_00000002353639462662409010000006562767277558191277_">
					<use xlink:href="#SVGID_00000051372826262312694620000000624017202113375407_"  style="overflow:visible;"/>
				</clipPath>
				<g style="clip-path:url(#SVGID_00000002353639462662409010000006562767277558191277_);enable-background:new    ;">
					<path class="st2" d="M393.1,302.1v17.1c0,5.2-1.9,10.7-4.4,15.5v-17.1C391.2,312.8,393.1,307.3,393.1,302.1"/>
					<path class="st2" d="M388.7,317.6v17.1c-4.3,8.4-10.2,15.1-10.7,15.6v-17.1C378.5,332.7,384.5,326.1,388.7,317.6"/>
				</g>
			</g>
			<g>
				<polygon class="st21" points="109.6,349.6 109.6,366.7 83,339.4 83,322.3 				"/>
			</g>
			<g>
				<polygon class="st2" points="108.6,350 108.6,367.1 82.3,340.1 82.3,323 				"/>
			</g>
			<g>
				<polygon class="st14" points="341.4,377.8 341.4,394.9 304.9,393.4 304.9,376.3 				"/>
			</g>
			<g class="st0">
				<defs>
					<path id="SVGID_00000182517489357667129470000009074117185576622261_" class="st0" d="M377.4,332.6v17.1
						c-14.7,4.1-34,41.3-36,45.2v-17.1C343.4,373.9,362.7,336.7,377.4,332.6z"/>
				</defs>
				<clipPath id="SVGID_00000099662188194306713390000000226638082616339903_">
					<use xlink:href="#SVGID_00000182517489357667129470000009074117185576622261_"  style="overflow:visible;"/>
				</clipPath>
				<g style="clip-path:url(#SVGID_00000099662188194306713390000000226638082616339903_);enable-background:new    ;">
					<path class="st11" d="M377.4,332.6v17.1c-1.3,0.4-2.7,1-4,1.9v-17.1C374.7,333.6,376,332.9,377.4,332.6"/>
					<path class="st30" d="M373.3,334.4v17.1c-2.6,1.6-5.2,4-7.8,6.8v-17.1C368.1,338.4,370.7,336,373.3,334.4"/>
					<path class="st29" d="M365.5,341.2v17.1c-11.6,12.4-22.6,33.7-24.1,36.6v-17.1C342.9,374.9,353.9,353.6,365.5,341.2"/>
				</g>
			</g>
			<g class="st0">
				<defs>
					<path id="SVGID_00000089575459033045032310000008683696030192270764_" class="st0" d="M378,333.3l0,17.1
						c-15,4.1-35.7,44.8-35.9,45.2v-17.1C342.3,378.1,363,337.4,378,333.3z"/>
				</defs>
				<clipPath id="SVGID_00000096025638636712125370000006790786400719883710_">
					<use xlink:href="#SVGID_00000089575459033045032310000008683696030192270764_"  style="overflow:visible;"/>
				</clipPath>
				<g style="clip-path:url(#SVGID_00000096025638636712125370000006790786400719883710_);enable-background:new    ;">
					<path class="st2" d="M378,333.3v17.1c-1.3,0.4-2.6,1-4,1.8v-17.1C375.4,334.3,376.7,333.6,378,333.3"/>
					<path class="st2" d="M374,335.1v17.1c-2.5,1.6-5.1,3.9-7.7,6.6v-17.1C368.9,339,371.5,336.7,374,335.1"/>
					<path class="st2" d="M366.4,341.7v17.1c-11.7,12.6-23.1,34.5-24.2,36.6v-17.1C343.3,376.3,354.6,354.3,366.4,341.7"/>
					<path class="st2" d="M342.2,378.3v17.1c0,0.1-0.1,0.1-0.1,0.2v-17.1C342.1,378.5,342.2,378.4,342.2,378.3"/>
				</g>
			</g>
			<g>
				<polygon class="st2" points="342.1,378.5 342.1,395.6 305.4,394.4 305.4,377.3 				"/>
			</g>
			<g>
				<polygon class="st13" points="304.9,376.3 304.9,393.4 302.9,410.4 302.9,393.3 				"/>
			</g>
			<g>
				<polygon class="st2" points="305.4,377.3 305.4,394.4 303.9,410.8 303.9,393.7 				"/>
			</g>
			<g>
				<polygon class="st44" points="302.9,393.3 302.9,410.4 291.4,421.6 291.4,404.5 				"/>
			</g>
			<g>
				<polygon class="st2" points="303.9,393.7 303.9,410.8 292.4,421.9 292.4,404.8 				"/>
			</g>
			<g>
				<polygon class="st21" points="123.8,412 123.8,429.1 109.6,406.7 109.6,389.6 				"/>
			</g>
			<g>
				<polygon class="st2" points="122.7,412.1 122.7,429.2 108.6,407 108.6,389.9 				"/>
			</g>
			<g>
				<polygon class="st2" points="294.9,415.9 294.9,433 291.4,429.5 291.4,412.4 				"/>
			</g>
			<g>
				<polygon class="st36" points="294.9,415.9 294.9,433 293.5,438.5 293.5,421.4 				"/>
			</g>
			<g>
				<polygon class="st2" points="296,415.7 296,432.8 294.7,437.8 294.7,420.7 				"/>
			</g>
			<g>
				<polygon class="st2" points="298.2,422.6 298.2,439.7 293.5,438.5 293.5,421.4 				"/>
			</g>
			<g>
				<polygon class="st2" points="123.8,412 123.8,429.1 118.6,440.9 118.6,423.8 				"/>
			</g>
			<g>
				<polygon class="st2" points="118.6,423.8 118.6,440.9 93.5,459.8 93.5,442.7 				"/>
			</g>
			<g>
				<polygon class="st21" points="93.8,460 93.8,477.1 93.5,459.8 93.5,442.7 				"/>
			</g>
			<g>
				<polygon class="st2" points="92.8,460.4 92.8,477.5 92.5,459.3 92.5,442.2 				"/>
			</g>
			<g>
				<polygon class="st21" points="96.2,462.1 96.2,479.2 93.8,477.1 93.8,460 				"/>
			</g>
			<g>
				<polygon class="st2" points="95.2,462.5 95.2,479.6 92.8,477.5 92.8,460.4 				"/>
			</g>
			<g>
				<polygon class="st45" points="298.2,422.6 298.2,439.7 297,485.7 297,468.6 				"/>
			</g>
			<g>
				<polygon class="st46" points="297,468.6 297,485.7 290.6,486.4 290.6,469.3 				"/>
			</g>
			<g>
				<polygon class="st2" points="299.2,421.9 299.2,439 297.9,486.6 297.9,469.5 				"/>
			</g>
			<g>
				<polygon class="st2" points="297.9,469.5 297.9,486.6 291.6,487.2 291.6,470.1 				"/>
			</g>
			<g class="st0">
				<defs>
					<path id="SVGID_00000132073536589920632440000012242383350312958634_" class="st0" d="M211,492.9c0-0.2,0-0.5,0-0.7
						c0-0.2,0-0.5,0-0.7c0-0.2,0-0.5,0-0.7c0-0.2,0-0.5,0-0.8c0-0.2,0-0.5,0-0.7c0-0.2,0-0.5,0-0.7c0-0.2,0-0.5,0-0.7
						c0-0.2,0-0.5,0-0.7c0-0.4,0-0.9,0-1.3c0-0.4,0-1,0-1.4c0-0.4,0-1,0-1.5c0-0.4,0-1,0-1.5c0-0.4,0-1,0-1.5c0-0.4,0-1,0-1.5
						c0-0.4,0-1,0-1.4c0-0.4,0-0.9,0-1.3c1.5-1.1,3-2.2,4.4-3.5l0,17.1C213.9,490.7,212.5,491.8,211,492.9z"/>
				</defs>
				<clipPath id="SVGID_00000026875237172093718160000016039062087408840067_">
					<use xlink:href="#SVGID_00000132073536589920632440000012242383350312958634_"  style="overflow:visible;"/>
				</clipPath>
				<g style="clip-path:url(#SVGID_00000026875237172093718160000016039062087408840067_);enable-background:new    ;">
					<path class="st30" d="M215.3,472.4v17.1c-2.6,2.3-5.4,4.3-8.3,6.1v-17.1C209.9,476.7,212.7,474.6,215.3,472.4"/>
				</g>
			</g>
			<g class="st0">
				<defs>
					<path id="SVGID_00000011001682059348523070000006316676020215831960_" class="st0" d="M204.1,497.3c0-0.2,0-0.6,0-0.8
						c0-0.3,0-0.6,0-0.8c0-0.3,0-0.6,0-0.9c0-0.3,0-0.6,0-0.9s0-0.6,0-0.9c0-0.3,0-0.6,0-0.9c0-0.3,0-0.6,0-0.8c0-0.2,0-0.6,0-0.8
						c0-0.4,0-0.8,0-1.2c0-0.4,0-0.9,0-1.3c0-0.4,0-0.9,0-1.3c0-0.4,0-0.9,0-1.3s0-0.9,0-1.3c0-0.4,0-0.9,0-1.3c0-0.4,0-0.9,0-1.3
						c0-0.4,0-0.8,0-1.2c2.4-1.3,4.7-2.8,6.9-4.4c0,0.4,0,0.9,0,1.3c0,0.2,0,0.5,0,0.7c0,0.4,0,1,0,1.4c0,0.4,0,1,0,1.5
						c0,0.4,0,1,0,1.5c0,0.4,0,1,0,1.5c0,0.4,0,1,0,1.4c0,0.4,0,1,0,1.4c0,0.3,0,0.7,0,1c0,0.2,0,0.5,0,0.7c0,0.2,0,0.5,0,0.7
						c0,0.2,0,0.5,0,0.7c0,0.2,0,0.5,0,0.8c0,0.2,0,0.5,0,0.7c0,0.2,0,0.5,0,0.7c0,0.2,0,0.5,0,0.7c0,0.1,0,0.2,0,0.3
						C208.8,494.5,206.5,496,204.1,497.3z"/>
				</defs>
				<clipPath id="SVGID_00000110435690983394203680000007201252499651288721_">
					<use xlink:href="#SVGID_00000011001682059348523070000006316676020215831960_"  style="overflow:visible;"/>
				</clipPath>
				<g style="clip-path:url(#SVGID_00000110435690983394203680000007201252499651288721_);enable-background:new    ;">
					<path class="st30" d="M215.3,472.4v17.1c-2.6,2.3-5.4,4.3-8.3,6.1v-17.1C209.9,476.7,212.7,474.6,215.3,472.4"/>
					<path class="st11" d="M207,478.5v17.1c-16.1,9.9-36.1,13-54.9,13c-24.8,0-47.5-5.4-55.1-7.4v-17.1c7.6,2,30.3,7.4,55.1,7.4
						C170.9,491.5,190.9,488.4,207,478.5"/>
				</g>
			</g>
			<g class="st0">
				<defs>
					<path id="SVGID_00000039131939756776882830000014062102625964561543_" class="st0" d="M199.4,499.7c0-0.1,0-0.2,0-0.3
						c0-0.1,0-0.2,0-0.3c0-0.1,0-0.2,0-0.3c0-0.1,0-0.2,0-0.3c0-0.1,0-0.2,0-0.3c0-0.1,0-0.2,0-0.3c0-0.1,0-0.2,0-0.3
						c0-0.1,0-0.2,0-0.3c0-0.5,0-1.2,0-1.7c0-0.5,0-1.3,0-1.8c0-0.6,0-1.3,0-1.9c0-0.6,0-1.4,0-1.9c0-0.6,0-1.4,0-1.9
						c0-0.6,0-1.3,0-1.9c0-0.5,0-1.3,0-1.8c0-0.5,0-1.2,0-1.7c1.6-0.7,3.2-1.5,4.7-2.4c0,0.4,0,0.8,0,1.2c0,0.4,0,0.9,0,1.3
						c0,0.4,0,0.9,0,1.3c0,0.4,0,0.9,0,1.3s0,0.9,0,1.3c0,0.4,0,0.9,0,1.3c0,0.4,0,0.9,0,1.3c0,0.4,0,0.8,0,1.2c0,0.2,0,0.6,0,0.8
						c0,0.3,0,0.6,0,0.8c0,0.3,0,0.6,0,0.9c0,0.3,0,0.6,0,0.9s0,0.6,0,0.9c0,0.3,0,0.6,0,0.9c0,0.3,0,0.6,0,0.8c0,0.2,0,0.6,0,0.8
						C202.6,498.1,201,498.9,199.4,499.7z"/>
				</defs>
				<clipPath id="SVGID_00000154388521507780962400000012990213455931482526_">
					<use xlink:href="#SVGID_00000039131939756776882830000014062102625964561543_"  style="overflow:visible;"/>
				</clipPath>
				<g style="clip-path:url(#SVGID_00000154388521507780962400000012990213455931482526_);enable-background:new    ;">
					<path class="st11" d="M207,478.5v17.1c-16.1,9.9-36.1,13-54.9,13c-24.8,0-47.5-5.4-55.1-7.4v-17.1c7.6,2,30.3,7.4,55.1,7.4
						C170.9,491.5,190.9,488.4,207,478.5"/>
				</g>
			</g>
			<g>
				<polygon class="st21" points="97,484.2 97,501.3 96.2,479.2 96.2,462.1 				"/>
			</g>
			<g>
				<polygon class="st2" points="96.4,485 96.4,502.1 95.2,479.6 95.2,462.5 				"/>
			</g>
			<g class="st0">
				<defs>
					<path id="SVGID_00000145058206468395177510000013258296039809504676_" class="st0" d="M97.1,501.3
						C97.1,501.3,97.1,501.2,97.1,501.3C97.1,501.2,97.1,501.2,97.1,501.3c0-0.1,0-0.1,0-0.1c0,0,0,0,0,0c0,0,0,0,0,0c0,0,0,0,0,0
						c0,0,0,0,0,0c0,0,0,0,0,0c0-0.6,0-1.4,0-2c0-0.6,0-1.5,0-2.1c0-0.7,0-1.5,0-2.2c0-0.7,0-1.5,0-2.2c0-0.7,0-1.5,0-2.2
						c0-0.6,0-1.5,0-2.2c0-0.6,0-1.5,0-2.1c0-0.6,0-1.4,0-2c1.9,0.5,4.7,1.2,8.3,2c0,0.6,0,1.4,0,2c0,0.6,0,1.5,0,2.1
						c0,0.7,0,1.5,0,2.2c0,0.7,0,1.6,0,2.2c0,0.7,0,1.6,0,2.2c0,0.7,0,1.5,0,2.2c0,0.6,0,1.5,0,2.1c0,0.6,0,1.4,0,2c0,0,0,0,0,0
						c0,0,0,0,0,0c0,0,0,0,0,0c0,0,0,0,0,0c0,0,0,0,0,0c0,0,0,0,0,0c0,0,0,0,0,0c0,0,0,0,0,0C101.8,502.5,99,501.8,97.1,501.3z"/>
				</defs>
				<clipPath id="SVGID_00000087397899143810272410000009315464683293580189_">
					<use xlink:href="#SVGID_00000145058206468395177510000013258296039809504676_"  style="overflow:visible;"/>
				</clipPath>
				<g style="clip-path:url(#SVGID_00000087397899143810272410000009315464683293580189_);enable-background:new    ;">
					<path class="st11" d="M207,478.5v17.1c-16.1,9.9-36.1,13-54.9,13c-24.8,0-47.5-5.4-55.1-7.4v-17.1c7.6,2,30.3,7.4,55.1,7.4
						C170.9,491.5,190.9,488.4,207,478.5"/>
				</g>
			</g>
			<g>
				<polygon class="st13" points="290.6,469.3 290.6,486.4 289.5,503.5 289.5,486.4 				"/>
			</g>
			<g>
				<polygon class="st2" points="291.6,470.1 291.6,487.2 290.5,503.4 290.5,486.3 				"/>
			</g>
			<g class="st0">
				<defs>
					<path id="SVGID_00000008871776330229200210000008901514042257470119_" class="st0" d="M186.4,504.4c0-0.1,0-0.1,0-0.2
						c0-0.1,0-0.1,0-0.2c0-0.1,0-0.1,0-0.2c0-0.1,0-0.1,0-0.2c0-0.1,0-0.1,0-0.2c0-0.1,0-0.1,0-0.2c0-0.1,0-0.1,0-0.2
						c0-0.1,0-0.1,0-0.2c0-0.5,0-1.3,0-1.8c0-0.6,0-1.4,0-1.9c0-0.6,0-1.4,0-2c0-0.6,0-1.4,0-2c0-0.6,0-1.4,0-2c0-0.6,0-1.4,0-2
						c0-0.6,0-1.4,0-1.9c0-0.5,0-1.3,0-1.8c4.5-1.2,8.9-2.8,13.1-4.8c0,0.5,0,1.2,0,1.7c0,0.5,0,1.3,0,1.8c0,0.6,0,1.3,0,1.9
						c0,0.6,0,1.4,0,1.9c0,0.6,0,1.4,0,1.9c0,0.6,0,1.3,0,1.9c0,0.5,0,1.3,0,1.8c0,0.5,0,1.2,0,1.7c0,0.1,0,0.2,0,0.3
						c0,0.1,0,0.2,0,0.3c0,0.1,0,0.2,0,0.3c0,0.1,0,0.2,0,0.3c0,0.1,0,0.2,0,0.3c0,0.1,0,0.2,0,0.3c0,0.1,0,0.2,0,0.3
						c0,0.1,0,0.2,0,0.3C195.2,501.6,190.8,503.2,186.4,504.4z"/>
				</defs>
				<clipPath id="SVGID_00000073723404874067868980000000612112211087474054_">
					<use xlink:href="#SVGID_00000008871776330229200210000008901514042257470119_"  style="overflow:visible;"/>
				</clipPath>
				<g style="clip-path:url(#SVGID_00000073723404874067868980000000612112211087474054_);enable-background:new    ;">
					<path class="st11" d="M207,478.5v17.1c-16.1,9.9-36.1,13-54.9,13c-24.8,0-47.5-5.4-55.1-7.4v-17.1c7.6,2,30.3,7.4,55.1,7.4
						C170.9,491.5,190.9,488.4,207,478.5"/>
				</g>
			</g>
			<g class="st0">
				<defs>
					<path id="SVGID_00000012465777651868793650000014053481603370825151_" class="st0" d="M185.1,504.7
						C185.1,504.7,185.1,504.7,185.1,504.7c0-0.1,0-0.1,0-0.1c0,0,0-0.1,0-0.1c0,0,0-0.1,0-0.1s0-0.1,0-0.1c0,0,0-0.1,0-0.1
						c0,0,0-0.1,0-0.1c0,0,0,0,0-0.1c0-0.6,0-1.3,0-1.9c0-0.6,0-1.4,0-2c0-0.6,0-1.5,0-2.1c0-0.6,0-1.5,0-2.2c0-0.6,0-1.5,0-2.2
						c0-0.6,0-1.5,0-2.1c0-0.6,0-1.4,0-2c0-0.6,0-1.3,0-1.9c0.4-0.1,0.8-0.2,1.2-0.3c0,0.5,0,1.3,0,1.8c0,0.6,0,1.4,0,1.9
						c0,0.6,0,1.4,0,2c0,0.6,0,1.4,0,2c0,0.6,0,1.4,0,2c0,0.6,0,1.4,0,2c0,0.6,0,1.4,0,1.9c0,0.5,0,1.3,0,1.8c0,0.1,0,0.1,0,0.2
						c0,0.1,0,0.1,0,0.2c0,0.1,0,0.1,0,0.2c0,0.1,0,0.1,0,0.2c0,0.1,0,0.1,0,0.2c0,0.1,0,0.1,0,0.2c0,0.1,0,0.1,0,0.2
						c0,0.1,0,0.1,0,0.2C185.9,504.5,185.5,504.6,185.1,504.7z"/>
				</defs>
				<clipPath id="SVGID_00000104708659047242716230000014130955628590149789_">
					<use xlink:href="#SVGID_00000012465777651868793650000014053481603370825151_"  style="overflow:visible;"/>
				</clipPath>
				<g style="clip-path:url(#SVGID_00000104708659047242716230000014130955628590149789_);enable-background:new    ;">
					<path class="st11" d="M207,478.5v17.1c-16.1,9.9-36.1,13-54.9,13c-24.8,0-47.5-5.4-55.1-7.4v-17.1c7.6,2,30.3,7.4,55.1,7.4
						C170.9,491.5,190.9,488.4,207,478.5"/>
				</g>
			</g>
			<g class="st0">
				<defs>
					<path id="SVGID_00000117652409142654095340000006920322427731458220_" class="st0" d="M185.1,504.7c-5.3,1.4-10.7,2.3-16.1,2.9
						c0-0.6,0-1.4,0-2c0-0.3,0-0.7,0-1c0-0.6,0-1.5,0-2.2c0-0.7,0-1.6,0-2.2c0-0.7,0-1.6,0-2.2c0-0.7,0-1.6,0-2.2c0-0.6,0-1.5,0-2.2
						c0-0.6,0-1.4,0-2.1c0-0.3,0-0.7,0-1c5.4-0.6,10.8-1.6,16.1-2.9c0,0.6,0,1.3,0,1.9c0,0.6,0,1.4,0,2c0,0.6,0,1.5,0,2.1
						c0,0.6,0,1.5,0,2.2c0,0.6,0,1.5,0,2.2c0,0.6,0,1.5,0,2.1c0,0.6,0,1.4,0,2c0,0.6,0,1.3,0,1.9c0,0,0,0,0,0.1c0,0,0,0.1,0,0.1
						c0,0,0,0.1,0,0.1c0,0,0,0.1,0,0.1s0,0.1,0,0.1c0,0,0,0.1,0,0.1C185.1,504.6,185.1,504.6,185.1,504.7
						C185.1,504.7,185.1,504.7,185.1,504.7z"/>
				</defs>
				<clipPath id="SVGID_00000076602358750718688920000012736102637802795169_">
					<use xlink:href="#SVGID_00000117652409142654095340000006920322427731458220_"  style="overflow:visible;"/>
				</clipPath>
				<g style="clip-path:url(#SVGID_00000076602358750718688920000012736102637802795169_);enable-background:new    ;">
					<path class="st11" d="M207,478.5v17.1c-16.1,9.9-36.1,13-54.9,13c-24.8,0-47.5-5.4-55.1-7.4v-17.1c7.6,2,30.3,7.4,55.1,7.4
						C170.9,491.5,190.9,488.4,207,478.5"/>
				</g>
			</g>
			<g class="st0">
				<defs>
					<path id="SVGID_00000079470013317440827410000008050232370042042802_" class="st0" d="M105.3,503.2
						C105.3,503.2,105.3,503.2,105.3,503.2C105.3,503.2,105.3,503.2,105.3,503.2C105.3,503.2,105.3,503.2,105.3,503.2
						C105.3,503.2,105.3,503.2,105.3,503.2C105.3,503.2,105.3,503.2,105.3,503.2C105.3,503.2,105.3,503.2,105.3,503.2
						C105.3,503.2,105.3,503.2,105.3,503.2C105.3,503.2,105.3,503.2,105.3,503.2c0-0.4,0-0.8,0-1.1c0-0.6,0-1.4,0-2.1
						c0-0.6,0-1.5,0-2.2c0-0.7,0-1.5,0-2.2c0-0.7,0-1.6,0-2.2c0-0.7,0-1.5,0-2.2c0-0.6,0-1.5,0-2.1c0-0.6,0-1.4,0-2c0-0.3,0-0.7,0-1
						c0,0,0,0,0.1,0c0,0.6,0,1.4,0,2c0,0.6,0,1.5,0,2.1c0,0.7,0,1.5,0,2.2c0,0.7,0,1.6,0,2.2c0,0.7,0,1.6,0,2.2c0,0.7,0,1.5,0,2.2
						c0,0.6,0,1.5,0,2.1C105.4,501.8,105.4,502.6,105.3,503.2c0.1-0.7,0.1-1.5,0.1-2.1c0-0.6,0-1.5,0-2.1c0-0.7,0-1.5,0-2.2
						c0-0.7,0-1.6,0-2.2c0-0.7,0-1.6,0-2.2c0-0.7,0-1.5,0-2.2c0-0.6,0-1.5,0-2.1c0-0.6,0-1.4,0-2c3.6,0.8,7.9,1.6,12.7,2.4
						c0,0.6,0,1.4,0,2c0,0.6,0,1.5,0,2.1c0,0.7,0,1.5,0,2.2c0,0.7,0,1.6,0,2.2c0,0.7,0,1.6,0,2.2c0,0.7,0,1.5,0,2.2
						c0,0.6,0,1.5,0,2.1c0,0.6,0,1.4,0,2c0-0.6,0-1.4,0-2c0-0.6,0-1.5,0-2.1c0-0.7,0-1.5,0-2.2c0-0.7,0-1.6,0-2.2c0-0.7,0-1.6,0-2.2
						c0-0.7,0-1.5,0-2.2c0-0.6,0-1.5,0-2.1c0-0.6,0-1.4,0-2c0,0,0.1,0,0.1,0c0,0.6,0,1.4,0,2c0,0.6,0,1.5,0,2.1c0,0.7,0,1.5,0,2.2
						c0,0.7,0,1.6,0,2.2c0,0.7,0,1.6,0,2.2c0,0.7,0,1.5,0,2.2c0,0.6,0,1.5,0,2.1c0,0.6,0,1.4,0,2c0-0.6,0-1.4,0-2c0-0.6,0-1.5,0-2.1
						c0-0.7,0-1.5,0-2.2c0-0.7,0-1.6,0-2.2c0-0.7,0-1.6,0-2.2c0-0.7,0-1.5,0-2.2c0-0.6,0-1.5,0-2.1c0-0.6,0-1.4,0-2
						c4.8,0.8,10.2,1.5,15.9,2c0,0.6,0,1.4,0,2c0,0.6,0,1.5,0,2.1c0,0.7,0,1.5,0,2.2c0,0.7,0,1.6,0,2.2c0,0.7,0,1.6,0,2.2
						c0,0.7,0,1.5,0,2.2c0,0.6,0,1.5,0,2.1c0,0.6,0,1.4,0,2c0-0.6,0-1.4,0-2c0-0.3,0-0.7,0-1c0-0.6,0-1.5,0-2.2c0-0.7,0-1.6,0-2.2
						c0-0.7,0-1.6,0-2.2c0-0.7,0-1.6,0-2.2c0-0.6,0-1.5,0-2.2c0-0.6,0-1.4,0-2.1c0-0.3,0-0.7,0-1c0,0,0.1,0,0.1,0c0,0.6,0,1.4,0,2
						c0,0.6,0,1.5,0,2.1c0,0.7,0,1.5,0,2.2c0,0.7,0,1.6,0,2.2c0,0.7,0,1.6,0,2.2c0,0.7,0,1.5,0,2.2c0,0.6,0,1.5,0,2.1
						c0,0.6,0,1.4,0,2c0-0.6,0-1.4,0-2c0-0.6,0-1.5,0-2.1c0-0.7,0-1.5,0-2.2c0-0.7,0-1.6,0-2.2c0-0.7,0-1.6,0-2.2c0-0.7,0-1.5,0-2.2
						c0-0.6,0-1.5,0-2.1c0-0.6,0-1.4,0-2c5.7,0.5,11.7,0.9,17.9,0.9c0,0.6,0,1.4,0,2c0,0.6,0,1.5,0,2.1c0,0.7,0,1.5,0,2.2
						c0,0.7,0,1.6,0,2.2c0,0.7,0,1.6,0,2.2c0,0.7,0,1.5,0,2.2c0,0.6,0,1.5,0,2.1c0,0.6,0,1.4,0,2c0-0.6,0-1.4,0-2c0-0.6,0-1.5,0-2.1
						c0-0.7,0-1.5,0-2.2c0-0.7,0-1.6,0-2.2c0-0.7,0-1.6,0-2.2c0-0.7,0-1.5,0-2.2c0-0.6,0-1.5,0-2.1c0-0.6,0-1.4,0-2c0,0,0.1,0,0.1,0
						c0,0.6,0,1.4,0,2c0,0.6,0,1.5,0,2.1c0,0.7,0,1.5,0,2.2c0,0.7,0,1.6,0,2.2c0,0.7,0,1.6,0,2.2c0,0.7,0,1.5,0,2.2
						c0,0.6,0,1.5,0,2.1c0,0.6,0,1.4,0,2c0-0.6,0-1.4,0-2c0-0.6,0-1.5,0-2.1c0-0.7,0-1.5,0-2.2c0-0.7,0-1.6,0-2.2c0-0.7,0-1.6,0-2.2
						c0-0.7,0-1.5,0-2.2c0-0.6,0-1.5,0-2.1c0-0.6,0-1.4,0-2c5.5,0,11.2-0.3,16.8-0.9c0,0.6,0,1.4,0,2c0,0.6,0,1.5,0,2.1
						c0,0.7,0,1.5,0,2.2c0,0.7,0,1.6,0,2.2s0,1.6,0,2.2c0,0.7,0,1.5,0,2.2c0,0.6,0,1.5,0,2.1c0,0.6,0,1.4,0,2c0-0.6,0-1.4,0-2
						c0-0.3,0-0.7,0-1c0-0.6,0-1.5,0-2.2c0-0.7,0-1.5,0-2.2c0-0.7,0-1.6,0-2.2c0-0.7,0-1.5,0-2.2c0-0.6,0-1.5,0-2.2
						c0-0.6,0-1.4,0-2.1c0-0.3,0-0.7,0-1c0,0,0.1,0,0.1,0c0,0.6,0,1.4,0,2c0,0.6,0,1.5,0,2.1c0,0.7,0,1.5,0,2.2c0,0.7,0,1.6,0,2.2
						s0,1.6,0,2.2c0,0.7,0,1.5,0,2.2c0,0.6,0,1.5,0,2.1c0,0.6,0,1.4,0,2c-5.7,0.6-11.4,0.9-17,0.9
						C133.5,508.6,116.1,505.6,105.3,503.2z"/>
				</defs>
				<clipPath id="SVGID_00000128456930172631559640000015031131389542598281_">
					<use xlink:href="#SVGID_00000079470013317440827410000008050232370042042802_"  style="overflow:visible;"/>
				</clipPath>
				<g style="clip-path:url(#SVGID_00000128456930172631559640000015031131389542598281_);enable-background:new    ;">
					<path class="st11" d="M207,478.5v17.1c-16.1,9.9-36.1,13-54.9,13c-24.8,0-47.5-5.4-55.1-7.4v-17.1c7.6,2,30.3,7.4,55.1,7.4
						C170.9,491.5,190.9,488.4,207,478.5"/>
				</g>
			</g>
			<g class="st0">
				<defs>
					<path id="SVGID_00000049904853341804266960000011700676971254650549_" class="st0" d="M215,473.4v17.1
						c-16.6,14.8-40.6,19.1-62.9,19.1c-25.4,0-48.4-5.5-55.7-7.5l0-17.1c7.3,1.9,30.3,7.5,55.7,7.5
						C174.3,492.4,198.4,488.1,215,473.4z"/>
				</defs>
				<clipPath id="SVGID_00000177444750439532020630000008763170806152087185_">
					<use xlink:href="#SVGID_00000049904853341804266960000011700676971254650549_"  style="overflow:visible;"/>
				</clipPath>
				<g style="clip-path:url(#SVGID_00000177444750439532020630000008763170806152087185_);enable-background:new    ;">
					<path class="st2" d="M215,473.4v17.1c-2.7,2.4-5.5,4.5-8.5,6.3v-17.1C209.4,477.8,212.3,475.7,215,473.4"/>
					<path class="st2" d="M206.4,479.7v17.1c-15.7,9.7-35.7,12.7-54.4,12.7c-25.4,0-48.4-5.5-55.7-7.5V485
						c7.3,1.9,30.3,7.5,55.7,7.5C170.8,492.4,190.7,489.4,206.4,479.7"/>
				</g>
			</g>
			<g>
				<polygon class="st2" points="293.2,493.2 293.2,510.3 289.5,503.6 289.5,486.5 				"/>
			</g>
			<g>
				<polygon class="st21" points="258.6,516.1 258.6,533.2 215.3,489.5 215.3,472.4 				"/>
			</g>
			<g>
				<polygon class="st2" points="257.6,516.4 257.6,533.5 215,490.5 215,473.4 				"/>
			</g>
			<g>
				<polygon class="st21" points="258.9,528.1 258.9,545.2 258.6,533.2 258.6,516.1 				"/>
			</g>
			<g>
				<polygon class="st2" points="294.2,528.4 294.2,545.5 293.2,510.3 293.2,493.2 				"/>
			</g>
			<g>
				<polygon class="st2" points="257.9,528.8 257.9,545.9 257.6,533.5 257.6,516.4 				"/>
			</g>
			<g>
				<polygon class="st21" points="270.8,531.4 270.8,548.5 258.9,545.2 258.9,528.1 				"/>
			</g>
			<g>
				<path class="st56" d="M157.8,0.3c0.2,0.1,0.8,0.5,1.9,2.2l8.8,14.8c0.6,0.9,1.2,1.3,1.9,1.3c0.8,0,1.5-0.5,2.3-1.6l3.8-5.3
					l10.9,6.4c0.7,0.5,1.1,1.1,1.4,1.9c2.7,6.5,6.9,10.3,12.4,11.4c1.1,0.2,2.3,0.3,3.4,0.3c13.7,0,29.5-14.2,31.3-15.8l14.4-0.3
					c23,4,37.3,18.4,42.6,42.7c3.6,16.7,1.4,32.6,1,35.3l-4.5,0.1c-1.4,13.2,4.3,22.8,4.3,22.9c32.5,17.3,27.3,57.5,27.3,57.9
					c1.5,7.4-9.4,34.7-11.6,37c-5.1,10.5-11.3,38.9-11.4,39.2l-0.4,1.8l1.3-1.4c4.2-4.7,5.9-4.8,6-4.8l14.9-1.6L362,274l15.5-14.9
					l5.6-1.8l0.7,13.5l2.6-2l6.3-1.9l-4.2,7.4v17.4c11.8,14.2-9.5,39-11.2,40.8c-14.7,4.1-34,41.3-36,45.2l-36.4-1.5l-2,16.9
					l-11.5,11.2v7.9l3.5,3.6l-1.4,5.4l4.7,1.2l-1.2,46l-6.3,0.7l-1.1,17.1l3.6,6.9l1.1,35.2l-12.1,3.4l-11.4-0.4l-11.9-3.2
					l-0.3-12.1l-43.3-43.7c-17.1,14.8-41,19.1-63.3,19.1c-24.8,0-47.5-5.4-55.1-7.4l-0.8-22l-2.4-2.1l-0.3-17.3l25.1-18.9l5.3-11.8
					l-14.3-22.4v-40L83,322.3c-40.3-21.4-62.8-44.7-67-69.5c-4.3-25.1,12.4-42.6,12.6-42.8l-0.4-10.2l3.3-4.1l-0.6-10.9l-5.1-0.3
					l0.5-11.5l4.9,0.3l10.1-6.7c9.7-27.9,25.1-45.3,25.2-45.4l5.3-4.1l-7.1-8.3c-4.8-68.1,4.5-70.9,4.6-70.9
					c30.8-19.8,45.7-26.4,50.6-28.3c0.9-0.3,1.8-0.5,2.7-0.5l35.3-0.4L157.8,0.3z"/>
			</g>
			<g>
				<polygon class="st11" points="294.2,528.4 294.2,545.5 282.1,548.9 282.1,531.8 				"/>
			</g>
			<g>
				<polygon class="st14" points="282.1,531.8 282.1,548.9 270.8,548.5 270.8,531.4 				"/>
			</g>
			<g>
				<polygon class="st2" points="270.5,532.3 270.5,549.4 257.9,545.9 257.9,528.8 				"/>
			</g>
			<g>
				<polygon class="st2" points="282.2,532.7 282.2,549.8 270.5,549.4 270.5,532.3 				"/>
			</g>
			<g>
				<path class="st2" d="M389.5,274.6v16.8c12.3,15.2-10.5,40.8-11.5,41.9c-15,4.1-35.7,44.8-35.9,45.2l-36.8-1.2l-1.5,16.4
					l-11.5,11.1v7.2l3.6,3.7l-1.3,5l4.5,1.2l-1.2,47.6l-6.4,0.7l-1.1,16.2l3.6,6.8l1.1,36l-13,3.6l-11.7-0.4l-12.7-3.5l-0.3-12.4
					L215,473.4c-16.6,14.8-40.6,19.1-62.9,19.1c-25.4,0-48.4-5.5-55.7-7.5l-1.2-22.4l-2.4-2.1l-0.3-18.2l25.2-19l5-11.1l-14.1-22.2
					V350l-26.3-27c-40.4-21.4-63.1-45-67.3-70.1c-4.1-24.3,11.1-41.6,12.7-43.4l-0.5-10l3.3-4.1l-0.5-9.7l-5.2-0.3l0.6-13.4l5.5,0.3
					l9.5-6.3c9.7-27.9,25.2-45.3,25.4-45.5l4.6-3.6l-6.7-7.8c-4.7-66.7,3.7-71.8,5.3-72.2c30.5-19.7,45.5-26.3,50.5-28.3
					c1-0.4,2-0.6,3.1-0.6l34.3-0.4l0.1-7.5c1.4-1,2.2-0.5,3.7,1.8l8.8,14.8c1.3,0.9,1.8,0.6,2.5-0.4l3.8-5.3c0.4-0.6,0.7-1,1.2-1
					l11.1,7.2c0.8,0.6,1.5,1.4,1.8,2.4c2.6,6.1,6.5,9.7,11.6,10.7c1,0.2,2.1,0.3,3.2,0.3c13.8,0,30.6-15.5,30.7-15.7l15-0.4
					c29.3,5.1,39.8,26.5,43.5,43.5c3.9,18.4,1,35.8,0.9,36l-4.5,0.5c-1.1,11.5,3.6,20.3,4.2,21.4c32.1,17.1,27.7,56.5,27.5,58.5
					c0.9,4.7-3,16.4-4.7,21.3c-2.7,7.6-6.2,15.9-7.5,16.6c-4,8.8-9,30.4-10.4,36.7c3.4-3.5,5-3.8,5.5-3.8l15.3-1.6l41.9,29
					l15.1-14.4l7.1-2.3l0.7,12.9l1.3-1l8.7-2.6L389.5,274.6z M377.4,332.6c1.6-1.8,22.9-26.6,11.2-40.7l-0.1-17.5l4.2-7.4l-6.3,1.9
					l-2.6,2l-0.7-13.5l-5.6,1.8L362,274l-42.2-29.3l-14.9,1.6c-0.1,0-1.8,0.1-6,4.8l-1.3,1.4l0.4-1.8c0.1-0.3,6.3-28.7,10.8-38.8
					c2.8-2.7,13.6-30,12.1-37.2c0.1-0.5,5.2-40.8-27.1-57.9c-0.2-0.3-5.9-9.9-4.6-22.6l4.5-0.5c0.4-2.6,2.6-18.5-1-35.3
					c-5.2-24.3-19.5-38.7-42.6-42.7l-14.4,0.3c-1.8,1.7-17.6,15.8-31.3,15.8c-1.2,0-2.3-0.1-3.4-0.3c-5.5-1.1-9.7-4.9-12.4-11.4
					c-0.3-0.8-0.7-1.5-1.4-1.9l-9.7-6.6l-5,5.5c-0.8,1.1-1.5,1.6-2.2,1.6c-0.8,0-1.4-0.5-2-1.3l-8.8-14.8c-1.1-1.6-1.6-2.1-1.9-2.2
					l-0.1,8.4l-35.3,0.4c-0.9,0-1.8,0.2-2.7,0.5c-5,1.9-19.9,8.5-50.4,28.2c-0.3,0.1-9.6,3-4.8,71l7.1,8.3l-5.3,4.1
					c-0.1,0.1-15.5,17.5-25.2,45.3L31,173.3l-4.9-0.3l-0.5,11.5l5.1,0.3l0.6,10.9l-3.3,4.1l0.5,10c-0.3,0.3-17,17.9-12.7,42.9
					c4.2,24.8,26.7,48.1,66.9,69.4l26.8,27.4v40l14.3,22.4l-5.3,11.8l-25.1,18.9l0.3,17.3l2.4,2.1l0.8,22c7.6,2,30.3,7.4,55.1,7.4
					c22.2,0,46.2-4.3,62.5-19.2l44,43.7l0.3,12.1l11.9,3.2l11.4,0.4l12.1-3.4l-1.1-35.2l-3.7-6.7l1.1-17.2l6.3-0.7l1.2-46l-4.7-1.2
					l1.4-5.4l-3.5-3.6v-7.9l11.5-11.2l1.5-17l36.9,1.5C343.4,373.9,362.7,336.7,377.4,332.6"/>
			</g>
			<g>
				<polygon class="st2" points="295.3,529.1 295.3,546.2 282.2,549.8 282.2,532.7 				"/>
			</g>
		</g>
	</g>
</g>
<path class="st57" d="M213.4,474.1l1.1-28.3l5.4-5.4l-2.2-5.4c9.8-10.4,17.4-12.5,17.4-12.5v-3.8l16.9,2.2c3.3-6.5,8.2-9.3,8.2-9.3"
	/>
<path class="st57" d="M64.1,108.9l13.1-14.2l16.3-1.1c15.3-15.3,24-21.8,24-21.8l9.8,15.3l15.3,14.2l39.2,2.2
	c24,29.4,45.8,31.6,45.8,31.6c12-26.2,33.8-37.1,33.8-37.1l28.3-3.3"/>
<path class="st57" d="M187.3,111.1c-14.4,38.8,4.4,59.9,13.1,64.3l-1.1,38.1"/>
<path class="st57" d="M26.6,202.1l6.5,2.2l19.1,0.5L80,216.2l22.3,1.1c17.4-15.3,9.8,15.3,9.8,15.3c7.6,8.7,13.6,6.5,13.6,6.5
	c12,12.5,12,27.2,12,27.2l13.6,15.3l1.6-3.8l3.3,2.7l0.5-28.3l5.4,1.1l7.6-29.4l7.6,3.3l2.7,9.3l10.9-10.4l1.6-9.8l7.6-4.9l19.6,0.5
	l8.2,19.1l9.8,12l30.5,8.2l1.6,14.7l11.4,1.1l16.3-14.7"/>
<path class="st57" d="M230.9,233.7l2.2-12.5l7.1-1.1c4.9-15.8,19.6-25.6,19.6-25.6c15.8-1.6,47.4,20.2,47.4,20.2"/>
<path class="st57" d="M282.2,266.4l-14.7,27.2c7.5,38.7,15.3,56.1,18,58.8l17.4,10.4l1.1,15.8"/>
<polyline class="st57" points="82.6,324.1 81.5,266.4 100.1,245.7 100.6,238.6 106.1,235.9 110.4,238 113.7,232 "/>
<path class="st57" d="M93.5,444.6h6.5l8.2,6l21.3-1.6l10.4,7.6l19.6-0.5l13.6-24l1.6,6l19.6-2.2l2.7-3.8l4.4,1.6l1.6-5.4l3.8-1.6
	l0-9.8c-33.2-22.7-8.5-33-6-35.4l4.4-31.6l14.7,0.5l16.3-15.8l11.4,0.5l6-5.4l5.4,1.6l-1.1,6l-3.8,6.5l4.4,2.2l-1.1,6.5l6,4.9
	l-3.3,6.5c18.5,10.9,0,28.9,0,28.9c-4.9,10.9,0,18.5,0,18.5l8.2,4.9l8.2,0.5l2.7-6.5l14.2,12.5"/>
<circle class="st58" cx="195" cy="231.7" r="6.2"/>
<line class="st59" x1="191.3" y1="231.7" x2="227.2" y2="231.7"/>
<line class="st60" x1="194.8" y1="231.7" x2="0.1" y2="231.7"/>
<g>
	<path class="st61" d="M195,235.4c-2.1,0-3.8-1.7-3.8-3.8s1.7-3.8,3.8-3.8s3.8,1.7,3.8,3.8S197.1,235.4,195,235.4z"/>
</g>
<line class="st59" x1="203.1" y1="274.8" x2="239" y2="274.8"/>
<circle class="st58" cx="270.3" cy="425" r="6.2"/>
<polyline class="st60" points="270.1,425 374.4,425 374.4,436.9 "/>
<g>
	<path class="st61" d="M270.3,428.7c-2.1,0-3.8-1.7-3.8-3.8s1.7-3.8,3.8-3.8s3.8,1.7,3.8,3.8S272.4,428.7,270.3,428.7z"/>
</g>
</svg>
