<?xml version="1.0" encoding="utf-8"?>
<!-- Generator: Adobe Illustrator 25.4.1, SVG Export Plug-In . SVG Version: 6.00 Build 0)  -->
<svg version="1.1" xmlns="http://www.w3.org/2000/svg" xmlns:xlink="http://www.w3.org/1999/xlink" x="0px" y="0px"
	 viewBox="0 0 327.3 488.9" style="enable-background:new 0 0 327.3 488.9;" xml:space="preserve">
<style type="text/css">
	.st0{enable-background:new    ;}
	.st1{fill:#3F3F3F;}
	.st2{fill:#3F4040;}
	.st3{fill:#404041;}
	.st4{fill:#404040;}
	.st5{fill:#898989;}
	.st6{fill:#878787;}
	.st7{fill:#808080;}
	.st8{fill:#3F3F40;}
	.st9{fill:#8E8E8E;}
	.st10{fill:#888888;}
	.st11{fill:#464646;}
	.st12{fill:#E5E5E5;}
	.st13{fill:#919191;}
	.st14{clip-path:url(#SVGID_00000132804372362038750840000006491096289280416933_);enable-background:new    ;}
	.st15{clip-path:url(#SVGID_00000031926398285975777380000002950302265374291903_);enable-background:new    ;}
	.st16{clip-path:url(#SVGID_00000078025732675647026060000010686698708112544387_);enable-background:new    ;}
	.st17{fill:#858585;}
	.st18{clip-path:url(#SVGID_00000025433380165677800790000007562115973297745312_);enable-background:new    ;}
	.st19{clip-path:url(#SVGID_00000031892431898814680310000002957120526438950052_);enable-background:new    ;}
	.st20{fill:#949494;}
	.st21{fill:#8F8F8F;}
	.st22{fill:#8A8A8A;}
	.st23{clip-path:url(#SVGID_00000093888320676479501550000001628844142524897192_);enable-background:new    ;}
	.st24{clip-path:url(#SVGID_00000029753349644391148800000007804215778795716505_);enable-background:new    ;}
	.st25{clip-path:url(#SVGID_00000036234237475020893780000016421481639069445557_);enable-background:new    ;}
	.st26{clip-path:url(#SVGID_00000116915592912272912140000007782408525373549480_);enable-background:new    ;}
	.st27{fill:#939393;}
	.st28{fill:#929292;}
	.st29{fill:#8C8C8C;}
	.st30{fill:#8B8B8B;}
	.st31{fill:#909090;}
	.st32{fill:#868686;}
	.st33{fill:#838383;}
	.st34{fill:#818181;}
	.st35{fill:#828282;}
	.st36{clip-path:url(#SVGID_00000173871885071615367970000009246909327548138415_);enable-background:new    ;}
	.st37{clip-path:url(#SVGID_00000031175572098724604270000005866823936898799545_);enable-background:new    ;}
	.st38{clip-path:url(#SVGID_00000036958097328200636230000007937193968948746661_);enable-background:new    ;}
	.st39{clip-path:url(#SVGID_00000023267697682436910670000007398426027392830117_);enable-background:new    ;}
	.st40{clip-path:url(#SVGID_00000134223823859227181220000002964853980395973813_);enable-background:new    ;}
	.st41{clip-path:url(#SVGID_00000031908297273340164110000005688044562430286730_);enable-background:new    ;}
	.st42{clip-path:url(#SVGID_00000088817517286407259600000004149161970474896555_);enable-background:new    ;}
	.st43{clip-path:url(#SVGID_00000126305792236122042890000009968443338060725933_);enable-background:new    ;}
	.st44{clip-path:url(#SVGID_00000152967757443227060830000007448771080884531873_);enable-background:new    ;}
	.st45{clip-path:url(#SVGID_00000098201945889481136220000006760537673434195103_);enable-background:new    ;}
	.st46{clip-path:url(#SVGID_00000018921212937070896900000015462025986474082453_);enable-background:new    ;}
	.st47{clip-path:url(#SVGID_00000156584526340304499220000006036198896138285984_);enable-background:new    ;}
	.st48{clip-path:url(#SVGID_00000072254156761829027990000016663725707429390249_);enable-background:new    ;}
	.st49{clip-path:url(#SVGID_00000018196341541963799890000009109882563117779862_);enable-background:new    ;}
	.st50{clip-path:url(#SVGID_00000183248399111313106460000014875645463281414788_);enable-background:new    ;}
	.st51{clip-path:url(#SVGID_00000080896157778183483850000013288088493764861362_);enable-background:new    ;}
	.st52{clip-path:url(#SVGID_00000113312614526877585980000011606220942621321616_);enable-background:new    ;}
	.st53{clip-path:url(#SVGID_00000070083619735373936140000018440526725018080150_);enable-background:new    ;}
	.st54{clip-path:url(#SVGID_00000103264317156222480540000003746883927790073514_);enable-background:new    ;}
	.st55{clip-path:url(#SVGID_00000014603624669020640080000011697786041627919286_);enable-background:new    ;}
	.st56{clip-path:url(#SVGID_00000008854932332515549760000013038259533951832999_);enable-background:new    ;}
	.st57{clip-path:url(#SVGID_00000036227670859097675410000016909197779583479456_);enable-background:new    ;}
	.st58{clip-path:url(#SVGID_00000008108046194999546300000005148911275400651670_);enable-background:new    ;}
	.st59{clip-path:url(#SVGID_00000034773429961376580100000003220116369445888679_);enable-background:new    ;}
	.st60{clip-path:url(#SVGID_00000021825865140494991520000008508955229013265551_);enable-background:new    ;}
	.st61{clip-path:url(#SVGID_00000078729507334508434620000003778847127428038571_);enable-background:new    ;}
	.st62{clip-path:url(#SVGID_00000004543810032224082100000002170271437969499792_);enable-background:new    ;}
	.st63{clip-path:url(#SVGID_00000094580984576673507590000009685670174474056071_);enable-background:new    ;}
	.st64{clip-path:url(#SVGID_00000121277316703875601130000015430852517176796598_);enable-background:new    ;}
	.st65{clip-path:url(#SVGID_00000082349060105616048620000000061071020211579801_);enable-background:new    ;}
	.st66{clip-path:url(#SVGID_00000151541042988622094300000007006798368263538608_);enable-background:new    ;}
	.st67{clip-path:url(#SVGID_00000000191326607624760470000007538723744937441708_);enable-background:new    ;}
	.st68{clip-path:url(#SVGID_00000007416512517071351430000017568495586335939970_);enable-background:new    ;}
	.st69{clip-path:url(#SVGID_00000132068417972429968600000016614332448645289638_);enable-background:new    ;}
	.st70{clip-path:url(#SVGID_00000129196222861417664520000007296637252430975363_);enable-background:new    ;}
	.st71{fill:none;stroke:#000000;stroke-miterlimit:10;stroke-dasharray:2.6635,2.6635;}
</style>
<g id="Layer_1">
	<g>
		<g>
			<g class="st0">
				<g>
					<polygon class="st1" points="41.3,31.3 41.3,40 37.4,36.1 37.4,27.4 					"/>
				</g>
				<g>
					<polygon class="st2" points="37.4,27.4 37.4,36.1 33.8,41 33.8,32.3 					"/>
				</g>
				<g>
					<polygon class="st1" points="150.5,33.1 150.5,41.7 148.4,40.9 148.4,32.2 					"/>
				</g>
				<g>
					<polygon class="st1" points="148.4,32.2 148.4,40.9 145.5,42 145.5,33.3 					"/>
				</g>
				<g>
					<polygon class="st1" points="45.8,34.2 45.8,42.9 41.3,40 41.3,31.3 					"/>
				</g>
				<g>
					<polygon class="st1" points="48.4,36.5 48.4,45.1 45.8,42.9 45.8,34.2 					"/>
				</g>
				<g>
					<polygon class="st1" points="151.3,36.9 151.3,45.6 150.5,41.7 150.5,33.1 					"/>
				</g>
				<g>
					<polygon class="st1" points="156.1,37.7 156.1,46.4 151.3,45.6 151.3,36.9 					"/>
				</g>
				<g>
					<polygon class="st3" points="145.5,33.3 145.5,42 144.8,46.5 144.8,37.8 					"/>
				</g>
				<g>
					<polygon class="st1" points="56.4,37.9 56.4,46.6 48.4,45.1 48.4,36.5 					"/>
				</g>
				<g>
					<polygon class="st1" points="159.8,40.4 159.8,49 156.1,46.4 156.1,37.7 					"/>
				</g>
				<g>
					<polygon class="st1" points="59.7,41.8 59.7,50.5 56.4,46.6 56.4,37.9 					"/>
				</g>
				<g>
					<polygon class="st4" points="144.8,37.8 144.8,46.5 143.3,51.6 143.3,42.9 					"/>
				</g>
				<g>
					<polygon class="st5" points="159.8,40.4 159.8,49 158,51.9 158,43.2 					"/>
				</g>
				<g>
					<polygon class="st2" points="161.1,40.1 161.1,48.8 158.8,52.5 158.8,43.8 					"/>
				</g>
				<g>
					<polygon class="st2" points="33.8,32.3 33.8,41 27.2,52.7 27.2,44.1 					"/>
				</g>
				<g>
					<polygon class="st1" points="27.2,44.1 27.2,52.7 21.4,53.5 21.4,44.8 					"/>
				</g>
				<g>
					<polygon class="st6" points="158,43.2 158,51.9 156.2,54.2 156.2,45.5 					"/>
				</g>
				<g>
					<polygon class="st7" points="145.5,46 145.5,54.7 143.3,51.6 143.3,42.9 					"/>
				</g>
				<g>
					<polygon class="st8" points="158.8,43.8 158.8,52.5 157,54.7 157,46 					"/>
				</g>
				<g>
					<polygon class="st1" points="64.4,46.1 64.4,54.8 59.7,50.5 59.7,41.8 					"/>
				</g>
				<g>
					<polygon class="st1" points="144.7,46.6 144.7,55.3 142.3,51.8 142.3,43.1 					"/>
				</g>
				<g>
					<polygon class="st9" points="156.2,45.5 156.2,54.2 155.1,57.5 155.1,48.8 					"/>
				</g>
				<g>
					<polygon class="st4" points="157,46 157,54.7 156,58 156,49.3 					"/>
				</g>
				<g>
					<polygon class="st7" points="150.4,50.8 150.4,59.5 145.5,54.7 145.5,46 					"/>
				</g>
				<g>
					<polygon class="st10" points="155.1,48.8 155.1,57.5 153.5,59.7 153.5,51 					"/>
				</g>
				<g>
					<polygon class="st7" points="153.5,51 153.5,59.7 150.4,59.5 150.4,50.8 					"/>
				</g>
				<g>
					<path class="st11" d="M156.5,36.8l4.6,3.4l-2.3,3.7L157,46l-1.1,3.3l-2,2.7l-4-0.3l-5.2-5.2l-2.5-3.5l1.6-5.5l0.8-5l3.8-1.4
						l3,1.2l0.8,3.7L156.5,36.8z M158,43.2l1.8-2.8l-3.6-2.7l-4.8-0.8l-0.8-3.8l-2.1-0.8l-2.9,1.1l-0.7,4.5l-1.5,5.1l2.2,3.1
						l4.9,4.8l3.1,0.2l1.6-2.2l1.1-3.4L158,43.2"/>
				</g>
				<g>
					<polygon class="st12" points="148.4,32.2 150.5,33.1 151.3,36.9 156.1,37.7 159.8,40.4 158,43.2 156.2,45.5 155.1,48.8 
						153.5,51 150.4,50.8 145.5,46 143.3,42.9 144.8,37.8 145.5,33.3 					"/>
				</g>
				<g>
					<polygon class="st1" points="150,51.8 150,60.5 144.7,55.3 144.7,46.6 					"/>
				</g>
				<g>
					<polygon class="st8" points="21.4,44.8 21.4,53.5 12.8,60.5 12.8,51.8 					"/>
				</g>
				<g>
					<polygon class="st1" points="154,52.1 154,60.8 150,60.5 150,51.8 					"/>
				</g>
				<g>
					<polygon class="st2" points="156,49.3 156,58 154,60.8 154,52.1 					"/>
				</g>
				<g>
					<polygon class="st1" points="72,53.9 72,62.6 64.4,54.8 64.4,46.1 					"/>
				</g>
				<g>
					<polygon class="st2" points="12.8,51.8 12.8,60.5 9.9,64.4 9.9,55.7 					"/>
				</g>
				<g>
					<polygon class="st1" points="9.9,55.7 9.9,64.4 2.9,68 2.9,59.3 					"/>
				</g>
				<g>
					<polygon class="st1" points="74.2,60.1 74.2,68.8 72,62.6 72,53.9 					"/>
				</g>
				<g>
					<polygon class="st3" points="2.9,59.3 2.9,68 2.5,72.8 2.5,64.1 					"/>
				</g>
				<g>
					<polygon class="st1" points="82,66 82,74.6 74.2,68.8 74.2,60.1 					"/>
				</g>
				<g>
					<polygon class="st7" points="5.6,66.9 5.6,75.5 2.5,72.8 2.5,64.1 					"/>
				</g>
				<g>
					<polygon class="st1" points="4.6,67.3 4.6,76 1.4,73.2 1.4,64.5 					"/>
				</g>
				<g>
					<polygon class="st1" points="92.2,73.1 92.2,81.8 82,74.6 82,66 					"/>
				</g>
				<g>
					<polygon class="st3" points="5.6,71.5 5.6,80.2 5.4,86.1 5.4,77.5 					"/>
				</g>
				<g>
					<polygon class="st1" points="101,81 101,89.7 92.2,81.8 92.2,73.1 					"/>
				</g>
				<g>
					<polygon class="st4" points="5.4,77.5 5.4,86.1 3.4,90.5 3.4,81.8 					"/>
				</g>
				<g>
					<polygon class="st1" points="105.1,82.9 105.1,91.6 101,89.7 101,81 					"/>
				</g>
				<g>
					<polygon class="st8" points="3.4,81.8 3.4,90.5 1.9,92.2 1.9,83.6 					"/>
				</g>
				<g>
					<polygon class="st7" points="2.1,88.9 2.1,97.6 1.9,92.2 1.9,83.6 					"/>
				</g>
				<g>
					<polygon class="st1" points="109.7,88.9 109.7,97.6 105.1,91.6 105.1,82.9 					"/>
				</g>
				<g>
					<polygon class="st1" points="1.1,89.5 1.1,98.1 0.9,91.9 0.9,83.2 					"/>
				</g>
				<g>
					<polygon class="st7" points="4.9,90.5 4.9,99.2 2.1,97.6 2.1,88.9 					"/>
				</g>
				<g>
					<polygon class="st1" points="3.9,91 3.9,99.7 1.1,98.1 1.1,89.5 					"/>
				</g>
				<g>
					<polygon class="st1" points="121.9,96.2 121.9,104.9 109.7,97.6 109.7,88.9 					"/>
				</g>
				<g>
					<polygon class="st1" points="126,100.6 126,109.3 121.9,104.9 121.9,96.2 					"/>
				</g>
				<g>
					<polygon class="st1" points="146,101.4 146,110 126,109.3 126,100.6 					"/>
				</g>
				<g>
					<polygon class="st3" points="4.9,90.5 4.9,99.2 4.4,111.9 4.4,103.2 					"/>
				</g>
				<g>
					<polygon class="st1" points="148.1,105.1 148.1,113.7 146,110 146,101.4 					"/>
				</g>
				<g>
					<polygon class="st7" points="6.8,106.4 6.8,115.1 4.4,111.9 4.4,103.2 					"/>
				</g>
				<g>
					<polygon class="st1" points="6,107 6,115.7 3.4,112.2 3.4,103.5 					"/>
				</g>
				<g>
					<polygon class="st7" points="8.5,107.9 8.5,116.6 6.8,115.1 6.8,106.4 					"/>
				</g>
				<g>
					<polygon class="st1" points="7.5,108.3 7.5,117 6,115.7 6,107 					"/>
				</g>
				<g>
					<polygon class="st1" points="153.3,109.5 153.3,118.2 148.1,113.7 148.1,105.1 					"/>
				</g>
				<g>
					<polygon class="st3" points="8.5,107.9 8.5,116.6 8.1,122.4 8.1,113.7 					"/>
				</g>
				<g>
					<polygon class="st8" points="8.1,113.7 8.1,122.4 5.5,125.2 5.5,116.5 					"/>
				</g>
				<g>
					<polygon class="st1" points="158.8,116.7 158.8,125.4 153.3,118.2 153.3,109.5 					"/>
				</g>
				<g>
					<polygon class="st3" points="5.5,116.5 5.5,125.2 4.9,134.5 4.9,125.8 					"/>
				</g>
				<g>
					<polygon class="st1" points="169.4,127.1 169.4,135.8 158.8,125.4 158.8,116.7 					"/>
				</g>
				<g>
					<polygon class="st8" points="4.9,125.8 4.9,134.5 2.2,137.7 2.2,129 					"/>
				</g>
				<g>
					<polygon class="st1" points="172.6,132.8 172.6,141.5 169.4,135.8 169.4,127.1 					"/>
				</g>
				<g>
					<polygon class="st3" points="2.2,129 2.2,137.7 1.4,145.6 1.4,137 					"/>
				</g>
				<g>
					<polygon class="st7" points="5.4,135.4 5.4,144.1 1.4,145.6 1.4,137 					"/>
				</g>
				<g>
					<polygon class="st1" points="175.1,138.5 175.1,147.1 172.6,141.5 172.6,132.8 					"/>
				</g>
				<g>
					<polygon class="st1" points="5.3,136.5 5.3,145.2 0.3,147.2 0.3,138.5 					"/>
				</g>
				<g>
					<polygon class="st7" points="13.9,140.8 13.9,149.5 5.4,144.1 5.4,135.4 					"/>
				</g>
				<g>
					<polygon class="st1" points="12.8,141.3 12.8,150 5.3,145.2 5.3,136.5 					"/>
				</g>
				<g>
					<polygon class="st3" points="13.9,140.8 13.9,149.5 13.4,153.3 13.4,144.6 					"/>
				</g>
				<g>
					<polygon class="st1" points="175.5,145.1 175.5,153.8 175.1,147.1 175.1,138.5 					"/>
				</g>
				<g>
					<polygon class="st3" points="176.5,145.2 176.5,153.8 175.8,158.5 175.8,149.8 					"/>
				</g>
				<g>
					<polygon class="st13" points="175.5,145.1 175.5,153.8 174.7,159.3 174.7,150.7 					"/>
				</g>
				<g>
					<polygon class="st1" points="178.1,151.1 178.1,159.8 174.7,159.3 174.7,150.7 					"/>
				</g>
				<g>
					<polygon class="st4" points="13.4,144.6 13.4,153.3 10.6,159.8 10.6,151.2 					"/>
				</g>
				<g>
					<polygon class="st1" points="183,152.8 183,161.5 178.1,159.8 178.1,151.1 					"/>
				</g>
				<g>
					<polygon class="st3" points="10.6,151.2 10.6,159.8 10.3,163.4 10.3,154.7 					"/>
				</g>
				<g>
					<polygon class="st2" points="10.3,154.7 10.3,163.4 8.8,165.6 8.8,156.9 					"/>
				</g>
				<g>
					<polygon class="st1" points="187.3,158.1 187.3,166.7 183,161.5 183,152.8 					"/>
				</g>
				<g>
					<polygon class="st4" points="8.8,156.9 8.8,165.6 6.7,169.9 6.7,161.2 					"/>
				</g>
				<g>
					<polygon class="st4" points="6.7,161.2 6.7,169.9 5.3,173.7 5.3,165 					"/>
				</g>
				<g>
					<polygon class="st1" points="190.1,165.5 190.1,174.2 187.3,166.7 187.3,158.1 					"/>
				</g>
				<g class="st0">
					<g>
						<defs>
							<path id="SVGID_1_" d="M206.3,177.9v-8.7c0-0.6,0.2-1.2,0.7-2c0.3-0.5,0.6-0.9,1-1.2c0.4-0.4,0.8-0.9,1.2-1.5
								c0.2-0.4,0.3-0.8,0.4-1.2c0.2-0.7,0.3-1,1.1-1.1v8.7c-0.8,0-0.9,0.4-1.1,1.1c-0.1,0.4-0.2,0.8-0.4,1.2
								c-0.4,0.6-0.8,1.1-1.2,1.5c-0.4,0.4-0.7,0.8-1,1.2C206.5,176.7,206.3,177.3,206.3,177.9z"/>
						</defs>
						<clipPath id="SVGID_00000067214566534438445840000014810829436723422635_">
							<use xlink:href="#SVGID_1_"  style="overflow:visible;"/>
						</clipPath>
						<g style="clip-path:url(#SVGID_00000067214566534438445840000014810829436723422635_);enable-background:new    ;">
							<path class="st8" d="M210.6,162.2v8.7c-0.4,0-0.7,0.1-0.8,0.3v-8.7C210,162.3,210.2,162.2,210.6,162.2"/>
							<path class="st2" d="M209.8,162.5v8.7c0,0-0.1,0.1-0.1,0.2v-8.7C209.8,162.6,209.8,162.6,209.8,162.5"/>
							<path class="st4" d="M209.7,162.7v8.7c-0.1,0.2-0.1,0.4-0.2,0.6c-0.1,0.3-0.2,0.6-0.3,1v-8.7c0.2-0.3,0.2-0.7,0.3-1
								C209.6,163,209.7,162.8,209.7,162.7"/>
							<path class="st2" d="M209.2,164.3v8.7c0,0.1-0.1,0.1-0.1,0.2c-0.2,0.3-0.3,0.5-0.5,0.8v-8.7c0.2-0.2,0.4-0.5,0.5-0.8
								C209.2,164.4,209.2,164.3,209.2,164.3"/>
							<path class="st8" d="M208.6,165.2v8.7c-0.2,0.3-0.5,0.5-0.7,0.8c-0.2,0.2-0.4,0.5-0.6,0.7v-8.7c0.2-0.3,0.4-0.5,0.6-0.7
								C208.2,165.8,208.4,165.5,208.6,165.2"/>
							<path class="st2" d="M207.3,166.7v8.7c-0.1,0.2-0.3,0.3-0.4,0.5s-0.2,0.4-0.3,0.6v-8.7c0.1-0.2,0.2-0.4,0.3-0.6
								C207,167.1,207.2,166.9,207.3,166.7"/>
							<path class="st4" d="M206.6,167.9v8.7c-0.1,0.3-0.2,0.5-0.3,0.8v-8.7C206.4,168.4,206.5,168.1,206.6,167.9"/>
							<path class="st3" d="M206.3,168.6v8.7c0,0.2-0.1,0.4-0.1,0.6v-8.7C206.3,169,206.3,168.8,206.3,168.6"/>
						</g>
					</g>
				</g>
				<g class="st0">
					<g>
						<defs>
							<path id="SVGID_00000168090529860517508940000009865414694882652856_" d="M214.9,171.9v8.7c0-0.9-0.2-1.9-0.5-2.9
								c-0.2-0.7-0.4-1.5-0.4-2.2c-0.4-3.4-1.3-3.8-3.3-4.6v-8.7c1.9,0.8,2.9,1.2,3.3,4.6c0.1,0.7,0.3,1.4,0.4,2.2
								C214.6,170,214.9,170.9,214.9,171.9z"/>
						</defs>
						<clipPath id="SVGID_00000076590776286729011180000009729079753304712101_">
							<use xlink:href="#SVGID_00000168090529860517508940000009865414694882652856_"  style="overflow:visible;"/>
						</clipPath>
						<g style="clip-path:url(#SVGID_00000076590776286729011180000009729079753304712101_);enable-background:new    ;">
							<path class="st8" d="M214.9,171.9v8.7c0-0.9-0.2-1.9-0.5-2.9c-0.2-0.7-0.4-1.5-0.4-2.2c-0.4-3.4-1.3-3.8-3.3-4.6v-8.7
								c1.9,0.8,2.9,1.2,3.3,4.6c0.1,0.7,0.3,1.4,0.4,2.2C214.6,170,214.9,170.9,214.9,171.9"/>
						</g>
					</g>
				</g>
				<g>
					<polygon class="st1" points="191.6,172 191.6,180.6 190.1,174.2 190.1,165.5 					"/>
				</g>
				<g>
					<polygon class="st7" points="9.2,172 9.2,180.7 5.3,173.7 5.3,165 					"/>
				</g>
				<g>
					<polygon class="st1" points="8.2,172.2 8.2,180.9 4.2,173.8 4.2,165.1 					"/>
				</g>
				<g class="st0">
					<g>
						<defs>
							<path id="SVGID_00000107548494745372244430000018346056957286490530_" d="M208.7,181.3c-1.5-1.1-2.5-2.2-2.5-3.4v-8.7
								c0,1.3,1,2.3,2.5,3.4l0,0c0,0.3,0,0.7,0,1s0,0.7,0,1s0,0.8,0,1.1c0,0.3,0,0.8,0,1.1c0,0.3,0,0.8,0,1.1c0,0.3,0,0.8,0,1.1
								c0,0.3,0,0.7,0,1s0,0.7,0,1l0,0l0,0l0,0l0,0C208.7,181.2,208.7,181.2,208.7,181.3C208.7,181.2,208.7,181.3,208.7,181.3
								L208.7,181.3L208.7,181.3L208.7,181.3z"/>
						</defs>
						<clipPath id="SVGID_00000146464633618464627600000000717166788951339182_">
							<use xlink:href="#SVGID_00000107548494745372244430000018346056957286490530_"  style="overflow:visible;"/>
						</clipPath>
						<g style="clip-path:url(#SVGID_00000146464633618464627600000000717166788951339182_);enable-background:new    ;">
							<path class="st17" d="M214.1,174.2v8.7l0,0c-0.5,0.6-1,0.9-1.5,1h-0.1c-0.9,0-1.8-0.8-2.7-1.6c-0.4-0.3-0.7-0.7-1.1-0.9
								c-1.5-1.1-2.5-2.2-2.5-3.4v-8.7c0,1.3,1,2.3,2.5,3.4c0.4,0.3,0.7,0.6,1.1,0.9c0.9,0.8,1.8,1.6,2.7,1.6h0.1
								C213.1,175.1,213.6,174.8,214.1,174.2L214.1,174.2"/>
						</g>
					</g>
				</g>
				<g class="st0">
					<g>
						<defs>
							<path id="SVGID_00000138545116097492467740000017749389559386972822_" d="M208.7,181.3L208.7,181.3L208.7,181.3
								c0-0.1,0-0.1,0-0.1l0,0l0,0l0,0l0,0l0,0c0-0.3,0-0.7,0-1s0-0.7,0-1s0-0.8,0-1.1c0-0.3,0-0.8,0-1.1c0-0.3,0-0.8,0-1.1
								c0-0.3,0-0.8,0-1.1c0-0.3,0-0.7,0-1s0-0.7,0-1c0.4,0.3,0.7,0.6,1.1,0.9c0,0.3,0,0.7,0,1s0,0.8,0,1.1c0,0.3,0,0.8,0,1.1
								c0,0.3,0,0.8,0,1.1c0,0.3,0,0.8,0,1.1c0,0.3,0,0.8,0,1.1c0,0.3,0,0.8,0,1.1c0,0.3,0,0.7,0,1
								C209.5,181.9,209.1,181.6,208.7,181.3z"/>
						</defs>
						<clipPath id="SVGID_00000121994081375232765550000003555184184245692071_">
							<use xlink:href="#SVGID_00000138545116097492467740000017749389559386972822_"  style="overflow:visible;"/>
						</clipPath>
						<g style="clip-path:url(#SVGID_00000121994081375232765550000003555184184245692071_);enable-background:new    ;">
							<path class="st17" d="M214.1,174.2v8.7l0,0c-0.5,0.6-1,0.9-1.5,1h-0.1c-0.9,0-1.8-0.8-2.7-1.6c-0.4-0.3-0.7-0.7-1.1-0.9
								c-1.5-1.1-2.5-2.2-2.5-3.4v-8.7c0,1.3,1,2.3,2.5,3.4c0.4,0.3,0.7,0.6,1.1,0.9c0.9,0.8,1.8,1.6,2.7,1.6h0.1
								C213.1,175.1,213.6,174.8,214.1,174.2L214.1,174.2"/>
						</g>
					</g>
				</g>
				<g>
					<path class="st12" d="M210.6,162.2c1.9,0.8,2.9,1.2,3.3,4.6c0.1,0.7,0.3,1.4,0.4,2.2c0.5,1.9,0.9,3.7-0.3,5.2
						c-0.5,0.6-1,0.9-1.5,1h-0.1c-0.9,0-1.8-0.8-2.7-1.6c-0.4-0.3-0.7-0.7-1.1-0.9c-2.2-1.7-3.2-3.1-1.8-5.4c0.3-0.5,0.6-0.9,1-1.2
						c0.4-0.4,0.8-0.9,1.2-1.5c0.2-0.4,0.3-0.8,0.4-1.2C209.7,162.6,209.8,162.3,210.6,162.2z"/>
				</g>
				<g class="st0">
					<g>
						<defs>
							<path id="SVGID_00000096743576293781812690000017596846909606570166_" d="M212.6,183.9h-0.1c0-0.3,0-0.7,0-1s0-0.8,0-1.1
								c0-0.3,0-0.8,0-1.1c0-0.3,0-0.8,0-1.1c0-0.3,0-0.8,0-1.1c0-0.3,0-0.8,0-1.1c0-0.3,0-0.8,0-1.1c0-0.3,0-0.7,0-1h0.1l0,0
								c0,0.3,0,0.7,0,1s0,0.8,0,1.1c0,0.3,0,0.8,0,1.1c0,0.3,0,0.8,0,1.1c0,0.3,0,0.8,0,1.1c0,0.3,0,0.8,0,1.1c0,0.3,0,0.8,0,1.1
								C212.6,183.1,212.6,183.5,212.6,183.9c0-0.3,0-0.7,0-1s0-0.8,0-1.1c0-0.3,0-0.8,0-1.1c0-0.3,0-0.8,0-1.1c0-0.3,0-0.8,0-1.1
								c0-0.3,0-0.8,0-1.1c0-0.3,0-0.8,0-1.1c0-0.3,0-0.7,0-1c0.5,0,1-0.4,1.5-1c0,0.3,0,0.7,0,1s0,0.8,0,1.1c0,0.3,0,0.8,0,1.1
								c0,0.3,0,0.8,0,1.1c0,0.3,0,0.8,0,1.1c0,0.3,0,0.8,0,1.1c0,0.3,0,0.8,0,1.1c0,0.3,0,0.7,0,1c0-0.3,0-0.7,0-1s0-0.8,0-1.1
								c0-0.3,0-0.8,0-1.1c0-0.3,0-0.8,0-1.1c0-0.3,0-0.8,0-1.1c0-0.3,0-0.8,0-1.1c0-0.3,0-0.8,0-1.1c0-0.3,0-0.7,0-1l0,0l0,0
								c0,0.3,0,0.7,0,1s0,0.8,0,1.1c0,0.3,0,0.8,0,1.1c0,0.3,0,0.8,0,1.1c0,0.3,0,0.8,0,1.1c0,0.3,0,0.8,0,1.1c0,0.3,0,0.8,0,1.1
								c0,0.3,0,0.7,0,1c0-0.3,0-0.7,0-1s0-0.8,0-1.1c0-0.3,0-0.8,0-1.1c0-0.3,0-0.8,0-1.1c0-0.3,0-0.8,0-1.1c0-0.3,0-0.8,0-1.1
								c0-0.3,0-0.8,0-1.1c0-0.3,0-0.7,0-1c0.6-0.7,0.8-1.5,0.8-2.3v8.7c0,0.8-0.2,1.6-0.8,2.3C213.6,183.5,213.1,183.8,212.6,183.9
								z"/>
						</defs>
						<clipPath id="SVGID_00000148656577729061266050000007801158956889706935_">
							<use xlink:href="#SVGID_00000096743576293781812690000017596846909606570166_"  style="overflow:visible;"/>
						</clipPath>
						<g style="clip-path:url(#SVGID_00000148656577729061266050000007801158956889706935_);enable-background:new    ;">
							<path class="st20" d="M214.9,171.9v8.7c0,0.3,0,0.6-0.1,0.9v-8.7C214.8,172.5,214.9,172.2,214.9,171.9"/>
							<path class="st21" d="M214.8,172.8v8.7c-0.1,0.2-0.1,0.5-0.2,0.7v-8.7C214.6,173.2,214.7,173,214.8,172.8"/>
							<path class="st22" d="M214.5,173.5v8.7c-0.1,0.2-0.3,0.5-0.4,0.7v-8.7C214.3,174,214.4,173.7,214.5,173.5"/>
							<path class="st17" d="M214.1,174.2v8.7l0,0c-0.5,0.6-1,0.9-1.5,1h-0.1c-0.9,0-1.8-0.8-2.7-1.6c-0.4-0.3-0.7-0.7-1.1-0.9
								c-1.5-1.1-2.5-2.2-2.5-3.4v-8.7c0,1.3,1,2.3,2.5,3.4c0.4,0.3,0.7,0.6,1.1,0.9c0.9,0.8,1.8,1.6,2.7,1.6h0.1
								C213.1,175.1,213.6,174.8,214.1,174.2L214.1,174.2"/>
						</g>
					</g>
				</g>
				<g class="st0">
					<g>
						<defs>
							<path id="SVGID_00000083054735276254599980000013702239485726358658_" d="M212.5,183.9c-0.9,0-1.8-0.8-2.7-1.6
								c0-0.3,0-0.7,0-1s0-0.8,0-1.1c0-0.3,0-0.8,0-1.1c0-0.3,0-0.8,0-1.1c0-0.3,0-0.8,0-1.1c0-0.3,0-0.8,0-1.1c0-0.3,0-0.8,0-1.1
								c0-0.3,0-0.7,0-1c0.9,0.8,1.8,1.6,2.7,1.6c0,0.3,0,0.7,0,1s0,0.8,0,1.1c0,0.3,0,0.8,0,1.1c0,0.3,0,0.8,0,1.1
								c0,0.3,0,0.8,0,1.1c0,0.3,0,0.8,0,1.1c0,0.3,0,0.8,0,1.1S212.5,183.6,212.5,183.9z"/>
						</defs>
						<clipPath id="SVGID_00000179647054892702052980000016921849413963457937_">
							<use xlink:href="#SVGID_00000083054735276254599980000013702239485726358658_"  style="overflow:visible;"/>
						</clipPath>
						<g style="clip-path:url(#SVGID_00000179647054892702052980000016921849413963457937_);enable-background:new    ;">
							<path class="st17" d="M214.1,174.2v8.7l0,0c-0.5,0.6-1,0.9-1.5,1h-0.1c-0.9,0-1.8-0.8-2.7-1.6c-0.4-0.3-0.7-0.7-1.1-0.9
								c-1.5-1.1-2.5-2.2-2.5-3.4v-8.7c0,1.3,1,2.3,2.5,3.4c0.4,0.3,0.7,0.6,1.1,0.9c0.9,0.8,1.8,1.6,2.7,1.6h0.1
								C213.1,175.1,213.6,174.8,214.1,174.2L214.1,174.2"/>
						</g>
					</g>
				</g>
				<g class="st0">
					<g>
						<defs>
							<path id="SVGID_00000053507046582594940050000014095293566211299759_" d="M215.9,171.9v8.7c0,1-0.2,2-1,2.9
								c-0.7,0.9-1.4,1.3-2.2,1.4v-8.7c0.8-0.1,1.5-0.5,2.2-1.4S215.9,172.9,215.9,171.9z"/>
						</defs>
						<clipPath id="SVGID_00000088843432278459352420000001176954016742661525_">
							<use xlink:href="#SVGID_00000053507046582594940050000014095293566211299759_"  style="overflow:visible;"/>
						</clipPath>
						<g style="clip-path:url(#SVGID_00000088843432278459352420000001176954016742661525_);enable-background:new    ;">
							<path class="st3" d="M215.9,171.9v8.7c0,0.4,0,0.8-0.1,1.1V173C215.8,172.6,215.9,172.2,215.9,171.9"/>
							<path class="st4" d="M215.8,173v8.7c-0.1,0.3-0.2,0.6-0.3,0.9v-8.7C215.6,173.6,215.7,173.3,215.8,173"/>
							<path class="st2" d="M215.5,173.9v8.7c-0.1,0.3-0.3,0.6-0.6,0.9v-8.7C215.1,174.5,215.3,174.2,215.5,173.9"/>
							<path class="st8" d="M214.9,174.8v8.7l0,0c-0.7,0.9-1.4,1.3-2.2,1.4v-8.7C213.5,176.1,214.2,175.7,214.9,174.8L214.9,174.8"
								/>
						</g>
					</g>
				</g>
				<g>
					<polygon class="st1" points="212.7,176.2 212.7,184.8 212.5,184.9 212.5,176.2 					"/>
				</g>
				<g>
					<path class="st11" d="M215.3,168.7c0.5,2,1.1,4.2-0.5,6.1c-0.7,0.9-1.4,1.3-2.2,1.4h-0.2c-1.2,0-2.3-0.9-3.3-1.9
						c-0.4-0.3-0.7-0.6-1-0.9c-2.2-1.6-4-3.6-2.1-6.7c0.4-0.6,0.7-1,1.1-1.4s0.8-0.8,1.1-1.4c0.2-0.3,0.2-0.6,0.3-0.9
						c0.2-0.8,0.4-1.8,2.1-1.8h0.1h0.1c2.3,1,3.6,1.6,4,5.5C215,167.3,215.2,168,215.3,168.7z M214.1,174.2c1.2-1.5,0.8-3.3,0.3-5.2
						c-0.2-0.7-0.4-1.5-0.4-2.2c-0.4-3.4-1.3-3.8-3.3-4.6c-0.8,0-0.9,0.4-1.1,1.1c-0.1,0.4-0.2,0.8-0.4,1.2
						c-0.4,0.6-0.8,1.1-1.2,1.5c-0.4,0.4-0.7,0.8-1,1.2c-1.4,2.3-0.4,3.7,1.8,5.4c0.4,0.3,0.7,0.6,1.1,0.9c0.9,0.8,1.8,1.6,2.7,1.6
						h0.1C213.1,175.1,213.6,174.8,214.1,174.2"/>
				</g>
				<g class="st0">
					<g>
						<defs>
							<path id="SVGID_00000077311896152351193530000005508274342015516289_" d="M205.2,177.9v-8.7c0,1.7,1.3,3,2.9,4.2
								c0.3,0.3,0.7,0.6,1,0.9c1,0.9,2.1,1.9,3.3,1.9v8.7c-1.2,0-2.3-0.9-3.3-1.9c-0.4-0.3-0.7-0.6-1-0.9
								C206.6,181,205.2,179.7,205.2,177.9z"/>
						</defs>
						<clipPath id="SVGID_00000042003170377505647780000017591725308231160456_">
							<use xlink:href="#SVGID_00000077311896152351193530000005508274342015516289_"  style="overflow:visible;"/>
						</clipPath>
						<g style="clip-path:url(#SVGID_00000042003170377505647780000017591725308231160456_);enable-background:new    ;">
							<path class="st8" d="M212.5,176.2v8.7c-1.2,0-2.3-0.9-3.3-1.9c-0.4-0.3-0.7-0.6-1-0.9c-1.5-1.2-2.9-2.5-2.9-4.2v-8.7
								c0,1.7,1.3,3,2.9,4.2c0.3,0.3,0.7,0.6,1,0.9C210.2,175.2,211.3,176.2,212.5,176.2"/>
						</g>
					</g>
				</g>
				<g>
					<polygon class="st1" points="195.3,177.1 195.3,185.8 191.6,180.6 191.6,172 					"/>
				</g>
				<g>
					<polygon class="st7" points="10.3,177.6 10.3,186.3 9.2,180.7 9.2,172 					"/>
				</g>
				<g>
					<polygon class="st1" points="9.3,177.9 9.3,186.5 8.2,180.9 8.2,172.2 					"/>
				</g>
				<g>
					<polygon class="st7" points="12.1,182.6 12.1,191.3 10.3,186.3 10.3,177.6 					"/>
				</g>
				<g>
					<polygon class="st1" points="11.3,183.3 11.3,191.9 9.3,186.5 9.3,177.9 					"/>
				</g>
				<g>
					<polygon class="st7" points="15.3,184.8 15.3,193.4 12.1,191.3 12.1,182.6 					"/>
				</g>
				<g>
					<polygon class="st1" points="197.9,185.1 197.9,193.8 195.3,185.8 195.3,177.1 					"/>
				</g>
				<g>
					<polygon class="st1" points="14.8,185.6 14.8,194.3 11.3,191.9 11.3,183.3 					"/>
				</g>
				<g>
					<polygon class="st7" points="21.5,186.6 21.5,195.3 15.3,193.4 15.3,184.8 					"/>
				</g>
				<g>
					<polygon class="st1" points="20.9,187.4 20.9,196.1 14.8,194.3 14.8,185.6 					"/>
				</g>
				<g>
					<polygon class="st1" points="201.3,188.5 201.3,197.1 197.9,193.8 197.9,185.1 					"/>
				</g>
				<g>
					<polygon class="st7" points="25.9,190.5 25.9,199.1 21.5,195.3 21.5,186.6 					"/>
				</g>
				<g>
					<polygon class="st1" points="25.3,191.2 25.3,199.8 20.9,196.1 20.9,187.4 					"/>
				</g>
				<g>
					<polygon class="st1" points="206.3,192.7 206.3,201.4 201.3,197.1 201.3,188.5 					"/>
				</g>
				<g>
					<polygon class="st7" points="30.2,194.8 30.2,203.5 25.9,199.1 25.9,190.5 					"/>
				</g>
				<g>
					<polygon class="st1" points="29.2,195.2 29.2,203.9 25.3,199.8 25.3,191.2 					"/>
				</g>
				<g>
					<polygon class="st1" points="208.1,199.2 208.1,207.9 206.3,201.4 206.3,192.7 					"/>
				</g>
				<g>
					<polygon class="st1" points="212.5,202.7 212.5,211.4 208.1,207.9 208.1,199.2 					"/>
				</g>
				<g>
					<polygon class="st3" points="30.2,194.8 30.2,203.5 30,212.4 30,203.7 					"/>
				</g>
				<g>
					<polygon class="st7" points="31.1,206.2 31.1,214.9 30,212.4 30,203.7 					"/>
				</g>
				<g>
					<polygon class="st1" points="30.1,206.4 30.1,215 29,212.6 29,203.9 					"/>
				</g>
				<g>
					<polygon class="st1" points="30.3,210.6 30.3,219.3 30.1,215 30.1,206.4 					"/>
				</g>
				<g>
					<polygon class="st7" points="31.3,210.6 31.3,219.3 31.1,214.9 31.1,206.2 					"/>
				</g>
				<g>
					<polygon class="st1" points="214.9,212.5 214.9,221.2 212.5,216.2 212.5,207.5 					"/>
				</g>
				<g class="st0">
					<g>
						<defs>
							<path id="SVGID_00000122679001488534600400000000707574225996286643_" d="M218.8,215.1v8.7c-1.7-2.1-3.1-2.5-3.9-2.5v-8.7
								C215.7,212.5,217.1,212.9,218.8,215.1z"/>
						</defs>
						<clipPath id="SVGID_00000148655838498204430210000015699431384367940011_">
							<use xlink:href="#SVGID_00000122679001488534600400000000707574225996286643_"  style="overflow:visible;"/>
						</clipPath>
						<g style="clip-path:url(#SVGID_00000148655838498204430210000015699431384367940011_);enable-background:new    ;">
							<path class="st8" d="M218.8,215.1v8.7c-1.7-2.1-3.1-2.5-3.9-2.5v-8.7C215.7,212.5,217.1,212.9,218.8,215.1"/>
						</g>
					</g>
				</g>
				<g>
					<polygon class="st3" points="31.3,210.6 31.3,219.3 30.7,225.1 30.7,216.5 					"/>
				</g>
				<g>
					<polygon class="st1" points="221.6,218.5 221.6,227.2 218.8,223.7 218.8,215.1 					"/>
				</g>
				<g>
					<polygon class="st4" points="30.7,216.5 30.7,225.1 29.3,228 29.3,219.3 					"/>
				</g>
				<g>
					<polygon class="st3" points="222.6,218.2 222.6,226.9 222.2,236.1 222.2,227.4 					"/>
				</g>
				<g>
					<polygon class="st27" points="221.6,218.5 221.6,227.2 221.2,236.1 221.2,227.4 					"/>
				</g>
				<g>
					<polygon class="st1" points="28.7,227.4 28.7,236.1 28.3,227.8 28.3,219.1 					"/>
				</g>
				<g>
					<polygon class="st7" points="29.7,227.4 29.7,236.1 29.3,228 29.3,219.3 					"/>
				</g>
				<g>
					<polygon class="st1" points="222,233.1 222,241.8 221.2,236.1 221.2,227.4 					"/>
				</g>
				<g>
					<polygon class="st1" points="225.8,234.9 225.8,243.6 222,241.8 222,233.1 					"/>
				</g>
				<g>
					<polygon class="st3" points="29.7,227.4 29.7,236.1 29,246.5 29,237.8 					"/>
				</g>
				<g>
					<polygon class="st1" points="234.4,241.3 234.4,250 225.8,243.6 225.8,234.9 					"/>
				</g>
				<g>
					<polygon class="st7" points="29.5,243.4 29.5,252.1 29,246.5 29,237.8 					"/>
				</g>
				<g>
					<polygon class="st1" points="28.5,243.8 28.5,252.4 28,246.5 28,237.8 					"/>
				</g>
				<g>
					<polygon class="st7" points="31.8,246.7 31.8,255.4 29.5,252.1 29.5,243.4 					"/>
				</g>
				<g>
					<polygon class="st1" points="31.1,247.4 31.1,256 28.5,252.4 28.5,243.8 					"/>
				</g>
				<g>
					<polygon class="st3" points="235.4,240.8 235.4,249.5 234.7,261 234.7,252.3 					"/>
				</g>
				<g>
					<polygon class="st7" points="40.6,252.8 40.6,261.5 31.8,255.4 31.8,246.7 					"/>
				</g>
				<g>
					<polygon class="st28" points="234.4,241.3 234.4,250 233.7,261.5 233.7,252.8 					"/>
				</g>
				<g>
					<polygon class="st1" points="40.1,253.6 40.1,262.3 31.1,256 31.1,247.4 					"/>
				</g>
				<g>
					<polygon class="st7" points="49.8,256 49.8,264.6 40.6,261.5 40.6,252.8 					"/>
				</g>
				<g>
					<polygon class="st1" points="49.1,256.8 49.1,265.5 40.1,262.3 40.1,253.6 					"/>
				</g>
				<g>
					<polygon class="st1" points="240.8,258.3 240.8,267 233.7,261.5 233.7,252.8 					"/>
				</g>
				<g>
					<polygon class="st7" points="53.4,260.6 53.4,269.3 49.8,264.6 49.8,256 					"/>
				</g>
				<g>
					<polygon class="st1" points="52.6,261.2 52.6,269.9 49.1,265.5 49.1,256.8 					"/>
				</g>
				<g>
					<polygon class="st1" points="243.2,261.8 243.2,270.5 240.8,267 240.8,258.3 					"/>
				</g>
				<g>
					<polygon class="st7" points="56.3,265.2 56.3,273.9 53.4,269.3 53.4,260.6 					"/>
				</g>
				<g>
					<polygon class="st1" points="244,265.4 244,274.1 243.2,270.5 243.2,261.8 					"/>
				</g>
				<g>
					<polygon class="st7" points="59.9,265.4 59.9,274.1 56.3,273.9 56.3,265.2 					"/>
				</g>
				<g>
					<polygon class="st1" points="55.8,266.1 55.8,274.8 52.6,269.9 52.6,261.2 					"/>
				</g>
				<g>
					<polygon class="st1" points="59.4,266.4 59.4,275.1 55.8,274.8 55.8,266.1 					"/>
				</g>
				<g>
					<polygon class="st1" points="246.9,268.7 246.9,277.4 244,274.1 244,265.4 					"/>
				</g>
				<g>
					<polygon class="st7" points="62.9,268.8 62.9,277.5 59.9,274.1 59.9,265.4 					"/>
				</g>
				<g>
					<polygon class="st1" points="62.2,269.5 62.2,278.2 59.4,275.1 59.4,266.4 					"/>
				</g>
				<g>
					<polygon class="st7" points="66.3,271 66.3,279.7 62.9,277.5 62.9,268.8 					"/>
				</g>
				<g>
					<polygon class="st1" points="65.4,271.6 65.4,280.3 62.2,278.2 62.2,269.5 					"/>
				</g>
				<g>
					<polygon class="st1" points="250.9,275.1 250.9,283.8 246.9,277.4 246.9,268.7 					"/>
				</g>
				<g>
					<polygon class="st7" points="68.2,277.1 68.2,285.8 66.3,279.7 66.3,271 					"/>
				</g>
				<g>
					<polygon class="st1" points="67.2,277.1 67.2,285.8 65.4,280.3 65.4,271.6 					"/>
				</g>
				<g>
					<polygon class="st1" points="252.3,281.1 252.3,289.8 250.9,283.8 250.9,275.1 					"/>
				</g>
				<g>
					<polygon class="st4" points="68.2,277.1 68.2,285.7 67.1,290.1 67.1,281.4 					"/>
				</g>
				<g>
					<polygon class="st7" points="68.5,286.3 68.5,295 67.1,290.1 67.1,281.4 					"/>
				</g>
				<g>
					<polygon class="st1" points="67.6,286.7 67.6,295.3 66.1,290.1 66.1,281.4 					"/>
				</g>
				<g>
					<polygon class="st28" points="252.3,281.1 252.3,289.8 251.6,296.8 251.6,288.1 					"/>
				</g>
				<g>
					<polygon class="st3" points="253.3,281 253.3,289.7 252.6,297.1 252.6,288.4 					"/>
				</g>
				<g>
					<polygon class="st7" points="70.7,290.6 70.7,299.2 68.5,295 68.5,286.3 					"/>
				</g>
				<g>
					<polygon class="st1" points="69.8,291.1 69.8,299.7 67.6,295.3 67.6,286.7 					"/>
				</g>
				<g>
					<polygon class="st29" points="251.6,288.1 251.6,296.8 248.7,303.2 248.7,294.5 					"/>
				</g>
				<g>
					<polygon class="st4" points="252.6,288.4 252.6,297.1 249.6,303.6 249.6,294.9 					"/>
				</g>
				<g>
					<polygon class="st7" points="74.6,296.2 74.6,304.9 70.7,299.2 70.7,290.6 					"/>
				</g>
				<g>
					<polygon class="st1" points="73.9,296.8 73.9,305.5 69.8,299.7 69.8,291.1 					"/>
				</g>
				<g>
					<polygon class="st7" points="77.4,298.6 77.4,307.3 74.6,304.9 74.6,296.2 					"/>
				</g>
				<g>
					<polygon class="st7" points="82.6,299.3 82.6,308 77.4,307.3 77.4,298.6 					"/>
				</g>
				<g>
					<polygon class="st1" points="77,299.5 77,308.2 73.9,305.5 73.9,296.8 					"/>
				</g>
				<g>
					<polygon class="st30" points="248.7,294.5 248.7,303.2 245.8,308.9 245.8,300.2 					"/>
				</g>
				<g>
					<polygon class="st1" points="82.1,300.2 82.1,308.9 77,308.2 77,299.5 					"/>
				</g>
				<g>
					<polygon class="st4" points="249.6,294.9 249.6,303.6 246.7,309.4 246.7,300.7 					"/>
				</g>
				<g>
					<rect x="106.8" y="302.2" class="st7" width="5.3" height="8.7"/>
				</g>
				<g>
					<polygon class="st7" points="85.1,302.2 85.1,310.9 82.6,308 82.6,299.3 					"/>
				</g>
				<g>
					<polygon class="st7" points="106.8,302.2 106.8,310.9 97.3,311.2 97.3,302.5 					"/>
				</g>
				<g>
					<polygon class="st10" points="245.8,300.2 245.8,308.9 243.9,311.6 243.9,302.9 					"/>
				</g>
				<g>
					<polygon class="st2" points="246.7,300.7 246.7,309.4 245,311.8 245,303.1 					"/>
				</g>
				<g>
					<polygon class="st1" points="84.6,303.1 84.6,311.8 82.1,308.9 82.1,300.2 					"/>
				</g>
				<g>
					<rect x="106.8" y="303.2" class="st1" width="4.9" height="8.7"/>
				</g>
				<g>
					<polygon class="st7" points="91.5,303.2 91.5,311.9 85.1,310.9 85.1,302.2 					"/>
				</g>
				<g>
					<polygon class="st7" points="97.3,302.5 97.3,311.2 91.5,311.9 91.5,303.2 					"/>
				</g>
				<g>
					<polygon class="st1" points="106.8,303.2 106.8,311.8 97.3,312.2 97.3,303.5 					"/>
				</g>
				<g>
					<polygon class="st1" points="97.3,303.5 97.3,312.2 91.5,312.9 91.5,304.2 					"/>
				</g>
				<g>
					<polygon class="st1" points="91.5,304.2 91.5,312.9 84.6,311.8 84.6,303.1 					"/>
				</g>
				<g>
					<polygon class="st7" points="117.5,307.1 117.5,315.8 112.2,310.9 112.2,302.2 					"/>
				</g>
				<g>
					<polygon class="st1" points="245.4,307.2 245.4,315.8 243.9,311.6 243.9,302.9 					"/>
				</g>
				<g>
					<polygon class="st1" points="116.6,307.6 116.6,316.3 111.8,311.8 111.8,303.2 					"/>
				</g>
				<g>
					<polygon class="st1" points="248.7,311.2 248.7,319.9 245.4,315.8 245.4,307.2 					"/>
				</g>
				<g>
					<polygon class="st7" points="118.7,312.4 118.7,321.1 117.5,315.8 117.5,307.1 					"/>
				</g>
				<g>
					<polygon class="st1" points="117.7,312.4 117.7,321.1 116.6,316.3 116.6,307.6 					"/>
				</g>
				<g>
					<polygon class="st1" points="253.8,319.8 253.8,328.5 248.7,319.9 248.7,311.2 					"/>
				</g>
				<g>
					<polygon class="st4" points="118.7,312.4 118.7,321.1 115,332.9 115,324.2 					"/>
				</g>
				<g>
					<polygon class="st1" points="256,324.7 256,333.4 253.8,328.5 253.8,319.8 					"/>
				</g>
				<g>
					<polygon class="st2" points="115,324.2 115,332.9 112.1,337.8 112.1,329.1 					"/>
				</g>
				<g>
					<polygon class="st3" points="112.1,329.1 112.1,337.8 110.6,344.6 110.6,335.9 					"/>
				</g>
				<g>
					<polygon class="st3" points="110.6,335.9 110.6,344.6 110.3,351.3 110.3,342.6 					"/>
				</g>
				<g>
					<polygon class="st28" points="256,324.7 256,333.4 254.2,353 254.2,344.3 					"/>
				</g>
				<g>
					<polygon class="st3" points="257,324.6 257,333.2 255.1,353.4 255.1,344.7 					"/>
				</g>
				<g>
					<polygon class="st7" points="111.7,347.8 111.7,356.5 110.3,351.3 110.3,342.6 					"/>
				</g>
				<g>
					<polygon class="st1" points="110.7,348.2 110.7,356.9 109.3,351.4 109.3,342.7 					"/>
				</g>
				<g>
					<polygon class="st7" points="138,350.5 138,359.1 129.8,359.9 129.8,351.2 					"/>
				</g>
				<g>
					<polygon class="st30" points="254.2,344.3 254.2,353 250.6,360.1 250.6,351.5 					"/>
				</g>
				<g>
					<polygon class="st7" points="114.9,351.7 114.9,360.4 111.7,356.5 111.7,347.8 					"/>
				</g>
				<g>
					<polygon class="st4" points="255.1,344.7 255.1,353.4 251.5,360.5 251.5,351.8 					"/>
				</g>
				<g>
					<polygon class="st1" points="137.9,351.5 137.9,360.1 130,360.8 130,352.2 					"/>
				</g>
				<g>
					<polygon class="st1" points="114.1,352.3 114.1,361 110.7,356.9 110.7,348.2 					"/>
				</g>
				<g>
					<polygon class="st7" points="144.5,352.4 144.5,361 138,359.1 138,350.5 					"/>
				</g>
				<g>
					<polygon class="st1" points="143.9,353.2 143.9,361.9 137.9,360.1 137.9,351.5 					"/>
				</g>
				<g>
					<polygon class="st7" points="129.8,351.2 129.8,359.9 123.5,362.4 123.5,353.7 					"/>
				</g>
				<g>
					<polygon class="st7" points="118.7,354.4 118.7,363.1 114.9,360.4 114.9,351.7 					"/>
				</g>
				<g>
					<polygon class="st7" points="123.5,353.7 123.5,362.4 118.7,363.1 118.7,354.4 					"/>
				</g>
				<g>
					<polygon class="st1" points="130,352.2 130,360.8 123.7,363.4 123.7,354.7 					"/>
				</g>
				<g>
					<polygon class="st1" points="118.4,355.4 118.4,364.1 114.1,361 114.1,352.3 					"/>
				</g>
				<g>
					<polygon class="st1" points="123.7,354.7 123.7,363.4 118.4,364.1 118.4,355.4 					"/>
				</g>
				<g>
					<polygon class="st7" points="150.1,356.4 150.1,365.1 144.5,361 144.5,352.4 					"/>
				</g>
				<g>
					<polygon class="st1" points="149.2,357 149.2,365.7 143.9,361.9 143.9,353.2 					"/>
				</g>
				<g>
					<polygon class="st31" points="250.6,351.5 250.6,360.1 248.3,369.7 248.3,361 					"/>
				</g>
				<g>
					<polygon class="st4" points="251.5,351.8 251.5,360.5 249.3,369.7 249.3,361 					"/>
				</g>
				<g>
					<polygon class="st7" points="153.1,366.9 153.1,375.6 150.1,365.1 150.1,356.4 					"/>
				</g>
				<g>
					<polygon class="st1" points="152,366.7 152,375.4 149.2,365.7 149.2,357 					"/>
				</g>
				<g>
					<polygon class="st1" points="250.2,370.1 250.2,378.8 248.3,369.7 248.3,361 					"/>
				</g>
				<g>
					<polygon class="st2" points="153.1,366.9 153.1,375.6 149.3,381.5 149.3,372.8 					"/>
				</g>
				<g>
					<polygon class="st1" points="253.5,377.1 253.5,385.8 250.2,378.8 250.2,370.1 					"/>
				</g>
				<g>
					<polygon class="st4" points="149.3,372.8 149.3,381.5 145.3,391.6 145.3,383 					"/>
				</g>
				<g>
					<polygon class="st1" points="262.5,393.8 262.5,402.5 253.5,385.8 253.5,377.1 					"/>
				</g>
				<g>
					<polygon class="st29" points="262.5,393.9 262.5,402.5 260.5,406.9 260.5,398.2 					"/>
				</g>
				<g>
					<polygon class="st4" points="263.6,393.8 263.6,402.5 261.3,407.5 261.3,398.8 					"/>
				</g>
				<g>
					<polygon class="st2" points="145.3,383 145.3,391.6 132.9,408.2 132.9,399.5 					"/>
				</g>
				<g>
					<polygon class="st32" points="260.5,398.2 260.5,406.9 255.8,412.2 255.8,403.5 					"/>
				</g>
				<g>
					<polygon class="st8" points="261.3,398.8 261.3,407.5 256.5,412.9 256.5,404.2 					"/>
				</g>
				<g>
					<polygon class="st33" points="255.8,403.5 255.8,412.2 252.4,414.9 252.4,406.2 					"/>
				</g>
				<g>
					<polygon class="st8" points="256.5,404.2 256.5,412.9 253.3,415.4 253.3,406.7 					"/>
				</g>
				<g>
					<polygon class="st2" points="132.9,399.5 132.9,408.2 128.5,415.7 128.5,407.1 					"/>
				</g>
				<g>
					<polygon class="st4" points="128.5,407.1 128.5,415.7 126.3,422.2 126.3,413.5 					"/>
				</g>
				<g>
					<polygon class="st28" points="252.4,406.2 252.4,414.9 251.6,423.3 251.6,414.6 					"/>
				</g>
				<g>
					<polygon class="st3" points="253.3,406.7 253.3,415.4 252.6,423.6 252.6,414.9 					"/>
				</g>
				<g>
					<polygon class="st9" points="251.6,414.6 251.6,423.3 249.5,429.2 249.5,420.5 					"/>
				</g>
				<g>
					<polygon class="st4" points="252.6,414.9 252.6,423.6 250.3,429.9 250.3,421.2 					"/>
				</g>
				<g>
					<polygon class="st34" points="249.5,420.5 249.5,429.2 245.4,431.6 245.4,422.9 					"/>
				</g>
				<g>
					<polygon class="st7" points="245.4,422.9 245.4,431.6 227.8,431.9 227.8,423.3 					"/>
				</g>
				<g>
					<polygon class="st1" points="250.3,421.2 250.3,429.9 245.7,432.6 245.7,423.9 					"/>
				</g>
				<g>
					<polygon class="st1" points="245.7,423.9 245.7,432.6 228.1,432.9 228.1,424.2 					"/>
				</g>
				<g>
					<polygon class="st35" points="227.8,423.3 227.8,431.9 224,434.5 224,425.9 					"/>
				</g>
				<g>
					<polygon class="st2" points="126.3,413.5 126.3,422.2 118.7,434.7 118.7,426 					"/>
				</g>
				<g>
					<polygon class="st8" points="228.1,424.2 228.1,432.9 224.6,435.3 224.6,426.6 					"/>
				</g>
				<g>
					<polygon class="st7" points="119,429.5 119,438.1 118.7,434.7 118.7,426 					"/>
				</g>
				<g>
					<polygon class="st1" points="118,429.6 118,438.2 117.7,434.5 117.7,425.8 					"/>
				</g>
				<g>
					<polygon class="st17" points="224,425.9 224,434.5 218.8,440 218.8,431.3 					"/>
				</g>
				<g class="st0">
					<g>
						<defs>
							<path id="SVGID_00000097480502790468859420000012392920575859140777_" d="M120,431.4v8.7c-0.4,0.3-0.8,0.1-1-1.9v-8.7
								C119.2,431.5,119.7,431.7,120,431.4z"/>
						</defs>
						<clipPath id="SVGID_00000119806254722007419580000004816208688994447804_">
							<use xlink:href="#SVGID_00000097480502790468859420000012392920575859140777_"  style="overflow:visible;"/>
						</clipPath>
						<g style="clip-path:url(#SVGID_00000119806254722007419580000004816208688994447804_);enable-background:new    ;">
							<path class="st17" d="M120,431.4v8.7c-0.4,0.3-0.8,0.1-1-1.9v-8.7C119.2,431.5,119.7,431.7,120,431.4"/>
						</g>
					</g>
				</g>
				<g>
					<polygon class="st8" points="224.6,426.6 224.6,435.3 219.6,440.6 219.6,431.9 					"/>
				</g>
				<g class="st0">
					<g>
						<defs>
							<path id="SVGID_00000096740412512606481300000007680305209344011136_" d="M119.9,432.6v8.7c-1.3-0.3-1.7-1.2-1.9-3.1v-8.7
								C118.2,431.4,118.6,432.4,119.9,432.6z"/>
						</defs>
						<clipPath id="SVGID_00000053516131899988305220000010806205812430049183_">
							<use xlink:href="#SVGID_00000096740412512606481300000007680305209344011136_"  style="overflow:visible;"/>
						</clipPath>
						<g style="clip-path:url(#SVGID_00000053516131899988305220000010806205812430049183_);enable-background:new    ;">
							<path class="st8" d="M119.9,432.6v8.7c-1.3-0.3-1.7-1.2-1.9-3.1v-8.7C118.2,431.4,118.6,432.4,119.9,432.6"/>
						</g>
					</g>
				</g>
				<g>
					<polygon class="st7" points="154.1,434 154.1,442.7 148.5,443.5 148.5,434.8 					"/>
				</g>
				<g>
					<polygon class="st1" points="153.9,435.1 153.9,443.7 148.7,444.4 148.7,435.8 					"/>
				</g>
				<g>
					<polygon class="st7" points="124.6,435.8 124.6,444.5 120,440 120,431.4 					"/>
				</g>
				<g>
					<polygon class="st1" points="123.5,436.2 123.5,444.9 119.9,441.3 119.9,432.6 					"/>
				</g>
				<g>
					<polygon class="st7" points="158.3,436.3 158.3,445 154.1,442.7 154.1,434 					"/>
				</g>
				<g>
					<polygon class="st1" points="157.8,437.1 157.8,445.8 153.9,443.7 153.9,435.1 					"/>
				</g>
				<g>
					<polygon class="st9" points="218.8,431.3 218.8,440 216.1,447.4 216.1,438.7 					"/>
				</g>
				<g>
					<rect x="136.3" y="438.8" class="st7" width="4.9" height="8.7"/>
				</g>
				<g>
					<polygon class="st34" points="148.5,434.8 148.5,443.5 141.1,447.4 141.1,438.8 					"/>
				</g>
				<g>
					<polygon class="st4" points="219.6,431.9 219.6,440.6 217.1,447.7 217.1,439 					"/>
				</g>
				<g>
					<rect x="136.7" y="439.7" class="st1" width="4.7" height="8.7"/>
				</g>
				<g>
					<polygon class="st1" points="148.7,435.8 148.7,444.4 141.4,448.4 141.4,439.7 					"/>
				</g>
				<g>
					<polygon class="st7" points="163.9,440.3 163.9,449 158.3,445 158.3,436.3 					"/>
				</g>
				<g>
					<polygon class="st1" points="163.2,441 163.2,449.7 157.8,445.8 157.8,437.1 					"/>
				</g>
				<g>
					<polygon class="st3" points="124.6,435.8 124.6,444.5 123.8,449.8 123.8,441.1 					"/>
				</g>
				<g>
					<polygon class="st17" points="136.3,438.8 136.3,447.4 132.6,451.4 132.6,442.7 					"/>
				</g>
				<g>
					<rect x="127.2" y="442.7" class="st7" width="5.4" height="8.7"/>
				</g>
				<g class="st0">
					<g>
						<defs>
							<path id="SVGID_00000057867751718572198100000014280789140710075059_" d="M126.9,451.5L126.9,451.5c0-0.1,0-0.2,0-0.3
								c0,0,0-0.1,0-0.2c0,0,0-0.1,0-0.2s0-0.1,0-0.2c0,0,0-0.1,0-0.2c0,0,0-0.1,0-0.2v-0.1c0-0.3,0-0.6,0-0.9c0-0.3,0-0.6,0-0.9
								c0-0.3,0-0.7,0-1s0-0.7,0-1s0-0.7,0-1s0-0.7,0-1s0-0.6,0-0.9c0-0.3,0-0.6,0-0.9c0.1,0,0.2-0.1,0.2-0.1v8.7
								C127.1,451.4,127,451.5,126.9,451.5z"/>
						</defs>
						<clipPath id="SVGID_00000017492795490468258670000017804795515689941682_">
							<use xlink:href="#SVGID_00000057867751718572198100000014280789140710075059_"  style="overflow:visible;"/>
						</clipPath>
						<g style="clip-path:url(#SVGID_00000017492795490468258670000017804795515689941682_);enable-background:new    ;">
							<path class="st17" d="M127.2,442.7v8.7c-0.5,0.3-1.6,0.8-2.4,0.8v-8.7C125.6,443.5,126.7,443,127.2,442.7"/>
						</g>
					</g>
				</g>
				<g class="st0">
					<g>
						<defs>
							<path id="SVGID_00000080193992352478735060000009907846515237385119_" d="M124.5,452c-0.6-0.4-0.7-1-0.7-1.6v-8.7
								c0,0.6,0.2,1.2,0.7,1.6c0,0.3,0,0.6,0,0.9c0,0.3,0,0.7,0,1s0,0.7,0,1s0,0.7,0,1s0,0.7,0,1s0,0.7,0,1s0,0.7,0,1s0,0.6,0,0.9
								v0.1v0.1v0.1v0.1v0.1v0.1v0.1C124.5,452,124.5,452,124.5,452z"/>
						</defs>
						<clipPath id="SVGID_00000071548437019414192770000016939928559203629237_">
							<use xlink:href="#SVGID_00000080193992352478735060000009907846515237385119_"  style="overflow:visible;"/>
						</clipPath>
						<g style="clip-path:url(#SVGID_00000071548437019414192770000016939928559203629237_);enable-background:new    ;">
							<path class="st17" d="M124.8,443.5v8.7c-0.9-0.4-1.1-1.1-1.1-1.7v-8.7C123.7,442.5,124,443.2,124.8,443.5"/>
						</g>
					</g>
				</g>
				<g class="st0">
					<g>
						<defs>
							<path id="SVGID_00000110444404232413850880000015810723984591920023_" d="M126.9,451.5c-0.6,0.3-1.4,0.7-2.1,0.7v-8.7
								c0.7,0,1.6-0.4,2.1-0.7c0,0.3,0,0.6,0,0.9c0,0.3,0,0.6,0,0.9c0,0.3,0,0.7,0,1s0,0.7,0,1s0,0.7,0,1s0,0.7,0,1s0,0.6,0,0.9
								c0,0.3,0,0.6,0,0.9v0.1c0,0,0,0.1,0,0.2c0,0,0,0.1,0,0.2c0,0,0,0.1,0,0.2s0,0.1,0,0.2C126.9,451.3,126.9,451.4,126.9,451.5
								c0,0,0,0.1,0,0.2C126.9,451.4,126.9,451.5,126.9,451.5z"/>
						</defs>
						<clipPath id="SVGID_00000051376840663357558010000015235703057648646293_">
							<use xlink:href="#SVGID_00000110444404232413850880000015810723984591920023_"  style="overflow:visible;"/>
						</clipPath>
						<g style="clip-path:url(#SVGID_00000051376840663357558010000015235703057648646293_);enable-background:new    ;">
							<path class="st17" d="M127.2,442.7v8.7c-0.5,0.3-1.6,0.8-2.4,0.8v-8.7C125.6,443.5,126.7,443,127.2,442.7"/>
						</g>
					</g>
				</g>
				<g class="st0">
					<g>
						<defs>
							<path id="SVGID_00000146495413143103226760000010522546177167748774_" d="M124.5,452L124.5,452v-0.2v-0.1v-0.1v-0.1v-0.1
								v-0.1v-0.1c0-0.3,0-0.6,0-0.9c0-0.3,0-0.7,0-1s0-0.7,0-1s0-0.7,0-1s0-0.7,0-1s0-0.7,0-1s0-0.7,0-1s0-0.6,0-0.9
								c0.1,0.1,0.2,0.1,0.3,0.2v8.7C124.7,452.2,124.6,452.1,124.5,452z"/>
						</defs>
						<clipPath id="SVGID_00000086677836078726694680000002868885523436425890_">
							<use xlink:href="#SVGID_00000146495413143103226760000010522546177167748774_"  style="overflow:visible;"/>
						</clipPath>
						<g style="clip-path:url(#SVGID_00000086677836078726694680000002868885523436425890_);enable-background:new    ;">
							<path class="st17" d="M124.8,443.5v8.7c-0.9-0.4-1.1-1.1-1.1-1.7v-8.7C123.7,442.5,124,443.2,124.8,443.5"/>
						</g>
					</g>
				</g>
				<g>
					<polygon class="st8" points="136.7,439.7 136.7,448.4 133,452.4 133,443.7 					"/>
				</g>
				<g>
					<rect x="127.5" y="443.7" class="st1" width="5.6" height="8.7"/>
				</g>
				<g class="st0">
					<g>
						<defs>
							<path id="SVGID_00000067955157825245411400000002697738898236848034_" d="M122.7,450.7V442c0,1.1,0.3,1.8,0.9,2.2
								c0.4,0.2,0.8,0.3,1.2,0.3c1.1,0,2.2-0.6,2.6-0.8v8.7c-0.4,0.2-1.6,0.8-2.6,0.8c-0.4,0-0.8-0.1-1.2-0.3
								C123,452.5,122.7,451.8,122.7,450.7z"/>
						</defs>
						<clipPath id="SVGID_00000070113794196864616720000016997677330217442950_">
							<use xlink:href="#SVGID_00000067955157825245411400000002697738898236848034_"  style="overflow:visible;"/>
						</clipPath>
						<g style="clip-path:url(#SVGID_00000070113794196864616720000016997677330217442950_);enable-background:new    ;">
							<path class="st8" d="M127.5,443.7v8.7c-0.4,0.2-1.6,0.8-2.6,0.8c-0.4,0-0.8-0.1-1.2-0.3c-0.6-0.4-0.9-1.1-0.9-2.2V442
								c0,1.1,0.3,1.8,0.9,2.2c0.4,0.2,0.8,0.3,1.2,0.3C125.9,444.5,127.1,443.9,127.5,443.7"/>
						</g>
					</g>
				</g>
				<g>
					<polygon class="st7" points="169.1,445.5 169.1,454.2 163.9,449 163.9,440.3 					"/>
				</g>
				<g>
					<polygon class="st1" points="168.2,446 168.2,454.7 163.2,449.7 163.2,441 					"/>
				</g>
				<g>
					<polygon class="st28" points="216.1,438.7 216.1,447.4 215,456.1 215,447.5 					"/>
				</g>
				<g>
					<polygon class="st3" points="217.1,439 217.1,447.7 216,456.2 216,447.5 					"/>
				</g>
				<g>
					<polygon class="st7" points="170.3,449.6 170.3,458.2 169.1,454.2 169.1,445.5 					"/>
				</g>
				<g>
					<polygon class="st1" points="169.3,449.9 169.3,458.6 168.2,454.7 168.2,446 					"/>
				</g>
				<g>
					<polygon class="st7" points="172,452.9 172,461.6 170.3,458.2 170.3,449.6 					"/>
				</g>
				<g>
					<polygon class="st1" points="171.2,453.6 171.2,462.3 169.3,458.6 169.3,449.9 					"/>
				</g>
				<g>
					<polygon class="st1" points="216.9,455.3 216.9,464 215,456.2 215,447.6 					"/>
				</g>
				<g>
					<polygon class="st7" points="178.8,456.8 178.8,465.5 172,461.6 172,452.9 					"/>
				</g>
				<g>
					<polygon class="st1" points="178.3,457.7 178.3,466.3 171.2,462.3 171.2,453.6 					"/>
				</g>
				<g>
					<polygon class="st7" points="193.7,460 193.7,468.7 184.5,469.4 184.5,460.7 					"/>
				</g>
				<g>
					<polygon class="st7" points="184.5,460.7 184.5,469.4 178.8,465.5 178.8,456.8 					"/>
				</g>
				<g>
					<polygon class="st1" points="184.3,461.7 184.3,470.4 178.3,466.3 178.3,457.7 					"/>
				</g>
				<g>
					<polygon class="st1" points="193.4,461 193.4,469.7 184.3,470.4 184.3,461.7 					"/>
				</g>
				<g>
					<polygon class="st1" points="219.8,462 219.8,470.7 216.9,464 216.9,455.3 					"/>
				</g>
				<g>
					<polygon class="st7" points="197.6,462.7 197.6,471.4 193.7,468.7 193.7,460 					"/>
				</g>
				<g>
					<polygon class="st1" points="196.8,463.3 196.8,472 193.4,469.7 193.4,461 					"/>
				</g>
				<g>
					<polygon class="st7" points="198.8,466.4 198.8,475 197.6,471.4 197.6,462.7 					"/>
				</g>
				<g>
					<polygon class="st1" points="197.9,466.9 197.9,475.6 196.8,472 196.8,463.3 					"/>
				</g>
				<g>
					<polygon class="st3" points="220.8,461.9 220.8,470.6 220,475.7 220,467 					"/>
				</g>
				<g>
					<polygon class="st13" points="219.8,462 219.8,470.7 219,475.7 219,467 					"/>
				</g>
				<g>
					<polygon class="st7" points="202.3,469.5 202.3,478.2 198.8,475 198.8,466.4 					"/>
				</g>
				<g>
					<polygon class="st1" points="201.6,470.2 201.6,478.9 197.9,475.6 197.9,466.9 					"/>
				</g>
				<g>
					<polygon class="st1" points="220.1,472.7 220.1,481.4 219,475.7 219,467 					"/>
				</g>
				<g>
					<polygon class="st7" points="205.7,472.9 205.7,481.6 202.3,478.2 202.3,469.5 					"/>
				</g>
				<g>
					<polygon class="st1" points="204.8,473.4 204.8,482.1 201.6,478.9 201.6,470.2 					"/>
				</g>
				<g>
					<polygon class="st30" points="220.1,472.7 220.1,481.4 217.7,486.1 217.7,477.4 					"/>
				</g>
				<g>
					<polygon class="st4" points="221.2,472.8 221.2,481.5 218.4,486.9 218.4,478.2 					"/>
				</g>
				<g>
					<polygon class="st7" points="207.8,478.4 207.8,487.1 205.7,481.6 205.7,472.9 					"/>
				</g>
				<g>
					<polygon class="st1" points="207.1,479.3 207.1,488 204.8,482.1 204.8,473.4 					"/>
				</g>
				<g>
					<path class="st12" d="M37.4,27.4l3.9,3.9l4.4,2.9l2.7,2.3l8,1.4l3.2,3.9l4.7,4.3l7.6,7.9l2.2,6.2l7.8,5.9l10.2,7.2l8.8,7.9
						l4,1.8l4.7,6l12.2,7.3l4.1,4.4l20.1,0.7l2.1,3.7l5.2,4.4l5.5,7.2l10.6,10.4l3.2,5.7l2.5,5.7l0.4,6.7l-0.8,5.5l3.4,0.4l4.9,1.7
						l4.2,5.2l2.9,7.4l1.5,6.5l3.7,5.2l2.6,8l3.4,3.4l5,4.2l1.8,6.5l4.3,3.6v4.8l1.1,4.8c2.1,0.2,3.5,0.6,5.2,2.7l2.8,3.5l-0.4,8.9
						l0.8,5.7l3.8,1.9l8.6,6.3l-0.7,11.5l7.1,5.5l2.5,3.5l0.7,3.6l3,3.3l4,6.4l1.4,6l-0.7,7.1l-2.9,6.4l-2.9,5.7l-2,2.7l1.5,4.2
						l3.3,4l5.1,8.6l2.1,4.9l-1.8,19.6l-3.6,7.1l-2.3,9.6l1.9,9.1l3.3,7l9,16.7l-2.1,4.4l-4.6,5.3l-3.5,2.7l-0.7,8.4l-2.1,5.9
						l-4.1,2.4l-17.6,0.4l-3.8,2.6l-5.2,5.5l-2.7,7.4l-1.1,8.7l1.9,7.8l2.9,6.7l-0.7,5l1.1,5.7l-2.4,4.7l-4.5,2l-5.4-1l-2.1-5.5
						l-3.4-3.4l-3.6-3.2l-1.1-3.6l-4-2.7l-9.2,0.7l-5.7-3.9l-6.8-3.9l-1.7-3.4l-1.1-4.1l-5.3-5.2l-5.6-4l-4.2-2.2l-5.7,0.7l-7.4,4
						h-4.9l-3.7,4h-5.4c-0.5,0.3-1.6,0.8-2.4,0.8c-1.2-0.5-1.1-1.6-1-2.4l0.8-5.3l-4.5-4.5c-0.4,0.3-0.8,0.1-1-1.9l-0.4-3.4
						l7.6-12.5l2.2-6.5l4.4-7.5l12.4-16.6l4-10.1l3.8-5.9l-3-10.5l-5.6-4.1l-6.5-1.9l-8.1,0.7l-6.3,2.5l-4.9,0.7l-3.8-2.7l-3.2-3.8
						l-1.4-5.2l0.4-6.7l1.4-6.8l2.9-5l3.7-11.8l-1.2-5.3l-5.4-4.9h-5.3l-9.6,0.4l-5.8,0.7l-6.3-1l-2.6-2.9l-5.2-0.7l-2.8-2.4l-4-5.7
						l-2.2-4.2l-1.4-4.9l1.1-4.3l-1.9-6.1l-3.4-2.2l-3-3.4l-3.5-0.2l-2.9-4.6l-3.6-4.7l-9.2-3.2l-8.8-6l-2.4-3.3l-0.5-5.6l0.7-10.4
						l-0.4-8.1l1.4-2.9l0.6-5.8l-0.2-4.4l-1.1-2.5l0.2-8.9l-4.3-4.4l-4.4-3.9l-6.2-1.8l-3.2-2.1l-1.9-5l-1.1-5.6l-3.9-7l1.3-3.8
						L8,157l1.5-2.2l0.4-3.6l2.8-6.6l0.4-3.8l-8.5-5.4L0.7,137l0.8-8l2.7-3.2l0.5-9.3l2.7-2.8l0.4-5.8l-1.7-1.5l-2.3-3.2l0.5-12.7
						l-2.9-1.6l-0.2-5.3l1.5-1.8l2-4.3l0.2-6v-4.6l-3.2-2.8l0.5-4.7l7-3.6l2.9-3.9l8.6-7.1l5.8-0.7l6.7-11.7L37.4,27.4z"/>
				</g>
				<g>
					<polygon class="st7" points="217.7,477.4 217.7,486.1 213.3,488.1 213.3,479.5 					"/>
				</g>
				<g>
					<polygon class="st7" points="213.3,479.5 213.3,488.1 207.8,487.1 207.8,478.4 					"/>
				</g>
				<g>
					<polygon class="st1" points="213.4,480.5 213.4,489.2 207.1,488 207.1,479.3 					"/>
				</g>
				<g>
					<path class="st11" d="M254.4,376.7l9.3,17.1l-2.4,5l-4.8,5.4l-3.2,2.5l-0.7,8.2l-2.3,6.3l-4.7,2.7l-17.5,0.4l-3.5,2.4l-5,5.3
						l-2.5,7.1l-1.1,8.5l1.8,7.5l3,6.9l-0.8,5l1.1,5.8l-2.7,5.4l-5.1,2.3l-6.3-1.2l-2.3-5.9l-3.2-3.2l-3.7-3.3l-1.1-3.6l-3.4-2.3
						l-9.1,0.7l-6-4.1l-7-4l-1.9-3.7l-1.1-3.9l-5-5l-5.4-3.9l-3.8-2l-5.2,0.7l-7.4,4h-4.7l-3.7,4h-5.6c-0.4,0.2-1.6,0.8-2.6,0.8
						c-0.4,0-0.8-0.1-1.2-0.3c-0.8-0.5-1.1-1.6-0.8-3.2l0.7-4.8l-3.6-3.5c-1.3-0.3-1.7-1.2-1.9-3.1l-0.4-3.8l7.7-12.7l2.2-6.4
						l4.4-7.6l12.4-16.6l4-10l3.6-5.7l-2.8-9.7l-5.3-3.8l-6-1.7l-7.9,0.7l-6.3,2.5l-5.3,0.8l-4.3-3.1l-3.4-4.1l-1.5-5.5l0.4-6.9
						l1.5-7.1l2.9-5l1.4-4.6l2.2-6.7l-1-4.8l-4.9-4.4h-4.9l-9.5,0.4l-5.9,0.7l-6.8-1.1l-2.6-2.9l-5.1-0.7l-3.1-2.7l-4-5.8l-2.2-4.4
						l-1.5-5.3l1.1-4.3l-1.7-5.5l-3.2-2.1l-2.8-3.1l-3.6-0.2l-3.2-4.9l-3.4-4.4l-9.1-3.2l-9-6.3l-2.6-3.6l-0.5-5.9l0.7-10.4
						l-0.4-8.3l1.4-3l0.5-5.5l-0.2-4.2l-1.1-2.5l0.2-8.7l-4-4.1l-4.3-3.7l-6.1-1.8l-3.5-2.4l-2-5.4l-1.1-5.6l-4-7.1l1.5-4.2l2.2-4.4
						l1.4-2.1l0.4-3.5l2.8-6.6l0.3-3l-7.5-4.8l-5,2l1-9.9l2.7-3.1l0.5-9.3l2.7-2.8l0.3-5L6,107l-2.6-3.5L3.9,91l-2.8-1.6l-0.2-6.2
						l1.7-2l1.9-4.1l0.2-5.7v-4.1l-3.2-2.8l0.6-5.8l7.3-3.8l2.9-3.8l8.8-7.3l5.6-0.7l6.5-11.4l4.3-6l4.7,4.7l4.3,2.9l2.5,2.1
						l8.1,1.5l3.4,4.1l4.7,4.3l7.8,8.1l2.1,6l7.6,5.7l10.2,7.2l8.8,7.9l4.1,1.8l4.8,6.2l12.1,7.2l3.9,4.2l20.2,0.7l2.3,4.1l5.1,4.3
						l5.5,7.2l10.6,10.5l3.3,5.8l2.6,6l0.4,6.8l-0.7,4.6l2.5,0.3l5.3,1.8l4.6,5.6l2.9,7.6l1.5,6.5l3.7,5.1l2.5,7.8l3.2,3.2l5.2,4.4
						l1.8,6.5l4.5,3.7v5.2l1,4.1c1.5,0,3.2,0.4,5.1,2.8l3,3.7l-0.4,9.2l0.7,5.1l3.4,1.7l9.1,6.7l-0.7,11.5l6.8,5.4l2.6,3.8l0.7,3.5
						l2.8,3.1l4.1,6.7l1.5,6.2l-0.8,7.4l-2.9,6.5l-2.9,5.8l-1.7,2.4l1.3,3.6l3.2,3.9l5.2,8.7l2.3,5.2l-1.9,20.1l-3.6,7.2l-2.2,9.2
						l1.8,8.8L254.4,376.7z M260.5,398.2l2.1-4.4l-9-16.7l-3.3-7l-1.9-9.1l2.3-9.6l3.6-7.1l1.8-19.6l-2.1-4.9l-5.1-8.6l-3.3-4
						l-1.5-4.2l2-2.7l2.9-5.7l2.9-6.4l0.7-7.1l-1.4-6l-4-6.4l-3-3.3l-0.7-3.6l-2.5-3.5l-7.1-5.5l0.7-11.5L226,235l-3.8-1.9l-0.8-5.7
						l0.4-8.9L219,215c-1.7-2.1-3.1-2.5-3.9-2.5l-2.5-5v-4.8l-4.3-3.6l-1.8-6.5l-5-4.2l-3.4-3.4l-2.6-8l-3.7-5.2l-1.5-6.5l-2.9-7.4
						l-4.2-5.2l-4.9-1.7l-3.4-0.4l0.8-5.5l-0.4-6.7l-2.5-5.7l-3.2-5.7L159,116.6l-5.5-7.2l-5.2-4.4l-2.1-3.7l-20.1-0.7l-4.1-4.4
						l-12.2-7.3l-4.7-6l-4-1.8l-8.8-7.9L82,66l-7.8-5.9L72,53.9L64.4,46l-4.7-4.3l-3.2-3.9l-8-1.4l-2.7-2.3l-4.4-2.9l-3.9-3.9
						l-3.6,5L27.2,44l-5.8,0.7l-8.6,7.1l-2.9,3.9l-7,3.6L2.4,64l3.2,2.8v4.6l-0.2,6l-2,4.3l-1.5,1.8l0.2,5.3L5,90.4l-0.5,12.7
						l2.3,3.2l1.7,1.5l-0.4,5.8l-2.7,2.8l-0.5,9.3l-2.7,3.2l-0.8,8l3.9-1.6l8.5,5.4l-0.4,3.8l-2.8,6.6l-0.4,3.6l-1.5,2.2l-2.1,4.3
						L5.3,165l3.9,7l1.1,5.6l1.9,5l3.2,2.1l6.2,1.8l4.4,3.9l4.3,4.4l-0.2,8.9l1.1,2.5l0.2,4.4l-0.6,5.8l-1.4,2.9l0.4,8.1l-0.7,10.4
						l0.5,5.6l2.4,3.3l8.8,6l9.2,3.2l3.6,4.7l2.9,4.6l3.5,0.2l3,3.4l3.4,2.2l1.9,6.1l-1.1,4.3l1.4,4.9l2.2,4.2l4,5.7l2.8,2.4
						l5.2,0.7l2.6,2.9l6.3,1l5.8-0.7l9.6-0.4h5.3l5.4,4.9l1.2,5.3l-3.7,11.8l-2.9,5l-1.4,6.8l-0.4,6.7l1.4,5.2l3.2,3.8l3.8,2.7
						l4.9-0.7l6.3-2.5l8.1-0.7l6.5,1.9l5.6,4.1l3,10.5l-3.8,5.9l-4.1,10.1l-12.4,16.6l-4.4,7.5l-2.2,6.5l-7.6,12.5l0.4,3.4
						c0.2,2,0.6,2.2,0.6,2.2l4.9,4.1L124,441c-0.1,0.8-0.2,1.9,0.4,2.3c1.4,0.2,2.5-0.4,2.9-0.6l5.5-0.1l3.7-4h4.9l7.4-4l5.7-0.7
						l4.2,2.2l5.6,4l5.3,5.2l1.1,4.1l1.7,3.4l6.8,3.9l5.7,3.9l9.2-0.7l4,2.7l1.1,3.6l3.6,3.2l3.4,3.4l2.1,5.5l5.4,1l4.5-2l2.4-4.7
						L219,467l0.7-5l-2.9-6.7l-1.9-7.7l1.1-8.8l2.7-7.4l5.2-5.5l3.8-2.6l17.6-0.4l4.1-2.4l2.1-5.9l0.7-8.4l3.5-2.6L260.5,398.2"/>
				</g>
				<g>
					<polygon class="st1" points="218.4,478.2 218.4,486.9 213.4,489.2 213.4,480.5 					"/>
				</g>
			</g>
			<g class="st0">
				<g>
					<polygon class="st8" points="83.6,1.4 83.6,10.1 83,10.5 83,1.8 					"/>
				</g>
				<g class="st0">
					<g>
						<defs>
							<path id="SVGID_00000021112018934725717200000010147498146042020271_" d="M87.8,4.2v8.7c0-1.3-0.5-2.3-1.3-2.9
								c-0.4-0.3-0.9-0.5-1.4-0.5s-1.1,0.2-1.6,0.6V1.4c0.5-0.4,1-0.6,1.6-0.6c0.5,0,1,0.2,1.4,0.5C87.2,1.9,87.8,2.9,87.8,4.2z"/>
						</defs>
						<clipPath id="SVGID_00000127732985748845215990000012155283114353457816_">
							<use xlink:href="#SVGID_00000021112018934725717200000010147498146042020271_"  style="overflow:visible;"/>
						</clipPath>
						<g style="clip-path:url(#SVGID_00000127732985748845215990000012155283114353457816_);enable-background:new    ;">
							<path class="st8" d="M87.8,4.2v8.7c0-1.3-0.5-2.3-1.3-2.9c-0.4-0.3-0.9-0.5-1.4-0.5s-1.1,0.2-1.6,0.6V1.4
								c0.5-0.4,1-0.6,1.6-0.6c0.5,0,1,0.2,1.4,0.5C87.2,1.9,87.8,2.9,87.8,4.2"/>
						</g>
					</g>
				</g>
				<g>
					<polygon class="st1" points="93.3,4.9 93.3,13.6 92.9,11.8 92.9,3.1 					"/>
				</g>
				<g class="st0">
					<g>
						<defs>
							<path id="SVGID_00000052793391608483855240000010001280341281055654_" d="M93.3,5.4v8.7c0-0.2,0-0.4-0.1-0.6V4.8
								C93.3,5.1,93.3,5.3,93.3,5.4z"/>
						</defs>
						<clipPath id="SVGID_00000084523603837335220140000005645981845303751860_">
							<use xlink:href="#SVGID_00000052793391608483855240000010001280341281055654_"  style="overflow:visible;"/>
						</clipPath>
						<g style="clip-path:url(#SVGID_00000084523603837335220140000005645981845303751860_);enable-background:new    ;">
							<path class="st8" d="M93.3,5.4v8.7c0-0.2,0-0.4-0.1-0.6V4.8C93.3,5.1,93.3,5.3,93.3,5.4"/>
						</g>
					</g>
				</g>
				<g class="st0">
					<g>
						<defs>
							<path id="SVGID_00000178175841043590759010000011042222045278524563_" d="M79.6,15.4V6.7c0-2.2,1.5-3.4,3.4-4.9v8.7
								C81.1,12,79.6,13.2,79.6,15.4z"/>
						</defs>
						<clipPath id="SVGID_00000125602540937954920170000004099192927766959528_">
							<use xlink:href="#SVGID_00000178175841043590759010000011042222045278524563_"  style="overflow:visible;"/>
						</clipPath>
						<g style="clip-path:url(#SVGID_00000125602540937954920170000004099192927766959528_);enable-background:new    ;">
							<path class="st8" d="M83,1.8v8.7c-1,0.8-1.9,1.4-2.5,2.2V4C81.2,3.3,82,2.6,83,1.8"/>
							<path class="st2" d="M80.6,4.1v8.7c-0.2,0.3-0.4,0.6-0.6,0.9V5C80.1,4.6,80.3,4.3,80.6,4.1"/>
							<path class="st4" d="M80,5v8.7c-0.1,0.3-0.2,0.5-0.3,0.8V5.8C79.8,5.5,79.9,5.2,80,5"/>
							<path class="st3" d="M79.7,5.8v8.7c-0.1,0.3-0.1,0.6-0.1,0.9V6.7C79.6,6.4,79.7,6.1,79.7,5.8"/>
						</g>
					</g>
				</g>
				<g class="st0">
					<g>
						<defs>
							<path id="SVGID_00000138569231364895033870000014047982292322161548_" d="M99.6,6.9v8.7c-0.3-0.4-0.6-0.8-1.2-1
								c-0.4-0.2-1-0.3-1.5-0.3c-0.3,0-0.6,0-0.9,0s-0.6,0-0.8,0c-0.3,0-0.6,0-0.8-0.1V5.5c0.3,0.1,0.5,0.1,0.8,0.1s0.6,0,0.8,0
								c0.3,0,0.6,0,0.9,0c0.6,0,1.1,0.1,1.5,0.3C99,6.2,99.3,6.6,99.6,6.9z"/>
						</defs>
						<clipPath id="SVGID_00000134931389924807253130000005979422083870164105_">
							<use xlink:href="#SVGID_00000138569231364895033870000014047982292322161548_"  style="overflow:visible;"/>
						</clipPath>
						<g style="clip-path:url(#SVGID_00000134931389924807253130000005979422083870164105_);enable-background:new    ;">
							<path class="st8" d="M99.6,6.9v8.7c-0.3-0.4-0.6-0.8-1.2-1c-0.4-0.2-1-0.3-1.5-0.3c-0.3,0-0.6,0-0.9,0s-0.6,0-0.8,0
								c-0.3,0-0.6,0-0.8-0.1V5.5c0.3,0.1,0.5,0.1,0.8,0.1s0.6,0,0.8,0c0.3,0,0.6,0,0.9,0c0.6,0,1.1,0.1,1.5,0.3
								C99,6.2,99.3,6.6,99.6,6.9"/>
						</g>
					</g>
				</g>
				<g class="st0">
					<g>
						<defs>
							<path id="SVGID_00000044887183902317410260000011335772981333411519_" d="M90.4,18.7V10c0-0.9,0.7-1.3,1.7-1.9
								c1-0.5,2.2-1.1,2.2-2.6v8.7c-0.1,1.5-1.3,2.1-2.2,2.6C91.1,17.4,90.4,17.8,90.4,18.7z"/>
						</defs>
						<clipPath id="SVGID_00000085216468341226524230000014403289175946403001_">
							<use xlink:href="#SVGID_00000044887183902317410260000011335772981333411519_"  style="overflow:visible;"/>
						</clipPath>
						<g style="clip-path:url(#SVGID_00000085216468341226524230000014403289175946403001_);enable-background:new    ;">
							<path class="st3" d="M94.3,5.6v8.7c0,0.1,0,0.3-0.1,0.4V6C94.3,5.9,94.3,5.8,94.3,5.6"/>
							<path class="st4" d="M94.3,6v8.7c0,0.2-0.1,0.3-0.2,0.5V6.5C94.2,6.3,94.2,6.2,94.3,6"/>
							<path class="st2" d="M94.1,6.5v8.7c-0.1,0.2-0.2,0.3-0.3,0.5V7C93.9,6.8,94,6.7,94.1,6.5"/>
							<path class="st8" d="M93.8,6.9v8.7c-0.4,0.6-1.1,0.9-1.7,1.2c-0.6,0.3-1.1,0.6-1.4,1V9.1c0.3-0.4,0.8-0.6,1.4-1
								C92.7,7.9,93.4,7.5,93.8,6.9"/>
							<path class="st2" d="M90.7,9.1v8.7c-0.1,0.1-0.1,0.2-0.2,0.3V9.4C90.6,9.3,90.6,9.2,90.7,9.1"/>
							<path class="st4" d="M90.5,9.4v8.7c0,0.1-0.1,0.2-0.1,0.3V9.7C90.5,9.6,90.5,9.5,90.5,9.4"/>
							<path class="st3" d="M90.4,9.7v8.7c0,0.1,0,0.2,0,0.4V10C90.4,9.9,90.4,9.8,90.4,9.7"/>
						</g>
					</g>
				</g>
				<g class="st0">
					<g>
						<defs>
							<path id="SVGID_00000152263080581081006240000017355852626434488470_" d="M105.4,10.1v8.7c0-0.1,0-0.2,0-0.3
								c-0.3-1.2-0.9-1.2-1.9-1.2c-0.4,0-0.9,0-1.5-0.1c-1.3-0.3-1.9-1-2.4-1.6V6.9c0.5,0.6,1,1.3,2.4,1.6c0.5,0.1,1,0.1,1.5,0.1
								c1.1,0,1.6,0,1.9,1.2C105.4,10,105.4,10,105.4,10.1z"/>
						</defs>
						<clipPath id="SVGID_00000137846251906269201710000003735495100342900645_">
							<use xlink:href="#SVGID_00000152263080581081006240000017355852626434488470_"  style="overflow:visible;"/>
						</clipPath>
						<g style="clip-path:url(#SVGID_00000137846251906269201710000003735495100342900645_);enable-background:new    ;">
							<path class="st8" d="M105.4,10.1v8.7c0-0.1,0-0.2,0-0.3c-0.3-1.2-0.9-1.2-1.9-1.2c-0.4,0-0.9,0-1.5-0.1
								c-1.3-0.3-1.9-1-2.4-1.6V6.9c0.5,0.6,1,1.3,2.4,1.6c0.5,0.1,1,0.1,1.5,0.1c1.1,0,1.6,0,1.9,1.2C105.4,10,105.4,10,105.4,10.1
								"/>
						</g>
					</g>
				</g>
				<g class="st0">
					<g>
						<defs>
							<path id="SVGID_00000000936676850925654880000006214104783523977365_" d="M79.6,15.4V6.7c0,0.3,0,0.6,0.1,0.9
								c0.3,2.1,1.6,3.8,3.4,4.5v8.7c-1.8-0.7-3.1-2.4-3.4-4.5C79.7,16,79.6,15.7,79.6,15.4z"/>
						</defs>
						<clipPath id="SVGID_00000118382975395332004040000011797519802276832927_">
							<use xlink:href="#SVGID_00000000936676850925654880000006214104783523977365_"  style="overflow:visible;"/>
						</clipPath>
						<g style="clip-path:url(#SVGID_00000118382975395332004040000011797519802276832927_);enable-background:new    ;">
							<path class="st17" d="M83.1,12.1v8.7c-1.8-0.7-3.1-2.4-3.4-4.5c-0.1-0.3-0.1-0.6-0.1-0.9V6.7c0,0.3,0,0.6,0.1,0.9
								C80,9.7,81.3,11.4,83.1,12.1"/>
						</g>
					</g>
				</g>
				<g class="st0">
					<g>
						<defs>
							<path id="SVGID_00000099645531612771919710000015002994375914043542_" d="M85.1,18.2c-0.7,0.9-1.5,1.7-2,2.6v-8.7
								c0.5-0.9,1.3-1.8,2-2.6c0.9-1.1,1.8-2.1,2.2-3.2c0.3-0.8,0.4-1.5,0.4-2.1v8.7c0,0.6-0.1,1.3-0.4,2.1
								C87,16,86.1,17.1,85.1,18.2z"/>
						</defs>
						<clipPath id="SVGID_00000108993399727238482220000004392280248735158668_">
							<use xlink:href="#SVGID_00000099645531612771919710000015002994375914043542_"  style="overflow:visible;"/>
						</clipPath>
						<g style="clip-path:url(#SVGID_00000108993399727238482220000004392280248735158668_);enable-background:new    ;">
							<path class="st20" d="M87.8,4.2v8.7c0,0.4,0,0.7-0.1,1.1V5.3C87.8,4.9,87.8,4.6,87.8,4.2"/>
							<path class="st21" d="M87.7,5.3V14c-0.1,0.3-0.2,0.6-0.3,1c0,0.1-0.1,0.2-0.1,0.3V6.6c0-0.1,0.1-0.2,0.1-0.3
								C87.5,6,87.6,5.6,87.7,5.3"/>
							<path class="st22" d="M87.3,6.6v8.7c-0.3,0.6-0.7,1.2-1.1,1.8V8.4C86.6,7.7,87,7.2,87.3,6.6"/>
							<path class="st17" d="M86.1,8.3V17c-0.3,0.4-0.6,0.8-1,1.2c-0.3,0.4-0.7,0.8-1,1.2v-8.7c0.3-0.4,0.7-0.8,1-1.2
								C85.5,9.1,85.8,8.7,86.1,8.3"/>
							<path class="st22" d="M84.1,10.7v8.7c-0.4,0.5-0.7,0.9-1,1.4v-8.7C83.4,11.6,83.8,11.2,84.1,10.7"/>
						</g>
					</g>
				</g>
				<g>
					<path class="st12" d="M85.1,0.8c0.5,0,1,0.2,1.4,0.5c1.1,0.8,1.8,2.7,0.8,5c-0.4,1.1-1.3,2.1-2.2,3.2c-0.7,0.9-1.5,1.7-2,2.6
						c-1.8-0.7-3.1-2.4-3.4-4.5c-0.4-2.8,1.1-4.1,3.3-5.8l0.6-0.4C84.1,1,84.6,0.8,85.1,0.8z"/>
				</g>
				<g class="st0">
					<g>
						<defs>
							<path id="SVGID_00000036962659687853071710000002901749916052472759_" d="M88.8,4.2v8.7c0,0.8-0.1,1.6-0.5,2.5
								c-0.5,1.2-1.4,2.4-2.4,3.5c-0.8,0.9-1.6,1.9-2.1,2.8V13c0.5-0.9,1.3-1.9,2.1-2.8c1-1.1,1.9-2.3,2.4-3.5
								C88.6,5.8,88.8,5,88.8,4.2z"/>
						</defs>
						<clipPath id="SVGID_00000050646189612134465740000015268068495557051537_">
							<use xlink:href="#SVGID_00000036962659687853071710000002901749916052472759_"  style="overflow:visible;"/>
						</clipPath>
						<g style="clip-path:url(#SVGID_00000050646189612134465740000015268068495557051537_);enable-background:new    ;">
							<path class="st3" d="M88.8,4.2v8.7c0,0.4,0,0.9-0.2,1.3V5.5C88.7,5.1,88.8,4.6,88.8,4.2"/>
							<path class="st4" d="M88.6,5.5v8.7c-0.1,0.4-0.2,0.7-0.3,1.1c0,0.1-0.1,0.2-0.1,0.3V7c0.1-0.1,0.1-0.2,0.1-0.3
								C88.4,6.3,88.6,5.9,88.6,5.5"/>
							<path class="st2" d="M88.2,7v8.7c-0.3,0.7-0.8,1.3-1.3,2V9C87.4,8.3,87.8,7.7,88.2,7"/>
							<path class="st8" d="M86.9,9v8.7c-0.3,0.4-0.6,0.8-1,1.2c-0.3,0.4-0.6,0.8-0.9,1.1v-8.7c0.3-0.4,0.6-0.8,0.9-1.1
								C86.2,9.7,86.6,9.3,86.9,9"/>
							<path class="st2" d="M85,11.3V20c-0.4,0.6-0.9,1.1-1.2,1.7V13C84.1,12.4,84.5,11.8,85,11.3"/>
						</g>
					</g>
				</g>
				<g class="st0">
					<g>
						<defs>
							<path id="SVGID_00000147915561570500459590000013521322973210212263_" d="M78.6,15.4V6.7c0,0.3,0,0.7,0.1,1
								c0.4,2.6,2.1,4.7,4.5,5.5v8.7c-2.4-0.8-4.1-2.9-4.5-5.5C78.7,16.1,78.6,15.7,78.6,15.4z"/>
						</defs>
						<clipPath id="SVGID_00000129197506863744822550000009695094953405412744_">
							<use xlink:href="#SVGID_00000147915561570500459590000013521322973210212263_"  style="overflow:visible;"/>
						</clipPath>
						<g style="clip-path:url(#SVGID_00000129197506863744822550000009695094953405412744_);enable-background:new    ;">
							<path class="st8" d="M83.2,13.2v8.7c-2.4-0.8-4.1-2.9-4.5-5.5c-0.1-0.4-0.1-0.7-0.1-1V6.7c0,0.3,0,0.7,0.1,1
								C79.1,10.4,80.8,12.4,83.2,13.2"/>
						</g>
					</g>
				</g>
				<g class="st0">
					<g>
						<defs>
							<path id="SVGID_00000082330164664217915460000009523020924498448537_" d="M105.4,18.8c0,0.8-0.6,2.4-1.2,3.2c0-0.3,0-0.7,0-1
								s0-0.8,0-1.1c0-0.3,0-0.8,0-1.1c0-0.3,0-0.8,0-1.1c0-0.3,0-0.8,0-1.1c0-0.3,0-0.8,0-1.1c0-0.3,0-0.8,0-1.1c0-0.3,0-0.7,0-1
								l0,0c0,0.3,0,0.7,0,1s0,0.8,0,1.1c0,0.3,0,0.8,0,1.1c0,0.3,0,0.8,0,1.1c0,0.3,0,0.8,0,1.1c0,0.3,0,0.8,0,1.1
								c0,0.3,0,0.8,0,1.1c0,0.3,0,0.7,0,1c0-0.3,0-0.7,0-1s0-0.8,0-1.1c0-0.3,0-0.8,0-1.1c0-0.3,0-0.8,0-1.1c0-0.3,0-0.8,0-1.1
								c0-0.3,0-0.8,0-1.1c0-0.3,0-0.8,0-1.1c0-0.3,0-0.7,0-1c0.6-0.8,1.2-2.3,1.2-3.1C105.4,12.7,105.4,16.2,105.4,18.8z"/>
						</defs>
						<clipPath id="SVGID_00000105410108731978093170000012733103073976127917_">
							<use xlink:href="#SVGID_00000082330164664217915460000009523020924498448537_"  style="overflow:visible;"/>
						</clipPath>
						<g style="clip-path:url(#SVGID_00000105410108731978093170000012733103073976127917_);enable-background:new    ;">
							<path class="st20" d="M105.4,10.1v8.7c0,0.2,0,0.4-0.1,0.6v-8.7C105.4,10.5,105.4,10.3,105.4,10.1"/>
							<path class="st21" d="M105.3,10.8v8.7c-0.1,0.5-0.3,1.1-0.6,1.6v-8.7C105,11.9,105.2,11.3,105.3,10.8"/>
							<path class="st22" d="M104.7,12.4v8.7c-0.2,0.4-0.3,0.7-0.5,0.9c-0.1,0.1-0.1,0.2-0.2,0.2v-8.7c0.1-0.1,0.1-0.1,0.2-0.2
								C104.4,13.1,104.6,12.7,104.7,12.4"/>
						</g>
					</g>
				</g>
				<g>
					<path class="st11" d="M87.1,0.5c1.4,1,2.3,3.3,1.2,6.1c-0.5,1.2-1.4,2.4-2.4,3.5c-0.8,0.9-1.6,1.9-2.1,2.8l-0.2,0.4l-0.4-0.1
						c-2.4-0.8-4.1-2.9-4.5-5.5c-0.5-3.4,1.5-5,3.7-6.7L83,0.5c0.7-0.5,1.4-0.7,2.2-0.7C85.8-0.1,86.5,0.1,87.1,0.5z M87.4,6.3
						c0.9-2.3,0.2-4.2-0.8-5c-0.4-0.3-0.9-0.5-1.4-0.5S84.1,1,83.6,1.4L83,1.8c-2.2,1.7-3.8,2.9-3.3,5.8c0.3,2.1,1.6,3.8,3.4,4.5
						c0.5-0.9,1.3-1.8,2-2.6C86.1,8.4,87,7.4,87.4,6.3"/>
				</g>
				<g>
					<polygon class="st1" points="83.6,13.3 83.6,22 83.2,21.9 83.2,13.2 					"/>
				</g>
				<g>
					<polygon class="st4" points="83.8,13 83.8,21.6 83.6,22 83.6,13.3 					"/>
				</g>
				<g class="st0">
					<g>
						<defs>
							<path id="SVGID_00000056428144791072625490000015597712642486133667_" d="M90.4,18.9c0-0.1,0-0.1,0-0.2V10c0,0.1,0,0.1,0,0.2
								c0.1,0.6,1.8,2.8,2.4,3.2v8.7C92.2,21.7,90.5,19.5,90.4,18.9z"/>
						</defs>
						<clipPath id="SVGID_00000041988608043177509930000009304057021542262941_">
							<use xlink:href="#SVGID_00000056428144791072625490000015597712642486133667_"  style="overflow:visible;"/>
						</clipPath>
						<g style="clip-path:url(#SVGID_00000041988608043177509930000009304057021542262941_);enable-background:new    ;">
							<path class="st17" d="M92.8,13.4v8.7c-0.6-0.4-2.3-2.6-2.4-3.2c0-0.1,0-0.1,0-0.2V10c0,0.1,0,0.1,0,0.2
								C90.5,10.8,92.2,13.1,92.8,13.4"/>
						</g>
					</g>
				</g>
				<g class="st0">
					<g>
						<defs>
							<path id="SVGID_00000147193301209551206620000008815225040514759092_" d="M93.7,13.5v8.7c-0.3,0-0.8,0-0.9-0.1v-8.7
								C92.9,13.5,93.4,13.5,93.7,13.5z"/>
						</defs>
						<clipPath id="SVGID_00000036253865129576144230000011603222461823849407_">
							<use xlink:href="#SVGID_00000147193301209551206620000008815225040514759092_"  style="overflow:visible;"/>
						</clipPath>
						<g style="clip-path:url(#SVGID_00000036253865129576144230000011603222461823849407_);enable-background:new    ;">
							<path class="st17" d="M93.7,13.5v8.7c-0.3,0-0.8,0-0.9-0.1v-8.7C92.9,13.5,93.4,13.5,93.7,13.5"/>
						</g>
					</g>
				</g>
				<g class="st0">
					<g>
						<defs>
							<path id="SVGID_00000008863783648642452190000006333860534264503962_" d="M95,22.3c-0.3-0.1-0.7-0.1-1.2-0.1v-8.7
								c0.4,0,0.8,0,1.2,0.1c0.4,0.2,0.7,0.4,1,0.7c0,0.3,0,0.7,0,1s0,0.8,0,1.1c0,0.3,0,0.8,0,1.1c0,0.3,0,0.8,0,1.1s0,0.8,0,1.1
								c0,0.3,0,0.8,0,1.1c0,0.3,0,0.8,0,1.1c0,0.3,0,0.7,0,1c0-0.3,0-0.7,0-1s0-0.8,0-1.1c0-0.3,0-0.8,0-1.1c0-0.3,0-0.8,0-1.1
								s0-0.8,0-1.1c0-0.3,0-0.8,0-1.1c0-0.3,0-0.8,0-1.1c0-0.3,0-0.7,0-1l0,0c0.2,0.2,0.4,0.3,0.6,0.4c0,0.3,0,0.7,0,1s0,0.8,0,1.1
								c0,0.3,0,0.8,0,1.1c0,0.3,0,0.8,0,1.1c0,0.3,0,0.8,0,1.1c0,0.3,0,0.8,0,1.1c0,0.3,0,0.8,0,1.1c0,0.3,0,0.7,0,1
								c0-0.3,0-0.7,0-1s0-0.8,0-1.1c0-0.3,0-0.8,0-1.1c0-0.3,0-0.8,0-1.1c0-0.3,0-0.8,0-1.1c0-0.3,0-0.8,0-1.1c0-0.3,0-0.8,0-1.1
								c0-0.3,0-0.7,0-1l0,0l0,0c0,0.3,0,0.7,0,1s0,0.8,0,1.1c0,0.3,0,0.8,0,1.1c0,0.3,0,0.8,0,1.1s0,0.8,0,1.1c0,0.3,0,0.8,0,1.1
								c0,0.3,0,0.8,0,1.1c0,0.3,0,0.7,0,1c0-0.3,0-0.7,0-1s0-0.8,0-1.1c0-0.3,0-0.8,0-1.1c0-0.3,0-0.8,0-1.1s0-0.8,0-1.1
								c0-0.3,0-0.8,0-1.1c0-0.3,0-0.8,0-1.1c0-0.3,0-0.7,0-1c0.9,0.4,2.1,0.9,3.4,0.9l0,0c0,0.3,0,0.7,0,1s0,0.8,0,1.1
								c0,0.3,0,0.8,0,1.1c0,0.3,0,0.8,0,1.1c0,0.3,0,0.8,0,1.1c0,0.3,0,0.8,0,1.1c0,0.3,0,0.8,0,1.1c0,0.3,0,0.7,0,1l0,0
								c-1.3,0-2.5-0.4-3.4-0.9c-0.2-0.1-0.4-0.2-0.6-0.4C95.7,22.7,95.4,22.5,95,22.3z"/>
						</defs>
						<clipPath id="SVGID_00000098214175096999865940000013594117222809695625_">
							<use xlink:href="#SVGID_00000008863783648642452190000006333860534264503962_"  style="overflow:visible;"/>
						</clipPath>
						<g style="clip-path:url(#SVGID_00000098214175096999865940000013594117222809695625_);enable-background:new    ;">
							<path class="st17" d="M104,13.5v8.7c-1.2,1.6-2.7,2.1-4.1,2.1c-1.3,0-2.5-0.4-3.4-0.9c-0.2-0.1-0.4-0.2-0.6-0.4
								c-0.3-0.2-0.6-0.5-1-0.7c-0.3-0.1-0.7-0.1-1.2-0.1v-8.7c0.4,0,0.8,0,1.2,0.1c0.4,0.2,0.7,0.4,1,0.7c0.2,0.2,0.4,0.3,0.6,0.4
								c0.9,0.4,2.1,0.9,3.4,0.9C101.3,15.6,102.8,15.1,104,13.5"/>
						</g>
					</g>
				</g>
				<g class="st0">
					<g>
						<defs>
							<path id="SVGID_00000062171155797468624290000002453175023710968199_" d="M89.4,18.7V10c0,0.1,0,0.2,0,0.3
								c0.1,1,2.2,3.5,2.9,3.9c0.3,0.2,0.9,0.2,1.4,0.2c0.3,0,0.7,0,0.9,0.1v8.7c-0.2-0.1-0.6-0.1-0.9-0.1c-0.6,0-1.1,0-1.4-0.2
								c-0.7-0.4-2.8-2.9-2.9-3.9C89.4,18.9,89.4,18.8,89.4,18.7z"/>
						</defs>
						<clipPath id="SVGID_00000071554546576639900590000002513076847896580532_">
							<use xlink:href="#SVGID_00000062171155797468624290000002453175023710968199_"  style="overflow:visible;"/>
						</clipPath>
						<g style="clip-path:url(#SVGID_00000071554546576639900590000002513076847896580532_);enable-background:new    ;">
							<path class="st8" d="M94.6,14.5v8.7c-0.2-0.1-0.6-0.1-0.9-0.1c-0.6,0-1.1,0-1.4-0.2c-0.7-0.4-2.8-2.9-2.9-3.9
								c0-0.1,0-0.2,0-0.3V10c0,0.1,0,0.2,0,0.3c0.1,1,2.2,3.5,2.9,3.9c0.3,0.2,0.9,0.2,1.4,0.2C94,14.5,94.4,14.5,94.6,14.5"/>
						</g>
					</g>
				</g>
				<g class="st0">
					<g>
						<defs>
							<path id="SVGID_00000025424018707280730110000016839009897432918194_" d="M104.2,22c-1.3,1.7-2.8,2.3-4.3,2.3
								c0-0.3,0-0.7,0-1s0-0.8,0-1.1c0-0.3,0-0.8,0-1.1c0-0.3,0-0.8,0-1.1c0-0.3,0-0.8,0-1.1c0-0.3,0-0.8,0-1.1c0-0.3,0-0.8,0-1.1
								c0-0.3,0-0.7,0-1c1.5,0,3-0.5,4.3-2.3c0,0.3,0,0.7,0,1s0,0.8,0,1.1c0,0.3,0,0.8,0,1.1c0,0.3,0,0.8,0,1.1c0,0.3,0,0.8,0,1.1
								c0,0.3,0,0.8,0,1.1c0,0.3,0,0.8,0,1.1C104.2,21.3,104.3,21.7,104.2,22z"/>
						</defs>
						<clipPath id="SVGID_00000061452862461214668660000017233223300822249392_">
							<use xlink:href="#SVGID_00000025424018707280730110000016839009897432918194_"  style="overflow:visible;"/>
						</clipPath>
						<g style="clip-path:url(#SVGID_00000061452862461214668660000017233223300822249392_);enable-background:new    ;">
							<path class="st22" d="M104.7,12.4v8.7c-0.2,0.4-0.3,0.7-0.5,0.9c-0.1,0.1-0.1,0.2-0.2,0.2v-8.7c0.1-0.1,0.1-0.1,0.2-0.2
								C104.4,13.1,104.6,12.7,104.7,12.4"/>
							<path class="st17" d="M104,13.5v8.7c-1.2,1.6-2.7,2.1-4.1,2.1c-1.3,0-2.5-0.4-3.4-0.9c-0.2-0.1-0.4-0.2-0.6-0.4
								c-0.3-0.2-0.6-0.5-1-0.7c-0.3-0.1-0.7-0.1-1.2-0.1v-8.7c0.4,0,0.8,0,1.2,0.1c0.4,0.2,0.7,0.4,1,0.7c0.2,0.2,0.4,0.3,0.6,0.4
								c0.9,0.4,2.1,0.9,3.4,0.9C101.3,15.6,102.8,15.1,104,13.5"/>
						</g>
					</g>
				</g>
				<g>
					<path class="st12" d="M94.3,5.6c0.3,0.1,0.5,0.1,0.8,0.1s0.5,0,0.8,0s0.6,0,0.9,0c0.6,0,1.1,0.1,1.5,0.3c0.5,0.3,0.8,0.7,1.2,1
						c0.5,0.6,1,1.3,2.4,1.6c0.5,0.1,1,0.1,1.5,0.1c1.1,0,1.6,0,1.9,1.2c0.2,0.7-0.5,2.6-1.1,3.4c-1.3,1.7-2.8,2.3-4.3,2.3
						c-1.3,0-2.5-0.4-3.4-0.9c-0.2-0.1-0.4-0.2-0.6-0.4c-0.3-0.2-0.6-0.5-1-0.7c-0.3-0.1-0.7-0.1-1.2-0.1h-0.1c-0.3,0-0.8,0-0.9-0.1
						c-0.6-0.4-2.3-2.6-2.4-3.2c-0.1-1.1,0.6-1.5,1.7-2.1C93.1,7.7,94.3,7.1,94.3,5.6z"/>
				</g>
				<g class="st0">
					<g>
						<defs>
							<path id="SVGID_00000138541639962771691310000007124445192247192202_" d="M106.4,10.1v8.7c0,1.2-0.8,3-1.3,3.7
								c-1.3,1.8-3.1,2.7-5.1,2.7c-1.2,0-2.5-0.3-3.8-1c-0.3-0.2-0.6-0.4-0.8-0.6c-0.2-0.2-0.4-0.4-0.7-0.5v-8.7
								c0.3,0.1,0.5,0.3,0.7,0.5s0.5,0.4,0.8,0.6c1.3,0.6,2.6,1,3.8,1c2,0,3.8-0.9,5.1-2.7C105.6,13.2,106.4,11.4,106.4,10.1z"/>
						</defs>
						<clipPath id="SVGID_00000083077390973357844360000001914003782372286642_">
							<use xlink:href="#SVGID_00000138541639962771691310000007124445192247192202_"  style="overflow:visible;"/>
						</clipPath>
						<g style="clip-path:url(#SVGID_00000083077390973357844360000001914003782372286642_);enable-background:new    ;">
							<path class="st3" d="M106.4,10.1v8.7c0,0.3,0,0.6-0.1,0.9V11C106.3,10.7,106.4,10.4,106.4,10.1"/>
							<path class="st4" d="M106.3,11v8.7c-0.1,0.6-0.4,1.2-0.6,1.8v-8.7C105.9,12.2,106.1,11.6,106.3,11"/>
							<path class="st2" d="M105.7,12.8v8.7c-0.2,0.5-0.4,0.8-0.6,1.1c-0.1,0.1-0.1,0.2-0.2,0.2v-8.7c0.1-0.1,0.1-0.2,0.2-0.2
								C105.2,13.6,105.4,13.2,105.7,12.8"/>
							<path class="st8" d="M104.9,14.1v8.7c-1.3,1.6-3,2.4-4.9,2.4c-1.2,0-2.5-0.3-3.8-1c-0.3-0.2-0.6-0.4-0.8-0.6
								c-0.2-0.2-0.4-0.4-0.7-0.5v-8.7c0.3,0.1,0.5,0.3,0.7,0.5s0.5,0.4,0.8,0.6c1.3,0.6,2.6,1,3.8,1
								C101.9,16.6,103.6,15.7,104.9,14.1"/>
						</g>
					</g>
				</g>
				<g>
					<path class="st11" d="M106.3,9.6c0.3,1.2-0.7,3.4-1.3,4.3c-1.3,1.8-3.1,2.7-5.1,2.7c-1.2,0-2.5-0.3-3.8-1
						c-0.3-0.2-0.6-0.4-0.8-0.6c-0.2-0.2-0.4-0.4-0.7-0.5c-0.2-0.1-0.6-0.1-0.9-0.1c-0.6,0-1.1,0-1.4-0.2c-0.7-0.4-2.8-2.9-2.9-3.9
						c-0.2-1.8,1.1-2.5,2.2-3c1.2-0.7,1.9-1.1,1.6-2.4l-0.4-1.8l1.3,1.4c0.2,0.2,0.5,0.2,1,0.2c0.3,0,0.5,0,0.8,0s0.6,0,0.9,0
						c0.7,0,1.4,0.1,2,0.4c0.7,0.4,1.1,0.9,1.5,1.3c0.4,0.5,0.8,1,1.8,1.2c0.4,0.1,0.9,0.1,1.3,0.1C104.5,7.7,105.8,7.7,106.3,9.6z
						 M104.2,13.3c0.6-0.9,1.3-2.8,1.1-3.4c-0.3-1.2-0.9-1.2-1.9-1.2c-0.4,0-0.9,0-1.5-0.1c-1.3-0.3-1.9-1-2.4-1.6
						c-0.3-0.4-0.6-0.8-1.2-1c-0.4-0.2-1-0.3-1.5-0.3c-0.3,0-0.6,0-0.9,0s-0.6,0-0.8,0c-0.3,0-0.6,0-0.8-0.1
						c-0.1,1.5-1.3,2.1-2.2,2.6c-1.1,0.6-1.8,1-1.7,2.1c0.1,0.6,1.8,2.8,2.4,3.2c0.1,0.1,0.6,0.1,0.9,0.1h0.1c0.4,0,0.8,0,1.2,0.1
						c0.4,0.2,0.7,0.4,1,0.7c0.2,0.2,0.4,0.3,0.6,0.4c0.9,0.4,2.1,0.9,3.4,0.9C101.4,15.6,103,15,104.2,13.3"/>
				</g>
			</g>
			<g class="st0">
				<g class="st0">
					<g>
						<defs>
							<path id="SVGID_00000093867807002651540790000013700254801257458609_" d="M320,278.5v8.7c-1.4,0.7-1.9,1.2-2.9,2.1v-8.7
								C318.2,279.6,318.6,279.2,320,278.5z"/>
						</defs>
						<clipPath id="SVGID_00000054988688924235959730000010861149946069576064_">
							<use xlink:href="#SVGID_00000093867807002651540790000013700254801257458609_"  style="overflow:visible;"/>
						</clipPath>
						<g style="clip-path:url(#SVGID_00000054988688924235959730000010861149946069576064_);enable-background:new    ;">
							<path class="st8" d="M320,278.5v8.7c-1.4,0.7-1.9,1.2-2.9,2.1v-8.7C318.2,279.6,318.6,279.2,320,278.5"/>
						</g>
					</g>
				</g>
				<g>
					<polygon class="st8" points="317.2,280.6 317.2,289.3 316.7,289.7 316.7,281 					"/>
				</g>
				<g class="st0">
					<g>
						<defs>
							<path id="SVGID_00000160150316660683758270000010281002579345128609_" d="M325.3,281.8v8.7c0-1.6-1.4-2.2-3.5-2.8
								c-0.6-0.2-1.2-0.3-1.7-0.6v-8.7c0.5,0.2,1.1,0.4,1.7,0.6C323.8,279.6,325.3,280.2,325.3,281.8z"/>
						</defs>
						<clipPath id="SVGID_00000146457458794744662750000011499985715251387814_">
							<use xlink:href="#SVGID_00000160150316660683758270000010281002579345128609_"  style="overflow:visible;"/>
						</clipPath>
						<g style="clip-path:url(#SVGID_00000146457458794744662750000011499985715251387814_);enable-background:new    ;">
							<path class="st8" d="M325.3,281.8v8.7c0-1.6-1.4-2.2-3.5-2.8c-0.6-0.2-1.2-0.3-1.7-0.6v-8.7c0.5,0.2,1.1,0.4,1.7,0.6
								C323.8,279.6,325.3,280.2,325.3,281.8"/>
						</g>
					</g>
				</g>
				<g class="st0">
					<g>
						<defs>
							<path id="SVGID_00000132779589097847343040000012605661564929641603_" d="M313.5,293v-8.7c0-0.6,0.1-1,0.3-1.4
								c0.3-0.5,0.9-0.8,1.5-1c0.5-0.2,1-0.5,1.4-0.9v8.7c-0.4,0.4-0.9,0.6-1.4,0.9c-0.6,0.3-1.2,0.6-1.5,1
								C313.6,292,313.5,292.5,313.5,293z"/>
						</defs>
						<clipPath id="SVGID_00000079487653942877485030000016024386273166423434_">
							<use xlink:href="#SVGID_00000132779589097847343040000012605661564929641603_"  style="overflow:visible;"/>
						</clipPath>
						<g style="clip-path:url(#SVGID_00000079487653942877485030000016024386273166423434_);enable-background:new    ;">
							<path class="st8" d="M316.7,281v8.7c-0.4,0.4-0.9,0.6-1.4,0.9c-0.6,0.3-1.1,0.5-1.4,0.9v-8.7c0.3-0.4,0.9-0.7,1.4-0.9
								C315.8,281.7,316.3,281.4,316.7,281"/>
							<path class="st2" d="M313.9,282.9v8.7l-0.1,0.1c0,0.1-0.1,0.1-0.1,0.2v-8.7C313.7,283.1,313.7,283,313.9,282.9
								C313.8,282.9,313.8,282.9,313.9,282.9"/>
							<path class="st4" d="M313.7,283.2v8.7c-0.1,0.1-0.1,0.3-0.1,0.4v-8.7C313.6,283.4,313.6,283.3,313.7,283.2"/>
							<path class="st3" d="M313.5,283.6v8.7c0,0.2-0.1,0.5-0.1,0.7v-8.7C313.5,284.1,313.5,283.8,313.5,283.6"/>
						</g>
					</g>
				</g>
				<g class="st0">
					<g>
						<defs>
							<path id="SVGID_00000016780156717832900600000007026176204294423203_" d="M321.9,295.8c-0.4,0.7-0.7,1.4-1.2,1.9
								c0-0.3,0-0.7,0-1s0-0.8,0-1.1c0-0.3,0-0.8,0-1.1c0-0.3,0-0.8,0-1.1c0-0.3,0-0.8,0-1.1c0-0.3,0-0.8,0-1.1c0-0.3,0-0.8,0-1.1
								c0-0.3,0-0.7,0-1c0.5-0.5,0.8-1.2,1.2-1.9c0,0.3,0,0.7,0,1s0,0.7,0,1.1c0,0.3,0,0.8,0,1.1c0,0.3,0,0.8,0,1.1
								c0,0.3,0,0.8,0,1.1c0,0.3,0,0.8,0,1.1c0,0.3,0,0.8,0,1.1C321.9,295,321.9,295.4,321.9,295.8c0-0.3,0-0.7,0-1s0-0.8,0-1.1
								c0-0.3,0-0.8,0-1.1c0-0.3,0-0.8,0-1.1c0-0.3,0-0.8,0-1.1c0-0.3,0-0.8,0-1.1c0-0.3,0-0.7,0-1.1c0-0.3,0-0.7,0-1l0,0
								c0.3-0.6,0.6-1.1,1-1.7c0.3-0.4,0.6-0.7,1-1l0,0c0,0.3,0,0.7,0,1s0,0.7,0,1.1c0,0.3,0,0.8,0,1.1c0,0.3,0,0.8,0,1.1
								c0,0.3,0,0.8,0,1.1c0,0.3,0,0.8,0,1.1c0,0.3,0,0.8,0,1.1c0,0.3,0,0.7,0,1c0-0.3,0-0.7,0-1s0-0.8,0-1.1c0-0.3,0-0.8,0-1.1
								c0-0.3,0-0.8,0-1.1c0-0.3,0-0.8,0-1.1c0-0.3,0-0.8,0-1.1c0-0.3,0-0.7,0-1.1c0-0.3,0-0.7,0-1c0.6-0.6,1.1-1.1,1.3-1.8
								c0,0.3,0,0.7,0,1s0,0.8,0,1.1c0,0.3,0,0.8,0,1.1c0,0.3,0,0.8,0,1.1c0,0.3,0,0.8,0,1.1c0,0.3,0,0.8,0,1.1c0,0.3,0,0.8,0,1.1
								c0,0.3,0,0.7,0,1c0-0.3,0-0.7,0-1s0-0.8,0-1.1c0-0.3,0-0.8,0-1.1c0-0.3,0-0.8,0-1.1c0-0.3,0-0.8,0-1.1c0-0.3,0-0.8,0-1.1
								c0-0.3,0-0.8,0-1.1c0-0.3,0-0.7,0-1l0,0c0.1-0.3,0.1-0.5,0.1-0.8v8.7c0,0.2,0,0.5-0.1,0.8c-0.2,0.7-0.7,1.2-1.3,1.8
								c-0.3,0.3-0.7,0.7-1,1C322.5,294.6,322.2,295.2,321.9,295.8z"/>
						</defs>
						<clipPath id="SVGID_00000111161781013814252650000000947451618579348669_">
							<use xlink:href="#SVGID_00000016780156717832900600000007026176204294423203_"  style="overflow:visible;"/>
						</clipPath>
						<g style="clip-path:url(#SVGID_00000111161781013814252650000000947451618579348669_);enable-background:new    ;">
							<path class="st20" d="M325.3,281.8v8.7c0,0.2,0,0.5-0.1,0.8v-8.7C325.2,282.3,325.3,282,325.3,281.8"/>
							<path class="st21" d="M325.2,282.6v8.7l0,0c0,0.1-0.1,0.3-0.1,0.4V283C325.1,282.8,325.1,282.7,325.2,282.6L325.2,282.6"/>
							<path class="st22" d="M325,283v8.7c-0.1,0.2-0.2,0.4-0.3,0.5v-8.7C324.8,283.3,325,283.1,325,283"/>
							<path class="st17" d="M324.7,283.5v8.7c-0.2,0.3-0.5,0.6-0.8,0.9s-0.6,0.6-0.9,0.9v-8.7c0.3-0.3,0.6-0.6,0.9-0.9
								S324.5,283.8,324.7,283.5"/>
							<path class="st22" d="M323,285.3v8.7l-0.1,0.1c-0.4,0.5-0.7,1.1-1,1.7s-0.6,1.2-1,1.7v-8.7c0.4-0.5,0.7-1.1,1-1.7
								s0.6-1.1,1-1.7L323,285.3"/>
							<path class="st17" d="M320.9,288.8v8.7c-0.1,0.1-0.1,0.2-0.2,0.3c-0.7,0.8-1.9,1.3-3,1.3c-0.1,0-0.1,0-0.2,0
								c-0.7,0-1.7-0.3-2.5-1.3s-1.6-3.2-1.6-4.7v-8.7c0,1.6,0.8,3.7,1.6,4.7c0.8,1,1.8,1.2,2.5,1.3c0.1,0,0.1,0,0.2,0
								c1.1,0,2.2-0.5,3-1.3C320.8,288.9,320.8,288.9,320.9,288.8"/>
						</g>
					</g>
				</g>
				<g class="st0">
					<g>
						<defs>
							<path id="SVGID_00000101096152953616393250000010964243599111351443_" d="M320.7,297.7L320.7,297.7c0-0.3,0-0.7,0-1
								s0-0.8,0-1.1c0-0.3,0-0.8,0-1.1c0-0.3,0-0.8,0-1.1c0-0.3,0-0.8,0-1.1c0-0.3,0-0.8,0-1.1c0-0.3,0-0.8,0-1.1c0-0.3,0-0.7,0-1
								l0,0l0,0c0,0.3,0,0.7,0,1s0,0.8,0,1.1c0,0.3,0,0.8,0,1.1c0,0.3,0,0.8,0,1.1c0,0.3,0,0.8,0,1.1c0,0.3,0,0.8,0,1.1
								c0,0.3,0,0.8,0,1.1C320.7,297,320.7,297.4,320.7,297.7L320.7,297.7z"/>
						</defs>
						<clipPath id="SVGID_00000155142411740316947330000011262257777681030845_">
							<use xlink:href="#SVGID_00000101096152953616393250000010964243599111351443_"  style="overflow:visible;"/>
						</clipPath>
						<g style="clip-path:url(#SVGID_00000155142411740316947330000011262257777681030845_);enable-background:new    ;">
							<path class="st17" d="M320.9,288.8v8.7c-0.1,0.1-0.1,0.2-0.2,0.3c-0.7,0.8-1.9,1.3-3,1.3c-0.1,0-0.1,0-0.2,0
								c-0.7,0-1.7-0.3-2.5-1.3s-1.6-3.2-1.6-4.7v-8.7c0,1.6,0.8,3.7,1.6,4.7c0.8,1,1.8,1.2,2.5,1.3c0.1,0,0.1,0,0.2,0
								c1.1,0,2.2-0.5,3-1.3C320.8,288.9,320.8,288.9,320.9,288.8"/>
						</g>
					</g>
				</g>
				<g class="st0">
					<g>
						<defs>
							<path id="SVGID_00000108309173185234956020000001441728431610555318_" d="M315.1,297.7c-0.8-1-1.6-3.2-1.6-4.7v-8.7
								c0,1.6,0.8,3.7,1.6,4.7l0,0c0,0.3,0,0.7,0,1s0,0.8,0,1.1c0,0.3,0,0.8,0,1.1c0,0.3,0,0.8,0,1.1c0,0.3,0,0.8,0,1.1
								c0,0.3,0,0.8,0,1.1c0,0.3,0,0.8,0,1.1C315.1,297,315.1,297.4,315.1,297.7L315.1,297.7z"/>
						</defs>
						<clipPath id="SVGID_00000067235639871278676530000014734237126576724648_">
							<use xlink:href="#SVGID_00000108309173185234956020000001441728431610555318_"  style="overflow:visible;"/>
						</clipPath>
						<g style="clip-path:url(#SVGID_00000067235639871278676530000014734237126576724648_);enable-background:new    ;">
							<path class="st17" d="M320.9,288.8v8.7c-0.1,0.1-0.1,0.2-0.2,0.3c-0.7,0.8-1.9,1.3-3,1.3c-0.1,0-0.1,0-0.2,0
								c-0.7,0-1.7-0.3-2.5-1.3s-1.6-3.2-1.6-4.7v-8.7c0,1.6,0.8,3.7,1.6,4.7c0.8,1,1.8,1.2,2.5,1.3c0.1,0,0.1,0,0.2,0
								c1.1,0,2.2-0.5,3-1.3C320.8,288.9,320.8,288.9,320.9,288.8"/>
						</g>
					</g>
				</g>
				<g class="st0">
					<g>
						<defs>
							<path id="SVGID_00000080197219660073528450000010812535595683128506_" d="M317.6,299c-0.7,0-1.7-0.3-2.5-1.3c0-0.3,0-0.7,0-1
								s0-0.8,0-1.1c0-0.3,0-0.8,0-1.1c0-0.3,0-0.8,0-1.1c0-0.3,0-0.8,0-1.1c0-0.3,0-0.8,0-1.1c0-0.3,0-0.8,0-1.1c0-0.3,0-0.7,0-1
								c0.8,1,1.8,1.2,2.5,1.3c0,0.3,0,0.7,0,1s0,0.8,0,1.1c0,0.3,0,0.8,0,1.1c0,0.3,0,0.8,0,1.1c0,0.3,0,0.8,0,1.1
								c0,0.3,0,0.8,0,1.1c0,0.3,0,0.8,0,1.1C317.6,298.3,317.6,298.7,317.6,299z"/>
						</defs>
						<clipPath id="SVGID_00000001649785503503527520000014462128264022882946_">
							<use xlink:href="#SVGID_00000080197219660073528450000010812535595683128506_"  style="overflow:visible;"/>
						</clipPath>
						<g style="clip-path:url(#SVGID_00000001649785503503527520000014462128264022882946_);enable-background:new    ;">
							<path class="st17" d="M320.9,288.8v8.7c-0.1,0.1-0.1,0.2-0.2,0.3c-0.7,0.8-1.9,1.3-3,1.3c-0.1,0-0.1,0-0.2,0
								c-0.7,0-1.7-0.3-2.5-1.3s-1.6-3.2-1.6-4.7v-8.7c0,1.6,0.8,3.7,1.6,4.7c0.8,1,1.8,1.2,2.5,1.3c0.1,0,0.1,0,0.2,0
								c1.1,0,2.2-0.5,3-1.3C320.8,288.9,320.8,288.9,320.9,288.8"/>
						</g>
					</g>
				</g>
				<g class="st0">
					<g>
						<defs>
							<path id="SVGID_00000050633580896496449910000015118742934925884073_" d="M320.7,297.7c-0.7,0.8-1.9,1.3-3,1.3
								c0-0.3,0-0.7,0-1s0-0.8,0-1.1c0-0.3,0-0.8,0-1.1c0-0.3,0-0.8,0-1.1c0-0.3,0-0.8,0-1.1c0-0.3,0-0.8,0-1.1c0-0.3,0-0.8,0-1.1
								c0-0.3,0-0.7,0-1c1.1,0,2.2-0.5,3-1.3c0,0.3,0,0.7,0,1s0,0.8,0,1.1c0,0.3,0,0.8,0,1.1c0,0.3,0,0.8,0,1.1c0,0.3,0,0.8,0,1.1
								c0,0.3,0,0.8,0,1.1c0,0.3,0,0.8,0,1.1C320.7,297,320.8,297.4,320.7,297.7z"/>
						</defs>
						<clipPath id="SVGID_00000166661667695059642630000008583104912806061752_">
							<use xlink:href="#SVGID_00000050633580896496449910000015118742934925884073_"  style="overflow:visible;"/>
						</clipPath>
						<g style="clip-path:url(#SVGID_00000166661667695059642630000008583104912806061752_);enable-background:new    ;">
							<path class="st17" d="M320.9,288.8v8.7c-0.1,0.1-0.1,0.2-0.2,0.3c-0.7,0.8-1.9,1.3-3,1.3c-0.1,0-0.1,0-0.2,0
								c-0.7,0-1.7-0.3-2.5-1.3s-1.6-3.2-1.6-4.7v-8.7c0,1.6,0.8,3.7,1.6,4.7c0.8,1,1.8,1.2,2.5,1.3c0.1,0,0.1,0,0.2,0
								c1.1,0,2.2-0.5,3-1.3C320.8,288.9,320.8,288.9,320.9,288.8"/>
						</g>
					</g>
				</g>
				<g class="st0">
					<g>
						<defs>
							<path id="SVGID_00000123438489002182482430000004479213810764189599_" d="M317.6,299L317.6,299c0-0.3,0-0.7,0-1s0-0.8,0-1.1
								c0-0.3,0-0.8,0-1.1c0-0.3,0-0.8,0-1.1c0-0.3,0-0.8,0-1.1c0-0.3,0-0.8,0-1.1c0-0.3,0-0.8,0-1.1c0-0.3,0-0.7,0-1l0,0
								c0.1,0,0.1,0,0.2,0l0,0c0,0.3,0,0.7,0,1s0,0.8,0,1.1c0,0.3,0,0.8,0,1.1c0,0.3,0,0.8,0,1.1c0,0.3,0,0.8,0,1.1
								c0,0.3,0,0.8,0,1.1c0,0.3,0,0.8,0,1.1c0,0.3,0,0.7,0,1l0,0C317.7,299,317.6,299,317.6,299z"/>
						</defs>
						<clipPath id="SVGID_00000096059601480753193190000008062100714157382833_">
							<use xlink:href="#SVGID_00000123438489002182482430000004479213810764189599_"  style="overflow:visible;"/>
						</clipPath>
						<g style="clip-path:url(#SVGID_00000096059601480753193190000008062100714157382833_);enable-background:new    ;">
							<path class="st17" d="M320.9,288.8v8.7c-0.1,0.1-0.1,0.2-0.2,0.3c-0.7,0.8-1.9,1.3-3,1.3c-0.1,0-0.1,0-0.2,0
								c-0.7,0-1.7-0.3-2.5-1.3s-1.6-3.2-1.6-4.7v-8.7c0,1.6,0.8,3.7,1.6,4.7c0.8,1,1.8,1.2,2.5,1.3c0.1,0,0.1,0,0.2,0
								c1.1,0,2.2-0.5,3-1.3C320.8,288.9,320.8,288.9,320.9,288.8"/>
						</g>
					</g>
				</g>
				<g>
					<path class="st11" d="M322,278.1c2.1,0.6,4.9,1.4,4.1,4.7c-0.2,1-0.9,1.7-1.6,2.3c-0.3,0.3-0.6,0.6-0.9,0.9
						c-0.3,0.5-0.6,1-0.9,1.5c-0.4,0.7-0.8,1.5-1.4,2.2c-1,1-2.3,1.6-3.7,1.6h-0.2c-1.3,0-2.4-0.6-3.2-1.6c-1.2-1.5-2.6-5.4-1.3-7.2
						c0.5-0.7,1.2-1.1,1.9-1.4c0.4-0.2,0.9-0.4,1.2-0.7l0.4-0.4c1.1-1,1.6-1.6,3.4-2.4l0.2-0.1l0.2,0.1
						C320.7,277.7,321.3,277.9,322,278.1z M325.2,282.6c0.5-2.3-1.1-2.9-3.4-3.6c-0.6-0.2-1.2-0.3-1.7-0.6c-1.4,0.7-1.9,1.2-2.9,2.1
						l-0.5,0.4c-0.4,0.4-0.9,0.6-1.4,0.9c-0.6,0.3-1.2,0.6-1.5,1c-0.9,1.3,0.2,4.7,1.3,6.1c0.8,1,1.8,1.2,2.5,1.3c0.1,0,0.1,0,0.2,0
						c1.1,0,2.2-0.5,3-1.3c0.5-0.5,0.9-1.2,1.2-2c0.3-0.6,0.6-1.1,1-1.7c0.3-0.4,0.6-0.7,1-1C324.5,283.8,325,283.3,325.2,282.6"/>
				</g>
				<g>
					<path class="st12" d="M320,278.5c0.5,0.2,1.1,0.4,1.7,0.6c2.4,0.7,3.9,1.3,3.4,3.6c-0.2,0.7-0.7,1.2-1.3,1.8
						c-0.3,0.3-0.7,0.7-1,1c-0.4,0.5-0.7,1.1-1,1.7c-0.4,0.7-0.7,1.4-1.2,1.9c-0.7,0.8-1.9,1.3-3,1.3c-0.1,0-0.1,0-0.2,0
						c-0.7,0-1.7-0.3-2.5-1.3c-1.1-1.4-2.1-4.8-1.3-6.1c0.3-0.5,0.9-0.8,1.5-1c0.5-0.2,1-0.5,1.4-0.9l0.5-0.4
						C318.2,279.6,318.6,279.2,320,278.5z"/>
				</g>
				<g class="st0">
					<g>
						<defs>
							<path id="SVGID_00000104668317968778248890000008708542933246550442_" d="M312.5,293v-8.7c0,1.9,1,4.3,1.8,5.3
								s1.9,1.6,3.2,1.6v8.7c-1.3,0-2.4-0.6-3.2-1.6C313.4,297.3,312.5,294.9,312.5,293z"/>
						</defs>
						<clipPath id="SVGID_00000021107650090352892010000011521774901081781674_">
							<use xlink:href="#SVGID_00000104668317968778248890000008708542933246550442_"  style="overflow:visible;"/>
						</clipPath>
						<g style="clip-path:url(#SVGID_00000021107650090352892010000011521774901081781674_);enable-background:new    ;">
							<path class="st8" d="M317.5,291.3v8.7c-1.3,0-2.4-0.6-3.2-1.6c-0.8-1.1-1.8-3.4-1.8-5.3v-8.7c0,1.9,1,4.3,1.8,5.3
								C315.1,290.7,316.2,291.2,317.5,291.3"/>
						</g>
					</g>
				</g>
				<g>
					<polygon class="st1" points="317.7,291.3 317.7,300 317.5,300 317.5,291.3 					"/>
				</g>
				<g class="st0">
					<g>
						<defs>
							<path id="SVGID_00000121989004215938566110000014120896427256061339_" d="M326.3,281.8v8.7c0,0.3,0,0.6-0.1,1
								c-0.2,1-0.9,1.7-1.6,2.3c-0.3,0.3-0.6,0.6-0.9,0.9c-0.3,0.5-0.6,1-0.9,1.5c-0.4,0.7-0.8,1.5-1.4,2.2c-1,1-2.3,1.6-3.7,1.6
								v-8.7c1.4,0,2.8-0.6,3.7-1.6c0.6-0.6,1-1.4,1.4-2.2c0.3-0.6,0.6-1.1,0.9-1.5c0.2-0.3,0.5-0.6,0.9-0.9
								c0.6-0.6,1.4-1.3,1.6-2.3C326.2,282.4,326.3,282.1,326.3,281.8z"/>
						</defs>
						<clipPath id="SVGID_00000121258350476627161090000013249448468174697636_">
							<use xlink:href="#SVGID_00000121989004215938566110000014120896427256061339_"  style="overflow:visible;"/>
						</clipPath>
						<g style="clip-path:url(#SVGID_00000121258350476627161090000013249448468174697636_);enable-background:new    ;">
							<path class="st3" d="M326.3,281.8v8.7c0,0.3,0,0.6-0.1,1l0,0v-8.7l0,0C326.2,282.4,326.3,282.1,326.3,281.8"/>
							<path class="st4" d="M326.1,282.8v8.7c0,0.2-0.1,0.4-0.2,0.6v-8.7C326,283.2,326.1,283,326.1,282.8"/>
							<path class="st2" d="M325.9,283.4v8.7c-0.1,0.3-0.3,0.5-0.5,0.7v-8.7C325.7,283.9,325.8,283.6,325.9,283.4"/>
							<path class="st8" d="M325.5,284.1v8.7c-0.3,0.4-0.6,0.7-0.9,1s-0.6,0.5-0.8,0.8v-8.7c0.2-0.3,0.5-0.5,0.8-0.8
								C324.9,284.8,325.2,284.5,325.5,284.1"/>
							<path class="st2" d="M323.8,285.9v8.7l-0.1,0.1c-0.3,0.5-0.6,1-0.9,1.5c-0.3,0.6-0.7,1.3-1.1,1.8v-8.7
								c0.5-0.6,0.8-1.2,1.1-1.8c0.3-0.6,0.6-1.1,0.9-1.5C323.7,285.9,323.8,285.9,323.8,285.9"/>
							<path class="st8" d="M321.7,289.4v8.7c-0.1,0.1-0.2,0.2-0.3,0.3c-1,1-2.3,1.6-3.7,1.6v-8.7c1.4,0,2.8-0.6,3.7-1.6
								C321.5,289.6,321.6,289.5,321.7,289.4"/>
						</g>
					</g>
				</g>
			</g>
		</g>
	</g>
</g>
<g id="Layer_2">
	<path class="st71" d="M74,56.9c-10,7,2.5,19-3.1,27c-2.3,3.2-7.4,4.1-9.2,7c-2.8,4.6-3.3,6.4-4.7,11c-1.8,5.7-8.4,4.8-11,9
		c-1.9,3-0.4,7.3-1,11c-2.2,13.3-3.8,17.3-12.6,26.1c-7.4-7.7-16.8-4.9-24.3-11.1"/>
	<path class="st71" d="M44,112.9c0.6,1.7,0.4,2.9,2.3,3.9c0.3,0,0.4-0.2,0.1-0.7c3.6,1.4,6.5,3.9,7.7,7.6c13.2,0.8-1.4,15,10.7,15.3
		c-3.2,8,2.2,6.2,4.4,10.7c2.2,4.6,2.2,8,3.7,12.7c3.7,11.9,12.3,14.5,23.9,16.3c4.1-2.9,10-5.9,15-6.7c9.3,22.4,32.2,5.2,50.2,8.3
		c-6.3,24,9,22.7,21.9,38.8c5,6.3,9.7,11,13.1,18.2c1.9,4.1,2.3,8.8,3.9,12.5c3.1,7.2,3.8,5,10,9.3c9.8,6.6,15.5,10.2,26.9,13.6
		c2.7-2.9,7.1-5.1,8-9.9"/>
	<path class="st71" d="M152,107.9c-5.3,7.5-11.8,6.1-17,10.4c-4.5,3.7-5.1,12.2-6.1,20.2c-0.8,6.4-3.2,19.9-0.7,26.1
		c2.3,5.9,10,10.3,12.9,16.2"/>
	<path class="st71" d="M190.7,172.9c-1.1,3.3-7.8,4.8-10.6,8.9c-2.4-1.8-2.6-4.3-4.8-6.5c-1.6-1.6-5.2-2.5-7-3.7
		c-4,5.1-4.7,6.4-11.2,7.4"/>
	<path class="st71" d="M117,302.9c2.8-7.2,1.1-8.9,6-13.3c1.6-1.5,3.7,0.8,5.5-1.6c1.3-1.7,0.4-6,0.9-8.3c1.7-7.7,1.5-7.6,7.5-8.1
		c4.5-0.4,7.8,4.1,11-2.7c3.7-1,7.6,0,10.2,3.5c3-4.5,4.6-9.3,9.9-6.7c2.5-11.2,3.4-10.5,9.9-17.5c4,0.9,8.4,3,11.7,3.8
		c3.8,0.9,0.4,2.6,4.6,0.5c1.7-0.8,2.3-4.6,4.7-5.7"/>
	<path class="st71" d="M257,323.9c-11.4,2.2-18.1,1-28.8,1c-5.9,0-9,2.6-14.9,3.1c-4.1,11.8-2.6,24.8-19.5,22.7
		c1.7-8.2-3.9-9.7-9.2-6.9c-3.9,2.1-6.2,10.7-10.2,11.6c-2,0.4-3.2-3.6-4.6-3.6c-2.2,0-5.7,0.3-8.3,0.5c-6.5,0.4-12.6,2.5-19.5,0.5"
		/>
</g>
</svg>
