<?xml version="1.0" encoding="utf-8"?>
<!-- Generator: Adobe Illustrator 25.4.1, SVG Export Plug-In . SVG Version: 6.00 Build 0)  -->
<svg version="1.1" id="Layer_1" xmlns="http://www.w3.org/2000/svg" xmlns:xlink="http://www.w3.org/1999/xlink" x="0px" y="0px"
	 viewBox="0 0 467.3 400.9" style="enable-background:new 0 0 467.3 400.9;" xml:space="preserve">
<style type="text/css">
	.st0{enable-background:new    ;}
	.st1{fill:#404040;}
	.st2{clip-path:url(#SVGID_00000177450459173389495020000011375815718629953681_);enable-background:new    ;}
	.st3{fill:#3F3F40;}
	.st4{fill:#3F4040;}
	.st5{fill:#404041;}
	.st6{clip-path:url(#SVGID_00000039815084577923916950000017779165306912927383_);enable-background:new    ;}
	.st7{fill:#8F8F8F;}
	.st8{clip-path:url(#SVGID_00000053524571835486138140000003656143896023221422_);enable-background:new    ;}
	.st9{clip-path:url(#SVGID_00000155147366868357330850000014731207443463802031_);enable-background:new    ;}
	.st10{fill:#858585;}
	.st11{clip-path:url(#SVGID_00000169519866155017063090000012068613205399857592_);enable-background:new    ;}
	.st12{fill:#8A8A8A;}
	.st13{clip-path:url(#SVGID_00000183937960774210392570000018207527513340835508_);enable-background:new    ;}
	.st14{clip-path:url(#SVGID_00000070102478304203876570000004316849909938154940_);enable-background:new    ;}
	.st15{clip-path:url(#SVGID_00000048476061340372606780000005861496875276613518_);enable-background:new    ;}
	.st16{clip-path:url(#SVGID_00000001630810695850973560000016567298502642235839_);enable-background:new    ;}
	.st17{fill:#464646;}
	.st18{fill:#E5E5E5;}
	.st19{fill:#3F3F3F;}
	.st20{fill:#838383;}
	.st21{fill:#808080;}
	.st22{fill:#929292;}
	.st23{clip-path:url(#SVGID_00000047039709599626333750000011344838366420846006_);enable-background:new    ;}
	.st24{clip-path:url(#SVGID_00000039849311282498244700000013036670628690782133_);enable-background:new    ;}
	.st25{clip-path:url(#SVGID_00000180329867698105631400000005893847461609070520_);enable-background:new    ;}
	.st26{clip-path:url(#SVGID_00000036936546712335996430000013484406778848195221_);enable-background:new    ;}
	.st27{clip-path:url(#SVGID_00000078755797427588536800000010421386877838738355_);enable-background:new    ;}
	.st28{clip-path:url(#SVGID_00000146490238451142416060000005080859064682743990_);enable-background:new    ;}
	.st29{fill:#949494;}
	.st30{clip-path:url(#SVGID_00000047042417312253675940000008599981200399201155_);enable-background:new    ;}
	.st31{clip-path:url(#SVGID_00000170238968824360347510000015588708601102840232_);enable-background:new    ;}
	.st32{clip-path:url(#SVGID_00000005963490367249139920000002868886011833663897_);enable-background:new    ;}
	.st33{fill:#909090;}
	.st34{fill:#848484;}
	.st35{clip-path:url(#SVGID_00000130615439697059825880000010659548243283064989_);enable-background:new    ;}
	.st36{clip-path:url(#SVGID_00000183954380658014568580000004377148946077265065_);enable-background:new    ;}
	.st37{clip-path:url(#SVGID_00000106141780994693861120000006337441208708471431_);enable-background:new    ;}
	.st38{clip-path:url(#SVGID_00000140708015706412003620000015381339443128051123_);enable-background:new    ;}
	.st39{fill:#8D8D8D;}
	.st40{clip-path:url(#SVGID_00000025435668814712591950000017004681062929381779_);enable-background:new    ;}
	.st41{clip-path:url(#SVGID_00000069399657616944656930000017695804039699061920_);enable-background:new    ;}
	.st42{clip-path:url(#SVGID_00000165944680252324031600000004643310454067420347_);enable-background:new    ;}
	.st43{clip-path:url(#SVGID_00000128442797053126581510000002321664366028031385_);enable-background:new    ;}
	.st44{clip-path:url(#SVGID_00000093170135386881840090000018336869641714817417_);enable-background:new    ;}
	.st45{clip-path:url(#SVGID_00000098183239380282219000000011888024995630160816_);enable-background:new    ;}
	.st46{clip-path:url(#SVGID_00000096019687425431253570000014351101411615621051_);enable-background:new    ;}
	.st47{clip-path:url(#SVGID_00000047770785070918816370000003119932362590024846_);enable-background:new    ;}
	.st48{clip-path:url(#SVGID_00000047757379436005660490000013515034605622006700_);enable-background:new    ;}
	.st49{fill:#898989;}
	.st50{fill:none;stroke:#000000;stroke-miterlimit:10;stroke-dasharray:2.6635,2.6635;}
</style>
<g id="Layer_1_00000075869155967952604110000002195212239702519455_">
	<g>
		<g>
			<g class="st0">
				<g>
					<polygon class="st1" points="280.7,336 280.7,344.7 280.5,345 280.5,336.3 					"/>
				</g>
				<g class="st0">
					<g>
						<g>
							<defs>
								<path id="SVGID_1_" d="M251.4,346.1v-8.7c0-2.6,0.5-5,1.5-6.3c1.3-1.7,2.4-2.1,3.7-2.1c0.6,0,1.3,0.1,2.1,0.2
									c0.9,0.1,2,0.3,3.2,0.3c1.1,0,2.1,0,2.9,0c0.6,0,1.2,0,1.7,0c4.5,0,5.3,0.6,13,6.8v8.7c-7.7-6.1-8.5-6.8-13-6.8
									c-0.5,0-1.1,0-1.7,0c-0.8,0-1.8,0-2.9,0c-1.2,0-2.3-0.2-3.2-0.3c-0.8-0.1-1.4-0.2-2.1-0.2c-1.3,0-2.4,0.5-3.7,2.1
									C251.8,341.1,251.4,343.5,251.4,346.1z"/>
							</defs>
							<clipPath id="SVGID_00000152967868779902172780000001688842605435409319_">
								<use xlink:href="#SVGID_1_"  style="overflow:visible;"/>
							</clipPath>
							<g style="clip-path:url(#SVGID_00000152967868779902172780000001688842605435409319_);enable-background:new    ;">
								<path class="st3" d="M279.5,336.3v8.7c-7.7-6.1-8.5-6.8-13-6.8c-0.5,0-1.1,0-1.7,0c-0.8,0-1.8,0-2.9,0
									c-1.2,0-2.3-0.2-3.2-0.3c-0.8-0.1-1.4-0.2-2.1-0.2c-1.3,0-2.4,0.4-3.7,2.1v-8.7c1.3-1.7,2.4-2.1,3.7-2.1
									c0.6,0,1.3,0.1,2.1,0.2c0.9,0.1,2,0.3,3.2,0.3c1.1,0,2.1,0,2.9,0c0.6,0,1.2,0,1.7,0C271,329.5,271.8,330.1,279.5,336.3"/>
								<path class="st4" d="M252.9,331.1v8.7l0,0c-0.2,0.3-0.4,0.6-0.6,0.9V332C252.5,331.7,252.7,331.4,252.9,331.1L252.9,331.1"
									/>
								<path class="st1" d="M252.3,332.1v8.7c-0.2,0.5-0.4,1.1-0.6,1.8v-8.7C251.9,333.2,252.1,332.6,252.3,332.1"/>
								<path class="st5" d="M251.7,333.9v8.7c-0.2,1.1-0.3,2.3-0.3,3.5v-8.7C251.4,336.2,251.5,334.9,251.7,333.9"/>
							</g>
						</g>
					</g>
				</g>
				<g class="st0">
					<g>
						<g>
							<defs>
								<path id="SVGID_00000036963179886508845590000010964932215185072789_" d="M278.3,347.9L278.3,347.9L278.3,347.9L278.3,347.9
									L278.3,347.9L278.3,347.9L278.3,347.9C278.3,347.8,278.3,347.8,278.3,347.9C278.3,347.8,278.3,347.8,278.3,347.9
									c0-0.4,0-0.8,0-1.1s0-0.7,0-1.1c0-0.3,0-0.8,0-1.1s0-0.8,0-1.1s0-0.8,0-1.1s0-0.8,0-1.1s0-0.7,0-1.1c0-0.3,0-0.7,0-1
									c0.3-1.1,0.7-2.1,1.1-3v8.7C279,345.9,278.7,346.9,278.3,347.9z"/>
							</defs>
							<clipPath id="SVGID_00000114073904504864908430000013125642809809284256_">
								<use xlink:href="#SVGID_00000036963179886508845590000010964932215185072789_"  style="overflow:visible;"/>
							</clipPath>
							<g style="clip-path:url(#SVGID_00000114073904504864908430000013125642809809284256_);enable-background:new    ;">
								<path class="st7" d="M279.4,336.2v8.7c-0.4,1-0.7,2-1.1,3c-0.4,1.1-0.7,2.2-1.2,3.2v-8.7c0.5-1,0.8-2.1,1.2-3.2
									C278.7,338.2,279,337.2,279.4,336.2"/>
							</g>
						</g>
					</g>
				</g>
				<g class="st0">
					<g>
						<g>
							<defs>
								<path id="SVGID_00000168101875837744425630000000758630663838825657_" d="M278.3,347.9L278.3,347.9c0-0.3,0-0.7,0-1
									s0-0.8,0-1.1s0-0.8,0-1.1s0-0.8,0-1.1s0-0.8,0-1.1s0-0.8,0-1.1s0-0.8,0-1.1s0-0.7,0-1l0,0c0,0.3,0,0.7,0,1s0,0.7,0,1.1
									c0,0.3,0,0.8,0,1.1s0,0.8,0,1.1s0,0.8,0,1.1s0,0.8,0,1.1s0,0.7,0,1.1C278.3,347.1,278.3,347.5,278.3,347.9L278.3,347.9z"/>
							</defs>
							<clipPath id="SVGID_00000103231597787307055900000009945931632597309605_">
								<use xlink:href="#SVGID_00000168101875837744425630000000758630663838825657_"  style="overflow:visible;"/>
							</clipPath>
							<g style="clip-path:url(#SVGID_00000103231597787307055900000009945931632597309605_);enable-background:new    ;">
								<path class="st7" d="M279.4,336.2v8.7c-0.4,1-0.7,2-1.1,3c-0.4,1.1-0.7,2.2-1.2,3.2v-8.7c0.5-1,0.8-2.1,1.2-3.2
									C278.7,338.2,279,337.2,279.4,336.2"/>
							</g>
						</g>
					</g>
				</g>
				<g class="st0">
					<g>
						<g>
							<defs>
								<path id="SVGID_00000089541127558646124220000005264427416867159460_" d="M254,355.3c-1.7-1.6-2.7-5.5-2.7-9.2v-8.7
									c0,3.7,1,7.6,2.7,9.2l0,0c0,0.3,0,0.7,0,1s0,0.8,0,1.1s0,0.8,0,1.1s0,0.8,0,1.1s0,0.8,0,1.1s0,0.8,0,1.1s0,0.8,0,1.1
									C254.1,354.6,254.1,355,254,355.3L254,355.3z"/>
							</defs>
							<clipPath id="SVGID_00000112614427136549514340000015273806836384118915_">
								<use xlink:href="#SVGID_00000089541127558646124220000005264427416867159460_"  style="overflow:visible;"/>
							</clipPath>
							<g style="clip-path:url(#SVGID_00000112614427136549514340000015273806836384118915_);enable-background:new    ;">
								<path class="st10" d="M275.7,344.8v8.7c-1,1.2-2.3,2.3-4.4,3.1c-1.6,0.6-4.6,1-7.6,1c-3.9,0-7.9-0.6-9.7-2.3
									c-1.7-1.6-2.7-5.5-2.7-9.2v-8.7c0,3.7,1,7.6,2.7,9.2c1.8,1.6,5.8,2.3,9.7,2.3c3.1,0,6.1-0.4,7.6-1
									C273.4,347.1,274.8,346,275.7,344.8"/>
							</g>
						</g>
					</g>
				</g>
				<g class="st0">
					<g>
						<g>
							<defs>
								<path id="SVGID_00000039817648552397038900000000723938943950228617_" d="M278.3,348c-1.1,3.3-2.2,6.8-6.9,8.6
									c0-0.3,0-0.7,0-1s0-0.8,0-1.1s0-0.8,0-1.1s0-0.8,0-1.1s0-0.8,0-1.1s0-0.8,0-1.1s0-0.8,0-1.1s0-0.7,0-1
									c4.7-1.8,5.8-5.3,6.9-8.6c0,0.3,0,0.7,0,1s0,0.8,0,1.1s0,0.8,0,1.1s0,0.8,0,1.1s0,0.8,0,1.1s0,0.8,0,1.1s0,0.8,0,1.1
									C278.3,347.2,278.4,347.7,278.3,348z"/>
							</defs>
							<clipPath id="SVGID_00000026143201474402214910000010120582300496473489_">
								<use xlink:href="#SVGID_00000039817648552397038900000000723938943950228617_"  style="overflow:visible;"/>
							</clipPath>
							<g style="clip-path:url(#SVGID_00000026143201474402214910000010120582300496473489_);enable-background:new    ;">
								<path class="st7" d="M279.4,336.2v8.7c-0.4,1-0.7,2-1.1,3c-0.4,1.1-0.7,2.2-1.2,3.2v-8.7c0.5-1,0.8-2.1,1.2-3.2
									C278.7,338.2,279,337.2,279.4,336.2"/>
								<path class="st12" d="M277.1,342.5v8.7c-0.4,0.8-0.8,1.6-1.4,2.3v-8.7C276.3,344,276.7,343.3,277.1,342.5"/>
								<path class="st10" d="M275.7,344.8v8.7c-1,1.2-2.3,2.3-4.4,3.1c-1.6,0.6-4.6,1-7.6,1c-3.9,0-7.9-0.6-9.7-2.3
									c-1.7-1.6-2.7-5.5-2.7-9.2v-8.7c0,3.7,1,7.6,2.7,9.2c1.8,1.6,5.8,2.3,9.7,2.3c3.1,0,6.1-0.4,7.6-1
									C273.4,347.1,274.8,346,275.7,344.8"/>
							</g>
						</g>
					</g>
				</g>
				<g class="st0">
					<g>
						<g>
							<defs>
								<path id="SVGID_00000052825539864788270860000004409795226872322965_" d="M271.4,356.5L271.4,356.5c0-0.3,0-0.7,0-1
									s0-0.8,0-1.1s0-0.8,0-1.1s0-0.8,0-1.1s0-0.8,0-1.1s0-0.8,0-1.1s0-0.8,0-1.1s0-0.7,0-1l0,0c0,0.3,0,0.7,0,1s0,0.8,0,1.1
									s0,0.8,0,1.1s0,0.8,0,1.1s0,0.8,0,1.1s0,0.8,0,1.1s0,0.8,0,1.1S271.4,356.2,271.4,356.5z"/>
							</defs>
							<clipPath id="SVGID_00000003820321565124526570000008603627252311953541_">
								<use xlink:href="#SVGID_00000052825539864788270860000004409795226872322965_"  style="overflow:visible;"/>
							</clipPath>
							<g style="clip-path:url(#SVGID_00000003820321565124526570000008603627252311953541_);enable-background:new    ;">
								<path class="st10" d="M275.7,344.8v8.7c-1,1.2-2.3,2.3-4.4,3.1c-1.6,0.6-4.6,1-7.6,1c-3.9,0-7.9-0.6-9.7-2.3
									c-1.7-1.6-2.7-5.5-2.7-9.2v-8.7c0,3.7,1,7.6,2.7,9.2c1.8,1.6,5.8,2.3,9.7,2.3c3.1,0,6.1-0.4,7.6-1
									C273.4,347.1,274.8,346,275.7,344.8"/>
							</g>
						</g>
					</g>
				</g>
				<g class="st0">
					<g>
						<g>
							<defs>
								<path id="SVGID_00000080182098399835356310000005169921496128494253_" d="M263.7,357.6c-3.8,0-7.9-0.6-9.7-2.3
									c0-0.3,0-0.7,0-1s0-0.8,0-1.1s0-0.8,0-1.1s0-0.8,0-1.1s0-0.8,0-1.1s0-0.8,0-1.1s0-0.8,0-1.1s0-0.7,0-1
									c1.8,1.6,5.8,2.3,9.7,2.3c0,0.3,0,0.7,0,1s0,0.8,0,1.1s0,0.8,0,1.1s0,0.8,0,1.1s0,0.8,0,1.1s0,0.8,0,1.1s0,0.8,0,1.1
									C263.7,356.9,263.7,357.3,263.7,357.6z"/>
							</defs>
							<clipPath id="SVGID_00000144335269169680400690000016310446278044432271_">
								<use xlink:href="#SVGID_00000080182098399835356310000005169921496128494253_"  style="overflow:visible;"/>
							</clipPath>
							<g style="clip-path:url(#SVGID_00000144335269169680400690000016310446278044432271_);enable-background:new    ;">
								<path class="st10" d="M275.7,344.8v8.7c-1,1.2-2.3,2.3-4.4,3.1c-1.6,0.6-4.6,1-7.6,1c-3.9,0-7.9-0.6-9.7-2.3
									c-1.7-1.6-2.7-5.5-2.7-9.2v-8.7c0,3.7,1,7.6,2.7,9.2c1.8,1.6,5.8,2.3,9.7,2.3c3.1,0,6.1-0.4,7.6-1
									C273.4,347.1,274.8,346,275.7,344.8"/>
							</g>
						</g>
					</g>
				</g>
				<g class="st0">
					<g>
						<g>
							<defs>
								<path id="SVGID_00000120549083637633673140000003289073838674985619_" d="M271.4,356.5c-1.6,0.6-4.6,1-7.6,1
									c0-0.3,0-0.7,0-1s0-0.8,0-1.1s0-0.8,0-1.1s0-0.8,0-1.1s0-0.8,0-1.1s0-0.8,0-1.1s0-0.8,0-1.1s0-0.7,0-1l0,0c0,0.3,0,0.7,0,1
									s0,0.7,0,1.1c0,0.3,0,0.8,0,1.1s0,0.8,0,1.1s0,0.8,0,1.1s0,0.8,0,1.1s0,0.7,0,1.1c0,0.3,0,0.7,0,1c0-0.3,0-0.7,0-1
									s0-0.7,0-1.1c0-0.3,0-0.8,0-1.1s0-0.8,0-1.1s0-0.8,0-1.1s0-0.8,0-1.1s0-0.7,0-1.1c0-0.3,0-0.7,0-1c3.1,0,6-0.4,7.6-1
									c0,0.3,0,0.7,0,1s0,0.8,0,1.1s0,0.8,0,1.1s0,0.8,0,1.1s0,0.8,0,1.1s0,0.8,0,1.1s0,0.8,0,1.1S271.4,356.2,271.4,356.5z"/>
							</defs>
							<clipPath id="SVGID_00000102516187026803319490000007232090017239981989_">
								<use xlink:href="#SVGID_00000120549083637633673140000003289073838674985619_"  style="overflow:visible;"/>
							</clipPath>
							<g style="clip-path:url(#SVGID_00000102516187026803319490000007232090017239981989_);enable-background:new    ;">
								<path class="st10" d="M275.7,344.8v8.7c-1,1.2-2.3,2.3-4.4,3.1c-1.6,0.6-4.6,1-7.6,1c-3.9,0-7.9-0.6-9.7-2.3
									c-1.7-1.6-2.7-5.5-2.7-9.2v-8.7c0,3.7,1,7.6,2.7,9.2c1.8,1.6,5.8,2.3,9.7,2.3c3.1,0,6.1-0.4,7.6-1
									C273.4,347.1,274.8,346,275.7,344.8"/>
							</g>
						</g>
					</g>
				</g>
				<g class="st0">
					<g>
						<g>
							<defs>
								<path id="SVGID_00000108284909287747044780000018096743518327000726_" d="M250.4,346.1v-8.7c0,3.9,1.1,8.1,3,9.9
									c2,1.8,6.3,2.5,10.4,2.5c3.2,0,6.2-0.4,7.9-1.1c5.1-2,6.4-5.8,7.5-9.2c0.4-1.2,0.7-2.3,1.3-3.2v8.7c-0.5,1-0.9,2.1-1.3,3.2
									c-1.1,3.4-2.4,7.2-7.5,9.2c-1.7,0.7-4.7,1.1-7.9,1.1c-4.1,0-8.5-0.7-10.4-2.5C251.4,354.3,250.4,350.1,250.4,346.1z"/>
							</defs>
							<clipPath id="SVGID_00000075148101557674581900000000240324072568197562_">
								<use xlink:href="#SVGID_00000108284909287747044780000018096743518327000726_"  style="overflow:visible;"/>
							</clipPath>
							<g style="clip-path:url(#SVGID_00000075148101557674581900000000240324072568197562_);enable-background:new    ;">
								<path class="st4" d="M280.5,336.3v8.7c-0.1,0.1-0.2,0.3-0.2,0.5v-8.7C280.4,336.7,280.4,336.5,280.5,336.3"/>
								<path class="st1" d="M280.3,336.8v8.7c-0.4,0.8-0.7,1.8-1,2.8c-0.4,1.1-0.7,2.2-1.2,3.3v-8.7c0.5-1.1,0.9-2.2,1.2-3.3
									C279.6,338.6,279.9,337.7,280.3,336.8"/>
								<path class="st4" d="M278,342.9v8.7c-0.4,0.9-0.9,1.7-1.5,2.5v-8.7C277.1,344.6,277.6,343.7,278,342.9"/>
								<path class="st3" d="M276.5,345.4v8.7c-1.1,1.4-2.6,2.6-4.8,3.4c-1.7,0.7-4.7,1.1-7.9,1.1c-4.1,0-8.5-0.7-10.4-2.5
									s-3-6-3-9.9v-8.7c0,3.9,1.1,8.1,3,9.9c2,1.8,6.3,2.5,10.4,2.5c3.2,0,6.2-0.4,7.9-1.1C274,347.9,275.5,346.7,276.5,345.4"/>
							</g>
						</g>
					</g>
				</g>
				<g>
					<path class="st17" d="M280,335.5l0.7,0.5l-0.2,0.4c-0.5,1-0.9,2.1-1.3,3.2c-1.1,3.4-2.4,7.2-7.5,9.2c-1.7,0.7-4.7,1.1-7.9,1.1
						c-4.1,0-8.5-0.7-10.4-2.5c-3.3-3-4.1-13.2-1.3-16.8c1.6-2,3-2.5,4.5-2.5c0.7,0,1.4,0.1,2.2,0.2c0.9,0.1,1.9,0.3,3,0.3
						s2.1,0,2.9,0c0.6,0,1.1,0,1.6,0C271.3,328.5,272.2,329.2,280,335.5z M278.3,339.3c0.4-1.1,0.7-2.1,1.1-3
						c-7.7-6.1-8.5-6.8-13-6.8c-0.5,0-1.1,0-1.7,0c-0.8,0-1.8,0-2.9,0c-1.2,0-2.3-0.2-3.2-0.3c-0.8-0.1-1.4-0.2-2.1-0.2
						c-1.3,0-2.4,0.5-3.7,2.1c-2.5,3.1-1.7,12.8,1.2,15.5c1.8,1.6,5.8,2.3,9.7,2.3c3.1,0,6.1-0.4,7.6-1
						C276.1,346,277.2,342.6,278.3,339.3"/>
				</g>
				<g>
					<path class="st18" d="M256.6,329c0.6,0,1.3,0.1,2.1,0.2c0.9,0.1,2,0.3,3.2,0.3c1.1,0,2.1,0,2.9,0c0.6,0,1.2,0,1.7,0
						c4.5,0,5.3,0.6,12.9,6.7c-0.4,1-0.7,2-1.1,3c-1.1,3.3-2.2,6.8-6.9,8.6c-1.6,0.6-4.6,1-7.6,1c-3.9,0-7.9-0.6-9.7-2.3
						c-2.9-2.7-3.6-12.3-1.2-15.5C254.2,329.5,255.3,329,256.6,329z"/>
				</g>
			</g>
		</g>
	</g>
	<g>
		<g>
			<g class="st0">
				<g>
					<polygon class="st19" points="196,9.3 196,18 186,9 186,0.3 					"/>
				</g>
				<g>
					<rect x="166.3" y="10.4" class="st19" width="8.6" height="8.7"/>
				</g>
				<g>
					<polygon class="st3" points="186,0.3 186,9 174.8,19.1 174.8,10.4 					"/>
				</g>
				<g>
					<polygon class="st19" points="156.8,15.1 156.8,23.7 144.3,22.1 144.3,13.4 					"/>
				</g>
				<g>
					<polygon class="st19" points="166.3,10.4 166.3,19.1 156.8,23.7 156.8,15.1 					"/>
				</g>
				<g>
					<polygon class="st19" points="203.6,15.8 203.6,24.5 196,18 196,9.3 					"/>
				</g>
				<g>
					<polygon class="st19" points="220.6,24.3 220.6,32.9 203.6,24.5 203.6,15.8 					"/>
				</g>
				<g>
					<polygon class="st4" points="144.3,13.4 144.3,22.1 135.3,34.2 135.3,25.5 					"/>
				</g>
				<g>
					<polygon class="st19" points="230,31.7 230,40.3 220.6,32.9 220.6,24.3 					"/>
				</g>
				<g>
					<polygon class="st19" points="261.3,36.4 261.3,45.1 245.3,46 245.3,37.3 					"/>
				</g>
				<g>
					<polygon class="st19" points="245.3,37.3 245.3,46 230,40.3 230,31.7 					"/>
				</g>
				<g>
					<polygon class="st1" points="135.3,25.5 135.3,34.2 130.9,48.5 130.9,39.8 					"/>
				</g>
				<g>
					<polygon class="st19" points="282.9,47.5 282.9,56.2 261.3,45.1 261.3,36.4 					"/>
				</g>
				<g>
					<polygon class="st19" points="296.1,54.9 296.1,63.6 282.9,56.2 282.9,47.5 					"/>
				</g>
				<g>
					<polygon class="st19" points="311.4,57.8 311.4,66.5 296.1,63.6 296.1,54.9 					"/>
				</g>
				<g>
					<polygon class="st19" points="325.3,58.7 325.3,67.4 311.4,66.5 311.4,57.8 					"/>
				</g>
				<g>
					<polygon class="st1" points="130.9,39.8 130.9,48.5 123.6,72.9 123.6,64.2 					"/>
				</g>
				<g>
					<polygon class="st19" points="333.8,70.7 333.8,79.4 325.3,67.4 325.3,58.7 					"/>
				</g>
				<g>
					<polygon class="st19" points="342.4,75.4 342.4,84.1 333.8,79.4 333.8,70.7 					"/>
				</g>
				<g>
					<polygon class="st19" points="352.6,77.2 352.6,85.9 342.4,84.1 342.4,75.4 					"/>
				</g>
				<g>
					<polygon class="st1" points="123.6,64.2 123.6,72.9 117.7,90.3 117.7,81.6 					"/>
				</g>
				<g>
					<polygon class="st19" points="117.7,81.6 117.7,90.3 104.5,96.1 104.5,87.4 					"/>
				</g>
				<g>
					<polygon class="st19" points="358.2,92.8 358.2,101.5 352.6,85.9 352.6,77.2 					"/>
				</g>
				<g>
					<polygon class="st4" points="104.5,87.4 104.5,96.1 93,114.6 93,105.9 					"/>
				</g>
				<g>
					<polygon class="st19" points="366.7,106.8 366.7,115.5 358.2,101.5 358.2,92.8 					"/>
				</g>
				<g>
					<polygon class="st19" points="378.1,117.1 378.1,125.8 366.7,115.5 366.7,106.8 					"/>
				</g>
				<g>
					<polygon class="st1" points="93,105.9 93,114.6 87.2,126 87.2,117.4 					"/>
				</g>
				<g>
					<polygon class="st4" points="87.2,117.4 87.2,126 76.9,140.4 76.9,131.8 					"/>
				</g>
				<g>
					<polygon class="st19" points="398.8,134.8 398.8,143.4 378.1,125.8 378.1,117.1 					"/>
				</g>
				<g>
					<rect x="404.7" y="141.4" class="st19" width="12.2" height="8.7"/>
				</g>
				<g>
					<polygon class="st19" points="404.7,141.4 404.7,150.1 398.8,143.4 398.8,134.8 					"/>
				</g>
				<g>
					<polygon class="st1" points="76.9,131.8 76.9,140.4 71.1,152 71.1,143.3 					"/>
				</g>
				<g>
					<polygon class="st19" points="420.6,148.8 420.6,157.5 416.9,150.1 416.9,141.4 					"/>
				</g>
				<g>
					<polygon class="st19" points="432.1,149.8 432.1,158.5 420.6,157.5 420.6,148.8 					"/>
				</g>
				<g>
					<polygon class="st19" points="50.4,152.1 50.4,160.7 17.1,159.3 17.1,150.6 					"/>
				</g>
				<g>
					<polygon class="st19" points="71.1,143.3 71.1,152 50.4,160.7 50.4,152.1 					"/>
				</g>
				<g>
					<polygon class="st19" points="442.4,154.4 442.4,163.1 432.1,158.5 432.1,149.8 					"/>
				</g>
				<g>
					<polygon class="st19" points="452.7,161.7 452.7,170.4 442.4,163.1 442.4,154.4 					"/>
				</g>
				<g>
					<polygon class="st1" points="17.1,150.6 17.1,159.3 10,177.6 10,168.9 					"/>
				</g>
				<g>
					<polygon class="st19" points="462.9,173.6 462.9,182.3 452.7,170.4 452.7,161.7 					"/>
				</g>
				<g>
					<polygon class="st19" points="9,186.1 9,194.8 9,177.4 9,168.7 					"/>
				</g>
				<g>
					<polygon class="st20" points="462.9,179.7 462.9,188.4 453.5,195.8 453.5,187.1 					"/>
				</g>
				<g>
					<polygon class="st3" points="463.9,180.2 463.9,188.9 454.4,196.3 454.4,187.7 					"/>
				</g>
				<g>
					<polygon class="st21" points="12.9,200.3 12.9,208.9 10,194.7 10,186 					"/>
				</g>
				<g>
					<polygon class="st19" points="11.9,200.4 11.9,209.1 9,194.8 9,186.1 					"/>
				</g>
				<g>
					<polygon class="st22" points="453.5,187.1 453.5,195.8 451.6,210.7 451.6,202 					"/>
				</g>
				<g>
					<polygon class="st5" points="454.4,187.7 454.4,196.3 452.5,211.2 452.5,202.5 					"/>
				</g>
				<g class="st0">
					<g>
						<g>
							<defs>
								<path id="SVGID_00000078003348519147838430000007318152936891767702_" d="M451.6,210.7c-0.5,0.4-1.9,1.4-3.1,2.6
									c0-0.3,0-0.7,0-1s0-0.8,0-1.1c0-0.3,0-0.8,0-1.1c0-0.3,0-0.8,0-1.1c0-0.3,0-0.8,0-1.1c0-0.3,0-0.8,0-1.1c0-0.3,0-0.8,0-1.1
									c0-0.3,0-0.7,0-1c1.3-1.2,2.6-2.2,3.1-2.6C451.6,204.6,451.6,208.1,451.6,210.7z"/>
							</defs>
							<clipPath id="SVGID_00000172440978535009643520000009242750085517613227_">
								<use xlink:href="#SVGID_00000078003348519147838430000007318152936891767702_"  style="overflow:visible;"/>
							</clipPath>
							<g style="clip-path:url(#SVGID_00000172440978535009643520000009242750085517613227_);enable-background:new    ;">
								<path class="st10" d="M451.6,202v8.7c-0.7,0.5-2.9,2.2-4.4,4V206C448.7,204.2,450.9,202.5,451.6,202"/>
							</g>
						</g>
					</g>
				</g>
				<g class="st0">
					<g>
						<g>
							<defs>
								<path id="SVGID_00000155122644025044566360000000395122408101247151_" d="M448.4,213.4c0-0.1,0-0.3,0-0.5c0-0.1,0-0.3,0-0.5
									s0-0.4,0-0.5c0-0.2,0-0.4,0-0.5s0-0.4,0-0.5c0-0.2,0-0.4,0-0.5s0-0.3,0-0.5c0-0.1,0-0.3,0-0.5s0-0.4,0-0.6s0-0.4,0-0.6
									s0-0.4,0-0.6s0-0.4,0-0.6s0-0.4,0-0.6s0-0.4,0-0.6s0-0.4,0-0.6s0-0.4,0-0.6l0.1-0.1c0,0.3,0,0.7,0,1s0,0.8,0,1.1
									c0,0.3,0,0.8,0,1.1c0,0.3,0,0.8,0,1.1c0,0.3,0,0.8,0,1.1c0,0.3,0,0.8,0,1.1c0,0.3,0,0.8,0,1.1c0,0.3,0,0.7,0,1
									C448.4,213.4,448.4,213.4,448.4,213.4z"/>
							</defs>
							<clipPath id="SVGID_00000137818449051704028170000009977721621701451940_">
								<use xlink:href="#SVGID_00000155122644025044566360000000395122408101247151_"  style="overflow:visible;"/>
							</clipPath>
							<g style="clip-path:url(#SVGID_00000137818449051704028170000009977721621701451940_);enable-background:new    ;">
								<path class="st10" d="M451.6,202v8.7c-0.7,0.5-2.9,2.2-4.4,4V206C448.7,204.2,450.9,202.5,451.6,202"/>
							</g>
						</g>
					</g>
				</g>
				<g class="st0">
					<g>
						<g>
							<defs>
								<path id="SVGID_00000008831116877058663160000010434394203140485263_" d="M448.4,213.4c-0.9,0.9-1.7,1.9-2.2,2.9
									c0-0.3,0-0.7,0-1s0-0.8,0-1.1c0-0.3,0-0.8,0-1.1c0-0.3,0-0.8,0-1.1c0-0.3,0-0.8,0-1.1c0-0.3,0-0.8,0-1.1c0-0.3,0-0.8,0-1.1
									c0-0.3,0-0.7,0-1c0.5-1,1.3-2,2.2-2.9c0,0.2,0,0.4,0,0.6s0,0.4,0,0.6s0,0.4,0,0.6s0,0.4,0,0.6s0,0.4,0,0.6s0,0.4,0,0.6
									s0,0.4,0,0.6s0,0.4,0,0.6c0,0.1,0,0.3,0,0.5c0,0.1,0,0.3,0,0.5s0,0.4,0,0.5c0,0.2,0,0.4,0,0.5s0,0.4,0,0.5
									c0,0.2,0,0.4,0,0.5s0,0.3,0,0.5C448.4,213.1,448.4,213.3,448.4,213.4z"/>
							</defs>
							<clipPath id="SVGID_00000015315731587498040430000018141094374066356381_">
								<use xlink:href="#SVGID_00000008831116877058663160000010434394203140485263_"  style="overflow:visible;"/>
							</clipPath>
							<g style="clip-path:url(#SVGID_00000015315731587498040430000018141094374066356381_);enable-background:new    ;">
								<path class="st10" d="M451.6,202v8.7c-0.7,0.5-2.9,2.2-4.4,4V206C448.7,204.2,450.9,202.5,451.6,202"/>
								<path class="st12" d="M447.2,206v8.7c-0.4,0.5-0.8,1.1-1,1.6v-8.7C446.5,207.1,446.8,206.5,447.2,206"/>
								<path class="st7" d="M446.2,207.6v8.7c-0.1,0.3-0.2,0.6-0.3,0.9v-8.7C446,208.2,446.1,207.9,446.2,207.6"/>
							</g>
						</g>
					</g>
				</g>
				<g class="st0">
					<g>
						<g>
							<defs>
								<path id="SVGID_00000013182020032426645520000018369581780917505463_" d="M446.1,216.7c0-0.1,0-0.1,0-0.2s0-0.1,0-0.2
									s0-0.1,0-0.2s0-0.1,0-0.2s0-0.1,0-0.2s0-0.1,0-0.2s0-0.1,0-0.2s0-0.1,0-0.2c0-0.2,0-0.6,0-0.8c0-0.3,0-0.6,0-0.9
									s0-0.6,0-0.9s0-0.7,0-0.9s0-0.7,0-0.9c0-0.3,0-0.6,0-0.9s0-0.6,0-0.9c0-0.2,0-0.6,0-0.8c0-0.1,0.1-0.2,0.1-0.3
									c0,0.3,0,0.7,0,1s0,0.8,0,1.1c0,0.3,0,0.8,0,1.1c0,0.3,0,0.8,0,1.1c0,0.3,0,0.8,0,1.1c0,0.3,0,0.8,0,1.1c0,0.3,0,0.8,0,1.1
									c0,0.3,0,0.7,0,1C446.1,216.4,446.1,216.5,446.1,216.7z"/>
							</defs>
							<clipPath id="SVGID_00000127002112265050315190000007787712153172560554_">
								<use xlink:href="#SVGID_00000013182020032426645520000018369581780917505463_"  style="overflow:visible;"/>
							</clipPath>
							<g style="clip-path:url(#SVGID_00000127002112265050315190000007787712153172560554_);enable-background:new    ;">
								<path class="st7" d="M446.2,207.6v8.7c-0.1,0.3-0.2,0.6-0.3,0.9v-8.7C446,208.2,446.1,207.9,446.2,207.6"/>
							</g>
						</g>
					</g>
				</g>
				<g class="st0">
					<g>
						<g>
							<defs>
								<path id="SVGID_00000132796219285506503810000014347264181401959327_" d="M446.8,217.8v-8.7c0-1.9,3.3-4.9,5.7-6.6v8.7
									C450.1,212.9,446.8,216,446.8,217.8z"/>
							</defs>
							<clipPath id="SVGID_00000160148851303775196650000010068661483392906420_">
								<use xlink:href="#SVGID_00000132796219285506503810000014347264181401959327_"  style="overflow:visible;"/>
							</clipPath>
							<g style="clip-path:url(#SVGID_00000160148851303775196650000010068661483392906420_);enable-background:new    ;">
								<path class="st3" d="M452.5,202.5v8.7c-1.5,1.1-3.4,2.6-4.5,4.1v-8.7C449.2,205.2,451,203.6,452.5,202.5"/>
								<path class="st4" d="M448,206.7v8.7c-0.4,0.5-0.7,0.9-0.9,1.4v-8.7C447.3,207.6,447.6,207.2,448,206.7"/>
								<path class="st1" d="M447.1,208.1v8.7c-0.1,0.2-0.2,0.4-0.2,0.7v-8.7C446.9,208.5,447,208.3,447.1,208.1"/>
								<path class="st5" d="M446.9,208.7v8.7c0,0.1,0,0.3,0,0.4v-8.7C446.8,209,446.8,208.9,446.9,208.7"/>
							</g>
						</g>
					</g>
				</g>
				<g class="st0">
					<g>
						<g>
							<defs>
								<path id="SVGID_00000168810491026414817500000007390684508756407482_" d="M446.1,216.7c-0.1,0.4-0.2,0.8-0.2,1.2v-8.7
									c0-0.4,0.1-0.8,0.2-1.2c0,0.2,0,0.6,0,0.8c0,0.3,0,0.6,0,0.9s0,0.6,0,0.9s0,0.7,0,0.9s0,0.7,0,0.9c0,0.3,0,0.6,0,0.9
									s0,0.6,0,0.9c0,0.2,0,0.6,0,0.8c0,0.1,0,0.1,0,0.2s0,0.1,0,0.2s0,0.1,0,0.2s0,0.1,0,0.2s0,0.1,0,0.2s0,0.1,0,0.2
									s0,0.1,0,0.2C446.1,216.5,446.1,216.6,446.1,216.7z"/>
							</defs>
							<clipPath id="SVGID_00000178190110261392819110000015775442307838524301_">
								<use xlink:href="#SVGID_00000168810491026414817500000007390684508756407482_"  style="overflow:visible;"/>
							</clipPath>
							<g style="clip-path:url(#SVGID_00000178190110261392819110000015775442307838524301_);enable-background:new    ;">
								<path class="st7" d="M446.2,207.6v8.7c-0.1,0.3-0.2,0.6-0.3,0.9v-8.7C446,208.2,446.1,207.9,446.2,207.6"/>
								<path class="st29" d="M445.9,208.5v8.7c0,0.2-0.1,0.4-0.1,0.6v-8.7C445.8,208.9,445.9,208.7,445.9,208.5"/>
							</g>
						</g>
					</g>
				</g>
				<g class="st0">
					<g>
						<g>
							<defs>
								<path id="SVGID_00000174569909270393493000000010642258311489523089_" d="M446,210.8v8.7c0-0.4,0-0.7-0.1-0.9
									c-0.1-0.2-0.1-0.5-0.1-0.7v-8.7c0,0.2,0,0.5,0.1,0.7S446,210.4,446,210.8z"/>
							</defs>
							<clipPath id="SVGID_00000051375791749839214450000017965083258678808732_">
								<use xlink:href="#SVGID_00000174569909270393493000000010642258311489523089_"  style="overflow:visible;"/>
							</clipPath>
							<g style="clip-path:url(#SVGID_00000051375791749839214450000017965083258678808732_);enable-background:new    ;">
								<path class="st3" d="M446,210.8v8.7c0-0.4,0-0.7-0.1-0.9c-0.1-0.2-0.1-0.5-0.1-0.7v-8.7c0,0.2,0,0.5,0.1,0.7
									S446,210.4,446,210.8"/>
							</g>
						</g>
					</g>
				</g>
				<g>
					<polygon class="st21" points="15.8,218.9 15.8,227.6 12.9,208.9 12.9,200.3 					"/>
				</g>
				<g>
					<polygon class="st19" points="14.8,219.1 14.8,227.8 11.9,209.1 11.9,200.4 					"/>
				</g>
				<g class="st0">
					<g>
						<g>
							<defs>
								<path id="SVGID_00000066510929591157905430000003477023715395164071_" d="M446,219.5c0,3.4-2.2,13-3.9,19.2
									c0-2.9,0-5.8,0-8.7c1.7-6.3,3.9-15.9,3.9-19.2C446,213.4,446,216.9,446,219.5z"/>
							</defs>
							<clipPath id="SVGID_00000101804101581767755470000013282238271239904688_">
								<use xlink:href="#SVGID_00000066510929591157905430000003477023715395164071_"  style="overflow:visible;"/>
							</clipPath>
							<g style="clip-path:url(#SVGID_00000101804101581767755470000013282238271239904688_);enable-background:new    ;">
								<path class="st29" d="M446,210.8v8.7c0,1.9-0.7,5.7-1.6,9.7v-8.7C445.4,216.5,446,212.7,446,210.8"/>
								<path class="st7" d="M444.5,220.5v8.7c-0.7,3.3-1.6,6.7-2.3,9.5V230C442.9,227.2,443.8,223.8,444.5,220.5"/>
							</g>
						</g>
					</g>
				</g>
				<g class="st0">
					<g>
						<g>
							<defs>
								<path id="SVGID_00000049221626194597301320000014093392451190886566_" d="M447,210.8v8.7c0,4.7-3.5,17.8-3.9,19.5v-8.7
									C443.6,228.6,447,215.5,447,210.8z"/>
							</defs>
							<clipPath id="SVGID_00000143618129749596007420000010077355497777697711_">
								<use xlink:href="#SVGID_00000049221626194597301320000014093392451190886566_"  style="overflow:visible;"/>
							</clipPath>
							<g style="clip-path:url(#SVGID_00000143618129749596007420000010077355497777697711_);enable-background:new    ;">
								<path class="st5" d="M447,210.8v8.7c0,2.2-0.7,6.1-1.6,9.9v-8.7C446.3,216.9,447,213,447,210.8"/>
								<path class="st1" d="M445.5,220.7v8.7c-1,4.5-2.1,8.7-2.3,9.6v-8.7C443.4,229.4,444.5,225.1,445.5,220.7"/>
							</g>
						</g>
					</g>
				</g>
				<g>
					<polygon class="st21" points="18.8,230.5 18.8,239.2 15.8,227.6 15.8,218.9 					"/>
				</g>
				<g>
					<polygon class="st19" points="17.7,230.5 17.7,239.1 14.8,227.8 14.8,219.1 					"/>
				</g>
				<g>
					<polygon class="st1" points="18.8,230.5 18.8,239.2 14.4,252.1 14.4,243.4 					"/>
				</g>
				<g>
					<polygon class="st33" points="442.1,230 442.1,238.7 438.4,255.5 438.4,246.8 					"/>
				</g>
				<g>
					<polygon class="st1" points="443.1,230.3 443.1,239 439.4,255.7 439.4,247 					"/>
				</g>
				<g>
					<polygon class="st21" points="17.3,257.6 17.3,266.3 14.4,252.1 14.4,243.4 					"/>
				</g>
				<g>
					<polygon class="st19" points="16.3,257.8 16.3,266.5 13.4,252 13.4,243.4 					"/>
				</g>
				<g>
					<polygon class="st22" points="438.4,246.8 438.4,255.5 436.5,270.3 436.5,261.6 					"/>
				</g>
				<g>
					<polygon class="st5" points="439.4,247 439.4,255.7 437.4,270.7 437.4,262 					"/>
				</g>
				<g>
					<polygon class="st19" points="17.7,273.4 17.7,282 16.3,266.5 16.3,257.8 					"/>
				</g>
				<g>
					<polygon class="st21" points="18.8,273.7 18.8,282.3 17.3,266.3 17.3,257.6 					"/>
				</g>
				<g>
					<polygon class="st12" points="436.5,261.6 436.5,270.3 428,285.1 428,276.4 					"/>
				</g>
				<g>
					<polygon class="st4" points="437.4,262 437.4,270.7 428.9,285.5 428.9,276.8 					"/>
				</g>
				<g>
					<polygon class="st3" points="18.8,273.7 18.8,282.3 4.1,301.1 4.1,292.4 					"/>
				</g>
				<g>
					<polygon class="st1" points="4.1,292.4 4.1,301.1 1.5,308.5 1.5,299.8 					"/>
				</g>
				<g>
					<polygon class="st33" points="428,276.4 428,285.1 422.3,310.2 422.3,301.5 					"/>
				</g>
				<g>
					<polygon class="st1" points="428.9,276.8 428.9,285.5 423.3,310.6 423.3,301.9 					"/>
				</g>
				<g>
					<polygon class="st21" points="8,309.8 8,318.5 1.5,308.5 1.5,299.8 					"/>
				</g>
				<g>
					<polygon class="st19" points="7.2,310.4 7.2,319.1 0.5,308.6 0.5,299.9 					"/>
				</g>
				<g>
					<polygon class="st12" points="422.3,301.5 422.3,310.2 416.8,320.3 416.8,311.6 					"/>
				</g>
				<g>
					<polygon class="st1" points="423.3,301.9 423.3,310.6 417.5,321 417.5,312.3 					"/>
				</g>
				<g>
					<polygon class="st34" points="416.8,311.6 416.8,320.3 408.2,327.8 408.2,319.1 					"/>
				</g>
				<g>
					<polygon class="st3" points="417.5,312.3 417.5,321 409.2,328.3 409.2,319.6 					"/>
				</g>
				<g>
					<polygon class="st21" points="19.4,321.9 19.4,330.6 8,318.5 8,309.8 					"/>
				</g>
				<g>
					<polygon class="st19" points="18.5,322.4 18.5,331.1 7.2,319.1 7.2,310.4 					"/>
				</g>
				<g class="st0">
					<g>
						<g>
							<defs>
								<path id="SVGID_00000141445957146881746400000011064683846799249841_" d="M286.3,347.9c-0.4-0.1-0.7-0.1-0.9-0.1v-8.7
									c0.3,0,0.6,0,0.9,0.1c0,0.1,0,0.3,0,0.4c0,0.1,0,0.3,0,0.5c0,0.1,0,0.3,0,0.5c0,0.1,0,0.3,0,0.5c0,0.1,0,0.3,0,0.5
									c0,0.1,0,0.3,0,0.5c0,0.1,0,0.3,0,0.5c0,0.1,0,0.3,0,0.4c0,0.2,0,0.4,0,0.6c0,0.2,0,0.4,0,0.6c0,0.2,0,0.4,0,0.6
									c0,0.2,0,0.4,0,0.6c0,0.2,0,0.4,0,0.6c0,0.2,0,0.4,0,0.6c0,0.2,0,0.4,0,0.6C286.3,347.5,286.3,347.7,286.3,347.9z"/>
							</defs>
							<clipPath id="SVGID_00000026883522709524940510000002514337245670144438_">
								<use xlink:href="#SVGID_00000141445957146881746400000011064683846799249841_"  style="overflow:visible;"/>
							</clipPath>
							<g style="clip-path:url(#SVGID_00000026883522709524940510000002514337245670144438_);enable-background:new    ;">
								<path class="st10" d="M305,345.8v8.7c-0.8,0.9-3.1,0.4-9.4-2.7c-5.3-2.7-8.7-4-10.3-4v-8.7c1.6,0,5,1.3,10.3,4
									C301.9,346.2,304.2,346.7,305,345.8"/>
							</g>
						</g>
					</g>
				</g>
				<g>
					<polygon class="st21" points="285.4,339.1 285.4,347.8 279.9,348.7 279.9,340 					"/>
				</g>
				<g>
					<polygon class="st19" points="285.4,340.1 285.4,348.7 280.6,349.6 280.6,340.9 					"/>
				</g>
				<g>
					<polygon class="st21" points="28.9,341.6 28.9,350.3 19.4,330.6 19.4,321.9 					"/>
				</g>
				<g>
					<polygon class="st19" points="27.9,341.8 27.9,350.5 18.5,331.1 18.5,322.4 					"/>
				</g>
				<g>
					<polygon class="st21" points="242.7,343.1 242.7,351.7 231.6,352.5 231.6,343.8 					"/>
				</g>
				<g>
					<polygon class="st19" points="242.5,344 242.5,352.7 231.8,353.5 231.8,344.8 					"/>
				</g>
				<g>
					<rect x="305" y="345.8" class="st21" width="7.6" height="8.7"/>
				</g>
				<g>
					<polygon class="st21" points="231.6,343.8 231.6,352.5 225.4,354.7 225.4,346 					"/>
				</g>
				<g class="st0">
					<g>
						<g>
							<defs>
								<path id="SVGID_00000130648092547234943220000007897731967744425123_" d="M286.3,347.9c0-0.2,0-0.4,0-0.6c0-0.2,0-0.4,0-0.6
									c0-0.2,0-0.4,0-0.6c0-0.2,0-0.4,0-0.6c0-0.2,0-0.4,0-0.6c0-0.2,0-0.4,0-0.6c0-0.2,0-0.4,0-0.6c0-0.2,0-0.4,0-0.6
									c0-0.1,0-0.3,0-0.4c0-0.1,0-0.3,0-0.5c0-0.1,0-0.3,0-0.5c0-0.1,0-0.3,0-0.5c0-0.1,0-0.3,0-0.5c0-0.1,0-0.3,0-0.5
									c0-0.1,0-0.3,0-0.5c0-0.1,0-0.3,0-0.4c1.8,0.4,5,1.7,9.3,3.9c6.2,3.1,8.5,3.6,9.4,2.7v8.7c-0.8,0.9-3.1,0.4-9.4-2.7
									C291.3,349.6,288.1,348.3,286.3,347.9z"/>
							</defs>
							<clipPath id="SVGID_00000005982879308028449180000007897470737628143517_">
								<use xlink:href="#SVGID_00000130648092547234943220000007897731967744425123_"  style="overflow:visible;"/>
							</clipPath>
							<g style="clip-path:url(#SVGID_00000005982879308028449180000007897470737628143517_);enable-background:new    ;">
								<path class="st10" d="M305,345.8v8.7c-0.8,0.9-3.1,0.4-9.4-2.7c-5.3-2.7-8.7-4-10.3-4v-8.7c1.6,0,5,1.3,10.3,4
									C301.9,346.2,304.2,346.7,305,345.8"/>
							</g>
						</g>
					</g>
				</g>
				<g>
					<rect x="306.4" y="346.8" class="st19" width="5.8" height="8.7"/>
				</g>
				<g>
					<polygon class="st21" points="255.1,346.8 255.1,355.5 242.7,351.7 242.7,343.1 					"/>
				</g>
				<g>
					<polygon class="st19" points="231.8,344.8 231.8,353.5 225.9,355.5 225.9,346.8 					"/>
				</g>
				<g class="st0">
					<g>
						<g>
							<defs>
								<path id="SVGID_00000131326779886937414050000011854732862332473745_" d="M306.4,346.8v8.7c-2.7,0.9-5.3,0.1-11.2-2.8
									c-7-3.5-9.2-3.9-9.8-3.9v-8.7c0.6,0,2.8,0.4,9.8,3.9C301,346.9,303.7,347.7,306.4,346.8z"/>
							</defs>
							<clipPath id="SVGID_00000162322313282896986280000008452786739063771028_">
								<use xlink:href="#SVGID_00000131326779886937414050000011854732862332473745_"  style="overflow:visible;"/>
							</clipPath>
							<g style="clip-path:url(#SVGID_00000162322313282896986280000008452786739063771028_);enable-background:new    ;">
								<path class="st3" d="M306.4,346.8v8.7c-2.7,0.9-5.3,0.1-11.2-2.8c-7-3.5-9.2-3.9-9.8-3.9v-8.7c0.6,0,2.8,0.4,9.8,3.9
									C301,346.9,303.7,347.7,306.4,346.8"/>
							</g>
						</g>
					</g>
				</g>
				<g>
					<polygon class="st19" points="254.6,347.7 254.6,356.4 242.5,352.7 242.5,344 					"/>
				</g>
				<g>
					<polygon class="st21" points="262.6,351.4 262.6,360.1 255.1,355.5 255.1,346.8 					"/>
				</g>
				<g class="st0">
					<g>
						<g>
							<defs>
								<path id="SVGID_00000108276264161127618380000002362114670768839861_" d="M225.4,354.7c-0.3,0.4-1.1,1.8-9.5,5.5
									c0-0.3,0-0.7,0-1s0-0.8,0-1.1s0-0.8,0-1.1s0-0.8,0-1.1s0-0.8,0-1.1s0-0.8,0-1.1s0-0.8,0-1.1s0-0.7,0-1c0,0,0,0,0.1,0
									c0,0.3,0,0.7,0,1s0,0.8,0,1.1s0,0.8,0,1.1s0,0.8,0,1.1s0,0.8,0,1.1s0,0.8,0,1.1s0,0.8,0,1.1s0,0.7,0,1c0-0.3,0-0.7,0-1
									s0-0.8,0-1.1s0-0.8,0-1.1s0-0.8,0-1.1s0-0.8,0-1.1s0-0.8,0-1.1s0-0.8,0-1.1s0-0.7,0-1c8.3-3.6,9.1-5.1,9.4-5.4
									C225.4,348.6,226.4,352.2,225.4,354.7z"/>
							</defs>
							<clipPath id="SVGID_00000181068429827955354890000005324971669412532638_">
								<use xlink:href="#SVGID_00000108276264161127618380000002362114670768839861_"  style="overflow:visible;"/>
							</clipPath>
							<g style="clip-path:url(#SVGID_00000181068429827955354890000005324971669412532638_);enable-background:new    ;">
								<path class="st10" d="M225.4,346v8.7c-0.3,0.4-1.1,1.8-9.5,5.5c-7.4,3.2-11.5,3.8-13.5,3.8c-1,0-1.4-0.1-1.4-0.1v-8.7
									c0,0,0.4,0.1,1.4,0.1c2,0,6.1-0.5,13.5-3.8C224.3,347.8,225.1,346.3,225.4,346"/>
							</g>
						</g>
					</g>
				</g>
				<g>
					<polygon class="st19" points="262.1,352.3 262.1,361 254.6,356.4 254.6,347.7 					"/>
				</g>
				<g>
					<polygon class="st19" points="415.8,353.1 415.8,361.8 408.2,348.6 408.2,339.9 					"/>
				</g>
				<g>
					<polygon class="st21" points="274.3,353.2 274.3,361.9 262.6,360.1 262.6,351.4 					"/>
				</g>
				<g>
					<polygon class="st39" points="279.9,340 279.9,348.7 274.3,361.9 274.3,353.2 					"/>
				</g>
				<g>
					<polygon class="st1" points="280.6,340.9 280.6,349.6 275,363 275,354.3 					"/>
				</g>
				<g>
					<polygon class="st19" points="275,354.3 275,363 262.1,361 262.1,352.3 					"/>
				</g>
				<g class="st0">
					<g>
						<g>
							<defs>
								<path id="SVGID_00000090281131515018321870000001496203493939131026_" d="M201,363.8c0-0.2,0-0.4,0-0.6c0-0.2,0-0.5,0-0.7
									s0-0.5,0-0.7s0-0.5,0-0.7s0-0.5,0-0.7s0-0.5,0-0.7s0-0.5,0-0.7s0-0.4,0-0.6c0-0.1,0-0.3,0-0.4c0-0.1,0-0.3,0-0.4
									c0-0.1,0-0.3,0-0.4c0-0.1,0-0.3,0-0.4s0-0.3,0-0.4c0-0.1,0-0.3,0-0.4c0-0.1,0-0.3,0-0.4c0-0.1,0-0.3,0-0.4
									c0.1,0,0.5,0.1,1.4,0.1c0,0.3,0,0.7,0,1s0,0.7,0,1.1c0,0.3,0,0.8,0,1.1s0,0.8,0,1.1s0,0.8,0,1.1s0,0.8,0,1.1s0,0.7,0,1.1
									c0,0.3,0,0.7,0,1l0,0l0,0l0,0l0,0l0,0l0,0l0,0l0,0C201.5,363.9,201.1,363.8,201,363.8z"/>
							</defs>
							<clipPath id="SVGID_00000131359034636368774350000011513075221831342759_">
								<use xlink:href="#SVGID_00000090281131515018321870000001496203493939131026_"  style="overflow:visible;"/>
							</clipPath>
							<g style="clip-path:url(#SVGID_00000131359034636368774350000011513075221831342759_);enable-background:new    ;">
								<path class="st10" d="M225.4,346v8.7c-0.3,0.4-1.1,1.8-9.5,5.5c-7.4,3.2-11.5,3.8-13.5,3.8c-1,0-1.4-0.1-1.4-0.1v-8.7
									c0,0,0.4,0.1,1.4,0.1c2,0,6.1-0.5,13.5-3.8C224.3,347.8,225.1,346.3,225.4,346"/>
							</g>
						</g>
					</g>
				</g>
				<g class="st0">
					<g>
						<g>
							<defs>
								<path id="SVGID_00000037686359101931955630000003558172194213340592_" d="M216,360.1c-7.4,3.2-11.5,3.8-13.5,3.8
									c0-0.3,0-0.7,0-1s0-0.8,0-1.1s0-0.8,0-1.1s0-0.8,0-1.1s0-0.8,0-1.1s0-0.8,0-1.1s0-0.8,0-1.1s0-0.7,0-1c2,0,6.1-0.6,13.5-3.8
									c0,0.3,0,0.7,0,1s0,0.8,0,1.1s0,0.8,0,1.1s0,0.8,0,1.1s0,0.8,0,1.1s0,0.8,0,1.1s0,0.8,0,1.1C216,359.4,216,359.8,216,360.1z
									"/>
							</defs>
							<clipPath id="SVGID_00000168107547237400784550000015498478491771541434_">
								<use xlink:href="#SVGID_00000037686359101931955630000003558172194213340592_"  style="overflow:visible;"/>
							</clipPath>
							<g style="clip-path:url(#SVGID_00000168107547237400784550000015498478491771541434_);enable-background:new    ;">
								<path class="st10" d="M225.4,346v8.7c-0.3,0.4-1.1,1.8-9.5,5.5c-7.4,3.2-11.5,3.8-13.5,3.8c-1,0-1.4-0.1-1.4-0.1v-8.7
									c0,0,0.4,0.1,1.4,0.1c2,0,6.1-0.5,13.5-3.8C224.3,347.8,225.1,346.3,225.4,346"/>
							</g>
						</g>
					</g>
				</g>
				<g class="st0">
					<g>
						<g>
							<defs>
								<path id="SVGID_00000001661684582829202400000000077589181014683024_" d="M202.4,363.9L202.4,363.9L202.4,363.9L202.4,363.9
									L202.4,363.9C202.4,363.8,202.4,363.8,202.4,363.9C202.4,363.8,202.4,363.8,202.4,363.9
									C202.4,363.8,202.4,363.8,202.4,363.9C202.4,363.8,202.4,363.8,202.4,363.9c0-0.4,0-0.8,0-1.1s0-0.7,0-1.1
									c0-0.3,0-0.8,0-1.1s0-0.8,0-1.1s0-0.8,0-1.1s0-0.8,0-1.1s0-0.7,0-1.1c0-0.3,0-0.7,0-1l0,0l0,0c0,0.3,0,0.7,0,1s0,0.8,0,1.1
									s0,0.8,0,1.1s0,0.8,0,1.1s0,0.8,0,1.1s0,0.8,0,1.1s0,0.8,0,1.1C202.5,363.2,202.5,363.6,202.4,363.9
									C202.5,363.9,202.5,363.9,202.4,363.9L202.4,363.9z"/>
							</defs>
							<clipPath id="SVGID_00000129170976368298027230000012596144056563506309_">
								<use xlink:href="#SVGID_00000001661684582829202400000000077589181014683024_"  style="overflow:visible;"/>
							</clipPath>
							<g style="clip-path:url(#SVGID_00000129170976368298027230000012596144056563506309_);enable-background:new    ;">
								<path class="st10" d="M225.4,346v8.7c-0.3,0.4-1.1,1.8-9.5,5.5c-7.4,3.2-11.5,3.8-13.5,3.8c-1,0-1.4-0.1-1.4-0.1v-8.7
									c0,0,0.4,0.1,1.4,0.1c2,0,6.1-0.5,13.5-3.8C224.3,347.8,225.1,346.3,225.4,346"/>
							</g>
						</g>
					</g>
				</g>
				<g>
					<polygon class="st21" points="201,355.1 201,363.8 194.5,366.3 194.5,357.7 					"/>
				</g>
				<g class="st0">
					<g>
						<g>
							<defs>
								<path id="SVGID_00000010290830300220511830000009615643404234570173_" d="M225.9,346.8v8.7c-0.5,0.7-2.3,2.3-9.6,5.5
									c-7.5,3.2-11.7,3.9-13.9,3.9c-0.8,0-1.3-0.1-1.6-0.2V356c0.3,0.1,0.8,0.2,1.6,0.2c2.2,0,6.4-0.6,13.9-3.9
									C223.6,349.2,225.5,347.5,225.9,346.8z"/>
							</defs>
							<clipPath id="SVGID_00000163050237466954439160000005552710548236010145_">
								<use xlink:href="#SVGID_00000010290830300220511830000009615643404234570173_"  style="overflow:visible;"/>
							</clipPath>
							<g style="clip-path:url(#SVGID_00000163050237466954439160000005552710548236010145_);enable-background:new    ;">
								<path class="st4" d="M225.9,346.8v8.7l-0.1,0.1V347C225.9,346.9,225.9,346.9,225.9,346.8"/>
								<path class="st3" d="M225.9,347v8.7c-0.6,0.8-2.7,2.4-9.5,5.4c-7.5,3.2-11.7,3.9-13.9,3.9c-0.8,0-1.3-0.1-1.6-0.2V356
									c0.3,0.1,0.8,0.2,1.6,0.2c2.2,0,6.4-0.6,13.9-3.9C223.2,349.4,225.2,347.7,225.9,347"/>
							</g>
						</g>
					</g>
				</g>
				<g class="st0">
					<g>
						<g>
							<defs>
								<path id="SVGID_00000156581994421067930680000008979798201316533893_" d="M174.9,363.5c-3.5,0-4.7,0.9-5,1.5v-8.7
									c0.3-0.6,1.5-1.5,5-1.5c2.1,0,5.1,0.3,9.3,1.2h0.1c0,0.3,0,0.7,0,1s0,0.7,0,1.1c0,0.3,0,0.8,0,1.1s0,0.8,0,1.1s0,0.8,0,1.1
									s0,0.8,0,1.1s0,0.7,0,1.1c0,0.3,0,0.7,0,1l0,0l0,0l0,0l0,0l0,0l0,0l0,0l0,0h-0.1C180,363.8,177,363.5,174.9,363.5z"/>
							</defs>
							<clipPath id="SVGID_00000082355618898030310460000002504674609152071313_">
								<use xlink:href="#SVGID_00000156581994421067930680000008979798201316533893_"  style="overflow:visible;"/>
							</clipPath>
							<g style="clip-path:url(#SVGID_00000082355618898030310460000002504674609152071313_);enable-background:new    ;">
								<path class="st10" d="M194.5,357.7v8.7c-0.9-0.1-6.5-0.8-10.3-1.6c-4.2-0.9-7.1-1.2-9.3-1.2c-3.3,0-4.5,0.8-4.9,1.3v-8.7
									c0.4-0.6,1.6-1.3,4.9-1.3c2.1,0,5.1,0.3,9.3,1.2C187.9,356.9,193.5,357.5,194.5,357.7"/>
								<path class="st12" d="M170,356.2v8.7l-0.1,0.1v-8.7C169.9,356.2,170,356.2,170,356.2"/>
							</g>
						</g>
					</g>
				</g>
				<g class="st0">
					<g>
						<g>
							<defs>
								<path id="SVGID_00000160911609547542189200000006215122485436415651_" d="M184.3,364.8L184.3,364.8
									C184.3,364.7,184.3,364.7,184.3,364.8C184.3,364.7,184.3,364.7,184.3,364.8C184.3,364.7,184.3,364.7,184.3,364.8
									C184.3,364.7,184.3,364.7,184.3,364.8C184.3,364.7,184.3,364.7,184.3,364.8C184.3,364.7,184.3,364.7,184.3,364.8
									C184.3,364.7,184.3,364.7,184.3,364.8c0-0.4,0-0.8,0-1.1s0-0.7,0-1.1c0-0.3,0-0.8,0-1.1s0-0.8,0-1.1s0-0.8,0-1.1
									s0-0.8,0-1.1s0-0.7,0-1.1c0-0.3,0-0.7,0-1c3.7,0.8,9.2,1.5,10.2,1.6c0,0.3,0,0.7,0,1s0,0.7,0,1.1c0,0.3,0,0.8,0,1.1
									s0,0.8,0,1.1s0,0.8,0,1.1s0,0.8,0,1.1s0,0.7,0,1.1c0,0.3,0,0.7,0,1c0-0.3,0-0.7,0-1s0-0.7,0-1.1c0-0.3,0-0.8,0-1.1
									s0-0.8,0-1.1s0-0.8,0-1.1s0-0.8,0-1.1s0-0.7,0-1.1c0-0.3,0-0.7,0-1l0,0v8.7C193.5,366.2,188,365.6,184.3,364.8z"/>
							</defs>
							<clipPath id="SVGID_00000101070428415621553290000016786475040262787201_">
								<use xlink:href="#SVGID_00000160911609547542189200000006215122485436415651_"  style="overflow:visible;"/>
							</clipPath>
							<g style="clip-path:url(#SVGID_00000101070428415621553290000016786475040262787201_);enable-background:new    ;">
								<path class="st10" d="M194.5,357.7v8.7c-0.9-0.1-6.5-0.8-10.3-1.6c-4.2-0.9-7.1-1.2-9.3-1.2c-3.3,0-4.5,0.8-4.9,1.3v-8.7
									c0.4-0.6,1.6-1.3,4.9-1.3c2.1,0,5.1,0.3,9.3,1.2C187.9,356.9,193.5,357.5,194.5,357.7"/>
							</g>
						</g>
					</g>
				</g>
				<g>
					<polygon class="st21" points="322.6,357.8 322.6,366.5 312.7,354.5 312.7,345.8 					"/>
				</g>
				<g>
					<polygon class="st21" points="169.9,356.3 169.9,365 160.6,366.6 160.6,357.9 					"/>
				</g>
				<g>
					<polygon class="st19" points="321.9,358.5 321.9,367.2 312.2,355.5 312.2,346.8 					"/>
				</g>
				<g>
					<polygon class="st19" points="200.9,356 200.9,364.7 194.6,367.3 194.6,358.7 					"/>
				</g>
				<g class="st0">
					<g>
						<g>
							<defs>
								<path id="SVGID_00000173163083470254675930000007723181864279276176_" d="M194.6,358.7v8.7c-0.2,0-6.5-0.7-10.6-1.6
									c-4.2-0.9-7-1.2-9-1.2c-3.7,0-4.2,1.1-4.2,1.1V357c0,0,0.5-1.1,4.2-1.1c2,0,4.8,0.3,9,1.2
									C188.1,357.9,194.4,358.6,194.6,358.7z"/>
							</defs>
							<clipPath id="SVGID_00000066491991550011877590000016381253656351783820_">
								<use xlink:href="#SVGID_00000173163083470254675930000007723181864279276176_"  style="overflow:visible;"/>
							</clipPath>
							<g style="clip-path:url(#SVGID_00000066491991550011877590000016381253656351783820_);enable-background:new    ;">
								<path class="st3" d="M194.6,358.7v8.7c-0.2,0-6.5-0.7-10.6-1.6c-4.2-0.9-7-1.2-9-1.2c-3.1,0-4,0.8-4.2,1v-8.7
									c0.2-0.2,1.1-1,4.2-1c2,0,4.8,0.3,9,1.2C188.1,357.9,194.4,358.6,194.6,358.7"/>
								<path class="st4" d="M170.8,356.8v8.7v0.1V356.8C170.7,356.9,170.7,356.8,170.8,356.8"/>
								<polyline class="st1" points="170.7,356.9 170.7,365.6 170.7,365.6 170.7,356.9 170.7,356.9 								"/>
							</g>
						</g>
					</g>
				</g>
				<g>
					<polygon class="st19" points="170.7,356.9 170.7,365.6 160.9,367.6 160.9,358.9 					"/>
				</g>
				<g>
					<polygon class="st19" points="422.3,360.4 422.3,369.1 415.8,361.8 415.8,353.1 					"/>
				</g>
				<g>
					<polygon class="st21" points="32.6,362.1 32.6,370.8 28.9,350.3 28.9,341.6 					"/>
				</g>
				<g>
					<polygon class="st19" points="31.6,362.1 31.6,370.8 27.9,350.5 27.9,341.8 					"/>
				</g>
				<g>
					<polygon class="st21" points="327.8,362.7 327.8,371.4 322.6,366.5 322.6,357.8 					"/>
				</g>
				<g>
					<polygon class="st19" points="327.4,363.7 327.4,372.3 321.9,367.2 321.9,358.5 					"/>
				</g>
				<g>
					<polygon class="st21" points="347.7,363.7 347.7,372.4 327.8,371.4 327.8,362.7 					"/>
				</g>
				<g>
					<polygon class="st19" points="347.1,364.5 347.1,373.1 327.4,372.3 327.4,363.7 					"/>
				</g>
				<g class="st0">
					<g>
						<g>
							<defs>
								<path id="SVGID_00000114774032256585001500000000843703052533989026_" d="M160.6,357.9v8.7c-0.1,0-2.6,1-6.6,2.4
									c-13.4,4.9-17.1,6.3-18.2,6.9v-8.7c1-0.5,4.7-2,18.2-6.9C158,358.9,160.5,358,160.6,357.9z"/>
							</defs>
							<clipPath id="SVGID_00000096037314634780340600000004307677990848385924_">
								<use xlink:href="#SVGID_00000114774032256585001500000000843703052533989026_"  style="overflow:visible;"/>
							</clipPath>
							<g style="clip-path:url(#SVGID_00000096037314634780340600000004307677990848385924_);enable-background:new    ;">
								<path class="st10" d="M160.6,357.9v8.7c-0.1,0-2.6,1-6.6,2.4c-13.4,4.9-17.1,6.3-18.2,6.9v-8.7c1-0.5,4.7-2,18.2-6.9
									C158,358.9,160.5,358,160.6,357.9"/>
							</g>
						</g>
					</g>
				</g>
				<g class="st0">
					<g>
						<g>
							<defs>
								<path id="SVGID_00000145744555902230668430000008461956441975120777_" d="M160.9,358.9v8.7c0,0-2.6,1-6.5,2.4
									c-14.4,5.2-17.4,6.5-18,6.8V368c0.6-0.3,3.6-1.6,18-6.8C158.3,359.8,160.9,358.9,160.9,358.9z"/>
							</defs>
							<clipPath id="SVGID_00000020373923664365195000000015309811104723831722_">
								<use xlink:href="#SVGID_00000145744555902230668430000008461956441975120777_"  style="overflow:visible;"/>
							</clipPath>
							<g style="clip-path:url(#SVGID_00000020373923664365195000000015309811104723831722_);enable-background:new    ;">
								<polyline class="st5" points="160.9,358.9 160.9,367.6 160.9,367.6 160.9,358.9 160.9,358.9 								"/>
								<polyline class="st1" points="160.9,358.9 160.9,367.6 160.9,367.6 160.9,358.9 160.9,358.9 								"/>
								<polyline class="st4" points="160.9,358.9 160.9,367.6 160.9,367.6 160.9,358.9 160.9,358.9 								"/>
								<path class="st3" d="M160.9,358.9v8.7c-0.2,0.1-2.7,1-6.5,2.4c-14.4,5.2-17.4,6.5-18,6.8V368c0.6-0.3,3.6-1.6,18-6.8
									C158.1,359.9,160.7,359,160.9,358.9"/>
							</g>
						</g>
					</g>
				</g>
				<g>
					<polygon class="st21" points="135.9,367.2 135.9,375.9 117.8,377.8 117.8,369.1 					"/>
				</g>
				<g>
					<polygon class="st19" points="136.4,368 136.4,376.7 118.2,378.7 118.2,370 					"/>
				</g>
				<g>
					<polygon class="st19" points="422.7,370.2 422.7,378.9 422.3,369.1 422.3,360.4 					"/>
				</g>
				<g>
					<rect x="373.7" y="375.6" class="st21" width="20.9" height="8.7"/>
				</g>
				<g>
					<polygon class="st21" points="373.7,375.6 373.7,384.2 357,385.2 357,376.5 					"/>
				</g>
				<g>
					<polygon class="st21" points="357,376.5 357,385.2 347.7,372.4 347.7,363.7 					"/>
				</g>
				<g>
					<rect x="373.8" y="376.5" class="st19" width="20.6" height="8.7"/>
				</g>
				<g>
					<polygon class="st19" points="356.5,377.5 356.5,386.2 347.1,373.1 347.1,364.5 					"/>
				</g>
				<g>
					<polygon class="st19" points="373.8,376.5 373.8,385.2 356.5,386.2 356.5,377.5 					"/>
				</g>
				<g>
					<polygon class="st49" points="422.7,370.2 422.7,378.9 416.4,388.4 416.4,379.7 					"/>
				</g>
				<g>
					<polygon class="st4" points="423.7,370.5 423.7,379.2 417,389.3 417,380.6 					"/>
				</g>
				<g>
					<polygon class="st21" points="416.4,379.7 416.4,388.4 406.1,390.2 406.1,381.5 					"/>
				</g>
				<g>
					<polygon class="st21" points="406.1,381.5 406.1,390.2 394.6,384.2 394.6,375.6 					"/>
				</g>
				<g>
					<polygon class="st20" points="117.8,369.1 117.8,377.8 102.6,390.8 102.6,382.1 					"/>
				</g>
				<g>
					<polygon class="st5" points="32.6,362.1 32.6,370.8 31.7,390.9 31.7,382.3 					"/>
				</g>
				<g>
					<polygon class="st19" points="405.9,382.5 405.9,391.2 394.4,385.2 394.4,376.5 					"/>
				</g>
				<g>
					<polygon class="st19" points="417,380.6 417,389.3 405.9,391.2 405.9,382.5 					"/>
				</g>
				<g>
					<polygon class="st3" points="118.2,370 118.2,378.7 103.1,391.7 103.1,383 					"/>
				</g>
				<g>
					<polygon class="st21" points="39,385.6 39,394.3 31.7,390.9 31.7,382.3 					"/>
				</g>
				<g>
					<polygon class="st21" points="70,385.8 70,394.5 39,394.3 39,385.6 					"/>
				</g>
				<g>
					<polygon class="st19" points="38.8,386.6 38.8,395.3 30.7,391.6 30.7,382.9 					"/>
				</g>
				<g>
					<polygon class="st19" points="69.8,386.8 69.8,395.5 38.8,395.3 38.8,386.6 					"/>
				</g>
				<g>
					<polygon class="st21" points="102.6,382.1 102.6,390.8 85,399.1 85,390.4 					"/>
				</g>
				<g>
					<polygon class="st21" points="85,390.4 85,399.1 70,394.5 70,385.8 					"/>
				</g>
				<g>
					<path class="st18" d="M186,0.3l10.1,9l7.6,6.5l17,8.4l9.4,7.4l15.3,5.7l16-0.9L283,47.5l13.2,7.4l15.3,2.9l13.9,0.9l8.4,12
						l8.6,4.7l10.3,1.9l5.6,15.5l8.5,14l11.4,10.3l20.7,17.6l5.8,6.7h12.2l3.8,7.4l11.5,0.9l10.3,4.6l10.3,7.4l10.2,11.9v6.1
						l-9.4,7.4l-1.9,14.9c-1.2,0.9-6.6,5-5.7,7.9c0.7,1.9-1.9,13.1-3.8,20.2l-3.8,16.8l-1.9,14.8l-8.4,14.8l-5.7,25.2l-5.6,10.1
						l-8.6,7.5v20.8l7.7,13.2l6.5,7.3l0.4,9.8l-6.4,9.5l-10.3,1.8l-11.5-5.9h-20.9l-16.7,0.9l-9.3-12.8l-19.9-1l-5.2-4.8l-10-12H305
						c-0.8,0.9-3.1,0.4-9.4-2.7c-5.3-2.7-8.7-4-10.3-4l-5.5,0.9l-5.5,13.2l-11.8-1.8l-7.5-4.6l-12.4-3.8l-11.1,0.7l-6.2,2.2
						c-0.3,0.4-1.1,1.8-9.5,5.5c-7.4,3.2-11.5,3.8-13.5,3.8c-1,0-1.4-0.1-1.4-0.1l-6.6,2.6c-0.9-0.1-6.5-0.8-10.3-1.6
						c-4.2-0.9-7.1-1.2-9.3-1.2c-3.5,0-4.7,0.9-5,1.5l-9.3,1.6c-0.1,0-2.6,1-6.6,2.4c-13.4,4.9-17.1,6.3-18.2,6.9l-18.1,1.9
						l-15.2,13.1l-17.7,8.3l-14.9-4.6l-31-0.2l-7.3-3.4l0.9-20.2L28.5,342L19,322.4L8,309.8l-6.5-10l2.6-7.4l14.6-18.7l-1.5-16
						l-2.9-14.2l4.4-12.9L15.8,219l-2.9-18.7L10,186v-17.1l7.1-18.2l33.3,1.4l20.7-8.7l5.9-11.6l10.2-14.4L93,106l11.6-18.5
						l13.2-5.8l5.9-17.4l7.3-24.4l4.3-14.3l9-12.1l12.5,1.6l9.5-4.7h8.6L186,0.3z"/>
				</g>
				<g>
					<path class="st17" d="M453.4,161.1l10.5,12.2v6.9l-9.5,7.5l-1.9,14.9c-2.6,1.8-6.3,5.2-5.7,7c1,2.8-3.3,18.9-3.8,20.7
						l-3.8,16.7l-1.9,15l-8.5,14.8l-5.7,25.2l-5.8,10.4l-8.3,7.3v20.1l7.5,12.9l6.7,7.5l0.4,10.4l-6.8,10.1l-11,1.9l-11.6-6h-20.6
						l-17.2,0.9l-9.5-13l-19.7-0.8l-5.5-5.2l-9.7-11.7h-5.8c-2.7,0.9-5.3,0.1-11.2-2.8c-7-3.5-9.2-3.9-9.8-3.9l-4.8,0.9l-5.6,13.4
						l-12.8-2l-7.5-4.6l-12.1-3.7l-10.7,0.8l-5.8,2.1c-0.5,0.7-2.3,2.3-9.6,5.5c-7.5,3.2-11.7,3.9-13.9,3.9c-0.8,0-1.3-0.1-1.6-0.2
						l-6.3,2.6c-0.2,0-6.5-0.7-10.6-1.6c-4.2-0.9-7-1.2-9-1.2c-3.7,0-4.2,1.1-4.2,1.1l-9.9,2c0,0-2.6,1-6.5,2.4
						c-14.4,5.2-17.4,6.5-18,6.8l-18.2,2l-15.1,13l-18.1,8.4L69.7,387l-31-0.1l-8.1-3.8l1-20.7l-3.8-20.3l-9.4-19.4l-11.3-12
						l-6.8-10.5l2.8-8l14.4-18.5l-1.4-15.6l-2.9-14.4l4.4-12.9l-2.9-11.3l-2.9-18.7L9,186.1v-17.4l7.4-19.1l33.8,1.4l20.1-8.5
						l5.8-11.3l10.2-14.4l5.8-11.4l11.8-18.8l13-5.7l5.8-17l7.3-24.4l4.4-14.5l9.4-12.7l12.8,1.7l9.4-4.6h8.4L186-1l10.7,9.6
						l7.5,6.5l17,8.4l9.4,7.4l14.9,5.5l16.1-0.9l21.8,11.2l13.1,7.4l15,2.8l14.3,0.9l8.6,12.2l8.3,4.6l10.6,1.9l5.7,16l8.4,13.8
						l11.3,10.2l20.8,17.7l5.6,6.4h12.3l3.8,7.5l11.2,0.9l10.5,4.7L453.4,161.1z M462.9,179.7v-6.1l-10.2-11.9l-10.3-7.4l-10.3-4.6
						l-11.5-0.9l-3.8-7.4h-12.2l-5.8-6.7l-20.7-17.6l-11.4-10.3l-8.5-14l-5.6-15.5l-10.3-1.9l-8.6-4.7l-8.4-12l-13.9-0.9l-15.3-2.9
						l-13.2-7.4l-21.6-11.1l-16,0.9L230,31.6l-9.4-7.4l-17-8.4L196,9.3l-10.1-9l-11.1,10.1h-8.6l-9.5,4.7l-12.5-1.6l-9,12.1
						l-4.3,14.3l-7.3,24.4l-5.9,17.4l-13.2,5.8L93,105.9l-5.8,11.4L77,131.7l-5.9,11.6L50.4,152l-33.3-1.4L10,168.9V186l2.9,14.3
						l2.9,18.7l2.9,11.6l-4.4,12.9l2.9,14.2l1.5,16L4.1,292.4l-2.6,7.4l6.5,10l11.3,12.1l9.5,19.6l3.8,20.5l-0.9,20.2l7.3,3.4
						l31,0.2l14.9,4.6l17.7-8.3l15.2-13.1l18.1-1.9c1-0.5,4.7-2,18.2-6.9c4-1.4,6.4-2.3,6.6-2.4l9.3-1.6c0.3-0.6,1.5-1.5,5-1.5
						c2.1,0,5.1,0.3,9.3,1.2c3.7,0.8,9.4,1.5,10.3,1.6l6.4-2.6c0.2,0.1,0.6,0.2,1.6,0.2c2,0,6.1-0.5,13.5-3.8
						c8.4-3.7,9.1-5.1,9.2-5.2l6.5-2.5l11-0.8l12.5,3.8l7.5,4.6l11.8,1.8l5.5-13.2l4.7-0.7c2.3-0.2,5.8,1.1,11.1,3.8
						c6.2,3.1,8.5,3.6,9.3,3.6l7.7-0.9l10,12l5.2,4.8l19.8,0.8l9.4,13l16.7-0.9h20.9l11.5,5.9l10.3-1.8l6.4-9.5l-0.4-9.8l-6.5-7.3
						l-7.7-13.2v-20.8l8.6-7.5l5.6-10.1l5.7-25.2l8.4-14.8l1.9-14.8l3.8-16.8c1.9-7.1,4.5-18.2,3.8-20.2c-1-2.9,4.4-7,5.7-7.9
						l1.9-14.9L462.9,179.7"/>
				</g>
				<g>
					<polygon class="st19" points="103.1,383 103.1,391.7 85,400.1 85,391.4 					"/>
				</g>
				<g>
					<polygon class="st19" points="85,391.4 85,400.1 69.8,395.5 69.8,386.8 					"/>
				</g>
			</g>
		</g>
	</g>
</g>
<g id="Layer_2_00000127010302115383648700000004398872554108128958_">
	<path class="st50" d="M16.9,249c11.1-2.6,13.6,17,12.1,24c11,0.5,15.1,0.5,22.2,8.5c1.8-3.4,4.1-6.5,4.9-10.2c0.9,0,1.8-0.5,2.4-1
		c1.4,3.2,3.6,5.1,6.6,6.6c-1.6,3.8-3.6,7.7-4.7,11.9c5.4,2.6,12.6,2,18.5,2.8c-0.4,2.7,1.3,4.9,1.3,7.4c1.4,0,3.3,0.5,4.7,0.3
		c2.6,8,10,17.6,8.1,26.6c5.3-0.8,11.4,0.9,16.9-0.8c0.8-4.4,0.7-9.2-2.5-12.3c5.6,1.7,13,0.9,19.2,0.8c0.1,3.3,0.4,7.8,1.5,11.5
		c3.6,0.1,7.4,0,11,0.2c-9.1,12-1.1,30.7-5.1,44.4"/>
	<path class="st50" d="M90,117.9c5-1.7,13.2,7.7,18.1,11c9.1,6.1,9.6,6,11.1,17.7c0.9,6.5,0.7,14.5,3.3,21.5
		c4.2,11,10.7,7.9,18.2,14.7c6.2,0.1,13.2,1.6,18.1-3.6c4.7,14-4.6,16-7.8,27.4c-2,6.9,1.3,19.4,2.2,27.5c0.9,8.5,2.9,18.2-1.6,26.5
		c-5.2,9.5-10.8,10.4-11.9,22c-1.1,11.1,1.7,21.7,1.2,32.3c-2.7-1.7-11.1-1-13.8-2"/>
	<path class="st50" d="M152,254.9c0.5,1.3,1.5,2.6,2.2,3.9c4.6-0.5,11.3-5.2,13-9.7c4.3,1.7,9.8,0.3,14.6,0c3.7,9.7-5.2,16-1.7,25.6
		c2.3,6.2,13.9,16.4,19.6,15.4c5.4,11.8,17.7,18.6,19.2,31.4c-8.2,2.6-1.9,8.3,0,12.8c2.8,6.9,2.1,6.9,2,14.6"/>
	<path class="st50" d="M220,317.5c3.8-0.2,6.5-0.4,8,3.2c4.8,1.2,6.9,0.3,7.8-4.1c8.3,0.8,38.5,5.8,44.6,1.9
		c5.2-3.4,2.2-12.3,4-16.9c1.2-3,5.9-8.4,7.8-11.1c5.5-7.9,12.9-14.1,19.2-21.6c7.8-9.3,10.9-19.1,22.9-21.7
		c15.7-3.4,36.9,0.3,52.8,1.3c1.1,5.3,6.3,12.6,12,14.2c3,0.8,6.4-2.2,10.1-1.5c7.8,1.4,12.5,6.1,21.6,6.1"/>
	<path class="st50" d="M272.2,41.1c-1,11,19.9,12.7,8.8,23.8c19.6,6.2,14.6,44.7,19.2,60.3c-13.2,0.8-25.5-1.8-36.6,4.8
		c-7.6,4.5-18.5,13.6-15.3,23.4c-9-2.6-13.2-1.5-20.9,0.1c-0.9,0.2-1.4,2.9-3.7,3.3c-1.9,0.4-4.5-2.4-6.5-2.2
		c-4.5,0.3-7.4-3-9.7,2.8c-9.4-3.4-19.9,2.2-25.7,12.4c-3,5.2-1.5,7.6-5.6,12.1c-3.2,3.6-9.3,6.3-13,7.3"/>
	<path class="st50" d="M246,153.9c5.1,2.4,6,7.5,10,10.5c3.3,2.5,10.8,4.7,14.9,6.7c-2.2,4.4-5,9.1-5.6,13.8
		c16.3-0.7,21.3,31.4,34.5,26.8c0-1.2,0.3-2.5,0.3-3.7c4-1.4,8.4-1.5,12.7-1c3,16.6-0.3,17.9-10.8,29.3c-7.5,8.2-5.4,26.7-13.6,31.5
		c2.9,0.3,5.6,1.8,8.5,2.1c0.3,4.4,0.1,9,0.2,13.5c-0.6-0.6-1.3-1.2-2.1-1.6"/>
</g>
</svg>
