<?xml version="1.0" encoding="utf-8"?>
<!-- Generator: Adobe Illustrator 25.4.1, SVG Export Plug-In . SVG Version: 6.00 Build 0)  -->
<svg version="1.1" id="Layer_1" xmlns="http://www.w3.org/2000/svg" xmlns:xlink="http://www.w3.org/1999/xlink" x="0px" y="0px"
	 viewBox="0 0 457.4 286.7" style="enable-background:new 0 0 457.4 286.7;" xml:space="preserve">
<style type="text/css">
	.st0{enable-background:new    ;}
	.st1{fill:#3F3F3F;}
	.st2{clip-path:url(#SVGID_00000076561404874362746950000004418597221960903045_);enable-background:new    ;}
	.st3{fill:#3F4040;}
	.st4{fill:#3F3F40;}
	.st5{fill:#404040;}
	.st6{clip-path:url(#SVGID_00000107582693869426544670000007518116985299114632_);enable-background:new    ;}
	.st7{clip-path:url(#SVGID_00000136400782299944362660000004606726584412423578_);enable-background:new    ;}
	.st8{clip-path:url(#SVGID_00000024700624893526832290000016931201720024750746_);enable-background:new    ;}
	.st9{fill:#404041;}
	.st10{fill:#808080;}
	.st11{fill:#828282;}
	.st12{fill:#878787;}
	.st13{fill:#939393;}
	.st14{fill:#898989;}
	.st15{fill:#858585;}
	.st16{fill:#818181;}
	.st17{clip-path:url(#SVGID_00000093176641729951302220000003103951693089369252_);enable-background:new    ;}
	.st18{clip-path:url(#SVGID_00000131342876542748091220000003669942536554516659_);enable-background:new    ;}
	.st19{clip-path:url(#SVGID_00000148663642766474522120000005161443997027705248_);enable-background:new    ;}
	.st20{clip-path:url(#SVGID_00000147933600207324932800000003490438230886223016_);enable-background:new    ;}
	.st21{clip-path:url(#SVGID_00000117672946147135677670000001280912299088036787_);enable-background:new    ;}
	.st22{clip-path:url(#SVGID_00000173866724820195280830000007028151601055850410_);enable-background:new    ;}
	.st23{clip-path:url(#SVGID_00000072253677849618420010000007714337290065194642_);enable-background:new    ;}
	.st24{fill:#8C8C8C;}
	.st25{fill:#929292;}
	.st26{fill:#838383;}
	.st27{fill:#8B8B8B;}
	.st28{fill:#8A8A8A;}
	.st29{fill:#E5E5E5;}
	.st30{fill:#464646;}
	.st31{clip-path:url(#SVGID_00000175314732393013866330000010202886842259036334_);enable-background:new    ;}
	.st32{clip-path:url(#SVGID_00000003803609129560534120000006262475497950664843_);enable-background:new    ;}
	.st33{fill:#8F8F8F;}
	.st34{clip-path:url(#SVGID_00000131366407325927282910000008706676063728694662_);enable-background:new    ;}
	.st35{clip-path:url(#SVGID_00000142168980679558407840000003842019531810189992_);enable-background:new    ;}
	.st36{clip-path:url(#SVGID_00000023266862914537246780000005088545877132557755_);enable-background:new    ;}
	.st37{clip-path:url(#SVGID_00000161598397136711059450000015719993064168754074_);enable-background:new    ;}
	.st38{clip-path:url(#SVGID_00000070111998929297981760000013259893889981235642_);enable-background:new    ;}
	.st39{clip-path:url(#SVGID_00000069362336392462413730000010831144419749633921_);enable-background:new    ;}
	.st40{clip-path:url(#SVGID_00000004516875074538615450000011514376063485206435_);enable-background:new    ;}
	.st41{fill:none;stroke:#000000;stroke-miterlimit:10;stroke-dasharray:3;}
	.st42{fill:#249EBA;stroke:#000000;stroke-miterlimit:10;}
	.st43{fill:none;}
	.st44{fill:none;stroke:#000000;stroke-miterlimit:10;}
	.st45{fill:none;stroke:#000000;stroke-linecap:round;stroke-miterlimit:10;}
</style>
<g>
	<g>
		<g class="st0">
			<g>
				<polygon class="st1" points="294.3,1.9 294.3,10.6 287.7,11.7 287.7,3.1 				"/>
			</g>
			<g>
				<polygon class="st1" points="236.7,7.2 236.7,15.9 222.2,16.9 222.2,8.2 				"/>
			</g>
			<g>
				<rect x="322.3" y="11" class="st1" width="8.1" height="8.7"/>
			</g>
			<g>
				<polygon class="st1" points="222.2,8.2 222.2,16.9 214.2,19.7 214.2,11 				"/>
			</g>
			<g class="st0">
				<g>
					<g>
						<defs>
							<path id="SVGID_1_" d="M322.3,11v8.7c-0.5,0.9-0.8,1.2-1.7,1.2c-1.6,0-5-0.9-13.1-5c-9.4-4.7-12.4-5.3-13.3-5.3V1.9
								c0.9,0,3.9,0.5,13.3,5.3c8.1,4.1,11.6,5,13.1,5C321.5,12.1,321.8,11.9,322.3,11z"/>
						</defs>
						<clipPath id="SVGID_00000005238780581921672250000005887072881535636907_">
							<use xlink:href="#SVGID_1_"  style="overflow:visible;"/>
						</clipPath>
						<g style="clip-path:url(#SVGID_00000005238780581921672250000005887072881535636907_);enable-background:new    ;">
							<path class="st3" d="M322.3,11v8.7c-0.1,0.3-0.3,0.5-0.4,0.6v-8.7C322,11.4,322.2,11.2,322.3,11"/>
							<path class="st4" d="M321.9,11.6v8.7c-0.3,0.4-0.6,0.5-1.3,0.5c-1.6,0-5-0.9-13.1-5c-9.4-4.7-12.4-5.3-13.3-5.3V1.8
								c0.9,0,3.9,0.5,13.3,5.3c8.1,4.1,11.6,5,13.1,5C321.3,12.1,321.6,12,321.9,11.6"/>
						</g>
					</g>
				</g>
			</g>
			<g>
				<polygon class="st1" points="253,12.2 253,20.9 236.7,15.9 236.7,7.2 				"/>
			</g>
			<g>
				<polygon class="st1" points="263.1,18.4 263.1,27.1 253,20.9 253,12.2 				"/>
			</g>
			<g>
				<polygon class="st1" points="280.2,21 280.2,29.7 263.1,27.1 263.1,18.4 				"/>
			</g>
			<g>
				<polygon class="st5" points="287.7,3.1 287.7,11.7 280.2,29.7 280.2,21 				"/>
			</g>
			<g class="st0">
				<g>
					<g>
						<defs>
							<path id="SVGID_00000132798111693661096630000000632467135285169304_" d="M214.2,11v8.7c-0.5,0.8-2.8,3-12.9,7.4
								c-10,4.4-15.7,5.2-18.6,5.2c-1.2,0-1.9-0.1-2.2-0.2v-8.7c0.3,0.1,1,0.2,2.2,0.2c2.9,0,8.6-0.8,18.6-5.2
								C211.5,14,213.7,11.8,214.2,11z"/>
						</defs>
						<clipPath id="SVGID_00000015340128778054575700000000165546277013710754_">
							<use xlink:href="#SVGID_00000132798111693661096630000000632467135285169304_"  style="overflow:visible;"/>
						</clipPath>
						<g style="clip-path:url(#SVGID_00000015340128778054575700000000165546277013710754_);enable-background:new    ;">
							<path class="st3" d="M214.2,11v8.7c0,0.1-0.1,0.1-0.2,0.2v-8.7C214.2,11.2,214.2,11.1,214.2,11"/>
							<path class="st4" d="M214.1,11.3V20c-0.8,0.9-3.4,3.1-12.7,7.2c-10,4.4-15.7,5.2-18.6,5.2c-1.2,0-1.9-0.1-2.2-0.2v-8.7
								c0.3,0.1,1,0.2,2.2,0.2c2.9,0,8.6-0.8,18.6-5.2C210.7,14.4,213.3,12.2,214.1,11.3"/>
						</g>
					</g>
				</g>
			</g>
			<g>
				<polygon class="st1" points="343.5,26.8 343.5,35.4 330.4,19.7 330.4,11 				"/>
			</g>
			<g>
				<polygon class="st1" points="180.6,23.4 180.6,32.1 172.2,35.6 172.2,26.9 				"/>
			</g>
			<g class="st0">
				<g>
					<g>
						<defs>
							<path id="SVGID_00000069363954085048822120000013691438855645964211_" d="M172.2,26.9v8.7c-0.2,0-8.7-1-14.2-2.2
								c-5.6-1.2-9.5-1.6-12.1-1.6c-5.2,0-5.8,1.5-5.9,1.5v-8.7c0,0,0.7-1.5,5.9-1.5c2.7,0,6.5,0.4,12.1,1.6
								C163.5,25.9,171.9,26.9,172.2,26.9z"/>
						</defs>
						<clipPath id="SVGID_00000049219492283696436690000008999298149803959184_">
							<use xlink:href="#SVGID_00000069363954085048822120000013691438855645964211_"  style="overflow:visible;"/>
						</clipPath>
						<g style="clip-path:url(#SVGID_00000049219492283696436690000008999298149803959184_);enable-background:new    ;">
							<path class="st4" d="M172.2,26.9v8.7c-0.2,0-8.7-1-14.2-2.2c-5.6-1.2-9.5-1.6-12.1-1.6c-4.3,0-5.5,1-5.8,1.4v-8.7
								c0.3-0.4,1.5-1.4,5.8-1.4c2.7,0,6.5,0.4,12.1,1.6C163.5,25.9,171.9,26.9,172.2,26.9"/>
							<path class="st3" d="M140,24.5v8.7c-0.1,0.1-0.1,0.1-0.1,0.1v-8.7C139.9,24.6,139.9,24.6,140,24.5"/>
						</g>
					</g>
				</g>
			</g>
			<g>
				<polygon class="st1" points="139.9,24.6 139.9,33.3 126.8,35.9 126.8,27.2 				"/>
			</g>
			<g>
				<polygon class="st1" points="350.8,33.6 350.8,42.3 343.5,35.4 343.5,26.8 				"/>
			</g>
			<g>
				<polygon class="st1" points="377.3,34.7 377.3,43.4 350.8,42.3 350.8,33.6 				"/>
			</g>
			<g class="st0">
				<g>
					<g>
						<defs>
							<path id="SVGID_00000115502326362332346790000004217677747590631851_" d="M126.8,27.2v8.7c0,0-3.5,1.3-8.7,3.2
								c-20,7.2-23.6,8.8-24.3,9.1v-8.7c0.7-0.3,4.4-1.9,24.3-9.1C123.3,28.5,126.8,27.2,126.8,27.2z"/>
						</defs>
						<clipPath id="SVGID_00000065757899061470723120000015153754573138284441_">
							<use xlink:href="#SVGID_00000115502326362332346790000004217677747590631851_"  style="overflow:visible;"/>
						</clipPath>
						<g style="clip-path:url(#SVGID_00000065757899061470723120000015153754573138284441_);enable-background:new    ;">
							<polyline class="st9" points="126.8,27.2 126.8,35.9 126.8,35.9 126.8,27.2 126.8,27.2 							"/>
							<polyline class="st5" points="126.8,27.2 126.8,35.9 126.8,35.9 126.8,27.2 126.8,27.2 							"/>
							<polyline class="st3" points="126.8,27.2 126.8,35.9 126.8,35.9 126.8,27.2 126.8,27.2 							"/>
							<path class="st4" d="M126.8,27.2v8.7c-0.2,0.1-3.7,1.4-8.7,3.2c-20,7.2-23.6,8.8-24.3,9.1v-8.7c0.7-0.3,4.4-1.9,24.3-9.1
								C123.1,28.6,126.5,27.3,126.8,27.2"/>
						</g>
					</g>
				</g>
			</g>
			<g>
				<polygon class="st1" points="93.8,39.5 93.8,48.2 69.4,50.9 69.4,42.2 				"/>
			</g>
			<g>
				<rect x="413.1" y="51" class="st1" width="27.8" height="8.7"/>
			</g>
			<g>
				<polygon class="st1" points="413.1,51 413.1,59.6 390,60.9 390,52.2 				"/>
			</g>
			<g>
				<polygon class="st1" points="390,52.2 390,60.9 377.3,43.4 377.3,34.7 				"/>
			</g>
			<g>
				<polygon class="st1" points="454.3,58.2 454.3,66.9 440.9,59.6 440.9,51 				"/>
			</g>
			<g>
				<polygon class="st4" points="69.4,42.2 69.4,50.9 49.1,68.3 49.1,59.7 				"/>
			</g>
			<g>
				<polygon class="st10" points="445,64.5 445,73.2 428.1,72.9 428.1,64.2 				"/>
			</g>
			<g>
				<polygon class="st11" points="454.3,58.2 454.3,66.9 445,73.2 445,64.5 				"/>
			</g>
			<g>
				<polygon class="st4" points="456.2,58.1 456.2,66.8 445.3,74.2 445.3,65.5 				"/>
			</g>
			<g>
				<polygon class="st1" points="445.3,65.5 445.3,74.2 428.1,73.9 428.1,65.2 				"/>
			</g>
			<g>
				<polygon class="st10" points="428.1,64.2 428.1,72.9 416.7,75.8 416.7,67.1 				"/>
			</g>
			<g>
				<polygon class="st1" points="428.1,65.2 428.1,73.9 417.3,76.6 417.3,67.9 				"/>
			</g>
			<g>
				<polygon class="st1" points="49.1,59.7 49.1,68.3 24.8,79.7 24.8,71 				"/>
			</g>
			<g>
				<polygon class="st1" points="24.8,71 24.8,79.7 7.1,74.2 7.1,65.5 				"/>
			</g>
			<g>
				<polygon class="st12" points="416.7,67.1 416.7,75.8 411.1,83.2 411.1,74.5 				"/>
			</g>
			<g>
				<polygon class="st3" points="417.3,67.9 417.3,76.6 412.1,83.5 412.1,74.8 				"/>
			</g>
			<g>
				<polygon class="st10" points="20.9,75.9 20.9,84.6 7.1,74.2 7.1,65.5 				"/>
			</g>
			<g>
				<polygon class="st1" points="20.2,76.6 20.2,85.3 1.9,71.6 1.9,62.9 				"/>
			</g>
			<g>
				<polygon class="st10" points="27.5,83.1 27.5,91.7 20.9,84.6 20.9,75.9 				"/>
			</g>
			<g>
				<polygon class="st1" points="26.7,83.6 26.7,92.3 20.2,85.3 20.2,76.6 				"/>
			</g>
			<g>
				<polygon class="st9" points="412.1,74.8 412.1,83.5 411.8,94.3 411.8,85.6 				"/>
			</g>
			<g>
				<polygon class="st13" points="411.1,74.5 411.1,83.2 410.8,94.3 410.8,85.6 				"/>
			</g>
			<g>
				<polygon class="st10" points="32.9,91.5 32.9,100.2 27.5,91.7 27.5,83.1 				"/>
			</g>
			<g>
				<polygon class="st1" points="32.2,92.1 32.2,100.8 26.7,92.3 26.7,83.6 				"/>
			</g>
			<g>
				<polygon class="st1" points="411.4,98 411.4,106.7 410.8,94.3 410.8,85.6 				"/>
			</g>
			<g>
				<polygon class="st10" points="39.3,98.1 39.3,106.8 32.9,100.2 32.9,91.5 				"/>
			</g>
			<g>
				<polygon class="st10" points="52.5,96.3 52.5,105 39.3,106.8 39.3,98.1 				"/>
			</g>
			<g>
				<polygon class="st10" points="72.6,98.2 72.6,106.8 52.5,105 52.5,96.3 				"/>
			</g>
			<g>
				<polygon class="st1" points="72.1,99.1 72.1,107.8 52.5,106 52.5,97.3 				"/>
			</g>
			<g>
				<polygon class="st1" points="39,99.2 39,107.8 32.2,100.8 32.2,92.1 				"/>
			</g>
			<g>
				<polygon class="st1" points="52.5,97.3 52.5,106 39,107.8 39,99.2 				"/>
			</g>
			<g>
				<polygon class="st10" points="80.3,105.1 80.3,113.8 72.6,106.8 72.6,98.2 				"/>
			</g>
			<g>
				<polygon class="st1" points="79.6,105.8 79.6,114.5 72.1,107.8 72.1,99.1 				"/>
			</g>
			<g>
				<polygon class="st1" points="413.9,107.6 413.9,116.3 411.4,106.7 411.4,98 				"/>
			</g>
			<g>
				<polygon class="st14" points="413.9,107.6 413.9,116.3 409,123.8 409,115.1 				"/>
			</g>
			<g>
				<polygon class="st3" points="415,107.8 415,116.4 409.7,124.5 409.7,115.9 				"/>
			</g>
			<g>
				<polygon class="st10" points="91.4,118.9 91.4,127.6 80.3,113.8 80.3,105.1 				"/>
			</g>
			<g>
				<polygon class="st11" points="409,115.1 409,123.8 403.2,127.6 403.2,118.9 				"/>
			</g>
			<g>
				<polygon class="st4" points="409.7,115.9 409.7,124.5 404.2,128.1 404.2,119.4 				"/>
			</g>
			<g>
				<polygon class="st1" points="90.6,119.5 90.6,128.2 79.6,114.5 79.6,105.8 				"/>
			</g>
			<g>
				<polygon class="st10" points="107.5,141.6 107.5,150.3 91.4,127.6 91.4,118.9 				"/>
			</g>
			<g>
				<polygon class="st1" points="106.7,142.2 106.7,150.9 90.6,128.2 90.6,119.5 				"/>
			</g>
			<g>
				<polygon class="st1" points="403.5,144.3 403.5,153 403.2,127.6 403.2,118.9 				"/>
			</g>
			<g>
				<polygon class="st1" points="414.4,153.8 414.4,162.5 403.5,153 403.5,144.3 				"/>
			</g>
			<g>
				<polygon class="st15" points="414.4,153.8 414.4,162.5 408.1,168.9 408.1,160.2 				"/>
			</g>
			<g>
				<polygon class="st4" points="415.8,153.7 415.8,162.4 408.7,169.7 408.7,161 				"/>
			</g>
			<g>
				<polygon class="st16" points="408.1,160.2 408.1,168.9 396.1,176.7 396.1,168 				"/>
			</g>
			<g>
				<polygon class="st4" points="408.7,161 408.7,169.7 396.7,177.5 396.7,168.8 				"/>
			</g>
			<g>
				<polygon class="st10" points="141.6,173.1 141.6,181.8 107.5,150.3 107.5,141.6 				"/>
			</g>
			<g>
				<polygon class="st1" points="140.6,173.4 140.6,182.1 106.7,150.9 106.7,142.2 				"/>
			</g>
			<g>
				<polygon class="st11" points="396.1,168 396.1,176.7 376,189.9 376,181.2 				"/>
			</g>
			<g>
				<polygon class="st4" points="396.7,168.8 396.7,177.5 377,190.4 377,181.7 				"/>
			</g>
			<g>
				<polygon class="st1" points="377.3,192.7 377.3,201.4 376,189.9 376,181.2 				"/>
			</g>
			<g class="st0">
				<g>
					<g>
						<defs>
							<path id="SVGID_00000037651707246407140230000017889709973576325775_" d="M175.6,202.5c0-0.1,0-0.2,0-0.3c0-0.1,0-0.2,0-0.3
								c0-0.1,0-0.2,0-0.3c0-0.1,0-0.2,0-0.3c0-0.1,0-0.2,0-0.3c0-0.1,0-0.2,0-0.3c0-0.1,0-0.2,0-0.3c0-0.1,0-0.2,0-0.3
								c0-0.2,0-0.5,0-0.7s0-0.5,0-0.8c0-0.2,0-0.6,0-0.8c0-0.2,0-0.6,0-0.8c0-0.2,0-0.6,0-0.8c0-0.2,0-0.6,0-0.8c0-0.2,0-0.5,0-0.8
								c0-0.2,0-0.5,0-0.7c0.3-0.1,0.6-0.2,0.8-0.2v8.7C176.2,202.3,175.9,202.3,175.6,202.5z"/>
						</defs>
						<clipPath id="SVGID_00000094587756479497480700000002335045350784012448_">
							<use xlink:href="#SVGID_00000037651707246407140230000017889709973576325775_"  style="overflow:visible;"/>
						</clipPath>
						<g style="clip-path:url(#SVGID_00000094587756479497480700000002335045350784012448_);enable-background:new    ;">
							<path class="st15" d="M176.4,193.6v8.7c-0.8,0.1-2.2,1.1-4.7,1.1c-2.1,0-5.1-0.8-8.7-3.6c-17.3-13.8-20.8-17.2-21.5-18v-8.7
								c0.7,0.8,4.2,4.2,21.5,18c3.6,2.9,6.5,3.6,8.7,3.6C174.2,194.7,175.6,193.6,176.4,193.6"/>
						</g>
					</g>
				</g>
			</g>
			<g class="st0">
				<g>
					<g>
						<defs>
							<path id="SVGID_00000130639700046601240000000008214072681761479552_" d="M175.6,202.5c-0.8,0.3-2.1,0.9-3.9,0.9
								c0-0.3,0-0.7,0-1s0-0.8,0-1.1c0-0.3,0-0.8,0-1.1c0-0.3,0-0.8,0-1.1c0-0.3,0-0.8,0-1.1c0-0.3,0-0.8,0-1.1c0-0.3,0-0.8,0-1.1
								c0-0.3,0-0.7,0-1c1.8,0,3-0.6,3.9-0.9c0,0.2,0,0.5,0,0.7s0,0.5,0,0.8c0,0.2,0,0.6,0,0.8c0,0.2,0,0.6,0,0.8c0,0.2,0,0.6,0,0.8
								c0,0.2,0,0.6,0,0.8c0,0.2,0,0.5,0,0.8c0,0.2,0,0.5,0,0.7c0,0.1,0,0.2,0,0.3c0,0.1,0,0.2,0,0.3c0,0.1,0,0.2,0,0.3
								c0,0.1,0,0.2,0,0.3c0,0.1,0,0.2,0,0.3c0,0.1,0,0.2,0,0.3c0,0.1,0,0.2,0,0.3C175.6,202.3,175.6,202.4,175.6,202.5z"/>
						</defs>
						<clipPath id="SVGID_00000117635182983813899480000014288247380164411011_">
							<use xlink:href="#SVGID_00000130639700046601240000000008214072681761479552_"  style="overflow:visible;"/>
						</clipPath>
						<g style="clip-path:url(#SVGID_00000117635182983813899480000014288247380164411011_);enable-background:new    ;">
							<path class="st15" d="M176.4,193.6v8.7c-0.8,0.1-2.2,1.1-4.7,1.1c-2.1,0-5.1-0.8-8.7-3.6c-17.3-13.8-20.8-17.2-21.5-18v-8.7
								c0.7,0.8,4.2,4.2,21.5,18c3.6,2.9,6.5,3.6,8.7,3.6C174.2,194.7,175.6,193.6,176.4,193.6"/>
						</g>
					</g>
				</g>
			</g>
			<g class="st0">
				<g>
					<g>
						<defs>
							<path id="SVGID_00000183967011572723962760000004088957033146228885_" d="M171.7,203.4c-2.1,0-5.1-0.8-8.6-3.6
								c0-0.3,0-0.7,0-1s0-0.8,0-1.1c0-0.3,0-0.8,0-1.1c0-0.3,0-0.8,0-1.1c0-0.3,0-0.8,0-1.1c0-0.3,0-0.8,0-1.1c0-0.3,0-0.8,0-1.1
								c0-0.3,0-0.7,0-1c3.6,2.8,6.5,3.6,8.6,3.6c0,0.3,0,0.7,0,1s0,0.8,0,1.1c0,0.3,0,0.8,0,1.1c0,0.3,0,0.8,0,1.1
								c0,0.3,0,0.8,0,1.1c0,0.3,0,0.8,0,1.1c0,0.3,0,0.8,0,1.1C171.7,202.7,171.7,203.1,171.7,203.4z"/>
						</defs>
						<clipPath id="SVGID_00000139982972860088535460000010448049589731040438_">
							<use xlink:href="#SVGID_00000183967011572723962760000004088957033146228885_"  style="overflow:visible;"/>
						</clipPath>
						<g style="clip-path:url(#SVGID_00000139982972860088535460000010448049589731040438_);enable-background:new    ;">
							<path class="st15" d="M176.4,193.6v8.7c-0.8,0.1-2.2,1.1-4.7,1.1c-2.1,0-5.1-0.8-8.7-3.6c-17.3-13.8-20.8-17.2-21.5-18v-8.7
								c0.7,0.8,4.2,4.2,21.5,18c3.6,2.9,6.5,3.6,8.7,3.6C174.2,194.7,175.6,193.6,176.4,193.6"/>
						</g>
					</g>
				</g>
			</g>
			<g class="st0">
				<g>
					<g>
						<defs>
							<path id="SVGID_00000069400185916663989250000006699404666523474057_" d="M176,194.5v8.7c-0.6,0.4-2.1,1.1-4.3,1.1
								c-2.3,0-5.5-0.8-9.3-3.9c-13.4-10.6-20.7-16.8-21.9-18.4v-8.7c1.1,1.6,8.5,7.8,21.9,18.4c3.8,3,6.9,3.9,9.3,3.9
								C173.9,195.7,175.4,194.9,176,194.5z"/>
						</defs>
						<clipPath id="SVGID_00000152255040672129510990000015016213963998646687_">
							<use xlink:href="#SVGID_00000069400185916663989250000006699404666523474057_"  style="overflow:visible;"/>
						</clipPath>
						<g style="clip-path:url(#SVGID_00000152255040672129510990000015016213963998646687_);enable-background:new    ;">
							<path class="st4" d="M176,194.5v8.7c-0.6,0.4-2.1,1.1-4.3,1.1c-2.3,0-5.5-0.8-9.3-3.9c-13.4-10.6-20.7-16.8-21.9-18.4v-8.7
								c1.1,1.6,8.5,7.8,21.9,18.4c3.8,3,6.9,3.9,9.3,3.9C173.9,195.7,175.4,194.9,176,194.5"/>
						</g>
					</g>
				</g>
			</g>
			<g>
				<polygon class="st1" points="388,197.5 388,206.2 377.3,201.4 377.3,192.7 				"/>
			</g>
			<g>
				<polygon class="st10" points="184.8,201.5 184.8,210.2 176.4,202.2 176.4,193.6 				"/>
			</g>
			<g>
				<polygon class="st10" points="202.3,202.1 202.3,210.8 184.8,210.2 184.8,201.5 				"/>
			</g>
			<g>
				<polygon class="st10" points="213.2,202.5 213.2,211.1 202.3,210.8 202.3,202.1 				"/>
			</g>
			<g>
				<polygon class="st1" points="184.4,202.5 184.4,211.2 176,203.2 176,194.5 				"/>
			</g>
			<g>
				<polygon class="st1" points="400,203.1 400,211.8 388,206.2 388,197.5 				"/>
			</g>
			<g>
				<polygon class="st1" points="202.3,203.1 202.3,211.8 184.4,211.2 184.4,202.5 				"/>
			</g>
			<g>
				<polygon class="st1" points="212.9,203.4 212.9,212.1 202.3,211.8 202.3,203.1 				"/>
			</g>
			<g>
				<polygon class="st1" points="412.3,204.3 412.3,213 400,211.8 400,203.1 				"/>
			</g>
			<g>
				<polygon class="st10" points="216.8,205 216.8,213.7 213.2,211.1 213.2,202.5 				"/>
			</g>
			<g>
				<polygon class="st1" points="216.2,205.8 216.2,214.5 212.9,212.1 212.9,203.4 				"/>
			</g>
			<g>
				<polygon class="st1" points="417.7,212.6 417.7,221.3 412.3,213 412.3,204.3 				"/>
			</g>
			<g>
				<polygon class="st10" points="226,214.1 226,222.8 216.8,213.7 216.8,205 				"/>
			</g>
			<g>
				<polygon class="st1" points="225.3,214.8 225.3,223.5 216.2,214.5 216.2,205.8 				"/>
			</g>
			<g class="st0">
				<g>
					<g>
						<defs>
							<path id="SVGID_00000076568702814949779680000003699263009381868961_" d="M226,222.8c0-3.1,0-5.6,0-8.7
								c6.4,6.3,12.2,7.2,14.9,7.2c0,0.3,0,0.7,0,1s0,0.8,0,1.1c0,0.3,0,0.8,0,1.1c0,0.3,0,0.8,0,1.1c0,0.3,0,0.8,0,1.1
								c0,0.3,0,0.8,0,1.1c0,0.3,0,0.8,0,1.1c0,0.3,0,0.7,0,1C238.2,230,232.4,229.1,226,222.8z"/>
						</defs>
						<clipPath id="SVGID_00000082354806983360367680000000609233135786260641_">
							<use xlink:href="#SVGID_00000076568702814949779680000003699263009381868961_"  style="overflow:visible;"/>
						</clipPath>
						<g style="clip-path:url(#SVGID_00000082354806983360367680000000609233135786260641_);enable-background:new    ;">
							<path class="st15" d="M243.1,221.3v8.7c-0.5-0.1-1.1,0-2.2,0c-2.8,0-8.5-0.9-14.9-7.2v-8.7c6.4,6.3,12.2,7.2,14.9,7.2
								C242,221.3,242.6,221.1,243.1,221.3"/>
						</g>
					</g>
				</g>
			</g>
			<g class="st0">
				<g>
					<g>
						<defs>
							<path id="SVGID_00000100357081201582010570000001372454995245911220_" d="M243.1,230c-0.5-0.1-1.1,0-2.2,0c0-0.3,0-0.7,0-1
								s0-0.8,0-1.1c0-0.3,0-0.8,0-1.1c0-0.3,0-0.8,0-1.1c0-0.3,0-0.8,0-1.1c0-0.3,0-0.8,0-1.1c0-0.3,0-0.8,0-1.1c0-0.3,0-0.7,0-1
								c1.1,0,1.7-0.1,2.2,0C243.1,223.9,243.1,227.4,243.1,230z"/>
						</defs>
						<clipPath id="SVGID_00000090999346565309773530000005862656834199127424_">
							<use xlink:href="#SVGID_00000100357081201582010570000001372454995245911220_"  style="overflow:visible;"/>
						</clipPath>
						<g style="clip-path:url(#SVGID_00000090999346565309773530000005862656834199127424_);enable-background:new    ;">
							<path class="st15" d="M243.1,221.3v8.7c-0.5-0.1-1.1,0-2.2,0c-2.8,0-8.5-0.9-14.9-7.2v-8.7c6.4,6.3,12.2,7.2,14.9,7.2
								C242,221.3,242.6,221.1,243.1,221.3"/>
						</g>
					</g>
				</g>
			</g>
			<g class="st0">
				<g>
					<g>
						<defs>
							<path id="SVGID_00000153695640188752710560000000266663478720528057_" d="M242.6,222.2v8.7c-0.3,0.1-0.9,0.1-1.7,0.1
								c-3,0-8.9-1-15.5-7.5v-8.7c6.6,6.5,12.5,7.5,15.5,7.5C241.7,222.3,242.3,222.2,242.6,222.2z"/>
						</defs>
						<clipPath id="SVGID_00000011729772282459526100000003506241272707815354_">
							<use xlink:href="#SVGID_00000153695640188752710560000000266663478720528057_"  style="overflow:visible;"/>
						</clipPath>
						<g style="clip-path:url(#SVGID_00000011729772282459526100000003506241272707815354_);enable-background:new    ;">
							<path class="st4" d="M242.6,222.2v8.7c-0.3,0.1-0.9,0.1-1.7,0.1c-3,0-8.9-1-15.5-7.5v-8.7c6.6,6.5,12.5,7.5,15.5,7.5
								C241.7,222.3,242.3,222.2,242.6,222.2"/>
						</g>
					</g>
				</g>
			</g>
			<g>
				<polygon class="st24" points="417.7,212.6 417.7,221.3 412.7,231.7 412.7,223 				"/>
			</g>
			<g>
				<polygon class="st5" points="418.8,212.6 418.8,221.2 413.7,232 413.7,223.3 				"/>
			</g>
			<g>
				<polygon class="st10" points="254.1,232.7 254.1,241.4 243.1,230 243.1,221.3 				"/>
			</g>
			<g>
				<polygon class="st1" points="253.6,233.6 253.6,242.3 242.6,230.8 242.6,222.2 				"/>
			</g>
			<g>
				<polygon class="st25" points="412.7,223 412.7,231.7 411.4,243.1 411.4,234.4 				"/>
			</g>
			<g>
				<polygon class="st9" points="413.7,223.3 413.7,232 412.4,243.6 412.4,235 				"/>
			</g>
			<g>
				<polygon class="st10" points="272.2,236.5 272.2,245.2 254.1,241.4 254.1,232.7 				"/>
			</g>
			<g>
				<polygon class="st1" points="271.7,237.3 271.7,246 253.6,242.3 253.6,233.6 				"/>
			</g>
			<g>
				<polygon class="st26" points="411.4,234.4 411.4,243.1 402.7,250.2 402.7,241.5 				"/>
			</g>
			<g>
				<polygon class="st4" points="412.4,235 412.4,243.6 403.4,250.9 403.4,242.2 				"/>
			</g>
			<g>
				<polygon class="st10" points="282.4,243.8 282.4,252.5 272.2,245.2 272.2,236.5 				"/>
			</g>
			<g>
				<polygon class="st10" points="291.3,242.9 291.3,251.6 282.4,252.5 282.4,243.8 				"/>
			</g>
			<g>
				<polygon class="st1" points="291.1,243.9 291.1,252.6 282.2,253.5 282.2,244.9 				"/>
			</g>
			<g>
				<polygon class="st1" points="282.2,244.9 282.2,253.5 271.7,246 271.7,237.3 				"/>
			</g>
			<g>
				<polygon class="st10" points="305.7,246.8 305.7,255.5 291.3,251.6 291.3,242.9 				"/>
			</g>
			<g>
				<polygon class="st15" points="402.7,241.5 402.7,250.2 397.3,255.8 397.3,247.1 				"/>
			</g>
			<g>
				<polygon class="st1" points="305.1,247.6 305.1,256.3 291.1,252.6 291.1,243.9 				"/>
			</g>
			<g>
				<polygon class="st4" points="403.4,242.2 403.4,250.9 398.1,256.4 398.1,247.8 				"/>
			</g>
			<g>
				<polygon class="st10" points="313.9,255.5 313.9,264.1 305.7,255.5 305.7,246.8 				"/>
			</g>
			<g>
				<polygon class="st1" points="313.2,256.2 313.2,264.9 305.1,256.3 305.1,247.6 				"/>
			</g>
			<g>
				<polygon class="st27" points="397.3,247.1 397.3,255.8 392.5,265.6 392.5,256.9 				"/>
			</g>
			<g>
				<polygon class="st5" points="398.1,247.8 398.1,256.4 393.4,266 393.4,257.3 				"/>
			</g>
			<g>
				<rect x="323.2" y="259.1" class="st10" width="23.8" height="8.7"/>
			</g>
			<g>
				<polygon class="st10" points="323.2,259.1 323.2,267.8 313.9,264.1 313.9,255.5 				"/>
			</g>
			<g>
				<polygon class="st1" points="322.9,260.1 322.9,268.8 313.2,264.9 313.2,256.2 				"/>
			</g>
			<g>
				<polygon class="st1" points="346.6,260.1 346.6,268.8 322.9,268.8 322.9,260.1 				"/>
			</g>
			<g>
				<polygon class="st28" points="392.5,256.9 392.5,265.6 388.5,272.5 388.5,263.8 				"/>
			</g>
			<g>
				<polygon class="st3" points="393.4,257.3 393.4,266 389.1,273.4 389.1,264.8 				"/>
			</g>
			<g>
				<polygon class="st10" points="388.5,263.8 388.5,272.5 357,274.3 357,265.6 				"/>
			</g>
			<g>
				<polygon class="st10" points="357,265.6 357,274.3 346.9,267.8 346.9,259.1 				"/>
			</g>
			<g>
				<path class="st29" d="M294,2.1c1.2-0.2,4.2,0.4,13.6,5.1c8.1,4.1,11.6,5,13.1,5c0.9,0,1.2-0.3,1.3-0.4l8.4-0.7l13.1,15.8
					l7.3,6.9l26.5,1.1L390,52.4l23.1-1.3h27.8l13.4,7.3l-9.3,6.3l-16.9-0.3l-11.4,2.9l-5.6,7.4l-0.3,11.1l0.6,12.5l2.5,9.5l-4.9,7.5
					l-5.8,3.8l0.3,25.4l10.8,9.5l-6.2,6.4l-12,7.8l-20.2,13.2l1.3,11.5l10.7,4.8l12,5.6l12.2,1.3l5.4,8.3l-4.9,10.3l-1.3,11.5
					l-8.7,7.1l-5.4,5.6l-4.8,9.7l-4,6.9l-31.5,1.8l-10.1-6.5H323l-9.3-3.7l-8.1-8.6l-14.5-3.9l-8.8,0.9l-10.3-7.4l-18.1-3.8
					l-11-11.4c-0.5-0.1-1.1,0-2.2,0c-2.8,0-8.5-0.9-14.9-7.2l-9.2-9.1l-3.6-2.6l-10.9-0.3l-17.5-0.6l-8.4-8
					c-0.8,0.1-2.2,1.1-4.7,1.1c-2.1,0-5.1-0.8-8.7-3.6c-17.3-13.8-20.8-17.2-21.5-18l-33.8-31.5l-16.1-22.7l-11.1-13.8l-7.7-7
					l-20.1-1.9L39.4,98L33,91.4l-5.4-8.5L21,75.7L7.2,65.3L25,70.8l24.3-11.3L69.6,42l24.3-2.5c0.7-0.5,4.4-2,24.3-9.3
					c5.3-1.9,8.7-3.2,8.7-3.2l12.7-2.3c0.4-0.4,1.1-1.9,6.2-1.9c2.7,0,6.5,0.4,12.1,1.6c5.5,1.2,14,2.2,14.1,2.2l8.6-3.5
					c0.3,0.1,1,0.2,2.2,0.2c2.9,0,8.6-0.8,18.6-5.2c10.1-4.4,12.3-6.6,12.9-7.4l7.9-2.8l14.5-1l16.3,5l10.1,6.2l17.1,2.6l7.5-18
					L294,2.1z"/>
			</g>
			<g>
				<polygon class="st1" points="389.1,264.8 389.1,273.4 356.8,275.3 356.8,266.6 				"/>
			</g>
			<g>
				<polygon class="st1" points="356.8,266.6 356.8,275.3 346.6,268.8 346.6,260.1 				"/>
			</g>
			<g>
				<path class="st30" d="M441.1,50l15,8.1l-10.9,7.4L428,65.2l-10.8,2.7l-5.2,6.9l-0.3,10.8l0.6,12.4l2.6,9.8l-5.3,8.1l-5.5,3.6
					l0.3,24.4l11.3,9.8l-7.1,7.3l-12,7.8L377,181.7l1.2,10.3l10.2,4.6l11.9,5.6l12.5,1.3l6,9.1l-5.1,10.8l-1.3,11.6l-9,7.3l-5.3,5.5
					l-4.7,9.6l-4.3,7.4l-32.4,1.9l-10.1-6.5h-23.8l-9.7-3.9l-8.1-8.6l-14-3.7l-9,0.9l-10.5-7.5l-18.1-3.7l-11-11.4
					c-0.3,0.1-0.9,0.1-1.7,0.1c-3,0-8.9-1-15.5-7.5l-9.2-9l-3.3-2.3l-10.6-0.3l-17.9-0.6l-8.4-8c-0.6,0.4-2.1,1.1-4.3,1.1
					c-2.3,0-5.5-0.8-9.3-3.9c-13.4-10.6-20.7-16.8-21.9-18.4l-33.9-31.2l-16.1-22.7l-11.1-13.7l-7.4-6.7l-19.7-1.8l-13.5,1.9l-6.8-7
					l-5.4-8.5l-6.6-7.1L1.6,63l22.8,7l23.9-11.1l20.4-17.5L93,38.9c1.2-0.6,5.8-2.5,24.5-9.3c5.3-1.9,8.6-3.2,8.8-3.2l12.6-2.2
					c0.4-0.6,1.8-1.9,6.7-1.9c2.8,0,6.8,0.4,12.4,1.6c5.1,1.1,12.8,2,13.9,2.2l8.6-3.6c0.2,0.1,0.8,0.3,2.2,0.3
					c2.7,0,8.3-0.8,18.2-5.1c11.5-5,12.4-6.9,12.4-7l8.6-3.2l14.8-1l16.7,5.1l10.1,6.2l16,2.4l7.4-17.8l6.3-1
					c3.5-0.3,9.7,2.6,14.7,5.1c8.3,4.2,11.4,4.9,12.6,4.9l10.3-1.2l13.4,16.1l7,6.6l26.6,1.1l12.7,17.5l22.6-1.2h28L441.1,50
					L441.1,50z M445,64.5l9.3-6.3l-13.4-7.3h-27.8L390,52.2l-12.7-17.5l-26.5-1.1l-7.3-6.9l-13.1-15.8h-8.1
					c-0.5,0.9-0.8,1.2-1.7,1.2c-1.6,0-5-0.9-13.1-5c-9.4-4.7-12.4-5.3-13.3-5.3L287.6,3l-7.5,18L263,18.4l-10.1-6.2l-16.3-5l-14.5,1
					l-7.9,2.8c-0.5,0.8-2.8,3-12.9,7.4c-10,4.4-15.7,5.2-18.6,5.2c-1.2,0-1.9-0.1-2.2-0.2l-8.4,3.5c-0.2,0-8.7-1-14.2-2.2
					c-5.6-1.2-9.5-1.6-12.1-1.6c-5.2,0-5.8,1.5-5.9,1.5l-13.1,2.6c0,0-3.5,1.3-8.7,3.2c-20,7.2-23.6,8.8-24.3,9.1l-24.3,2.6
					L49.1,59.7L24.8,71L7,65.5l13.8,10.4l6.6,7.2l5.4,8.5l6.4,6.6l13.1-1.8l20.1,1.9l7.7,7l11.1,13.8l16.1,22.7l34.1,31.4
					c0.6,0.9,4.1,4.3,21.4,18c3.6,2.9,6.5,3.6,8.7,3.6c2.5,0,3.9-1.1,4-1.1l9.1,8l17.5,0.6l10.9,0.3l3.6,2.6l9.2,9.1
					c6.4,6.3,12.2,7.2,14.9,7.2c1.1,0,1.7-0.1,1.7-0.1l11.4,11.5l18.1,3.8l10.3,7.4l8.7-0.9l14.5,3.8l8.2,8.7l9.3,3.7h23.8l10.1,6.5
					l31.5-1.8l4-6.9l4.8-9.7l5.4-5.6l8.7-7.1l1.3-11.5l4.9-10.3l-5.4-8.3l-12.2-1.3l-12-5.6l-10.7-4.8l-1.3-11.5l20.2-13.2l12-7.8
					l6.2-6.4l-10.8-9.5l-0.3-25.4l5.8-3.8l4.9-7.5l-2.5-9.5l-0.6-12.5l0.3-11.1l5.6-7.4l11.3-2.9L445,64.5"/>
			</g>
		</g>
	</g>
</g>
<g>
	<g>
		<g class="st0">
			<g>
				<polygon class="st5" points="279.2,262.7 279.2,271.4 279,271.7 279,263 				"/>
			</g>
			<g class="st0">
				<g>
					<g>
						<defs>
							<path id="SVGID_00000052082795742214206570000012066082552011319216_" d="M249.9,272.8v-8.7c0-2.6,0.5-5,1.5-6.3
								c1.3-1.7,2.4-2.1,3.7-2.1c0.6,0,1.3,0.1,2.1,0.2c0.9,0.1,2,0.3,3.2,0.3c1.1,0,2.1,0,2.9,0c0.6,0,1.2,0,1.7,0
								c4.5,0,5.3,0.6,13,6.8v8.7c-7.7-6.1-8.5-6.8-13-6.8c-0.5,0-1.1,0-1.7,0c-0.8,0-1.8,0-2.9,0c-1.2,0-2.3-0.2-3.2-0.3
								c-0.8-0.1-1.4-0.2-2.1-0.2c-1.3,0-2.4,0.5-3.7,2.1C250.3,267.8,249.9,270.2,249.9,272.8z"/>
						</defs>
						<clipPath id="SVGID_00000143596912695571112310000005696460393753473444_">
							<use xlink:href="#SVGID_00000052082795742214206570000012066082552011319216_"  style="overflow:visible;"/>
						</clipPath>
						<g style="clip-path:url(#SVGID_00000143596912695571112310000005696460393753473444_);enable-background:new    ;">
							<path class="st4" d="M278,263v8.7c-7.7-6.1-8.5-6.8-13-6.8c-0.5,0-1.1,0-1.7,0c-0.8,0-1.8,0-2.9,0c-1.2,0-2.3-0.2-3.2-0.3
								c-0.8-0.1-1.4-0.2-2.1-0.2c-1.3,0-2.4,0.4-3.7,2.1v-8.7c1.3-1.7,2.4-2.1,3.7-2.1c0.6,0,1.3,0.1,2.1,0.2
								c0.9,0.1,2,0.3,3.2,0.3c1.1,0,2.1,0,2.9,0c0.6,0,1.2,0,1.7,0C269.5,256.2,270.3,256.8,278,263"/>
							<path class="st3" d="M251.4,257.8v8.7l0,0c-0.2,0.3-0.4,0.6-0.6,0.9v-8.7C251,258.4,251.2,258.1,251.4,257.8L251.4,257.8"/>
							<path class="st5" d="M250.8,258.8v8.7c-0.2,0.5-0.4,1.1-0.6,1.8v-8.7C250.4,259.9,250.6,259.3,250.8,258.8"/>
							<path class="st9" d="M250.2,260.6v8.7c-0.2,1.1-0.3,2.3-0.3,3.5v-8.7C249.9,262.9,250,261.6,250.2,260.6"/>
						</g>
					</g>
				</g>
			</g>
			<g class="st0">
				<g>
					<g>
						<defs>
							<path id="SVGID_00000097489645835054746210000010981503111000291514_" d="M276.8,274.6L276.8,274.6L276.8,274.6L276.8,274.6
								L276.8,274.6L276.8,274.6L276.8,274.6C276.8,274.5,276.8,274.5,276.8,274.6C276.8,274.5,276.8,274.5,276.8,274.6
								c0-0.4,0-0.8,0-1.1s0-0.7,0-1.1c0-0.3,0-0.8,0-1.1s0-0.8,0-1.1s0-0.8,0-1.1s0-0.8,0-1.1s0-0.7,0-1.1c0-0.3,0-0.7,0-1
								c0.3-1.1,0.7-2.1,1.1-3v8.7C277.5,272.6,277.2,273.6,276.8,274.6z"/>
						</defs>
						<clipPath id="SVGID_00000114072047775491245760000012462276730041902517_">
							<use xlink:href="#SVGID_00000097489645835054746210000010981503111000291514_"  style="overflow:visible;"/>
						</clipPath>
						<g style="clip-path:url(#SVGID_00000114072047775491245760000012462276730041902517_);enable-background:new    ;">
							<path class="st33" d="M277.9,262.9v8.7c-0.4,1-0.7,2-1.1,3c-0.4,1.1-0.7,2.2-1.2,3.2v-8.7c0.5-1,0.8-2.1,1.2-3.2
								C277.2,264.9,277.5,263.9,277.9,262.9"/>
						</g>
					</g>
				</g>
			</g>
			<g class="st0">
				<g>
					<g>
						<defs>
							<path id="SVGID_00000061473306908927176070000001168050238435111307_" d="M276.8,274.6L276.8,274.6c0-0.3,0-0.7,0-1
								s0-0.8,0-1.1s0-0.8,0-1.1s0-0.8,0-1.1s0-0.8,0-1.1s0-0.8,0-1.1s0-0.8,0-1.1s0-0.7,0-1l0,0c0,0.3,0,0.7,0,1s0,0.7,0,1.1
								c0,0.3,0,0.8,0,1.1s0,0.8,0,1.1s0,0.8,0,1.1s0,0.8,0,1.1s0,0.7,0,1.1C276.8,273.8,276.8,274.2,276.8,274.6L276.8,274.6z"/>
						</defs>
						<clipPath id="SVGID_00000142863804767979586730000012664810610694698904_">
							<use xlink:href="#SVGID_00000061473306908927176070000001168050238435111307_"  style="overflow:visible;"/>
						</clipPath>
						<g style="clip-path:url(#SVGID_00000142863804767979586730000012664810610694698904_);enable-background:new    ;">
							<path class="st33" d="M277.9,262.9v8.7c-0.4,1-0.7,2-1.1,3c-0.4,1.1-0.7,2.2-1.2,3.2v-8.7c0.5-1,0.8-2.1,1.2-3.2
								C277.2,264.9,277.5,263.9,277.9,262.9"/>
						</g>
					</g>
				</g>
			</g>
			<g class="st0">
				<g>
					<g>
						<defs>
							<path id="SVGID_00000018937508939533689280000017265637165183903113_" d="M252.5,282c-1.7-1.6-2.7-5.5-2.7-9.2v-8.7
								c0,3.7,1,7.6,2.7,9.2l0,0c0,0.3,0,0.7,0,1s0,0.8,0,1.1s0,0.8,0,1.1s0,0.8,0,1.1s0,0.8,0,1.1s0,0.8,0,1.1s0,0.8,0,1.1
								C252.6,281.3,252.6,281.7,252.5,282L252.5,282z"/>
						</defs>
						<clipPath id="SVGID_00000057131098673503630540000005721319886408591025_">
							<use xlink:href="#SVGID_00000018937508939533689280000017265637165183903113_"  style="overflow:visible;"/>
						</clipPath>
						<g style="clip-path:url(#SVGID_00000057131098673503630540000005721319886408591025_);enable-background:new    ;">
							<path class="st15" d="M274.2,271.5v8.7c-1,1.2-2.3,2.3-4.4,3.1c-1.6,0.6-4.6,1-7.6,1c-3.9,0-7.9-0.6-9.7-2.3
								c-1.7-1.6-2.7-5.5-2.7-9.2v-8.7c0,3.7,1,7.6,2.7,9.2c1.8,1.6,5.8,2.3,9.7,2.3c3.1,0,6.1-0.4,7.6-1
								C271.9,273.8,273.3,272.7,274.2,271.5"/>
						</g>
					</g>
				</g>
			</g>
			<g class="st0">
				<g>
					<g>
						<defs>
							<path id="SVGID_00000049906000711381430020000003274152686535083400_" d="M276.8,274.7c-1.1,3.3-2.2,6.8-6.9,8.6
								c0-0.3,0-0.7,0-1s0-0.8,0-1.1s0-0.8,0-1.1s0-0.8,0-1.1s0-0.8,0-1.1s0-0.8,0-1.1s0-0.8,0-1.1s0-0.7,0-1
								c4.7-1.8,5.8-5.3,6.9-8.6c0,0.3,0,0.7,0,1s0,0.8,0,1.1s0,0.8,0,1.1s0,0.8,0,1.1s0,0.8,0,1.1s0,0.8,0,1.1s0,0.8,0,1.1
								C276.8,273.9,276.9,274.4,276.8,274.7z"/>
						</defs>
						<clipPath id="SVGID_00000054239987018084892860000008816599696383214252_">
							<use xlink:href="#SVGID_00000049906000711381430020000003274152686535083400_"  style="overflow:visible;"/>
						</clipPath>
						<g style="clip-path:url(#SVGID_00000054239987018084892860000008816599696383214252_);enable-background:new    ;">
							<path class="st33" d="M277.9,262.9v8.7c-0.4,1-0.7,2-1.1,3c-0.4,1.1-0.7,2.2-1.2,3.2v-8.7c0.5-1,0.8-2.1,1.2-3.2
								C277.2,264.9,277.5,263.9,277.9,262.9"/>
							<path class="st28" d="M275.6,269.2v8.7c-0.4,0.8-0.8,1.6-1.4,2.3v-8.7C274.8,270.7,275.2,270,275.6,269.2"/>
							<path class="st15" d="M274.2,271.5v8.7c-1,1.2-2.3,2.3-4.4,3.1c-1.6,0.6-4.6,1-7.6,1c-3.9,0-7.9-0.6-9.7-2.3
								c-1.7-1.6-2.7-5.5-2.7-9.2v-8.7c0,3.7,1,7.6,2.7,9.2c1.8,1.6,5.8,2.3,9.7,2.3c3.1,0,6.1-0.4,7.6-1
								C271.9,273.8,273.3,272.7,274.2,271.5"/>
						</g>
					</g>
				</g>
			</g>
			<g class="st0">
				<g>
					<g>
						<defs>
							<path id="SVGID_00000019646686816764651670000015964760031946900908_" d="M269.9,283.2L269.9,283.2c0-0.3,0-0.7,0-1
								s0-0.8,0-1.1s0-0.8,0-1.1s0-0.8,0-1.1s0-0.8,0-1.1s0-0.8,0-1.1s0-0.8,0-1.1s0-0.7,0-1l0,0c0,0.3,0,0.7,0,1s0,0.8,0,1.1
								s0,0.8,0,1.1s0,0.8,0,1.1s0,0.8,0,1.1s0,0.8,0,1.1s0,0.8,0,1.1S269.9,282.9,269.9,283.2z"/>
						</defs>
						<clipPath id="SVGID_00000054983149598756971100000000410307462839434155_">
							<use xlink:href="#SVGID_00000019646686816764651670000015964760031946900908_"  style="overflow:visible;"/>
						</clipPath>
						<g style="clip-path:url(#SVGID_00000054983149598756971100000000410307462839434155_);enable-background:new    ;">
							<path class="st15" d="M274.2,271.5v8.7c-1,1.2-2.3,2.3-4.4,3.1c-1.6,0.6-4.6,1-7.6,1c-3.9,0-7.9-0.6-9.7-2.3
								c-1.7-1.6-2.7-5.5-2.7-9.2v-8.7c0,3.7,1,7.6,2.7,9.2c1.8,1.6,5.8,2.3,9.7,2.3c3.1,0,6.1-0.4,7.6-1
								C271.9,273.8,273.3,272.7,274.2,271.5"/>
						</g>
					</g>
				</g>
			</g>
			<g class="st0">
				<g>
					<g>
						<defs>
							<path id="SVGID_00000176027746431657126860000010548641135970933429_" d="M262.2,284.3c-3.8,0-7.9-0.6-9.7-2.3
								c0-0.3,0-0.7,0-1s0-0.8,0-1.1s0-0.8,0-1.1s0-0.8,0-1.1s0-0.8,0-1.1s0-0.8,0-1.1s0-0.8,0-1.1s0-0.7,0-1
								c1.8,1.6,5.8,2.3,9.7,2.3c0,0.3,0,0.7,0,1s0,0.8,0,1.1s0,0.8,0,1.1s0,0.8,0,1.1s0,0.8,0,1.1s0,0.8,0,1.1s0,0.8,0,1.1
								C262.2,283.6,262.2,284,262.2,284.3z"/>
						</defs>
						<clipPath id="SVGID_00000013180560548945553390000008262725921537079996_">
							<use xlink:href="#SVGID_00000176027746431657126860000010548641135970933429_"  style="overflow:visible;"/>
						</clipPath>
						<g style="clip-path:url(#SVGID_00000013180560548945553390000008262725921537079996_);enable-background:new    ;">
							<path class="st15" d="M274.2,271.5v8.7c-1,1.2-2.3,2.3-4.4,3.1c-1.6,0.6-4.6,1-7.6,1c-3.9,0-7.9-0.6-9.7-2.3
								c-1.7-1.6-2.7-5.5-2.7-9.2v-8.7c0,3.7,1,7.6,2.7,9.2c1.8,1.6,5.8,2.3,9.7,2.3c3.1,0,6.1-0.4,7.6-1
								C271.9,273.8,273.3,272.7,274.2,271.5"/>
						</g>
					</g>
				</g>
			</g>
			<g class="st0">
				<g>
					<g>
						<defs>
							<path id="SVGID_00000011711654737007460830000008599011823529908097_" d="M269.9,283.2c-1.6,0.6-4.6,1-7.6,1c0-0.3,0-0.7,0-1
								s0-0.8,0-1.1s0-0.8,0-1.1s0-0.8,0-1.1s0-0.8,0-1.1s0-0.8,0-1.1s0-0.8,0-1.1s0-0.7,0-1l0,0c0,0.3,0,0.7,0,1s0,0.7,0,1.1
								c0,0.3,0,0.8,0,1.1s0,0.8,0,1.1s0,0.8,0,1.1s0,0.8,0,1.1s0,0.7,0,1.1c0,0.3,0,0.7,0,1c0-0.3,0-0.7,0-1s0-0.7,0-1.1
								c0-0.3,0-0.8,0-1.1s0-0.8,0-1.1s0-0.8,0-1.1s0-0.8,0-1.1s0-0.7,0-1.1c0-0.3,0-0.7,0-1c3.1,0,6-0.4,7.6-1c0,0.3,0,0.7,0,1
								s0,0.8,0,1.1s0,0.8,0,1.1s0,0.8,0,1.1s0,0.8,0,1.1s0,0.8,0,1.1s0,0.8,0,1.1S269.9,282.9,269.9,283.2z"/>
						</defs>
						<clipPath id="SVGID_00000077307559974535991840000008942661199964221595_">
							<use xlink:href="#SVGID_00000011711654737007460830000008599011823529908097_"  style="overflow:visible;"/>
						</clipPath>
						<g style="clip-path:url(#SVGID_00000077307559974535991840000008942661199964221595_);enable-background:new    ;">
							<path class="st15" d="M274.2,271.5v8.7c-1,1.2-2.3,2.3-4.4,3.1c-1.6,0.6-4.6,1-7.6,1c-3.9,0-7.9-0.6-9.7-2.3
								c-1.7-1.6-2.7-5.5-2.7-9.2v-8.7c0,3.7,1,7.6,2.7,9.2c1.8,1.6,5.8,2.3,9.7,2.3c3.1,0,6.1-0.4,7.6-1
								C271.9,273.8,273.3,272.7,274.2,271.5"/>
						</g>
					</g>
				</g>
			</g>
			<g class="st0">
				<g>
					<g>
						<defs>
							<path id="SVGID_00000141435205491235210990000016160055228745233077_" d="M248.9,272.8v-8.7c0,3.9,1.1,8.1,3,9.9
								c2,1.8,6.3,2.5,10.4,2.5c3.2,0,6.2-0.4,7.9-1.1c5.1-2,6.4-5.8,7.5-9.2c0.4-1.2,0.7-2.3,1.3-3.2v8.7c-0.5,1-0.9,2.1-1.3,3.2
								c-1.1,3.4-2.4,7.2-7.5,9.2c-1.7,0.7-4.7,1.1-7.9,1.1c-4.1,0-8.5-0.7-10.4-2.5C249.9,281,248.9,276.8,248.9,272.8z"/>
						</defs>
						<clipPath id="SVGID_00000006673966388025037500000015873551413939271323_">
							<use xlink:href="#SVGID_00000141435205491235210990000016160055228745233077_"  style="overflow:visible;"/>
						</clipPath>
						<g style="clip-path:url(#SVGID_00000006673966388025037500000015873551413939271323_);enable-background:new    ;">
							<path class="st3" d="M279,263v8.7c-0.1,0.1-0.2,0.3-0.2,0.5v-8.7C278.9,263.4,278.9,263.2,279,263"/>
							<path class="st5" d="M278.8,263.5v8.7c-0.4,0.8-0.7,1.8-1,2.8c-0.4,1.1-0.7,2.2-1.2,3.3v-8.7c0.5-1.1,0.9-2.2,1.2-3.3
								C278.1,265.3,278.4,264.4,278.8,263.5"/>
							<path class="st3" d="M276.5,269.6v8.7c-0.4,0.9-0.9,1.7-1.5,2.5v-8.7C275.6,271.3,276.1,270.4,276.5,269.6"/>
							<path class="st4" d="M275,272.1v8.7c-1.1,1.4-2.6,2.6-4.8,3.4c-1.7,0.7-4.7,1.1-7.9,1.1c-4.1,0-8.5-0.7-10.4-2.5s-3-6-3-9.9
								v-8.7c0,3.9,1.1,8.1,3,9.9c2,1.8,6.3,2.5,10.4,2.5c3.2,0,6.2-0.4,7.9-1.1C272.5,274.6,274,273.4,275,272.1"/>
						</g>
					</g>
				</g>
			</g>
			<g>
				<path class="st30" d="M278.5,262.2l0.7,0.5l-0.2,0.4c-0.5,1-0.9,2.1-1.3,3.2c-1.1,3.4-2.4,7.2-7.5,9.2c-1.7,0.7-4.7,1.1-7.9,1.1
					c-4.1,0-8.5-0.7-10.4-2.5c-3.3-3-4.1-13.2-1.3-16.8c1.6-2,3-2.5,4.5-2.5c0.7,0,1.4,0.1,2.2,0.2c0.9,0.1,1.9,0.3,3,0.3
					s2.1,0,2.9,0c0.6,0,1.1,0,1.6,0C269.8,255.2,270.7,255.9,278.5,262.2z M276.8,266c0.4-1.1,0.7-2.1,1.1-3
					c-7.7-6.1-8.5-6.8-13-6.8c-0.5,0-1.1,0-1.7,0c-0.8,0-1.8,0-2.9,0c-1.2,0-2.3-0.2-3.2-0.3c-0.8-0.1-1.4-0.2-2.1-0.2
					c-1.3,0-2.4,0.5-3.7,2.1c-2.5,3.1-1.7,12.8,1.2,15.5c1.8,1.6,5.8,2.3,9.7,2.3c3.1,0,6.1-0.4,7.6-1
					C274.6,272.7,275.7,269.3,276.8,266"/>
			</g>
			<g>
				<path class="st29" d="M255.1,255.7c0.6,0,1.3,0.1,2.1,0.2c0.9,0.1,2,0.3,3.2,0.3c1.1,0,2.1,0,2.9,0c0.6,0,1.2,0,1.7,0
					c4.5,0,5.3,0.6,12.9,6.7c-0.4,1-0.7,2-1.1,3c-1.1,3.3-2.2,6.8-6.9,8.6c-1.6,0.6-4.6,1-7.6,1c-3.9,0-7.9-0.6-9.7-2.3
					c-2.9-2.7-3.6-12.3-1.2-15.5C252.7,256.2,253.8,255.7,255.1,255.7z"/>
			</g>
		</g>
	</g>
</g>
<path class="st41" d="M111.9,146.1c2.3,0,4.7-0.5,7-0.4c1,0,2.3,0.8,3.3,0.7c2.1-0.2,1.7-1.1,3-1.5c1.7-0.6,4-1,5.9-1.6
	c1.4-0.4,4.6-0.4,5.3-0.8c1.6-0.9,2.1-3.1,3.8-4.1c2.8-1.5,7.8-0.9,11-1.6c6.1-1.3,11.5-4.7,17.8-5.9c3.4-0.6,4.6-1.6,7.6-2.8
	c4.4-1.7,9.8-1.5,14.4-3.6c2.6,4.2,5,7.9,9.1,10.3c2.2,1.3,1.2,2.2,3.5,0.4c1.8-1.5,4.8-6.9,5.8-9c-5-2.9-2.4-6.5-3.7-11.3
	c6.7-0.5,6-4.2,11.1-0.1c4.4,3.6,0.6,4.6,1.4,10c0.5,3.6,2.8,6.7,3.3,10.3c0.9,5.3-2.8,6.8-6.5,10.3c-7.7,7.3-11.5,10.7-11.6,21.5
	c0,5.8-0.7,8.6-5.5,12.1c-2.7,2-6.4,2.9-8.9,4.8c-2,1.6-2.1,2.6-2.5,5.1c-0.6,3.6-0.3,3.3,2.1,5.5c3.5,3.4,3.5,5.5,1.3,10.1"/>
<path class="st41" d="M171.1,130.3c-1.6-4.5-5.9-2.1-4.4-8.2c0.9-3.4,1.3-6.5,0.2-10.1c-0.5-1.7-2.2-3.2-2.5-4.8
	c-0.5-2.2,0.2-3.5-0.5-5.5c-1.1-2.9-1.7-1.2-0.4-4.4c1.3-3.2,2.1-3.8,1.2-7c-0.5-1.8-1.7-3.1-1.3-5.1c0.7-3.3,2.1-1.9,4-3.3
	c2.2-1.7,1.8-1.6,2.2-4.6c0.5-3.7,1.6-3.3,3.9-6.8c2-3.1,0.4-4-0.1-7.4c-0.5-3.2,1.6-2.7,1.8-5.1c0.2-2.2-2.2-3.5-2.9-5.5
	c-1-2.8-0.3-2.7,1-5.3c1.1-2.2,1.6-5.5,3.9-6.8c2.3-1.4,6.4-0.1,8.3-2.3c1.8-2,1.1-5.6,0.3-7.8c-0.8-2.3-1-5.6-2.6-7.2"/>
<path class="st41" d="M206.8,153.1c3,2.6,13,7.8,16.9,6.9c3.5-0.8,4.2-5.1,6.6-6.6c1.3-0.8,3.5-0.7,4.8-1.4c1.6-0.8,2.6-2.1,4.4-2.6
	c5.7-1.4,14.6-1.8,20.2-0.4c4.6,1.2,8.4,2.8,12.5-1.1"/>
<path class="st41" d="M275.5,239.8c0-4,0.3-7.7,1.8-11c1-2.1,3.8-5.4,2.8-7.4c-0.9-1.8-9.2-6.2-11-6.1c-1.7,0.2-3.6,1.2-5.3,1.7
	c-1.8,0.4-3.5,0.8-5.3,1.1c-3.9,0.6-7.9,0-11.9-0.1c-1-2.9,0.3-7.1,4-7c1.8,0.1,2.5,2.8,4.9,1.8c1.4-0.5,1.9-2.6,2.4-3.8
	c1.2-3,2.4-7.6-0.7-8.5c-2.1-0.6-5.3,0.7-7.7,0.1c-1.7-0.4-3.4-1.3-5.1-1.8c-4.1-1.2-5.8-2.1-8.5,1.2c-2.3,2.7-3.6,4.8-7.9,3.3
	c-2.6-0.9-1.3-0.7-3.1-2.8c-1.1-1.2-2.2-2.2-3.7-3.3c-3.2-2.4-5.8-5.8-9.9-6.4c-3.9-0.6-7.6,0.4-11.1-1.7c-2.8-1.7-6.3-4.7-8-7.4"/>
<path class="st41" d="M281.7,221.8c3.6-3.3,9.8,3.1,14.3,2.6c4-0.5,6.9-5,8.9-8c3.1-4.5,7.5-8.4,11.3-12.4c2.8-3,2.4-3,0.4-6.8
	c-1.2-2.1-3.6-4.6-4.1-7c-1.1-5.4,4.8-10.9-1.9-13.9c-3,1.8-5.2,6.2-8.8,7.4c-2.4,0.8-4.4-0.8-6.5-0.9c-5.1-0.4-9.6,4.5-14.4,4.1
	c-2.4-0.2-2.3-1.6-4.1-2.5c-3.4-1.6-6.6-0.8-9.9,0.6c-3.9,1.7-7.1,2.8-7.2-2.9c2.8-2.5,6.3-4.9,7.2-8.8c0.6-2.8,0.3-5.3,1.1-8.1
	c1.8-6.5,2-13.3,4-19.7c1.1-3.4,1.2-6.6,2.5-9.8c1.3-3.1,3.3-6.3,4.2-9.6c1-4.2,1.4-8.7,2.6-13c1-3.5,3.7-7.5,3.3-11.2
	c-0.5-4.3-2.1-3.9,0.6-7.5c3-4,2.2-7.8,2.3-13c2.8-0.1,5.9-0.3,8.7,0c2.7,0.3,5.6,2.1,8.7,2.1c2,0,4-1.5,6.3-1.6
	c3.2-0.2,2.9,1,5.3,2.8c3,2.3,6.7,1.5,10.3,2.6c3.2,1,3.8,3.1,6.4,4.7c6.6,4.1,18.8,3.1,26.7,3.8c4.3,0.4,11.1,2,15.3,0.6
	c2.9-1,1.3-2.7,3.2-5.1c2-2.5,6-3.3,9-3.1c-0.5-2.9,2.3-2.8,4.5-2.5c3.4,0.4,4.6,3,7,4c4,1.5,8.7,0.5,12.1-1.8"/>
<circle class="st42" cx="236.7" cy="211" r="6.2"/>
<g>
	<line class="st43" x1="239.8" y1="208.9" x2="213" y2="226.4"/>
	<g>
		<polyline class="st44" points="236.8,210.9 216.3,226.6 173.3,226.4 		"/>
		<g>
			<path d="M234.6,207.8c1.7-1.1,4.1-0.6,5.2,1.1s0.6,4.1-1.1,5.2s-4.1,0.6-5.2-1.1C232.3,211.3,232.8,209,234.6,207.8z"/>
		</g>
	</g>
</g>
<circle class="st42" cx="252.6" cy="206.4" r="6.2"/>
<g>
	<line class="st43" x1="255.7" y1="204.3" x2="228.9" y2="221.8"/>
	<g>
		<polyline class="st44" points="252.7,206.3 252.7,225.5 216.3,250.1 		"/>
		<g>
			<path d="M250.5,203.2c1.7-1.1,4.1-0.6,5.2,1.1c1.1,1.7,0.6,4.1-1.1,5.2c-1.7,1.1-4.1,0.6-5.2-1.1
				C248.2,206.7,248.7,204.4,250.5,203.2z"/>
		</g>
	</g>
</g>
<circle class="st42" cx="209" cy="32.1" r="6.2"/>
<line class="st43" x1="212.1" y1="30" x2="185.3" y2="47.5"/>
<g>
	<line class="st45" x1="209.1" y1="32" x2="209.1" y2="1.2"/>
	<g>
		<path d="M206.9,28.9c1.7-1.1,4.1-0.6,5.2,1.1s0.6,4.1-1.1,5.2s-4.1,0.6-5.2-1.1C204.6,32.4,205.1,30.1,206.9,28.9z"/>
	</g>
</g>
</svg>
