<?xml version="1.0" encoding="utf-8"?>
<!-- Generator: Adobe Illustrator 25.3.1, SVG Export Plug-In . SVG Version: 6.00 Build 0)  -->
<svg version="1.1" id="Layer_1" xmlns="http://www.w3.org/2000/svg" xmlns:xlink="http://www.w3.org/1999/xlink" x="0px" y="0px"
	 viewBox="0 0 524.4 424.5" style="enable-background:new 0 0 524.4 424.5;" xml:space="preserve">
<style type="text/css">
	.st0{fill:#EFEFEF;}
</style>
<path class="st0" d="M468.1,106.1c0.3,4.6,0.3,9.2,0.3,13.8c0,140.7-107.1,303-303,303c-60.4,0-116.4-17.5-163.5-47.8
	c8.5,1,16.8,1.3,25.7,1.3c49.8,0,95.6-16.8,132.2-45.5c-46.8-1-86-31.7-99.5-73.9c6.6,1,13.2,1.6,20.1,1.6c9.5,0,19.1-1.3,28-3.7
	c-48.8-9.8-85.3-52.8-85.3-104.5v-1.3c14.2,7.9,30.6,12.9,48.1,13.5C42.5,143.7,23.7,111,23.7,74.1c0-19.8,5.3-37.9,14.5-53.8
	c52.5,64.8,131.3,106.9,219.6,111.6c-1.6-7.9-2.6-16.1-2.6-24.4C255.2,48.8,302.6,1,361.7,1c30.6,0,58.3,12.9,77.8,33.6
	c24-4.6,47.2-13.5,67.6-25.7c-7.9,24.8-24.8,45.5-46.8,58.6c21.4-2.3,42.2-8.2,61.3-16.4C507.1,72.2,488.9,91,468.1,106.1
	L468.1,106.1z"/>
</svg>
